/* XPM */
static const char * expert_error_xpm[] = {
"14 14 95 2",
"  	c None",
". 	c #1D1111",
"+ 	c #230D0D",
"@ 	c #160808",
"# 	c #130505",
"$ 	c #1A0303",
"% 	c #0F0202",
"& 	c #2F2020",
"* 	c #9A2C2C",
"= 	c #DA3131",
"- 	c #FB2A2A",
"; 	c #FB1C1C",
"> 	c #D30D0D",
", 	c #870404",
"' 	c #120101",
") 	c #482F2F",
"! 	c #E45252",
"~ 	c #FF6F6F",
"{ 	c #FF7979",
"] 	c #FF6D6D",
"^ 	c #FF4E4E",
"/ 	c #FF2A2A",
"( 	c #FF1010",
"_ 	c #D80404",
": 	c #1E0000",
"< 	c #372828",
"[ 	c #E55858",
"} 	c #FF8C8C",
"| 	c #FFAEAE",
"1 	c #FFB8B8",
"2 	c #FFACAC",
"3 	c #FF8888",
"4 	c #FF5353",
"5 	c #FF2222",
"6 	c #FF0909",
"7 	c #D70101",
"8 	c #110000",
"9 	c #261A1A",
"0 	c #9E3535",
"a 	c #FF7373",
"b 	c #FFADAD",
"c 	c #FFCACA",
"d 	c #FFD1D1",
"e 	c #FFC9C9",
"f 	c #FFA8A8",
"g 	c #FF6E6E",
"h 	c #FF3030",
"i 	c #FF0D0D",
"j 	c #FF0202",
"k 	c #850000",
"l 	c #0D0000",
"m 	c #281212",
"n 	c #DA3333",
"o 	c #FF7171",
"p 	c #FFABAB",
"q 	c #FFD0D0",
"r 	c #FFC7C7",
"s 	c #FFA7A7",
"t 	c #FF6C6C",
"u 	c #FF2F2F",
"v 	c #FF0C0C",
"w 	c #D10000",
"x 	c #180000",
"y 	c #170A0A",
"z 	c #FB2323",
"A 	c #FF8686",
"B 	c #FFB2B2",
"C 	c #FFA6A6",
"D 	c #FF8383",
"E 	c #FF2020",
"F 	c #FF0808",
"G 	c #FF0101",
"H 	c #FA0000",
"I 	c #0E0000",
"J 	c #120404",
"K 	c #FA0F0F",
"L 	c #FF2828",
"M 	c #FF4A4A",
"N 	c #FF6666",
"O 	c #FF6565",
"P 	c #FF4848",
"Q 	c #FF2626",
"R 	c #FF0303",
"S 	c #FF0000",
"T 	c #190101",
"U 	c #D20404",
"V 	c #FF1919",
"W 	c #FF2B2B",
"X 	c #FF2525",
"Y 	c #FF1818",
"Z 	c #FF0B0B",
"` 	c #850101",
" .	c #FF0404",
"..	c #FF0707",
"+.	c #D70000",
"        . + @ # $ %         ",
"      & * = - ; > , '       ",
"    ) ! ~ { ] ^ / ( _ :     ",
"  < [ } | 1 2 3 4 5 6 7 8   ",
"9 0 a b c d e f g h i j k l ",
"m n o p e q r s t u v j w x ",
"y z 4 A f B C D ^ E F G H I ",
"J K L M N o O P Q i R S H I ",
"T U v V Q W X Y Z R G S w x ",
"l ` j  ...F .. .j S S S k l ",
"  8 +.S G G G S S S S +.8   ",
"    : +.S S S S S S +.:     ",
"      8 k w H H w k 8       ",
"        l x I I x l         "};
