/* XPM */
static const char * expert_chat_xpm[] = {
"14 14 71 1",
" 	c None",
".	c #191919",
"+	c #1A1A1A",
"@	c #101010",
"#	c #0D0D0D",
"$	c #0A0A0A",
"%	c #282828",
"&	c #6E6E6E",
"*	c #969696",
"=	c #A7A7A7",
"-	c #A2A2A2",
";	c #848484",
">	c #535353",
",	c #0B0B0B",
"'	c #3E3E3E",
")	c #AAAAAA",
"!	c #C5C5C5",
"~	c #C9C9C9",
"{	c #B8B8B8",
"]	c #9F9F9F",
"^	c #838383",
"/	c #121212",
"(	c #313131",
"_	c #ACACAC",
":	c #D1D1D1",
"<	c #DFDFDF",
"[	c #E3E3E3",
"}	c #DEDEDE",
"|	c #CFCFCF",
"1	c #BABABA",
"2	c #9D9D9D",
"3	c #818181",
"4	c #212121",
"5	c #747474",
"6	c #C7C7C7",
"7	c #EAEAEA",
"8	c #EDEDED",
"9	c #E9E9E9",
"0	c #DCDCDC",
"a	c #9E9E9E",
"b	c #9A9A9A",
"c	c #505050",
"d	c #080808",
"e	c #1F1F1F",
"f	c #979797",
"g	c #C6C6C6",
"h	c #DDDDDD",
"i	c #ECECEC",
"j	c #C4C4C4",
"k	c #7D7D7D",
"l	c #0E0E0E",
"m	c #111111",
"n	c #A4A4A4",
"o	c #E0E0E0",
"p	c #DBDBDB",
"q	c #CDCDCD",
"r	c #A6A6A6",
"s	c #9C9C9C",
"t	c #999999",
"u	c #0C0C0C",
"v	c #A9A9A9",
"w	c #B7B7B7",
"x	c #C2C2C2",
"y	c #C1C1C1",
"z	c #B6B6B6",
"A	c #A8A8A8",
"B	c #0F0F0F",
"C	c #7F7F7F",
"D	c #A3A3A3",
"E	c #515151",
"F	c #9B9B9B",
"    .+@#@$    ",
"   %&*=-;>,   ",
"  ')!~!{)]^/  ",
" (_:<[}|1=23$ ",
"456}7890!_abcd",
"efgh9i90j_abkl",
"mn1|0opq{rst*d",
"usvwxgyzAabt*d",
"BCaDA)AD2bttkl",
"dEbFsssFbtttcd",
" $3tttttttt3$ ",
"  /3tttttt3/  ",
"   $ck**kc$   ",
"    dlddld    "};
