/* XPM */
static const char * expert_warn_xpm[] = {
"14 14 98 2",
"  	c None",
". 	c #1F1F13",
"+ 	c #25250E",
"@ 	c #18180B",
"# 	c #141406",
"$ 	c #1B1B04",
"% 	c #0F0F02",
"& 	c #343425",
"* 	c #9E9E34",
"= 	c #DBDB39",
"- 	c #FBFB32",
"; 	c #FBFB20",
"> 	c #D4D40F",
", 	c #878705",
"' 	c #121201",
") 	c #4F4F38",
"! 	c #E6E660",
"~ 	c #FFFF82",
"{ 	c #FFFF8E",
"] 	c #FFFF80",
"^ 	c #FFFF5C",
"/ 	c #FFFF31",
"( 	c #FFFF12",
"_ 	c #D8D804",
": 	c #1E1E00",
"< 	c #3E3E30",
"[ 	c #E7E766",
"} 	c #FFFFA4",
"| 	c #FFFFCC",
"1 	c #FFFFD7",
"2 	c #FFFFC9",
"3 	c #FFFF9F",
"4 	c #FFFF60",
"5 	c #FFFF28",
"6 	c #FFFF0A",
"7 	c #D7D701",
"8 	c #111100",
"9 	c #29291E",
"0 	c #A3A33E",
"a 	c #FFFF86",
"b 	c #FFFFCA",
"c 	c #FFFFED",
"d 	c #FFFFF5",
"e 	c #FFFFEB",
"f 	c #FFFFC5",
"g 	c #FFFF38",
"h 	c #FFFF0F",
"i 	c #FFFF02",
"j 	c #858500",
"k 	c #0D0D00",
"l 	c #2A2A14",
"m 	c #DCDC3B",
"n 	c #FFFF84",
"o 	c #FFFFC8",
"p 	c #FFFFF4",
"q 	c #FFFFE9",
"r 	c #FFFFC3",
"s 	c #FFFF7E",
"t 	c #FFFF36",
"u 	c #FFFF0E",
"v 	c #D1D100",
"w 	c #181800",
"x 	c #19190C",
"y 	c #FBFB28",
"z 	c #FFFF61",
"A 	c #FFFF9D",
"B 	c #FFFFD1",
"C 	c #FFFFC2",
"D 	c #FFFF99",
"E 	c #FFFF5B",
"F 	c #FFFF25",
"G 	c #FFFF09",
"H 	c #FFFF01",
"I 	c #FAFA00",
"J 	c #0E0E00",
"K 	c #121204",
"L 	c #FAFA12",
"M 	c #FFFF2F",
"N 	c #FFFF57",
"O 	c #FFFF78",
"P 	c #FFFF76",
"Q 	c #FFFF54",
"R 	c #FFFF2C",
"S 	c #FFFF10",
"T 	c #FFFF04",
"U 	c #FFFF00",
"V 	c #191901",
"W 	c #D2D204",
"X 	c #FFFF1D",
"Y 	c #FFFF2D",
"Z 	c #FFFF33",
"` 	c #FFFF2B",
" .	c #FFFF1C",
"..	c #FFFF0D",
"+.	c #858501",
"@.	c #FFFF05",
"#.	c #FFFF08",
"$.	c #D7D700",
"        . + @ # $ %         ",
"      & * = - ; > , '       ",
"    ) ! ~ { ] ^ / ( _ :     ",
"  < [ } | 1 2 3 4 5 6 7 8   ",
"9 0 a b c d e f ] g h i j k ",
"l m n o e p q r s t u i v w ",
"x y z A f B C D E F G H I J ",
"K L M N O n P Q R S T U I J ",
"V W u X Y Z `  ...T H U v w ",
"k +.i @.#.6 #.@.i H U U j k ",
"  8 $.U H H H U U U U $.8   ",
"    : $.U U U U U U $.:     ",
"      8 j v I I v j 8       ",
"        k w J J w k         "};
