/* XPM */
static const char * icon_layout_6_xpm[] = {
"44 44 3 1",
" 	c None",
".	c #000000",
"+	c #FFFFFF",
"............................................",
"............................................",
"..++++++++++++..++++++++++++..++++++++++++..",
"..++++++++++++..++++++++++++..++++++++++++..",
"..++++++++++++..++++++++++++..++++++++++++..",
"..++++++++++++..++++++++++++..++++++++++++..",
"..++++++++++++..++++++++++++..++++++++++++..",
"..++++++++++++..++++++++++++..++++++++++++..",
"..++++++++++++..++++++++++++..++++++++++++..",
"..++++++++++++..++++++++++++..++++++++++++..",
"..++++++++++++..++++++++++++..++++++++++++..",
"..++++++++++++..++++++++++++..++++++++++++..",
"..++++++++++++..++++++++++++..++++++++++++..",
"..++++++++++++..++++++++++++..++++++++++++..",
"..++++++++++++..++++++++++++..++++++++++++..",
"..++++++++++++..++++++++++++..++++++++++++..",
"..++++++++++++..++++++++++++..++++++++++++..",
"..++++++++++++..++++++++++++..++++++++++++..",
"..++++++.+++++..+++++...++++..++++...+++++..",
"..+++++..+++++..++++.+++.+++..+++.+++.++++..",
"..++++.+.+++++..++++++++.+++..+++++++.++++..",
"..++++++.+++++..++++++++.+++..+++++..+++++..",
"..++++++.+++++..+++++++.++++..+++++++.++++..",
"..++++++.+++++..++++++.+++++..+++++++.++++..",
"..++++++.+++++..+++++.++++++..+++.+++.++++..",
"..++++++.+++++..++++.....+++..++++...+++++..",
"..++++++++++++..++++++++++++..++++++++++++..",
"..++++++++++++..++++++++++++..++++++++++++..",
"..++++++++++++..++++++++++++..++++++++++++..",
"..++++++++++++..++++++++++++..++++++++++++..",
"..++++++++++++..++++++++++++..++++++++++++..",
"..++++++++++++..++++++++++++..++++++++++++..",
"..++++++++++++..++++++++++++..++++++++++++..",
"..++++++++++++..++++++++++++..++++++++++++..",
"..++++++++++++..++++++++++++..++++++++++++..",
"..++++++++++++..++++++++++++..++++++++++++..",
"..++++++++++++..++++++++++++..++++++++++++..",
"..++++++++++++..++++++++++++..++++++++++++..",
"..++++++++++++..++++++++++++..++++++++++++..",
"..++++++++++++..++++++++++++..++++++++++++..",
"..++++++++++++..++++++++++++..++++++++++++..",
"..++++++++++++..++++++++++++..++++++++++++..",
"............................................",
"............................................"};
