/* XPM */
static const char * stock_dialog_question_48_xpm[] = {
"48 48 481 2",
"  	c None",
". 	c #572B20",
"+ 	c #572B21",
"@ 	c #552C22",
"# 	c #552D23",
"$ 	c #583027",
"% 	c #583128",
"& 	c #5A352C",
"* 	c #5B362E",
"= 	c #59342B",
"- 	c #5A3228",
"; 	c #5A2F25",
"> 	c #522C24",
", 	c #53291F",
"' 	c #5A3127",
") 	c #5E362C",
"! 	c #704C43",
"~ 	c #7F574F",
"{ 	c #81564C",
"] 	c #8D594D",
"^ 	c #965F53",
"/ 	c #996154",
"( 	c #B26F5F",
"_ 	c #B97363",
": 	c #B87060",
"< 	c #B56A58",
"[ 	c #B0614E",
"} 	c #AE5C49",
"| 	c #AD5B48",
"1 	c #A55644",
"2 	c #8E4939",
"3 	c #8E4535",
"4 	c #8A4332",
"5 	c #75392B",
"6 	c #613024",
"7 	c #4E261C",
"8 	c #50271E",
"9 	c #4E261D",
"0 	c #5D3126",
"a 	c #70453C",
"b 	c #814E43",
"c 	c #9E6A5E",
"d 	c #B3796C",
"e 	c #BB7768",
"f 	c #B46857",
"g 	c #AD5C49",
"h 	c #AE5D4A",
"i 	c #A9533F",
"j 	c #AA5440",
"k 	c #A6523E",
"l 	c #A34F3C",
"m 	c #924736",
"n 	c #7E3E2F",
"o 	c #643025",
"p 	c #4D261D",
"q 	c #49241B",
"r 	c #5B3830",
"s 	c #7A4E44",
"t 	c #986458",
"u 	c #B87868",
"v 	c #C08072",
"w 	c #B76F5E",
"x 	c #A05544",
"y 	c #914C3C",
"z 	c #803F30",
"A 	c #7C3D2E",
"B 	c #7F3E2F",
"C 	c #864232",
"D 	c #8D4535",
"E 	c #944937",
"F 	c #984B39",
"G 	c #9B4C3A",
"H 	c #A5513E",
"I 	c #9D4D3A",
"J 	c #974A38",
"K 	c #73382A",
"L 	c #562A20",
"M 	c #47231A",
"N 	c #623931",
"O 	c #6E463E",
"P 	c #9F6052",
"Q 	c #B56B59",
"R 	c #AE5E4C",
"S 	c #7B3C2E",
"T 	c #986053",
"U 	c #9A695D",
"V 	c #A7867E",
"W 	c #B39A94",
"X 	c #BBA29C",
"Y 	c #C1B8B7",
"Z 	c #C1C1C1",
"` 	c #C0C0C0",
" .	c #BBA19A",
"..	c #C8ADA7",
"+.	c #DABEB7",
"@.	c #C38A7C",
"#.	c #A4503D",
"$.	c #964A38",
"%.	c #7D3D2E",
"&.	c #613930",
"*.	c #835043",
"=.	c #B56F60",
"-.	c #AB5844",
";.	c #9A4C3A",
">.	c #8E5A4E",
",.	c #8A6C65",
"'.	c #9C8D89",
").	c #BBBBBB",
"!.	c #CECECE",
"~.	c #E5E5E5",
"{.	c #EDEDED",
"].	c #F6F6F6",
"^.	c #F8F8F8",
"/.	c #F4F4F4",
"(.	c #F3F3F3",
"_.	c #EAE0DE",
":.	c #C2897B",
"<.	c #954937",
"[.	c #4D261C",
"}.	c #643A30",
"|.	c #804E42",
"1.	c #B47162",
"2.	c #B36755",
"3.	c #A4513D",
"4.	c #813F30",
"5.	c #834C3F",
"6.	c #8D6961",
"7.	c #A79F9D",
"8.	c #E0E0E0",
"9.	c #F1F1F1",
"0.	c #D9BCB6",
"a.	c #B97666",
"b.	c #A7523E",
"c.	c #442119",
"d.	c #634139",
"e.	c #AB6A5A",
"f.	c #B0604E",
"g.	c #A04F3C",
"h.	c #75392C",
"i.	c #8D716A",
"j.	c #7F7F7F",
"k.	c #EEEEEE",
"l.	c #F5F5F5",
"m.	c #F0F0F0",
"n.	c #DECBC7",
"o.	c #B87566",
"p.	c #994B39",
"q.	c #7A3B2D",
"r.	c #7E5951",
"s.	c #AF5E4B",
"t.	c #A2503C",
"u.	c #773A2C",
"v.	c #80726F",
"w.	c #B5B5B5",
"x.	c #FCFCFC",
"y.	c #FDFDFD",
"z.	c #F2F2F2",
"A.	c #B16452",
"B.	c #A3503D",
"C.	c #874232",
"D.	c #442219",
"E.	c #9E7971",
"F.	c #945F53",
"G.	c #8A8A8A",
"H.	c #AEAEAE",
"I.	c #555555",
"J.	c #242424",
"K.	c #1B1B1B",
"L.	c #191919",
"M.	c #181818",
"N.	c #2C2C2C",
"O.	c #DBDBDB",
"P.	c #EBEBEB",
"Q.	c #C6968B",
"R.	c #4C251C",
"S.	c #AB7E73",
"T.	c #9D7369",
"U.	c #C5C5C5",
"V.	c #838383",
"W.	c #1F1F1F",
"X.	c #353535",
"Y.	c #2A2A2A",
"Z.	c #AAAAAA",
"`.	c #E9E9E9",
" +	c #D4B7B0",
".+	c #924737",
"++	c #4F261D",
"@+	c #6B443B",
"#+	c #A47369",
"$+	c #B89E98",
"%+	c #CCCCCC",
"&+	c #A9A9A9",
"*+	c #363636",
"=+	c #2F2F2F",
"-+	c #5A5A5A",
";+	c #727272",
">+	c #626262",
",+	c #3B3B3B",
"'+	c #1A1A1A",
")+	c #292929",
"!+	c #DEDEDE",
"~+	c #D5BBB5",
"{+	c #AB5642",
"]+	c #A14F3C",
"^+	c #49231B",
"/+	c #A37367",
"(+	c #783B2D",
"_+	c #B7968E",
":+	c #CBCBCB",
"<+	c #FEFEFE",
"[+	c #666666",
"}+	c #1C1C1C",
"|+	c #CDCDCD",
"1+	c #3D3D3D",
"2+	c #1D1D1D",
"3+	c #DFDFDF",
"4+	c #E8E8E8",
"5+	c #C89B91",
"6+	c #8E4635",
"7+	c #48231B",
"8+	c #6A433B",
"9+	c #9D6B60",
"0+	c #7A3C2D",
"a+	c #A9786D",
"b+	c #5D5D5D",
"c+	c #737373",
"d+	c #5E5E5E",
"e+	c #595959",
"f+	c #D2D2D2",
"g+	c #E6E6E6",
"h+	c #C18C7F",
"i+	c #AC5845",
"j+	c #4A251B",
"k+	c #88584C",
"l+	c #B16250",
"m+	c #8D5244",
"n+	c #373737",
"o+	c #171717",
"p+	c #ECECEC",
"q+	c #6F6F6F",
"r+	c #616161",
"s+	c #C2C2C2",
"t+	c #B26452",
"u+	c #734940",
"v+	c #793B2D",
"w+	c #AFA7A5",
"x+	c #B7B7B7",
"y+	c #4B4B4B",
"z+	c #535353",
"A+	c #4E4E4E",
"B+	c #1E1E1E",
"C+	c #7C7C7C",
"D+	c #E3E3E3",
"E+	c #D6BEB8",
"F+	c #B36654",
"G+	c #73382B",
"H+	c #5A3229",
"I+	c #B66F5F",
"J+	c #A88981",
"K+	c #D9D9D9",
"L+	c #EAEAEA",
"M+	c #9E9E9E",
"N+	c #757575",
"O+	c #D3D3D3",
"P+	c #EFEFEF",
"Q+	c #707070",
"R+	c #282828",
"S+	c #464646",
"T+	c #A7A7A7",
"U+	c #D0D0D0",
"V+	c #E1E1E1",
"W+	c #BF897C",
"X+	c #B56A59",
"Y+	c #653125",
"Z+	c #4D271E",
"`+	c #A46759",
" @	c #AD5A47",
".@	c #824031",
"+@	c #9F6759",
"@@	c #BFBFBF",
"#@	c #949494",
"$@	c #4C4C4C",
"%@	c #676767",
"&@	c #A3A3A3",
"*@	c #894332",
"=@	c #47211A",
"-@	c #784A3E",
";@	c #954938",
">@	c #7D3D2F",
",@	c #A49C9A",
"'@	c #545454",
")@	c #4F4F4F",
"!@	c #9B9B9B",
"~@	c #D5BEB9",
"{@	c #B76E5D",
"]@	c #76392B",
"^@	c #593128",
"/@	c #B6705F",
"(@	c #A67F76",
"_@	c #606060",
":@	c #303030",
"<@	c #161616",
"[@	c #343434",
"}@	c #909090",
"|@	c #BB7F71",
"1@	c #9A4C39",
"2@	c #5D2D22",
"3@	c #4A251D",
"4@	c #A2675A",
"5@	c #924837",
"6@	c #864E41",
"7@	c #A0A0A0",
"8@	c #DCDCDC",
"9@	c #A2A2A2",
"0@	c #434343",
"a@	c #A8A8A8",
"b@	c #DED1CE",
"c@	c #824030",
"d@	c #391C15",
"e@	c #6B3F35",
"f@	c #B6948C",
"g@	c #ABABAB",
"h@	c #4D4D4D",
"i@	c #808080",
"j@	c #BE8578",
"k@	c #633024",
"l@	c #4F2A21",
"m@	c #AF6F60",
"n@	c #8C4534",
"o@	c #8B5143",
"p@	c #C9C9C9",
"q@	c #878787",
"r@	c #DFD2CF",
"s@	c #B97261",
"t@	c #803E2F",
"u@	c #401E17",
"v@	c #774D42",
"w@	c #AC5945",
"x@	c #7A3C2E",
"y@	c #B1918A",
"z@	c #E2E2E2",
"A@	c #2E2E2E",
"B@	c #BF887B",
"C@	c #BB7666",
"D@	c #9F4E3B",
"E@	c #673226",
"F@	c #4F2B23",
"G@	c #AD6A5B",
"H@	c #894F42",
"I@	c #BCBCBC",
"J@	c #9A9A9A",
"K@	c #D7D7D7",
"L@	c #DCD0CD",
"M@	c #BE7C6D",
"N@	c #401F17",
"O@	c #774E44",
"P@	c #B0604D",
"Q@	c #A98177",
"R@	c #C7C7C7",
"S@	c #D5D5D5",
"T@	c #BE8172",
"U@	c #72372A",
"V@	c #160A08",
"W@	c #4F2E26",
"X@	c #AD6F62",
"Y@	c #A2503D",
"Z@	c #9E9694",
"`@	c #494949",
" #	c #484848",
".#	c #CCAAA2",
"+#	c #B26553",
"@#	c #874131",
"##	c #3B1C15",
"$#	c #684138",
"%#	c #B46957",
"&#	c #8A4434",
"*#	c #8F5C51",
"=#	c #151515",
"-#	c #141414",
";#	c #262626",
">#	c #B6B6B6",
",#	c #D4D4D4",
"'#	c #D8CCC9",
")#	c #B66C5A",
"!#	c #643024",
"~#	c #45231B",
"{#	c #985F52",
"]#	c #987B74",
"^#	c #AFAFAF",
"/#	c #DDD7D5",
"(#	c #BE8274",
"_#	c #9C4D3A",
":#	c #74382A",
"<#	c #26120D",
"[#	c #4F2920",
"}#	c #B06F60",
"|#	c #763A2C",
"1#	c #907B76",
"2#	c #222222",
"3#	c #B4B4B4",
"4#	c #C2948A",
"5#	c #793A2C",
"6#	c #4B241B",
"7#	c #67392E",
"8#	c #AF6959",
"9#	c #844C3F",
"0#	c #8E8786",
"a#	c #C3C3C3",
"b#	c #C59F95",
"c#	c #B66D5C",
"d#	c #854131",
"e#	c #5C2C21",
"f#	c #0F0705",
"g#	c #412018",
"h#	c #794539",
"i#	c #844C3E",
"j#	c #918A88",
"k#	c #B2B2B2",
"l#	c #C8B1AB",
"m#	c #BC7868",
"n#	c #A8533F",
"o#	c #8F4635",
"p#	c #683325",
"q#	c #220F0B",
"r#	c #432119",
"s#	c #8C4E3F",
"t#	c #8B4F40",
"u#	c #938481",
"v#	c #B8B8B8",
"w#	c #CFCFCF",
"x#	c #B88175",
"y#	c #BF7E6F",
"z#	c #6E3528",
"A#	c #28120D",
"B#	c #401F18",
"C#	c #8B4D3F",
"D#	c #9B776F",
"E#	c #CEC5C3",
"F#	c #B6796A",
"G#	c #BD7A6A",
"H#	c #9B4C39",
"I#	c #723729",
"J#	c #371A13",
"K#	c #402019",
"L#	c #925345",
"M#	c #9E8079",
"N#	c #B3B3B3",
"O#	c #D4CDCB",
"P#	c #BC9187",
"Q#	c #A04E3B",
"R#	c #3E1E16",
"S#	c #884A3B",
"T#	c #A85440",
"U#	c #A55B49",
"V#	c #B2857A",
"W#	c #C9B1AB",
"X#	c #C6ACA7",
"Y#	c #B67F72",
"Z#	c #B16351",
"`#	c #6A3427",
" $	c #3D1D16",
".$	c #3F1F17",
"+$	c #72382A",
"@$	c #683126",
"#$	c #301711",
"$$	c #54291F",
"%$	c #8A4433",
"&$	c #7A3B2C",
"*$	c #52271E",
"=$	c #24100C",
"-$	c #3C1D16",
";$	c #5C2D22",
">$	c #894333",
",$	c #A5513D",
"'$	c #914735",
")$	c #5B2C21",
"!$	c #321811",
"~$	c #422018",
"{$	c #572A20",
"]$	c #6E3629",
"^$	c #3A1C15",
"                                                                                                ",
"                                                                                                ",
"                                                                                                ",
"                                . + @ # $ % & * = - ; # > + ,                                   ",
"                      ' ) ! ~ { ] ^ / ( _ : < [ } } | 1 2 3 4 5 6 7 8 9                         ",
"                0 a b c d e f } } } g h i i i i j j j i k j j j j l m n o p q                   ",
"            r s t u v w g x y z A A n B C C D D E F G G H j j j j j j j I J K L M               ",
"        N O P _ Q R F C A S C T U V W X Y Z Z Z ` Z  ...+.@.@.j j j j j j j #.$.%.9             ",
"      &.*.=.w -.;.C A >.,.'.).!.~.{.].^.^.].].].].]./././././.(._.+.:.j j j j j I <.[.          ",
"    }.|.1.2.3.4.5.6.7.8./.^.^.^.^.].].].].]./././././.(.(.(.(.(.9.9.9.9.0.a.j j b.G E c.        ",
"    d.e.f.g.h.i.j.k.^.^.].].].].]./././.l.l././.(.(.(.(.9.9.9.9.9.m.m.m.m.m.n.o.j H p.q.        ",
"    r.s.t.u.v.w.].].].].]./././././.x.y.y.x.x.x.x.z.9.9.m.m.m.m.m.k.k.k.k.k.{.{.A.j B.C.D.      ",
"  + E.} C F.G.]./././././.(.(.(.(.y.(.H.I.J.K.L.M.N.O.m.m.k.k.k.k.k.{.{.{.{.{.P.Q.j j C R.      ",
"  ; S.} A T.U././.(.(.(.(.(.9.9.(.x.V.W.M.L.J.X.Y.M.K.Z.k.{.{.{.{.{.P.P.P.P.P.`. +j j .+++      ",
"  @+#+} n $+%+(.(.(.9.9.9.9.9.m.x.&+*+M.=+-+;+>+,+X.'+)+!+{.P.P.P.P.P.`.`.`.`.`.~+{+j ]+^+      ",
"  @+/+h (+_+:+9.9.9.m.m.m.m.m.k.<+[+}+}+>+{.{.{.|+1+'+2+>+3+`.`.`.`.`.4+4+4+4+k.5+s.j 6+7+      ",
"  8+9+s.0+a+:+m.m.m.m.k.k.k.k.k.<+b+}+M.c+P.P.{.9.d+'+}+e+f+4+4+4+4+4+g+g+g+g+k.h+i+j C.j+      ",
"    k+l+B m+U.k.k.k.k.{.{.{.{.{.<+-+n+o+-+`.`.p+z.q+'+K.r+s+4+g+g+g+g+g+~.~.4+P.t+j j u.        ",
"    u+t+J v+w+P.{.{.{.{.P.P.P.P.z.x+y+L.z+4+4+(.!.A+o+B+C+x+g+g+~.~.~.~.~.D+`.E+F+j j G+        ",
"    H+I+b.z J+K+P.P.P.P.`.`.`.`.L+p+M+N+O+4+P+9.Q+R+o+S+T+U+~.~.D+D+D+D+D+V+P.W+X+j ]+Y+        ",
"    Z+`+ @.@+@@@`.`.`.`.4+4+4+4+4+g+g+g+g+k./.#@$@o+2+%@&@D+D+D+D+V+V+V+V+~.`.< i+j *@=@        ",
"      -@l+;@>@,@~.4+4+4+4+g+g+g+g+g+~.~.{.(.f+'@K.o+)@!@V+V+V+V+V+8.8.3+8.4+~@{@j b.]@          ",
"      ^@/@j A (@U.g+g+g+g+g+~.~.~.~.~.D+(.3+_@:@<@[@}@%+V+8.8.8.8.8.!+!+!+`.|@t+j 1@2@          ",
"      3@4@ @5@6@7@8@~.~.~.~.D+D+D+D+D+V+m.9@0@<@L.}@a@8.8.!+!+!+!+!+8@8@D+b@X+{+j c@d@          ",
"        e@< H 0+f@g@D+D+D+D+D+V+V+V+V+V+m.;+Y.<@h@i@!+!+!+8@8@8@8@8@O.O.g+j@X+i F k@            ",
"        l@m@j n@o@9@p@V+V+V+V+8.8.8.8.8.{.i@B+M.<@q@8@8@8@8@O.O.O.O.O.!+r@s@t+j t@u@            ",
"          v@w@b.x@y@7@8.8.8.8.8.!+!+!+!+8@z@q+R+A@9@O.O.O.O.K+K+K+K+K+g+B@C@j D@E@              ",
"          F@G@j $.H@M+U.!+!+!+!+8@8@8@8@8@4+I@J@9@` K+K+K+K+K+K@K@K@V+L@M@f.j B N@              ",
"            O@P@j A Q@M+8@8@8@8@O.O.O.O.O.4+(.%+R@|+K+K@K@K@K@K@S@O.~.T@F+j p.U@V@              ",
"            W@X@i Y@u.Z@R@O.O.O.O.K+K+K+~.m.`@N. #w.%+S@S@S@S@S@K@V+.#+#{+H @###                ",
"              $#%#j &#*#7@S@K+K+K+K+K@K@{.M+=#-#;#_@>#S@,#,#,#K@8.'#)# @j E !#                  ",
"              ~#{#i+H z ]#^#K@K@K@K@S@S@`.!@-#-#M.b+>#,#f+f+f+!+/#(#} j _#:#<#                  ",
"                [#}#j b.|#1#U.S@S@S@S@,#O.O.I.2#,+j.3#f+f+U+8@V+4#F+j i 5#6#                    ",
"                  7#8#j b.9#0#a#,#,#,#f+f+f+R@>##@H.U+U+U+O.!+b#c#j j d#e#f#                    ",
"                  g#h#t+j Y@i#j#Z f+f+f+U+U+U.k#U.!.!.f+8.V+l#m#i+n#o#p#q#                      ",
"                    r#s#s.j k t#u#v#w#%+p@p@%+|+!.U+K+D+8@x#y#| i J z#A#                        ",
"                      B#C#} j j D D#&+,#S@f+U+f+S@8@!+E#F#G#| j H#I#J#                          ",
"                        K#C# @j n#1@L#M#N#f+O.O.O.O#P#f w i+j Q#U@R#                            ",
"                          K#S#T#j j g.F U#V#W#X#Y#X+Z#} {+j _#`# $                              ",
"                            .$+$_#i j j j j j j j j j j j <.@$#$                                ",
"                                $$%$g.j j j j j j j j I &$*$=$                                  ",
"                                  -$;$>$J B.j j ,$'$t@)$!$                                      ",
"                                        ~${$]$2@c.^$                                            ",
"                                                                                                ",
"                                                                                                ",
"                                                                                                ",
"                                                                                                ",
"                                                                                                "};
