/* XPM */
static const char * stock_dialog_warning_48_xpm[] = {
"48 48 225 2",
"  	c None",
". 	c #000000",
"+ 	c #1B1406",
"@ 	c #7B6330",
"# 	c #B69652",
"$ 	c #B5954F",
"% 	c #57441B",
"& 	c #1A1305",
"* 	c #9A7D41",
"= 	c #FBD584",
"- 	c #FBD583",
"; 	c #FAD076",
"> 	c #FACD6C",
", 	c #EFC05B",
"' 	c #C49530",
") 	c #6A4F17",
"! 	c #7C6432",
"~ 	c #FBD991",
"{ 	c #FBD480",
"] 	c #FAC960",
"^ 	c #F9C148",
"/ 	c #F9BD3D",
"( 	c #F9BD3B",
"_ 	c #F8BC3A",
": 	c #E1AB35",
"< 	c #D3A032",
"[ 	c #D19F31",
"} 	c #35270B",
"| 	c #D4B471",
"1 	c #FBD788",
"2 	c #F9C75B",
"3 	c #EEB438",
"4 	c #D5A232",
"5 	c #D9A533",
"6 	c #503C11",
"7 	c #1E1709",
"8 	c #E9C982",
"9 	c #FACF73",
"0 	c #F9BE40",
"a 	c #E5AE36",
"b 	c #BE902D",
"c 	c #977223",
"d 	c #FACE70",
"e 	c #F9BE3E",
"f 	c #F9C046",
"g 	c #FACD6A",
"h 	c #FACC69",
"i 	c #F9BF42",
"j 	c #E4AD36",
"k 	c #B5892B",
"l 	c #664D16",
"m 	c #C0A56A",
"n 	c #FACE6E",
"o 	c #F9BF41",
"p 	c #FAD178",
"q 	c #FBDB94",
"r 	c #FBD88D",
"s 	c #FBD78A",
"t 	c #FAC961",
"u 	c #E0AA35",
"v 	c #BB8E2C",
"w 	c #4F3B11",
"x 	c #A28750",
"y 	c #FAD075",
"z 	c #FACB65",
"A 	c #FCE0A4",
"B 	c #6F5D34",
"C 	c #6F541C",
"D 	c #A98027",
"E 	c #191204",
"F 	c #43361C",
"G 	c #FBD582",
"H 	c #F9C34E",
"I 	c #FBD98E",
"J 	c #705F3A",
"K 	c #6E5319",
"L 	c #E2AB35",
"M 	c #CF9D31",
"N 	c #A17925",
"O 	c #050505",
"P 	c #E8C77E",
"Q 	c #F9C24B",
"R 	c #FBDC99",
"S 	c #D8A433",
"T 	c #F4B939",
"U 	c #C4942E",
"V 	c #634A16",
"W 	c #8C774B",
"X 	c #FBDD9A",
"Y 	c #D09E31",
"Z 	c #EFB538",
"` 	c #E9B137",
" .	c #322B1F",
"..	c #FACE6D",
"+.	c #DFC07E",
"@.	c #AA8128",
"#.	c #D2A031",
"$.	c #9E7725",
"%.	c #040404",
"&.	c #A9905D",
"*.	c #F9C450",
"=.	c #FACB66",
"-.	c #FBD37C",
";.	c #B88C2B",
">.	c #34260A",
",.	c #FAD179",
"'.	c #FAD27B",
").	c #F1B739",
"!.	c #AD8228",
"~.	c #A9915E",
"{.	c #F9C451",
"].	c #FAC85D",
"^.	c #372B10",
"/.	c #35280C",
"(.	c #CC9A30",
"_.	c #F6BA3A",
":.	c #20190B",
"<.	c #F9C24C",
"[.	c #FAD073",
"}.	c #6F5722",
"|.	c #6B5119",
"1.	c #DFA934",
"2.	c #B08529",
"3.	c #836C3D",
"4.	c #FACC67",
"5.	c #C29A42",
"6.	c #B18629",
"7.	c #F3B839",
"8.	c #D4A132",
"9.	c #E8C67B",
"0.	c #FACD6B",
"a.	c #1C1506",
"b.	c #C9982F",
"c.	c #F0B638",
"d.	c #936F22",
"e.	c #3C2E13",
"f.	c #FAD177",
"g.	c #F9C75A",
"h.	c #8A6B28",
"i.	c #72561A",
"j.	c #C7972F",
"k.	c #ECB337",
"l.	c #BF912D",
"m.	c #9C8045",
"n.	c #FACA64",
"o.	c #F9BD3C",
"p.	c #523E13",
"q.	c #4C3912",
"r.	c #CB9A30",
"s.	c #E8B037",
"t.	c #4D3A11",
"u.	c #E5BF6B",
"v.	c #EFBA47",
"w.	c #DCAA3B",
"x.	c #F7BB3A",
"y.	c #1C1507",
"z.	c #FBD37D",
"A.	c #F9BE3F",
"B.	c #FBD687",
"C.	c #FBDA92",
"D.	c #F9C045",
"E.	c #DEA834",
"F.	c #5D4A22",
"G.	c #D0B16D",
"H.	c #3B2F14",
"I.	c #3A2C0E",
"J.	c #BB8E2D",
"K.	c #4E3B11",
"L.	c #997C3F",
"M.	c #3B3016",
"N.	c #36280C",
"O.	c #E7AF36",
"P.	c #E3AC35",
"Q.	c #674D17",
"R.	c #B79855",
"S.	c #F9C554",
"T.	c #F9BF43",
"U.	c #9A7423",
"V.	c #7D6533",
"W.	c #3B2D10",
"X.	c #382B0D",
"Y.	c #B78B2B",
"Z.	c #F2B739",
"`.	c #8B6920",
" +	c #F8C24C",
".+	c #CFA549",
"++	c #3B2E11",
"@+	c #33270C",
"#+	c #CE9C30",
"$+	c #AB8228",
"%+	c #5C4514",
"&+	c #B48E3D",
"*+	c #EEB539",
"=+	c #F3BD49",
"-+	c #DAA737",
";+	c #CA992F",
">+	c #DAA633",
",+	c #B08629",
"'+	c #A07925",
")+	c #7D5E1E",
"!+	c #E6AE36",
"~+	c #EAB137",
"{+	c #A37B26",
"]+	c #926E22",
"^+	c #32250A",
"/+	c #DBA634",
"(+	c #F5BA3A",
"_+	c #B98C2B",
":+	c #82621E",
"<+	c #30230A",
"[+	c #33260A",
"}+	c #7E5F1C",
"|+	c #A77E27",
"1+	c #83631E",
"2+	c #44330F",
"3+	c #47350F",
"4+	c #73561A",
"5+	c #89681F",
"6+	c #87661F",
"7+	c #B1862A",
"8+	c #8F6C21",
"9+	c #8C6A20",
"0+	c #7F601D",
"a+	c #43320E",
"b+	c #493710",
"                                                                                                ",
"                                                                                                ",
"                                                                                                ",
"                                        . . . .                                                 ",
"                                  . . . . . . . . . .                                           ",
"                              . . . . . . . . . . . . . .                                       ",
"                            . . . . . . . . . . . . . . . .                                     ",
"                        . . . . . . . + @ # $ % . . . . . . .                                   ",
"                      . . . . . . & * = - ; > , ' ) . . . . . .                                 ",
"                    . . . . . . ! ~ { ] ^ / ( _ : < [ } . . . . .                               ",
"                  . . . . . + | 1 2 / ( ( ( ( ( ( 3 4 5 6 . . . . .                             ",
"                  . . . . 7 8 9 0 ( ( ( ( ( ( ( ( ( _ a b c . . . . .                           ",
"                . . . . 7 8 d e ( ( ( f g 9 h i ( ( ( ( j k l . . . . .                         ",
"              . . . . . m n o ( ( ( e p q r s t ( ( ( ( ( u v w . . . .                         ",
"            . . . . . x y ^ ( ( ( ( z A B . . C ( ( ( ( ( ( 4 D E . . . .                       ",
"            . . . . F G H ( ( ( ( e I J . . . . K L ( ( ( ( _ M N . . . . .                     ",
"          . . . . O P t ( ( ( ( ( Q R . . . . . . S T ( ( ( ( T U V . . . .                     ",
"          . . . . W y ( ( ( ( ( ( z X . . . . . . Y Z ( ( ( ( ( ` v E . . . .                   ",
"        . . . .  .= Q ( ( ( ( ( ( ..+.. . . . . . @.` ( ( ( ( ( ( #.$.. . . .                   ",
"        . . . %.&.*.( ( ( ( ( ( ( =.-.. . . . . . ;.Z ( ( ( ( ( ( T M >.. . . .                 ",
"      . . . .  .,.( ( ( ( ( ( ( ( =.'.. . . . . . U ).( ( ( ( ( ( ( a !.. . . .                 ",
"      . . . . ~.{.( ( ( ( ( ( ( ( ].,.^.. . . . /.(._.( ( ( ( ( ( ( _ S >.. . . .               ",
"    . . . . :.G / ( ( ( ( ( ( ( ( <.[.}.. . . . |.S ( ( ( ( ( ( ( ( ( 1.2.. . . .               ",
"    . . . . 3.4.( ( ( ( ( ( ( ( ( e ..5.. . . . 6.u ( ( ( ( ( ( ( ( 7.T 8.>.. . . .             ",
"    . . . . 9.f ( ( ( ( ( ( ( ( ( ( *.0.a.. . + b.c.( ( ( ( ( ( ( ( ( ( 1.d.. . . .             ",
"  . . . . e.f.( ( ( ( ( ( ( ( ( ( ( ( g.h.. . i.j._ ( ( ( ( ( ( ( ( ( _ k.l.. . . .             ",
"  . . . . m.n.( ( ( ( ( ( ( ( ( ( ( ( o.o.p.q.r.c.( ( ( ( ( ( ( ( ( ( ( ( s.t.. . . .           ",
"  . . . . u.{.( ( ( ( ( ( ( ( ( ( ( ( ^ Q v.w.3 ( ( ( ( ( ( ( ( ( ( ( ( ( x.d.. . . .           ",
"  . . . y.z.A.( ( ( ( ( ( ( ( ( ( ( Q 9 B.C.= D.( ( ( ( ( ( ( ( ( ( ( ( ( ( E.. . . .           ",
"  . . . F.> ( ( ( ( ( ( ( ( ( ( ( ( d G.H.. I.J.Z x.( ( ( ( ( ( ( ( ( ( ( ( L K.. . .           ",
"  . . . L.z ( ( ( ( ( ( ( ( ( ( ( o 1 M.. . . N.b.O.( ( ( ( ( ( ( ( ( ( ( ( P.Q.. . .           ",
"  . . . R.S.( ( ( ( ( ( ( ( ( ( ( T.; . . . . . b P.( ( ( ( ( ( ( ( ( ( ( ( P.U.. . . .         ",
"  . . . V.H ( ( ( ( ( ( ( ( ( ( ( o.2 W.. . . X.Y.Z.( ( ( ( ( ( ( ( ( ( ( ( S `.. . . .         ",
"  . . . e. +( ( ( ( ( ( ( ( ( ( ( ( i .+++. @+c #+( ( ( ( ( ( ( ( ( ( ( ( c.$+%+. . . .         ",
"  . . . . &+*+( ( ( ( ( ( ( ( ( ( ( ( 0 =+-+;+>+_.( ( ( ( ( ( ( ( ( ( ( ` ,+'+E . . .           ",
"  . . . . . )+u !+T ( ( ( ( ( ( ( ( ( ( ( ( ( ( ( ( ( ( ( ( ( ( ( ( ~+r.{+]+^+. . . .           ",
"  . . . . . . E l b /+Z _ ( ( ( ( ( ( ( ( ( ( ( ( ( ( ( ( ( ( (+L Y _+:+<+. . . . . .           ",
"    . . . . . . . . [+}+|+: ` ).).).).).).).).c.k.P.L u 5 5 4 ,+1+2+. . . . . . . .             ",
"      . . . . . . . . . . . ^+3+4+5+6+7+M #.#.Y 4 8+9+0+a+b+. . . . . . . . . . .               ",
"          . . . . . . . . . . . . . . . . . . . . . . . . . . . . . . . . . . .                 ",
"              . . . . . . . . . . . . . . . . . . . . . . . . . . . . . . .                     ",
"                    . . . . . . . . . . . . . . . . . . . . . . . . .                           ",
"                              . . . . . . . . . . . . . . .                                     ",
"                                                                                                ",
"                                                                                                ",
"                                                                                                ",
"                                                                                                ",
"                                                                                                "};
