/* XPM */
static const char *wsicon32_xpm[] = {
/* columns rows colors chars-per-pixel */
"32 32 147 2",
"   c #000000",
".  c #010709",
"X  c #030B0E",
"o  c #030D12",
"O  c #051116",
"+  c #04141B",
"@  c #131313",
"#  c #071A23",
"$  c #091C25",
"%  c #091E28",
"&  c #09222D",
"*  c #062533",
"=  c #0A2633",
"-  c #0C2835",
";  c #0E2D3C",
":  c #242323",
">  c #343333",
",  c #3B3A3A",
"<  c #0D3243",
"1  c #0A364B",
"2  c #0E3A4E",
"3  c #0B3E56",
"4  c #0B3F58",
"5  c #113546",
"6  c #103648",
"7  c #11394C",
"8  c #123D51",
"9  c #0E425B",
"0  c #124156",
"q  c #12435A",
"w  c #0D4762",
"e  c #0F4A65",
"r  c #114862",
"t  c #114D69",
"y  c #15506B",
"u  c #19536F",
"i  c #145370",
"p  c #175B7B",
"a  c #1C5E7D",
"s  c #403F3F",
"d  c #434343",
"f  c #484847",
"g  c #4A4A4A",
"h  c #535352",
"j  c #5C5C5B",
"k  c #646463",
"l  c #60686C",
"z  c #6B6A6A",
"x  c #12648A",
"c  c #186386",
"v  c #1D6688",
"b  c #1F688A",
"n  c #146B94",
"m  c #176F99",
"M  c #177099",
"N  c #1B739C",
"B  c #1679A7",
"V  c #167BAA",
"C  c #1C76A0",
"Z  c #187AA7",
"A  c #197EAD",
"S  c #216584",
"D  c #226C8E",
"F  c #226D90",
"G  c #237094",
"H  c #23759B",
"J  c #25789F",
"K  c #3A7C9A",
"L  c #217CA7",
"P  c #217FAB",
"I  c #287CA4",
"U  c #1B80AF",
"Y  c #1D84B3",
"T  c #2782AC",
"R  c #2881AA",
"E  c #2186B6",
"W  c #2288B7",
"Q  c #238BBB",
"!  c #2A86B1",
"~  c #2A88B4",
"^  c #2B8EBD",
"/  c #2D90BF",
"(  c #358EB7",
")  c #388CB2",
"_  c #3C93BB",
"`  c #268FC0",
"'  c #288FC0",
"]  c #2790C1",
"[  c #2A93C5",
"{  c #2C97C8",
"}  c #2E9ACC",
"|  c #2F9DD0",
" . c #3195C3",
".. c #3698C6",
"X. c #309BCD",
"o. c #3F97C0",
"O. c #3C98C4",
"+. c #319ED1",
"@. c #34A2D5",
"#. c #36A5D9",
"$. c #37A8DC",
"%. c #38A7DB",
"&. c #39A9DE",
"*. c #3CADE1",
"=. c #4190B4",
"-. c #4196BE",
";. c #5B8EA5",
":. c #559CBD",
">. c #589BBA",
",. c #4197C0",
"<. c #449AC2",
"1. c #499EC5",
"2. c #599FC0",
"3. c #4EA1C8",
"4. c #53A4CA",
"5. c #5DA2C2",
"6. c #5CA7CA",
"7. c #63A6C5",
"8. c #61A7C8",
"9. c #66A9C8",
"0. c #6CADCB",
"q. c #73ABC5",
"w. c #79AEC7",
"e. c #74B1CE",
"r. c #7CB3CC",
"t. c #8D9192",
"y. c #8CA0A9",
"u. c #90A6AF",
"i. c #95AAB3",
"p. c #9AAEB7",
"a. c #9EB1BA",
"s. c #A3B5BD",
"d. c #A7B8BF",
"f. c #AEB6BA",
"g. c #B0B9BE",
"h. c #83B4CB",
"j. c #88B5CA",
"k. c #8BB9CF",
"l. c #8FBBD0",
"z. c #9DBFCF",
"x. c #94BDD0",
"c. c #99BED0",
"v. c #A0BFCE",
"b. c #ACBBC1",
"n. c #B1BCC1",
"m. c #A5C1CD",
"M. c None",
/* pixels */
"M.M.> , d g h h j j k k k k z z z z z z z k j j j h f s > : M.M.",
"M.@ t.f.g.g.n.n.n.n.b.n.n.b.b.b.b.b.b.b.s.s.s.p.p.i.u.u.y.l . M.",
"  + ;.m.m.v.m.v.m.z.z.z.c.c.c.c.l.l.k.k.l.k.h.h.r.r.w.w.w.K O   ",
"  1 A >.j.j.j.j.h.h.r.r.r.r.e.e.e.e.0.0.0.9.9.7.7.2.2.:.) Z 1   ",
"  3 V Z =.7.7.7.7.7.8.6.6.6.6.6.6.4.1.1.1.1.<.,._ _ ( ! Z V 3   ",
"  3 V B Z T =.-.,.,.o.o.O.O...O...X...{  . .' ^ Q E Y U A A 3   ",
"  3 V B A A ! W W Q ^ ' ' [ [ [ { { { [ ^ ! Z P Q Y Y U U A 3   ",
"  3 V B A Y Y E Q Q ` [ [ [ { X.} ^ F q = # o - E Q Q Y U A 9   ",
"  3 V A U Y Y Q Q ] ] [ { { X.{ a & X # 5 8 . 2 W ^ Y Y Y Y 9   ",
"  3 V A U Y Q Q Q ] [ { } X.R ; X 5 G / X.a X H [ Q Q Q Y Y 9   ",
"  3 A A Y Y Q Q ] [ [ } X.H + % G +.#.@.X.; ; ' [ ] Q Y Y Y 9   ",
"  4 A U Y Y Q Q ] [ } | I + ; ( &.%.#.#.^ + u } [ ] ` Q Q Y 9   ",
"  3 U U Y Y Q ` ] [ } ~ % -  .&.&.*.*.$.I o G X.[ ] ` Q Q Y e   ",
"  9 U U Y Q Q ` [ { { 7 + ! &.&.3.*.*.*.F o R X.{ ] ` Q Y Y 9   ",
"  9 A U Y Y ` ] [ { b X S #.%.&.*.*.*.$.S O W | { [ ] Q Q Y 9   ",
"  3 A U Y Q Q ] [ ` = ; X.#.%.&.*.*.*.$.S O ~ | { [ ] Q Q Y r   ",
"  3 A U Y Q Q ` [ v X D @.@.#.$.*.*.#.$.D o R X.{ ' ` Q Y Y e   ",
"  9 A U Y Y Y ` ] < & [ | @.@.#.$.#.#.#.J X H X.{ ' ` Q Y Y 9   ",
"  3 U U Y Y Q ` L o y | | X.@.@.@.@.@.@.T O a { [ ] Q Q Y Y 9   ",
"  3 V U Y Y Y ` p o H { } | | | | @.| | [ % 0 { ' ^ Q Y Y Y 9   ",
"  3 V A U Y Y Q 3 % W [ { { | | | | | } { 2 & Q ] ` Q Y Y Y 9   ",
"  4 V V U U Y Y & < ] ' [ [ { { { { { { { p X N ] ] Y Y Y Y 9   ",
"  * e 9 e e t r o t ^ ` ] ] [ [ { { { ] [ U + < i i y t e e *   ",
"  X o o o o o o + c Y Q Q ^ ` ] ] ] ` ` ] Y q o o o o o o o .   ",
"  1 n n n n n m N Y Y Q Q Q Q Q ` ] Q ^ Q Q E N C M M m n n 1   ",
"  4 V V B B V V A Y Y E E Y Q Q Y Q Y Q E E E Y Y U A V B V 4   ",
"  3 V B B B V V A A A Y Y Y Y E Y Q Y Y Y Y Y A A V V B B V 4   ",
"  4 V B B B B V V Z A A U U Y Y Y Y Y U Y U A A V V V B B V 4   ",
"  1 V B B B B B B B V V A A A A U U U U A A V V B B B B B V 1   ",
"  + x V V V V V V V V V V V V A V V A V V V V V V V V V V x +   ",
"M.  + 1 3 3 3 3 3 3 3 3 3 3 3 3 3 3 4 3 3 3 3 3 3 3 3 3 1 +   M.",
"M.M.                                                        M.M."
};
