/* XPM */
static const char *wsiconcap16_xpm[] = {
/* columns rows colors chars-per-pixel */
"16 16 196 2",
"   c #020500",
".  c #0F120E",
"X  c #0A1803",
"o  c #0A1903",
"O  c #0F2604",
"+  c #112706",
"@  c #132F05",
"#  c #132908",
"$  c #1E201D",
"%  c #163606",
"&  c #163706",
"*  c #163707",
"=  c #173707",
"-  c #163807",
";  c #173908",
":  c #173A08",
">  c #173A09",
",  c #173B09",
"<  c #1B470D",
"1  c #1D4709",
"2  c #1C460B",
"3  c #1B4A0F",
"4  c #1D490A",
"5  c #1E4C0A",
"6  c #1F4F0C",
"7  c #1E4E0E",
"8  c #1F4F0E",
"9  c #1F5513",
"0  c #1F5614",
"q  c #20540E",
"w  c #205B16",
"e  c #235D12",
"r  c #215D17",
"t  c #256517",
"y  c #266614",
"u  c #236218",
"i  c #246418",
"p  c #246619",
"a  c #266918",
"s  c #276B19",
"d  c #2A6D15",
"f  c #2A7017",
"g  c #29711A",
"h  c #2D7D1D",
"j  c #596453",
"k  c #71766F",
"l  c #30831E",
"z  c #31851D",
"x  c #33891C",
"c  c #348C1E",
"v  c #348D1E",
"b  c #398A11",
"n  c #3B8E12",
"m  c #37921F",
"M  c #3B9214",
"N  c #3C9617",
"B  c #369322",
"V  c #379822",
"C  c #399921",
"Z  c #3CA525",
"A  c #3DA625",
"S  c #3FB02B",
"D  c #42A015",
"F  c #43A114",
"G  c #42A214",
"H  c #43A214",
"J  c #43A315",
"K  c #43A416",
"L  c #43A516",
"P  c #43A617",
"I  c #43A717",
"U  c #44A314",
"Y  c #45A217",
"T  c #44A517",
"R  c #45A715",
"E  c #41A419",
"W  c #40A41B",
"Q  c #43A719",
"!  c #41A61C",
"~  c #45A815",
"^  c #45AB17",
"/  c #46AB17",
"(  c #43A818",
")  c #43A819",
"_  c #45AC18",
"`  c #44AC1B",
"'  c #45AC1A",
"]  c #46AE1A",
"[  c #46AF1A",
"{  c #44AD1C",
"}  c #45AF1D",
"|  c #46B01B",
" . c #44B11F",
".. c #45B01E",
"X. c #46B11C",
"o. c #46B21D",
"O. c #46B31D",
"+. c #46B31E",
"@. c #46B41D",
"#. c #47B41E",
"$. c #47B51E",
"%. c #47B51F",
"&. c #42AE22",
"*. c #40AE27",
"=. c #43B324",
"-. c #47B720",
";. c #41B72E",
":. c #47B820",
">. c #47B821",
",. c #47B921",
"<. c #47B922",
"1. c #47BB23",
"2. c #45BA27",
"3. c #46B924",
"4. c #46BB29",
"5. c #49B421",
"6. c #48BA22",
"7. c #48BB22",
"8. c #48BB23",
"9. c #4BBA25",
"0. c #48BC23",
"q. c #48BD24",
"w. c #48BE24",
"e. c #48BE25",
"r. c #49BF24",
"t. c #4BBF28",
"y. c #50B227",
"u. c #56B930",
"i. c #60A23F",
"p. c #62B43B",
"a. c #76836F",
"s. c #7F8C78",
"d. c #76AB5C",
"f. c #72BF52",
"g. c #49C026",
"h. c #49C227",
"j. c #49C327",
"k. c #4AC427",
"l. c #49C328",
"z. c #4AC529",
"x. c #4BC42A",
"c. c #4AC628",
"v. c #4AC629",
"b. c #4AC72A",
"n. c #4AC82B",
"m. c #4ACA2C",
"M. c #4ACA2D",
"N. c #4ACB2D",
"B. c #4BCA2D",
"V. c #4BCD2D",
"C. c #4CC92C",
"Z. c #48CC34",
"A. c #4CD02F",
"S. c #4CD232",
"D. c #4CD332",
"F. c #4CD333",
"G. c #4CD432",
"H. c #4CD836",
"J. c #4DD936",
"K. c #4ED935",
"L. c #4CDA38",
"P. c #4DDB38",
"I. c #5AC137",
"U. c #5DC63C",
"Y. c #4EE03A",
"T. c #4FE23B",
"R. c #4EE23C",
"E. c #60C941",
"W. c #63C845",
"Q. c #66C849",
"!. c #69C64C",
"~. c #6CC54E",
"^. c #6FC251",
"/. c #85C269",
"(. c #89C570",
"). c #8DC975",
"_. c #90CC7B",
"`. c #868C83",
"'. c #869380",
"]. c #8B9288",
"[. c #8E958A",
"{. c #8B9886",
"}. c #8E9A8A",
"|. c #8F988C",
" X c #919A8D",
".X c #919C8C",
"XX c #929C8E",
"oX c #94CD80",
"OX c #97CE84",
"+X c #9BCF88",
"@X c #9ECF8C",
"#X c #A1CE8F",
"$X c #A4CD92",
"%X c #A7CC95",
"&X c #A8CB96",
"*X c None",
/* pixels */
"*Xk `.].[.[. X X X}.{.'.s.a.j *X",
"# d.&X%X$X$X@X+XOXoX_.).(./.i.+ ",
"& Y p.f.^.~.!.Q.W.E.U.I.u.5.R & ",
"& G _ 5.9.t.z.C.4.m f f &.%.( - ",
"& K [ -.e.z.m.B q s p 3 9.6.) : ",
"- K %.6.h.m.l r ;.K.h z c.6.} : ",
"- ) %.e.b.V w Z.R.P.p A c.e.} : ",
"- ) %.e.2.9 S Y.R.L.u *.c.h.} , ",
"& ) %.e.x a D.K.P.L.p A z.8.} : ",
"& R } 6.e V A.S.F.D.g c k.6.{ : ",
"& G _ ! 8 =.z.C.C.N.c y e.} ) & ",
"X 1 5 < q -.h.z.z.z.&.< 8 6 4 o ",
"@ b n M W #.6.8.6.6.6.W N M b @ ",
"& Y R R _ _ [ } %.%.[ _ _ R R = ",
"O n G G G G K K K K Y F D D n + ",
"*XO & & & & - & & & & & & & O *X"
};
