<?xml version="1.0" encoding="UTF-8" standalone="no"?>
<!DOCTYPE svg PUBLIC "-//W3C//DTD SVG 1.1//EN"
 "http://www.w3.org/Graphics/SVG/1.1/DTD/svg11.dtd">
<!-- Generated by graphviz version 2.44.1 (20200629.0846)
 -->
<!-- Title: G Pages: 1 -->
<svg width="429pt" height="205pt"
 viewBox="0.00 0.00 428.50 205.00" xmlns="http://www.w3.org/2000/svg" xmlns:xlink="http://www.w3.org/1999/xlink">
<g id="graph0" class="graph" transform="scale(1 1) rotate(0) translate(4 201)">
<title>G</title>
<polygon fill="white" stroke="transparent" points="-4,4 -4,-201 424.5,-201 424.5,4 -4,4"/>
<!-- main_repo -->
<g id="node1" class="node">
<title>main_repo</title>
<path fill="none" stroke="black" d="M134,-157C134,-157 12,-157 12,-157 6,-157 0,-151 0,-145 0,-145 0,-133 0,-133 0,-127 6,-121 12,-121 12,-121 134,-121 134,-121 140,-121 146,-127 146,-133 146,-133 146,-145 146,-145 146,-151 140,-157 134,-157"/>
<text text-anchor="start" x="27.5" y="-140.9" font-family="Georgia" font-size="12.00">Main Repository</text>
<text text-anchor="start" x="8" y="-131.3" font-family="Georgia" font-size="9.00">gitlab.com/wireshark/wireshark</text>
</g>
<!-- your_fork -->
<g id="node2" class="node">
<title>your_fork</title>
<path fill="none" stroke="black" d="M408.5,-157C408.5,-157 311.5,-157 311.5,-157 305.5,-157 299.5,-151 299.5,-145 299.5,-145 299.5,-133 299.5,-133 299.5,-127 305.5,-121 311.5,-121 311.5,-121 408.5,-121 408.5,-121 414.5,-121 420.5,-127 420.5,-133 420.5,-133 420.5,-145 420.5,-145 420.5,-151 414.5,-157 408.5,-157"/>
<text text-anchor="start" x="332" y="-140.9" font-family="Georgia" font-size="12.00">Your Fork</text>
<text text-anchor="start" x="307.5" y="-131.3" font-family="Georgia" font-size="9.00">gitlab.com/you/wireshark</text>
</g>
<!-- main_repo&#45;&gt;your_fork -->
<g id="edge1" class="edge">
<title>main_repo&#45;&gt;your_fork:nw</title>
<path fill="none" stroke="black" stroke-dasharray="5,2" d="M111.13,-157.13C158.91,-177.68 241.75,-203.49 292.02,-163.66"/>
<polygon fill="black" stroke="black" points="294.36,-166.27 299.5,-157 289.71,-161.04 294.36,-166.27"/>
<text text-anchor="middle" x="222" y="-187.4" font-family="Georgia" font-size="12.00">Fork (once)</text>
</g>
<!-- your_repo -->
<g id="node3" class="node">
<title>your_repo</title>
<path fill="none" stroke="black" d="M272.5,-36C272.5,-36 159.5,-36 159.5,-36 153.5,-36 147.5,-30 147.5,-24 147.5,-24 147.5,-12 147.5,-12 147.5,-6 153.5,0 159.5,0 159.5,0 272.5,0 272.5,0 278.5,0 284.5,-6 284.5,-12 284.5,-12 284.5,-24 284.5,-24 284.5,-30 278.5,-36 272.5,-36"/>
<text text-anchor="start" x="155.5" y="-19.9" font-family="Georgia" font-size="12.00">Your Local Repository</text>
<text text-anchor="start" x="157.5" y="-10.3" font-family="Georgia" font-size="9.00">Somewhere on your machine</text>
</g>
<!-- main_repo&#45;&gt;your_repo -->
<g id="edge2" class="edge">
<title>main_repo&#45;&gt;your_repo</title>
<path fill="none" stroke="black" d="M93.49,-120.95C118.23,-100.36 159.98,-65.62 187.76,-42.5"/>
<polygon fill="black" stroke="black" points="190.1,-45.11 195.55,-36.02 185.62,-39.72 190.1,-45.11"/>
<text text-anchor="middle" x="160" y="-75.4" font-family="Georgia" font-size="12.00">Pull</text>
</g>
<!-- your_fork&#45;&gt;main_repo -->
<g id="edge4" class="edge">
<title>your_fork&#45;&gt;main_repo</title>
<path fill="none" stroke="black" d="M299.29,-139C257.86,-139 202.13,-139 156.46,-139"/>
<polygon fill="black" stroke="black" points="156.29,-135.5 146.29,-139 156.29,-142.5 156.29,-135.5"/>
<text text-anchor="middle" x="222" y="-142.4" font-family="Georgia" font-size="12.00">Merge Request</text>
</g>
<!-- your_repo&#45;&gt;your_fork -->
<g id="edge3" class="edge">
<title>your_repo&#45;&gt;your_fork</title>
<path fill="none" stroke="black" d="M236.59,-36.02C261.49,-56.59 303.53,-91.33 331.52,-114.46"/>
<polygon fill="black" stroke="black" points="329.43,-117.28 339.37,-120.95 333.89,-111.88 329.43,-117.28"/>
<text text-anchor="middle" x="305.5" y="-75.4" font-family="Georgia" font-size="12.00">Push</text>
</g>
</g>
</svg>
