<?xml version="1.0" encoding="UTF-8" standalone="no"?>
<!DOCTYPE svg PUBLIC "-//W3C//DTD SVG 1.1//EN"
 "http://www.w3.org/Graphics/SVG/1.1/DTD/svg11.dtd">
<!-- Generated by graphviz version 2.43.0 (0)
 -->
<!-- Title: G Pages: 1 -->
<svg width="441pt" height="207pt"
 viewBox="0.00 0.00 440.50 207.00" xmlns="http://www.w3.org/2000/svg" xmlns:xlink="http://www.w3.org/1999/xlink">
<g id="graph0" class="graph" transform="scale(1 1) rotate(0) translate(4 203)">
<title>G</title>
<polygon fill="white" stroke="transparent" points="-4,4 -4,-203 436.5,-203 436.5,4 -4,4"/>
<!-- main_repo -->
<g id="node1" class="node">
<title>main_repo</title>
<path fill="none" stroke="black" d="M134,-157C134,-157 12,-157 12,-157 6,-157 0,-151 0,-145 0,-145 0,-133 0,-133 0,-127 6,-121 12,-121 12,-121 134,-121 134,-121 140,-121 146,-127 146,-133 146,-133 146,-145 146,-145 146,-151 140,-157 134,-157"/>
<text text-anchor="start" x="27.5" y="-140.9" font-family="Georgia" font-size="12.00">Main Repository</text>
<text text-anchor="start" x="8" y="-131.3" font-family="Georgia" font-size="9.00">gitlab.com/wireshark/wireshark</text>
</g>
<!-- your_fork -->
<g id="node2" class="node">
<title>your_fork</title>
<path fill="none" stroke="black" d="M420.5,-157C420.5,-157 323.5,-157 323.5,-157 317.5,-157 311.5,-151 311.5,-145 311.5,-145 311.5,-133 311.5,-133 311.5,-127 317.5,-121 323.5,-121 323.5,-121 420.5,-121 420.5,-121 426.5,-121 432.5,-127 432.5,-133 432.5,-133 432.5,-145 432.5,-145 432.5,-151 426.5,-157 420.5,-157"/>
<text text-anchor="start" x="344" y="-140.9" font-family="Georgia" font-size="12.00">Your Fork</text>
<text text-anchor="start" x="319.5" y="-131.3" font-family="Georgia" font-size="9.00">gitlab.com/you/wireshark</text>
</g>
<!-- main_repo&#45;&gt;your_fork -->
<g id="edge1" class="edge">
<title>main_repo&#45;&gt;your_fork:nw</title>
<path fill="none" stroke="black" stroke-dasharray="5,2" d="M111.33,-157.11C161.44,-178.63 250.32,-206.57 303.87,-163.83"/>
<polygon fill="black" stroke="black" points="306.38,-166.28 311.5,-157 301.71,-161.06 306.38,-166.28"/>
<text text-anchor="middle" x="229" y="-189.4" font-family="Georgia" font-size="12.00">1. Fork (once)</text>
</g>
<!-- your_repo -->
<g id="node3" class="node">
<title>your_repo</title>
<path fill="none" stroke="black" d="M278.5,-36C278.5,-36 165.5,-36 165.5,-36 159.5,-36 153.5,-30 153.5,-24 153.5,-24 153.5,-12 153.5,-12 153.5,-6 159.5,0 165.5,0 165.5,0 278.5,0 278.5,0 284.5,0 290.5,-6 290.5,-12 290.5,-12 290.5,-24 290.5,-24 290.5,-30 284.5,-36 278.5,-36"/>
<text text-anchor="start" x="161.5" y="-19.9" font-family="Georgia" font-size="12.00">Your Local Repository</text>
<text text-anchor="start" x="163.5" y="-10.3" font-family="Georgia" font-size="9.00">Somewhere on your machine</text>
</g>
<!-- main_repo&#45;&gt;your_repo -->
<g id="edge2" class="edge">
<title>main_repo&#45;&gt;your_repo</title>
<path fill="none" stroke="black" d="M94.35,-120.95C120.13,-100.36 163.63,-65.62 192.58,-42.5"/>
<polygon fill="black" stroke="black" points="195.06,-44.99 200.69,-36.02 190.69,-39.52 195.06,-44.99"/>
<text text-anchor="middle" x="169.5" y="-75.4" font-family="Georgia" font-size="12.00">2. Pull</text>
</g>
<!-- your_fork&#45;&gt;main_repo -->
<g id="edge4" class="edge">
<title>your_fork&#45;&gt;main_repo</title>
<path fill="none" stroke="black" d="M311.41,-139C266.97,-139 205.73,-139 156.57,-139"/>
<polygon fill="black" stroke="black" points="156.27,-135.5 146.27,-139 156.27,-142.5 156.27,-135.5"/>
<text text-anchor="middle" x="229" y="-142.4" font-family="Georgia" font-size="12.00">4. Merge Request</text>
</g>
<!-- your_repo&#45;&gt;your_fork -->
<g id="edge3" class="edge">
<title>your_repo&#45;&gt;your_fork</title>
<path fill="none" stroke="black" d="M243.45,-36.02C269.39,-56.59 313.17,-91.33 342.33,-114.46"/>
<polygon fill="black" stroke="black" points="340.5,-117.48 350.51,-120.95 344.85,-111.99 340.5,-117.48"/>
<text text-anchor="middle" x="321" y="-75.4" font-family="Georgia" font-size="12.00">3. Push</text>
</g>
</g>
</svg>
