<svg width="266" height="50" viewBox="0 0 266 50" fill="none" xmlns="http://www.w3.org/2000/svg">
<path fill-rule="evenodd" clip-rule="evenodd" d="M93.6764 26.8428C87.2512 21.1372 79.4207 14.6933 69.8818 11.92L69.9273 12.011C71.8864 18.4853 72.0037 22.4626 72.0656 28.2077L72.0252 28.2711L39.6936 28.1745C40.1664 36.1013 44.8288 40.6552 53.3983 40.689C59.1509 40.3202 63.9227 38.2703 68.4864 35.8634L68.6472 45.6754C65.0944 47.7198 58.5881 49.0289 52.8836 49.0855C42.8085 49.5774 35.8522 46.2606 30.9431 38.1797C27.0099 30.8903 26.3657 20.1729 30.2812 11.8401C21.2203 15.384 12.849 20.3199 6.50548 26.7518L0.499969 21.0193C12.0994 7.98605 30.6046 0.629768 49.545 0C71.558 0.0212584 88.2618 8.96656 99.4999 20.7463L93.6764 26.8428ZM60.4188 20.291L39.7634 20.2455C40.101 14.9394 42.6835 8.73254 50.4551 8.68944C58.0034 8.51744 60.902 16.2972 60.4188 20.291ZM139.122 11.7118L139.069 36.8636H145.874L145.796 20.4534C145.864 18.437 148.379 15.914 151.292 15.8994C154.114 16.0025 155.933 18.9542 155.846 20.2964L155.898 36.8636L162.651 36.8375L162.677 19.3019C162.349 14.3815 158.297 10.8064 153.229 10.822C149.416 10.6202 147.052 12.3317 145.456 14.4076L145.429 11.7904L139.122 11.7118ZM238.246 16.6072C238.617 16.7154 238.988 16.8235 239.363 16.9201L239.52 11.9473C239.485 11.4588 238.961 11.1447 237.949 11.0051C237.584 10.9529 237.225 10.8934 236.867 10.8341C234.948 10.5157 233.062 10.2027 230.307 11.0575C224.752 13.3713 221.301 18.0582 221.67 24.5101C222.111 30.5467 222.906 33.1142 227.48 35.8167C231.484 38.0254 236.205 37.8168 240.305 36.3925L240.2 31.7338C239.595 31.8385 239.023 32.0247 238.451 32.2109C237.306 32.5833 236.162 32.9557 234.756 32.676C230.912 31.9856 227.774 30.1387 227.951 23.882C227.984 23.6274 228.014 23.3717 228.044 23.116C228.328 20.7053 228.611 18.2946 231.354 16.8678C234.04 15.3817 236.143 15.9945 238.246 16.6072ZM123.72 10.8556C131.323 10.728 135.522 17.1827 134.93 26.0312L117.765 26.0543C117.512 28.5405 118.521 32.4032 125.147 32.7465C127.954 32.7794 130.676 31.7599 133.343 30.0498L133.29 35.4432C130.89 37.3907 125.844 37.8045 124.407 37.7697C116.475 37.417 111.31 32.6003 111.505 24.1276C111.563 18.6223 113.796 10.9119 123.72 10.8556ZM129.229 21.867L117.713 21.7362C117.497 19.2178 120.322 15.4125 123.68 15.6948C126.31 15.7339 128.72 17.6531 129.229 21.867ZM265.445 25.9668C266.037 17.1184 261.838 10.6637 254.235 10.7913C244.311 10.8476 242.078 18.558 242.02 24.0633C241.825 32.536 246.99 37.3527 254.922 37.7054C256.359 37.7402 261.405 37.3264 263.806 35.3789L263.858 29.9855C261.191 31.6956 258.469 32.7151 255.662 32.6822C249.036 32.3389 248.027 28.4761 248.28 25.99L265.445 25.9668ZM248.228 21.672L259.744 21.8029C259.235 17.5889 256.825 15.6698 254.195 15.6307C250.837 15.3484 248.012 19.1537 248.228 21.672ZM191.074 0L184.337 0.0370224L184.485 14.4353C183.199 12.7813 181.296 11.0085 177.083 10.919C166.714 11.4586 166.143 20.641 166.09 24.614C166.304 30.7592 168.538 37.0053 177.046 37.7168C181.127 37.7321 183.278 35.9018 184.708 33.6823L184.745 36.8655L191.111 36.9395L191.074 0ZM178.695 15.8736C173.898 16.3017 173.291 20.4549 173.356 24.0918C173.212 28.8145 175.047 32.7162 178.957 32.624C182.504 32.5347 184.589 28.761 184.401 24.0394C184.391 21.1621 183.072 15.6537 178.695 15.8736ZM197.853 18.5951L197.8 12.6801C200.231 11.6214 202.849 10.7493 206.385 10.7957C215.359 11.0218 216.74 14.6645 217.482 18.5951L217.796 36.9159L211.724 36.8635L211.777 33.5658C210.511 35.6015 208.531 37.3634 204.344 37.7534C199.238 37.099 195.809 34.931 195.026 30.3727C194.683 25.3515 198.37 22.1249 201.936 21.8405L211.934 21.2647C211.816 17.2923 209.712 15.5366 205.966 15.6114C203.42 15.8695 200.813 16.4064 197.853 18.5951ZM211.463 25.1387C210.677 25.1587 209.967 25.112 209.275 25.0664C207.603 24.9564 206.036 24.8533 203.768 25.7145C202.302 26.626 201.214 27.873 201.151 29.2216C201.428 31.6147 203.247 33.1597 205.443 32.7811C207.903 32.5356 209.786 31.1364 211.411 29.2216L211.463 25.1387Z" fill="currentColor"/>
</svg>
