<svg viewBox="0 0 108 36" xmlns="http://www.w3.org/2000/svg">
<path fill-rule="evenodd" clip-rule="evenodd" d="M14.6112 12.5659V16.2765L23.4795 16.2725C23.2074 18.3191 22.5174 19.8175 21.4685 20.8664C20.1751 22.1597 18.1562 23.5832 14.6112 23.5832C9.14591 23.5832 4.87147 19.1787 4.87147 13.7134C4.87147 8.24807 9.14591 3.8435 14.6112 3.8435C17.5607 3.8435 19.7137 5.00281 21.3029 6.49334L23.9211 3.87505C21.7051 1.75754 18.7555 0.132935 14.6152 0.132935C7.13093 0.132935 0.837555 6.22915 0.837555 13.7134C0.837555 21.1976 7.13093 27.2938 14.6152 27.2938C18.653 27.2938 21.7011 25.9689 24.0868 23.4847C26.5394 21.032 27.3005 17.5896 27.3005 14.8056C27.3005 13.9776 27.2374 13.2126 27.1152 12.5659H14.6112ZM89.418 26.7615V1.13058H85.672V26.7615H89.418ZM37.5647 27.2978C42.3991 27.2978 46.3384 23.5872 46.3384 18.5517C46.3384 13.4807 42.3991 9.80566 37.5647 9.80566C32.7304 9.80566 28.7911 13.4807 28.7911 18.5517C28.7911 23.5872 32.7304 27.2978 37.5647 27.2978ZM37.5647 13.252C40.2146 13.252 42.4977 15.405 42.4977 18.5517C42.4977 21.6629 40.2146 23.8514 37.5647 23.8514C34.9149 23.8514 32.6318 21.6669 32.6318 18.5517C32.6318 15.405 34.9149 13.252 37.5647 13.252ZM56.4922 27.2978C61.3266 27.2978 65.2658 23.5872 65.2658 18.5517C65.2658 13.4807 61.3266 9.80566 56.4922 9.80566C51.6578 9.80566 47.7185 13.4847 47.7185 18.5517C47.7185 23.5872 51.6578 27.2978 56.4922 27.2978ZM56.4922 13.252C59.142 13.252 61.4251 15.405 61.4251 18.5517C61.4251 21.6629 59.142 23.8514 56.4922 23.8514C53.8423 23.8514 51.5592 21.6669 51.5592 18.5517C51.5592 15.405 53.8423 13.252 56.4922 13.252ZM83.4046 10.338V26.0359C83.4046 32.4949 79.5955 35.1329 75.0923 35.1329C70.8534 35.1329 68.3021 32.2978 67.34 29.9792L70.6838 28.5872C71.2792 30.0107 72.7382 31.6905 75.0884 31.6905C77.9709 31.6905 79.7572 29.9121 79.7572 26.5643V25.3064H79.6231C78.7635 26.3672 77.1073 27.2938 75.0174 27.2938C70.6444 27.2938 66.6381 23.4847 66.6381 18.5833C66.6381 13.6464 70.6444 9.80566 75.0174 9.80566C77.1034 9.80566 78.7595 10.7323 79.6231 11.7615H79.7572V10.338H83.4046ZM80.0292 18.5833C80.0292 15.5036 77.9748 13.252 75.3605 13.252C72.7106 13.252 70.4906 15.5036 70.4906 18.5833C70.4906 21.6314 72.7106 23.8514 75.3605 23.8514C77.9748 23.8514 80.0292 21.6314 80.0292 18.5833ZM104.016 21.4303L106.997 23.4176C106.035 24.8411 103.716 27.2938 99.7098 27.2938C94.7413 27.2938 91.0308 23.4531 91.0308 18.5478C91.0308 13.3467 94.7729 9.80171 99.28 9.80171C103.819 9.80171 106.039 13.4137 106.764 15.3656L107.162 16.3593L95.4708 21.2016C96.3659 22.9563 97.7579 23.8514 99.7098 23.8514C101.666 23.8514 103.022 22.8892 104.016 21.4303ZM94.8399 18.2836L102.655 15.0383C102.226 13.946 100.932 13.185 99.4101 13.185C97.4582 13.185 94.7413 14.9082 94.8399 18.2836Z" fill="currentColor"/>
</svg>
