<?xml version="1.0" encoding="UTF-8"?>
<svg id="Layer_1" xmlns="http://www.w3.org/2000/svg" version="1.2" viewBox="10 0 1250 420">
  <path d="M1146.49,10.07c.85.72-3.84,21.69-4.95,21.69H76.28c.91-1.78,2.67-21.69,3.77-21.69h1066.44Z" fill="currentColor"/>
  <path d="M1102.64,229.3c.81.75-3.14,21.69-4.24,21.69H32.43c1.43-1.78,3.14-21.69,4.24-21.69h1065.97Z" fill="currentColor"/>
  <path d="M513.23,52.18c103.21-6.43,75.04,146.99-10.11,156.79-108.68,12.5-81.78-151.06,10.11-156.79ZM516.53,68.68c-72.98,2.18-90.9,148.07-5.47,121.35,49.34-15.43,71.79-123.33,5.47-121.35Z" fill="currentColor"/>
  <path d="M284.66,206.67l30.39-151.84c26.98,2.54,80.06-10.77,88.11,26.51,4.31,19.97-4.19,40.25-22.95,49.04-1.53.72-10.28,2.92-10.22,3.46s6.22,2.55,8.97,5.65c11.99,13.5,16.67,50.02,24.03,67.19h-21.69c-5.83-14.16-11.25-52.87-24.37-60.73-10.43-6.25-27.6-2.22-39.28-3.39l-12.26,64.12h-20.74ZM321.43,125.58c16.68-1.01,36.09,3.74,50.19-7.56,16.49-13.21,15.48-43.39-9-46.12-3.09-.35-29.45-.82-30.75,0-2.31,1.46-8.07,47.72-10.44,53.68Z" fill="currentColor"/>
  <path d="M1137.53,53.92c-1.46,1.79-3.16,21.22-4.24,21.22h-333.79c1.04-1.75,2.69-21.22,3.77-21.22h334.26Z" fill="currentColor"/>
  <path d="M180,206.67h-20.74l29.32-151.01c.33-1.08,1.25-.7,2-.82,9.58-1.57,40.82-.79,51.43,0,55.6,4.17,46.59,80.77-7.7,89.45-6.8,1.09-40.69.17-42.3,1.54-2.37,2-9.65,53.91-12.01,60.83ZM251.48,78.14c-10.35-10.58-32.14-4.83-45.55-6.3.67,6.99-12.43,54.33-10.65,56.58,1.01,1.27,28.83.39,32.5-.08,11.43-1.46,21.83-6.76,26.46-17.86,3.92-9.41,4.88-24.55-2.76-32.34Z" fill="currentColor"/>
  <path d="M882.94,205.73l56.55-100.68,29.52-.71,18.6,101.4h-24.99c-.93,0-1.45-17.38-2.9-18.32-2.08-1.35-34.62.92-39.78-.11-1.78.46-9.68,18.42-10.84,18.42h-26.17ZM956.49,168.96l-6.36-38.67-20.51,38.67h26.87Z" fill="currentColor"/>
  <path d="M709.92,54.86c.63.59-2.93,14.97-3.6,16.91l-66.11.13-9.03,44.72h60.35l-3.6,17.47-59.99.03-14.2,72.55h-20.27l29.23-151.81h87.22Z" fill="currentColor"/>
  <path d="M1003.64,205.73l19.61-101.39c22.36,2.35,74.1-10,77.03,24.32,1.88,22.06-13.48,38.49-34.72,41.16-4.76.6-28.2-.32-29.36.58-1.64,1.27-4.83,35.33-6.63,35.33h-25.93ZM1040.41,151.51c.65.63,15.72,0,18.15,0,14.58,0,21.58-23.24,7.14-27.41-2.76-.8-17.21-1.58-19.42-.91-1.38.42-6.91,27.31-5.87,28.32Z" fill="currentColor"/>
  <path d="M901.33,104.37c.76.66-4.35,17.07-3.78,19.79l-33.91.04-15.59,81.53h-26.4l16.03-81.56h-33.47c.67-1.73,2.76-19.8,3.77-19.8h93.35Z" fill="currentColor"/>
  <polygon points="763.19 54.86 733.96 206.67 713.22 206.67 742.45 54.86 763.19 54.86" fill="currentColor"/>
  <path d="M131.91,97.77c.81.75-3.37,21.69-4.48,21.69H58.83c1.11-1.81,2.67-21.69,3.77-21.69h69.3Z" fill="currentColor"/>
  <path d="M123.42,141.61c.84.72-4.7,18.77-4.24,21.69H49.88c1.18-1.82,3.14-21.69,4.24-21.69h69.3Z" fill="currentColor"/>
  <path d="M114.47,185.46c.8.76-3.37,21.69-4.48,21.69H41.39c.45-2.06,3.37-21.69,4.48-21.69h68.6Z" fill="currentColor"/>
  <path d="M140.4,53.92c.78.74-4.08,18.49-3.77,21.22h-68.83c1.04-1.75,2.69-21.22,3.77-21.22h68.83Z" fill="currentColor"/>
  <path d="M360.1,308.98v38.66c3.14-3.89,16.48-38.66,18.62-38.66h7.31c1.94,0,.08,35.8,1.65,38.67l16.74-38.67h8.49c-3.76,5.01-21.08,49.03-23.81,49.03h-8.72l-1.18-36.31c-2.17,3.94-15.43,36.31-17.44,36.31h-8.72l-1.18-49.03h8.25Z" fill="currentColor"/>
  <path d="M882.47,358.01c-1.79-1.66,10.08-41.92,9.9-47.86.16-1.24.77-1,1.63-1.2,2.93-.7,18.58-.03,21.85.83,10.27,2.71,11.38,14.53,3.82,21.07-1.24,1.08-3.61,1.53-3.73,1.7-.25.35,3,2.21,3.5,2.85,8.08,10.36-2.18,22.6-13.64,22.6-3.05,0-22.48.79-23.34,0ZM897.09,328.78c.47.42,10.73,0,12.49,0,5.58,0,9.76-11.21.9-12.68-1.07-.18-10.27-.3-10.76-.07-.59.28-3.12,12.32-2.63,12.75ZM892.37,350.94c.52.46,11.98,0,13.91,0,6.43,0,10.86-13.13,1.3-14.97-1.17-.22-11.56-.4-12.1-.14-.7.33-3.68,14.6-3.1,15.11Z" fill="currentColor"/>
  <path d="M621.28,358.01c-1.79-1.66,10.08-41.92,9.9-47.86.16-1.24.77-1,1.63-1.2,2.93-.7,18.58-.03,21.85.83,10.27,2.71,11.38,14.53,3.82,21.07-1.24,1.08-3.61,1.53-3.73,1.7-.25.35,3,2.21,3.5,2.85,8.08,10.36-2.18,22.6-13.64,22.6-3.05,0-22.48.79-23.34,0ZM635.9,328.78c.47.42,10.73,0,12.49,0,5.58,0,9.76-11.21.9-12.68-1.07-.18-10.27-.3-10.76-.07-.59.28-3.12,12.32-2.63,12.75ZM631.18,350.94c.52.46,11.98,0,13.91,0,6.43,0,10.86-13.13,1.3-14.97-1.17-.22-11.56-.4-12.1-.14-.7.33-3.68,14.6-3.1,15.11Z" fill="currentColor"/>
  <path d="M209.7,358.01c1.94-5.64,8.36-46.82,10.13-48.57.77-.76,10.46-.76,11.33,0,2.46,2.16,9.21,32.45,12.25,37.25,1.65-3.04,5.86-37.72,7.78-37.72h8.01c-2.24,5.43-8.33,47.62-10.44,48.96-.49.31-9.84.22-10.54-.4-2.3-2.03-9.82-34.56-12.25-39.61-1.89,3.2-6.2,40.08-8.25,40.08h-8.01Z" fill="currentColor"/>
  <path d="M14.99,358.01c-1.79-1.66,10.21-41.88,9.89-47.86.17-1.24.78-.99,1.63-1.2,1.83-.44,13.17-.2,15.57.04,31.06,3.08,21.12,49.02-6.11,49.02-2.77,0-20.21.71-20.98,0ZM24.89,350.94c.42.36,9.49,0,11.08,0,19.61,0,23.9-41.32-2.84-34.92-.81,3.97-9.61,33.77-8.24,34.92Z" fill="currentColor"/>
  <path d="M462.87,358.01c-1.8-1.75,9.64-43.43,10.59-49.06,12.01-.84,38.98-1.85,30.67,18.42-2.22,5.42-8.27,6.02-8.72,6.61-.25.32,3.77,2.96,4.24,6.83.17,1.44-1.72,17.21-2.59,17.21h-7.78c-1.38-6.24,6.79-18.61-2.8-20.53-1.75-.35-10.4-.74-11.25.59-.91,1.43-3.21,19.95-4.57,19.95-1.15,0-7.5.27-7.78,0ZM477.02,330.19c.47.42,10.73,0,12.49,0,6.67,0,11.16-12.3.82-14.02-1.25-.21-8.96-.41-9.8-.16-.7.21-4.06,13.69-3.51,14.18Z" fill="currentColor"/>
  <path d="M751.41,358.01c-1.81-1.68,10.33-42.2,9.99-48.23,1-1.56,20.55-.85,23.5-.11,10.82,2.74,12.02,16.05,3.71,22.6-1.17.92-4.03,1.55-4.2,1.7-.44.41,2.59,2.7,3.09,3.74,3.07,6.35-1.62,13.63-1.21,20.3h-8.01c-1.78-6.57,7.03-19.11-3.59-20.69-1.1-.16-9.81-.31-10.27-.09-1.26.6-3.46,20.77-4.52,20.77-1.23,0-8.18.29-8.49,0ZM765.55,330.19c.48.4,10.73,0,12.49,0,6.63,0,10.31-11.06,3.17-13.54-1.94-.67-11.79-1.3-12.74.2-.37.58-3.44,12.9-2.92,13.35Z" fill="currentColor"/>
  <path d="M434.47,308.63c33.17-4.53,28.55,43.24,4.72,49.04-37.63,9.15-32.01-45.31-4.72-49.04ZM435.41,315.7c-16.43,2.63-21.47,42.6,2.46,34.99,12.65-4.02,18.59-38.36-2.46-34.99Z" fill="currentColor"/>
  <path d="M593.37,308.64c33.21-4.12,27.85,43.25,4.65,48.97-37.97,9.36-32.1-45.57-4.65-48.97ZM594.3,315.7c-15.56,2.28-22.32,40.08.61,35.5,14.25-2.85,20.55-38.6-.61-35.5Z" fill="currentColor"/>
  <path d="M526.52,308.98c.86.73-5.11,19.2-4.71,22.16,3.54-1.96,23.08-22.16,24.75-22.16h10.14c-2.05,3.58-22.72,19.14-23.02,21.05s13.12,23.95,14.06,27.98h-9.19c-1.28,0-10.39-22.28-11.82-22.62-.53-.13-6.46,4.47-6.91,5.3-1.15,2.13-2.78,17.32-3.66,17.32h-8.49c2.09-4.08,8.1-49.03,10.61-49.03,1.2,0,7.94-.27,8.25,0Z" fill="currentColor"/>
  <path d="M107.39,308.98c.32.31-.65,7-1.71,7.48-2.74,1.23-20.95-1-22.73.13-.52.33-2.3,10.63-2.43,12.19h21.69c-.09,1.34-.55,6.48-1.71,7.01-2.54,1.14-20.4-.87-21.81.12-.63.44-2.48,13.19-2.88,15.03h24.99c-.52.78-1.98,7.07-2.36,7.07h-33l10.37-49.03c3.77.84,30.45-1.1,31.59,0Z" fill="currentColor"/>
  <path d="M303.05,308.98c.29.26-1.36,7.42-1.71,7.57-2.29.99-22.31-.84-23.27-.02-.47.41-1.57,10.72-2.36,12.25h22.16c-.27,1.08-1.18,6.87-1.71,7.1-2.54,1.1-20.13-1.1-21.89.18-.8.58-2.54,12.96-3.27,14.88h24.99c0,1.11-1.89,7.07-2.59,7.07h-32.29c2.08-4.09,8.1-49.03,10.61-49.03,4,0,30.18-1.04,31.35,0Z" fill="currentColor"/>
  <path d="M751.88,308.98c.29.26-1.36,7.42-1.71,7.57-2.29.99-22.31-.84-23.27-.02-.47.41-1.57,10.72-2.36,12.25h22.16c-.27,1.08-1.18,6.87-1.71,7.1-2.54,1.1-20.13-1.1-21.89.18-.8.58-2.54,12.96-3.27,14.88h24.99c0,1.11-1.89,7.07-2.59,7.07h-32.29c2.08-4.09,8.1-49.03,10.61-49.03,4,0,30.18-1.04,31.35,0Z" fill="currentColor"/>
  <path d="M148.88,308.98c.29.26-1.36,7.42-1.71,7.57-2.29.99-22.31-.84-23.27-.02-.47.41-1.57,10.72-2.36,12.25h22.16c-.27,1.08-1.18,6.87-1.71,7.1-2.54,1.1-20.13-1.1-21.89.18-.8.58-2.54,12.96-3.27,14.88h24.99c0,1.11-1.89,7.07-2.59,7.07h-32.29c2.08-4.09,8.1-49.03,10.61-49.03,4,0,30.18-1.04,31.35,0Z" fill="currentColor"/>
  <path d="M875.87,358.01h-8.49c-.64,0-.96-12.28-1.41-12.73-.62-.63-16.84-.26-17.7-.03-1.75.47-6.1,12.77-6.82,12.77h-8.96c3.48-5.32,23.93-48.34,26.62-49.07,1.25-.34,9.99-.18,10.55.82l6.2,48.25ZM865.03,338.21l-2.82-21.69-10.38,21.69h13.2Z" fill="currentColor"/>
  <path d="M707.09,322.65h-8.96c-.34,0,.04-3.87-2.81-5.91-4.27-3.05-13.68-1.75-13.69,4.73-.01,8.82,21.2,6.92,22.63,20.27,2.38,22.15-37.96,23.04-37.24,1.18h8.25c.36,0,1.65,5.02,3.04,6.39,4.4,4.3,16.35,3.48,16.97-3.86,1.01-11.81-22.28-7.94-22.64-22.57-.47-19.14,34.52-19.76,34.45-.23Z" fill="currentColor"/>
  <path d="M148.41,358.01c-1.81-1.68,10.31-42.21,9.99-48.23,12.24-1.72,34.04-3.65,32.43,14.99-.89,10.34-9.72,13.45-18.62,14.38-1.78.18-11.06-.31-11.51.04-.87.68-2.84,18.83-3.8,18.83-1.23,0-8.18.29-8.49,0ZM162.55,332.08c.37.35,8.71,0,10.14,0,9.48,0,12.79-12.88,4.57-15.42-1.96-.61-10.79-1.37-11.79.19-.42.65-3.48,14.7-2.92,15.23Z" fill="currentColor"/>
  <path d="M808.22,308.98c1.87.83,3.85,36.04,5.19,40.55,3.04-4.36,19.85-40.55,22.16-40.55h8.72l-26.5,46.81c.31,2.99-10.78,2.65-11.22,2.22-1.78-1.71-4.32-43.38-6.6-49.03,1.74.39,7.06-.53,8.25,0Z" fill="currentColor"/>
  <path d="M1063.51,308.98c1.18.68,6.08,22.42,7.08,23.1,1.2.82,16.22-23.1,17.67-23.1h8.72l-23.21,30.78c-.77,1.86-3.39,18.26-4.37,18.26h-8.25c.43-5.56,4.23-14.2,3.73-19.51-.72-7.68-8.95-21.18-10.33-29.52,1.56.35,8.14-.47,8.96,0Z" fill="currentColor"/>
  <path d="M1050.31,308.98c.28.25-1.16,7.27-1.47,7.49-1.16.82-13.53-.85-14.81.51-1.82,1.93-6.84,41.03-8.94,41.03h-8.25l8.49-41.49h-14.14c.18-.74,1.03-7.54,1.41-7.54,4.74,0,36.31-1.26,37.72,0Z" fill="currentColor"/>
  <path d="M345.95,308.98c.27.26-.98,7.05-1.39,7.34-1.27.91-13.8-.39-14.62.24-1.67,1.3-6.49,36.74-8.51,41.46h-8.49l8.49-41.49h-13.91c-1.12,0,.88-7.54,1.41-7.54,4.66,0,35.67-1.28,37.01,0Z" fill="currentColor"/>
  <path d="M967.33,308.98c1.55,1.48-8.67,36.79-8.49,41.96h23.57c-.39.74-1.98,7.07-2.36,7.07h-31.59l10.37-49.03c1.22.22,8.18-.29,8.49,0Z" fill="currentColor"/>
  <path d="M946.59,308.98c-1.82,4.12-8.1,49.03-10.61,49.03h-8.25l10.37-49.03h8.49Z" fill="currentColor"/>
  <path d="M1005.99,308.98c-1.84,4.13-8.1,49.03-10.61,49.03h-8.25l10.37-49.03h8.49Z" fill="currentColor"/>
</svg>