<?xml version="1.0" encoding="UTF-8"?>
<svg xmlns="http://www.w3.org/2000/svg" width="900" height="360" viewBox="0 0 900 360">
  <defs>
    <linearGradient id="badgeGrad" x1="0" y1="0" x2="0" y2="1">
      <stop offset="0%" stop-color="#FFE566"/>
      <stop offset="100%" stop-color="#C8900A"/>
    </linearGradient>
  </defs>

  <rect width="900" height="360" fill="white"/>

  <!--
    viewBox 0 0 782 148, aspect 5.28:1
    scale = 820/782 ≈ 1.0486  →  scaled size 820 × 155.2 (width-constrained)
    center vertically in 252px: ty = 30 + (252-155.2)/2 ≈ 78.4
  -->
  <g transform="translate(40, 78.4) scale(1.0486)">
    <path fill="#1a1a1a" d="M766.987 28.7104C764.109 28.7104 761.514 28.0536 759.199 26.74C756.947 25.3639 755.165 23.5813 753.851 21.392C752.6 19.2028 751.975 16.8884 751.975 14.449C751.975 12.0096 752.6 9.69522 753.851 7.50598C755.165 5.25418 756.947 3.44024 759.199 2.06415C761.514 0.68805 764.109 0 766.987 0C769.864 0 772.428 0.68805 774.68 2.06415C776.995 3.44024 778.777 5.25418 780.028 7.50598C781.342 9.69522 781.999 12.0096 781.999 14.449C781.999 16.8884 781.342 19.2028 780.028 21.392C778.777 23.5813 776.995 25.3639 774.68 26.74C772.428 28.0536 769.864 28.7104 766.987 28.7104ZM778.809 141.833C778.809 142.938 777.913 143.833 776.809 143.833H756.883C755.779 143.833 754.883 142.938 754.883 141.833V47.4112C754.883 46.3066 755.779 45.4112 756.883 45.4112H776.809C777.913 45.4112 778.809 46.3066 778.809 47.4112V141.833Z"/>
    <path fill="#1a1a1a" d="M719.78 47.9735C719.78 46.8689 720.676 45.9735 721.78 45.9735H738.609C739.714 45.9735 740.609 46.8689 740.609 47.9735V142.302C740.609 143.406 739.714 144.302 738.609 144.302H721.703C720.592 144.302 719.694 143.396 719.703 142.286L719.78 132.761C716.027 137.077 709.835 140.486 704.768 142.988C699.702 145.428 694.041 146.647 687.786 146.647C678.904 146.647 670.647 144.364 663.016 139.798C655.448 135.17 649.443 128.946 645.002 121.127C640.561 113.246 638.34 104.614 638.34 95.2315C638.34 85.849 640.561 77.2484 645.002 69.4297C649.505 61.5484 655.541 55.3247 663.11 50.7586C670.678 46.1299 678.904 43.8156 687.786 43.8156C694.166 43.8156 699.889 45.0665 704.956 47.5685C710.085 50.0705 716.027 53.5108 719.78 57.8893V47.9735ZM689.85 123.942C695.042 123.942 699.795 122.722 704.111 120.283C708.427 117.781 711.836 114.372 714.338 110.056C716.84 105.677 718.091 100.767 718.091 95.3253C718.091 89.8835 716.84 84.9733 714.338 80.5948C711.836 76.1538 708.427 72.6823 704.111 70.1803C699.795 67.6783 695.042 66.4273 689.85 66.4273C684.721 66.4273 680.03 67.6783 675.776 70.1803C671.523 72.6823 668.176 76.1538 665.737 80.5948C663.298 84.9733 662.078 89.8835 662.078 95.3253C662.078 100.767 663.298 105.677 665.737 110.056C668.176 114.434 671.492 117.843 675.682 120.283C679.936 122.722 684.658 123.942 689.85 123.942Z"/>
    <path fill="#1a1a1a" d="M595.34 141.833C595.34 142.937 594.445 143.833 593.34 143.833H573.509C572.404 143.833 571.509 142.937 571.509 141.833V5.28321C571.509 4.17864 572.404 3.2832 573.509 3.2832H593.34C594.445 3.2832 595.34 4.17863 595.34 5.2832V141.833Z"/>
    <path fill="#1a1a1a" d="M557.73 141.833C557.73 142.937 556.834 143.833 555.73 143.833H535.898C534.794 143.833 533.898 142.937 533.898 141.833V5.28321C533.898 4.17864 534.794 3.2832 535.898 3.2832H555.73C556.834 3.2832 557.73 4.17863 557.73 5.2832V141.833Z"/>
    <path fill="#1a1a1a" d="M499.505 47.8797C499.505 46.7751 500.4 45.8797 501.505 45.8797H518.334C519.438 45.8797 520.334 46.7751 520.334 47.8797V142.208C520.334 143.313 519.438 144.208 518.334 144.208H501.411C500.306 144.208 499.411 143.313 499.411 142.208V132.668C495.658 136.983 489.559 140.392 484.493 142.894C479.426 145.334 473.765 146.554 467.51 146.554C458.628 146.554 450.372 144.271 442.741 139.704C435.172 135.076 429.167 128.852 424.726 121.033C420.285 113.152 418.065 104.52 418.065 95.1377C418.065 85.7552 420.285 77.1546 424.726 69.3359C429.23 61.4546 435.266 55.2309 442.835 50.6648C450.403 46.0361 458.628 43.7218 467.51 43.7218C473.891 43.7218 479.614 44.9727 484.68 47.4747C489.809 49.9767 495.752 53.417 499.505 57.7955V47.8797ZM469.575 123.848C474.766 123.848 479.52 122.628 483.836 120.189C488.152 117.687 491.561 114.278 494.063 109.962C496.565 105.583 497.816 100.673 497.816 95.2315C497.816 89.7897 496.565 84.8795 494.063 80.501C491.561 76.06 488.152 72.5885 483.836 70.0865C479.52 67.5845 474.766 66.3335 469.575 66.3335C464.445 66.3335 459.754 67.5845 455.501 70.0865C451.247 72.5885 447.901 76.06 445.462 80.501C443.022 84.8795 441.802 89.7897 441.802 95.2315C441.802 100.673 443.022 105.583 445.462 109.962C447.901 114.34 451.216 117.749 455.407 120.189C459.66 122.628 464.383 123.848 469.575 123.848Z"/>
    <path fill="#1a1a1a" d="M382.318 146.647C372.622 146.647 363.865 144.333 356.047 139.704C348.228 135.076 342.067 128.821 337.563 120.939C333.122 113.058 330.902 104.458 330.902 95.1377C330.902 85.7552 333.153 77.1233 337.657 69.2421C342.161 61.2982 348.322 55.012 356.141 50.3833C363.959 45.7546 372.654 43.4403 382.224 43.4403C389.354 43.4403 395.954 44.66 402.021 47.0994C407.524 49.2554 412.436 52.1833 416.755 55.8831C417.517 56.535 417.636 57.6581 417.061 58.4793L407.33 72.3925C406.649 73.3662 405.276 73.5311 404.344 72.7951C401.498 70.5497 398.566 68.8024 395.547 67.5532C391.919 66.052 387.885 65.3014 383.444 65.3014C378.252 65.3014 373.436 66.615 368.995 69.2421C364.616 71.8066 361.113 75.3719 358.486 79.9381C355.922 84.5042 354.639 89.5707 354.639 95.1377C354.639 100.642 355.953 105.646 358.58 110.15C361.207 114.653 364.71 118.219 369.088 120.846C373.529 123.41 378.314 124.692 383.444 124.692C387.885 124.692 391.919 123.942 395.547 122.441C398.621 121.19 401.586 119.484 404.443 117.322C405.378 116.615 406.725 116.792 407.396 117.753L417.071 131.619C417.641 132.436 417.526 133.551 416.773 134.204C412.499 137.91 407.582 140.869 402.021 143.082C395.891 145.459 389.323 146.647 382.318 146.647Z"/>
    <path fill="#1a1a1a" d="M250.658 102.925C252.221 109.931 255.568 115.435 260.697 119.438C265.889 123.441 272.018 125.443 279.087 125.443C287.361 125.443 294.567 122.944 300.707 117.947C301.651 117.179 303.067 117.333 303.758 118.335L312.91 131.612C313.475 132.433 313.353 133.548 312.597 134.197C308.214 137.96 303.236 140.921 297.664 143.082C291.597 145.459 284.935 146.647 277.679 146.647C268.109 146.647 259.446 144.364 251.69 139.798C243.996 135.17 237.96 128.915 233.582 121.033C229.203 113.152 227.014 104.551 227.014 95.2315C227.014 85.7865 229.078 77.1233 233.206 69.2421C237.335 61.3608 243.058 55.1371 250.376 50.571C257.757 45.9423 266.014 43.6279 275.146 43.6279C285.216 43.6279 293.911 45.8172 301.229 50.1957C308.548 54.5116 314.114 60.5164 317.93 68.21C321.746 75.9036 323.653 84.6919 323.653 94.5747C323.653 96.9203 323.539 99.1322 323.31 101.211C323.201 102.197 322.354 102.925 321.362 102.925H250.658ZM276.084 64.3632C269.829 64.3632 264.45 66.1771 259.946 69.805C255.443 73.3704 252.409 78.3431 250.845 84.7231H300.572C299.134 78.218 296.288 73.214 292.034 69.7112C287.844 66.1459 282.527 64.3632 276.084 64.3632Z"/>
    <path fill="#1a1a1a" d="M209.32 43.4404C213.073 43.4404 216.888 44.0972 220.766 45.4107C224.113 46.5443 227.367 48.1205 230.527 50.1392C231.389 50.6896 231.655 51.8157 231.167 52.7143L222.496 68.6745C221.925 69.7261 220.567 70.0382 219.546 69.4143C215.263 66.7976 210.884 65.4892 206.411 65.4892C202.783 65.5518 199.343 66.7089 196.09 68.9607C192.838 71.15 190.18 74.2775 188.115 78.3432C186.114 82.3464 185.05 87.0064 184.925 92.3231V141.833C184.925 142.937 184.03 143.833 182.925 143.833H163C161.895 143.833 161 142.937 161 141.833L161 47.9571C161 46.8525 161.895 45.9571 163 45.9571H181.236C182.341 45.9571 183.236 46.8525 183.236 47.9571V58.7338C185.989 53.9175 189.585 50.1645 194.026 47.4749C198.53 44.7852 203.628 43.4404 209.32 43.4404Z"/>
    <path fill="#1a1a1a" d="M620.34 143.833C617.665 143.833 615.257 143.203 613.117 141.942C610.977 140.68 609.313 138.978 608.124 136.833C606.935 134.689 606.34 132.356 606.34 129.833C606.34 127.311 606.935 124.978 608.124 122.833C609.313 120.689 610.977 118.987 613.117 117.725C615.257 116.464 617.665 115.833 620.34 115.833C623.015 115.833 625.423 116.464 627.563 117.725C629.703 118.987 631.368 120.689 632.557 122.833C633.746 124.978 634.34 127.311 634.34 129.833C634.34 132.419 633.746 134.784 632.557 136.928C631.368 139.072 629.703 140.743 627.563 141.942C625.423 143.203 623.015 143.833 620.34 143.833Z"/>
    <circle fill="#1a1a1a" cx="53" cy="95" r="53"/>
  </g>

  <rect x="760" y="312" width="140" height="48" fill="url(#badgeGrad)"/>
  <text x="830" y="341" text-anchor="middle"
        font-family="sans-serif" font-size="16" font-weight="bold"
        letter-spacing="3" fill="#4A3000">GOLD</text>

  <!-- Border: 6px inset, 3px stroke — outer stroke edge 4.5px from viewport edge -->
  <path d="M 6,354 L 6,14 A 8,8 0 0,1 14,6 L 886,6 A 8,8 0 0,1 894,14 L 894,354 Z"
        fill="none" stroke="#C8900A" stroke-width="3" opacity="0.85"/>
</svg>
