<?xml version="1.0" encoding="UTF-8" standalone="no"?>
<svg
   version="1.1"
   id="svg548"
   sodipodi:version="0.32"
   sodipodi:docname="ssiconvol.svg"
   inkscape:version="1.2 (dc2aeda, 2022-05-15)"
   inkscape:export-filename="ssiconvol.iconset/icon_512x512.png"
   inkscape:export-xdpi="2048"
   inkscape:export-ydpi="2048"
   x="0px"
   y="0px"
   width="24px"
   height="24px"
   viewBox="0 0 24 24"
   enable-background="new 0 0 24 24"
   xml:space="preserve"
   xmlns:inkscape="http://www.inkscape.org/namespaces/inkscape"
   xmlns:sodipodi="http://sodipodi.sourceforge.net/DTD/sodipodi-0.dtd"
   xmlns:xlink="http://www.w3.org/1999/xlink"
   xmlns="http://www.w3.org/2000/svg"
   xmlns:svg="http://www.w3.org/2000/svg"
   xmlns:rdf="http://www.w3.org/1999/02/22-rdf-syntax-ns#"
   xmlns:cc="http://creativecommons.org/ns#"
   xmlns:dc="http://purl.org/dc/elements/1.1/"><metadata
   id="metadata3007"><rdf:RDF><cc:Work
       rdf:about=""><dc:format>image/svg+xml</dc:format><dc:type
         rdf:resource="http://purl.org/dc/dcmitype/StillImage" /><dc:title /></cc:Work></rdf:RDF></metadata><defs
   id="defs3005"><linearGradient
     inkscape:collect="always"
     id="linearGradient1850"><stop
       style="stop-color:#1f4c8c;stop-opacity:1;"
       offset="0"
       id="stop1846" /><stop
       style="stop-color:#5785d9;stop-opacity:1;"
       offset="1"
       id="stop1848" /></linearGradient><linearGradient
     id="linearGradient5067"><stop
       style="stop-color:#000000;stop-opacity:0.15753424;"
       offset="0"
       id="stop5069" /><stop
       style="stop-color:#000000;stop-opacity:0;"
       offset="1"
       id="stop5071" /></linearGradient><linearGradient
     inkscape:collect="always"
     xlink:href="#linearGradient1850"
     id="linearGradient1852"
     x1="0.90263927"
     y1="14.816668"
     x2="0.90263927"
     y2="2.1164389"
     gradientUnits="userSpaceOnUse" /></defs>

<sodipodi:namedview
   inkscape:snap-page="false"
   inkscape:current-layer="svg548"
   inkscape:window-width="1718"
   showguides="true"
   inkscape:guide-bbox="true"
   inkscape:window-maximized="0"
   inkscape:window-height="1032"
   inkscape:cy="11.71897"
   inkscape:cx="11.325527"
   inkscape:window-x="250"
   id="base"
   inkscape:window-y="27"
   showgrid="true"
   inkscape:zoom="35.583333"
   inkscape:document-rotation="0"
   pagecolor="#ffffff"
   bordercolor="#666666"
   borderopacity="1.0"
   inkscape:showpageshadow="2"
   inkscape:pageopacity="0.0"
   inkscape:pagecheckerboard="0"
   inkscape:deskcolor="#d1d1d1">

		<inkscape:grid
   type="xygrid"
   enabled="true"
   visible="true"
   spacingx="0.5px"
   spacingy="0.5px"
   empspacing="5"
   snapvisiblegridlinesonly="true"
   id="grid3142">
		</inkscape:grid>
<sodipodi:guide
   position="22,24"
   orientation="-1,0"
   id="guide4492"
   inkscape:locked="false"
   inkscape:label=""
   inkscape:color="rgb(0,134,229)" /></sodipodi:namedview>

<g
   id="g3209"
   style="display:inline;stroke-width:2.28576;fill:url(#linearGradient1852);fill-opacity:1"
   transform="matrix(1.6535135,0,0,1.6535135,-1.9925262,-1.9995602)"
   inkscape:label="stratoshark"><path
     id="path5467"
     style="color:#000000;display:inline;fill:url(#linearGradient1852);stroke-width:2.28576;-inkscape-stroke:none;fill-opacity:1"
     d="m 3.2400727,6.0332235 c -1.6282601,0.025031 -0.9649152,0.033365 -1.9427167,0.03514 -0.00246,4.4e-6 -0.00551,-1.246e-4 -0.00775,0 h -0.00207 c -0.00151,1.863e-4 -0.00755,0.00201 -0.00775,0.00207 -1.023e-4,3.36e-5 -0.00977,0.00358 -0.00982,0.00362 -5.02e-5,3.77e-5 -0.013438,0.029414 -0.013436,0.029456 1.8e-6,4.16e-5 0.011315,0.023209 0.011369,0.023254 5.36e-5,4.56e-5 0.00816,0.00408 0.00827,0.00413 2.104e-4,9.91e-5 0.0043,0.00374 0.00568,0.00413 0.00139,3.829e-4 0.00254,-2.261e-4 0.00362,0 0.00858,0.00181 0.019386,0.00364 0.037207,0.00568 0.7450762,0.1040572 1.4869276,0.2050597 2.0135135,0.2656165 0.050206,0.0061 0.092576,-0.01329 0.1188558,-0.041341 0.02628,-0.028051 0.035949,-0.06235 0.040824,-0.097152 0.00487,-0.034802 0.00431,-0.071307 0.00207,-0.099736 -0.00224,-0.02843 -0.00568,-0.052455 -0.00568,-0.054777 V 6.087992 L 3.4690065,6.080242 C 3.4186965,6.0664 3.3985335,6.056142 3.3692715,6.046652 3.3400085,6.037162 3.3054505,6.03221 3.2400804,6.033216 Z"
     inkscape:label="path5467"
     sodipodi:nodetypes="csccccssscsccscssccscc" /><path
     style="fill:url(#linearGradient1852);fill-opacity:1;stroke:none;stroke-width:0.604772px;stroke-linecap:butt;stroke-linejoin:miter;stroke-opacity:1"
     d="M 8.9032692,6.1928876 C 6.8638617,6.0382159 4.5961906,5.9612841 3.6084262,5.9804506 3.4148813,5.9842241 3.4132913,6.0163697 3.2997077,6.1473133 3.2255203,6.2328396 3.1612662,6.302039 3.2225006,6.4932988 c 0.061237,0.19126 1.1039387,1.7303724 1.5035164,2.4394119 0.3087693,0.5479034 0.6305558,1.7898373 0.71721,2.4766723 0.095323,0.755546 0.00949,1.138757 -0.1326524,1.633742 -0.08989,0.313022 -0.277895,0.777884 -0.3291536,0.883345 -0.071749,0.147618 -0.2424409,0.438716 -0.2780846,0.533086 -0.084615,0.224023 -0.055321,0.267404 0.1122927,0.337702 0.144197,0.06048 1.4882014,-0.03298 1.8109768,-0.107824 0.3469277,-0.08045 0.7924818,-0.303498 1.1487712,-0.561988 C 8.2021253,13.817837 9.3085408,12.666171 9.7145043,11.889861 10.120468,11.113552 11.018747,9.8289026 11.235702,9.5534115 11.791959,8.8470788 12.42794,8.4769487 12.723889,8.3179773 13.178299,8.0738903 13.680024,8.2113596 14.207641,7.6982137 14.448023,7.4644225 14.608088,7.1972481 14.533722,6.9712183 14.459354,6.7451873 14.172097,6.745049 13.973417,6.7053004 13.774739,6.6655519 13.575575,6.6305956 13.364945,6.6053352 11.882005,6.4274872 11.256513,6.3713525 8.9032682,6.1928793 Z"
     id="path3205"
     sodipodi:nodetypes="ssssssssssssssssszsss" /><path
     style="fill:url(#linearGradient1852);fill-opacity:1;stroke:none;stroke-width:0.604772px;stroke-linecap:butt;stroke-linejoin:miter;stroke-opacity:1"
     d="M 13.061635,5.2295311 C 13.013617,4.9413813 12.875822,4.3436854 12.80026,4.0297442 12.753435,3.8351889 12.645904,3.3934937 12.51538,3.1076385 12.355481,2.7574505 12.156827,2.4673879 11.900236,2.2341766 11.801496,2.1444339 11.623019,2.1134401 11.53973,2.1166641 11.323239,2.1250442 11.36145,2.1997672 11.305994,2.3921507 11.24828,2.5923659 11.224831,2.7057664 11.1125,2.9104136 10.960772,3.1868365 10.583333,3.7041667 10.31875,3.96875 9.9843113,4.3031885 9.5077152,4.5996551 9.2604168,4.7625 8.7662984,5.0878748 8.3389344,5.227556 8.0846163,5.3187745 7.475322,5.5373184 6.4981568,5.6783374 5.8414466,5.8117975 c 0.6818225,0.013539 2.5610101,0.097892 4.5452274,0.2552756 1.678991,0.1331734 2.755596,0.2723835 3.094781,0.3211796 -0.313793,-0.4073843 -0.350107,-0.7318582 -0.41982,-1.1587216 z"
     id="path3207"
     sodipodi:nodetypes="cssssssssscscc" /></g></svg>
