<?xml version="1.0" encoding="UTF-8" standalone="no"?>
<!-- Generator: Adobe Illustrator 15.0.2, SVG Export Plug-In . SVG Version: 6.00 Build 0)  -->

<svg
   xmlns:dc="http://purl.org/dc/elements/1.1/"
   xmlns:cc="http://creativecommons.org/ns#"
   xmlns:rdf="http://www.w3.org/1999/02/22-rdf-syntax-ns#"
   xmlns:svg="http://www.w3.org/2000/svg"
   xmlns="http://www.w3.org/2000/svg"
   xmlns:xlink="http://www.w3.org/1999/xlink"
   xmlns:sodipodi="http://sodipodi.sourceforge.net/DTD/sodipodi-0.dtd"
   xmlns:inkscape="http://www.inkscape.org/namespaces/inkscape"
   version="1.1"
   id="svg548"
   sodipodi:version="0.32"
   sodipodi:docname="x-capture-start.svg"
   inkscape:version="0.48.2 r9819"
   inkscape:export-filename="x-capture-start.png"
   inkscape:export-xdpi="90"
   inkscape:export-ydpi="90"
   x="0px"
   y="0px"
   width="24px"
   height="24px"
   viewBox="0 0 24 24"
   enable-background="new 0 0 24 24"
   xml:space="preserve"><metadata
   id="metadata3007"><rdf:RDF><cc:Work
       rdf:about=""><dc:format>image/svg+xml</dc:format><dc:type
         rdf:resource="http://purl.org/dc/dcmitype/StillImage" /><dc:title /></cc:Work></rdf:RDF></metadata><defs
   id="defs3005"><linearGradient
   id="linearGradient5075"><stop
     style="stop-color:#fffdff;stop-opacity:0.15753424;"
     offset="0"
     id="stop5077" /><stop
     style="stop-color:#ffffff;stop-opacity:0;"
     offset="1"
     id="stop5079" /></linearGradient><linearGradient
   id="linearGradient5067"><stop
     style="stop-color:#000000;stop-opacity:0.15753424;"
     offset="0"
     id="stop5069" /><stop
     style="stop-color:#000000;stop-opacity:0;"
     offset="1"
     id="stop5071" /></linearGradient>
	
	
		
<linearGradient
   inkscape:collect="always"
   xlink:href="#linearGradient5067"
   id="linearGradient5073"
   x1="15"
   y1="21.5"
   x2="12.5"
   y2="11.5"
   gradientUnits="userSpaceOnUse" /><linearGradient
   inkscape:collect="always"
   xlink:href="#linearGradient5075"
   id="linearGradient5081"
   x1="10"
   y1="6.5"
   x2="12.5"
   y2="14"
   gradientUnits="userSpaceOnUse" /></defs>
<path
   fill="#FFFFFF"
   d="M1.604,22.989l20.23,0.03c-1.103-2.755-4.736-13.304,0.234-22.011C5.218,1.869,2.045,19.696,1.604,22.989z"
   id="path2994" />
<sodipodi:namedview
   inkscape:current-layer="svg548"
   inkscape:window-width="1443"
   showguides="true"
   inkscape:guide-bbox="true"
   inkscape:window-maximized="0"
   inkscape:window-height="837"
   inkscape:cy="12"
   inkscape:cx="17.508885"
   inkscape:window-x="0"
   id="base"
   inkscape:window-y="759"
   showgrid="true"
   inkscape:zoom="27.833333">
	
		<inkscape:grid
   type="xygrid"
   enabled="true"
   visible="true"
   spacingx="0.5px"
   spacingy="0.5px"
   empspacing="5"
   snapvisiblegridlinesonly="true"
   id="grid3142">
		</inkscape:grid>
</sodipodi:namedview>
<g
   id="g3000">
		<path
   style="fill:#999999"
   inkscape:connector-curvature="0"
   id="path3002"
   d="m 22.557,23.979 c 0,0 0,0 0,0 L 1.064,23.947 C 0.93,23.946 0.802,23.89 0.711,23.792 0.62,23.692 0.575,23.561 0.586,23.427 c 0.02,-0.23 2.2,-23.088 22.341,-23.406 0.166,-0.024 0.34,0.091 0.426,0.246 0.086,0.154 0.081,0.343 -0.015,0.491 -5.911,9.253 -0.941,21.189 -0.396,22.435 0.07,0.083 0.112,0.19 0.112,0.308 0,0.265 -0.215,0.479 -0.479,0.479 -0.004,0 -0.011,0 -0.018,-0.001 z m -20.953,-0.99 20.23,0.03 C 20.731,20.264 17.098,9.715 22.068,1.008 5.218,1.869 2.045,19.696 1.604,22.989 z" />
	</g><path
   style="fill:#2c4bc4;fill-opacity:1"
   d="m 3.39,21.646 c 0,0 2.312,-17.222 16.754,-19.225 -4.48,9.331 -0.216,19.247 -0.216,19.247 L 3.39,21.646 z"
   sodipodi:nodetypes="cccc"
   inkscape:connector-curvature="0"
   inkscape:export-ydpi="90.000000"
   inkscape:export-xdpi="90.000000"
   inkscape:export-filename="/home/gerald/devel/wsweb/image/wslogo.png"
   id="path2995_3_" />
<path
   id="path4555"
   inkscape:export-filename="/home/gerald/devel/wsweb/image/wslogo.png"
   inkscape:export-xdpi="90.000000"
   inkscape:export-ydpi="90.000000"
   inkscape:connector-curvature="0"
   sodipodi:nodetypes="cccc"
   d="m 3.39,21.646 c 0,0 2.312,-17.222 16.754,-19.225 -4.48,9.331 -0.216,19.247 -0.216,19.247 L 3.39,21.646 z"
   style="fill:url(#linearGradient5073);fill-opacity:1" /><path
   style="fill:url(#linearGradient5081);fill-opacity:1"
   d="m 3.39,21.646 c 0,0 2.312,-17.222 16.754,-19.225 -4.48,9.331 -0.216,19.247 -0.216,19.247 L 3.39,21.646 z"
   sodipodi:nodetypes="cccc"
   inkscape:connector-curvature="0"
   inkscape:export-ydpi="90.000000"
   inkscape:export-xdpi="90.000000"
   inkscape:export-filename="/home/gerald/devel/wsweb/image/wslogo.png"
   id="path4557" /></svg>