/* XPM */
static const char * capture_stop_24_xpm[] = {
"24 24 337 2",
"  	c None",
". 	c #000000",
"+ 	c #67331A",
"@ 	c #B14F1F",
"# 	c #D35213",
"$ 	c #CC4C10",
"% 	c #A03B0B",
"& 	c #571F06",
"* 	c #7C7C7C",
"= 	c #6A6A6A",
"- 	c #606060",
"; 	c #353535",
"> 	c #180B04",
", 	c #B75727",
"' 	c #E75D17",
") 	c #E55913",
"! 	c #E05713",
"~ 	c #D75112",
"{ 	c #CE4D10",
"] 	c #C4480F",
"^ 	c #95360B",
"/ 	c #130601",
"( 	c #656565",
"_ 	c #B45525",
": 	c #E15914",
"< 	c #CE4F21",
"[ 	c #CA4B1E",
"} 	c #DD4D17",
"| 	c #DB4B17",
"1 	c #CD4C1F",
"2 	c #C64B23",
"3 	c #BB4512",
"4 	c #8F320B",
"5 	c #5D5D5D",
"6 	c #643119",
"7 	c #E15B19",
"8 	c #D85323",
"9 	c #EEE6E2",
"0 	c #EFE5E0",
"a 	c #CF5328",
"b 	c #CE5023",
"c 	c #EAE1DC",
"d 	c #F8F3F1",
"e 	c #D64F2A",
"f 	c #B43F0E",
"g 	c #4E1A05",
"h 	c #AA4516",
"i 	c #DD4D16",
"j 	c #D65320",
"k 	c #F0E3DD",
"l 	c #FFFFFF",
"m 	c #F5EAE5",
"n 	c #F0EBE8",
"o 	c #FCFCFC",
"p 	c #FAF3EF",
"q 	c #D9522D",
"r 	c #B33F0D",
"s 	c #882E0A",
"t 	c #C3C3C3",
"u 	c #010101",
"v 	c #CA4B0F",
"w 	c #D84D14",
"x 	c #D65223",
"y 	c #F5F0EE",
"z 	c #F5DED3",
"A 	c #D95C37",
"B 	c #D5461F",
"C 	c #B13D0D",
"D 	c #A5370B",
"E 	c #474C38",
"F 	c #4C4F3A",
"G 	c #464B37",
"H 	c #333E2D",
"I 	c #90948E",
"J 	c #020302",
"K 	c #C3470E",
"L 	c #CD4C10",
"M 	c #CE4E11",
"N 	c #D25225",
"O 	c #F2EDEA",
"P 	c #F6E3DB",
"Q 	c #D15C35",
"R 	c #C64115",
"S 	c #AD3B0D",
"T 	c #A1360B",
"U 	c #010201",
"V 	c #566447",
"W 	c #68795E",
"X 	c #505C41",
"Y 	c #4E6043",
"Z 	c #91988C",
"` 	c #151812",
" .	c #99370B",
"..	c #C6480F",
"+.	c #CD461E",
"@.	c #EADDD7",
"#.	c #FDFDFD",
"$.	c #F4DDD3",
"%.	c #F8EEEA",
"&.	c #D44A25",
"*.	c #A9390D",
"=.	c #7A2807",
"-.	c #141513",
";.	c #495742",
">.	c #6F7C68",
",.	c #4C5449",
"'.	c #435438",
").	c #8E968A",
"!.	c #313131",
"~.	c #333B2D",
"{.	c #54200A",
"].	c #BC440F",
"^.	c #C8441F",
"/.	c #F2D9D2",
"(.	c #F5E5DE",
"_.	c #D25E36",
":.	c #C96A41",
"<.	c #F5E8E2",
"[.	c #F7EDE9",
"}.	c #D84723",
"|.	c #9F350B",
"1.	c #3A1303",
"2.	c #575448",
"3.	c #424936",
"4.	c #868E7B",
"5.	c #736C54",
"6.	c #3C4C32",
"7.	c #8D9488",
"8.	c #5F5F5F",
"9.	c #617055",
"0.	c #923A13",
"a.	c #C24014",
"b.	c #D24A25",
"c.	c #D64B25",
"d.	c #C74316",
"e.	c #BF471B",
"f.	c #D04F2A",
"g.	c #D24C28",
"h.	c #CD421C",
"i.	c #712407",
"j.	c #A9A38F",
"k.	c #3E4431",
"l.	c #878E7C",
"m.	c #746E56",
"n.	c #303D28",
"o.	c #515151",
"p.	c #6B8263",
"q.	c #5B6159",
"r.	c #120703",
"s.	c #8E3A17",
"t.	c #AF3E0F",
"u.	c #AE3C0D",
"v.	c #A93A0D",
"w.	c #A6380C",
"x.	c #9E350B",
"y.	c #6D2307",
"z.	c #0C0300",
"A.	c #242E1F",
"B.	c #C67461",
"C.	c #3C2B1B",
"D.	c #887E6C",
"E.	c #7A2310",
"F.	c #303C27",
"G.	c #474747",
"H.	c #6E7F61",
"I.	c #3D4B37",
"J.	c #454744",
"K.	c #4B1906",
"L.	c #842C09",
"M.	c #9E340A",
"N.	c #752707",
"O.	c #361103",
"P.	c #192015",
"Q.	c #596245",
"R.	c #9C9C9C",
"S.	c #3B4237",
"T.	c #747C70",
"U.	c #666666",
"V.	c #2E3B26",
"W.	c #8C9387",
"X.	c #373737",
"Y.	c #7E9A75",
"Z.	c #4B5E44",
"`.	c #3E473B",
" +	c #2F362E",
".+	c #171A16",
"++	c #080908",
"@+	c #000100",
"#+	c #070807",
"$+	c #151614",
"%+	c #12170F",
"&+	c #4C5139",
"*+	c #3D4D34",
"=+	c #394930",
"-+	c #2F3B28",
";+	c #3E4E34",
">+	c #252E1E",
",+	c #303D27",
"'+	c #8B9286",
")+	c #809B76",
"!+	c #586E51",
"~+	c #616C4D",
"{+	c #545B42",
"]+	c #4F553D",
"^+	c #4C513A",
"/+	c #494E38",
"(+	c #484D37",
"_+	c #484C36",
":+	c #2B3624",
"<+	c #565E42",
"[+	c #566244",
"}+	c #506242",
"|+	c #616C4B",
"1+	c #556142",
"2+	c #5E6646",
"3+	c #38472D",
"4+	c #8B9186",
"5+	c #7E9A74",
"6+	c #7B8562",
"7+	c #58684A",
"8+	c #43543C",
"9+	c #5B6548",
"0+	c #3C4C35",
"a+	c #5A6346",
"b+	c #3C4C34",
"c+	c #686E4E",
"d+	c #5A6446",
"e+	c #5F6A4A",
"f+	c #64704E",
"g+	c #687451",
"h+	c #687551",
"i+	c #6E7C5E",
"j+	c #9FA194",
"k+	c #959595",
"l+	c #2D2D2D",
"m+	c #7C9671",
"n+	c #A0A086",
"o+	c #766E52",
"p+	c #888B76",
"q+	c #868874",
"r+	c #858772",
"s+	c #545C41",
"t+	c #44563A",
"u+	c #4D6141",
"v+	c #79825A",
"w+	c #506442",
"x+	c #5C6E50",
"y+	c #7F867B",
"z+	c #545454",
"A+	c #909090",
"B+	c #56534E",
"C+	c #B6B6B6",
"D+	c #939393",
"E+	c #878787",
"F+	c #77906D",
"G+	c #80805C",
"H+	c #323124",
"I+	c #5B593E",
"J+	c #343325",
"K+	c #626245",
"L+	c #5A583E",
"M+	c #302E22",
"N+	c #5F6246",
"O+	c #677450",
"P+	c #77805A",
"Q+	c #4F6442",
"R+	c #5F7153",
"S+	c #7E8479",
"T+	c #4F4F4F",
"U+	c #575757",
"V+	c #505050",
"W+	c #AAAAAA",
"X+	c #4E4E4E",
"Y+	c #383838",
"Z+	c #738C69",
"`+	c #556A4C",
" @	c #646B4D",
".@	c #575F44",
"+@	c #404D36",
"@@	c #606648",
"#@	c #575F43",
"$@	c #3D4832",
"%@	c #5B6044",
"&@	c #545F42",
"*@	c #566645",
"=@	c #707A55",
"-@	c #757E57",
";@	c #646F4C",
">@	c #565F48",
",@	c #171D12",
"'@	c #10150D",
")@	c #7A7C79",
"!@	c #060606",
"~@	c #41503C",
"{@	c #637D58",
"]@	c #808660",
"^@	c #606E4E",
"/@	c #6A7553",
"(@	c #7D835E",
"_@	c #5C6A4A",
":@	c #687351",
"<@	c #7A7F5A",
"[@	c #5B6A49",
"}@	c #6C7752",
"|@	c #7E845D",
"1@	c #5B6C48",
"2@	c #69744F",
"3@	c #293422",
"4@	c #181F14",
"5@	c #14180F",
"6@	c #0F130C",
"7@	c #3A4833",
"8@	c #C8BA89",
"9@	c #8C9068",
"0@	c #8C8F67",
"a@	c #C8B988",
"b@	c #8B8E66",
"c@	c #8A8E65",
"d@	c #C7B888",
"e@	c #8A8C64",
"f@	c #8A8D64",
"g@	c #898B62",
"h@	c #868760",
"i@	c #161C12",
"j@	c #2E3B29",
"k@	c #C6B888",
"l@	c #898B64",
"m@	c #888A63",
"n@	c #C6B887",
"o@	c #888A62",
"p@	c #878A62",
"q@	c #C6B786",
"r@	c #878861",
"s@	c #868860",
"t@	c #83845D",
"u@	c #181E13",
"v@	c #3A3A3A",
"                                                ",
"          . . . . . .                   . .     ",
"        . + @ # $ % & .               * = - ;   ",
"      > , ' ) ! ~ { ] ^ /             ( .       ",
"    . _ : < [ } | 1 2 3 4 .           5 .       ",
"  . 6 7 8 9 0 a b c d e f g .         5 .       ",
"  . h i j k l m n o p q r s .         t .       ",
"  u v w | x y l l z A B C D u E F G H I .       ",
". J K L M N O l l P Q R S T U V W X Y Z .       ",
". `  ...+.@.#.$.$.l %.&.*.=.-.;.>.,.'.).!.      ",
". ~.{.].^./.(._.:.<.[.}.|.1.2.3.4.5.6.7.8.      ",
". 9.J 0.a.b.c.d.e.f.g.h.i.u j.k.l.m.n.7.o.      ",
". p.q.r.s.t.u.S v.w.x.y.z.A.B.C.D.E.F.7.G.      ",
". H.I.J.U K.L.T M.N.O.. P.Q.R.S.T.U.V.W.X.      ",
". Y.Z.`. +.+++@+@+#+$+%+&+*+=+-+;+>+,+'+.       ",
". )+!+~+{+]+^+/+(+_+_+:+<+[+}+|+1+2+3+4+.       ",
". 5+6+7+8+9+0+a+b+c+d+e+f+g+h+i+j+U.U.k+l+( X.  ",
". m+n+o+p+o+q+o+r+o+s+t+u+v+w+x+y+z+z+A+B+C+D+E+",
". F+G+H+I+J+K+J+L+M+N+e+O+P+Q+R+S+T+U+A+V+W+X+Y+",
". Z+`+ @.@+@@@#@$@%@&@*@=@Q+-@;@>@,@'@)@!@.     ",
"  ~@{@]@^@/@(@_@:@<@[@}@|@1@2@3@4@5@6@5 .       ",
"    7@8@9@0@a@b@c@d@e@f@d@g@h@i@      5 .       ",
"    j@k@l@m@n@o@p@q@r@s@q@s@t@u@      5 .       ",
"      . . . . . . . . . . . .         v@        "};
