/* XPM */
const char * capture_details_16_xpm[] = {
"16 16 131 2",
"  	c None",
". 	c #000000",
"+ 	c #AAAAAA",
"@ 	c #8E8E8E",
"# 	c #373737",
"$ 	c #FEFEFE",
"% 	c #F4F4F4",
"& 	c #F8F8F8",
"* 	c #F5F5F5",
"= 	c #FFFFFF",
"- 	c #FBFBFB",
"; 	c #F9F9F9",
"> 	c #C2C2C2",
", 	c #A4A4A4",
"' 	c #121212",
") 	c #FDFDFC",
"! 	c #FBFBFA",
"~ 	c #F8F8F7",
"{ 	c #F6F6F5",
"] 	c #B6B6B6",
"^ 	c #616160",
"/ 	c #181818",
"( 	c #F0F0F0",
"_ 	c #ECECEC",
": 	c #F1F1F1",
"< 	c #E4E4E4",
"[ 	c #DCDCDC",
"} 	c #EEEEED",
"| 	c #E8E8E7",
"1 	c #ECECEB",
"2 	c #6A6A6A",
"3 	c #DEDEDE",
"4 	c #555555",
"5 	c #BFBFBF",
"6 	c #B9B9B8",
"7 	c #535353",
"8 	c #C3C3C2",
"9 	c #E0E0DF",
"0 	c #DEDEDD",
"a 	c #DEDEDC",
"b 	c #D9D9D8",
"c 	c #E4E4E3",
"d 	c #6D6D6D",
"e 	c #545454",
"f 	c #575757",
"g 	c #9F9F9F",
"h 	c #393938",
"i 	c #D0D0CE",
"j 	c #E3E3E2",
"k 	c #DFDFDD",
"l 	c #E2E2E0",
"m 	c #E4E4E2",
"n 	c #6C6C6C",
"o 	c #FDFDFD",
"p 	c #DFDFDF",
"q 	c #C1C1C1",
"r 	c #303030",
"s 	c #C5C5C3",
"t 	c #DFDFDE",
"u 	c #DBDBD9",
"v 	c #E1E1DE",
"w 	c #D3D3D2",
"x 	c #595959",
"y 	c #454545",
"z 	c #8B8B8A",
"A 	c #C8C8C7",
"B 	c #D1D1CF",
"C 	c #D0D0CD",
"D 	c #D6D6D4",
"E 	c #6C6C6B",
"F 	c #FAFAFA",
"G 	c #EBEBEA",
"H 	c #717170",
"I 	c #969696",
"J 	c #4E4E4E",
"K 	c #BABAB8",
"L 	c #DCDCDA",
"M 	c #C9C9C7",
"N 	c #C8C8C6",
"O 	c #CBCBC9",
"P 	c #D6D6D3",
"Q 	c #F9F9F8",
"R 	c #E7E7E5",
"S 	c #8C8C8C",
"T 	c #545453",
"U 	c #C0C0BE",
"V 	c #D1D1CE",
"W 	c #CECECB",
"X 	c #D2D2CE",
"Y 	c #D4D4D0",
"Z 	c #5D5D5D",
"` 	c #B7B7B7",
" .	c #414141",
"..	c #868684",
"+.	c #C4C4C1",
"@.	c #CDCDCA",
"#.	c #CACAC7",
"$.	c #6B6B6A",
"%.	c #4C4C4B",
"&.	c #282827",
"*.	c #9A9A97",
"=.	c #C0C0BD",
"-.	c #CECECA",
";.	c #CCCCC8",
">.	c #F5F5F4",
",.	c #4B4B4A",
"'.	c #2F2F2E",
").	c #333332",
"!.	c #252525",
"~.	c #92928F",
"{.	c #CFCFCB",
"].	c #CDCDC9",
"^.	c #CCCCC7",
"/.	c #B1B1AF",
"(.	c #2E2E2E",
"_.	c #595958",
":.	c #787876",
"<.	c #6B6B69",
"[.	c #9D9D9A",
"}.	c #B6B6B2",
"|.	c #B5B5B1",
"1.	c #B4B4B0",
"2.	c #5C5C5B",
"3.	c #424242",
"4.	c #3C3C3B",
"5.	c #323231",
"6.	c #222221",
"7.	c #2C2C2C",
"8.	c #2D2D2D",
"9.	c #2C2C2B",
"0.	c #1B1B1A",
"                                ",
"  . + + + + + + + + + + @ #     ",
"  . $ % & * = = = $ - ; > , '   ",
"  . $ % & * = = ) ! ~ { ] ^ /   ",
"  . = ( _ _ ( : < [ } | } 1 2   ",
"  . = 3 4 5 6 7 8 9 0 a b c d   ",
"  . $ e + f d g h i j k l m n   ",
"  . o 7 p g g q r s t u a v n   ",
"  . - w x [ q y z A a B C D E   ",
"  . F G H + I J K L M N O P E   ",
"  . Q R S + S T U P V W X Y E   ",
"  . ~ N Z [ `  ...+.@.#.W C $.  ",
"  . { %.p g g q &.*.=.#.-.;.E   ",
"  . >.,.+ '.).g !.~.{.].^.^.$.  ",
"  . c /.(._.:.'.<.[.}.}.|.1.2.  ",
"  . 3.4.(.&.5.'.6.7.(.(.8.9.0.  "};
