/* XPM */
static const char * capture_details_24_xpm[] = {
"24 24 304 2",
"  	c None",
". 	c #A1B0D9",
"+ 	c #A0B0D9",
"@ 	c #9DADD8",
"# 	c #9BABD6",
"$ 	c #000000",
"% 	c #9EAED8",
"& 	c #B3C0E2",
"* 	c #CED6ED",
"= 	c #D9DFF1",
"- 	c #D4DCF0",
"; 	c #C6D1EA",
"> 	c #ABBADF",
", 	c #95A7D3",
"' 	c #7C7C7C",
") 	c #6A6A6A",
"! 	c #606060",
"~ 	c #353535",
"{ 	c #9AAAD6",
"] 	c #B2BFE2",
"^ 	c #CFD8EE",
"/ 	c #FBFCFE",
"( 	c #B8C5E5",
"_ 	c #C2CDE9",
": 	c #92A4D2",
"< 	c #656565",
"[ 	c #99AAD5",
"} 	c #BFCBE7",
"| 	c #C1CCE8",
"1 	c #96A7D4",
"2 	c #AEBCE0",
"3 	c #B7C4E4",
"4 	c #91A3D1",
"5 	c #5D5D5D",
"6 	c #94A6D3",
"7 	c #B6C2E3",
"8 	c #B5C1E3",
"9 	c #A8B7DD",
"0 	c #8A9DCD",
"a 	c #90A2D1",
"b 	c #8EA0CF",
"c 	c #93A5D2",
"d 	c #A9B8DD",
"e 	c #8598CA",
"f 	c #97A8D5",
"g 	c #8FA1D0",
"h 	c #C3C3C3",
"i 	c #8D9FCD",
"j 	c #8295C8",
"k 	c #8C9ECE",
"l 	c #8D9FCF",
"m 	c #8A9CCA",
"n 	c #4C4F3B",
"o 	c #4C503C",
"p 	c #474C38",
"q 	c #4C4F3A",
"r 	c #464B37",
"s 	c #333E2D",
"t 	c #90948E",
"u 	c #8C9FBF",
"v 	c #8296C8",
"w 	c #899CCC",
"x 	c #8B9DCE",
"y 	c #7E91B2",
"z 	c #6C7857",
"A 	c #64745B",
"B 	c #566447",
"C 	c #68795E",
"D 	c #505C41",
"E 	c #4E6043",
"F 	c #91988C",
"G 	c #81959C",
"H 	c #8497C9",
"I 	c #889BCC",
"J 	c #63757F",
"K 	c #636E4E",
"L 	c #757C71",
"M 	c #495742",
"N 	c #6F7C68",
"O 	c #4C5449",
"P 	c #435438",
"Q 	c #8E968A",
"R 	c #313131",
"S 	c #6E7F61",
"T 	c #8A9BC1",
"U 	c #8094C7",
"V 	c #8191B9",
"W 	c #4E5749",
"X 	c #5E684A",
"Y 	c #BBB49C",
"Z 	c #424936",
"` 	c #868E7B",
" .	c #736C54",
"..	c #3C4C32",
"+.	c #8D9488",
"@.	c #5F5F5F",
"#.	c #6E7F60",
"$.	c #949F9C",
"%.	c #8D9DC5",
"&.	c #879ACB",
"*.	c #8093C6",
"=.	c #8397C9",
"-.	c #8090B9",
";.	c #5B6164",
">.	c #444C3F",
",.	c #4E5B3F",
"'.	c #BFB9A2",
").	c #3E4431",
"!.	c #878E7C",
"~.	c #746E56",
"{.	c #303D28",
"].	c #515151",
"^.	c #6B8263",
"/.	c #97A094",
"(.	c #A2A2A2",
"_.	c #8993AD",
":.	c #8A9AC4",
"<.	c #8296C7",
"[.	c #8295C7",
"}.	c #8294BF",
"|.	c #818CA8",
"1.	c #4F524E",
"2.	c #41493C",
"3.	c #3C4C34",
"4.	c #C67461",
"5.	c #3C2B1B",
"6.	c #887E6C",
"7.	c #7A2310",
"8.	c #303C27",
"9.	c #474747",
"0.	c #3D4B37",
"a.	c #727671",
"b.	c #656863",
"c.	c #616460",
"d.	c #5D605C",
"e.	c #5C5F5C",
"f.	c #5A5E5B",
"g.	c #565955",
"h.	c #545653",
"i.	c #242B21",
"j.	c #2A3524",
"k.	c #596245",
"l.	c #9C9C9C",
"m.	c #3B4237",
"n.	c #747C70",
"o.	c #666666",
"p.	c #2E3B26",
"q.	c #8C9387",
"r.	c #373737",
"s.	c #7E9A75",
"t.	c #4B5E44",
"u.	c #3E473B",
"v.	c #363D34",
"w.	c #323830",
"x.	c #2F342D",
"y.	c #2E332D",
"z.	c #2E322C",
"A.	c #2D312B",
"B.	c #151A12",
"C.	c #4C5139",
"D.	c #3D4D34",
"E.	c #394930",
"F.	c #2F3B28",
"G.	c #3E4E34",
"H.	c #252E1E",
"I.	c #303D27",
"J.	c #8B9286",
"K.	c #809B76",
"L.	c #586E51",
"M.	c #616C4D",
"N.	c #545B42",
"O.	c #4F553D",
"P.	c #4C513A",
"Q.	c #494E38",
"R.	c #484D37",
"S.	c #484C36",
"T.	c #2B3624",
"U.	c #565E42",
"V.	c #566244",
"W.	c #506242",
"X.	c #616C4B",
"Y.	c #556142",
"Z.	c #5E6646",
"`.	c #38472D",
" +	c #8B9186",
".+	c #7E9A74",
"++	c #7B8562",
"@+	c #58684A",
"#+	c #43543C",
"$+	c #5B6548",
"%+	c #3C4C35",
"&+	c #5A6346",
"*+	c #686E4E",
"=+	c #5A6446",
"-+	c #5F6A4A",
";+	c #64704E",
">+	c #687451",
",+	c #687551",
"'+	c #6E7C5E",
")+	c #9FA194",
"!+	c #959595",
"~+	c #2D2D2D",
"{+	c #7C9671",
"]+	c #A0A086",
"^+	c #766E52",
"/+	c #888B76",
"(+	c #868874",
"_+	c #858772",
":+	c #545C41",
"<+	c #44563A",
"[+	c #4D6141",
"}+	c #79825A",
"|+	c #506442",
"1+	c #5C6E50",
"2+	c #7F867B",
"3+	c #545454",
"4+	c #909090",
"5+	c #56534E",
"6+	c #B6B6B6",
"7+	c #939393",
"8+	c #878787",
"9+	c #77906D",
"0+	c #80805C",
"a+	c #323124",
"b+	c #5B593E",
"c+	c #343325",
"d+	c #626245",
"e+	c #5A583E",
"f+	c #302E22",
"g+	c #5F6246",
"h+	c #677450",
"i+	c #77805A",
"j+	c #4F6442",
"k+	c #5F7153",
"l+	c #7E8479",
"m+	c #4F4F4F",
"n+	c #575757",
"o+	c #505050",
"p+	c #AAAAAA",
"q+	c #4E4E4E",
"r+	c #383838",
"s+	c #738C69",
"t+	c #556A4C",
"u+	c #646B4D",
"v+	c #575F44",
"w+	c #404D36",
"x+	c #606648",
"y+	c #575F43",
"z+	c #3D4832",
"A+	c #5B6044",
"B+	c #545F42",
"C+	c #566645",
"D+	c #707A55",
"E+	c #757E57",
"F+	c #646F4C",
"G+	c #565F48",
"H+	c #171D12",
"I+	c #10150D",
"J+	c #7A7C79",
"K+	c #060606",
"L+	c #41503C",
"M+	c #637D58",
"N+	c #808660",
"O+	c #606E4E",
"P+	c #6A7553",
"Q+	c #7D835E",
"R+	c #5C6A4A",
"S+	c #687351",
"T+	c #7A7F5A",
"U+	c #5B6A49",
"V+	c #6C7752",
"W+	c #7E845D",
"X+	c #5B6C48",
"Y+	c #69744F",
"Z+	c #293422",
"`+	c #181F14",
" @	c #14180F",
".@	c #0F130C",
"+@	c #3A4833",
"@@	c #C8BA89",
"#@	c #8C9068",
"$@	c #8C8F67",
"%@	c #C8B988",
"&@	c #8B8E66",
"*@	c #8A8E65",
"=@	c #C7B888",
"-@	c #8A8C64",
";@	c #8A8D64",
">@	c #898B62",
",@	c #868760",
"'@	c #161C12",
")@	c #2E3B29",
"!@	c #C6B888",
"~@	c #898B64",
"{@	c #888A63",
"]@	c #C6B887",
"^@	c #888A62",
"/@	c #878A62",
"(@	c #C6B786",
"_@	c #878861",
":@	c #868860",
"<@	c #83845D",
"[@	c #181E13",
"}@	c #3A3A3A",
"                                                ",
"          . + @ #                       $ $     ",
"      % & * = - ; > ,                 ' ) ! ~   ",
"    { ] ^ ^ / / ( _ > :               < $       ",
"    [ } _ | / / 1 2 3 4               5 $       ",
"  6 1 & 7 8 9 1 0 . > a b             5 $       ",
"  : c @ d 9 / / e f f g b             h $       ",
"  i 4 : 1 { / / j k b l m n o p q r s t $       ",
"$ u b b a g / / v w k x y z A B C D E F $       ",
"$ G x k k k / / H I 0 0 J K L M N O P Q R       ",
"$ S T w 0 w / / U e I V W X Y Z `  ...+.@.      ",
"$ #.$.%.&.&.H *.*.=.-.;.>.,.'.).!.~.{.+.].      ",
"$ ^./.(._.:.<.[.}.|.@.1.2.3.4.5.6.7.8.+.9.      ",
"$ S 0.a.b.c.d.e.f.g.h.i.j.k.l.m.n.o.p.q.r.      ",
"$ s.t.u.v.w.w.x.y.z.A.B.C.D.E.F.G.H.I.J.$       ",
"$ K.L.M.N.O.P.Q.R.S.S.T.U.V.W.X.Y.Z.`. +$       ",
"$ .+++@+#+$+%+&+3.*+=+-+;+>+,+'+)+o.o.!+~+< r.  ",
"$ {+]+^+/+^+(+^+_+^+:+<+[+}+|+1+2+3+3+4+5+6+7+8+",
"$ 9+0+a+b+c+d+c+e+f+g+-+h+i+j+k+l+m+n+4+o+p+q+r+",
"$ s+t+u+v+w+x+y+z+A+B+C+D+j+E+F+G+H+I+J+K+$     ",
"  L+M+N+O+P+Q+R+S+T+U+V+W+X+Y+Z+`+ @.@5 $       ",
"    +@@@#@$@%@&@*@=@-@;@=@>@,@'@      5 $       ",
"    )@!@~@{@]@^@/@(@_@:@(@:@<@[@      5 $       ",
"      $ $ $ $ $ $ $ $ $ $ $ $         }@        "};
