/* XPM */
char * capture_prepare_16_xpm[] = {
"16 16 159 2",
"  	c None",
". 	c #808080",
"+ 	c #000000",
"@ 	c #353535",
"# 	c #444444",
"$ 	c #545454",
"% 	c #3D3D3D",
"& 	c #AAAAAA",
"* 	c #505050",
"= 	c #4B4B4B",
"- 	c #212121",
"; 	c #494949",
"> 	c #F6F6F6",
", 	c #EFEFEF",
"' 	c #A1A1A1",
") 	c #272727",
"! 	c #1F1F1F",
"~ 	c #555555",
"{ 	c #E1E1E1",
"] 	c #0F100E",
"^ 	c #7F847C",
"/ 	c #3B3C3B",
"( 	c #343E30",
"_ 	c #697D61",
": 	c #252821",
"< 	c #626F56",
"[ 	c #59674C",
"} 	c #4F5C44",
"| 	c #556147",
"1 	c #5E6950",
"2 	c #566147",
"3 	c #535D44",
"4 	c #5E6B57",
"5 	c #30322F",
"6 	c #292F24",
"7 	c #576750",
"8 	c #8C8C8C",
"9 	c #E9E9E9",
"0 	c #4B4D4B",
"a 	c #828880",
"b 	c #90968E",
"c 	c #5E675B",
"d 	c #7E836E",
"e 	c #57624E",
"f 	c #636958",
"g 	c #5A6852",
"h 	c #5A5D59",
"i 	c #0E100D",
"j 	c #7F817D",
"k 	c #F3F3F3",
"l 	c #E5E5E5",
"m 	c #C1C1C1",
"n 	c #4F4F4F",
"o 	c #9E9E9E",
"p 	c #656764",
"q 	c #4B5542",
"r 	c #9A9A81",
"s 	c #575E4B",
"t 	c #7A7862",
"u 	c #525D4A",
"v 	c #686A66",
"w 	c #010101",
"x 	c #0C0C0C",
"y 	c #242423",
"z 	c #6A6B6A",
"A 	c #494D48",
"B 	c #3D4836",
"C 	c #927261",
"D 	c #534C3D",
"E 	c #785042",
"F 	c #4E5947",
"G 	c #5B5D59",
"H 	c #1D221B",
"I 	c #555A53",
"J 	c #1D1E1C",
"K 	c #4D514A",
"L 	c #1B1B1B",
"M 	c #323331",
"N 	c #3B3E39",
"O 	c #252A22",
"P 	c #434C35",
"Q 	c #535F4B",
"R 	c #424A3C",
"S 	c #3B3D39",
"T 	c #2A3327",
"U 	c #6D8261",
"V 	c #596548",
"W 	c #515A40",
"X 	c #49513A",
"Y 	c #484F38",
"Z 	c #51563D",
"` 	c #424C34",
" .	c #5B6547",
"..	c #596847",
"+.	c #687355",
"@.	c #656B55",
"#.	c #5F6759",
"$.	c #393B38",
"%.	c #2A3226",
"&.	c #8C9777",
"*.	c #6B6D54",
"=.	c #6D6E54",
"-.	c #6A6E57",
";.	c #6C7058",
">.	c #68694C",
",.	c #505D40",
"'.	c #5F6E4B",
").	c #61704C",
"!.	c #6F7C64",
"~.	c #6A6C68",
"{.	c #6C6C6C",
"].	c #615F5D",
"^.	c #8E8E8E",
"/.	c #7F7F7F",
"(.	c #273024",
"_.	c #73805E",
":.	c #4A4C36",
"<.	c #434632",
"[.	c #56583E",
"}.	c #4B4D36",
"|.	c #484A35",
"1.	c #5C6647",
"2.	c #6A7652",
"3.	c #60704C",
"4.	c #667359",
"5.	c #4E514A",
"6.	c #585957",
"7.	c #525352",
"8.	c #686868",
"9.	c #3F3F3F",
"0.	c #313C2D",
"a.	c #5A7051",
"b.	c #6E7655",
"c.	c #5C684A",
"d.	c #6B7352",
"e.	c #5A6547",
"f.	c #68704F",
"g.	c #616E4B",
"h.	c #6E7954",
"i.	c #66734E",
"j.	c #37412C",
"k.	c #1D2317",
"l.	c #2C302A",
"m.	c #364430",
"n.	c #B3AB7D",
"o.	c #8B8E66",
"p.	c #B3AA7C",
"q.	c #898D64",
"r.	c #B2A97B",
"s.	c #898B63",
"t.	c #B2A87B",
"u.	c #868760",
"v.	c #171D12",
"w.	c #3B3829",
"x.	c #2D2E21",
"y.	c #2D2D20",
"z.	c #3B3828",
"A.	c #2C2C1F",
"B.	c #2A2A2A",
"                                ",
"  . +   @ #               $ %   ",
"  & * * . =               -     ",
"  ; > , ' )               !     ",
"    ~ { ]               ^ /     ",
"( _ ~ { : < [ } | 1 2 3 4 5     ",
"6 7 8 9 0 a b c } d e f g h     ",
"i j k l m n o p q r s t u v     ",
"w & x y * * z A B C D E F G     ",
"H I J K L M N O P Q B R F S     ",
"T U V W X Y Z `  ...+.@.#.$.    ",
"%.&.*.=.-.;.>.,.'.).!.~.{.].^./.",
"(._.:.<.[.}.|.1.2.3.4.5.6.7.8.9.",
"0.a.b.c.d.e.f.g.h.i.j.k.l.y     ",
"  m.n.o.p.q.r.s.t.u.v.    !     ",
"    w.x.w.x.w.y.z.A.      B.    "};
