/* XPM */
static const char * capture_options_24_xpm[] = {
"24 24 261 2",
"  	c None",
". 	c #000000",
"+ 	c #FFFFFF",
"@ 	c #EFEFEF",
"# 	c #7C7C7C",
"$ 	c #6A6A6A",
"% 	c #606060",
"& 	c #353535",
"* 	c #656565",
"= 	c #C3C3C3",
"- 	c #5D5D5D",
"; 	c #53654F",
"> 	c #4D5A47",
", 	c #687060",
"' 	c #525D47",
") 	c #57634C",
"! 	c #47523E",
"~ 	c #515540",
"{ 	c #51543F",
"] 	c #4C4F3B",
"^ 	c #4C503C",
"/ 	c #474C38",
"( 	c #4C4F3A",
"_ 	c #464B37",
": 	c #333E2D",
"< 	c #90948E",
"[ 	c #8CA880",
"} 	c #6A8063",
"| 	c #717C66",
"1 	c #627254",
"2 	c #5F6F51",
"3 	c #576449",
"4 	c #4C5E44",
"5 	c #4E6146",
"6 	c #6C7857",
"7 	c #64745B",
"8 	c #566447",
"9 	c #68795E",
"0 	c #505C41",
"a 	c #4E6043",
"b 	c #91988C",
"c 	c #7A8F6C",
"d 	c #697D62",
"e 	c #90968D",
"f 	c #8D968A",
"g 	c #8C9588",
"h 	c #8A9286",
"i 	c #35432F",
"j 	c #42533A",
"k 	c #636E4E",
"l 	c #757C71",
"m 	c #495742",
"n 	c #6F7C68",
"o 	c #4C5449",
"p 	c #435438",
"q 	c #8E968A",
"r 	c #313131",
"s 	c #79896D",
"t 	c #A0A0A1",
"u 	c #9D9D9D",
"v 	c #959595",
"w 	c #6A6C69",
"x 	c #4E5749",
"y 	c #5E684A",
"z 	c #BBB49C",
"A 	c #424936",
"B 	c #868E7B",
"C 	c #736C54",
"D 	c #3C4C32",
"E 	c #8D9488",
"F 	c #5F5F5F",
"G 	c #010101",
"H 	c #BBBBBB",
"I 	c #545752",
"J 	c #444C3F",
"K 	c #4E5B3F",
"L 	c #BFB9A2",
"M 	c #3E4431",
"N 	c #878E7C",
"O 	c #746E56",
"P 	c #303D28",
"Q 	c #515151",
"R 	c #808080",
"S 	c #5E5F5F",
"T 	c #4F524E",
"U 	c #41493C",
"V 	c #3C4C34",
"W 	c #C67461",
"X 	c #3C2B1B",
"Y 	c #887E6C",
"Z 	c #7A2310",
"` 	c #303C27",
" .	c #474747",
"..	c #6F706C",
"+.	c #6A6C68",
"@.	c #565955",
"#.	c #545653",
"$.	c #242B21",
"%.	c #2A3524",
"&.	c #596245",
"*.	c #9C9C9C",
"=.	c #3B4237",
"-.	c #747C70",
";.	c #666666",
">.	c #2E3B26",
",.	c #8C9387",
"'.	c #373737",
").	c #7F9876",
"!.	c #494F47",
"~.	c #373C35",
"{.	c #343833",
"].	c #2E322C",
"^.	c #2D312B",
"/.	c #151A12",
"(.	c #4C5139",
"_.	c #3D4D34",
":.	c #394930",
"<.	c #2F3B28",
"[.	c #3E4E34",
"}.	c #252E1E",
"|.	c #303D27",
"1.	c #8B9286",
"2.	c #809A76",
"3.	c #586E51",
"4.	c #616C4D",
"5.	c #545B42",
"6.	c #4F553D",
"7.	c #4C513A",
"8.	c #494E38",
"9.	c #484D37",
"0.	c #484C36",
"a.	c #2B3624",
"b.	c #565E42",
"c.	c #566244",
"d.	c #506242",
"e.	c #616C4B",
"f.	c #556142",
"g.	c #5E6646",
"h.	c #38472D",
"i.	c #8B9186",
"j.	c #7E9A74",
"k.	c #7B8562",
"l.	c #58684A",
"m.	c #43543C",
"n.	c #5B6548",
"o.	c #3B4B34",
"p.	c #5A6346",
"q.	c #686E4E",
"r.	c #5A6446",
"s.	c #5F6A4A",
"t.	c #64704E",
"u.	c #687451",
"v.	c #687551",
"w.	c #6E7C5E",
"x.	c #9FA194",
"y.	c #2D2D2D",
"z.	c #7C9671",
"A.	c #A0A086",
"B.	c #726A4F",
"C.	c #838672",
"D.	c #766E52",
"E.	c #80826F",
"F.	c #848671",
"G.	c #535B40",
"H.	c #44563A",
"I.	c #4D6141",
"J.	c #79825A",
"K.	c #506442",
"L.	c #5C6E50",
"M.	c #7F867B",
"N.	c #545454",
"O.	c #535353",
"P.	c #8F8F8F",
"Q.	c #56534E",
"R.	c #B6B6B6",
"S.	c #939393",
"T.	c #878787",
"U.	c #77906D",
"V.	c #80805C",
"W.	c #323124",
"X.	c #5B593E",
"Y.	c #343325",
"Z.	c #626245",
"`.	c #5A583E",
" +	c #302E22",
".+	c #5F6246",
"++	c #677450",
"@+	c #77805A",
"#+	c #4F6442",
"$+	c #5F7153",
"%+	c #7E8479",
"&+	c #4F4F4F",
"*+	c #575757",
"=+	c #909090",
"-+	c #505050",
";+	c #AAAAAA",
">+	c #4E4E4E",
",+	c #383838",
"'+	c #738C69",
")+	c #556A4C",
"!+	c #646B4D",
"~+	c #575F44",
"{+	c #404D36",
"]+	c #606648",
"^+	c #575F43",
"/+	c #3D4832",
"(+	c #5B6044",
"_+	c #545F42",
":+	c #566645",
"<+	c #707A55",
"[+	c #757E57",
"}+	c #646F4C",
"|+	c #565F48",
"1+	c #171D12",
"2+	c #10150D",
"3+	c #7A7C79",
"4+	c #060606",
"5+	c #41503C",
"6+	c #637D58",
"7+	c #808660",
"8+	c #606E4E",
"9+	c #6A7553",
"0+	c #7D835E",
"a+	c #5C6A4A",
"b+	c #687351",
"c+	c #7A7F5A",
"d+	c #5B6A49",
"e+	c #6C7752",
"f+	c #7E845D",
"g+	c #5B6C48",
"h+	c #69744F",
"i+	c #293422",
"j+	c #181F14",
"k+	c #14180F",
"l+	c #0F130C",
"m+	c #3A4833",
"n+	c #C8BA89",
"o+	c #8C9068",
"p+	c #8C8F67",
"q+	c #C8B988",
"r+	c #8B8E66",
"s+	c #8A8E65",
"t+	c #C7B888",
"u+	c #8A8C64",
"v+	c #8A8D64",
"w+	c #898B62",
"x+	c #868760",
"y+	c #161C12",
"z+	c #2E3B29",
"A+	c #C6B888",
"B+	c #898B64",
"C+	c #888A63",
"D+	c #C6B887",
"E+	c #888A62",
"F+	c #878A62",
"G+	c #C6B786",
"H+	c #878861",
"I+	c #868860",
"J+	c #83845D",
"K+	c #181E13",
"L+	c #3A3A3A",
"                                                ",
"    . .     . .                         . .     ",
"  . + .     . @ .                     # $ % &   ",
"  . + . . . . @ .                     * .       ",
"  . + @ @ @ @ = .                     - .       ",
"    . + @ @ = .                       - .       ",
"      . + = .                         = .       ",
"  ; > . + @ . , ' ) ! ~ { ] ^ / ( _ : < .       ",
". [ } . + = . | 1 2 3 4 5 6 7 8 9 0 a b .       ",
". c d . + @ . e f g h i j k l m n o p q r       ",
". s . + @ = = . t u v w x y z A B C D E F       ",
"G . + @ @ @ @ = . H $ I J K L M N O P E Q       ",
"G . + . . . . @ . R S T U V W X Y Z ` E  .      ",
"G . + . ..+.. @ . @.#.$.%.&.*.=.-.;.>.,.'.      ",
"G ).. . !.~.. . {.].^./.(._.:.<.[.}.|.1..       ",
". 2.3.4.5.6.7.8.9.0.0.a.b.c.d.e.f.g.h.i..       ",
". j.k.l.m.n.o.p.V q.r.s.t.u.v.w.x.;.;.v y.* '.  ",
". z.A.B.C.D.E.D.F.D.G.H.I.J.K.L.M.N.O.P.Q.R.S.T.",
". U.V.W.X.Y.Z.Y.`. +.+s.++@+#+$+%+&+*+=+-+;+>+,+",
". '+)+!+~+{+]+^+/+(+_+:+<+#+[+}+|+1+2+3+4+.     ",
"  5+6+7+8+9+0+a+b+c+d+e+f+g+h+i+j+k+l+- .       ",
"    m+n+o+p+q+r+s+t+u+v+t+w+x+y+      - .       ",
"    z+A+B+C+D+E+F+G+H+I+G+I+J+K+      - .       ",
"      . . . . . . . . . . . .         L+        "};
