/* XPM */
static const char * capture_interfaces_24_xpm[] = {
"24 24 219 2",
"  	c None",
". 	c #000000",
"+ 	c #202020",
"@ 	c #2A2A2A",
"# 	c #292929",
"$ 	c #282828",
"% 	c #FCFCFC",
"& 	c #FBFBFB",
"* 	c #FAFAFA",
"= 	c #F9F9F9",
"- 	c #F7F7F7",
"; 	c #F6F6F6",
"> 	c #F5F5F5",
", 	c #F4F4F4",
"' 	c #F3F3F3",
") 	c #F1F1F1",
"! 	c #F0F0F0",
"~ 	c #EFEFEF",
"{ 	c #EEEEEE",
"] 	c #7C7C7C",
"^ 	c #6A6A6A",
"/ 	c #606060",
"( 	c #353535",
"_ 	c #EDEDED",
": 	c #656565",
"< 	c #EBEBEB",
"[ 	c #EAEAEA",
"} 	c #F8F8F8",
"| 	c #5D5D5D",
"1 	c #E9E9E9",
"2 	c #E8E8E8",
"3 	c #C3C3C3",
"4 	c #E7E7E7",
"5 	c #4C4F3A",
"6 	c #464B37",
"7 	c #333E2D",
"8 	c #90948E",
"9 	c #4B6983",
"0 	c #68795E",
"a 	c #505C41",
"b 	c #4E6043",
"c 	c #91988C",
"d 	c #E5E5E5",
"e 	c #6F7C68",
"f 	c #4C5449",
"g 	c #435438",
"h 	c #8E968A",
"i 	c #313131",
"j 	c #868E7B",
"k 	c #736C54",
"l 	c #3C4C32",
"m 	c #8D9488",
"n 	c #5F5F5F",
"o 	c #E4E4E4",
"p 	c #E2E2E2",
"q 	c #878E7C",
"r 	c #746E56",
"s 	c #303D28",
"t 	c #515151",
"u 	c #E3E3E3",
"v 	c #E1E1E1",
"w 	c #887E6C",
"x 	c #7A2310",
"y 	c #303C27",
"z 	c #474747",
"A 	c #B9B9B9",
"B 	c #BFBFBF",
"C 	c #222620",
"D 	c #747C70",
"E 	c #666666",
"F 	c #2E3B26",
"G 	c #8C9387",
"H 	c #373737",
"I 	c #4C5D47",
"J 	c #030302",
"K 	c #192015",
"L 	c #273121",
"M 	c #3E4E34",
"N 	c #252E1E",
"O 	c #303D27",
"P 	c #8B9286",
"Q 	c #809B76",
"R 	c #586E51",
"S 	c #616C4D",
"T 	c #545B42",
"U 	c #4F553D",
"V 	c #4C513A",
"W 	c #494E38",
"X 	c #484D37",
"Y 	c #484C36",
"Z 	c #2B3624",
"` 	c #565E42",
" .	c #566244",
"..	c #506242",
"+.	c #616C4B",
"@.	c #556142",
"#.	c #5E6646",
"$.	c #38472D",
"%.	c #8B9186",
"&.	c #7E9A74",
"*.	c #7B8562",
"=.	c #58684A",
"-.	c #43543C",
";.	c #5B6548",
">.	c #3C4C35",
",.	c #5A6346",
"'.	c #3C4C34",
").	c #686E4E",
"!.	c #5A6446",
"~.	c #5F6A4A",
"{.	c #64704E",
"].	c #687451",
"^.	c #687551",
"/.	c #6E7C5E",
"(.	c #9FA194",
"_.	c #959595",
":.	c #2D2D2D",
"<.	c #7C9671",
"[.	c #A0A086",
"}.	c #766E52",
"|.	c #888B76",
"1.	c #868874",
"2.	c #858772",
"3.	c #545C41",
"4.	c #44563A",
"5.	c #4D6141",
"6.	c #79825A",
"7.	c #506442",
"8.	c #5C6E50",
"9.	c #7F867B",
"0.	c #545454",
"a.	c #909090",
"b.	c #56534E",
"c.	c #B6B6B6",
"d.	c #939393",
"e.	c #878787",
"f.	c #77906D",
"g.	c #80805C",
"h.	c #323124",
"i.	c #5B593E",
"j.	c #343325",
"k.	c #626245",
"l.	c #5A583E",
"m.	c #302E22",
"n.	c #5F6246",
"o.	c #677450",
"p.	c #77805A",
"q.	c #4F6442",
"r.	c #5F7153",
"s.	c #7E8479",
"t.	c #4F4F4F",
"u.	c #575757",
"v.	c #505050",
"w.	c #AAAAAA",
"x.	c #4E4E4E",
"y.	c #383838",
"z.	c #738C69",
"A.	c #556A4C",
"B.	c #646B4D",
"C.	c #575F44",
"D.	c #404D36",
"E.	c #606648",
"F.	c #575F43",
"G.	c #3D4832",
"H.	c #5B6044",
"I.	c #545F42",
"J.	c #566645",
"K.	c #707A55",
"L.	c #757E57",
"M.	c #646F4C",
"N.	c #565F48",
"O.	c #171D12",
"P.	c #10150D",
"Q.	c #7A7C79",
"R.	c #060606",
"S.	c #41503C",
"T.	c #637D58",
"U.	c #808660",
"V.	c #606E4E",
"W.	c #6A7553",
"X.	c #7D835E",
"Y.	c #5C6A4A",
"Z.	c #687351",
"`.	c #7A7F5A",
" +	c #5B6A49",
".+	c #6C7752",
"++	c #7E845D",
"@+	c #5B6C48",
"#+	c #69744F",
"$+	c #293422",
"%+	c #181F14",
"&+	c #14180F",
"*+	c #0F130C",
"=+	c #3A4833",
"-+	c #C8BA89",
";+	c #8C9068",
">+	c #8C8F67",
",+	c #C8B988",
"'+	c #8B8E66",
")+	c #8A8E65",
"!+	c #C7B888",
"~+	c #8A8C64",
"{+	c #8A8D64",
"]+	c #898B62",
"^+	c #868760",
"/+	c #161C12",
"(+	c #2E3B29",
"_+	c #C6B888",
":+	c #898B64",
"<+	c #888A63",
"[+	c #C6B887",
"}+	c #888A62",
"|+	c #878A62",
"1+	c #C6B786",
"2+	c #878861",
"3+	c #868860",
"4+	c #83845D",
"5+	c #181E13",
"6+	c #3A3A3A",
"  . . . . . . . . . . . . . .                   ",
". + @ @ @ # # # # # $ $ $ $ + .         . .     ",
". % & * = - ; > , ' ) ! ~ { = .       ] ^ / (   ",
". & * . . . . . . . . ~ . _ = .       : .       ",
". = - ; > , ' ) ! ~ { _ < [ } .       | .       ",
". - ; . . . . . . . . < . 1 - .       | .       ",
". ; > , ' ) ! ~ { _ < [ 1 2 - .       3 .       ",
". > , . . . . . . . . 1 . 4 ; . 5 6 7 8 .       ",
". , 9 9 9 9 9 9 9 9 9 9 9 9 ; . 0 a b c .       ",
". ' 9 ! ~ { _ < [ 1 2 9 d 9 ; . e f g h i       ",
". ) 9 9 9 9 9 9 9 9 9 9 9 9 ; . j k l m n       ",
". ! ~ . . . . . . . . o . p > . q r s m t       ",
". ~ { _ < [ 1 2 4 d o u p v > . w x y m z       ",
". A = = } } - - ; ; ; ; > > B C D E F G H       ",
". I . . . . . . . . . . . J K L M N O P .       ",
". Q R S T U V W X Y Y Z `  ...+.@.#.$.%..       ",
". &.*.=.-.;.>.,.'.).!.~.{.].^./.(.E E _.:.: H   ",
". <.[.}.|.}.1.}.2.}.3.4.5.6.7.8.9.0.0.a.b.c.d.e.",
". f.g.h.i.j.k.j.l.m.n.~.o.p.q.r.s.t.u.a.v.w.x.y.",
". z.A.B.C.D.E.F.G.H.I.J.K.q.L.M.N.O.P.Q.R..     ",
"  S.T.U.V.W.X.Y.Z.`. +.+++@+#+$+%+&+*+| .       ",
"    =+-+;+>+,+'+)+!+~+{+!+]+^+/+      | .       ",
"    (+_+:+<+[+}+|+1+2+3+1+3+4+5+      | .       ",
"      . . . . . . . . . . . .         6+        "};
