/* XPM */
static const char * conversations_16_xpm[] = {
"16 16 51 1",
" 	c None",
".	c #191918",
"+	c #808080",
"@	c #EDEDED",
"#	c #6B6B6A",
"$	c #D8D8D8",
"%	c #484848",
"&	c #A4A4A4",
"*	c #E6E6E6",
"=	c #F3F3F3",
"-	c #F5F5F6",
";	c #AEAEB3",
">	c #79797C",
",	c #F0F0F0",
"'	c #B7B4C3",
")	c #B7B5C4",
"!	c #6B6B6B",
"~	c #EEEEEE",
"{	c #A19EB2",
"]	c #A19DB2",
"^	c #C0C0C5",
"/	c #F3F3F4",
"(	c #D3D3D3",
"_	c #F5F5F5",
":	c #0A0A0A",
"<	c #8B8B8B",
"[	c #EAEAEB",
"}	c #2A2A29",
"|	c #70706F",
"1	c #898988",
"2	c #A8A8A8",
"3	c #0F0F0E",
"4	c #D1D1D1",
"5	c #EBEBEB",
"6	c #C0C0C0",
"7	c #D9D9D9",
"8	c #C1C1C1",
"9	c #B7B7B7",
"0	c #BCBCBC",
"a	c #393939",
"b	c #949494",
"c	c #151514",
"d	c #141413",
"e	c #5D5D5C",
"f	c #282827",
"g	c #C8C8C8",
"h	c #C5C5C5",
"i	c #E8E8E8",
"j	c #B6B6B6",
"k	c #D5D5D5",
"l	c #C4C4C4",
"  ........      ",
".+@@@@@@@#.     ",
".@$%%%%%&*.     ",
".=%--;>........ ",
".,%')!+@@@@@@@#.",
".~%{{.@$%%%%%&*.",
".@%]].=%--^^/%,.",
".=(%%.,%')-_]%,.",
":<@@@.~%{{[[]%~.",
" }|12.@%]]]]]%@.",
"3=,45.=(%%%%%6@.",
"37890a<@@@@@@@b.",
"c....d}|1221|e.f",
"     3=,455ghhi.",
"     378900j4kl.",
"     c......... "};
