/* XPM */
static const char * decode_as_16_xpm[] = {
"16 16 6 1",
" 	c None",
".	c #000000",
"+	c #A3A3A3",
"@	c #D5D5D5",
"#	c #C8C8C8",
"$	c #F6F6F6",
" ..             ",
".+@.        ... ",
".#$......   ++@.",
" ..     .   ##$.",
"         .  ... ",
"         .      ",
"        .   ... ",
"    .....   ++@.",
"   .        ##$.",
"  .         ... ",
"  .    ..       ",
"   .   .... ... ",
"    ........++@.",
"       ...  ##$.",
"       ..   ... ",
"                "};
