/* XPM */
static const char * display_filter_24_xpm[] = {
"24 24 110 2",
"  	c None",
". 	c #000000",
"+ 	c #E2E2E2",
"@ 	c #FFFFFF",
"# 	c #C3D3E4",
"$ 	c #F4F4F4",
"% 	c #DBDBDB",
"& 	c #F0F0F0",
"* 	c #BECFE1",
"= 	c #D8E2ED",
"- 	c #E6ECF3",
"; 	c #F2F5F9",
"> 	c #E2E9F1",
", 	c #CCD9E7",
"' 	c #BACCDF",
") 	c #AFC4DA",
"! 	c #AEC3D9",
"~ 	c #9EB8D3",
"{ 	c #8EACCB",
"] 	c #86A6C7",
"^ 	c #5D88B4",
"/ 	c #EFEFEF",
"( 	c #EDEDED",
"_ 	c #F2F2F2",
": 	c #BBBBBB",
"< 	c #C5D4E4",
"[ 	c #DFE7F0",
"} 	c #EBF0F6",
"| 	c #F8F9FB",
"1 	c #D0DCE9",
"2 	c #B3C7DC",
"3 	c #A4BCD5",
"4 	c #93B0CE",
"5 	c #8AA9C9",
"6 	c #5E89B5",
"7 	c #767676",
"8 	c #F1F1F1",
"9 	c #BCBCBC",
"0 	c #CAD8E7",
"a 	c #FDFDFE",
"b 	c #E9EEF4",
"c 	c #B0C5DB",
"d 	c #9AB5D1",
"e 	c #8BAACA",
"f 	c #C6C6C6",
"g 	c #F3F3F3",
"h 	c #E3E3E3",
"i 	c #878787",
"j 	c #717171",
"k 	c #F4F6F9",
"l 	c #ACC2D9",
"m 	c #95B1CE",
"n 	c #5F8AB6",
"o 	c #8F8F8F",
"p 	c #E4E4E4",
"q 	c #E5E5E5",
"r 	c #E6E6E6",
"s 	c #C0C0C0",
"t 	c #D7E1EC",
"u 	c #EDF1F6",
"v 	c #EAEFF5",
"w 	c #B7CADE",
"x 	c #A5BDD6",
"y 	c #6A92BB",
"z 	c #898989",
"A 	c #8A8A8A",
"B 	c #727272",
"C 	c #D9E3EE",
"D 	c #CEDBE9",
"E 	c #B4C8DD",
"F 	c #789CC1",
"G 	c #909090",
"H 	c #F5F5F5",
"I 	c #E7E7E7",
"J 	c #E8E8E8",
"K 	c #E9E9E9",
"L 	c #EAEAEA",
"M 	c #C2C2C2",
"N 	c #D5E0EC",
"O 	c #C7C7C7",
"P 	c #F6F6F6",
"Q 	c #8B8B8B",
"R 	c #8C8C8C",
"S 	c #747474",
"T 	c #919191",
"U 	c #929292",
"V 	c #F7F7F7",
"W 	c #EBEBEB",
"X 	c #ECECEC",
"Y 	c #EEEEEE",
"Z 	c #F8F8F8",
"` 	c #8D8D8D",
" .	c #8E8E8E",
"..	c #C2D2E3",
"+.	c #939393",
"@.	c #F9F9F9",
"#.	c #C1D1E2",
"$.	c #FAFAFA",
"%.	c #8DABCA",
"&.	c #949494",
"*.	c #959595",
"=.	c #FBFBFB",
"-.	c #FCFCFC",
";.	c #FDFDFD",
">.	c #969696",
",.	c #FEFEFE",
"'.	c #979797",
").	c #989898",
"!.	c #C9C9C9",
"~.	c #BDBDBD",
"  . . . . . . . . . . . . . . . . . . . .       ",
". + . @ @ @ @ @ @ @ @ @ @ @ @ @ @ # . $ % .     ",
". & . * = - ; @ ; > , ' ) ! ~ { ] ^ . / ( .     ",
". _ : . < [ } | | - 1 * 2 3 4 5 6 . 7 & 8 .     ",
". _ + 9 . 0 - ; a b 1 * c d e 6 . f & 8 _ .     ",
". g h i j . 1 } k - 0 * l m n . 7 o o _ g .     ",
". g p q r s . t u v 0 w x y . f & 8 _ g $ .     ",
". g q z z A B . C v D E F . 7 o o G G $ H .     ",
". $ r I J K L M . C N ] . O 8 _ g g $ H P .     ",
". $ I A A Q R R S . 0 . 7 o G G T U U P V .     ",
". H J K L W X ( Y . # . 8 _ g $ H P V V Z .     ",
". H K Q R R ` `  .. ... G G T U U +.+.Z @..     ",
". H L W X ( Y / & . #.. g $ H P V Z @.$.$..     ",
". P W R ` `  .o o . %.. T U U +.+.&.*.=.-..     ",
". V ( ( Y / & 8 _ . . . H P V Z @.$.=.-.;..     ",
". V Y  . .o o G G T U U +.+.+.&.*.*.>.;.,..     ",
". Z & 8 _ _ g $ H P V Z @.$.=.=.-.;.,.@ @ .     ",
". Z 8 G G T T U U +.+.&.*.*.>.>.>.'.).@ @ .     ",
". _ _ g $ H P P V Z @.$.=.-.;.,.@ @ @ @ X .     ",
". !.( Z H P V Z Z @.$.=.-.;.,.@ @ @ @ Y ~..     ",
"  . . . . . . . . . . . . . . . . . . . .       ",
"                                                ",
"                                                ",
"                                                "};
