/* XPM */
static const char * file_set_list_16_xpm[] = {
"16 16 37 1",
" 	c None",
".	c #000000",
"+	c #FEFEFE",
"@	c #FDFDFD",
"#	c #E0E0E0",
"$	c #C1C1C1",
"%	c #F1F1F1",
"&	c #A2A2A2",
"*	c #EFEFEF",
"=	c #E9E9E9",
"-	c #C3C3C3",
";	c #FBFBFB",
">	c #A8A8A8",
",	c #E6E6E6",
"'	c #ADADAD",
")	c #767676",
"!	c #5D5D5D",
"~	c #404040",
"{	c #F0F0F0",
"]	c #E2E2E2",
"^	c #858585",
"/	c #4B4B49",
"(	c #161616",
"_	c #E5E5E5",
":	c #EEEEEE",
"<	c #C5C5C5",
"[	c #C2C2C2",
"}	c #BCBCBC",
"|	c #E8E8E8",
"1	c #E7E7E7",
"2	c #BFBFBF",
"3	c #BEBEBE",
"4	c #E4E4E4",
"5	c #BDBDBD",
"6	c #E3E3E3",
"7	c #BBBBBB",
"8	c #A0A0A0",
" ......         ",
".+++@#$.        ",
".+%&......      ",
".+%.+++@#$.     ",
".+%.+%&......   ",
".+*.+%.+++@#$.  ",
".@=.+%.+%%%-;>. ",
".@,.+*.+%%%')!~.",
".@,.@=.+%%{]^/(.",
".@_.@,.+****::<.",
".[}.@,.@=|||112.",
" ...@_.@,,,,,_3.",
"   .[}.@,,__445.",
"    ...@_446667.",
"      .[}}77778.",
"       ........ "};
