/* XPM */
static const char * file_set_next_16_xpm[] = {
"16 16 42 1",
" 	c None",
".	c #000000",
"+	c #FEFEFE",
"@	c #FDFDFD",
"#	c #E0E0E0",
"$	c #C1C1C1",
"%	c #F1F1F1",
"&	c #C3C3C3",
"*	c #FBFBFB",
"=	c #A8A8A8",
"-	c #ADADAD",
";	c #767676",
">	c #5D5D5D",
",	c #404040",
"'	c #F0F0F0",
")	c #E2E2E2",
"!	c #858585",
"~	c #4B4B49",
"{	c #161616",
"]	c #EFEFEF",
"^	c #EEEEEE",
"/	c #C5C5C5",
"(	c #ECECEC",
"_	c #C4C4C4",
":	c #EBEBEB",
"<	c #EDEDED",
"[	c #EAEAEA",
"}	c #E8E8E8",
"|	c #C0C0C0",
"1	c #E9E9E9",
"2	c #E7E7E7",
"3	c #BFBFBF",
"4	c #E6E6E6",
"5	c #E5E5E5",
"6	c #BEBEBE",
"7	c #E4E4E4",
"8	c #BDBDBD",
"9	c #E3E3E3",
"0	c #BBBBBB",
"a	c #C2C2C2",
"b	c #BCBCBC",
"c	c #A0A0A0",
"  .........     ",
" .++++++@#$.    ",
" .+%%%%%%&*=.   ",
" .+%%%%%%-;>,.  ",
" .+%%%%%')!~{.  ",
" .+%]]]]]]^^/.  ",
" .+]]].^^^^(_.  ",
" .@^^^..^^^:&.  ",
" .@<((...[[[$.  ",
" .@:}}..}}}}|.  ",
" .@[[1.}}}223.  ",
" .@}444444456.  ",
" .@2244455778.  ",
" .@4555779990.  ",
" .a888bb0000c.  ",
"  ...........   "};
