/* XPM */
static const char * icon_color_1_xpm[] = {
"24 24 3 1",
" 	c None",
".	c #000000",
"+	c #FFC0C0",
"                        ",
" +++++++++++++++++++++  ",
" +++++++++++++++++++++  ",
" +++++++++++++++++++++  ",
" +++++++++++++++++++++  ",
" +++++++++++++++++++++  ",
" +++++++++++++++++++++  ",
" +++++++++++++++++++++  ",
" ++++++++++.++++++++++  ",
" +++++++++..++++++++++  ",
" ++++++++.+.++++++++++  ",
" ++++++++++.++++++++++  ",
" ++++++++++.++++++++++  ",
" ++++++++++.++++++++++  ",
" ++++++++.....++++++++  ",
" +++++++++++++++++++++  ",
" +++++++++++++++++++++  ",
" +++++++++++++++++++++  ",
" +++++++++++++++++++++  ",
" +++++++++++++++++++++  ",
" +++++++++++++++++++++  ",
" +++++++++++++++++++++  ",
" +++++++++++++++++++++  ",
"                        "};
