/* XPM */
static const char * icon_color_0_xpm[] = {
"24 24 3 1",
" 	c None",
".	c #000000",
"+	c #E0E0E0",
"                        ",
" +++++++++++++++++++++  ",
" +++++++++++++++++++++  ",
" +++++++++++++++++++++  ",
" +++++++++++++++++++++  ",
" +++++++++++++++++++++  ",
" +++++++++++++++++++++  ",
" +++++++++++++++++++++  ",
" +++++++++....++++++++  ",
" ++++++++.+++..+++++++  ",
" ++++++++.++.+.+++++++  ",
" ++++++++.+.++.+++++++  ",
" ++++++++..+++.+++++++  ",
" ++++++++.++++.+++++++  ",
" +++++++++....++++++++  ",
" +++++++++++++++++++++  ",
" +++++++++++++++++++++  ",
" +++++++++++++++++++++  ",
" +++++++++++++++++++++  ",
" +++++++++++++++++++++  ",
" +++++++++++++++++++++  ",
" +++++++++++++++++++++  ",
" +++++++++++++++++++++  ",
"                        "};
