/* XPM */
static const char * network_bluetooth_16_xpm[] = {
"16 16 135 2",
"  	c None",
". 	c #222427",
"+ 	c #1E2022",
"@ 	c #1D1E1F",
"# 	c #1B1D1F",
"$ 	c #303335",
"% 	c #65686C",
"& 	c #828B93",
"* 	c #747D87",
"= 	c #727C87",
"- 	c #5A636A",
"; 	c #262B2F",
"> 	c #171B1F",
", 	c #434446",
"' 	c #90979E",
") 	c #6A7D91",
"! 	c #798C9F",
"~ 	c #FDFEFE",
"{ 	c #72869A",
"] 	c #425B74",
"^ 	c #485868",
"/ 	c #23272B",
"( 	c #1C1E21",
"_ 	c #8D9196",
": 	c #6D8195",
"< 	c #34506E",
"[ 	c #667C92",
"} 	c #718599",
"| 	c #3E5974",
"1 	c #3B4957",
"2 	c #161A1D",
"3 	c #4B4F51",
"4 	c #97A3AF",
"5 	c #49627D",
"6 	c #405B77",
"7 	c #677D92",
"8 	c #EFF2F4",
"9 	c #6D8397",
"0 	c #3B5269",
"a 	c #1A232D",
"b 	c #202122",
"c 	c #1F2122",
"d 	c #82878B",
"e 	c #5C7289",
"f 	c #C7CFD7",
"g 	c #7C8FA2",
"h 	c #677C92",
"i 	c #E3E8EB",
"j 	c #435E78",
"k 	c #22364C",
"l 	c #1E1F20",
"m 	c #1F2022",
"n 	c #91979A",
"o 	c #47607B",
"p 	c #60768E",
"q 	c #E1E6EA",
"r 	c #8F9EAE",
"s 	c #ACB8C4",
"t 	c #395571",
"u 	c #21354A",
"v 	c #1E1F21",
"w 	c #8A8D91",
"x 	c #35516E",
"y 	c #324F6D",
"z 	c #536B84",
"A 	c #B3BEC9",
"B 	c #33506E",
"C 	c #314E6C",
"D 	c #22364B",
"E 	c #191B1D",
"F 	c #888C8F",
"G 	c #334F6C",
"H 	c #395471",
"I 	c #A9B5C1",
"J 	c #61778D",
"K 	c #23364A",
"L 	c #17181A",
"M 	c #1E2021",
"N 	c #797C81",
"O 	c #34506C",
"P 	c #3D5975",
"Q 	c #8C9CAD",
"R 	c #F8FAFB",
"S 	c #586F87",
"T 	c #25384D",
"U 	c #1C1F20",
"V 	c #82858A",
"W 	c #415B76",
"X 	c #8E9EAE",
"Y 	c #CAD2D9",
"Z 	c #F3F5F7",
"` 	c #405A76",
" .	c #233345",
"..	c #1F2023",
"+.	c #5D6163",
"@.	c #64778B",
"#.	c #98A7B6",
"$.	c #ABB7C3",
"%.	c #71859A",
"&.	c #ACB7C3",
"*.	c #B1BBC6",
"=.	c #344E69",
"-.	c #1D242B",
";.	c #222728",
">.	c #303438",
",.	c #6B757F",
"'.	c #4A637D",
").	c #3B5774",
"!.	c #667C91",
"~.	c #A0AEBC",
"{.	c #36526F",
"].	c #213142",
"^.	c #1D1F28",
"/.	c #3C3D42",
"(.	c #6A7785",
"_.	c #385470",
":.	c #677D93",
"<.	c #9DABB8",
"[.	c #385471",
"}.	c #283E55",
"|.	c #1D252A",
"1.	c #161D24",
"2.	c #3E4247",
"3.	c #59616A",
"4.	c #6E7D8C",
"5.	c #828E9B",
"6.	c #304861",
"7.	c #24303D",
"8.	c #1D272D",
"9.	c #14202D",
"0.	c #1E2026",
"a.	c #1D1F24",
"b.	c #1D1E22",
"c.	c #1E2328",
"d.	c #1A1E23",
"          . + @ @ +             ",
"      # $ % & * = - ; >         ",
"      , ' ) ! ~ { ] ^ /         ",
"    ( _ : < [ ~ ~ } | 1 2       ",
"    3 4 5 6 7 ~ 8 ~ 9 0 a b     ",
"  c d e ~ f g ~ h i ~ j k l     ",
"  m n o p ~ q ~ r ~ s t u @     ",
"  v w x y z ~ ~ ~ A B C D E     ",
"  l F G C H I ~ ~ J C C K L     ",
"  M N O P Q ~ ~ R ~ S y T U     ",
"  c V W X ~ Y ~ h Z ~ `  ...    ",
"    +.@.#.$.%.~ &.~ *.=.-.;.    ",
"    >.,.'.).!.~ ~ ~.{.].^.      ",
"      /.(._.:.~ <.[.}.|.        ",
"      1.2.3.4.5.6.7.8.9.        ",
"          0.a.# b.c.d.          "};
