/* XPM */
static const char * resize_columns_24_xpm[] = {
"24 24 24 1",
" 	c None",
".	c #000000",
"+	c #C5C5C5",
"@	c #D3D3D3",
"#	c #ABABAB",
"$	c #ACACAC",
"%	c #C7C7C7",
"&	c #A2A2A2",
"*	c #C8C8C8",
"=	c #ADADAD",
"-	c #AAAAAA",
";	c #8C8C8C",
">	c #A1A1A1",
",	c #D1D1D1",
"'	c #F1F1F1",
")	c #4B6983",
"!	c #F2F2F2",
"~	c #DBDBDB",
"{	c #CCCCCC",
"]	c #D2D2D2",
"^	c #CECECE",
"/	c #B4B4B4",
"(	c #C9C9C9",
"_	c #A6A6A6",
"                        ",
"  ..................... ",
"  .+@@@#@@@@#@@@@#@@@@. ",
"  .$%%%&****&****&***@. ",
"  .=%%%&****&****&***@. ",
"  .-%%%&****&****&***@. ",
"  .;>>>&&&&&&&&&&&&&&#. ",
"  .,')!!~~~~!!)!!!!!!!. ",
"  .,'))!~~~~!))!!!!!!!. ",
"  .)))))~~~~)))))!!!!!. ",
"  .,'))!~~~~!))!!!!!!!. ",
"  .,')!!~~~~!!)!!!!!!!. ",
"  .{'!!!~~~~!!!!!!!!!!. ",
"  .,'!!!~~~~!!!!!!!!!!. ",
"  .]'!!!~~~~!!!!!!!!!!. ",
"  .^'!!!~~~~!!!!!!!!!!. ",
"  .]'!!!~~~~!!!!!!!!!!. ",
"  .{'''!~~~~!!!!!!!!!!. ",
"  .{'''!~~~~!!!!!!!!!!. ",
"  .{'''!~~~~!!!!!!!!!!. ",
"  ./(%%(~~~~(((((((((_. ",
"  ..................... ",
"                        ",
"                        "};
