/* XPM */
static const char * time_24_xpm[] = {
"24 24 92 2",
"  	c None",
". 	c #000000",
"+ 	c #878787",
"@ 	c #C0C0C0",
"# 	c #D3D3D3",
"$ 	c #D6D6D6",
"% 	c #D5D5D5",
"& 	c #D2D2D2",
"* 	c #BDBDBD",
"= 	c #848484",
"- 	c #939393",
"; 	c #D4D4D4",
"> 	c #E2E2E2",
", 	c #F5F5F5",
"' 	c #FCFCFC",
") 	c #FBFBFB",
"! 	c #F3F3F3",
"~ 	c #ECECEC",
"{ 	c #E1E1E1",
"] 	c #909090",
"^ 	c #BFBFBF",
"/ 	c #DEDEDE",
"( 	c #F0F0F0",
"_ 	c #FDFDFD",
": 	c #CECECE",
"< 	c #C8C8C8",
"[ 	c #F7F7F7",
"} 	c #E8E8E8",
"| 	c #BABABA",
"1 	c #B7B7B7",
"2 	c #B8B8B8",
"3 	c #FAFAFA",
"4 	c #F9F9F9",
"5 	c #F8F8F8",
"6 	c #C1C1C1",
"7 	c #B0B0B0",
"8 	c #A9A9A9",
"9 	c #F6F6F6",
"0 	c #E5E5E5",
"a 	c #8F8F8F",
"b 	c #A1A1A1",
"c 	c #999999",
"d 	c #FEFEFE",
"e 	c #919191",
"f 	c #8A8A8A",
"g 	c #EDEDED",
"h 	c #8E8E8E",
"i 	c #F4F4F4",
"j 	c #FFFFFF",
"k 	c #818181",
"l 	c #7A7A7A",
"m 	c #F2F2F2",
"n 	c #EFEFEF",
"o 	c #727272",
"p 	c #6B6B6B",
"q 	c #EEEEEE",
"r 	c #F1F1F1",
"s 	c #DFDFDF",
"t 	c #636363",
"u 	c #5B5B5B",
"v 	c #CBCBCB",
"w 	c #BBBBBB",
"x 	c #DADADA",
"y 	c #4C4C4C",
"z 	c #454545",
"A 	c #626262",
"B 	c #DDDDDD",
"C 	c #B5B5B5",
"D 	c #EAEAEA",
"E 	c #BEBEBE",
"F 	c #646464",
"G 	c #2E2E2E",
"H 	c #272727",
"I 	c #494949",
"J 	c #575757",
"K 	c #787878",
"L 	c #7F7F7F",
"M 	c #8C8C8C",
"N 	c #D0D0D0",
"O 	c #EBEBEB",
"P 	c #898989",
"Q 	c #989898",
"R 	c #ABABAB",
"S 	c #C4C4C4",
"T 	c #E4E4E4",
"U 	c #AEAEAE",
"V 	c #ADADAD",
"W 	c #C2C2C2",
"X 	c #828282",
"Y 	c #CDCDCD",
"Z 	c #D9D9D9",
"` 	c #888888",
"                  . . . . . .                   ",
"            . . + @ # $ % & * = . .             ",
"          . - ; > , ' ' ' ) ! ~ { ] .           ",
"        . ^ / ( _ _ _ : < ' ) ) [ } | .         ",
"      . 1 > ) _ _ _ _ ^ 2 ) ) 3 4 5 } 6 .       ",
"    . + / ) _ _ _ _ _ 7 8 ) ) 4 4 [ 9 0 a .     ",
"    . ; [ _ _ _ _ _ _ b c ) 3 4 5 [ , ! } .     ",
"    + > ' _ _ _ _ d _ e f ) 3 4 5 9 , ! g h .   ",
"  . @ i ' ' _ _ d j d k l ) 4 5 [ , i m n # .   ",
"  . # 3 ) ' ' _ _ d _ o p q 4 5 9 i ! r n [ .   ",
"  . } 3 s ) ' ' ' ' ' t u v 0 [ , i m w q 5 .   ",
"  . / 4 x 3 ) ) ) ) ) e y z A @ B m r C g 5 .   ",
"  . x 5 4 4 4 4 3 3 3 D E F G H I r n g 4 [ .   ",
"  . * , [ 5 5 5 5 5 5 [ 9 B E J K n q ~ 4 # .   ",
"    L { 9 9 9 9 [ 9 9 , i i m r n q g i 5 M .   ",
"    . N O i i , i i i ! m r ( n q g ~ 5 r .     ",
"    . P ; m m m m m r r ( ( n q g ~ 4 5 Q .     ",
"      . R # ( ( ( ( ( n n q q g ~ 4 5 S .       ",
"        . R & T q q q U V g ~ O 5 5 W .         ",
"          . X Y Z ~ ~ ~ ~ O i 5 [ M .           ",
"            . . ` < B 5 5 [ r @ . .             ",
"                . . . . . . . .                 ",
"                                                ",
"                                                "};
