/* XPM */
static const char * web_support_24_xpm[] = {
"24 24 383 2",
"  	c None",
". 	c #010101",
"+ 	c #000000",
"@ 	c #4F4F4C",
"# 	c #595855",
"$ 	c #454544",
"% 	c #3C3B3A",
"& 	c #504F4F",
"* 	c #3E3D40",
"= 	c #0D0C17",
"- 	c #3A3744",
"; 	c #19181F",
"> 	c #0A0B0A",
", 	c #2E3041",
"' 	c #15191A",
") 	c #4B4E4E",
"! 	c #949290",
"~ 	c #E8E6E2",
"{ 	c #FFFFFD",
"] 	c #FEFEFA",
"^ 	c #F5F3EF",
"/ 	c #AEACA8",
"( 	c #6A6C6B",
"_ 	c #1F2A32",
": 	c #363946",
"< 	c #504F6A",
"[ 	c #080810",
"} 	c #1E1E32",
"| 	c #262847",
"1 	c #5A4540",
"2 	c #953F2A",
"3 	c #E3C8BF",
"4 	c #FFFFFF",
"5 	c #ECEAE6",
"6 	c #E7E5E3",
"7 	c #E9E6E3",
"8 	c #F9FBFA",
"9 	c #FCE6DE",
"0 	c #932004",
"a 	c #492622",
"b 	c #8284AF",
"c 	c #3C3A55",
"d 	c #2D2C50",
"e 	c #3A386D",
"f 	c #2E2F5C",
"g 	c #150B08",
"h 	c #924735",
"i 	c #FFCDBC",
"j 	c #ED8A6C",
"k 	c #D5AFA3",
"l 	c #E3E7E6",
"m 	c #DCD9D5",
"n 	c #EBE9E4",
"o 	c #F8F6F3",
"p 	c #EAF0F0",
"q 	c #E06945",
"r 	c #F23703",
"s 	c #AA2203",
"t 	c #21141B",
"u 	c #2C3140",
"v 	c #514E7F",
"w 	c #8280CB",
"x 	c #5C5988",
"y 	c #1C1A39",
"z 	c #49271E",
"A 	c #E9C9BD",
"B 	c #F3A088",
"C 	c #D5471F",
"D 	c #B94A2F",
"E 	c #585755",
"F 	c #3C3B39",
"G 	c #44403C",
"H 	c #788180",
"I 	c #DB9581",
"J 	c #EC552A",
"K 	c #E04517",
"L 	c #ED3C0B",
"M 	c #610A00",
"N 	c #151728",
"O 	c #8583BA",
"P 	c #8584AC",
"Q 	c #5E5AA5",
"R 	c #353269",
"S 	c #1C1C35",
"T 	c #5F5B59",
"U 	c #9FA19D",
"V 	c #FFC2AC",
"W 	c #D5471E",
"X 	c #B72E0B",
"Y 	c #2A0100",
"Z 	c #0F1315",
"` 	c #7D7C7F",
" .	c #8E8C8F",
"..	c #575F61",
"+.	c #340000",
"@.	c #D45336",
"#.	c #F28867",
"$.	c #E63A09",
"%.	c #C8674C",
"&.	c #14161C",
"*.	c #82819E",
"=.	c #706DA1",
"-.	c #625E9E",
";.	c #59569F",
">.	c #2A2851",
",.	c #646260",
"'.	c #FCFEFE",
").	c #DFD8D3",
"!.	c #CD6041",
"~.	c #521000",
"{.	c #0C1D20",
"].	c #ACABB4",
"^.	c #BEBFD2",
"/.	c #D5D5E5",
"(.	c #ECEAF4",
"_.	c #747E82",
":.	c #6A1A07",
"<.	c #F6967C",
"[.	c #F0C9BC",
"}.	c #D9DDDA",
"|.	c #262522",
"1.	c #676674",
"2.	c #A5A2C6",
"3.	c #8F8ABE",
"4.	c #6460A5",
"5.	c #373567",
"6.	c #1B1A2E",
"7.	c #454443",
"8.	c #FFFFFC",
"9.	c #D7DAD8",
"0.	c #C7C4C2",
"a.	c #3C2D28",
"b.	c #6E707A",
"c.	c #D3D3DD",
"d.	c #D1D2E0",
"e.	c #E0E1EC",
"f.	c #E8E7F0",
"g.	c #E6E9F7",
"h.	c #4D3C3A",
"i.	c #E2CFC8",
"j.	c #F4FAFB",
"k.	c #DDDBD8",
"l.	c #44433D",
"m.	c #444254",
"n.	c #8683AB",
"o.	c #6A678F",
"p.	c #7471A3",
"q.	c #504E7C",
"r.	c #1E1D34",
"s.	c #FFFFFB",
"t.	c #D9D7D5",
"u.	c #D0CDC9",
"v.	c #454641",
"w.	c #615F73",
"x.	c #C7C8DA",
"y.	c #C9CADF",
"z.	c #C0C2DC",
"A.	c #C5C6DC",
"B.	c #D4D4EC",
"C.	c #3D4248",
"D.	c #E4E4E1",
"E.	c #EDEAE7",
"F.	c #CCCBC8",
"G.	c #2E2F27",
"H.	c #2C293F",
"I.	c #615C8C",
"J.	c #535070",
"K.	c #777590",
"L.	c #4E4C74",
"M.	c #2F2E4D",
"N.	c #4C4C4A",
"O.	c #F6F4F0",
"P.	c #DFDCD9",
"Q.	c #DCDCDA",
"R.	c #6D6E6B",
"S.	c #44464F",
"T.	c #B9B8CF",
"U.	c #B6B5CE",
"V.	c #AFB0C9",
"W.	c #E8E6F3",
"X.	c #CED3D8",
"Y.	c #797070",
"Z.	c #F5F5F2",
"`.	c #E4E1DE",
" +	c #BAB8B6",
".+	c #353345",
"++	c #797593",
"@+	c #727089",
"#+	c #7C7A90",
"$+	c #504F72",
"%+	c #302E4C",
"&+	c #09080F",
"*+	c #484745",
"=+	c #AEABA8",
"-+	c #F8FDFC",
";+	c #E3E1DE",
">+	c #D6846D",
",+	c #380802",
"'+	c #4F5967",
")+	c #BEBDD4",
"!+	c #BEBCD5",
"~+	c #B6BBD1",
"{+	c #584946",
"]+	c #C98E7E",
"^+	c #FBE3DA",
"/+	c #D9E1E0",
"(+	c #A2A19D",
"_+	c #060507",
":+	c #575469",
"<+	c #908CA3",
"[+	c #8D89A2",
"}+	c #706D86",
"|+	c #3C3A5F",
"1+	c #2E2C4A",
"2+	c #08070D",
"3+	c #636766",
"4+	c #FBD3C6",
"5+	c #E47453",
"6+	c #F17C5A",
"7+	c #DA755A",
"8+	c #6D2312",
"9+	c #463B3D",
"0+	c #3C3D43",
"a+	c #7D5C59",
"b+	c #D4A395",
"c+	c #FFBDAA",
"d+	c #D9542E",
"e+	c #CE7C64",
"f+	c #373531",
"g+	c #070611",
"h+	c #6B668A",
"i+	c #87839C",
"j+	c #736E8D",
"k+	c #3E3C5C",
"l+	c #302E54",
"m+	c #353354",
"n+	c #0A0911",
"o+	c #0E1719",
"p+	c #9A2203",
"q+	c #F23F0D",
"r+	c #E35E37",
"s+	c #F49579",
"t+	c #F8BBAA",
"u+	c #E2DFDB",
"v+	c #E7E6E2",
"w+	c #F8ECE7",
"x+	c #F8A890",
"y+	c #E05025",
"z+	c #DE3405",
"A+	c #671300",
"B+	c #151220",
"C+	c #4A4371",
"D+	c #463F6C",
"E+	c #38325C",
"F+	c #29274D",
"G+	c #4E4C72",
"H+	c #333147",
"I+	c #111011",
"J+	c #3A130C",
"K+	c #AE2705",
"L+	c #EB3604",
"M+	c #E54314",
"N+	c #EED9D1",
"O+	c #F2F4F2",
"P+	c #F0ECE9",
"Q+	c #EAEEEE",
"R+	c #D97D61",
"S+	c #CF2800",
"T+	c #6B1C08",
"U+	c #070000",
"V+	c #262630",
"W+	c #121019",
"X+	c #4D476E",
"Y+	c #514B74",
"Z+	c #3E3A59",
"`+	c #525070",
" @	c #464565",
".@	c #1A1928",
"+@	c #0F0D0E",
"@@	c #1C1A21",
"#@	c #190E10",
"$@	c #650D00",
"%@	c #C37A65",
"&@	c #D1D7D6",
"*@	c #D3D0CD",
"=@	c #C2C0BD",
"-@	c #B5BAB8",
";@	c #94837B",
">@	c #2F0E05",
",@	c #1F1F32",
"'@	c #3F3B55",
")@	c #1C1B23",
"!@	c #6C6593",
"~@	c #534F73",
"{@	c #4C4963",
"]@	c #666387",
"^@	c #3C395B",
"/@	c #0E0D17",
"(@	c #040203",
"_@	c #141722",
":@	c #1E2029",
"<@	c #0A0C0E",
"[@	c #232220",
"}@	c #2E2E29",
"|@	c #040609",
"1@	c #070D17",
"2@	c #0D0B15",
"3@	c #2F2A4A",
"4@	c #110F1C",
"5@	c #3C395A",
"6@	c #8A86B9",
"7@	c #64608D",
"8@	c #5B568E",
"9@	c #514E7E",
"0@	c #22203B",
"a@	c #07070A",
"b@	c #0D0B12",
"c@	c #3C3A4E",
"d@	c #48465E",
"e@	c #302F3E",
"f@	c #201F2A",
"g@	c #1C1C27",
"h@	c #2F2E39",
"i@	c #38364B",
"j@	c #383356",
"k@	c #161328",
"l@	c #0F0F17",
"m@	c #201E31",
"n@	c #383461",
"o@	c #423F66",
"p@	c #57547E",
"q@	c #484670",
"r@	c #201E3B",
"s@	c #0E0D14",
"t@	c #0C0B14",
"u@	c #413E59",
"v@	c #5B5974",
"w@	c #54526A",
"x@	c #514F6A",
"y@	c #74719B",
"z@	c #7471A6",
"A@	c #4D4A6C",
"B@	c #4C4A6C",
"C@	c #454267",
"D@	c #3E3B59",
"E@	c #23213D",
"F@	c #2A2749",
"G@	c #292847",
"H@	c #211F37",
"I@	c #0C0C15",
"J@	c #090810",
"K@	c #323046",
"L@	c #55527B",
"M@	c #6B67A3",
"N@	c #7D79B5",
"O@	c #7975B2",
"P@	c #53517A",
"Q@	c #4A4960",
"R@	c #3C3A58",
"S@	c #353450",
"T@	c #262442",
"U@	c #22203F",
"V@	c #1C1B34",
"W@	c #0B0B14",
"X@	c #05050B",
"Y@	c #212035",
"Z@	c #393658",
"`@	c #3E3C5B",
" #	c #34324F",
".#	c #292748",
"+#	c #272544",
"@#	c #222039",
"##	c #141425",
"$#	c #0B0A11",
"%#	c #050408",
"&#	c #0D0D16",
"*#	c #131220",
"=#	c #121123",
"-#	c #131123",
";#	c #161425",
">#	c #0F0E1B",
",#	c #060508",
"'#	c #010100",
"  . +     @ # $ % & * = - ; > ,                 ",
". +   ' ) ! ~ { ] ^ / ( _ : < [ } |             ",
"+   1 2 3 4 5 6 6 7 8 9 0 a b c d e f           ",
"  g h i j k l m n o p q r s t u v w x y         ",
"  z A B C D E F G H I J K L M N O P Q R S       ",
"T U V W X Y Z `  ...+.@.#.$.%.&.*.=.-.;.>.      ",
",.'.).!.~.{.].^./.(._.:.<.[.}.|.1.2.3.4.5.6.    ",
"7.8.9.0.a.b.c.d.e.f.g.h.i.j.k.l.m.n.o.p.q.r.    ",
"% s.t.u.v.w.x.y.z.A.B.C.D.E.F.G.H.I.J.K.L.M.    ",
"N.O.P.Q.R.S.T.U.V.W.X.Y.Z.`. ++ .+++@+#+$+%+&+  ",
"*+=+-+;+>+,+'+)+!+~+{+]+^+/+(+_+:+<+[+}+|+1+2+  ",
"  3+4+5+6+7+8+9+0+a+b+c+d+e+f+g+h+i+j+k+l+m+n+  ",
"  o+p+q+r+s+t+u+v+w+x+y+z+A++ B+C+D+E+F+G+H+    ",
"  I+J+K+L+M+N+O+P+Q+R+S+T+U+V+W+X+Y+Z+`+ @.@    ",
"  +@@@#@$@%@&@*@=@-@;@>@+ ,@'@)@!@~@{@]@^@/@    ",
"    (@_@:@<@[@l.}@+ |@1@2@3@4@5@6@7@8@9@0@a@    ",
"      b@c@d@e@f@g@h@i@j@k@l@m@n@o@p@q@r@s@      ",
"        t@u@v@w@x@y@z@A@B@C@D@E@F@G@H@I@        ",
"        + J@K@L@M@N@O@P@Q@R@S@T@U@V@W@.         ",
"          + X@Y@Z@o@q@`@ #.#+#@###$#. +         ",
"            + + %#&#*#=#-#;#>#,#'#+ +           ",
"                  + + + + + + + +               ",
"                                                ",
"                                                "};
