<?xml version="1.0" encoding="UTF-8"?>
<svg id="Layer_1" xmlns="http://www.w3.org/2000/svg" version="1.1" viewBox="0 0 24 24">
  <!-- Generator: Adobe Illustrator 30.8.1, SVG Export Plug-In . SVG Version: 2.1.4 Build 1)  -->
  <path d="M15.58,11.25h-7.16l.89-1c.28-.31.25-.78-.06-1.06-.31-.28-.78-.25-1.06.06l-2,2.25c-.25.28-.25.71,0,1l2,2.25c.28.31.75.34,1.06.06.31-.28.34-.75.06-1.06l-.89-1h7.16l-.89,1c-.28.31-.25.78.06,1.06.31.28.78.25,1.06-.06l2-2.25s0,0,.01-.01c.11-.12.17-.28.18-.45,0-.02,0-.04,0-.06,0-.18-.08-.35-.19-.47l-2-2.25c-.28-.31-.75-.34-1.06-.06-.31.28-.34.75-.06,1.06l.89,1ZM17.75,3c1.79,0,3.25,1.46,3.25,3.25v11.5c0,1.79-1.46,3.25-3.25,3.25H6.25c-1.79,0-3.25-1.46-3.25-3.25V6.25c0-1.79,1.46-3.25,3.25-3.25h11.5ZM19.5,6.25c0-.97-.78-1.75-1.75-1.75h-.25v5.15l-.94-1.06c-.16-.18-.35-.32-.56-.42v-3.67h-8v3.67c-.21.1-.4.24-.56.42l-.94,1.06v-5.15h-.25c-.97,0-1.75.78-1.75,1.75v11.5c0,.97.78,1.75,1.75,1.75h.25v-5.15l.94,1.06c.16.18.35.32.56.42v3.67h8v-3.67c.21-.1.4-.24.56-.42l.94-1.06v5.15h.25c.97,0,1.75-.78,1.75-1.75V6.25Z" fill="#212121"/>
</svg>
