<?xml version="1.0" encoding="UTF-8" standalone="no"?>
<!-- Created with Inkscape (http://www.inkscape.org/) -->

<svg
   xmlns:dc="http://purl.org/dc/elements/1.1/"
   xmlns:cc="http://creativecommons.org/ns#"
   xmlns:rdf="http://www.w3.org/1999/02/22-rdf-syntax-ns#"
   xmlns:svg="http://www.w3.org/2000/svg"
   xmlns="http://www.w3.org/2000/svg"
   xmlns:xlink="http://www.w3.org/1999/xlink"
   xmlns:sodipodi="http://sodipodi.sourceforge.net/DTD/sodipodi-0.dtd"
   xmlns:inkscape="http://www.inkscape.org/namespaces/inkscape"
   width="16"
   height="16"
   id="svg2"
   version="1.1"
   inkscape:version="0.48.2 r9819"
   sodipodi:docname="go-previous.svg"
   inkscape:export-filename="go-previous.png"
   inkscape:export-xdpi="90"
   inkscape:export-ydpi="90">
  <defs
     id="defs4">
    <linearGradient
       id="linearGradient4505">
      <stop
         id="stop4507"
         offset="0"
         style="stop-color:#ffffff;stop-opacity:0.15753424;" />
      <stop
         id="stop4509"
         offset="1"
         style="stop-color:#ffffff;stop-opacity:0;" />
    </linearGradient>
    <linearGradient
       id="linearGradient4404">
      <stop
         style="stop-color:#000000;stop-opacity:0.15753424;"
         offset="0"
         id="stop4406" />
      <stop
         style="stop-color:#000000;stop-opacity:0;"
         offset="1"
         id="stop4408" />
    </linearGradient>
    <linearGradient
       inkscape:collect="always"
       xlink:href="#linearGradient4404"
       id="linearGradient4410"
       x1="6"
       y1="1046.3622"
       x2="6"
       y2="1044.3622"
       gradientUnits="userSpaceOnUse" />
    <linearGradient
       inkscape:collect="always"
       xlink:href="#linearGradient4404"
       id="linearGradient4412"
       gradientUnits="userSpaceOnUse"
       x1="6"
       y1="1046.3622"
       x2="6"
       y2="1044.3622"
       gradientTransform="translate(0,1036.3622)" />
    <linearGradient
       inkscape:collect="always"
       xlink:href="#linearGradient4404"
       id="linearGradient4445"
       x1="6"
       y1="11"
       x2="6"
       y2="8"
       gradientUnits="userSpaceOnUse" />
    <linearGradient
       inkscape:collect="always"
       xlink:href="#linearGradient4404"
       id="linearGradient4487"
       gradientUnits="userSpaceOnUse"
       x1="6"
       y1="11"
       x2="6"
       y2="8" />
    <linearGradient
       inkscape:collect="always"
       xlink:href="#linearGradient4505"
       id="linearGradient4503"
       gradientUnits="userSpaceOnUse"
       x1="6"
       y1="5"
       x2="6"
       y2="8"
       gradientTransform="translate(4,1032.3622)" />
    <linearGradient
       inkscape:collect="always"
       xlink:href="#linearGradient4404"
       id="linearGradient4511"
       gradientUnits="userSpaceOnUse"
       x1="6"
       y1="11"
       x2="6"
       y2="8"
       gradientTransform="translate(4,0)" />
  </defs>
  <sodipodi:namedview
     id="base"
     pagecolor="#ffffff"
     bordercolor="#666666"
     borderopacity="1.0"
     inkscape:pageopacity="0.0"
     inkscape:pageshadow="2"
     inkscape:zoom="34.9375"
     inkscape:cx="7.2417043"
     inkscape:cy="7.9871428"
     inkscape:document-units="px"
     inkscape:current-layer="layer1"
     showgrid="true"
     inkscape:window-width="1268"
     inkscape:window-height="758"
     inkscape:window-x="184"
     inkscape:window-y="289"
     inkscape:window-maximized="0">
    <inkscape:grid
       type="xygrid"
       id="grid2985"
       empspacing="4"
       visible="true"
       enabled="true"
       snapvisiblegridlinesonly="true" />
  </sodipodi:namedview>
  <metadata
     id="metadata7">
    <rdf:RDF>
      <cc:Work
         rdf:about="">
        <dc:format>image/svg+xml</dc:format>
        <dc:type
           rdf:resource="http://purl.org/dc/dcmitype/StillImage" />
        <dc:title />
      </cc:Work>
    </rdf:RDF>
  </metadata>
  <g
     inkscape:label="Layer 1"
     inkscape:groupmode="layer"
     id="layer1"
     transform="translate(0,-1036.3622)">
    <path
       style="fill:#ffffff;stroke:#888a85;stroke-width:1;stroke-linecap:round;stroke-linejoin:round;stroke-miterlimit:4;stroke-opacity:1;stroke-dasharray:none;fill-opacity:1"
       d="m 7.6116279,1039.6189 c 0.4712323,0.074 0.6290623,0.8236 0.677227,2.2678 0.00669,-2e-4 0.012619,0 0.019355,0 l 5.5726111,0 c 0.343025,0 0.619179,0.2022 0.619179,0.4537 l 0,4.082 c 0,0.2513 -0.276154,0.4535 -0.619179,0.4535 l -5.5726111,0 c -0.00669,0 -0.012668,10e-5 -0.019355,0 -0.1032296,3.0955 -0.6777991,2.7404 -3.8698688,0.3829 -3.89198088,-2.8745 -3.89198088,-2.8804 0,-5.7548 1.7027424,-1.2575 2.6538843,-1.9687 3.1926418,-1.8851 z"
       id="path2987"
       inkscape:export-xdpi="90"
       inkscape:export-ydpi="90"
       inkscape:connector-curvature="0" />
    <path
       inkscape:transform-center-y="-0.66016923"
       transform="matrix(0.63884647,0,0,0.35209235,5.1122987,1042.4329)"
       d="M 28,14 C 17.607695,14 17.607695,14 22.803847,5.0000001 28,-4 28,-4 33.196152,4.9999999 38.392305,14 38.392305,14 28,14 z"
       inkscape:randomized="0"
       inkscape:rounded="1"
       inkscape:flatsided="true"
       sodipodi:arg2="2.6179939"
       sodipodi:arg1="1.5707963"
       sodipodi:r2="3"
       sodipodi:r1="6"
       sodipodi:cy="8"
       sodipodi:cx="28"
       sodipodi:sides="3"
       id="path3897"
       style="fill:#4e9a06;fill-opacity:1;stroke:#2a5703;stroke-width:2.10849929;stroke-linecap:round;stroke-linejoin:round;stroke-miterlimit:4;stroke-opacity:1;stroke-dasharray:none"
       sodipodi:type="star" />
    <g
       id="g4385">
      <path
         inkscape:transform-center-y="-5.8852633e-05"
         inkscape:transform-center-x="0.41666431"
         transform="matrix(0,-0.27296167,0.22222222,0,3.8888889,1052.0051)"
         d="M 28,14 C 17.607695,14 17.607695,14 22.803847,5.0000001 28,-4 28,-4 33.196152,4.9999999 38.392305,14 38.392305,14 28,14 z"
         inkscape:randomized="0"
         inkscape:rounded="1"
         inkscape:flatsided="true"
         sodipodi:arg2="2.6179939"
         sodipodi:arg1="1.5707963"
         sodipodi:r2="3"
         sodipodi:r1="6"
         sodipodi:cy="8"
         sodipodi:cx="28"
         sodipodi:sides="3"
         id="path3873"
         style="fill:#60b60e;fill-opacity:1;stroke:none"
         sodipodi:type="star" />
      <rect
         transform="translate(0,1036.3622)"
         y="7"
         x="6"
         height="2"
         width="7"
         id="rect4383"
         style="color:#000000;fill:#60b60e;stroke:none;stroke-width:0.50000000000000000;stroke-linecap:butt;stroke-linejoin:round;stroke-miterlimit:4;stroke-opacity:1;stroke-dasharray:none;stroke-dashoffset:0;marker:none;visibility:visible;display:inline;overflow:visible;enable-background:accumulate;fill-opacity:1" />
    </g>
    <g
       id="g4422">
      <path
         id="rect4426"
         transform="translate(0,1036.3622)"
         style="color:#000000;fill:url(#linearGradient4511);fill-opacity:1;stroke:none;stroke-width:0.5;marker:none;visibility:visible;display:inline;overflow:visible;enable-background:accumulate"
         d="m 6,7 7,0 0,2 -7,0 z M 7,7.9999732 C 7,10.836674 7,10.836674 5,9.4183238 3,7.9999732 3,7.9999732 5,6.5816229 7,5.1632723 7,5.1632723 7,7.9999732 z"
         inkscape:connector-curvature="0" />
    </g>
    <g
       id="g4499"
       transform="translate(0,4)">
      <path
         inkscape:connector-curvature="0"
         d="m 6,1039.3622 7,0 0,2 -7,0 z m 1,1 c 0,2.8367 0,2.8367 -2,1.4183 -2,-1.4183 -2,-1.4183 0,-2.8367 2,-1.4183 2,-1.4183 2,1.4184 z"
         style="color:#000000;fill:url(#linearGradient4503);fill-opacity:1;stroke:none;stroke-width:0.5;marker:none;visibility:visible;display:inline;overflow:visible;enable-background:accumulate"
         id="path4501" />
    </g>
  </g>
</svg>
