<?xml version="1.0" encoding="UTF-8" standalone="no"?>
<!-- Generator: Adobe Illustrator 15.0.2, SVG Export Plug-In . SVG Version: 6.00 Build 0)  -->

<svg
   xmlns:dc="http://purl.org/dc/elements/1.1/"
   xmlns:cc="http://creativecommons.org/ns#"
   xmlns:rdf="http://www.w3.org/1999/02/22-rdf-syntax-ns#"
   xmlns:svg="http://www.w3.org/2000/svg"
   xmlns="http://www.w3.org/2000/svg"
   xmlns:sodipodi="http://sodipodi.sourceforge.net/DTD/sodipodi-0.dtd"
   xmlns:inkscape="http://www.inkscape.org/namespaces/inkscape"
   version="1.1"
   id="svg548"
   sodipodi:version="0.32"
   sodipodi:docname="x-capture-start.on.svg"
   inkscape:version="0.48.2 r9819"
   inkscape:export-filename="x-capture-start.on.png"
   inkscape:export-xdpi="90"
   inkscape:export-ydpi="90"
   x="0px"
   y="0px"
   width="16px"
   height="16px"
   viewBox="0 0 16 16"
   enable-background="new 0 0 16 16"
   xml:space="preserve"><metadata
   id="metadata16"><rdf:RDF><cc:Work
       rdf:about=""><dc:format>image/svg+xml</dc:format><dc:type
         rdf:resource="http://purl.org/dc/dcmitype/StillImage" /><dc:title></dc:title></cc:Work></rdf:RDF></metadata><defs
   id="defs14" /><sodipodi:namedview
   pagecolor="#ffffff"
   bordercolor="#666666"
   borderopacity="1"
   objecttolerance="10"
   gridtolerance="10"
   guidetolerance="10"
   inkscape:pageopacity="0"
   inkscape:pageshadow="2"
   inkscape:window-width="896"
   inkscape:window-height="518"
   id="namedview12"
   showgrid="true"
   inkscape:zoom="19.5"
   inkscape:cx="8"
   inkscape:cy="8"
   inkscape:window-x="284"
   inkscape:window-y="60"
   inkscape:window-maximized="0"
   inkscape:current-layer="svg548"><inkscape:grid
     type="xygrid"
     id="grid3042"
     empspacing="4"
     visible="true"
     enabled="true"
     snapvisiblegridlinesonly="true"
     spacingx="0.5px"
     spacingy="0.5px" /></sodipodi:namedview>
<path
   fill="#FFFFFF"
   d="M1.058,15.339l13.509,0.02c-0.736-1.84-3.162-8.883,0.156-14.697C3.471,1.236,1.353,13.14,1.058,15.339z"
   id="path3" />
<g
   id="g5">
	<g
   id="g7">
		<path
   fill="#999999"
   d="M15.049,16C15.049,16,15.049,16,15.049,16L0.698,15.979c-0.089-0.001-0.175-0.038-0.235-0.104    c-0.061-0.065-0.09-0.154-0.083-0.244C0.392,15.478,1.848,0.214,15.297,0.002c0.11-0.016,0.228,0.061,0.284,0.164    c0.058,0.103,0.055,0.229-0.01,0.328c-3.947,6.179-0.629,14.148-0.264,14.979c0.047,0.056,0.074,0.127,0.074,0.205    c0,0.178-0.144,0.321-0.32,0.321C15.059,16,15.054,16,15.049,16z M1.058,15.339l13.509,0.02c-0.736-1.84-3.162-8.883,0.156-14.697    C3.471,1.236,1.353,13.14,1.058,15.339z"
   id="path9" />
	</g>
	
		<path
   id="path2995_3_"
   inkscape:export-filename="/home/gerald/devel/wsweb/image/wslogo.png"
   inkscape:export-xdpi="90.000000"
   inkscape:export-ydpi="90.000000"
   inkscape:connector-curvature="0"
   sodipodi:nodetypes="cccc"
   fill="#21DE08"
   d="   M2.251,14.441c0,0,1.543-11.499,11.188-12.837c-2.991,6.231-0.145,12.852-0.145,12.852L2.251,14.441z" />
</g>
</svg>