<?xml version="1.0" encoding="UTF-8" standalone="no"?>
<!-- Generator: Adobe Illustrator 15.0.2, SVG Export Plug-In . SVG Version: 6.00 Build 0)  -->

<svg
   version="1.1"
   id="Layer_1"
   x="0px"
   y="0px"
   width="16px"
   height="16px"
   viewBox="0 0 16 16"
   enable-background="new 0 0 16 16"
   xml:space="preserve"
   sodipodi:docname="x-capture-restart-circle.svg"
   inkscape:version="1.2 (dc2aeda, 2022-05-15)"
   inkscape:export-filename="x-capture-restart-circle@2x.png"
   inkscape:export-xdpi="192"
   inkscape:export-ydpi="192"
   xmlns:inkscape="http://www.inkscape.org/namespaces/inkscape"
   xmlns:sodipodi="http://sodipodi.sourceforge.net/DTD/sodipodi-0.dtd"
   xmlns:xlink="http://www.w3.org/1999/xlink"
   xmlns="http://www.w3.org/2000/svg"
   xmlns:svg="http://www.w3.org/2000/svg"><defs
   id="defs5318"><linearGradient
     inkscape:collect="always"
     xlink:href="#linearGradient4506"
     id="linearGradient3009"
     x1="12"
     y1="13"
     x2="10"
     y2="8"
     gradientUnits="userSpaceOnUse" /><linearGradient
     id="linearGradient4506"><stop
       style="stop-color:#000000;stop-opacity:0.15753424;"
       offset="0"
       id="stop4508" /><stop
       style="stop-color:#000000;stop-opacity:0;"
       offset="1"
       id="stop4510" /></linearGradient><linearGradient
     inkscape:collect="always"
     xlink:href="#linearGradient4514"
     id="linearGradient2946"
     x1="11"
     y1="3"
     x2="13"
     y2="8"
     gradientUnits="userSpaceOnUse" /><linearGradient
     id="linearGradient4514"><stop
       style="stop-color:#ffffff;stop-opacity:0.15753424;"
       offset="0"
       id="stop4516" /><stop
       style="stop-color:#ffffff;stop-opacity:0;"
       offset="1"
       id="stop4518" /></linearGradient><linearGradient
     inkscape:collect="always"
     xlink:href="#linearGradient4514"
     id="linearGradient8491"
     x1="6"
     y1="3"
     x2="8"
     y2="8"
     gradientUnits="userSpaceOnUse" /><linearGradient
     inkscape:collect="always"
     xlink:href="#linearGradient4506"
     id="linearGradient10028"
     x1="11"
     y1="14"
     x2="9"
     y2="8.4816055"
     gradientUnits="userSpaceOnUse" /></defs><sodipodi:namedview
   id="namedview5316"
   pagecolor="#ffffff"
   bordercolor="#666666"
   borderopacity="1.0"
   inkscape:showpageshadow="2"
   inkscape:pageopacity="0.0"
   inkscape:pagecheckerboard="0"
   inkscape:deskcolor="#d1d1d1"
   showgrid="true"
   inkscape:zoom="36.1875"
   inkscape:cx="7.9861831"
   inkscape:cy="8"
   inkscape:window-width="1234"
   inkscape:window-height="757"
   inkscape:window-x="788"
   inkscape:window-y="175"
   inkscape:window-maximized="0"
   inkscape:current-layer="g5313"><inkscape:grid
     type="xygrid"
     id="grid10020" /></sodipodi:namedview>
<g
   id="g5313">
	<path
   fill="#999999"
   d="M8,16c-4.418,0-8-3.579-8-7.996C0,3.581,3.582,0,8,0s8,3.581,8,8.004C16,12.421,12.418,16,8,16z"
   id="path5305" /><circle
   fill="#dc0000"
   cx="7.9970002"
   cy="8.1499996"
   r="6.9829998"
   id="circle6661"
   style="display:inline;fill:#21de08;fill-opacity:1"
   inkscape:label="main green" />
	<circle
   fill="#dc0000"
   cx="7.9970002"
   cy="8.1499996"
   r="6.9829998"
   id="circle5307"
   style="display:none"
   inkscape:label="main red" />
	<circle
   fill="#dc0000"
   cx="7.9970002"
   cy="8.1499996"
   r="6.9829998"
   id="circle8479"
   style="display:inline;fill-opacity:1;fill:url(#linearGradient10028)"
   inkscape:label="shade" /><circle
   fill="#dc0000"
   cx="7.9970002"
   cy="8.1499996"
   r="6.9829998"
   id="circle8481"
   style="display:inline;fill-opacity:1;fill:url(#linearGradient8491)"
   inkscape:label="highlight" /><path
   fill="#FFFFFF"
   d="M8,0.759c-3.992,0-7.238,3.252-7.238,7.245c0,3.986,3.247,7.238,7.238,7.238   c3.992,0,7.238-3.252,7.238-7.238C15.238,4.011,11.992,0.759,8,0.759z M8,13.961c-3.285,0-5.957-2.674-5.957-5.957   c0-3.291,2.672-5.963,5.957-5.963s5.957,2.672,5.957,5.963C13.957,11.287,11.285,13.961,8,13.961z"
   id="path5309" />
	
<g
   id="g3776"
   transform="translate(-0.40556252,-1.844)">
			<path
   fill="#ffffff"
   d="M 11.021,8.319 10.836,8.134 9.734,9.236 9.92,9.42 c 0.318,0.32 0.496,0.747 0.496,1.2 0,0.453 -0.178,0.88 -0.496,1.198 -0.641,0.642 -1.76,0.641 -2.399,0 C 6.866,11.164 6.863,10.103 7.503,9.441 L 9.081,10.964 9.744,6.174 4.839,6.763 6.252,8.19 6.401,8.339 c -1.249,1.271 -1.244,3.32 0.019,4.582 0.613,0.614 1.431,0.951 2.301,0.951 0.87,0 1.688,-0.337 2.301,-0.951 1.267,-1.271 1.267,-3.333 -10e-4,-4.602 z"
   id="path3774" />
		</g></g>
<rect
   x="-19.757772"
   y="1.2715889"
   fill="#dc0000"
   width="10.5"
   height="10.5"
   id="rect2151"
   style="display:inline;fill:url(#linearGradient3009);fill-opacity:1"
   inkscape:label="shade" /><rect
   x="-19.757772"
   y="1.2715889"
   fill="#dc0000"
   width="10.5"
   height="10.5"
   id="rect2153"
   style="display:inline;fill:url(#linearGradient2946);fill-opacity:1"
   inkscape:label="highlight" /></svg>
