<?xml version="1.0" encoding="UTF-8" standalone="no"?>
<!-- Generator: Adobe Illustrator 15.0.2, SVG Export Plug-In . SVG Version: 6.00 Build 0)  -->

<svg
   version="1.1"
   id="svg548"
   sodipodi:version="0.32"
   sodipodi:docname="x-capture-start.svg"
   inkscape:version="1.2 (dc2aeda, 2022-05-15)"
   inkscape:export-filename="x-capture-start.png"
   inkscape:export-xdpi="90"
   inkscape:export-ydpi="90"
   x="0px"
   y="0px"
   width="16px"
   height="16px"
   viewBox="0 0 16 16"
   enable-background="new 0 0 16 16"
   xml:space="preserve"
   xmlns:inkscape="http://www.inkscape.org/namespaces/inkscape"
   xmlns:sodipodi="http://sodipodi.sourceforge.net/DTD/sodipodi-0.dtd"
   xmlns:xlink="http://www.w3.org/1999/xlink"
   xmlns="http://www.w3.org/2000/svg"
   xmlns:svg="http://www.w3.org/2000/svg"
   xmlns:rdf="http://www.w3.org/1999/02/22-rdf-syntax-ns#"
   xmlns:cc="http://creativecommons.org/ns#"
   xmlns:dc="http://purl.org/dc/elements/1.1/"><metadata
   id="metadata16"><rdf:RDF><cc:Work
       rdf:about=""><dc:format>image/svg+xml</dc:format><dc:type
         rdf:resource="http://purl.org/dc/dcmitype/StillImage" /><dc:title /></cc:Work></rdf:RDF></metadata><defs
   id="defs14"><linearGradient
     id="linearGradient4514"><stop
       style="stop-color:#ffffff;stop-opacity:0.15753424;"
       offset="0"
       id="stop4516" /><stop
       style="stop-color:#ffffff;stop-opacity:0;"
       offset="1"
       id="stop4518" /></linearGradient><linearGradient
     id="linearGradient4506"><stop
       style="stop-color:#000000;stop-opacity:0.15753424;"
       offset="0"
       id="stop4508" /><stop
       style="stop-color:#000000;stop-opacity:0;"
       offset="1"
       id="stop4510" /></linearGradient><linearGradient
     inkscape:collect="always"
     xlink:href="#linearGradient4506"
     id="linearGradient4512"
     x1="11.5"
     y1="14"
     x2="9"
     y2="8"
     gradientUnits="userSpaceOnUse" /><linearGradient
     inkscape:collect="always"
     xlink:href="#linearGradient4514"
     id="linearGradient4520"
     x1="10"
     y1="1.5"
     x2="12"
     y2="8"
     gradientUnits="userSpaceOnUse" /></defs><sodipodi:namedview
   pagecolor="#ffffff"
   bordercolor="#666666"
   borderopacity="1"
   objecttolerance="10"
   gridtolerance="10"
   guidetolerance="10"
   inkscape:pageopacity="0"
   inkscape:pageshadow="2"
   inkscape:window-width="1135"
   inkscape:window-height="649"
   id="namedview12"
   showgrid="true"
   inkscape:zoom="30.0625"
   inkscape:cx="6.5363825"
   inkscape:cy="8"
   inkscape:window-x="275"
   inkscape:window-y="155"
   inkscape:window-maximized="0"
   inkscape:current-layer="svg548"
   inkscape:showpageshadow="2"
   inkscape:pagecheckerboard="0"
   inkscape:deskcolor="#d1d1d1"><inkscape:grid
     type="xygrid"
     id="grid3989"
     empspacing="4"
     visible="true"
     enabled="true"
     snapvisiblegridlinesonly="true"
     spacingx="0.5"
     spacingy="0.5"
     originx="0"
     originy="0" /></sodipodi:namedview>
<path
   fill="#FFFFFF"
   d="M1.058,15.339l13.509,0.02c-0.736-1.84-3.162-8.883,0.156-14.697C3.471,1.236,1.353,13.14,1.058,15.339z"
   id="path3" />
<g
   id="g7">
		<path
   style="fill:#999999"
   inkscape:connector-curvature="0"
   id="path9"
   d="m 15.049,16 c 0,0 0,0 0,0 L 0.698,15.979 C 0.609,15.978 0.523,15.941 0.463,15.875 0.402,15.81 0.373,15.721 0.38,15.631 0.392,15.478 1.848,0.214 15.297,0.002 c 0.11,-0.016 0.228,0.061 0.284,0.164 0.058,0.103 0.055,0.229 -0.01,0.328 -3.947,6.179 -0.629,14.148 -0.264,14.979 0.047,0.056 0.074,0.127 0.074,0.205 0,0.178 -0.144,0.321 -0.32,0.321 C 15.059,16 15.054,16 15.049,16 z M 1.058,15.339 14.567,15.359 C 13.831,13.519 11.405,6.476 14.723,0.662 3.471,1.236 1.353,13.14 1.058,15.339 z" />
	</g><path
   style="display:inline;fill:#2c4bc4;fill-opacity:1"
   d="m 2.251,14.441 c 0,0 1.543,-11.499 11.188,-12.837 -2.991,6.231 -0.145,12.852 -0.145,12.852 z"
   sodipodi:nodetypes="cccc"
   inkscape:connector-curvature="0"
   inkscape:export-ydpi="90.000000"
   inkscape:export-xdpi="90.000000"
   inkscape:export-filename="x-capture-start.png"
   id="path2995_3_"
   inkscape:label="fin" />
<path
   id="path4502"
   inkscape:export-filename="x-capture-start.png"
   inkscape:export-xdpi="90.000000"
   inkscape:export-ydpi="90.000000"
   inkscape:connector-curvature="0"
   sodipodi:nodetypes="cccc"
   d="m 2.251,14.441 c 0,0 1.543,-11.499 11.188,-12.837 -2.991,6.231 -0.145,12.852 -0.145,12.852 z"
   style="display:inline;fill:url(#linearGradient4512);fill-opacity:1"
   inkscape:label="shade" /><path
   style="display:inline;fill:url(#linearGradient4520);fill-opacity:1"
   d="m 2.251,14.441 c 0,0 1.543,-11.499 11.188,-12.837 -2.991,6.231 -0.145,12.852 -0.145,12.852 z"
   sodipodi:nodetypes="cccc"
   inkscape:connector-curvature="0"
   inkscape:export-ydpi="90.000000"
   inkscape:export-xdpi="90.000000"
   inkscape:export-filename="x-capture-start.png"
   id="path4504"
   inkscape:label="highlight" /></svg>
