<?xml version="1.0" encoding="UTF-8" standalone="no"?>
<!-- Generator: Adobe Illustrator 15.0.2, SVG Export Plug-In . SVG Version: 6.00 Build 0)  -->

<svg
   version="1.1"
   id="svg548"
   sodipodi:version="0.32"
   sodipodi:docname="x-capture-restart-fin.svg"
   inkscape:version="1.2 (dc2aeda, 2022-05-15)"
   inkscape:export-filename="x-capture-restart@2x.png"
   inkscape:export-xdpi="192"
   inkscape:export-ydpi="192"
   x="0px"
   y="0px"
   width="16px"
   height="16px"
   viewBox="0 0 16 16"
   enable-background="new 0 0 16 16"
   xml:space="preserve"
   xmlns:inkscape="http://www.inkscape.org/namespaces/inkscape"
   xmlns:sodipodi="http://sodipodi.sourceforge.net/DTD/sodipodi-0.dtd"
   xmlns:xlink="http://www.w3.org/1999/xlink"
   xmlns="http://www.w3.org/2000/svg"
   xmlns:svg="http://www.w3.org/2000/svg"><defs
   id="defs3783"><linearGradient
     inkscape:collect="always"
     xlink:href="#linearGradient4506"
     id="linearGradient4512"
     x1="11.5"
     y1="14"
     x2="9"
     y2="8"
     gradientUnits="userSpaceOnUse" /><linearGradient
     id="linearGradient4506"><stop
       style="stop-color:#000000;stop-opacity:0.15753424;"
       offset="0"
       id="stop4508" /><stop
       style="stop-color:#000000;stop-opacity:0;"
       offset="1"
       id="stop4510" /></linearGradient><linearGradient
     inkscape:collect="always"
     xlink:href="#linearGradient4514"
     id="linearGradient4520"
     x1="10"
     y1="1.5"
     x2="12"
     y2="8"
     gradientUnits="userSpaceOnUse" /><linearGradient
     id="linearGradient4514"><stop
       style="stop-color:#ffffff;stop-opacity:0.15753424;"
       offset="0"
       id="stop4516" /><stop
       style="stop-color:#ffffff;stop-opacity:0;"
       offset="1"
       id="stop4518" /></linearGradient></defs>
<sodipodi:namedview
   inkscape:current-layer="svg548"
   inkscape:window-width="1139"
   showguides="true"
   inkscape:guide-bbox="true"
   inkscape:window-maximized="0"
   inkscape:window-height="719"
   inkscape:cy="8"
   inkscape:cx="7.3789279"
   inkscape:window-x="922"
   id="base"
   inkscape:window-y="215"
   showgrid="true"
   inkscape:zoom="33.8125"
   pagecolor="#ffffff"
   bordercolor="#666666"
   borderopacity="1.0"
   inkscape:showpageshadow="2"
   inkscape:pageopacity="0.0"
   inkscape:pagecheckerboard="0"
   inkscape:deskcolor="#d1d1d1">

		<inkscape:grid
   type="xygrid"
   enabled="true"
   visible="true"
   spacingx="0.5"
   spacingy="0.5"
   empspacing="5"
   snapvisiblegridlinesonly="true"
   id="grid3142"
   originx="0"
   originy="0">
		</inkscape:grid>
</sodipodi:namedview>
<path
   fill="none"
   enable-background="new    "
   d="M0,0"
   id="path3763" />
<g
   id="g3780">
	<path
   fill="#FFFFFF"
   d="M1.058,15.338l13.508,0.021c-0.736-1.84-3.164-8.883,0.156-14.697C3.471,1.236,1.353,13.141,1.058,15.338z"
   id="path3765" />
	<g
   id="g3772">
		<g
   id="g3769">
			<path
   fill="#999999"
   d="M15.049,16L15.049,16L0.698,15.979c-0.09,0-0.175-0.037-0.236-0.104c-0.06-0.066-0.09-0.154-0.083-0.243     c0.013-0.155,1.469-15.418,14.918-15.63c0.11-0.016,0.227,0.06,0.284,0.164c0.058,0.103,0.054,0.229-0.011,0.328     c-3.946,6.179-0.629,14.148-0.264,14.979c0.047,0.057,0.074,0.129,0.074,0.207c0,0.176-0.145,0.319-0.32,0.319     C15.059,16,15.055,16,15.049,16z M1.058,15.338l13.508,0.021c-0.736-1.84-3.164-8.883,0.156-14.697     C3.471,1.236,1.353,13.141,1.058,15.338z"
   id="path3767" />
		</g>

			<path
   id="path2995_5_"
   inkscape:export-filename="x-capture-restart-fin.png"
   inkscape:export-xdpi="90.000000"
   inkscape:export-ydpi="90.000000"
   inkscape:connector-curvature="0"
   sodipodi:nodetypes="cccc"
   fill="#21de08"
   d="m 2.251,14.441 c 0,0 1.542,-11.5 11.187,-12.836 -2.992,6.23 -0.145,12.851 -0.145,12.851 z"
   style="display:inline"
   inkscape:label="fin" /><path
   id="path4502"
   inkscape:export-filename="x-capture-start.png"
   inkscape:export-xdpi="90.000000"
   inkscape:export-ydpi="90.000000"
   inkscape:connector-curvature="0"
   sodipodi:nodetypes="cccc"
   d="m 2.251,14.441 c 0,0 1.543,-11.499 11.188,-12.837 -2.991,6.231 -0.145,12.852 -0.145,12.852 z"
   style="display:inline;fill:url(#linearGradient4512);fill-opacity:1"
   inkscape:label="shade" /><path
   style="display:inline;fill:url(#linearGradient4520);fill-opacity:1"
   d="m 2.251,14.441 c 0,0 1.543,-11.499 11.188,-12.837 -2.991,6.231 -0.145,12.852 -0.145,12.852 z"
   sodipodi:nodetypes="cccc"
   inkscape:connector-curvature="0"
   inkscape:export-ydpi="90.000000"
   inkscape:export-xdpi="90.000000"
   inkscape:export-filename="x-capture-start.png"
   id="path4504"
   inkscape:label="highlight" />
	</g>
	<g
   id="g3778">
		<g
   id="g3776">
			<path
   fill="#FFFFFF"
   d="M11.021,8.319l-0.185-0.185L9.734,9.236L9.92,9.42c0.318,0.32,0.496,0.747,0.496,1.2     s-0.178,0.88-0.496,1.198c-0.641,0.642-1.76,0.641-2.399,0c-0.655-0.654-0.658-1.715-0.018-2.377l1.578,1.523l0.663-4.79     L4.839,6.763L6.252,8.19l0.149,0.149c-1.249,1.271-1.244,3.32,0.019,4.582c0.613,0.614,1.431,0.951,2.301,0.951     c0.87,0,1.688-0.337,2.301-0.951C12.289,11.65,12.289,9.588,11.021,8.319z"
   id="path3774" />
		</g>
	</g>
</g>
</svg>
