<?xml version="1.0" encoding="UTF-8" standalone="no"?>
<!-- Generator: Adobe Illustrator 15.0.2, SVG Export Plug-In . SVG Version: 6.00 Build 0)  -->

<svg
   xmlns:dc="http://purl.org/dc/elements/1.1/"
   xmlns:cc="http://creativecommons.org/ns#"
   xmlns:rdf="http://www.w3.org/1999/02/22-rdf-syntax-ns#"
   xmlns:svg="http://www.w3.org/2000/svg"
   xmlns="http://www.w3.org/2000/svg"
   xmlns:sodipodi="http://sodipodi.sourceforge.net/DTD/sodipodi-0.dtd"
   xmlns:inkscape="http://www.inkscape.org/namespaces/inkscape"
   version="1.1"
   id="svg548"
   sodipodi:version="0.32"
   sodipodi:docname="capture_start_24.svg"
   inkscape:version="0.48.2 r9819"
   inkscape:export-filename="/tmp/capture_start_24.png"
   inkscape:export-xdpi="90"
   inkscape:export-ydpi="90"
   x="0px"
   y="0px"
   width="24px"
   height="24px"
   viewBox="0 0 24 24"
   enable-background="new 0 0 24 24"
   xml:space="preserve"><metadata
   id="metadata3007"><rdf:RDF><cc:Work
       rdf:about=""><dc:format>image/svg+xml</dc:format><dc:type
         rdf:resource="http://purl.org/dc/dcmitype/StillImage" /><dc:title></dc:title></cc:Work></rdf:RDF></metadata><defs
   id="defs3005" />
<path
   fill="#FFFFFF"
   d="M1.604,22.989l20.23,0.03c-1.103-2.755-4.736-13.304,0.234-22.011C5.218,1.869,2.045,19.696,1.604,22.989z"
   id="path2994" />
<sodipodi:namedview
   inkscape:current-layer="svg548"
   inkscape:window-width="1443"
   showguides="true"
   inkscape:guide-bbox="true"
   inkscape:window-maximized="0"
   inkscape:window-height="837"
   inkscape:cy="11.54297"
   inkscape:cx="16.300419"
   inkscape:window-x="0"
   id="base"
   inkscape:window-y="865"
   showgrid="true"
   inkscape:zoom="24.101265">
	
		<inkscape:grid
   type="xygrid"
   enabled="true"
   visible="true"
   spacingx="0.5px"
   spacingy="0.5px"
   empspacing="5"
   snapvisiblegridlinesonly="true"
   id="grid3142">
		</inkscape:grid>
</sodipodi:namedview>
<g
   id="g2998">
	<g
   id="g3000">
		<path
   fill="#999999"
   d="M22.557,23.979C22.557,23.979,22.557,23.979,22.557,23.979L1.064,23.947    c-0.134-0.001-0.262-0.057-0.353-0.155c-0.091-0.1-0.136-0.231-0.125-0.365c0.02-0.23,2.2-23.088,22.341-23.406    c0.166-0.024,0.34,0.091,0.426,0.246c0.086,0.154,0.081,0.343-0.015,0.491c-5.911,9.253-0.941,21.189-0.396,22.435    c0.07,0.083,0.112,0.19,0.112,0.308c0,0.265-0.215,0.479-0.479,0.479C22.571,23.98,22.564,23.98,22.557,23.979z M1.604,22.989    l20.23,0.03c-1.103-2.755-4.736-13.304,0.234-22.011C5.218,1.869,2.045,19.696,1.604,22.989z"
   id="path3002" />
	</g>
	
		<path
   id="path2995_3_"
   inkscape:export-filename="/home/gerald/devel/wsweb/image/wslogo.png"
   inkscape:export-xdpi="90.000000"
   inkscape:export-ydpi="90.000000"
   inkscape:connector-curvature="0"
   sodipodi:nodetypes="cccc"
   fill="#21DE08"
   d="   M3.39,21.646c0,0,2.312-17.222,16.754-19.225c-4.48,9.331-0.216,19.247-0.216,19.247L3.39,21.646z" />
</g>
</svg>