<?xml version="1.0" encoding="UTF-8" standalone="no"?>
<!-- Created with Inkscape (http://www.inkscape.org/) -->

<svg
   xmlns:dc="http://purl.org/dc/elements/1.1/"
   xmlns:cc="http://creativecommons.org/ns#"
   xmlns:rdf="http://www.w3.org/1999/02/22-rdf-syntax-ns#"
   xmlns:svg="http://www.w3.org/2000/svg"
   xmlns="http://www.w3.org/2000/svg"
   xmlns:sodipodi="http://sodipodi.sourceforge.net/DTD/sodipodi-0.dtd"
   xmlns:inkscape="http://www.inkscape.org/namespaces/inkscape"
   width="32"
   height="32"
   id="svg2"
   version="1.1"
   inkscape:version="0.48.2 r9819"
   sodipodi:docname="tip.svg"
   inkscape:export-filename="/Users/gerald/Development/wireshark/docbook/wsug_graphics/tip_100.png"
   inkscape:export-xdpi="90"
   inkscape:export-ydpi="90">
  <defs
     id="defs4" />
  <sodipodi:namedview
     id="base"
     pagecolor="#ffffff"
     bordercolor="#666666"
     borderopacity="1.0"
     inkscape:pageopacity="0.0"
     inkscape:pageshadow="2"
     inkscape:zoom="1"
     inkscape:cx="4.3465672"
     inkscape:cy="39.080258"
     inkscape:document-units="px"
     inkscape:current-layer="text3794"
     showgrid="false"
     inkscape:window-width="963"
     inkscape:window-height="629"
     inkscape:window-x="504"
     inkscape:window-y="138"
     inkscape:window-maximized="0" />
  <metadata
     id="metadata7">
    <rdf:RDF>
      <cc:Work
         rdf:about="">
        <dc:format>image/svg+xml</dc:format>
        <dc:type
           rdf:resource="http://purl.org/dc/dcmitype/StillImage" />
        <dc:title></dc:title>
        <cc:license
           rdf:resource="" />
        <dc:description>Original font: DejaVu Serif</dc:description>
      </cc:Work>
    </rdf:RDF>
  </metadata>
  <g
     inkscape:label="Layer 1"
     inkscape:groupmode="layer"
     id="layer1"
     transform="translate(0,-1020.3622)">
    <text
       xml:space="preserve"
       style="font-size:12px;font-style:normal;font-variant:normal;font-weight:normal;font-stretch:normal;text-align:start;line-height:125%;letter-spacing:0px;word-spacing:0px;writing-mode:lr-tb;text-anchor:start;fill:#000000;fill-opacity:1;stroke:none;font-family:Sans;-inkscape-font-specification:Helvetica"
       x="-34.648232"
       y="28.228661"
       id="text2997"
       sodipodi:linespacing="125%"
       transform="translate(0,952.36218)"><tspan
         sodipodi:role="line"
         id="tspan2999"
         x="-34.648232"
         y="28.228661"
         style="font-style:normal;font-variant:normal;font-weight:normal;font-stretch:normal;font-family:DejaVu Serif;-inkscape-font-specification:DejaVu Serif" /></text>
    <text
       xml:space="preserve"
       style="font-size:12px;font-style:normal;font-variant:normal;font-weight:normal;font-stretch:normal;text-align:start;line-height:125%;letter-spacing:0px;word-spacing:0px;writing-mode:lr-tb;text-anchor:start;fill:#000000;fill-opacity:1;stroke:none;font-family:DejaVu Serif;-inkscape-font-specification:DejaVu Serif"
       x="44.194176"
       y="48.027653"
       id="text3790"
       sodipodi:linespacing="125%"
       transform="translate(0,952.36218)"><tspan
         sodipodi:role="line"
         id="tspan3792"
         x="44.194176"
         y="48.027653" /></text>
    <g
       style="font-size:65.80976868px;font-style:normal;font-variant:normal;font-weight:normal;font-stretch:normal;text-align:start;line-height:125%;letter-spacing:0px;word-spacing:0px;writing-mode:lr-tb;text-anchor:start;fill:#000000;fill-opacity:1;stroke:none;font-family:DejaVu Serif;-inkscape-font-specification:DejaVu Serif"
       id="text3794">
      <g
         id="g3033"
         transform="matrix(0.3,0,0,0.29999999,1.0000001,735.65355)">
        <path
           transform="matrix(1.046518,0,0,1.0722521,-4.0200001,945.55706)"
           d="m 95.812973,52.977398 c 0,23.821982 -19.786406,43.133514 -44.194176,43.133514 -24.407769,0 -44.1941754,-19.311532 -44.1941754,-43.133514 0,-23.821982 19.7864064,-43.1335145 44.1941754,-43.1335145 24.40777,0 44.194176,19.3115325 44.194176,43.1335145 z"
           sodipodi:ry="43.133514"
           sodipodi:rx="44.194176"
           sodipodi:cy="52.977398"
           sodipodi:cx="51.618797"
           id="path3788"
           style="fill:none;stroke:#000000;stroke-width:7.08010149;stroke-linecap:round;stroke-linejoin:round;stroke-miterlimit:4;stroke-opacity:1;stroke-dasharray:none"
           sodipodi:type="arc" />
        <path
           id="path3030"
           style="font-weight:bold;-inkscape-font-specification:DejaVu Serif Bold"
           d="m 43.23586,982.53185 c -6e-6,-1.73517 0.599822,-3.1919 1.799486,-4.37018 1.199648,-1.19961 2.667084,-1.79944 4.402313,-1.79949 1.69236,5e-5 3.127663,0.59988 4.305913,1.79949 1.19964,1.17828 1.799468,2.63501 1.799486,4.37018 -1.8e-5,1.69241 -0.599846,3.13843 -1.799486,4.33804 -1.17825,1.17828 -2.613553,1.76739 -4.305913,1.76736 -1.735229,3e-5 -3.202665,-0.58908 -4.402313,-1.76736 -1.199664,-1.17819 -1.799492,-2.6242 -1.799486,-4.33804 m 12.435733,39.94215 4.884318,0 0,3.8882 -21.111825,0 0,-3.8882 4.852185,0 0,-26.38174 -4.852185,0 0,-3.88818 16.227507,0 0,30.26992"
           inkscape:connector-curvature="0" />
      </g>
    </g>
  </g>
</svg>
