<?xml version="1.0" encoding="UTF-8" standalone="no"?>
<!-- Created with Inkscape (http://www.inkscape.org/) -->

<svg
   xmlns:dc="http://purl.org/dc/elements/1.1/"
   xmlns:cc="http://creativecommons.org/ns#"
   xmlns:rdf="http://www.w3.org/1999/02/22-rdf-syntax-ns#"
   xmlns:svg="http://www.w3.org/2000/svg"
   xmlns="http://www.w3.org/2000/svg"
   xmlns:xlink="http://www.w3.org/1999/xlink"
   xmlns:sodipodi="http://sodipodi.sourceforge.net/DTD/sodipodi-0.dtd"
   xmlns:inkscape="http://www.inkscape.org/namespaces/inkscape"
   width="16"
   height="16"
   id="svg2"
   version="1.1"
   inkscape:version="0.48.2 r9819"
   sodipodi:docname="go-jump.svg"
   inkscape:export-filename="go-jump.png"
   inkscape:export-xdpi="90"
   inkscape:export-ydpi="90">
  <defs
     id="defs4">
    <linearGradient
       inkscape:collect="always"
       xlink:href="#linearGradient4404"
       id="linearGradient3031"
       gradientUnits="userSpaceOnUse"
       gradientTransform="matrix(-0.99999962,0,0,1,10.999997,2.0499758)"
       x1="6"
       y1="11"
       x2="6"
       y2="8" />
    <linearGradient
       id="linearGradient4404">
      <stop
         style="stop-color:#000000;stop-opacity:0.15753424;"
         offset="0"
         id="stop4406" />
      <stop
         style="stop-color:#000000;stop-opacity:0;"
         offset="1"
         id="stop4408" />
    </linearGradient>
    <linearGradient
       inkscape:collect="always"
       xlink:href="#linearGradient4505"
       id="linearGradient3033"
       gradientUnits="userSpaceOnUse"
       gradientTransform="matrix(-0.99999962,0,0,1,10.999997,1034.4122)"
       x1="6"
       y1="5"
       x2="6"
       y2="8" />
    <linearGradient
       id="linearGradient4505">
      <stop
         id="stop4507"
         offset="0"
         style="stop-color:#ffffff;stop-opacity:0.15753424;" />
      <stop
         id="stop4509"
         offset="1"
         style="stop-color:#ffffff;stop-opacity:0;" />
    </linearGradient>
  </defs>
  <sodipodi:namedview
     id="base"
     pagecolor="#ffffff"
     bordercolor="#666666"
     borderopacity="1.0"
     inkscape:pageopacity="0.0"
     inkscape:pageshadow="2"
     inkscape:zoom="34.9375"
     inkscape:cx="9.7646492"
     inkscape:cy="10.289803"
     inkscape:document-units="px"
     inkscape:current-layer="layer1"
     showgrid="true"
     inkscape:window-width="1171"
     inkscape:window-height="812"
     inkscape:window-x="386"
     inkscape:window-y="142"
     inkscape:window-maximized="0">
    <inkscape:grid
       type="xygrid"
       id="grid2985"
       empspacing="4"
       visible="true"
       enabled="true"
       snapvisiblegridlinesonly="true" />
  </sodipodi:namedview>
  <metadata
     id="metadata7">
    <rdf:RDF>
      <cc:Work
         rdf:about="">
        <dc:format>image/svg+xml</dc:format>
        <dc:type
           rdf:resource="http://purl.org/dc/dcmitype/StillImage" />
        <dc:title />
      </cc:Work>
    </rdf:RDF>
  </metadata>
  <g
     inkscape:label="Layer 1"
     inkscape:groupmode="layer"
     id="layer1"
     transform="translate(0,-1036.3622)">
    <rect
       style="fill:#eeeeec;fill-opacity:1;stroke:none"
       id="rect4163"
       width="14"
       height="14"
       x="2"
       y="1038.3622" />
    <path
       inkscape:transform-center-y="2.4349423e-05"
       transform="matrix(0,1.219616,-0.6984127,0,44.777778,1009.213)"
       d="M 28,14 C 17.607695,14 17.607695,14 22.803847,5.0000001 28,-4 28,-4 33.196152,4.9999999 38.392305,14 38.392305,14 28,14 z"
       inkscape:randomized="0"
       inkscape:rounded="1"
       inkscape:flatsided="true"
       sodipodi:arg2="2.6179939"
       sodipodi:arg1="1.5707963"
       sodipodi:r2="3"
       sodipodi:r1="6"
       sodipodi:cy="8"
       sodipodi:cx="28"
       sodipodi:sides="3"
       id="path3897"
       style="fill:#4e9a06;fill-opacity:1;stroke:#2a5703;stroke-width:1.08350861;stroke-linecap:round;stroke-linejoin:round;stroke-miterlimit:4;stroke-opacity:1;stroke-dasharray:none"
       sodipodi:type="star"
       inkscape:transform-center-x="-1.3095461" />
    <path
       style="fill:none;stroke:#2e3436;stroke-width:1px;stroke-linecap:square;stroke-linejoin:miter;stroke-opacity:1"
       d="m 2.5,1038.8622 c 13,0 13,0 13,0"
       id="path4099"
       inkscape:connector-curvature="0" />
    <path
       style="fill:#ef2929;stroke:#fce94f;stroke-width:0.99999994000000003px;stroke-linecap:square;stroke-linejoin:miter;stroke-opacity:1"
       d="m 8,1041.8622 c 7.518518,0 7.518518,0 7.518518,0"
       id="path4103"
       inkscape:connector-curvature="0" />
    <path
       inkscape:connector-curvature="0"
       id="path4105"
       d="m 9,1044.8622 c 6.5,0 6.5,0 6.5,0"
       style="fill:none;stroke:#2e3436;stroke-width:1px;stroke-linecap:square;stroke-linejoin:miter;stroke-opacity:1" />
    <path
       style="fill:none;stroke:#2e3436;stroke-width:1px;stroke-linecap:square;stroke-linejoin:miter;stroke-opacity:1"
       d="m 2.5,1050.8622 c 13,0 13,0 13,0"
       id="path4111"
       inkscape:connector-curvature="0" />
    <path
       style="fill:#ef2929;stroke:#fce94f;stroke-width:0.99999994000000003px;stroke-linecap:square;stroke-linejoin:miter;stroke-opacity:1"
       d="m 8,1042.8622 c 7.518518,0 7.518518,0 7.518518,0"
       id="path4187"
       inkscape:connector-curvature="0" />
    <path
       inkscape:connector-curvature="0"
       id="path4185"
       d="m 8,1040.8622 c 7.518518,0 7.518518,0 7.518518,0"
       style="fill:#ef2929;stroke:#fce94f;stroke-width:0.99999994000000003px;stroke-linecap:square;stroke-linejoin:miter;stroke-opacity:1" />
    <path
       style="fill:#ffffff;fill-opacity:1;stroke:#888a85;stroke-width:0.99999982;stroke-linecap:round;stroke-linejoin:round;stroke-miterlimit:4;stroke-opacity:1;stroke-dasharray:none"
       d="m 7.388367,1037.5689 c -0.471232,0.074 -0.629062,0.8236 -0.677227,2.2678 -0.0067,-2e-4 -0.01262,0 -0.01935,0 l -5.5726114,0 c -0.343025,0 -0.619179,0.2022 -0.619179,0.4537 l 0,4.082 c 0,0.2513 0.276154,0.4535 0.619179,0.4535 l 5.5726114,0 c 0.0067,0 0.01267,10e-5 0.01935,0 0.10323,3.0955 0.677799,2.7404 3.869869,0.3829 3.891981,-2.8745 3.891981,-2.8804 0,-5.7548 -1.702742,-1.2575 -2.653884,-1.9687 -3.192642,-1.8851 z"
       id="path2987"
       inkscape:export-xdpi="90"
       inkscape:export-ydpi="90"
       inkscape:connector-curvature="0" />
    <g
       id="g4385"
       transform="matrix(-1,0,0,1,14.999995,-2.0500382)">
      <path
         inkscape:transform-center-y="-5.8852633e-05"
         inkscape:transform-center-x="0.41666431"
         transform="matrix(0,-0.27296167,0.22222222,0,3.8888889,1052.0051)"
         d="M 28,14 C 17.607695,14 17.607695,14 22.803847,5.0000001 28,-4 28,-4 33.196152,4.9999999 38.392305,14 38.392305,14 28,14 z"
         inkscape:randomized="0"
         inkscape:rounded="1"
         inkscape:flatsided="true"
         sodipodi:arg2="2.6179939"
         sodipodi:arg1="1.5707963"
         sodipodi:r2="3"
         sodipodi:r1="6"
         sodipodi:cy="8"
         sodipodi:cx="28"
         sodipodi:sides="3"
         id="path3873"
         style="fill:#60b60e;fill-opacity:1;stroke:none"
         sodipodi:type="star" />
      <rect
         transform="translate(0,1036.3622)"
         y="7"
         x="6"
         height="2"
         width="7"
         id="rect4383"
         style="color:#000000;fill:#60b60e;fill-opacity:1;stroke:none;stroke-width:0.5;marker:none;visibility:visible;display:inline;overflow:visible;enable-background:accumulate" />
    </g>
    <g
       id="g4422"
       transform="matrix(-1,0,0,1,14.999995,-2.0500382)">
      <path
         id="rect4426"
         transform="translate(0,1036.3622)"
         style="color:#000000;fill:url(#linearGradient3031);fill-opacity:1;stroke:none;stroke-width:0.5;marker:none;visibility:visible;display:inline;overflow:visible;enable-background:accumulate"
         d="m 6,7 7,0 0,2 -7,0 z M 7,7.9999732 C 7,10.836674 7,10.836674 5,9.4183238 3,7.9999732 3,7.9999732 5,6.5816229 7,5.1632723 7,5.1632723 7,7.9999732 z"
         inkscape:connector-curvature="0" />
    </g>
    <g
       id="g4499"
       transform="matrix(-1,0,0,1,14.999995,1.9499618)">
      <path
         inkscape:connector-curvature="0"
         d="m 6,1039.3622 7,0 0,2 -7,0 z m 1,1 c 0,2.8367 0,2.8367 -2,1.4183 -2,-1.4183 -2,-1.4183 0,-2.8367 2,-1.4183 2,-1.4183 2,1.4184 z"
         style="color:#000000;fill:url(#linearGradient3033);fill-opacity:1;stroke:none;stroke-width:0.5;marker:none;visibility:visible;display:inline;overflow:visible;enable-background:accumulate"
         id="path4501" />
    </g>
    <path
       inkscape:connector-curvature="0"
       id="path3030"
       d="m 2.5,1047.8622 c 13,0 13,0 13,0"
       style="fill:none;stroke:#2e3436;stroke-width:1px;stroke-linecap:square;stroke-linejoin:miter;stroke-opacity:1" />
    <path
       inkscape:transform-center-x="-1.3095461"
       sodipodi:type="star"
       style="fill:#4e9a06;fill-opacity:1;stroke:#2a5703;stroke-width:1.08350861;stroke-linecap:round;stroke-linejoin:round;stroke-miterlimit:4;stroke-opacity:1;stroke-dasharray:none"
       id="path4183"
       sodipodi:sides="3"
       sodipodi:cx="28"
       sodipodi:cy="8"
       sodipodi:r1="6"
       sodipodi:r2="3"
       sodipodi:arg1="1.5707963"
       sodipodi:arg2="2.6179939"
       inkscape:flatsided="true"
       inkscape:rounded="1"
       inkscape:randomized="0"
       d="M 28,14 C 17.607695,14 17.607695,14 22.803847,5.0000001 28,-4 28,-4 33.196152,4.9999999 38.392305,14 38.392305,14 28,14 z"
       transform="matrix(0,1.219616,-0.6984127,0,30.777778,1009.213)"
       inkscape:transform-center-y="2.4349423e-05" />
  </g>
</svg>
