/* XPM */
static const char * analyze_24_xpm[] = {
"24 24 76 1",
" 	c None",
".	c #E1E2E2",
"+	c #929596",
"@	c #686D6E",
"#	c #3F4547",
"$	c #E1E2E3",
"%	c #FDFDFD",
"&	c #A2A5A6",
"*	c #929595",
"=	c #BBBCBB",
"-	c #D8D9D6",
";	c #D7D9D5",
">	c #C1C4BF",
",	c #A2A5A3",
"'	c #43484A",
")	c #676C6D",
"!	c #5F6464",
"~	c #D6D7D6",
"{	c #ECECEA",
"]	c #E9EAE6",
"^	c #E6E7E3",
"/	c #E3E4E0",
"(	c #DFE2DC",
"_	c #DDDFD9",
":	c #D3D6D1",
"<	c #777B7A",
"[	c #5E6364",
"}	c #EEEEEC",
"|	c #ECEDEA",
"1	c #EDEDEB",
"2	c #E9EAE7",
"3	c #E0E2DC",
"4	c #D9DCD5",
"5	c #D5D9D1",
"6	c #7B7F7E",
"7	c #3E4345",
"8	c #D4D5D5",
"9	c #D6DAD2",
"0	c #D3D7D0",
"a	c #45494B",
"b	c #909393",
"c	c #DDE0DA",
"d	c #A8ABA8",
"e	c #939697",
"f	c #BBBDBA",
"g	c #E8E9E6",
"h	c #DCDED8",
"i	c #C5C8C3",
"j	c #696D6F",
"k	c #DFE1DC",
"l	c #D6D8D4",
"m	c #E2E4DF",
"n	c #D7D8D5",
"o	c #EBECE9",
"p	c #E5E7E3",
"q	c #BEC0BD",
"r	c #EAEAE7",
"s	c #959897",
"t	c #ECECE9",
"u	c #3F4446",
"v	c #7B807E",
"w	c #D4D7D1",
"x	c #484E4E",
"y	c #CECFCD",
"z	c #464B4D",
"A	c #A9ADAA",
"B	c #C5C7C4",
"C	c #D6D9D4",
"D	c #474A49",
"E	c #353B3D",
"F	c #4B4F4B",
"G	c #404545",
"H	c #8B8F90",
"I	c #525350",
"J	c #363C3E",
"K	c #939596",
"                        ",
"     .+@##@+$           ",
"   %&#*=-;>,'&%         ",
"  %)!~{]^/(_:<)%        ",
"  &[{}{|1123456&        ",
" .78}}}}}}}}/90a$       ",
" +b{{}}}}}}}}c4de       ",
" @f]|}}}}}}}}ghij       ",
" #-^1}}}}}}}}|kl#       ",
" #;/1}}}}}}}}1mn#       ",
" @>(2}}}}}}}}opqj       ",
" +,_3}}}}}}}}rgse       ",
" .':4/}}}}}}{t8u$       ",
"  &<59cg|1ort{[&        ",
"  %)vw4hkmpg8[xy        ",
"   %&zABCnqsu&yDEe      ",
"     .+@##@+$  EFGH     ",
"               eGIGH    ",
"                HGIGH   ",
"                 HGIGe  ",
"                  HGFJ  ",
"                   eJK  ",
"                        ",
"                        "};
