/* XPM */
static const char * audio_player_24_xpm[] = {
"24 24 60 1",
" 	c None",
".	c #C1C1C1",
"+	c #6D6D6D",
"@	c #3C3C3C",
"#	c #585858",
"$	c #353535",
"%	c #696969",
"&	c #676767",
"*	c #686868",
"=	c #434343",
"-	c #5B5B5B",
";	c #444444",
">	c #A9A9A9",
",	c #5A5A5A",
"'	c #646464",
")	c #4D4D4D",
"!	c #A3A3A3",
"~	c #4C4C4C",
"{	c #6C6C6C",
"]	c #474747",
"^	c #555555",
"/	c #575757",
"(	c #505050",
"_	c #4F4F4F",
":	c #494949",
"<	c #535353",
"[	c #5E5E5E",
"}	c #707070",
"|	c #747474",
"1	c #545454",
"2	c #6F6F6F",
"3	c #666666",
"4	c #606060",
"5	c #565656",
"6	c #616161",
"7	c #4B4B4B",
"8	c #525252",
"9	c #727272",
"0	c #757575",
"a	c #5F5F5F",
"b	c #5D5D5D",
"c	c #6B6B6B",
"d	c #636363",
"e	c #656565",
"f	c #3F3F3F",
"g	c #333333",
"h	c #343434",
"i	c #1B1B1B",
"j	c #171717",
"k	c #1D1D1D",
"l	c #414141",
"m	c #717171",
"n	c #767676",
"o	c #3D3D3D",
"p	c #383838",
"q	c #464646",
"r	c #3A3A3A",
"s	c #424242",
"t	c #4E4E4E",
"u	c #303030",
"                .       ",
"                +@+     ",
"                 #$%    ",
"         &        *=+   ",
"        -;>   ,#   ')   ",
"      !-~;>   {]^   ^-  ",
"     !/(_:>    !<[  };  ",
"    |,_^1:> -}   ]2  ~3 ",
" [445<5#/:> 6_%  &)  3~ ",
" ((<1/#[,7>  |89  ;0  @ ",
" ^/##[[a-~>   b[  )c  @ ",
" b[[add'a~>   [^  7*  @ ",
" 4a66e3&6)>   )[> f2  @ ",
" 3*&3*%c3~>  &g  2h  +@ ",
" ijk)2{2*)> ,g3  l#  1^ ",
" 2{mb1n9{)> -2  -o   p9 ",
"     '/9|q>    6r}  [q  ",
"      '[m:    [r{  9f}  ",
"       3#l    20   )/   ",
"        {#       >st    ",
"                0u-     ",
"                0|      ",
"                        ",
"                        "};
