/* XPM */
static const char * autoscroll_24_xpm[] = {
"24 24 71 1",
" 	c None",
".	c #000000",
"+	c #E2E2E2",
"@	c #F2F2F2",
"#	c #F3F3F3",
"$	c #F4F4F4",
"%	c #F5F5F5",
"&	c #F6F6F6",
"*	c #F7F7F7",
"=	c #DBDBDB",
"-	c #F0F0F0",
";	c #E0E0E0",
">	c #E1E1E1",
",	c #E3E3E3",
"'	c #E4E4E4",
")	c #E5E5E5",
"!	c #E6E6E6",
"~	c #E7E7E7",
"{	c #E8E8E8",
"]	c #E9E9E9",
"^	c #EAEAEA",
"/	c #EBEBEB",
"(	c #ECECEC",
"_	c #EDEDED",
":	c #EEEEEE",
"<	c #EFEFEF",
"[	c #868686",
"}	c #878787",
"|	c #888888",
"1	c #898989",
"2	c #8A8A8A",
"3	c #8B8B8B",
"4	c #8C8C8C",
"5	c #8D8D8D",
"6	c #8E8E8E",
"7	c #F1F1F1",
"8	c #8F8F8F",
"9	c #909090",
"0	c #A4A4A4",
"a	c #676767",
"b	c #5E5E5E",
"c	c #565656",
"d	c #D0D0D0",
"e	c #C2C2C2",
"f	c #D1D1D1",
"g	c #919191",
"h	c #858585",
"i	c #737373",
"j	c #CFCFCF",
"k	c #D2D2D2",
"l	c #929292",
"m	c #F8F8F8",
"n	c #B2B2B2",
"o	c #616161",
"p	c #4E4E4E",
"q	c #484848",
"r	c #D6D6D6",
"s	c #939393",
"t	c #949494",
"u	c #292929",
"v	c #C6C6C6",
"w	c #F9F9F9",
"x	c #FAFAFA",
"y	c #FBFBFB",
"z	c #C5C5C5",
"A	c #D3D3D3",
"B	c #C9C9C9",
"C	c #FCFCFC",
"D	c #FDFDFD",
"E	c #D9D9D9",
"F	c #B7B7B7",
" ....................   ",
".+@@@@###$$$%%%&&**$=.  ",
".-;;>+,')!~{{]^/(_:<_.  ",
".@>[[}}|11223344556-7.  ",
".@+,,')!~{]^/((_:<-7@.  ",
".#,}||1122344555688@#.  ",
".#')!~~{]^/(_:<<-7@#$.  ",
".#)1122234455688899$%.  ",
".$!~{]^^/(_:<-7@##$%&.  ",
".$~2234445568666899$%.  ",
".%{]^/(_::<--.........  ",
".%]34455688882.0abc.d.  ",
".%^/(_:<-7@@@<>.}..ef.  ",
".&/45568899ggg5h..ij).  ",
".*__:<-7@#$%%%$<>fk'#.  ",
".*:668899glll.........  ",
".m-7@@#$%&*mm7.nopq.r.  ",
".m799ggllssttl2.4u.vr.  ",
".@@#$%&&*mwxyy&~..zAr.  ",
".B_m%&*mmwxyCDDm]EEEF.  ",
" ....................   ",
"                        ",
"                        ",
"                        "};
