/* XPM */
static char * capture_airpcap_16_xpm[] = {
"16 16 256 2",
"  	c None",
". 	c #800000",
"+ 	c #008000",
"@ 	c #808000",
"# 	c #000080",
"$ 	c #800080",
"% 	c #008080",
"& 	c #C0C0C0",
"* 	c #C0DCC0",
"= 	c #A6CAF0",
"- 	c #040404",
"; 	c #080808",
"> 	c #0C0C0C",
", 	c #111111",
"' 	c #161616",
") 	c #1C1C1C",
"! 	c #222222",
"~ 	c #292929",
"{ 	c #555555",
"] 	c #4D4D4D",
"^ 	c #424242",
"/ 	c #393939",
"( 	c #FF7C80",
"_ 	c #FF5050",
": 	c #D60093",
"< 	c #CCECFF",
"[ 	c #EFD6C6",
"} 	c #E7E7D6",
"| 	c #ADA990",
"1 	c #330000",
"2 	c #660000",
"3 	c #990000",
"4 	c #CC0000",
"5 	c #003300",
"6 	c #333300",
"7 	c #663300",
"8 	c #993300",
"9 	c #CC3300",
"0 	c #FF3300",
"a 	c #006600",
"b 	c #336600",
"c 	c #666600",
"d 	c #996600",
"e 	c #CC6600",
"f 	c #FF6600",
"g 	c #009900",
"h 	c #339900",
"i 	c #669900",
"j 	c #999900",
"k 	c #CC9900",
"l 	c #FF9900",
"m 	c #00CC00",
"n 	c #33CC00",
"o 	c #66CC00",
"p 	c #99CC00",
"q 	c #CCCC00",
"r 	c #FFCC00",
"s 	c #66FF00",
"t 	c #99FF00",
"u 	c #CCFF00",
"v 	c #000033",
"w 	c #330033",
"x 	c #660033",
"y 	c #990033",
"z 	c #CC0033",
"A 	c #FF0033",
"B 	c #003333",
"C 	c #333333",
"D 	c #663333",
"E 	c #993333",
"F 	c #CC3333",
"G 	c #FF3333",
"H 	c #006633",
"I 	c #336633",
"J 	c #666633",
"K 	c #996633",
"L 	c #CC6633",
"M 	c #FF6633",
"N 	c #009933",
"O 	c #339933",
"P 	c #669933",
"Q 	c #999933",
"R 	c #CC9933",
"S 	c #FF9933",
"T 	c #00CC33",
"U 	c #33CC33",
"V 	c #66CC33",
"W 	c #99CC33",
"X 	c #CCCC33",
"Y 	c #FFCC33",
"Z 	c #33FF33",
"` 	c #66FF33",
" .	c #99FF33",
"..	c #CCFF33",
"+.	c #FFFF33",
"@.	c #000066",
"#.	c #330066",
"$.	c #660066",
"%.	c #990066",
"&.	c #CC0066",
"*.	c #FF0066",
"=.	c #003366",
"-.	c #333366",
";.	c #663366",
">.	c #993366",
",.	c #CC3366",
"'.	c #FF3366",
").	c #006666",
"!.	c #336666",
"~.	c #666666",
"{.	c #996666",
"].	c #CC6666",
"^.	c #009966",
"/.	c #339966",
"(.	c #669966",
"_.	c #999966",
":.	c #CC9966",
"<.	c #FF9966",
"[.	c #00CC66",
"}.	c #33CC66",
"|.	c #99CC66",
"1.	c #CCCC66",
"2.	c #FFCC66",
"3.	c #00FF66",
"4.	c #33FF66",
"5.	c #99FF66",
"6.	c #CCFF66",
"7.	c #FF00CC",
"8.	c #CC00FF",
"9.	c #009999",
"0.	c #993399",
"a.	c #990099",
"b.	c #CC0099",
"c.	c #000099",
"d.	c #333399",
"e.	c #660099",
"f.	c #CC3399",
"g.	c #FF0099",
"h.	c #006699",
"i.	c #336699",
"j.	c #663399",
"k.	c #996699",
"l.	c #CC6699",
"m.	c #FF3399",
"n.	c #339999",
"o.	c #669999",
"p.	c #999999",
"q.	c #CC9999",
"r.	c #FF9999",
"s.	c #00CC99",
"t.	c #33CC99",
"u.	c #66CC66",
"v.	c #99CC99",
"w.	c #CCCC99",
"x.	c #FFCC99",
"y.	c #00FF99",
"z.	c #33FF99",
"A.	c #66CC99",
"B.	c #99FF99",
"C.	c #CCFF99",
"D.	c #FFFF99",
"E.	c #0000CC",
"F.	c #330099",
"G.	c #6600CC",
"H.	c #9900CC",
"I.	c #CC00CC",
"J.	c #003399",
"K.	c #3333CC",
"L.	c #6633CC",
"M.	c #9933CC",
"N.	c #CC33CC",
"O.	c #FF33CC",
"P.	c #0066CC",
"Q.	c #3366CC",
"R.	c #666699",
"S.	c #9966CC",
"T.	c #CC66CC",
"U.	c #FF6699",
"V.	c #0099CC",
"W.	c #3399CC",
"X.	c #6699CC",
"Y.	c #9999CC",
"Z.	c #CC99CC",
"`.	c #FF99CC",
" +	c #00CCCC",
".+	c #33CCCC",
"++	c #66CCCC",
"@+	c #99CCCC",
"#+	c #CCCCCC",
"$+	c #FFCCCC",
"%+	c #00FFCC",
"&+	c #33FFCC",
"*+	c #66FF99",
"=+	c #99FFCC",
"-+	c #CCFFCC",
";+	c #FFFFCC",
">+	c #3300CC",
",+	c #6600FF",
"'+	c #9900FF",
")+	c #0033CC",
"!+	c #3333FF",
"~+	c #6633FF",
"{+	c #9933FF",
"]+	c #CC33FF",
"^+	c #FF33FF",
"/+	c #0066FF",
"(+	c #3366FF",
"_+	c #6666CC",
":+	c #9966FF",
"<+	c #CC66FF",
"[+	c #FF66CC",
"}+	c #0099FF",
"|+	c #3399FF",
"1+	c #6699FF",
"2+	c #9999FF",
"3+	c #CC99FF",
"4+	c #FF99FF",
"5+	c #00CCFF",
"6+	c #33CCFF",
"7+	c #66CCFF",
"8+	c #99CCFF",
"9+	c #CCCCFF",
"0+	c #FFCCFF",
"a+	c #33FFFF",
"b+	c #66FFCC",
"c+	c #99FFFF",
"d+	c #CCFFFF",
"e+	c #FF6666",
"f+	c #66FF66",
"g+	c #FFFF66",
"h+	c #6666FF",
"i+	c #FF66FF",
"j+	c #66FFFF",
"k+	c #A50021",
"l+	c #5F5F5F",
"m+	c #777777",
"n+	c #868686",
"o+	c #969696",
"p+	c #CBCBCB",
"q+	c #B2B2B2",
"r+	c #D7D7D7",
"s+	c #DDDDDD",
"t+	c #E3E3E3",
"u+	c #EAEAEA",
"v+	c #F1F1F1",
"w+	c #F8F8F8",
"x+	c #FFFBF0",
"y+	c #A0A0A4",
"z+	c #808080",
"A+	c #FF0000",
"B+	c #00FF00",
"C+	c #FFFF00",
"D+	c #0000FF",
"E+	c #FF00FF",
"F+	c #00FFFF",
"G+	c #FFFFFF",
"                                ",
"      5.                5.      ",
"5.    + 5.            5.+     5.",
"+ 5.  a 5.    n+n+    5.a   5.+ ",
"+ 5.  a 5.  n+& & n+  5.a   5.+ ",
"+ 5.  a 5.  n+#+& n+  5.a   5.+ ",
"+ 5.  a 5.    n+n+    5.a   5.+ ",
"5.    + 5.    o+n+    5.+     5.",
"      5.      & n+      5.      ",
"              & n+              ",
"              & n+              ",
"              & n+              ",
"              & n+              ",
"              & n+              ",
"              & n+              ",
"                                "};
