/* XPM */
static const char * capture_filter_24_xpm[] = {
"24 24 305 2",
"  	c None",
". 	c #000000",
"+ 	c #FFFFFF",
"@ 	c #C3D3E4",
"# 	c #7C7C7C",
"$ 	c #6A6A6A",
"% 	c #606060",
"& 	c #353535",
"* 	c #BECFE1",
"= 	c #D8E2ED",
"- 	c #E6ECF3",
"; 	c #F2F5F9",
"> 	c #E2E9F1",
", 	c #CCD9E7",
"' 	c #BACCDF",
") 	c #AFC4DA",
"! 	c #AEC3D9",
"~ 	c #9EB8D3",
"{ 	c #8EACCB",
"] 	c #86A6C7",
"^ 	c #5D88B4",
"/ 	c #656565",
"( 	c #C5D4E4",
"_ 	c #DFE7F0",
": 	c #EBF0F6",
"< 	c #F8F9FB",
"[ 	c #D0DCE9",
"} 	c #B3C7DC",
"| 	c #A4BCD5",
"1 	c #93B0CE",
"2 	c #8AA9C9",
"3 	c #5E89B5",
"4 	c #5D5D5D",
"5 	c #CAD8E7",
"6 	c #FDFDFE",
"7 	c #E9EEF4",
"8 	c #B0C5DB",
"9 	c #9AB5D1",
"0 	c #8BAACA",
"a 	c #F4F6F9",
"b 	c #ACC2D9",
"c 	c #95B1CE",
"d 	c #5F8AB6",
"e 	c #C3C3C3",
"f 	c #53654F",
"g 	c #485642",
"h 	c #56624B",
"i 	c #48533F",
"j 	c #D7E1EC",
"k 	c #EDF1F6",
"l 	c #EAEFF5",
"m 	c #B7CADE",
"n 	c #A5BDD6",
"o 	c #6A92BB",
"p 	c #3F4231",
"q 	c #474C38",
"r 	c #4C4F3A",
"s 	c #464B37",
"t 	c #333E2D",
"u 	c #90948E",
"v 	c #8CA880",
"w 	c #647B5C",
"x 	c #6D7D5E",
"y 	c #637355",
"z 	c #536047",
"A 	c #D9E3EE",
"B 	c #CEDBE9",
"C 	c #B4C8DD",
"D 	c #789CC1",
"E 	c #596348",
"F 	c #64745B",
"G 	c #566447",
"H 	c #68795E",
"I 	c #505C41",
"J 	c #4E6043",
"K 	c #91988C",
"L 	c #7A8F6C",
"M 	c #5C7255",
"N 	c #97A094",
"O 	c #96A093",
"P 	c #8E988A",
"Q 	c #767D72",
"R 	c #D5E0EC",
"S 	c #364530",
"T 	c #636E4E",
"U 	c #757C71",
"V 	c #495742",
"W 	c #6F7C68",
"X 	c #4C5449",
"Y 	c #435438",
"Z 	c #8E968A",
"` 	c #313131",
" .	c #6E7F61",
"..	c #949C91",
"+.	c #ACACAC",
"@.	c #B1B1B1",
"#.	c #AEAEAE",
"$.	c #AAAAAA",
"%.	c #868686",
"&.	c #585957",
"*.	c #4E5749",
"=.	c #5E684A",
"-.	c #BBB49C",
";.	c #424936",
">.	c #868E7B",
",.	c #736C54",
"'.	c #3C4C32",
").	c #8D9488",
"!.	c #5F5F5F",
"~.	c #6E7F60",
"{.	c #AFAFAF",
"].	c #CACACA",
"^.	c #A0A0A0",
"/.	c #C2C2C2",
"(.	c #545752",
"_.	c #444C3F",
":.	c #4E5B3F",
"<.	c #BFB9A2",
"[.	c #3E4431",
"}.	c #878E7C",
"|.	c #746E56",
"1.	c #303D28",
"2.	c #515151",
"3.	c #6B8263",
"4.	c #A2A2A2",
"5.	c #8E8E8E",
"6.	c #A9A9A9",
"7.	c #8C8C8C",
"8.	c #C2D2E3",
"9.	c #4F524E",
"0.	c #41493C",
"a.	c #3C4C34",
"b.	c #C67461",
"c.	c #3C2B1B",
"d.	c #887E6C",
"e.	c #7A2310",
"f.	c #303C27",
"g.	c #474747",
"h.	c #3D4B37",
"i.	c #727671",
"j.	c #656863",
"k.	c #616460",
"l.	c #5D605C",
"m.	c #5C5E5A",
"n.	c #C1D1E2",
"o.	c #242B21",
"p.	c #2A3524",
"q.	c #596245",
"r.	c #9C9C9C",
"s.	c #3B4237",
"t.	c #747C70",
"u.	c #666666",
"v.	c #2E3B26",
"w.	c #8C9387",
"x.	c #373737",
"y.	c #7E9A75",
"z.	c #4B5E44",
"A.	c #3E473B",
"B.	c #363D34",
"C.	c #323830",
"D.	c #2F342D",
"E.	c #8DABCA",
"F.	c #151A12",
"G.	c #4C5139",
"H.	c #3D4D34",
"I.	c #394930",
"J.	c #2F3B28",
"K.	c #3E4E34",
"L.	c #252E1E",
"M.	c #303D27",
"N.	c #8B9286",
"O.	c #809B76",
"P.	c #586E51",
"Q.	c #616C4D",
"R.	c #545B42",
"S.	c #4F553D",
"T.	c #4C513A",
"U.	c #494E38",
"V.	c #2B3624",
"W.	c #565E42",
"X.	c #566244",
"Y.	c #506242",
"Z.	c #616C4B",
"`.	c #556142",
" +	c #5E6646",
".+	c #38472D",
"++	c #8B9186",
"@+	c #7E9A74",
"#+	c #7B8562",
"$+	c #58684A",
"%+	c #43543C",
"&+	c #5B6548",
"*+	c #3C4C35",
"=+	c #5A6346",
"-+	c #686E4E",
";+	c #5A6446",
">+	c #5F6A4A",
",+	c #64704E",
"'+	c #687451",
")+	c #687551",
"!+	c #6E7C5E",
"~+	c #9FA194",
"{+	c #959595",
"]+	c #2D2D2D",
"^+	c #7C9671",
"/+	c #A0A086",
"(+	c #766E52",
"_+	c #888B76",
":+	c #868874",
"<+	c #858772",
"[+	c #545C41",
"}+	c #44563A",
"|+	c #4D6141",
"1+	c #79825A",
"2+	c #506442",
"3+	c #5C6E50",
"4+	c #7F867B",
"5+	c #545454",
"6+	c #909090",
"7+	c #56534E",
"8+	c #B6B6B6",
"9+	c #939393",
"0+	c #878787",
"a+	c #77906D",
"b+	c #80805C",
"c+	c #323124",
"d+	c #5B593E",
"e+	c #343325",
"f+	c #626245",
"g+	c #5A583E",
"h+	c #302E22",
"i+	c #5F6246",
"j+	c #677450",
"k+	c #77805A",
"l+	c #4F6442",
"m+	c #5F7153",
"n+	c #7E8479",
"o+	c #4F4F4F",
"p+	c #575757",
"q+	c #505050",
"r+	c #4E4E4E",
"s+	c #383838",
"t+	c #738C69",
"u+	c #556A4C",
"v+	c #646B4D",
"w+	c #575F44",
"x+	c #404D36",
"y+	c #606648",
"z+	c #575F43",
"A+	c #3D4832",
"B+	c #5B6044",
"C+	c #545F42",
"D+	c #566645",
"E+	c #707A55",
"F+	c #757E57",
"G+	c #646F4C",
"H+	c #565F48",
"I+	c #171D12",
"J+	c #10150D",
"K+	c #7A7C79",
"L+	c #060606",
"M+	c #41503C",
"N+	c #637D58",
"O+	c #808660",
"P+	c #606E4E",
"Q+	c #6A7553",
"R+	c #7D835E",
"S+	c #5C6A4A",
"T+	c #687351",
"U+	c #7A7F5A",
"V+	c #5B6A49",
"W+	c #6C7752",
"X+	c #7E845D",
"Y+	c #5B6C48",
"Z+	c #69744F",
"`+	c #293422",
" @	c #181F14",
".@	c #14180F",
"+@	c #0F130C",
"@@	c #3A4833",
"#@	c #C8BA89",
"$@	c #8C9068",
"%@	c #8C8F67",
"&@	c #C8B988",
"*@	c #8B8E66",
"=@	c #8A8E65",
"-@	c #C7B888",
";@	c #8A8C64",
">@	c #8A8D64",
",@	c #898B62",
"'@	c #868760",
")@	c #161C12",
"!@	c #2E3B29",
"~@	c #C6B888",
"{@	c #898B64",
"]@	c #888A63",
"^@	c #C6B887",
"/@	c #888A62",
"(@	c #878A62",
"_@	c #C6B786",
":@	c #878861",
"<@	c #868860",
"[@	c #83845D",
"}@	c #181E13",
"|@	c #3A3A3A",
"                                                ",
"  . . . . . . . . . . . . . . . . .     . .     ",
"  . + + + + + + + + + + + + + + @ .   # $ % &   ",
"  . * = - ; + ; > , ' ) ! ~ { ] ^ .   / .       ",
"    . ( _ : < < - [ * } | 1 2 3 .     4 .       ",
"      . 5 - ; 6 7 [ * 8 9 0 3 .       4 .       ",
"        . [ : a - 5 * b c d .         e .       ",
"  f g h i . j k l 5 m n o . p q r s t u .       ",
". v w x y z . A l B C D . E F G H I J K .       ",
". L M N O P Q . A R ] . S T U V W X Y Z `       ",
".  ...+.@.#.$.%.. 5 . &.*.=.-.;.>.,.'.).!.      ",
". ~.N +.{.].^./.. @ . (._.:.<.[.}.|.1.).2.      ",
". 3.N 4.5.6.# 7.. 8.. 9.0.a.b.c.d.e.f.).g.      ",
".  .h.i.j.k.l.m.. n.. o.p.q.r.s.t.u.v.w.x.      ",
". y.z.A.B.C.C.D.. E.. F.G.H.I.J.K.L.M.N..       ",
". O.P.Q.R.S.T.U.. . . V.W.X.Y.Z.`. +.+++.       ",
". @+#+$+%+&+*+=+a.-+;+>+,+'+)+!+~+u.u.{+]+/ x.  ",
". ^+/+(+_+(+:+(+<+(+[+}+|+1+2+3+4+5+5+6+7+8+9+0+",
". a+b+c+d+e+f+e+g+h+i+>+j+k+l+m+n+o+p+6+q+$.r+s+",
". t+u+v+w+x+y+z+A+B+C+D+E+l+F+G+H+I+J+K+L+.     ",
"  M+N+O+P+Q+R+S+T+U+V+W+X+Y+Z+`+ @.@+@4 .       ",
"    @@#@$@%@&@*@=@-@;@>@-@,@'@)@      4 .       ",
"    !@~@{@]@^@/@(@_@:@<@_@<@[@}@      4 .       ",
"      . . . . . . . . . . . .         |@        "};
