<?xml version="1.0" encoding="utf-8"?>
<!-- Generator: Adobe Illustrator 15.0.2, SVG Export Plug-In . SVG Version: 6.00 Build 0)  -->
<!DOCTYPE svg PUBLIC "-//W3C//DTD SVG 1.1//EN" "http://www.w3.org/Graphics/SVG/1.1/DTD/svg11.dtd">
<svg version="1.1" id="Layer_1" xmlns="http://www.w3.org/2000/svg" xmlns:xlink="http://www.w3.org/1999/xlink" x="0px" y="0px"
	 width="24px" height="24px" viewBox="0 0 24 24" enable-background="new 0 0 24 24" xml:space="preserve">
<g>
	<path fill="#999999" d="M12,24C5.373,24,0,18.631,0,12.006C0,5.371,5.373,0,12,0s12,5.371,12,12.006C24,18.631,18.627,24,12,24z"/>
	<circle fill="#DC0000" cx="11.996" cy="12.226" r="10.476"/>
	<path fill="#FFFFFF" d="M12,1.139c-5.988,0-10.857,4.877-10.857,10.867c0,5.979,4.869,10.855,10.857,10.855
		s10.857-4.877,10.857-10.855C22.857,6.016,17.988,1.139,12,1.139z M12,20.941c-4.928,0-8.936-4.012-8.936-8.936
		c0-4.936,4.008-8.944,8.936-8.944s8.936,4.009,8.936,8.944C20.936,16.93,16.928,20.941,12,20.941z"/>
	<path fill="#FFFFFF" d="M13.717,18.103H7.591v-3.381h6.126c0.833,0,1.511-0.685,1.511-1.51V11.89c0-0.825-0.651-1.494-1.467-1.511
		h-2.616v2.576L5.85,8.953l5.295-4.019v2.044h2.014l0,0h0.559c2.704,0,4.909,2.195,4.909,4.911v1.322
		C18.626,15.904,16.421,18.103,13.717,18.103z"/>
</g>
</svg>
