<?xml version="1.0" encoding="utf-8"?>
<!-- Generator: Adobe Illustrator 15.0.2, SVG Export Plug-In . SVG Version: 6.00 Build 0)  -->
<!DOCTYPE svg PUBLIC "-//W3C//DTD SVG 1.1//EN" "http://www.w3.org/Graphics/SVG/1.1/DTD/svg11.dtd">
<svg version="1.1" id="Layer_1" xmlns="http://www.w3.org/2000/svg" xmlns:xlink="http://www.w3.org/1999/xlink" x="0px" y="0px"
	 width="16px" height="16px" viewBox="0 0 16 16" enable-background="new 0 0 16 16" xml:space="preserve">
<g>
	<circle fill="#999999" cx="8" cy="8" r="8"/>
	<circle fill="#4D4D4D" cx="7.935" cy="7.968" r="6.984"/>
	<g>
		<g>
			<path fill="#FFFFFF" d="M8,0.762C4.009,0.762,0.762,4.009,0.762,8c0,3.99,3.247,7.237,7.238,7.237
				c3.991,0,7.238-3.247,7.238-7.237C15.238,4.009,11.991,0.762,8,0.762z M8,13.956c-3.285,0-5.957-2.672-5.957-5.956
				c0-3.285,2.672-5.957,5.957-5.957c3.285,0,5.957,2.672,5.957,5.957C13.957,11.284,11.285,13.956,8,13.956z"/>
		</g>
	</g>
	<g>
		<g>
			<rect x="6.25" y="5.091" fill="#FFFFFF" width="5" height="0.961"/>
		</g>
		<g>
			<rect x="4.25" y="5.091" fill="#FFFFFF" width="0.92" height="1"/>
		</g>
	</g>
	<g>
		<g>
			<rect x="6.25" y="7.091" fill="#FFFFFF" width="5" height="0.961"/>
		</g>
		<g>
			<rect x="4.25" y="7.091" fill="#FFFFFF" width="0.92" height="1"/>
		</g>
	</g>
	<g>
		<g>
			<rect x="6.25" y="9.091" fill="#FFFFFF" width="5" height="0.961"/>
		</g>
		<g>
			<rect x="4.25" y="9.091" fill="#FFFFFF" width="0.92" height="1"/>
		</g>
	</g>
</g>
</svg>
