/* XPM */
static char * capture_ethernet_16_xpm[] = {
"16 16 144 2",
"  	c None",
". 	c #6A6A6A",
"+ 	c #3F3F3F",
"@ 	c #565656",
"# 	c #535353",
"$ 	c #4B5A45",
"% 	c #7C9773",
"& 	c #7B906D",
"* 	c #80916D",
"= 	c #748766",
"- 	c #7D8E6A",
"; 	c #708362",
"> 	c #6D7B5B",
", 	c #75815E",
"' 	c #718060",
") 	c #697756",
"! 	c #6F7B5C",
"~ 	c #5C6E52",
"{ 	c #4B523F",
"] 	c #576B50",
"^ 	c #959D92",
"/ 	c #AAAEA9",
"( 	c #8F968B",
"_ 	c #A3A7A1",
": 	c #8B9388",
"< 	c #676E64",
"[ 	c #525D42",
"} 	c #727B6D",
"| 	c #47543F",
"1 	c #6F746D",
"2 	c #4C5C42",
"3 	c #6C6C6C",
"4 	c #444D3B",
"5 	c #909A8D",
"6 	c #A5A5A5",
"7 	c #BDBDBD",
"8 	c #ABABAB",
"9 	c #9A9A9A",
"0 	c #666765",
"a 	c #575E4C",
"b 	c #98987A",
"c 	c #3F4831",
"d 	c #979076",
"e 	c #425039",
"f 	c #777777",
"g 	c #444E3C",
"h 	c #6D7B68",
"i 	c #888888",
"j 	c #868686",
"k 	c #737373",
"l 	c #6D6D6D",
"m 	c #636363",
"n 	c #464845",
"o 	c #3F4836",
"p 	c #957665",
"q 	c #3B3A28",
"r 	c #94655A",
"s 	c #3F4C36",
"t 	c #6F6F6F",
"u 	c #44523F",
"v 	c #506349",
"w 	c #454D41",
"x 	c #555A53",
"y 	c #3A4138",
"z 	c #515550",
"A 	c #363C34",
"B 	c #343932",
"C 	c #464E37",
"D 	c #4B5844",
"E 	c #384430",
"F 	c #434B3E",
"G 	c #4F4F4F",
"H 	c #475642",
"I 	c #6B7F5E",
"J 	c #566246",
"K 	c #585F44",
"L 	c #454E37",
"M 	c #4B533B",
"N 	c #495039",
"O 	c #53593F",
"P 	c #61694A",
"Q 	c #5F6D4B",
"R 	c #616C4A",
"S 	c #6F755F",
"T 	c #586151",
"U 	c #4A4A4A",
"V 	c #455440",
"W 	c #848F71",
"X 	c #606549",
"Y 	c #79785F",
"Z 	c #7E8065",
"` 	c #5D614D",
" .	c #616247",
"..	c #4F5E40",
"+.	c #566847",
"@.	c #5E6E4B",
"#.	c #76856C",
"$.	c #616161",
"%.	c #585858",
"&.	c #787775",
"*.	c #B3B3B3",
"=.	c #666666",
"-.	c #3F4C3A",
";.	c #6F7B59",
">.	c #3D402E",
",.	c #484833",
"'.	c #4F513A",
").	c #494A34",
"!.	c #41422F",
"~.	c #5B6647",
"{.	c #6B7752",
"].	c #60704C",
"^.	c #707C5D",
"/.	c #4B4B4B",
"(.	c #474747",
"_.	c #646464",
":.	c #6E6E6E",
"<.	c #1F1F1F",
"[.	c #5B7151",
"}.	c #6B7654",
"|.	c #687251",
"1.	c #687250",
"2.	c #66714F",
"3.	c #66704F",
"4.	c #6A7551",
"5.	c #6C7853",
"6.	c #65724D",
"7.	c #2F3B26",
"8.	c #1E2618",
"9.	c #11150D",
"0.	c #525252",
"a.	c #33402D",
"b.	c #A5A175",
"c.	c #A4A074",
"d.	c #A39F73",
"e.	c #A39E72",
"f.	c #A29E72",
"g.	c #A09B6F",
"h.	c #131910",
"i.	c #3F402E",
"j.	c #3E3F2D",
"k.	c #3E3E2C",
"l.	c #3D3C2B",
"m.	c #3C3C3C",
"                                ",
"                          . +   ",
"                          @     ",
"                          #     ",
"                          #     ",
"$ % & * = - ; > , ' ) ! ~ #     ",
"{ ] ^ / ( _ : < [ } | 1 2 3     ",
"4 5 6 7 8 6 9 0 a b c d e f     ",
"g h i j k l m n o p q r s t     ",
"u v w x y z A B C D E F s G     ",
"H I J K L M N O P Q R S T U     ",
"V W X Y Z `  ...+.@.#.$.%.&.*.=.",
"-.;.>.,.'.).!.~.{.].^./.(._.:.<.",
"  [.}.|.1.2.3.4.5.6.7.8.9.0.    ",
"  a.b.c.c.d.e.e.f.g.h.    #     ",
"    i.j.j.j.k.k.k.l.      m.    "};
