/* XPM */
char * capture_capture_16_xpm[] = {
"16 16 151 2",
"  	c None",
". 	c #7F7F7F",
"+ 	c #A9A9A9",
"@ 	c #8E8E8E",
"# 	c #373737",
"$ 	c #545454",
"% 	c #3D3D3D",
"& 	c #F1F1F1",
"* 	c #C2C2C2",
"= 	c #A4A4A4",
"- 	c #121212",
"; 	c #212121",
"> 	c #E9E9E9",
", 	c #C7C7C7",
"' 	c #505050",
") 	c #979797",
"! 	c #595958",
"~ 	c #181818",
"{ 	c #1F1F1F",
"] 	c #A0A0A0",
"^ 	c #323232",
"/ 	c #5F5E5B",
"( 	c #5D5C59",
"_ 	c #1D1C1B",
": 	c #7A7A7A",
"< 	c #838383",
"[ 	c #1E2018",
"} 	c #7F847C",
"| 	c #3B3C3B",
"1 	c #000000",
"2 	c #353535",
"3 	c #696865",
"4 	c #6D6B65",
"5 	c #6B6964",
"6 	c #54534D",
"7 	c #282828",
"8 	c #828282",
"9 	c #3D4536",
"0 	c #566147",
"a 	c #535D44",
"b 	c #5E6B57",
"c 	c #30322F",
"d 	c #313131",
"e 	c #91908C",
"f 	c #595854",
"g 	c #737270",
"h 	c #73726C",
"i 	c #131211",
"j 	c #808080",
"k 	c #5E5F55",
"l 	c #57624E",
"m 	c #636958",
"n 	c #5A6852",
"o 	c #5A5D59",
"p 	c #686868",
"q 	c #5B5A56",
"r 	c #7A7772",
"s 	c #7F7D77",
"t 	c #41403C",
"u 	c #464646",
"v 	c #7E7A6B",
"w 	c #575E4B",
"x 	c #7A7862",
"y 	c #525D4A",
"z 	c #686A66",
"A 	c #B4B4B4",
"B 	c #4D4D4D",
"C 	c #0F0F0E",
"D 	c #454545",
"E 	c #7E7E7E",
"F 	c #7B564E",
"G 	c #534C3D",
"H 	c #785042",
"I 	c #4E5947",
"J 	c #5B5D59",
"K 	c #E6E6E6",
"L 	c #E5E5E5",
"M 	c #989898",
"N 	c #DCDCDC",
"O 	c #E3E3E3",
"P 	c #7D7D7D",
"Q 	c #3C4338",
"R 	c #3D4836",
"S 	c #424A3C",
"T 	c #3B3D39",
"U 	c #080A07",
"V 	c #5E605E",
"W 	c #51524F",
"X 	c #455137",
"Y 	c #687355",
"Z 	c #656B55",
"` 	c #5F6759",
" .	c #393B38",
"..	c #242B21",
"+.	c #6B725C",
"@.	c #53503F",
"#.	c #565546",
"$.	c #555445",
"%.	c #474533",
"&.	c #313B28",
"*.	c #445036",
"=.	c #5D6B49",
"-.	c #6F7C64",
";.	c #6A6C68",
">.	c #6D6D6D",
",.	c #615F5D",
"'.	c #273024",
").	c #73805E",
"!.	c #4A4C36",
"~.	c #434632",
"{.	c #56583E",
"].	c #4B4D36",
"^.	c #484A35",
"/.	c #5C6647",
"(.	c #6A7652",
"_.	c #60704C",
":.	c #667359",
"<.	c #4E514A",
"[.	c #585957",
"}.	c #525352",
"|.	c #3F3F3F",
"1.	c #313C2D",
"2.	c #5A7051",
"3.	c #6E7655",
"4.	c #5C684A",
"5.	c #6B7352",
"6.	c #5A6547",
"7.	c #68704F",
"8.	c #616E4B",
"9.	c #6E7954",
"0.	c #66734E",
"a.	c #37412C",
"b.	c #1D2317",
"c.	c #2C302A",
"d.	c #242423",
"e.	c #364430",
"f.	c #B3AB7D",
"g.	c #8B8E66",
"h.	c #B3AA7C",
"i.	c #898D64",
"j.	c #B2A97B",
"k.	c #898B63",
"l.	c #B2A87B",
"m.	c #868760",
"n.	c #171D12",
"o.	c #3B3829",
"p.	c #2D2E21",
"q.	c #2D2D20",
"r.	c #3B3828",
"s.	c #2C2C1F",
"t.	c #2A2A2A",
"                                ",
"  . + + + + @ #           $ %   ",
"  + & & & & * = -         ;     ",
"  + > , ' ' ) ! ~         {     ",
"  + ] ^ / ( _ : < [     } |     ",
"1 + 2 3 4 5 6 7 8 9 0 a b c     ",
"1 + d e f g h i j k l m n o     ",
"1 + p q r s t u j v w x y z     ",
"1 + A B C C D = E F G H I J     ",
"1 + K L M M N O P Q R S I T     ",
"U V E E P P P P W X Y Z `  .    ",
"..+.@.@.#.$.%.&.*.=.-.;.>.,.@ . ",
"'.).!.~.{.].^./.(._.:.<.[.}.p |.",
"1.2.3.4.5.6.7.8.9.0.a.b.c.d.    ",
"  e.f.g.h.i.j.k.l.m.n.    {     ",
"    o.p.o.p.o.q.r.s.      t.    "};
