/* XPM */
static const char * capture_start_24_xpm[] = {
"24 24 241 2",
"  	c None",
". 	c #000000",
"+ 	c #FEFEFE",
"@ 	c #FDFDFD",
"# 	c #E0E0E0",
"$ 	c #C1C1C1",
"% 	c #7C7C7C",
"& 	c #6A6A6A",
"* 	c #606060",
"= 	c #353535",
"- 	c #F1F1F1",
"; 	c #C3C3C3",
"> 	c #FBFBFB",
", 	c #A8A8A8",
"' 	c #656565",
") 	c #ADADAD",
"! 	c #767676",
"~ 	c #5D5D5D",
"{ 	c #404040",
"] 	c #CFCFCF",
"^ 	c #A4A4A4",
"/ 	c #666666",
"( 	c #494947",
"_ 	c #161616",
": 	c #CFCECA",
"< 	c #B7B7B7",
"[ 	c #C5C5C5",
"} 	c #EFEFEF",
"| 	c #E1E1E0",
"1 	c #97958F",
"2 	c #898781",
"3 	c #8E8C85",
"4 	c #838078",
"5 	c #B5B5B5",
"6 	c #C4C4C4",
"7 	c #4C503C",
"8 	c #474C38",
"9 	c #4C4F3A",
"0 	c #464B37",
"a 	c #333E2D",
"b 	c #90948E",
"c 	c #7B7973",
"d 	c #67655F",
"e 	c #403F3B",
"f 	c #686661",
"g 	c #7C7A72",
"h 	c #64745B",
"i 	c #566447",
"j 	c #68795E",
"k 	c #505C41",
"l 	c #4E6043",
"m 	c #91988C",
"n 	c #DDDCDB",
"o 	c #9A9992",
"p 	c #53524E",
"q 	c #171614",
"r 	c #767573",
"s 	c #9B9993",
"t 	c #54524C",
"u 	c #757C71",
"v 	c #495742",
"w 	c #6F7C68",
"x 	c #4C5449",
"y 	c #435438",
"z 	c #8E968A",
"A 	c #313131",
"B 	c #7C7B76",
"C 	c #86847D",
"D 	c #9A9996",
"E 	c #B7B6B3",
"F 	c #7D7B75",
"G 	c #C0C0C0",
"H 	c #BBB49C",
"I 	c #424936",
"J 	c #868E7B",
"K 	c #736C54",
"L 	c #3C4C32",
"M 	c #8D9488",
"N 	c #5F5F5F",
"O 	c #EAEAEA",
"P 	c #8E8C87",
"Q 	c #6C6A66",
"R 	c #78756C",
"S 	c #5F5D56",
"T 	c #54534D",
"U 	c #9D9D9D",
"V 	c #BFBFBF",
"W 	c #BFB9A2",
"X 	c #3E4431",
"Y 	c #878E7C",
"Z 	c #746E56",
"` 	c #303D28",
" .	c #515151",
"..	c #E8E8E8",
"+.	c #44433F",
"@.	c #BEBEBE",
"#.	c #C67461",
"$.	c #3C2B1B",
"%.	c #887E6C",
"&.	c #7A2310",
"*.	c #303C27",
"=.	c #474747",
"-.	c #E7E7E7",
";.	c #E6E6E6",
">.	c #E4E4E4",
",.	c #BDBDBD",
"'.	c #9C9C9C",
").	c #3B4237",
"!.	c #747C70",
"~.	c #2E3B26",
"{.	c #8C9387",
"].	c #373737",
"^.	c #E5E5E5",
"/.	c #E3E3E3",
"(.	c #BBBBBB",
"_.	c #394930",
":.	c #2F3B28",
"<.	c #3E4E34",
"[.	c #252E1E",
"}.	c #303D27",
"|.	c #8B9286",
"1.	c #C2C2C2",
"2.	c #BCBCBC",
"3.	c #A0A0A0",
"4.	c #0E100B",
"5.	c #506242",
"6.	c #616C4B",
"7.	c #556142",
"8.	c #5E6646",
"9.	c #38472D",
"0.	c #8B9186",
"a.	c #495943",
"b.	c #3F4631",
"c.	c #687551",
"d.	c #6E7C5E",
"e.	c #9FA194",
"f.	c #959595",
"g.	c #2D2D2D",
"h.	c #7C9671",
"i.	c #A0A086",
"j.	c #766E52",
"k.	c #888B76",
"l.	c #868874",
"m.	c #858772",
"n.	c #545C41",
"o.	c #44563A",
"p.	c #4D6141",
"q.	c #79825A",
"r.	c #506442",
"s.	c #5C6E50",
"t.	c #7F867B",
"u.	c #545454",
"v.	c #909090",
"w.	c #56534E",
"x.	c #B6B6B6",
"y.	c #939393",
"z.	c #878787",
"A.	c #77906D",
"B.	c #80805C",
"C.	c #323124",
"D.	c #5B593E",
"E.	c #343325",
"F.	c #626245",
"G.	c #5A583E",
"H.	c #302E22",
"I.	c #5F6246",
"J.	c #5F6A4A",
"K.	c #677450",
"L.	c #77805A",
"M.	c #4F6442",
"N.	c #5F7153",
"O.	c #7E8479",
"P.	c #4F4F4F",
"Q.	c #575757",
"R.	c #505050",
"S.	c #AAAAAA",
"T.	c #4E4E4E",
"U.	c #383838",
"V.	c #738C69",
"W.	c #556A4C",
"X.	c #646B4D",
"Y.	c #575F44",
"Z.	c #404D36",
"`.	c #606648",
" +	c #575F43",
".+	c #3D4832",
"++	c #5B6044",
"@+	c #545F42",
"#+	c #566645",
"$+	c #707A55",
"%+	c #757E57",
"&+	c #646F4C",
"*+	c #565F48",
"=+	c #171D12",
"-+	c #10150D",
";+	c #7A7C79",
">+	c #060606",
",+	c #41503C",
"'+	c #637D58",
")+	c #808660",
"!+	c #606E4E",
"~+	c #6A7553",
"{+	c #7D835E",
"]+	c #5C6A4A",
"^+	c #687351",
"/+	c #7A7F5A",
"(+	c #5B6A49",
"_+	c #6C7752",
":+	c #7E845D",
"<+	c #5B6C48",
"[+	c #69744F",
"}+	c #293422",
"|+	c #181F14",
"1+	c #14180F",
"2+	c #0F130C",
"3+	c #3A4833",
"4+	c #C8BA89",
"5+	c #8C9068",
"6+	c #8C8F67",
"7+	c #C8B988",
"8+	c #8B8E66",
"9+	c #8A8E65",
"0+	c #C7B888",
"a+	c #8A8C64",
"b+	c #8A8D64",
"c+	c #898B62",
"d+	c #868760",
"e+	c #161C12",
"f+	c #2E3B29",
"g+	c #C6B888",
"h+	c #898B64",
"i+	c #888A63",
"j+	c #C6B887",
"k+	c #888A62",
"l+	c #878A62",
"m+	c #C6B786",
"n+	c #878861",
"o+	c #868860",
"p+	c #83845D",
"q+	c #181E13",
"r+	c #3A3A3A",
"                                                ",
"    . . . . . . . . .                   . .     ",
"  . + + + + + + @ # $ .               % & * =   ",
"  . + - - - - - - ; > , .             ' .       ",
"  . + - - - - - - ) ! ~ { .           ~ .       ",
"  . + - ] ^ . . . ) / ( _ .           ~ .       ",
"  . + - . . . : . . . < [ .           ; .       ",
"  . + } . | 1 2 3 4 . 5 6 . 7 8 9 0 a b .       ",
". . @ . . c d e f g . . ; . h i j k l m .       ",
". . @ . n o p q r s t . $ . u v w x y z A       ",
". . @ . . B C D E F . . G . H I J K L M N       ",
". . @ O . P Q R S T . U V . W X Y Z ` M  .      ",
". . @ ... . . +.. . . [ @.. #.$.%.&.*.M =.      ",
". . @ -.-.;.. . . [ >.>.,.. '.).!./ ~.{.].      ",
". . @ ;.^.^.^.>.>./././.(.. _.:.<.[.}.|..       ",
". . 1.,.,.,.2.2.(.(.(.(.3.4.5.6.7.8.9.0..       ",
". a.. . . . . . . . . . . b.c.d.e./ / f.g.' ].  ",
". h.i.j.k.j.l.j.m.j.n.o.p.q.r.s.t.u.u.v.w.x.y.z.",
". A.B.C.D.E.F.E.G.H.I.J.K.L.M.N.O.P.Q.v.R.S.T.U.",
". V.W.X.Y.Z.`. +.+++@+#+$+M.%+&+*+=+-+;+>+.     ",
"  ,+'+)+!+~+{+]+^+/+(+_+:+<+[+}+|+1+2+~ .       ",
"    3+4+5+6+7+8+9+0+a+b+0+c+d+e+      ~ .       ",
"    f+g+h+i+j+k+l+m+n+o+m+o+p+q+      ~ .       ",
"      . . . . . . . . . . . .         r+        "};
