/* XPM */
static char * capture_24_xpm[] = {
"24 24 165 2",
"  	c None",
". 	c #000000",
"+ 	c #D3D3D3",
"@ 	c #F6F6F6",
"# 	c #FFFFFF",
"$ 	c #F9F9F9",
"% 	c #DADADA",
"& 	c #585858",
"* 	c #C7C7C7",
"= 	c #D1D1D1",
"- 	c #D6D6D6",
"; 	c #FEFEFE",
"> 	c #FDFDFD",
", 	c #C0C0C0",
"' 	c #E1E1E1",
") 	c #F0F0F0",
"! 	c #9B9B9B",
"~ 	c #FCFCFB",
"{ 	c #FBFBFB",
"] 	c #AFAFAE",
"^ 	c #E9E9E9",
"/ 	c #DFDFDF",
"( 	c #8F8F8F",
"_ 	c #FAFAF9",
": 	c #F9F9F8",
"< 	c #A4A4A3",
"[ 	c #F4F4F4",
"} 	c #CFCFCF",
"| 	c #A2A2A2",
"1 	c #F8F8F7",
"2 	c #F8F7F6",
"3 	c #9E9E9E",
"4 	c #010101",
"5 	c #F7F6F5",
"6 	c #F6F6F4",
"7 	c #F4F3F2",
"8 	c #DEDDDC",
"9 	c #D3D2D0",
"0 	c #B7B7B5",
"a 	c #9F9E9D",
"b 	c #706F6F",
"c 	c #65625A",
"d 	c #D7D7D6",
"e 	c #0C0C0C",
"f 	c #C6C5C4",
"g 	c #060606",
"h 	c #DDDCDA",
"i 	c #C4C4C3",
"j 	c #D0D0CF",
"k 	c #E4E4E2",
"l 	c #DAD9D7",
"m 	c #D8D8D6",
"n 	c #CDCCCA",
"o 	c #AFAEAC",
"p 	c #88847B",
"q 	c #EEEEEE",
"r 	c #B2B2B0",
"s 	c #484641",
"t 	c #9F9D96",
"u 	c #888781",
"v 	c #373736",
"w 	c #EEEDEB",
"x 	c #EDECEA",
"y 	c #E9E8E6",
"z 	c #D5D4D3",
"A 	c #C4C3C2",
"B 	c #8F8A81",
"C 	c #9D9C98",
"D 	c #91908A",
"E 	c #908E86",
"F 	c #97958E",
"G 	c #807D74",
"H 	c #0C0C0B",
"I 	c #ECEBE9",
"J 	c #EAE9E7",
"K 	c #E5E4E2",
"L 	c #E4E3E0",
"M 	c #D2D1CE",
"N 	c #8D887E",
"O 	c #C3C2C1",
"P 	c #595854",
"Q 	c #605E57",
"R 	c #898883",
"S 	c #76746B",
"T 	c #BCBCBA",
"U 	c #E8E7E5",
"V 	c #E5E4E1",
"W 	c #E2E1DE",
"X 	c #E1DFDC",
"Y 	c #979288",
"Z 	c #020202",
"` 	c #43423F",
" .	c #282724",
"..	c #363430",
"+.	c #6D6B63",
"@.	c #191919",
"#.	c #121211",
"$.	c #A49E93",
"%.	c #EEEEED",
"&.	c #B6B5AF",
"*.	c #21201E",
"=.	c #0A0908",
"-.	c #181816",
";.	c #E6E6E4",
">.	c #65635C",
",.	c #E3E2DF",
"'.	c #E2E0DD",
").	c #E1E0DC",
"!.	c #E0DFDB",
"~.	c #A19C90",
"{.	c #161614",
"].	c #8C8B89",
"^.	c #DFDEDC",
"/.	c #131313",
"(.	c #E3E2DE",
"_.	c #DFDEDA",
":.	c #DEDDD9",
"<.	c #DDDCD8",
"[.	c #A19B90",
"}.	c #BCBBB9",
"|.	c #0B0B0B",
"1.	c #B0AFA9",
"2.	c #D5D4D1",
"3.	c #93918B",
"4.	c #B6B5B2",
"5.	c #DCDBD7",
"6.	c #ABA9A3",
"7.	c #5D5C55",
"8.	c #DBD9D5",
"9.	c #D9D7D3",
"0.	c #9F998D",
"a.	c #333332",
"b.	c #080808",
"c.	c #494943",
"d.	c #333232",
"e.	c #DDDBD7",
"f.	c #DCDAD6",
"g.	c #D8D6D2",
"h.	c #9E988D",
"i.	c #EDEDED",
"j.	c #C2C1BE",
"k.	c #B3B2AF",
"l.	c #181818",
"m.	c #42413C",
"n.	c #C1BFBC",
"o.	c #D8D6D1",
"p.	c #D7D5D1",
"q.	c #9D978B",
"r.	c #E1DFDB",
"s.	c #E0DEDA",
"t.	c #131312",
"u.	c #111111",
"v.	c #DEDCD8",
"w.	c #D7D6D1",
"x.	c #D5D3CE",
"y.	c #9B958A",
"z.	c #999891",
"A.	c #A39E92",
"B.	c #A39D92",
"C.	c #A39D91",
"D.	c #A29C90",
"E.	c #A19B8F",
"F.	c #9D978C",
"G.	c #9B968A",
"H.	c #676359",
"                                                ",
"      . . . . . . . . . . . . .                 ",
"    . + @ # # # # # # # # $ % & .               ",
"    . @ # # # # # # # # # # * = - .             ",
"    . # # # # # # # ; # ; > , ' ) ! .           ",
"    . # # # # # ; > ~ > ~ { ] ^ # / ( .         ",
"    . # # # ; > ~ { _ { _ : < ) # [ } | .       ",
"    . # ; > ~ { _ : 1 : 1 2 3 . . . . . . .     ",
"    . # ~ { _ : 4 4 4 2 5 6 7 8 9 0 a b c .     ",
"    . # d e e f g h g i e e j k l m n o p .     ",
"    . # e q r e s t s e u v e w x y z A B .     ",
"    . # e C D t t t E F G s H I J K L M N .     ",
"    . # O e t t P Q R G S e T U V L W X Y .     ",
"    . Z 4 s t Q `  ...t +.s @.#.V L W X $..     ",
"    . Z %.&.t P *.=.-.;.G >.Q #.,.'.).!.~..     ",
"    . Z g s t R ..{.].^.>.s /./.(._.:.<.[..     ",
"    . # }.|.1.G &.;.2.3.>.|.4.(.!.:.<.5.[..     ",
"    . # |.&.6.t G G S S 7.s |.!.:.5.8.9.0..     ",
"    . $ |.a.P b.s S s |.c.d.|.:.e.f.9.g.h..     ",
"    . i.j.|.|.k.l.m.l.k.|.|.n.e.f.9.o.p.q..     ",
"    . = r.s._.:.t.u.u.:.s.v.v.f.f.g.w.x.y..     ",
"    . z.A.$.B.C.B.~.D.~.D.E.[.0.0.F.F.G.H..     ",
"      . . . . . . . . . . . . . . . . . .       ",
"                                                "};
