<?xml version="1.0" encoding="utf-8"?>
<!-- Generator: Adobe Illustrator 15.0.2, SVG Export Plug-In . SVG Version: 6.00 Build 0)  -->
<!DOCTYPE svg PUBLIC "-//W3C//DTD SVG 1.1//EN" "http://www.w3.org/Graphics/SVG/1.1/DTD/svg11.dtd">
<svg version="1.1" id="Layer_1" xmlns="http://www.w3.org/2000/svg" xmlns:xlink="http://www.w3.org/1999/xlink" x="0px" y="0px"
	 width="16px" height="16px" viewBox="0 0 16 16" enable-background="new 0 0 16 16" xml:space="preserve">
<g>
	<path fill="#999999" d="M8,16c-4.418,0-8-3.579-8-7.996C0,3.581,3.582,0,8,0s8,3.581,8,8.004C16,12.421,12.418,16,8,16z"/>
	<circle fill="#DC0000" cx="7.997" cy="8.15" r="6.983"/>
	<path fill="#FFFFFF" d="M8,0.759c-3.992,0-7.238,3.252-7.238,7.245c0,3.986,3.247,7.238,7.238,7.238
		c3.992,0,7.238-3.252,7.238-7.238C15.238,4.011,11.992,0.759,8,0.759z M8,13.961c-3.285,0-5.957-2.674-5.957-5.957
		c0-3.291,2.672-5.963,5.957-5.963s5.957,2.672,5.957,5.963C13.957,11.287,11.285,13.961,8,13.961z"/>
	<path fill="#FFFFFF" d="M9.145,12.068H5.061V9.814h4.084c0.555,0,1.008-0.456,1.008-1.008v-0.88c0-0.551-0.436-0.997-0.979-1.008
		H7.429v1.717l-3.53-2.667l3.53-2.679v1.361h1.343l0,0h0.372c1.803,0,3.273,1.465,3.273,3.275v0.88
		C12.418,10.603,10.947,12.068,9.145,12.068z"/>
</g>
</svg>
