/* XPM */
static const char * capture_restart_24_xpm[] = {
"24 24 270 2",
"  	c None",
". 	c #000000",
"+ 	c #F7F3DF",
"@ 	c #7C7C7C",
"# 	c #6A6A6A",
"$ 	c #606060",
"% 	c #353535",
"& 	c #F9F6EA",
"* 	c #EED680",
"= 	c #656565",
"- 	c #303030",
"; 	c #F9F5E4",
"> 	c #F4E4AD",
", 	c #F7EECC",
"' 	c #EFE4C2",
") 	c #948A6F",
"! 	c #5D5D5D",
"~ 	c #F9F5E6",
"{ 	c #F1DD97",
"] 	c #D1B051",
"^ 	c #F2EFE4",
"/ 	c #C0A048",
"( 	c #C3C3C3",
"_ 	c #C3A970",
": 	c #D1940C",
"< 	c #E0B74C",
"[ 	c #D9C374",
"} 	c #2C2E22",
"| 	c #4C503C",
"1 	c #474C38",
"2 	c #4C4F3A",
"3 	c #464B37",
"4 	c #333E2D",
"5 	c #90948E",
"6 	c #8CA880",
"7 	c #BCA36B",
"8 	c #D59D1C",
"9 	c #B1933F",
"0 	c #64745B",
"a 	c #566447",
"b 	c #68795E",
"c 	c #505C41",
"d 	c #4E6043",
"e 	c #91988C",
"f 	c #7A8F6C",
"g 	c #5C7255",
"h 	c #BEA56F",
"i 	c #986B07",
"j 	c #DFB74A",
"k 	c #CCB76D",
"l 	c #757C71",
"m 	c #495742",
"n 	c #6F7C68",
"o 	c #4C5449",
"p 	c #435438",
"q 	c #8E968A",
"r 	c #313131",
"s 	c #6E7F61",
"t 	c #949C91",
"u 	c #ACACAC",
"v 	c #BC9F5F",
"w 	c #A2A2A2",
"x 	c #5F5F5F",
"y 	c #B8820A",
"z 	c #D9A72E",
"A 	c #BBB49C",
"B 	c #424936",
"C 	c #868E7B",
"D 	c #736C54",
"E 	c #3C4C32",
"F 	c #8D9488",
"G 	c #6E7F60",
"H 	c #97A094",
"I 	c #AFAFAF",
"J 	c #C2C2C2",
"K 	c #ABABAB",
"L 	c #6D6D6D",
"M 	c #BFB9A2",
"N 	c #3E4431",
"O 	c #878E7C",
"P 	c #746E56",
"Q 	c #303D28",
"R 	c #515151",
"S 	c #6B8263",
"T 	c #8E8E8E",
"U 	c #A9A9A9",
"V 	c #8C8C8C",
"W 	c #888888",
"X 	c #808080",
"Y 	c #D4B150",
"Z 	c #A39256",
"` 	c #1C2418",
" .	c #C67461",
"..	c #3C2B1B",
"+.	c #887E6C",
"@.	c #7A2310",
"#.	c #303C27",
"$.	c #474747",
"%.	c #3D4B37",
"&.	c #727671",
"*.	c #656863",
"=.	c #616460",
"-.	c #5D605C",
";.	c #5C5E5A",
">.	c #5A5D59",
",.	c #3C3E3B",
"'.	c #E2CB79",
").	c #4A5139",
"!.	c #9C9C9C",
"~.	c #3B4237",
"{.	c #747C70",
"].	c #666666",
"^.	c #2E3B26",
"/.	c #8C9387",
"(.	c #373737",
"_.	c #7E9A75",
":.	c #4B5E44",
"<.	c #3E473B",
"[.	c #363D34",
"}.	c #323830",
"|.	c #2F342D",
"1.	c #2E332D",
"2.	c #C9B46B",
"3.	c #8D7E4A",
"4.	c #3D4D34",
"5.	c #394930",
"6.	c #2F3B28",
"7.	c #3E4E34",
"8.	c #252E1E",
"9.	c #303D27",
"0.	c #8B9286",
"a.	c #809B76",
"b.	c #586E51",
"c.	c #616C4D",
"d.	c #545B42",
"e.	c #4F553D",
"f.	c #4C513A",
"g.	c #494E38",
"h.	c #484D37",
"i.	c #3A3D2B",
"j.	c #0C0C09",
"k.	c #080A07",
"l.	c #454C35",
"m.	c #566244",
"n.	c #506242",
"o.	c #616C4B",
"p.	c #556142",
"q.	c #5E6646",
"r.	c #38472D",
"s.	c #8B9186",
"t.	c #7E9A74",
"u.	c #7B8562",
"v.	c #58684A",
"w.	c #43543C",
"x.	c #5B6548",
"y.	c #3C4C35",
"z.	c #5A6346",
"A.	c #3C4C34",
"B.	c #686E4E",
"C.	c #5A6446",
"D.	c #5F6A4A",
"E.	c #64704E",
"F.	c #687451",
"G.	c #687551",
"H.	c #6E7C5E",
"I.	c #9FA194",
"J.	c #959595",
"K.	c #2D2D2D",
"L.	c #7C9671",
"M.	c #A0A086",
"N.	c #766E52",
"O.	c #888B76",
"P.	c #868874",
"Q.	c #858772",
"R.	c #545C41",
"S.	c #44563A",
"T.	c #4D6141",
"U.	c #79825A",
"V.	c #506442",
"W.	c #5C6E50",
"X.	c #7F867B",
"Y.	c #545454",
"Z.	c #909090",
"`.	c #56534E",
" +	c #B6B6B6",
".+	c #939393",
"++	c #878787",
"@+	c #77906D",
"#+	c #80805C",
"$+	c #323124",
"%+	c #5B593E",
"&+	c #343325",
"*+	c #626245",
"=+	c #5A583E",
"-+	c #302E22",
";+	c #5F6246",
">+	c #677450",
",+	c #77805A",
"'+	c #4F6442",
")+	c #5F7153",
"!+	c #7E8479",
"~+	c #4F4F4F",
"{+	c #575757",
"]+	c #505050",
"^+	c #AAAAAA",
"/+	c #4E4E4E",
"(+	c #383838",
"_+	c #738C69",
":+	c #556A4C",
"<+	c #646B4D",
"[+	c #575F44",
"}+	c #404D36",
"|+	c #606648",
"1+	c #575F43",
"2+	c #3D4832",
"3+	c #5B6044",
"4+	c #545F42",
"5+	c #566645",
"6+	c #707A55",
"7+	c #757E57",
"8+	c #646F4C",
"9+	c #565F48",
"0+	c #171D12",
"a+	c #10150D",
"b+	c #7A7C79",
"c+	c #060606",
"d+	c #41503C",
"e+	c #637D58",
"f+	c #808660",
"g+	c #606E4E",
"h+	c #6A7553",
"i+	c #7D835E",
"j+	c #5C6A4A",
"k+	c #687351",
"l+	c #7A7F5A",
"m+	c #5B6A49",
"n+	c #6C7752",
"o+	c #7E845D",
"p+	c #5B6C48",
"q+	c #69744F",
"r+	c #293422",
"s+	c #181F14",
"t+	c #14180F",
"u+	c #0F130C",
"v+	c #3A4833",
"w+	c #C8BA89",
"x+	c #8C9068",
"y+	c #8C8F67",
"z+	c #C8B988",
"A+	c #8B8E66",
"B+	c #8A8E65",
"C+	c #C7B888",
"D+	c #8A8C64",
"E+	c #8A8D64",
"F+	c #898B62",
"G+	c #868760",
"H+	c #161C12",
"I+	c #2E3B29",
"J+	c #C6B888",
"K+	c #898B64",
"L+	c #888A63",
"M+	c #C6B887",
"N+	c #888A62",
"O+	c #878A62",
"P+	c #C6B786",
"Q+	c #878861",
"R+	c #868860",
"S+	c #83845D",
"T+	c #181E13",
"U+	c #3A3A3A",
"            .                                   ",
"          . .                           . .     ",
"        . + .                         @ # $ %   ",
"      . & * . . . .                   = .       ",
"    - ; * * > , ' ) . .               ! .       ",
"  . ~ { * * * * * * ] . .             ! .       ",
". ^ { * * * * * * * * / .             ( .       ",
"  . _ : : : : : : < * [ . } | 1 2 3 4 5 .       ",
". 6 . 7 : : : : : : 8 * 9 . 0 a b c d e .       ",
". f g . h : . . . i : j k . l m n o p q r       ",
". s t u . v . w x . y z * . A B C D E F x       ",
". G H u I . . J K L . : * . M N O P Q F R       ",
". S H w T U . V W X . Y Z `  ...+.@.#.F $.      ",
". s %.&.*.=.-.;.>.,.. '.. ).!.~.{.].^./.(.      ",
". _.:.<.[.}.}.|.1.. 2.3.. 4.5.6.7.8.9.0..       ",
". a.b.c.d.e.f.g.h.i.j.k.l.m.n.o.p.q.r.s..       ",
". t.u.v.w.x.y.z.A.B.C.D.E.F.G.H.I.].].J.K.= (.  ",
". L.M.N.O.N.P.N.Q.N.R.S.T.U.V.W.X.Y.Y.Z.`. +.+++",
". @+#+$+%+&+*+&+=+-+;+D.>+,+'+)+!+~+{+Z.]+^+/+(+",
". _+:+<+[+}+|+1+2+3+4+5+6+'+7+8+9+0+a+b+c+.     ",
"  d+e+f+g+h+i+j+k+l+m+n+o+p+q+r+s+t+u+! .       ",
"    v+w+x+y+z+A+B+C+D+E+C+F+G+H+      ! .       ",
"    I+J+K+L+M+N+O+P+Q+R+P+R+S+T+      ! .       ",
"      . . . . . . . . . . . .         U+        "};
