<?xml version="1.0" encoding="utf-8"?>
<!-- Generator: Adobe Illustrator 15.0.2, SVG Export Plug-In . SVG Version: 6.00 Build 0)  -->
<!DOCTYPE svg PUBLIC "-//W3C//DTD SVG 1.1//EN" "http://www.w3.org/Graphics/SVG/1.1/DTD/svg11.dtd">
<svg version="1.1"
	 id="svg548" sodipodi:version="0.32" sodipodi:docname="capture_restart_16.svg" inkscape:version="0.48.2 r9819" inkscape:export-filename="/tmp/capture_restart_16.png" inkscape:export-xdpi="90" inkscape:export-ydpi="90" xmlns:inkscape="http://www.inkscape.org/namespaces/inkscape" xmlns:sodipodi="http://sodipodi.sourceforge.net/DTD/sodipodi-0.dtd" xmlns:svg="http://www.w3.org/2000/svg" xmlns:rdf="http://www.w3.org/1999/02/22-rdf-syntax-ns#" xmlns:cc="http://creativecommons.org/ns#" xmlns:dc="http://purl.org/dc/elements/1.1/"
	 xmlns="http://www.w3.org/2000/svg" xmlns:xlink="http://www.w3.org/1999/xlink" x="0px" y="0px" width="16px" height="16px"
	 viewBox="0 0 16 16" enable-background="new 0 0 16 16" xml:space="preserve">
<sodipodi:namedview  inkscape:current-layer="svg548" inkscape:window-width="1443" showguides="true" inkscape:guide-bbox="true" inkscape:window-maximized="0" inkscape:window-height="719" inkscape:cy="7.6491369" inkscape:cx="5.4011982" inkscape:window-x="0" id="base" inkscape:window-y="865" showgrid="true" inkscape:zoom="17.042168">
	
		<inkscape:grid  type="xygrid" enabled="true" visible="true" spacingx="0.5px" spacingy="0.5px" empspacing="5" snapvisiblegridlinesonly="true" id="grid3142">
		</inkscape:grid>
</sodipodi:namedview>
<path fill="none" enable-background="new    " d="M0,0"/>
<g>
	<path fill="#FFFFFF" d="M1.058,15.338l13.508,0.021c-0.736-1.84-3.164-8.883,0.156-14.697C3.471,1.236,1.353,13.141,1.058,15.338z"
		/>
	<g>
		<g>
			<path fill="#999999" d="M15.049,16L15.049,16L0.698,15.979c-0.09,0-0.175-0.037-0.236-0.104c-0.06-0.066-0.09-0.154-0.083-0.243
				c0.013-0.155,1.469-15.418,14.918-15.63c0.11-0.016,0.227,0.06,0.284,0.164c0.058,0.103,0.054,0.229-0.011,0.328
				c-3.946,6.179-0.629,14.148-0.264,14.979c0.047,0.057,0.074,0.129,0.074,0.207c0,0.176-0.145,0.319-0.32,0.319
				C15.059,16,15.055,16,15.049,16z M1.058,15.338l13.508,0.021c-0.736-1.84-3.164-8.883,0.156-14.697
				C3.471,1.236,1.353,13.141,1.058,15.338z"/>
		</g>
		
			<path id="path2995_5_" inkscape:export-filename="/home/gerald/devel/wsweb/image/wslogo.png" inkscape:export-xdpi="90.000000" inkscape:export-ydpi="90.000000" inkscape:connector-curvature="0" sodipodi:nodetypes="cccc" fill="#21DE08" d="
			M2.251,14.441c0,0,1.542-11.5,11.187-12.836c-2.992,6.23-0.145,12.851-0.145,12.851L2.251,14.441z"/>
	</g>
	<g>
		<g>
			<path fill="#FFFFFF" d="M11.021,8.319l-0.185-0.185L9.734,9.236L9.92,9.42c0.318,0.32,0.496,0.747,0.496,1.2
				s-0.178,0.88-0.496,1.198c-0.641,0.642-1.76,0.641-2.399,0c-0.655-0.654-0.658-1.715-0.018-2.377l1.578,1.523l0.663-4.79
				L4.839,6.763L6.252,8.19l0.149,0.149c-1.249,1.271-1.244,3.32,0.019,4.582c0.613,0.614,1.431,0.951,2.301,0.951
				c0.87,0,1.688-0.337,2.301-0.951C12.289,11.65,12.289,9.588,11.021,8.319z"/>
		</g>
	</g>
</g>
</svg>
