/* XPM */
static char * cfilter_24_xpm[] = {
"24 24 71 1",
" 	c None",
".	c #000000",
"+	c #DDDCDA",
"@	c #F8F0EE",
"#	c #E5B9BB",
"$	c #895F63",
"%	c #EEEEEE",
"&	c #B2B2B0",
"*	c #484641",
"=	c #9F9D96",
"-	c #888781",
";	c #E7BDBC",
">	c #C14B35",
",	c #922B34",
"'	c #9D9C98",
")	c #91908A",
"!	c #908E86",
"~	c #97958E",
"{	c #807D74",
"]	c #C24F3C",
"^	c #942B32",
"/	c #595854",
"(	c #605E57",
"_	c #898883",
":	c #76746B",
"<	c #E8BFBE",
"[	c #43423F",
"}	c #282724",
"|	c #363430",
"1	c #6D6B63",
"2	c #E8C2BF",
"3	c #C34E3B",
"4	c #EEEEED",
"5	c #B6B5AF",
"6	c #21201E",
"7	c #0A0908",
"8	c #181816",
"9	c #E6E6E4",
"0	c #65635C",
"a	c #161614",
"b	c #8C8B89",
"c	c #DFDEDC",
"d	c #B0AFA9",
"e	c #D5D4D1",
"f	c #93918B",
"g	c #C24F3A",
"h	c #ABA9A3",
"i	c #5D5C55",
"j	c #C24D38",
"k	c #494943",
"l	c #E5B8B9",
"m	c #C24F38",
"n	c #42413C",
"o	c #E2B1AA",
"p	c #CC6B5A",
"q	c #643C3E",
"r	c #E3B5AC",
"s	c #E3B3A9",
"t	c #D07868",
"u	c #982E19",
"v	c #7E261F",
"w	c #120C0F",
"x	c #2B1D1F",
"y	c #DFAA9E",
"z	c #D28575",
"A	c #7D2617",
"B	c #321C23",
"C	c #3B262E",
"D	c #D68A7A",
"E	c #321C21",
"F	c #3F2A35",
"                        ",
"                        ",
"                ...     ",
"     .....   .. .+. ..  ",
"     .@#$.  .%&.*=*.-.. ",
"     .;>,.  .')===!~{*. ",
"     .;]^.   .==/(_{:.  ",
"     .<]^. ..*=([}|=1*..",
"     .23^. .45=/6789{0(.",
"     .;]^. ..*=_|abc0*..",
"     .;]^.   .d{59ef0.  ",
"     .;g^.  .5h={{::i*. ",
"     .;j^.  ../.*:*.k.. ",
"     .lm^.   .. .n. ..  ",
"   ...op^...    ...     ",
"   .qrstuvw.            ",
"    .xyzAB.             ",
"     .CDE.              ",
"      .F.               ",
"       .                ",
"                        ",
"                        ",
"                        ",
"                        "};
