/* XPM */
static const char * checkbox_16_xpm[] = {
"16 16 25 1",
" 	c None",
".	c #9D9D9D",
"+	c #E0E0E0",
"@	c #DADADA",
"#	c #F4F4F4",
"$	c #DBDBDB",
"%	c #FFFFFF",
"&	c #818181",
"*	c #424242",
"=	c #737373",
"-	c #C1C1C1",
";	c #000000",
">	c #B2B2B2",
",	c #6C6C6C",
"'	c #909090",
")	c #C8C8C8",
"!	c #7D7D7D",
"~	c #A4A4A4",
"{	c #1E1E1E",
"]	c #BEBEBE",
"^	c #676767",
"/	c #121212",
"(	c #444444",
"_	c #DDDDDD",
":	c #8A8A8A",
"                ",
"                ",
"   ...........  ",
"  .++++++++++@. ",
"  .+########$%. ",
"  .+#######&*%. ",
"  .+######=*-%. ",
"  .+#####=;>#%. ",
"  .+#,'#);=##%. ",
"  .+!;;~*{]##%. ",
"  .+#^/;;(###%. ",
"  .+#_~/;:###%. ",
"  .+###'*@###%. ",
"  .@%%%%%%%%%%. ",
"   ...........  ",
"                "};
