/* XPM */
static const char * colorize_24_xpm[] = {
"24 24 57 1",
" 	c None",
".	c #000000",
"+	c #E2E2E2",
"@	c #F2F2F2",
"#	c #F3F3F3",
"$	c #F4F4F4",
"%	c #F5F5F5",
"&	c #F6F6F6",
"*	c #F7F7F7",
"=	c #DBDBDB",
"-	c #F0F0F0",
";	c #E0E0E0",
">	c #E1E1E1",
",	c #E3E3E3",
"'	c #E4E4E4",
")	c #E5E5E5",
"!	c #E6E6E6",
"~	c #E7E7E7",
"{	c #E8E8E8",
"]	c #E9E9E9",
"^	c #EAEAEA",
"/	c #EBEBEB",
"(	c #ECECEC",
"_	c #EDEDED",
":	c #EEEEEE",
"<	c #EFEFEF",
"[	c #801D1D",
"}	c #F1F1F1",
"|	c #F3F161",
"1	c #61F395",
"2	c #6861F3",
"3	c #EE61F3",
"4	c #F8F8F8",
"5	c #8B8B8B",
"6	c #8C8C8C",
"7	c #8D8D8D",
"8	c #8E8E8E",
"9	c #8F8F8F",
"0	c #909090",
"a	c #919191",
"b	c #929292",
"c	c #939393",
"d	c #F9F9F9",
"e	c #FAFAFA",
"f	c #FBFBFB",
"g	c #FCFCFC",
"h	c #FDFDFD",
"i	c #FEFEFE",
"j	c #61DDF3",
"k	c #FFFFFF",
"l	c #949494",
"m	c #959595",
"n	c #969696",
"o	c #979797",
"p	c #989898",
"q	c #C9C9C9",
"r	c #BDBDBD",
" ....................   ",
".+@@@@###$$$%%%&&**$=.  ",
".-;;>+,')!~{{]^/(_:<_.  ",
".@>[[[[[[[[[[[[[[[[-}.  ",
".@+,,')!~{]^/((_:<-}@.  ",
".#,||||||||||||||||@#.  ",
".#'1111111111111111#$.  ",
".#)2222222222222222$%.  ",
".$!~{]^^/(_:<-}@##$%&.  ",
".$~1111111111111111&*.  ",
".%{3333333333333333*4.  ",
".%]56677899900abbcc4d.  ",
".%^/(_:<-}@@#$%&*4dee.  ",
".&/3333333333333333fg.  ",
".*__:<-}@#$%%&*4defgh.  ",
".*:[[[[[[[[[[[[[[[[hi.  ",
".4-jjjjjjjjjjjjjjjjkk.  ",
".4}00aabbcclmmnnnopkk.  ",
".@@#$%&&*4defghikkkk(.  ",
".q_4%&*44defghikkkk:r.  ",
" ....................   ",
"                        ",
"                        ",
"                        "};
