/* XPM */
static const char * decode_24_xpm[] = {
"24 24 246 2",
"  	c None",
". 	c #ACADAA",
"+ 	c #8F908C",
"@ 	c #A5A7A3",
"# 	c #939590",
"$ 	c #AFB0AD",
"% 	c #8D8F8A",
"& 	c #CED2CA",
"* 	c #B1B2AF",
"= 	c #E7E8E7",
"- 	c #92948F",
"; 	c #B3B6AF",
"> 	c #AEB1AB",
", 	c #BABEB7",
"' 	c #D3D7CF",
") 	c #BCBFB8",
"! 	c #ABAEA7",
"~ 	c #B7BAB3",
"{ 	c #8E908B",
"] 	c #ACAEAA",
"^ 	c #AFB2AC",
"/ 	c #B4B7B0",
"( 	c #A7A8A5",
"_ 	c #A9AAA7",
": 	c #8B8D88",
"< 	c #BBBEB7",
"[ 	c #B2B5AF",
"} 	c #90918D",
"| 	c #B1B4AD",
"1 	c #BEC2BA",
"2 	c #A8AAA6",
"3 	c #8A8D87",
"4 	c #CFD3CB",
"5 	c #90928D",
"6 	c #CECFCD",
"7 	c #8A8C87",
"8 	c #D1D5CD",
"9 	c #898B86",
"0 	c #A1A39F",
"a 	c #91938F",
"b 	c #C0C3BC",
"c 	c #ADB0AA",
"d 	c #898C86",
"e 	c #ABADA8",
"f 	c #C0C4BC",
"g 	c #9C9D98",
"h 	c #E3E3E3",
"i 	c #939592",
"j 	c #656763",
"k 	c #C3C3C2",
"l 	c #CCCCCB",
"m 	c #666865",
"n 	c #9D9E9C",
"o 	c #E6E6E6",
"p 	c #AFB3AC",
"q 	c #DEDEDD",
"r 	c #60635E",
"s 	c #AAACA8",
"t 	c #C4C6C2",
"u 	c #636562",
"v 	c #C7C8C7",
"w 	c #636561",
"x 	c #BCBEBB",
"y 	c #A0A39D",
"z 	c #61635F",
"A 	c #CDCDCC",
"B 	c #8E8F8B",
"C 	c #B9BDB6",
"D 	c #B2B6AF",
"E 	c #C2C6BE",
"F 	c #B5B8B1",
"G 	c #BDC0B9",
"H 	c #8B8E88",
"I 	c #DFDFDE",
"J 	c #7B7C79",
"K 	c #E3E5E0",
"L 	c #E3E6E1",
"M 	c #C2C4C1",
"N 	c #838581",
"O 	c #BABCB9",
"P 	c #E7EAE5",
"Q 	c #E6E8E4",
"R 	c #8B8E89",
"S 	c #E3E3E2",
"T 	c #8C8E89",
"U 	c #A4A6A2",
"V 	c #A5A6A2",
"W 	c #E0E0DF",
"X 	c #D7D8D7",
"Y 	c #CFCFCE",
"Z 	c #D7D7D6",
"` 	c #676965",
" .	c #E5E8E3",
"..	c #E0E3DE",
"+.	c #E9EBE7",
"@.	c #EEF0ED",
"#.	c #EDEFEC",
"$.	c #E8EBE6",
"%.	c #7C7E7A",
"&.	c #C9CAC9",
"*.	c #D2D2D1",
"=.	c #9EA09C",
"-.	c #888A85",
";.	c #9EA09B",
">.	c #F3F3F3",
",.	c #8C8E8A",
"'.	c #787A77",
").	c #B7BAB6",
"!.	c #E3E7E1",
"~.	c #E5E8E4",
"{.	c #EDEFED",
"].	c #F2F3F1",
"^.	c #F1F2EF",
"/.	c #EAECE8",
"(.	c #E7EAE6",
"_.	c #797A78",
":.	c #8B8D89",
"<.	c #676A65",
"[.	c #DBDBDA",
"}.	c #B2B3B1",
"|.	c #A0A29E",
"1.	c #DFE2DD",
"2.	c #E1E4DE",
"3.	c #E0E3DD",
"4.	c #E7E9E5",
"5.	c #D7D8D5",
"6.	c #81847F",
"7.	c #737471",
"8.	c #868784",
"9.	c #D1D3CF",
"0.	c #E9EBE8",
"a.	c #E2E5E1",
"b.	c #E4E7E2",
"c.	c #E1E4DF",
"d.	c #BEC0BB",
"e.	c #8A8C88",
"f.	c #757672",
"g.	c #BFC1BC",
"h.	c #DDE0D9",
"i.	c #CFD4CB",
"j.	c #DDE0DB",
"k.	c #D6D8D4",
"l.	c #626360",
"m.	c #CBCCCB",
"n.	c #E4E4E4",
"o.	c #666864",
"p.	c #D2D3D1",
"q.	c #E2E5DF",
"r.	c #D4D8D0",
"s.	c #D1D3CE",
"t.	c #60625E",
"u.	c #CFD0CF",
"v.	c #C0C2BE",
"w.	c #DCDFD9",
"x.	c #E6E9E5",
"y.	c #868884",
"z.	c #DCDCDB",
"A.	c #70726F",
"B.	c #EBEDE9",
"C.	c #DDE0DA",
"D.	c #CCCDCA",
"E.	c #D4D4D3",
"F.	c #EDEEEB",
"G.	c #747672",
"H.	c #F4F4F4",
"I.	c #5E605C",
"J.	c #F0F1EF",
"K.	c #999A98",
"L.	c #C2C3C1",
"M.	c #686966",
"N.	c #DBDED8",
"O.	c #D1D2D1",
"P.	c #E1E2E1",
"Q.	c #727370",
"R.	c #EEEFEC",
"S.	c #D9DDD6",
"T.	c #D9DBD8",
"U.	c #6C6E69",
"V.	c #BEBFBD",
"W.	c #717470",
"X.	c #D3D5D1",
"Y.	c #DFE2DC",
"Z.	c #C3C9BF",
"`.	c #DBDED7",
" +	c #F1F1F1",
".+	c #DFDFDF",
"++	c #CBCDC9",
"@+	c #C6CBC1",
"#+	c #DDE1DB",
"$+	c #DEE0DC",
"%+	c #C3C5C1",
"&+	c #EBEDEA",
"*+	c #D9DBD7",
"=+	c #797B77",
"-+	c #D0D2CE",
";+	c #F0F1EE",
">+	c #ECEEEB",
",+	c #C4C6C3",
"'+	c #9D9E9B",
")+	c #E9E9E9",
"!+	c #666964",
"~+	c #9C9E9A",
"{+	c #818280",
"]+	c #D0D1CE",
"^+	c #DEE1DB",
"/+	c #F4F4F2",
"(+	c #FBFBFA",
"_+	c #F5F6F4",
":+	c #E2E4DF",
"<+	c #DDDEDB",
"[+	c #81827F",
"}+	c #9A9C98",
"|+	c #BCBCBB",
"1+	c #7C7E7B",
"2+	c #F3F4F2",
"3+	c #BDC3B7",
"4+	c #DADED7",
"5+	c #C0C5BA",
"6+	c #ECEDEA",
"7+	c #939491",
"8+	c #9A9A99",
"9+	c #B3B3B2",
"0+	c #E2E2E2",
"a+	c #B2B3B2",
"b+	c #959693",
"c+	c #E8E9E7",
"d+	c #DCDDDB",
"e+	c #E6E9E4",
"f+	c #898988",
"g+	c #EAEAEA",
"h+	c #BFBFBF",
"i+	c #626460",
"j+	c #BEC0BD",
"k+	c #E4E5E3",
"l+	c #696B68",
"m+	c #696968",
"n+	c #E2E3E1",
"o+	c #6B6E69",
"p+	c #9B9C9B",
"q+	c #DADBDA",
"r+	c #9C9D9B",
"s+	c #686B66",
"t+	c #B9B9B9",
"u+	c #9FA09F",
"v+	c #80817F",
"w+	c #BFBFBE",
"                                  . + @         ",
"                              # $ % & + * # =   ",
"                            - ; > , ' ) ! ~ {   ",
"                            ] ^ ' ' ' ' ' / (   ",
"                          _ : < ' [ } | ' 1 % 2 ",
"                          3 4 ' ' 5 6 7 ' ' 8 9 ",
"                          0 a b ' c d e ' f - g ",
"        h i j k   l m n o   . p ' ' ' ' ' > 2   ",
"      q r s t u v w x y z A B C D b ' E F G H   ",
"      I J K L M N O P Q R l S T U { ' 5 V 7 W   ",
"  X Y Z `  ...+.@.#.Q $.%.&.*.6   =.-.;.        ",
">.z ,.'.).!.~.{.].^./.(.t _.:.<.[.              ",
"}.|.1.2.3.4.5.6.7.8.9.0.a.b.c.d.e.              ",
"f.g.h.i.j.k.l.m.n.*.o.p.q.r.j.s.t.              ",
"u.o.v.w.x.y.v       z.A.B.C.D.` v               ",
"  E.y.L F.G.n.      H.I.J.L K.L.                ",
"Y M.D.N.+.y.O.      P.Q.R.S.T.U.V.              ",
"W.X.Y.Z.`.T.l.X  +.+j ++c.@+#+$+z               ",
"n %++.&+2.#.*+=+I.G.-+;+c.>+&+,+'+              ",
")+!+~+{+]+b.^+/+(+_+:+^+<+[+}+`                 ",
"  Z v |+1+2+3+4+>+^+5+6+7+8+9+                  ",
"    0+a+b+2+:+c+b+d+e+6+2 f+                    ",
"    g+h+i+j+k+l+m+z n+k.o+p+                    ",
"      >.q+r+s+K.t+u+w v+w+                      "};
