/* XPM */
static char * dfilter_24_xpm[] = {
"24 24 156 2",
"  	c None",
". 	c #000000",
"+ 	c #D3D3D3",
"@ 	c #F6F6F6",
"# 	c #FFFFFF",
"$ 	c #F9F9F9",
"% 	c #DADADA",
"& 	c #585858",
"* 	c #C7C7C7",
"= 	c #D1D1D1",
"- 	c #D6D6D6",
"; 	c #FAFAFA",
"> 	c #DDDFD2",
", 	c #8B8E7C",
"' 	c #FEFEFE",
") 	c #FDFDFD",
"! 	c #C0C0C0",
"~ 	c #E1E1E1",
"{ 	c #F0F0F0",
"] 	c #9B9B9B",
"^ 	c #E5E7DD",
"/ 	c #84A77E",
"( 	c #586546",
"_ 	c #FCFCFB",
": 	c #FBFBFB",
"< 	c #AFAFAE",
"[ 	c #E9E9E9",
"} 	c #DFDFDF",
"| 	c #8F8F8F",
"1 	c #81A57C",
"2 	c #FAFAF9",
"3 	c #F9F9F8",
"4 	c #A4A4A3",
"5 	c #F4F4F4",
"6 	c #CFCFCF",
"7 	c #A2A2A2",
"8 	c #EDEEE8",
"9 	c #81A57B",
"0 	c #F8F8F7",
"a 	c #F8F7F6",
"b 	c #9E9E9E",
"c 	c #ECEDE6",
"d 	c #F7F6F5",
"e 	c #F6F6F4",
"f 	c #F4F3F2",
"g 	c #DEDDDC",
"h 	c #D3D2D0",
"i 	c #B7B7B5",
"j 	c #9F9E9D",
"k 	c #706F6F",
"l 	c #65625A",
"m 	c #F5F4F3",
"n 	c #F2F2F0",
"o 	c #E4E4E2",
"p 	c #DAD9D7",
"q 	c #D8D8D6",
"r 	c #CDCCCA",
"s 	c #AFAEAC",
"t 	c #88847B",
"u 	c #F3F3F1",
"v 	c #EFEFED",
"w 	c #EEEDEB",
"x 	c #EDECEA",
"y 	c #E9E8E6",
"z 	c #D5D4D3",
"A 	c #C4C3C2",
"B 	c #8F8A81",
"C 	c #F6F5F4",
"D 	c #F5F5F3",
"E 	c #7EA379",
"F 	c #F1F1EF",
"G 	c #F1F0EE",
"H 	c #ECEBE9",
"I 	c #EAE9E7",
"J 	c #E5E4E2",
"K 	c #E4E3E0",
"L 	c #D2D1CE",
"M 	c #8D887E",
"N 	c #F3F2F1",
"O 	c #7DA377",
"P 	c #F0EFED",
"Q 	c #EFEEEC",
"R 	c #E8E7E5",
"S 	c #E5E4E1",
"T 	c #E2E1DE",
"U 	c #E1DFDC",
"V 	c #979288",
"W 	c #DDDFD3",
"X 	c #7DA378",
"Y 	c #A49E93",
"Z 	c #C9D5C4",
"` 	c #7EA378",
" .	c #E8E7E4",
"..	c #E7E6E3",
"+.	c #E3E2DF",
"@.	c #E2E0DD",
"#.	c #E1E0DC",
"$.	c #E0DFDB",
"%.	c #A19C90",
"&.	c #7C7E73",
"*.	c #DFE7DE",
"=.	c #CCDACA",
"-.	c #90B08C",
";.	c #76986D",
">.	c #6C855E",
",.	c #22231E",
"'.	c #E9E8E5",
").	c #E6E4E1",
"!.	c #E3E2DE",
"~.	c #DFDEDA",
"{.	c #DEDDD9",
"].	c #DDDCD8",
"^.	c #A19B90",
"/.	c #EBEAE8",
"(.	c #3F443B",
"_.	c #C8D8C7",
":.	c #9DB89A",
"<.	c #76966B",
"[.	c #3D4237",
"}.	c #E7E5E2",
"|.	c #E4E3DF",
"1.	c #DCDBD7",
"2.	c #E6E5E2",
"3.	c #565B4E",
"4.	c #9EBA9A",
"5.	c #3C4237",
"6.	c #E5E4E0",
"7.	c #E2E1DD",
"8.	c #DBD9D5",
"9.	c #D9D7D3",
"0.	c #9F998D",
"a.	c #5E6154",
"b.	c #DDDBD7",
"c.	c #DCDAD6",
"d.	c #D8D6D2",
"e.	c #9E988D",
"f.	c #EDEDED",
"g.	c #E1E0DD",
"h.	c #E0DEDA",
"i.	c #D8D6D1",
"j.	c #D7D5D1",
"k.	c #9D978B",
"l.	c #E1DFDB",
"m.	c #DEDCD8",
"n.	c #D7D6D1",
"o.	c #D5D3CE",
"p.	c #9B958A",
"q.	c #999891",
"r.	c #A39E92",
"s.	c #A39D92",
"t.	c #A39D91",
"u.	c #A29C90",
"v.	c #A19B8F",
"w.	c #9D978C",
"x.	c #9B968A",
"y.	c #676359",
"                                                ",
"      . . . . . . . . . . . . .                 ",
"    . + @ # # # # # # # # $ % & .               ",
"    . @ # # . . . . . # # # * = - .             ",
"    . # # # . ; > , . # ' ) ! ~ { ] .           ",
"    . # # # . ^ / ( . ) _ : < [ # } | .         ",
"    . # # # . ^ 1 ( . : 2 3 4 { # 5 6 7 .       ",
"    . # ' ) . 8 9 ( . 3 0 a b . . . . . . .     ",
"    . # _ : . c 9 ( . a d e f g h i j k l .     ",
"    . # 2 3 . ^ 1 ( . e m f n o p q r s t .     ",
"    . # 0 a . ^ 1 ( . f u n v w x y z A B .     ",
"    . # C D . ^ E ( . n F G w H I J K L M .     ",
"    . # f N . ^ O ( . G P Q H R S K T U V .     ",
"    . # f N . W X ( . G P Q H R S K T U Y .     ",
"    . # . . . Z ` ( . . . H  ...+.@.#.$.%..     ",
"    . # . &.*.=.-.;.>.,.. '.S ).!.~.{.].^..     ",
"    . # /.. (._.:.<.[.. ..}.|.!.$.{.].1.^..     ",
"    . # ..2.. 3.4.5.. ).6.|.7.$.{.1.8.9.0..     ",
"    . $ K +.!.. a.. !.7.!.#.#.{.b.c.9.d.e..     ",
"    . f.g.U #.$.. $.#.$.#.~.h.b.c.9.i.j.k..     ",
"    . = l.h.~.{.$.{.h.{.h.m.m.c.c.d.n.o.p..     ",
"    . q.r.Y s.t.s.%.u.%.u.v.^.0.0.w.w.x.y..     ",
"      . . . . . . . . . . . . . . . . . .       ",
"                                                "};
