/* XPM */
static const char * endpoints_16_xpm[] = {
"16 16 49 1",
" 	c None",
".	c #79797C",
"+	c #191918",
"@	c #6B6B6B",
"#	c #808080",
"$	c #EDEDED",
"%	c #6B6B6A",
"&	c #D8D8D8",
"*	c #484848",
"=	c #A4A4A4",
"-	c #E6E6E6",
";	c #F3F3F3",
">	c #F5F5F6",
",	c #C0C0C5",
"'	c #F3F3F4",
")	c #F0F0F0",
"!	c #B7B4C3",
"~	c #B7B5C4",
"{	c #F5F5F5",
"]	c #A19DB2",
"^	c #EEEEEE",
"/	c #A19EB2",
"(	c #EAEAEB",
"_	c #D3D3D3",
":	c #C0C0C0",
"<	c #393939",
"[	c #8B8B8B",
"}	c #949494",
"|	c #141413",
"1	c #2A2A29",
"2	c #70706F",
"3	c #898988",
"4	c #A8A8A8",
"5	c #5D5D5C",
"6	c #282827",
"7	c #0F0F0E",
"8	c #D1D1D1",
"9	c #EBEBEB",
"0	c #C8C8C8",
"a	c #C5C5C5",
"b	c #E8E8E8",
"c	c #D9D9D9",
"d	c #C1C1C1",
"e	c #B7B7B7",
"f	c #BCBCBC",
"g	c #B6B6B6",
"h	c #D5D5D5",
"i	c #C4C4C4",
"j	c #151514",
"                ",
"                ",
"   .++++++++    ",
"  @#$$$$$$$%+   ",
"  +$&*****=-+   ",
"  +;*>>,,'*)+   ",
"  +)*!~>{]*)+   ",
"  +^*//((]*^+   ",
"  +$*]]]]]*$+   ",
"  +;_*****:$+   ",
"  <[$$$$$$$}+   ",
"  |12344325+6   ",
"  7;)8990aab+   ",
"  7cdeffg8hi+   ",
"  j+++++++++    ",
"                "};
