/* XPM */
static const char * graphs_16_xpm[] = {
"16 16 4 1",
" 	c None",
".	c #000000",
"+	c #801D1D",
"@	c #101010",
" .              ",
" .              ",
"..              ",
" .              ",
" .              ",
"..              ",
" .              ",
" .              ",
"..           +  ",
" .         +++  ",
" .  +++   ++++  ",
".. +++++++++++  ",
" .++++++++++++  ",
" @++++++++++++  ",
"................",
" .  .  .  .  .  "};
