/* XPM */
static const char * icon_color_5_xpm[] = {
"24 24 3 1",
" 	c None",
".	c #000000",
"+	c #C0E0E0",
"                        ",
" +++++++++++++++++++++  ",
" +++++++++++++++++++++  ",
" +++++++++++++++++++++  ",
" +++++++++++++++++++++  ",
" +++++++++++++++++++++  ",
" +++++++++++++++++++++  ",
" +++++++++++++++++++++  ",
" ++++++++.....++++++++  ",
" ++++++++.++++++++++++  ",
" ++++++++.++++++++++++  ",
" ++++++++.....++++++++  ",
" ++++++++++++.++++++++  ",
" ++++++++++++.++++++++  ",
" ++++++++.....++++++++  ",
" +++++++++++++++++++++  ",
" +++++++++++++++++++++  ",
" +++++++++++++++++++++  ",
" +++++++++++++++++++++  ",
" +++++++++++++++++++++  ",
" +++++++++++++++++++++  ",
" +++++++++++++++++++++  ",
" +++++++++++++++++++++  ",
"                        "};
