/* XPM */
static const char * icon_color_9_xpm[] = {
"24 24 3 1",
" 	c None",
".	c #000000",
"+	c #E0E0C0",
"                        ",
" +++++++++++++++++++++  ",
" +++++++++++++++++++++  ",
" +++++++++++++++++++++  ",
" +++++++++++++++++++++  ",
" +++++++++++++++++++++  ",
" +++++++++++++++++++++  ",
" +++++++++++++++++++++  ",
" +++++++++...+++++++++  ",
" ++++++++.+++.++++++++  ",
" ++++++++.+++.++++++++  ",
" +++++++++...+++++++++  ",
" +++++++++++.+++++++++  ",
" ++++++++++.++++++++++  ",
" ++++++++.++++++++++++  ",
" +++++++++++++++++++++  ",
" +++++++++++++++++++++  ",
" +++++++++++++++++++++  ",
" +++++++++++++++++++++  ",
" +++++++++++++++++++++  ",
" +++++++++++++++++++++  ",
" +++++++++++++++++++++  ",
" +++++++++++++++++++++  ",
"                        "};
