/* XPM */
static const char * icon_color_3_xpm[] = {
"24 24 3 1",
" 	c None",
".	c #000000",
"+	c #E0C0E0",
"                        ",
" +++++++++++++++++++++  ",
" +++++++++++++++++++++  ",
" +++++++++++++++++++++  ",
" +++++++++++++++++++++  ",
" +++++++++++++++++++++  ",
" +++++++++++++++++++++  ",
" +++++++++++++++++++++  ",
" +++++++++...+++++++++  ",
" ++++++++.+++.++++++++  ",
" ++++++++++++.++++++++  ",
" +++++++++...+++++++++  ",
" ++++++++++++.++++++++  ",
" ++++++++.+++.++++++++  ",
" +++++++++...+++++++++  ",
" +++++++++++++++++++++  ",
" +++++++++++++++++++++  ",
" +++++++++++++++++++++  ",
" +++++++++++++++++++++  ",
" +++++++++++++++++++++  ",
" +++++++++++++++++++++  ",
" +++++++++++++++++++++  ",
" +++++++++++++++++++++  ",
"                        "};
