/* XPM */
static const char * internet_24_xpm[] = {
"24 24 310 2",
"  	c None",
". 	c #2D373E",
"+ 	c #374148",
"@ 	c #343A3E",
"# 	c #2E3337",
"$ 	c #32383C",
"% 	c #303B44",
"& 	c #1D2933",
"* 	c #313D47",
"= 	c #6F7980",
"- 	c #BCC5CB",
"; 	c #D2D8DC",
"> 	c #DFE6EB",
", 	c #E8EFF4",
"' 	c #CCD7DE",
") 	c #BDCBD5",
"! 	c #A3B1BC",
"~ 	c #505F6C",
"{ 	c #222F3A",
"] 	c #33383C",
"^ 	c #B8BEC2",
"/ 	c #DFE8EF",
"( 	c #DAE5ED",
"_ 	c #DCE7EE",
": 	c #E4EDF3",
"< 	c #D9E4EC",
"[ 	c #CCDBE5",
"} 	c #C2D3E0",
"| 	c #C4D3DF",
"1 	c #D8E3EA",
"2 	c #A5B1BC",
"3 	c #272F36",
"4 	c #41494F",
"5 	c #B8C3CA",
"6 	c #CFDBE5",
"7 	c #C5D6E3",
"8 	c #D3E2EC",
"9 	c #C7D9E5",
"0 	c #C5D8E5",
"a 	c #C2D4E1",
"b 	c #C4D6E2",
"c 	c #D4E1EA",
"d 	c #CDDAE4",
"e 	c #D4E1E9",
"f 	c #A9B6BF",
"g 	c #313C44",
"h 	c #282F33",
"i 	c #BDC8CE",
"j 	c #DAE6ED",
"k 	c #DDE8EF",
"l 	c #E1ECF3",
"m 	c #D1E1EB",
"n 	c #C4DAE8",
"o 	c #C1D7E6",
"p 	c #BDD3E2",
"q 	c #D9E5ED",
"r 	c #D5E2EA",
"s 	c #D0DEE7",
"t 	c #CBD9E4",
"u 	c #98ACB9",
"v 	c #21292F",
"w 	c #1F2830",
"x 	c #97A7B1",
"y 	c #D6E2EB",
"z 	c #DBE8EF",
"A 	c #C6D7E3",
"B 	c #C3D7E4",
"C 	c #C0D9E8",
"D 	c #C2DBEA",
"E 	c #BCD5E5",
"F 	c #B7D0E0",
"G 	c #C7D8E3",
"H 	c #D3E1EA",
"I 	c #D0DFE9",
"J 	c #CBDAE5",
"K 	c #C6D6E1",
"L 	c #B6CAD8",
"M 	c #7B8F9F",
"N 	c #161E25",
"O 	c #60727F",
"P 	c #C5D5E1",
"Q 	c #D1DFE8",
"R 	c #D4E2EB",
"S 	c #ACC2D3",
"T 	c #AAC5D7",
"U 	c #B4CEE0",
"V 	c #B9D4E5",
"W 	c #BAD5E6",
"X 	c #B5D0E2",
"Y 	c #B6CFDF",
"Z 	c #D0E0EA",
"` 	c #A2BACC",
" .	c #B8CBD9",
"..	c #BBCDDB",
"+.	c #C0D2DE",
"@.	c #B4C8D6",
"#.	c #9AB3C6",
"$.	c #556A7A",
"%.	c #8498A7",
"&.	c #A2B8C9",
"*.	c #9EBACE",
"=.	c #A5C1D5",
"-.	c #A9C6DA",
";.	c #ACCADD",
">.	c #A8C6DB",
",.	c #ADC8DA",
"'.	c #CBDCE7",
").	c #B4C9D8",
"!.	c #A3BACB",
"~.	c #A3B9C9",
"{.	c #ABC1D1",
"].	c #99B3C6",
"^.	c #728A9A",
"/.	c #070D13",
"(.	c #181E23",
"_.	c #899FAE",
":.	c #7E98AD",
"<.	c #96AEC1",
"[.	c #87A5BB",
"}.	c #93B1C7",
"|.	c #97B6CD",
"1.	c #9BBBD1",
"2.	c #9DBDD4",
"3.	c #9DBDD3",
"4.	c #C9DCE8",
"5.	c #C9DBE6",
"6.	c #C4D6E3",
"7.	c #BED2DF",
"8.	c #B8CDDA",
"9.	c #AAC0D0",
"0.	c #9FB8CB",
"a.	c #90AABE",
"b.	c #7990A1",
"c.	c #070D14",
"d.	c #141A20",
"e.	c #98B0C3",
"f.	c #86A2B8",
"g.	c #7292AB",
"h.	c #7E9EB7",
"i.	c #83A4BD",
"j.	c #88A9C2",
"k.	c #8BADC6",
"l.	c #8CAFC8",
"m.	c #9CBACF",
"n.	c #C4D8E5",
"o.	c #C1D4E2",
"p.	c #BCD0DE",
"q.	c #B6CBDA",
"r.	c #AFC5D5",
"s.	c #A4BDCE",
"t.	c #94AEC1",
"u.	c #95AFC2",
"v.	c #4E6A83",
"w.	c #070E14",
"x.	c #0A1117",
"y.	c #51718D",
"z.	c #87A2B7",
"A.	c #85A3B9",
"B.	c #95B0C5",
"C.	c #89A8BF",
"D.	c #7A9EB8",
"E.	c #799DB9",
"F.	c #7A9FBA",
"G.	c #799EBA",
"H.	c #8AAAC2",
"I.	c #BBD0DE",
"J.	c #B7CDDC",
"K.	c #B2C9D8",
"L.	c #ACC4D4",
"M.	c #A5BDCF",
"N.	c #9FB8CA",
"O.	c #91ABBF",
"P.	c #7691A8",
"Q.	c #284969",
"R.	c #060C11",
"S.	c #080E14",
"T.	c #395C7B",
"U.	c #416686",
"V.	c #7895AD",
"W.	c #A8C0D1",
"X.	c #ADC5D5",
"Y.	c #98B3C8",
"Z.	c #6990AD",
"`.	c #668DAC",
" +	c #6289A8",
".+	c #8CA9BF",
"++	c #A6BECF",
"@+	c #A0B9CC",
"#+	c #9BB4C7",
"$+	c #94AFC2",
"%+	c #66839B",
"&+	c #264665",
"*+	c #050B10",
"=+	c #060A0E",
"-+	c #2D4C67",
";+	c #3D6282",
">+	c #708FA8",
",+	c #A2BBCD",
"'+	c #A6BED0",
")+	c #A9C2D2",
"!+	c #96B2C6",
"~+	c #6F92AD",
"{+	c #5A81A0",
"]+	c #59809F",
"^+	c #537998",
"/+	c #4A7090",
"(+	c #587B98",
"_+	c #A0B9CB",
":+	c #96B0C3",
"<+	c #88A3B8",
"[+	c #2A4967",
"}+	c #1D3955",
"|+	c #020609",
"1+	c #25415A",
"2+	c #365A7A",
"3+	c #7492A9",
"4+	c #9CB5C8",
"5+	c #A3BBCD",
"6+	c #4A708F",
"7+	c #4F7595",
"8+	c #4C7292",
"9+	c #496E8F",
"0+	c #436888",
"a+	c #95AFC3",
"b+	c #8FABBF",
"c+	c #708DA4",
"d+	c #254666",
"e+	c #17314B",
"f+	c #000000",
"g+	c #142534",
"h+	c #2E5172",
"i+	c #3D5F7D",
"j+	c #8FA9BD",
"k+	c #99B2C6",
"l+	c #9DB7C9",
"m+	c #748FA7",
"n+	c #426787",
"o+	c #446A8A",
"p+	c #426788",
"q+	c #3F6485",
"r+	c #3B6080",
"s+	c #809CB2",
"t+	c #8EAABE",
"u+	c #89A5BA",
"v+	c #6A879F",
"w+	c #1F3F5F",
"x+	c #0B1824",
"y+	c #010305",
"z+	c #1F3A53",
"A+	c #2C4F6F",
"B+	c #4A6A86",
"C+	c #91ACC0",
"D+	c #94AEC2",
"E+	c #617E96",
"F+	c #3B5F7F",
"G+	c #395D7D",
"H+	c #325676",
"I+	c #7F9BB1",
"J+	c #87A3B8",
"K+	c #819FB5",
"L+	c #25425E",
"M+	c #102438",
"N+	c #000103",
"O+	c #020407",
"P+	c #1F3C58",
"Q+	c #335473",
"R+	c #8CA7BC",
"S+	c #728DA4",
"T+	c #2B4C6B",
"U+	c #315575",
"V+	c #315474",
"W+	c #2F5273",
"X+	c #2D5070",
"Y+	c #2A4C6C",
"Z+	c #587790",
"`+	c #7E9DB3",
" @	c #5F7E95",
".@	c #132D47",
"+@	c #04080D",
"@@	c #25405B",
"#@	c #7F9EB4",
"$@	c #7B98AE",
"%@	c #3D5A74",
"&@	c #284A6A",
"*@	c #264868",
"=@	c #244565",
"-@	c #214262",
";@	c #33526E",
">@	c #48657C",
",@	c #192F46",
"'@	c #03070C",
")@	c #2D4050",
"!@	c #3F5B75",
"~@	c #1D3C5C",
"{@	c #1F405F",
"]@	c #1E3E5D",
"^@	c #1C3B5B",
"/@	c #1A3958",
"(@	c #163554",
"_@	c #0A1B2B",
":@	c #010204",
"<@	c #060C15",
"[@	c #0D2032",
"}@	c #112941",
"|@	c #163351",
"1@	c #173554",
"2@	c #15314F",
"3@	c #102A44",
"4@	c #0A1C2E",
"5@	c #030A10",
"                                                ",
"                . + @ # $ % &                   ",
"            * = - ; > , ' ) ! ~ {               ",
"          ] ^ / ( _ : < [ } | 1 2 3             ",
"        4 5 6 _ 7 8 9 0 a b c d e f g           ",
"      h i j k l m n n o p q r c s t u v         ",
"    w x y q z A B C D E F G H I J K L M N       ",
"    O P Q R S T U V W X Y Z `  ...+.@.#.$.      ",
"    %.+.J &.*.=.-.;.;.>.,.Z '.).!.~.{.].^./.    ",
"  (._.:.<.[.}.|.1.2.2.3.4.5.6.7.8.9.0.a.b.c.    ",
"  d.e.f.g.h.i.j.k.l.l.m.n.o.p.q.r.s.t.u.v.w.    ",
"  x.y.z.A.B.C.D.E.F.G.H.I.J.K.L.M.N.O.P.Q.R.    ",
"  S.T.U.V.W.X.Y.Z.`.`. +.+N.t.++@+#+$+%+&+*+    ",
"  =+-+;+>+,+'+)+!+~+{+]+^+/+(+_+#+:+<+[+}+|+    ",
"    1+2+3+4+_+5+M.++6+7+8+9+0+t.a+b+c+d+e+f+    ",
"    g+h+i+j+k+4+l+m+n+o+p+q+r+s+t+u+v+w+x+f+    ",
"    y+z+A+B+C+D+:+E+r+F+G+2+H+I+J+K+L+M+N+      ",
"      O+P+Q+u+R+S+T+U+V+W+X+Y+Z+`+ @.@y+f+      ",
"        +@@@#@$@%@&@&@&@*@=@-@;@>@,@'@f+        ",
"          y+)@!@~@w+{@w+]@^@/@(@_@:@f+          ",
"            f+<@[@}@|@1@2@3@4@5@f+f+            ",
"                f+f+f+f+f+f+f+f+                ",
"                                                ",
"                                                "};
