/* XPM */
static const char * modem_16_xpm[] = {
"16 16 93 2",
"  	c None",
". 	c #3769A6",
"+ 	c #3667A5",
"@ 	c #3869A7",
"# 	c #3566A5",
"$ 	c #3565A3",
"% 	c #3D6BA8",
"& 	c #779BC6",
"* 	c #A7C2E0",
"= 	c #AAC5E2",
"- 	c #3466A3",
"; 	c #265290",
"> 	c #97B7D8",
", 	c #92B4DA",
"' 	c #76A2D0",
") 	c #4373AE",
"! 	c #3465A4",
"~ 	c #729FCF",
"{ 	c #719FCF",
"] 	c #97B6D8",
"^ 	c #204A87",
"/ 	c #254F8B",
"( 	c #26508D",
"_ 	c #2C5795",
": 	c #4674AF",
"< 	c #80A9D4",
"[ 	c #4676AF",
"} 	c #2C5796",
"| 	c #3767A4",
"1 	c #6490C2",
"2 	c #E0E9F3",
"3 	c #FDFDFD",
"4 	c #D8DBD5",
"5 	c #D5D7D1",
"6 	c #6590C3",
"7 	c #3867A4",
"8 	c #2F5E9B",
"9 	c #7BA5D1",
"0 	c #D7DAD4",
"a 	c #F6F6F5",
"b 	c #CFD2CC",
"c 	c #CBCDC7",
"d 	c #7CA5D1",
"e 	c #3F6BA4",
"f 	c #F0F0EE",
"g 	c #D6D9D3",
"h 	c #D3D5CF",
"i 	c #406BA5",
"j 	c #28548F",
"k 	c #5D87B9",
"l 	c #D2D7D2",
"m 	c #D6D9D2",
"n 	c #EEEEEC",
"o 	c #CED1CA",
"p 	c #C6CAC5",
"q 	c #5E88B9",
"r 	c #2A5390",
"s 	c #204B88",
"t 	c #5D89BD",
"u 	c #618DC0",
"v 	c #848887",
"w 	c #224D88",
"x 	c #3869A6",
"y 	c #396AA7",
"z 	c #254E89",
"A 	c #818688",
"B 	c #838580",
"C 	c #FFFFFF",
"D 	c #708CB3",
"E 	c #214A88",
"F 	c #6F8BB2",
"G 	c #82847F",
"H 	c #777974",
"I 	c #EFEFED",
"J 	c #6D6F6B",
"K 	c #A3C781",
"L 	c #6FA73A",
"M 	c #CCCCCC",
"N 	c #E2D87E",
"O 	c #D1C235",
"P 	c #F3B87E",
"Q 	c #EC8F35",
"R 	c #646662",
"S 	c #72A93E",
"T 	c #6BA534",
"U 	c #D2C339",
"V 	c #D0C02F",
"W 	c #EC9139",
"X 	c #EB8C2F",
"Y 	c #5E605C",
"Z 	c #60625E",
"` 	c #575955",
" .	c #555753",
"    . + @ @ @ @ @ @ @ @ # .     ",
"$ % & * = = = = = = = = * & % - ",
"; > , ' ) ! ! ~ { ! ! ) ' , ] ; ",
"^ / ( _ : < ! ! ! ! < [ } ( / ^ ",
"      | 1 2 3 4 5 3 2 6 7       ",
"      8 9 0 0 a a b c d 8       ",
"      e < f f g h f f < i       ",
"    j k < l m n n o p < q r     ",
"    s t u u u u u u u u t s     ",
"  v w x y y y y y y y y x z A   ",
"B C D E ^ ^ ^ ^ ^ ^ ^ ^ E F C G ",
"H C I I I I I I I I I I I I C H ",
"J C K L M N O M P Q M M M M C J ",
"R C S T M U V M W X M M M M C R ",
"Y C C C C C C C C C C C C C C Y ",
"Z `  . . . . . . . . . . . .` Z "};
