/* XPM */
static char * network_wireless_16_xpm[] = {
"16 16 136 2",
"  	c None",
". 	c #3963AA",
"+ 	c #356AAA",
"@ 	c #71AAC6",
"# 	c #719CD5",
"$ 	c #74A2D1",
"% 	c #2B55AA",
"& 	c #3264A1",
"* 	c #809FBF",
"= 	c #6699C4",
"- 	c #628DC9",
"; 	c #71A2CE",
"> 	c #6FA2D1",
", 	c #3263AA",
"' 	c #3068A7",
") 	c #6495C7",
"! 	c #5686BC",
"~ 	c #739ACD",
"{ 	c #739FCF",
"] 	c #71A0D0",
"^ 	c #3567A6",
"/ 	c #4B78B4",
"( 	c #739CCE",
"_ 	c #5181B7",
": 	c #6592C4",
"< 	c #719ED0",
"[ 	c #668299",
"} 	c #868786",
"| 	c #5E625F",
"1 	c #66839D",
"2 	c #3565A4",
"3 	c #68A2D1",
"4 	c #72A1D0",
"5 	c #4A78B4",
"6 	c #719ECE",
"7 	c #666868",
"8 	c #FBFBFA",
"9 	c #D0D0CE",
"0 	c #606463",
"a 	c #3365A5",
"b 	c #6DA0CC",
"c 	c #4676B0",
"d 	c #719DCD",
"e 	c #719ECC",
"f 	c #5E6160",
"g 	c #D2D3D0",
"h 	c #CFCFCC",
"i 	c #606362",
"j 	c #3666A6",
"k 	c #618DBD",
"l 	c #73A1CE",
"m 	c #4979B3",
"n 	c #618FC4",
"o 	c #7998B6",
"p 	c #7B8E9B",
"q 	c #5C605E",
"r 	c #5D605E",
"s 	c #7D8F9F",
"t 	c #3465A6",
"u 	c #4776B3",
"v 	c #72A0CE",
"w 	c #5F8DC0",
"x 	c #4273AC",
"y 	c #818B92",
"z 	c #B8C8DA",
"A 	c #91AAC1",
"B 	c #7F8D96",
"C 	c #3366A6",
"D 	c #3868A6",
"E 	c #6D98CA",
"F 	c #577BA8",
"G 	c #4C72A3",
"H 	c #ADC2DB",
"I 	c #AAB8C7",
"J 	c #8493A1",
"K 	c #A7BCD4",
"L 	c #3464A4",
"M 	c #3E6EAD",
"N 	c #729FCD",
"O 	c #868C8D",
"P 	c #ACB9CA",
"Q 	c #6384AD",
"R 	c #4973AA",
"S 	c #4F79B0",
"T 	c #6E8FB8",
"U 	c #AEBBCD",
"V 	c #888A87",
"W 	c #336699",
"X 	c #55799D",
"Y 	c #9C9D99",
"Z 	c #F4F4F4",
"` 	c #8D8E8A",
" .	c #8D908C",
"..	c #B9BBB8",
"+.	c #F0F0EF",
"@.	c #FFFFFF",
"#.	c #858986",
"$.	c #D6D6D5",
"%.	c #D7D8D6",
"&.	c #DBDBDA",
"*.	c #F8F9F8",
"=.	c #B3B4B1",
"-.	c #C3C5C3",
";.	c #D4D4D3",
">.	c #7A848A",
",.	c #898984",
"'.	c #969894",
").	c #EBEBEB",
"!.	c #D3D4D2",
"~.	c #C0C1BE",
"{.	c #B0B1AE",
"].	c #A6A8A4",
"^.	c #F6F6F6",
"/.	c #898986",
"(.	c #888A85",
"_.	c #CDCECC",
":.	c #C8C8C6",
"<.	c #989A96",
"[.	c #A8AAA6",
"}.	c #B8B9B6",
"|.	c #C8C9C7",
"1.	c #D8D8D7",
"2.	c #E8E8E7",
"3.	c #FCFCFB",
"4.	c #DEDFDD",
"5.	c #EAEAE9",
"6.	c #939590",
"7.	c #888C85",
"8.	c #888885",
"9.	c #888A86",
"0.	c #888A84",
"a.	c #888B85",
"b.	c #878B85",
"c.	c #E7E8E7",
"d.	c #898B85",
"e.	c #878A85",
"  . +     @ # $ $ # @     + .   ",
"% &   * = - ; > > ; - = *   & % ",
", ' $ ) ! ~ { ] ] { ~ ! ) $ ' , ",
"^ / ( _ : < [ } | 1 < : _ ( / ^ ",
"2 3 4 5 ] 6 7 8 9 0 6 ] 5 4 3 2 ",
"a b 6 c d e f g h i e d c 6 b a ",
"j k l m n o p q r s o n m l k j ",
"t u v w x y z A A z B x w v u t ",
"C D E < F G H I J K G F < E D C ",
"  L M N O P Q R S T U V N M L   ",
"  W a X Y Z `  ...+.@.Y X a W   ",
"    % #.$.%.&.*.&.=.-.;.>.%     ",
"    ,.'.@.8 ).!.~.{.].^.'./.    ",
"    (._.:.<.[.}.|.1.2.3.4.(.    ",
"    (.5.6.7.8.9.0.a.b.6.c.(.    ",
"    d.(.d.            e.(.d.    "};
