/* XPM */
static const char * network_wired_16_xpm[] = {
"16 16 102 2",
"  	c None",
". 	c #8B8C88",
"+ 	c #898B86",
"@ 	c #8C8E89",
"# 	c #F1F1F0",
"$ 	c #FFFFFF",
"% 	c #F0F0EF",
"& 	c #8B8D89",
"* 	c #FEFEFE",
"= 	c #EFEFED",
"- 	c #EEEEEC",
"; 	c #EDEDEB",
"> 	c #ECEDEA",
", 	c #ECECEA",
"' 	c #ECECE9",
") 	c #EBECE9",
"! 	c #EBEBE9",
"~ 	c #F0F0EE",
"{ 	c #F3F4F2",
"] 	c #F4F4F2",
"^ 	c #EAEAE8",
"/ 	c #E9EAE7",
"( 	c #EFEFEE",
"_ 	c #E8E9E6",
": 	c #8D8F8A",
"< 	c #888A85",
"[ 	c #8B8D88",
"} 	c #F4F4F3",
"| 	c #EEEFEC",
"1 	c #E8E9E5",
"2 	c #EAEBE8",
"3 	c #4A4F4E",
"4 	c #2E3436",
"5 	c #4A4F4F",
"6 	c #9B9E98",
"7 	c #ACAFA8",
"8 	c #F4F5F3",
"9 	c #E6E7E4",
"0 	c #E9E9E6",
"a 	c #BABDB6",
"b 	c #F5F5F4",
"c 	c #E5E6E2",
"d 	c #5D5E5B",
"e 	c #565853",
"f 	c #565854",
"g 	c #555753",
"h 	c #595B58",
"i 	c #434745",
"j 	c #F5F6F4",
"k 	c #E3E5E1",
"l 	c #5C5F5A",
"m 	c #D7D7D6",
"n 	c #CCCEC9",
"o 	c #D3D5D1",
"p 	c #F6F6F5",
"q 	c #F6F7F6",
"r 	c #B0A751",
"s 	c #F6F7F5",
"t 	c #E2E4DF",
"u 	c #B0B1AF",
"v 	c #A2A39F",
"w 	c #D4D6D2",
"x 	c #BDC0B9",
"y 	c #F7F8F6",
"z 	c #E1E2DE",
"A 	c #EDEDEC",
"B 	c #B2C2D4",
"C 	c #ACBDD3",
"D 	c #C9CCC7",
"E 	c #DFE0DD",
"F 	c #F7F8F7",
"G 	c #F8F8F7",
"H 	c #DFE1DC",
"I 	c #555754",
"J 	c #7998BF",
"K 	c #4F7BB1",
"L 	c #3C6CA8",
"M 	c #B1B2B0",
"N 	c #717470",
"O 	c #E0E2DD",
"P 	c #DFE1DB",
"Q 	c #DEE0DB",
"R 	c #DFE1DD",
"S 	c #436389",
"T 	c #517DB3",
"U 	c #96B6DA",
"V 	c #4F7AB1",
"W 	c #B2C1D5",
"X 	c #B3B5B1",
"Y 	c #6F716E",
"Z 	c #EDEDED",
"` 	c #E9EBE8",
" .	c #8A8D88",
"..	c #4B77AD",
"+.	c #4B76AC",
"@.	c #43638A",
"#.	c #565855",
"$.	c #656662",
"%.	c #848581",
"&.	c #4A78B1",
"*.	c #3969A7",
"=.	c #4775AE",
"    . + + + + + + + + + + + .   ",
"  @ # $ $ $ $ $ $ $ $ $ $ $ % & ",
"  + * = - - ; ; > , ' ) ! ' * + ",
"  + $ ; > , ~ { ] ] = ^ / / $ + ",
"  + $ ) ( ] _ : < [ / } | 1 $ + ",
"  + $ 2 ] @ < 3 4 5 6 7 8 9 $ + ",
"  + $ 0 } < 4 4 4 4 4 a b c $ + ",
"d e f f f e g h i i i a j k $ + ",
"l m $ n o p q e g r g a s t $ + ",
"g u < v ^ q w f a a a x y z $ + ",
"g A B C A D E f y F F G > H $ + ",
"I J K L C o M N O H H P Q R * + ",
"S T U V W X Y Z $ $ $ $ $ * `  .",
"..U +.@.#.$.%.+ + + + + + + .   ",
"U &.*.                          ",
"=.*.                            "};
