/* XPM */
static char * stock_add_24_xpm[] = {
"24 24 24 1",
" 	c None",
".	c #000000",
"+	c #D0D9E3",
"@	c #B9C6D5",
"#	c #909DAC",
"$	c #7590AE",
"%	c #5E738B",
"&	c #5A6F86",
"*	c #ADBCCE",
"=	c #9DB0C5",
"-	c #93A6BD",
";	c #839BB5",
">	c #A5B6C9",
",	c #B8C5D4",
"'	c #B6C4D3",
")	c #93A0AD",
"!	c #C4CEDC",
"~	c #617891",
"{	c #7589A0",
"]	c #6883A1",
"^	c #869DB8",
"/	c #A2B3C7",
"(	c #A5B2C0",
"_	c #4E6074",
"                        ",
"                        ",
"                        ",
"          ...           ",
"         .+@#.          ",
"         .@$%.          ",
"         .@$%.          ",
"         .@$%.          ",
"         .@$%.          ",
"    ......@$&......     ",
"   .*=====-$;>,''').    ",
"   .!$$$$$$$$$$$$$~.    ",
"   .{%%%%%$$]%%%%%%.    ",
"    ......^$%.......    ",
"         ./$%.          ",
"         .'$%.          ",
"         .'$%.          ",
"         .'$%.          ",
"         .(%_.          ",
"          ....          ",
"                        ",
"                        ",
"                        ",
"                        "};
