/* XPM */
static char * stock_zoom_1_24_xpm[] = {
"24 24 136 2",
"  	c None",
". 	c #343434",
"+ 	c #2D2D2D",
"@ 	c #292929",
"# 	c #262626",
"$ 	c #2E2E2E",
"% 	c #303030",
"& 	c #737373",
"* 	c #A1A1A1",
"= 	c #B4B4B4",
"- 	c #B2B2B2",
"; 	c #9D9D9D",
"> 	c #676767",
", 	c #202020",
"' 	c #1C1C1C",
") 	c #272727",
"! 	c #616161",
"~ 	c #CACACA",
"{ 	c #CFCFCF",
"] 	c #D0D0D0",
"^ 	c #CECECE",
"/ 	c #C9C9C9",
"( 	c #C1C1C1",
"_ 	c #A7A7A7",
": 	c #4C4C4C",
"< 	c #131313",
"[ 	c #222222",
"} 	c #757575",
"| 	c #D3D3D3",
"1 	c #DBDBDB",
"2 	c #E7E7E7",
"3 	c #EFEFEF",
"4 	c #F3F3F3",
"5 	c #F1F1F1",
"6 	c #E5E5E5",
"7 	c #D2D2D2",
"8 	c #BCBCBC",
"9 	c #5E5E5E",
"0 	c #101010",
"a 	c #212121",
"b 	c #5B5B5B",
"c 	c #CCCCCC",
"d 	c #D7D7D7",
"e 	c #F5F5F5",
"f 	c #FAFAFA",
"g 	c #FBFBFB",
"h 	c #F8F8F8",
"i 	c #F0F0F0",
"j 	c #E1E1E1",
"k 	c #C2C2C2",
"l 	c #434343",
"m 	c #0F0F0F",
"n 	c #1F1F1F",
"o 	c #B9B9B9",
"p 	c #D6D6D6",
"q 	c #4A4A4A",
"r 	c #FDFDFD",
"s 	c #FCFCFC",
"t 	c #F2F2F2",
"u 	c #464646",
"v 	c #E4E4E4",
"w 	c #ABABAB",
"x 	c #0E0E0E",
"y 	c #1B1B1B",
"z 	c #6D6D6D",
"A 	c #494949",
"B 	c #FEFEFE",
"C 	c #4B4B4B",
"D 	c #F9F9F9",
"E 	c #E6E6E6",
"F 	c #575757",
"G 	c #090909",
"H 	c #141414",
"I 	c #A8A8A8",
"J 	c #D8D8D8",
"K 	c #484848",
"L 	c #DCDCDC",
"M 	c #9B9B9B",
"N 	c #060606",
"O 	c #111111",
"P 	c #C5C5C5",
"Q 	c #DFDFDF",
"R 	c #F7F7F7",
"S 	c #BFBFBF",
"T 	c #C6C6C6",
"U 	c #E3E3E3",
"V 	c #ECECEC",
"W 	c #F4F4F4",
"X 	c #474747",
"Y 	c #454545",
"Z 	c #E0E0E0",
"` 	c #BABABA",
" .	c #050505",
"..	c #0B0B0B",
"+.	c #A5A5A5",
"@.	c #F6F6F6",
"#.	c #D1D1D1",
"$.	c #939393",
"%.	c #020202",
"&.	c #0A0A0A",
"*.	c #5F5F5F",
"=.	c #D9D9D9",
"-.	c #444444",
";.	c #EEEEEE",
">.	c #EDEDED",
",.	c #E9E9E9",
"'.	c #414141",
").	c #D4D4D4",
"!.	c #000000",
"~.	c #404040",
"{.	c #3F3F3F",
"].	c #CBCBCB",
"^.	c #3B3B3B",
"/.	c #DADADA",
"(.	c #D5D5D5",
"_.	c #C8C8C8",
":.	c #BDBDBD",
"<.	c #515151",
"[.	c #C7C7C7",
"}.	c #CDCDCD",
"|.	c #B8B8B8",
"1.	c #030303",
"2.	c #313131",
"3.	c #999999",
"4.	c #BBBBBB",
"5.	c #B6B6B6",
"6.	c #909090",
"7.	c #2B2B2B",
"8.	c #010101",
"9.	c #7A7A7A",
"0.	c #9A9A9A",
"a.	c #777777",
"b.	c #3C3C3C",
"c.	c #686868",
"d.	c #797979",
"e.	c #3A3A3A",
"                                                ",
"              . + @ # # #                       ",
"          $ % & * = - ; > , '                   ",
"        ) ! = ~ { ] ^ / ( _ : <                 ",
"      [ } ~ | 1 2 3 4 5 6 7 8 9 0               ",
"    a b c d 6 e f g f h e i j k l m             ",
"    n o p 2 q g r r s g h t u v w x             ",
"  y z 7 j A q r B C C s D A u E 1 F G           ",
"  H I J u A q s B C C g A K u E L M N           ",
"  O P Q 3 A A g r r s f R K u 6 1 S N           ",
"  x T U V K A h f f f R W X Y Z d `  .          ",
"  ..+.j 2 u X W @.A A 4 3 u l 1 #.$.%.          ",
"  &.*.=.j -.u ;.3 X u >.,.l '.).~ : !.          ",
"    &.= J '.l 6 E E 2 U Q ~.{.].* %.            ",
"    N ^.c 7 )./.1 /.1 J (.] _.:.$ !.            ",
"       .<.k [.].c }.].]._.k |.Y !.              ",
"        1.2.3.4.:.8 8 8 5.6.7.!.!.!.            ",
"          8.1.'.9.0.0.a.b.!.!.  !.!.!.!.        ",
"              !.!.!.!.!.!.        , , !.!.      ",
"                                  !.c.. !.!.    ",
"                                    !.d.e.!.!.  ",
"                                      !.c.n !.  ",
"                                        !.!.    ",
"                                                "};
