/* XPM */
static char * stock_colorselector_24_xpm[] = {
"24 24 223 2",
"  	c None",
". 	c #000000",
"+ 	c #FEFDFD",
"@ 	c #FAE2DD",
"# 	c #F2AEA1",
"$ 	c #274AFF",
"% 	c #5F79FF",
"& 	c #607BFF",
"* 	c #637CFF",
"= 	c #7B90FF",
"- 	c #FCF8E9",
"; 	c #FAF4DF",
"> 	c #FAF5E1",
", 	c #F6EBC5",
"' 	c #F4BBAF",
") 	c #EB8672",
"! 	c #A7B5FF",
"~ 	c #A8B7FF",
"{ 	c #AAB8FF",
"] 	c #F5E7B8",
"^ 	c #F5E8BA",
"/ 	c #F5E8BC",
"( 	c #EDD37C",
"_ 	c #ADBAFF",
": 	c #EDD47E",
"< 	c #E88975",
"[ 	c #8590C8",
"} 	c #090600",
"| 	c #8791C8",
"1 	c #A4B0F2",
"2 	c #F9F4E0",
"3 	c #F2E6BB",
"4 	c #F1E5BB",
"5 	c #F5E8BD",
"6 	c #F6E9BD",
"7 	c #EB8773",
"8 	c #A6B3F9",
"9 	c #574F4F",
"0 	c #FDFDFC",
"a 	c #8791C6",
"b 	c #E3DFD3",
"c 	c #F6EABF",
"d 	c #F1A89A",
"e 	c #EC8773",
"f 	c #D83C1D",
"g 	c #778DFF",
"h 	c #96A2E0",
"i 	c #575050",
"j 	c #FDFAF8",
"k 	c #7A83B1",
"l 	c #D8CEAE",
"m 	c #ECD47F",
"n 	c #E7C652",
"o 	c #6D6767",
"p 	c #F9F1EA",
"q 	c #F6F2ED",
"r 	c #F2ECE5",
"s 	c #F2EDE7",
"t 	c #D7C5B2",
"u 	c #D6D6D6",
"v 	c #BCBCBC",
"w 	c #625C5B",
"x 	c #F9EEE4",
"y 	c #4F4D4A",
"z 	c #868077",
"A 	c #B6AEA3",
"B 	c #EDE2D3",
"C 	c #FBF0E0",
"D 	c #F8D39F",
"E 	c #E1D3C4",
"F 	c #E1D4C6",
"G 	c #E2D5C7",
"H 	c #CAB197",
"I 	c #9C9C9C",
"J 	c #615C5B",
"K 	c #F9F0E4",
"L 	c #746C67",
"M 	c #FEFDFC",
"N 	c #FFFEFD",
"O 	c #131210",
"P 	c #897C69",
"Q 	c #D8C3A5",
"R 	c #F5C27A",
"S 	c #CBB298",
"T 	c #F3F2F2",
"U 	c #98948F",
"V 	c #F9EFE3",
"W 	c #A09489",
"X 	c #766D68",
"Y 	c #736961",
"Z 	c #A3A3A2",
"` 	c #B3A188",
" .	c #DAAC6D",
"..	c #E3D6C8",
"+.	c #E8E5E2",
"@.	c #97938E",
"#.	c #F6E9D8",
"$.	c #84817A",
"%.	c #FBF3EA",
"&.	c #908C86",
"*.	c #F1EDE7",
"=.	c #7B7975",
"-.	c #878786",
";.	c #070000",
">.	c #928470",
",.	c #CEA468",
"'.	c #E4D7C9",
").	c #CBB39A",
"!.	c #E2DFDC",
"~.	c #A8A199",
"{.	c #F0E0CE",
"].	c #C8BFB4",
"^.	c #D5CCBF",
"/.	c #DFD7CD",
"(.	c #DAD3C9",
"_.	c #DDCFC4",
":.	c #928C84",
"<.	c #8F816E",
"[.	c #CFA56A",
"}.	c #DBCAB8",
"|.	c #AF8A62",
"1.	c #040000",
"2.	c #D9D5D2",
"3.	c #D9CABB",
"4.	c #D7C8B8",
"5.	c #DECFBF",
"6.	c #D8C9B9",
"7.	c #E3D3C2",
"8.	c #C9BBAC",
"9.	c #D9CEC2",
"0.	c #7F766D",
"a.	c #887C6A",
"b.	c #D39B49",
"c.	c #060100",
"d.	c #C0BDBA",
"e.	c #8C8782",
"f.	c #C2B5A7",
"g.	c #BFB4A6",
"h.	c #B8AB9D",
"i.	c #BAAD9E",
"j.	c #BEB0A2",
"k.	c #948A7F",
"l.	c #716860",
"m.	c #FDFCFC",
"n.	c #F5E7E6",
"o.	c #E0B2AD",
"p.	c #93B48E",
"q.	c #332C2B",
"r.	c #5D5954",
"s.	c #79736C",
"t.	c #958C80",
"u.	c #8D8379",
"v.	c #988D82",
"w.	c #706760",
"x.	c #55565D",
"y.	c #ADB0BC",
"z.	c #94A0EB",
"A.	c #E9C8C4",
"B.	c #E9C9C6",
"C.	c #EACBC7",
"D.	c #D69B95",
"E.	c #AACFA4",
"F.	c #6A8166",
"G.	c #201A1A",
"H.	c #57514F",
"I.	c #625C59",
"J.	c #625A53",
"K.	c #6B625A",
"L.	c #585251",
"M.	c #696764",
"N.	c #080000",
"O.	c #545666",
"P.	c #BCC1E1",
"Q.	c #8D9AEA",
"R.	c #EACCC9",
"S.	c #C4EFBD",
"T.	c #ABD0A5",
"U.	c #A3AB9C",
"V.	c #050000",
"W.	c #0C0303",
"X.	c #080100",
"Y.	c #030000",
"Z.	c #2C2A30",
"`.	c #545665",
" +	c #6B6E80",
".+	c #C5CBED",
"++	c #8E9BEB",
"@+	c #F6E9E7",
"#+	c #EBCDCA",
"$+	c #EBCFCC",
"%+	c #D79C96",
"&+	c #CBF5C4",
"*+	c #BADFB4",
"=+	c #ECE4E2",
"-+	c #DED7D5",
";+	c #D8D1D0",
">+	c #E0DBD7",
",+	c #E9E6E3",
"'+	c #FCFBFA",
")+	c #030500",
"!+	c #7E8195",
"~+	c #CACFEE",
"{+	c #929EEB",
"]+	c #D89E97",
"^+	c #CCF5C6",
"/+	c #C8EFC1",
"(+	c #0B0505",
"_+	c #14100F",
":+	c #090806",
"<+	c #000100",
"[+	c #8B8EA3",
"}+	c #CED3F3",
"|+	c #7D8CE8",
"1+	c #F0DAD7",
"2+	c #BA554B",
"3+	c #96EB88",
"4+	c #97EC89",
"5+	c #8FDF82",
"6+	c #74B369",
"7+	c #6A74B0",
"8+	c #5E679A",
"9+	c #6971A9",
"0+	c #5B6EE2",
"                                                ",
"  . . . . . . . . . . . . . . . . . . . . . .   ",
"  . + @ @ @ @ # . $ % & & * = . - ; > > > , .   ",
"  . @ ' ' ' ' ) . % ! ! ~ ~ { . ; ] ] ^ / ( .   ",
"  . @ ' ' ' ' ) . % ! ~ { { _ . > ] ^ / / : .   ",
"  . @ ' ' ' ' < . & ~ [ } | 1 . 2 3 4 5 6 : .   ",
"  . @ ' ' ' ' 7 . * 8 9 0 . a . b / / 5 c : .   ",
"  . d ) ) ) e f . g h i j . k . l ( : m : n .   ",
"  . . . . . . . . . . o p . . . . . . . . . .   ",
"  . 0 q r r s t . u v w x y . . . z A B C D .   ",
"  . r E F F G H . I . J K L M . N O . P Q R .   ",
"  . r F F G G S . . T U V W + X M Y Z . `  ..   ",
"  . s F G G ..S . . +.@.#.$.%.&.*.=.-.;.>.,..   ",
"  . s G G ..'.).. . !.~.{.].^./.(._.:.;.<.[..   ",
"  . }.S S ).).|.. 1.2.3.4.5.6.7.8.9.0.;.a.b..   ",
"  . . . . . . . . c.d.e.f.g.h.i.j.k.l.;.. . .   ",
"  . m.n.n.n.n.o.. p.q.r.s.t.u.k.v.w.. x.y.z..   ",
"  . n.A.B.C.C.D.. E.F.G.H.I.J.K.L.M.N.O.P.Q..   ",
"  . n.B.C.C.R.D.. S.T.U.V.W.N.X.Y.Z.`. +.+++.   ",
"  . @+R.#+#+$+%+. &+*+1.=+-+;+>+,+'+)+!+~+{+.   ",
"  . @+#+#+$+$+]+. ^+/+1.(+V._+Y.:+. <+[+}+|+.   ",
"  . 1+D.%+%+]+2+. 3+4+4+4+5+6+. 7+7+8+9+z.0+.   ",
"  . . . . . . . . . . . . . . . . . . . . . .   ",
"                                                "};
