/* XPM */
static char * stock_top_24_xpm[] = {
"24 24 51 1",
" 	c None",
".	c #000000",
"+	c #F3F3F3",
"@	c #C9DBC7",
"#	c #9FB79B",
"$	c #95A88F",
"%	c #889D7F",
"&	c #C7D3C6",
"*	c #ACC8A9",
"=	c #6B9063",
"-	c #5B7950",
";	c #475E3E",
">	c #2D2D2D",
",	c #9EAC9D",
"'	c #D6E1D5",
")	c #8AAA87",
"!	c #3E4F39",
"~	c #D8E3D7",
"{	c #B9CBB8",
"]	c #8BAB89",
"^	c #5D7555",
"/	c #BBCDBA",
"(	c #9FB89E",
"_	c #D9E3D8",
":	c #B8CBB7",
"<	c #A3BBA2",
"[	c #DAE4D9",
"}	c #B3C7B2",
"|	c #A6BDA5",
"1	c #9DB79C",
"2	c #C8D6C8",
"3	c #B5C4B5",
"4	c #A5B7A5",
"5	c #9EB89D",
"6	c #4C6046",
"7	c #ABC1AA",
"8	c #9CB69B",
"9	c #8CAC89",
"0	c #3D4E39",
"a	c #BCCDBC",
"b	c #8CAB89",
"c	c #C8D7C8",
"d	c #D4DFD4",
"e	c #D3DFD3",
"f	c #8CAC8A",
"g	c #8AAB87",
"h	c #ACC3A9",
"i	c #6C806A",
"j	c #6B8868",
"k	c #576E54",
"l	c #43543D",
"                        ",
"                        ",
"   .................    ",
"   .+@@@@@@#$$$$$$%.    ",
"   .&******=------;.    ",
"   .................    ",
"           .            ",
"          >,.           ",
"         .')!.          ",
"        .~{]^!.         ",
"       .~/(]^^!.        ",
"      ._:<(]^^^!.       ",
"     .[}|1(]^^^^!.      ",
"    .234(55]^^6666.     ",
"   .....7889^^0.....    ",
"       .a88b^^0.        ",
"       .c88]^^0.        ",
"       .d819^^0.        ",
"       .e88f^^0.        ",
"       .e85g^^0.        ",
"       .hijk66l.        ",
"       .........        ",
"                        ",
"                        "};
