/* XPM */
static char * stock_ok_20_xpm[] = {
"20 20 47 1",
" 	c None",
".	c #10120F",
"+	c #000000",
"@	c #B6C6AA",
"#	c #ADBBA1",
"$	c #9EAB93",
"%	c #95A28B",
"&	c #D5E7C7",
"*	c #9CA992",
"=	c #7E8875",
"-	c #94A08A",
";	c #7B8572",
">	c #636B5C",
",	c #838E7A",
"'	c #616A5B",
")	c #707A69",
"!	c #AAB89E",
"~	c #575E51",
"{	c #585F52",
"]	c #687161",
"^	c #798371",
"/	c #97A48D",
"(	c #B2C1A6",
"_	c #99A68E",
":	c #727C6A",
"<	c #42483E",
"[	c #8A9580",
"}	c #606859",
"|	c #41473D",
"1	c #818C79",
"2	c #5B6255",
"3	c #40453C",
"4	c #4E5549",
"5	c #909C87",
"6	c #7C8774",
"7	c #555D50",
"8	c #3E4339",
"9	c #929E88",
"0	c #52594C",
"a	c #393E35",
"b	c #4C5247",
"c	c #8F9B85",
"d	c #6A7363",
"e	c #4F564A",
"f	c #51574B",
"g	c #0E0F0D",
"h	c #383C34",
"                    ",
"           .......  ",
"          +@@@#$$%. ",
"          .@&*%%%=. ",
"          .@@%%%%=. ",
"          .@%%-%%=. ",
"      .   .@%$%%%=. ",
"     .;.  .@%%%%%=. ",
"    .@>....@%%%,'). ",
"   .@!;~~~{'>]^/({. ",
"  .@/%%%%////_%:<.  ",
" .@_%%%%%%%%%[}|.   ",
".@*/%%%%%%%%123.    ",
" .45%%%%%%%678.     ",
"  .49%%%%-60a.      ",
"   .b5c6;dea.       ",
"    .feg....        ",
"     .h.            ",
"      .             ",
"                    "};
