/* XPM */
static const char * stock_clear_24_xpm[] = {
"24 24 56 1",
" 	c None",
".	c #000000",
"+	c #7C6149",
"@	c #BCA189",
"#	c #D9C9BB",
"$	c #7D624A",
"%	c #7B6049",
"&	c #BDA28A",
"*	c #34291F",
"=	c #362A20",
"-	c #654F3C",
";	c #060503",
">	c #0E0B08",
",	c #725944",
"'	c #7A6049",
")	c #795F48",
"!	c #A78363",
"~	c #463729",
"{	c #070504",
"]	c #725A43",
"^	c #A17E60",
"/	c #8B9585",
"(	c #5A6156",
"_	c #030302",
":	c #9D7B5D",
"<	c #403226",
"[	c #ACB8A4",
"}	c #2D231A",
"|	c #715943",
"1	c #84795F",
"2	c #EBD8A9",
"3	c #AAA07D",
"4	c #CFCFCF",
"5	c #CFCAA6",
"6	c #B0A27F",
"7	c #555555",
"8	c #9B987C",
"9	c #2A2D28",
"0	c #80826E",
"a	c #9A8F71",
"b	c #C6B890",
"c	c #8D8870",
"d	c #BABEA4",
"e	c #AAAA8D",
"f	c #85856E",
"g	c #757764",
"h	c #65614D",
"i	c #898166",
"j	c #DBD0A7",
"k	c #B1AD8E",
"l	c #7C765E",
"m	c #676450",
"n	c #75735D",
"o	c #95957B",
"p	c #8E917B",
"q	c #6D6F5C",
"                        ",
"                        ",
"   ..                   ",
"  .+@.                  ",
"  .@#$.                 ",
"  .%#&*                 ",
"   =@#+.                ",
"   .-&&;                ",
"    >,&'.               ",
"     .)!~   ...      .  ",
"      {]^; ../(.        ",
"       _:<.[[[/.   .    ",
"        }|[[[[.1.    .  ",
"        .[[[[.23. .     ",
"       .[[[[.2221.  . . ",
"      .[[[[.22145...    ",
"      ./[[.2222.56.. . .",
"      .7/.22622890a...  ",
"       ..b22bcdef.gh... ",
"        .i3jk8.lfm..    ",
"         .9nopq...      ",
"           ....         ",
"                        ",
"                        "};
