/* XPM */
static char * stock_bottom_24_xpm[] = {
"24 24 49 1",
" 	c None",
".	c #000000",
"+	c #EFF2EE",
"@	c #CBD9C7",
"#	c #C5D5C2",
"$	c #A7B6A2",
"%	c #9FB199",
"&	c #A0B09A",
"*	c #899F83",
"=	c #D4E2D1",
"-	c #AEC8AD",
";	c #ABC7AA",
">	c #698D60",
",	c #5B7950",
"'	c #506B46",
")	c #D5E3D3",
"!	c #ABC7A8",
"~	c #A8C6A5",
"{	c #6B9063",
"]	c #D7E5D5",
"^	c #A7C5A4",
"/	c #C2D7BE",
"(	c #AAC6A7",
"_	c #A9C7A6",
":	c #8CA782",
"<	c #B1CDAE",
"[	c #B4CEB1",
"}	c #B0CAAD",
"|	c #AAC7A8",
"1	c #ACC8A9",
"2	c #445B2C",
"3	c #77A16E",
"4	c #B2CBB0",
"5	c #ADC8AD",
"6	c #709867",
"7	c #A8C7A8",
"8	c #A5C4A3",
"9	c #AFC8AD",
"0	c #0F1308",
"a	c #7F9F76",
"b	c #A4C3A2",
"c	c #6B9060",
"d	c #F3F3F3",
"e	c #C9DBC7",
"f	c #9FB79B",
"g	c #95A88F",
"h	c #889D7F",
"i	c #C7D3C6",
"j	c #475E3E",
"                        ",
"                        ",
"       .........        ",
"       .+@#$%&*.        ",
"       .=-;>,,'.        ",
"       .)!~{,,'.        ",
"       .]!^{,,'.        ",
"       .=!~{,,'.        ",
"       ./(_{,,'.        ",
"   ...../~!{,,'.....    ",
"    .:<[}|1{,,,''2.     ",
"     .3145|{,,,,2.      ",
"      .6|7!{,,,2.       ",
"       .689{,,2.        ",
"        0ab{,2.         ",
"         .c>2.          ",
"          .2.           ",
"           .            ",
"   .................    ",
"   .deeeeeefggggggh.    ",
"   .i111111{,,,,,,j.    ",
"   .................    ",
"                        ",
"                        "};
