/* XPM */
static const char * telephony_16_xpm[] = {
"16 16 87 1",
" 	c None",
".	c #000000",
"+	c #FC6666",
"@	c #FB4646",
"#	c #F95F5F",
"$	c #F35353",
"%	c #EC4141",
"&	c #FB1515",
"*	c #FE9898",
"=	c #F31D1D",
"-	c #F63F3F",
";	c #FA3535",
">	c #F23737",
",	c #E82F2F",
"'	c #FE8686",
")	c #FEE0E0",
"!	c #FCC1C1",
"~	c #F5B8B8",
"{	c #FB7373",
"]	c #F41010",
"^	c #FC7373",
"/	c #E72B2B",
"(	c #9F908F",
"_	c #FFFCFC",
":	c #969494",
"<	c #C9C7C7",
"[	c #FED4D4",
"}	c #EC0909",
"|	c #F83737",
"1	c #FD9E9E",
"2	c #FB5353",
"3	c #7B0202",
"4	c #FEF5F4",
"5	c #9E9D9D",
"6	c #FEFEFE",
"7	c #959393",
"8	c #FEDBDB",
"9	c #DF0303",
"0	c #FDBABA",
"a	c #FC4646",
"b	c #C30404",
"c	c #AB8787",
"d	c #C9C1C1",
"e	c #FEFAF9",
"f	c #B5A7A6",
"g	c #B2B2B2",
"h	c #FD9B98",
"i	c #C50000",
"j	c #FB9B9B",
"k	c #FB7070",
"l	c #F71818",
"m	c #CB1111",
"n	c #FDADAD",
"o	c #FED4D3",
"p	c #BDB7B7",
"q	c #C55151",
"r	c #F93737",
"s	c #A40000",
"t	c #B80000",
"u	c #C70303",
"v	c #A10101",
"w	c #EBEAEA",
"x	c #D16060",
"y	c #FB8A8A",
"z	c #FDAAAA",
"A	c #E74646",
"B	c #BA9191",
"C	c #EE0B0B",
"D	c #A70000",
"E	c #7B0000",
"F	c #530000",
"G	c #460000",
"H	c #F6F6F6",
"I	c #B14742",
"J	c #F97373",
"K	c #F76C6C",
"L	c #FDA4A4",
"M	c #D30303",
"N	c #590000",
"O	c #7F0404",
"P	c #F8F8F8",
"Q	c #F96966",
"R	c #AD0202",
"S	c #EFEFEF",
"T	c #D4D4D4",
"U	c #E0E0E0",
"V	c #ECECEC",
"                ",
"                ",
"    .....       ",
"   .+@#$%..     ",
"   .&*=-;>,.    ",
"   .')!~{]^/.   ",
"  .(_:<[}|123.  ",
"  .45678980ab.  ",
" .cdefghijklm.  ",
" .nopqerstuv.w. ",
" .xyzABCDEFG..H.",
"  .IJKLMNGO. .P.",
"   ..QJRG..S.. .",
"     ....  .TUV.",
"            ... ",
"                "};
