/* XPM */
static const char * telephone_16_xpm[] = {
"16 16 49 1",
" 	c None",
".	c #303032",
"+	c #1F1F21",
"@	c #525253",
"#	c #505052",
"$	c #1B1B1D",
"%	c #242426",
"&	c #1A1A1C",
"*	c #4E4E50",
"=	c #474749",
"-	c #9A9A9B",
";	c #29292C",
">	c #1A191D",
",	c #232325",
"'	c #686868",
")	c #3F3E42",
"!	c #1A191E",
"~	c #373739",
"{	c #6E6D71",
"]	c #1B1A1F",
"^	c #454547",
"/	c #222127",
"(	c #323234",
"_	c #575758",
":	c #8A8A8B",
"<	c #222223",
"[	c #7E7E7F",
"}	c #6E6E6F",
"|	c #444446",
"1	c #5D5D5F",
"2	c #7F7F81",
"3	c #48484A",
"4	c #19191B",
"5	c #1F1F20",
"6	c #29292B",
"7	c #4F4F51",
"8	c #373738",
"9	c #1A1A1B",
"0	c #454449",
"a	c #4F4E53",
"b	c #19181D",
"c	c #69696B",
"d	c #404040",
"e	c #1C1B20",
"f	c #545358",
"g	c #4B4B4F",
"h	c #848486",
"i	c #757577",
"j	c #606062",
"                ",
"     .          ",
"    ..+         ",
"   @.#$.        ",
"   %&*=$-       ",
"   ;>,'         ",
"   )!~          ",
"   {]^          ",
"    /(          ",
"    _$:         ",
"     <~    [    ",
"     }&|  1$2   ",
"      34567%.   ",
"       89>0abc  ",
"        d>efgh  ",
"         ij     "};
