/* XPM */
static const char * voip_flow_24_xpm[] = {
"24 24 160 2",
"  	c None",
". 	c #FDFDFD",
"+ 	c #FEFEFE",
"@ 	c #F9F9F9",
"# 	c #F2F2F2",
"$ 	c #F5F5F5",
"% 	c #F8F8F8",
"& 	c #9FA19D",
"* 	c #989A95",
"= 	c #FDFEFD",
"- 	c #F0F1F0",
"; 	c #B7B8B5",
"> 	c #ACADA9",
", 	c #EDEEED",
"' 	c #A0A29E",
") 	c #9D9E9A",
"! 	c #F7F8F7",
"~ 	c #E7E7E7",
"{ 	c #AAACA7",
"] 	c #A1A39F",
"^ 	c #FCFCFC",
"/ 	c #ECECEC",
"( 	c #A6A8A3",
"_ 	c #A2A4A0",
": 	c #FAFAFA",
"< 	c #E5E6E5",
"[ 	c #ABACA9",
"} 	c #A4A6A2",
"| 	c #F0F0EF",
"1 	c #B1B3B0",
"2 	c #ABADA9",
"3 	c #F2F2F1",
"4 	c #C2C2C2",
"5 	c #8A8A8A",
"6 	c #A7A7A7",
"7 	c #CECECE",
"8 	c #EFEFEF",
"9 	c #E9E9E9",
"0 	c #BABCB9",
"a 	c #AEAFAD",
"b 	c #F0F0F0",
"c 	c #DEDFDE",
"d 	c #E8E8E7",
"e 	c #C7C7C7",
"f 	c #757575",
"g 	c #434343",
"h 	c #4B4B4B",
"i 	c #6F6F6F",
"j 	c #8F8F8F",
"k 	c #BFBFBF",
"l 	c #DDDDDD",
"m 	c #B0B0B0",
"n 	c #E6E6E6",
"o 	c #DCDCDB",
"p 	c #D4D5D2",
"q 	c #E4E4E4",
"r 	c #B5B6B4",
"s 	c #F4F4F4",
"t 	c #E8E8E8",
"u 	c #CFCFCF",
"v 	c #7E7E7E",
"w 	c #595959",
"x 	c #3D3D3D",
"y 	c #7D7D7D",
"z 	c #9A9A9A",
"A 	c #464646",
"B 	c #727272",
"C 	c #C1C2C1",
"D 	c #B5B7B4",
"E 	c #B3B4B0",
"F 	c #ECEDEC",
"G 	c #A8AAA6",
"H 	c #A8A9A6",
"I 	c #FBFBFB",
"J 	c #717171",
"K 	c #393939",
"L 	c #0F0F0F",
"M 	c #151515",
"N 	c #9FA09F",
"O 	c #A1A29F",
"P 	c #A6A7A4",
"Q 	c #ABACA8",
"R 	c #F1F1F0",
"S 	c #F1F1F1",
"T 	c #898989",
"U 	c #0E0E0E",
"V 	c #3A3A3A",
"W 	c #AAABAA",
"X 	c #A1A29E",
"Y 	c #BABBB9",
"Z 	c #B9BAB7",
"` 	c #F4F5F4",
" .	c #F6F6F6",
"..	c #A9A9A9",
"+.	c #ABABAB",
"@.	c #DCDDDC",
"#.	c #B3B5B1",
"$.	c #B1B2AE",
"%.	c #DEDEDD",
"&.	c #E3E3E2",
"*.	c #F6F6F5",
"=.	c #EFEFEE",
"-.	c #DCDCDA",
";.	c #E5E5E4",
">.	c #B4B6B3",
",.	c #F5F6F5",
"'.	c #B9BAB6",
").	c #B5B5B4",
"!.	c #EEEFEE",
"~.	c #A8AAA5",
"{.	c #AAABA8",
"].	c #E8E9E7",
"^.	c #A9AAA6",
"/.	c #A7A9A6",
"(.	c #DEDEDE",
"_.	c #ACADAA",
":.	c #ADAEAA",
"<.	c #F4F4F3",
"[.	c #B4B5B2",
"}.	c #B5B7B3",
"|.	c #EBEBEB",
"1.	c #CACACA",
"2.	c #E2E2E1",
"3.	c #BCBDBB",
"4.	c #B8BAB7",
"5.	c #E2E2E2",
"6.	c #DDDEDC",
"7.	c #737373",
"8.	c #E8E9E8",
"9.	c #D8D9D7",
"0.	c #F3F3F2",
"a.	c #B2B3AF",
"b.	c #ADAEAB",
"c.	c #B4B5B4",
"d.	c #B6B8B4",
"e.	c #A7A8A5",
"f.	c #A3A4A1",
"g.	c #AFAFAF",
"h.	c #3E3E3E",
"i.	c #EEEEED",
"j.	c #EBECEB",
"k.	c #A7A8A6",
"l.	c #D4D4D3",
"m.	c #AAACA9",
"n.	c #FEFFFE",
"o.	c #EAEBE9",
"p.	c #B4B5B1",
"q.	c #EAEAEA",
"r.	c #EAEBEA",
"s.	c #B1B3AF",
"t.	c #B0B2AF",
"u.	c #F5F5F4",
"v.	c #F3F4F2",
"w.	c #B6B7B4",
"x.	c #EFF0EF",
"y.	c #C3C4C2",
"z.	c #BFC0BE",
"A.	c #FBFBFA",
"B.	c #F7F7F7",
"C.	c #F8F9F8",
"                                      . +       ",
"    + .                             @ # $       ",
"    % & * =                         - ; > =     ",
"    , ' ) !                         ~ { ] ^     ",
"  + / ( _ # : +                   + < [ } .     ",
"    | 1 2 3 4 5 6 7 8           @ ^ 9 0 a +     ",
"    b c d b e f g h i j k l :   m n o p q       ",
"    8 r 1 s   t u 6 v w x w y z A B C D E       ",
"    F G H #         I l k j J K L M N O P +     ",
"    9 Q > R                 S T U V W X ( ^     ",
"    b Y Z `                  ...+.S @.#.$.I     ",
"    S %.&.*.                  +   . =.-.;.I     ",
"    3 #.>.,.                        | '.).:     ",
"    !.~.{.-                     +  .].[ ^.$     ",
"    !./.[ 8 . @           8 7 6 5 e (._.:.<.    ",
"    s [.}.|.9 m   : l k j i h g f 1.2.3.4.$     ",
"    ` 5.6.o 7.A z y w x w v 6 u t $ 8.9.&.*.    ",
"    0.a.b.c.M L K J j k l I         | ; d.*.    ",
"    8 e.f.g.h.U T S                 i.{ _.S     ",
"    j.k.{.l.~ +... .                i.m.2 #     ",
"  n.o._.p.q.I   +                   r.s.t.u.    ",
"    v.w.; $                         x.y.z.A.    ",
"    . B.C.=                         @ b s +     ",
"                                      +         "};
