/* XPM */
static char * wep_closed_24_xpm[] = {
"24 24 212 2",
"  	c None",
". 	c #333333",
"+ 	c #727272",
"@ 	c #737373",
"# 	c #616161",
"$ 	c #000000",
"% 	c #202020",
"& 	c #A5A5A5",
"* 	c #EEEEEE",
"= 	c #ECECEC",
"- 	c #E7E7E7",
"; 	c #E3E3E3",
"> 	c #CBCBCB",
", 	c #424242",
"' 	c #1F1F1F",
") 	c #D4D4D4",
"! 	c #E8E8E8",
"~ 	c #B5B5B5",
"{ 	c #707070",
"] 	c #6C6C6C",
"^ 	c #BCBCBC",
"/ 	c #DFDFDF",
"( 	c #C8C8C8",
"_ 	c #5B5B5B",
": 	c #A4A4A4",
"< 	c #818181",
"[ 	c #919191",
"} 	c #DDDDDD",
"| 	c #2D2D2D",
"1 	c #3B3B3B",
"2 	c #EDEDED",
"3 	c #BABABA",
"4 	c #010101",
"5 	c #A0A0A0",
"6 	c #D6D6D6",
"7 	c #777777",
"8 	c #7F7F7F",
"9 	c #E2E2E2",
"0 	c #757575",
"a 	c #3D3D3D",
"b 	c #E6E6E6",
"c 	c #AFAFAF",
"d 	c #767676",
"e 	c #DCDCDC",
"f 	c #8B6C4F",
"g 	c #AE8A6A",
"h 	c #D2A06E",
"i 	c #AD8562",
"j 	c #90735A",
"k 	c #8F7156",
"l 	c #8E7054",
"m 	c #8F7054",
"n 	c #8E6F54",
"o 	c #C99560",
"p 	c #C48F5A",
"q 	c #8A6849",
"r 	c #79502A",
"s 	c #331707",
"t 	c #EFDBBF",
"u 	c #E5C7A0",
"v 	c #D8B385",
"w 	c #D4AC7C",
"x 	c #D0A873",
"y 	c #CAA06A",
"z 	c #C79C64",
"A 	c #C89C64",
"B 	c #C3985F",
"C 	c #C09054",
"D 	c #BC8545",
"E 	c #B67A38",
"F 	c #9A5E1B",
"G 	c #2A1306",
"H 	c #F0DABF",
"I 	c #E4C6A0",
"J 	c #D6AF80",
"K 	c #D3AC7B",
"L 	c #D0A570",
"M 	c #C99F68",
"N 	c #C69B64",
"O 	c #C69C64",
"P 	c #C89D66",
"Q 	c #C79C65",
"R 	c #C39860",
"S 	c #C09256",
"T 	c #BC8645",
"U 	c #B67C36",
"V 	c #985E1A",
"W 	c #291306",
"X 	c #EED8BC",
"Y 	c #786752",
"Z 	c #D2AC7D",
"` 	c #D3AA7B",
" .	c #AA885C",
"..	c #896C46",
"+.	c #755C3B",
"@.	c #644F33",
"#.	c #634F33",
"$.	c #765D3C",
"%.	c #B58D59",
"&.	c #60492C",
"*.	c #604523",
"=.	c #7E5627",
"-.	c #995D1A",
";.	c #EED8BB",
">.	c #191611",
",.	c #C8A377",
"'.	c #D2A97A",
").	c #7B6242",
"!.	c #57452C",
"~.	c #241C12",
"{.	c #99774C",
"].	c #C59B64",
"^.	c #A57D4C",
"/.	c #140F08",
"(.	c #B27E3F",
"_.	c #36240F",
":.	c #623C11",
"<.	c #EFDABE",
"[.	c #332C23",
"}.	c #7F684B",
"|.	c #271F16",
"1.	c #5C4A32",
"2.	c #6D5638",
"3.	c #241C11",
"4.	c #98764C",
"5.	c #C49B62",
"6.	c #C49960",
"7.	c #A47D4A",
"8.	c #B8803E",
"9.	c #4B3216",
"0.	c #52330E",
"a.	c #EFD8BB",
"b.	c #4D4234",
"c.	c #443727",
"d.	c #1E1810",
"e.	c #3B2F1F",
"f.	c #816440",
"g.	c #231B11",
"h.	c #4B3B25",
"i.	c #614C30",
"j.	c #A58152",
"k.	c #A37C4A",
"l.	c #0A0704",
"m.	c #583E1E",
"n.	c #33220E",
"o.	c #86531A",
"p.	c #685947",
"q.	c #19140E",
"r.	c #7D6547",
"s.	c #0D0A07",
"t.	c #98774D",
"u.	c #97764A",
"v.	c #C49961",
"w.	c #A47C4A",
"x.	c #BA813E",
"y.	c #B27733",
"z.	c #A36B2F",
"A.	c #EDD6B8",
"B.	c #7F6B54",
"C.	c #3D3122",
"D.	c #B79161",
"E.	c #15110A",
"F.	c #A47D4C",
"G.	c #231A0F",
"H.	c #4A3822",
"I.	c #5F492C",
"J.	c #715634",
"K.	c #A17844",
"L.	c #140E07",
"M.	c #B67D3A",
"N.	c #B07530",
"O.	c #A67137",
"P.	c #EED8BA",
"Q.	c #E0C099",
"R.	c #D1A973",
"S.	c #CBA26B",
"T.	c #C49962",
"U.	c #C49A62",
"V.	c #C09257",
"W.	c #BD8C4E",
"X.	c #B9803D",
"Y.	c #B67D38",
"Z.	c #AB783F",
"`.	c #EED5B7",
" +	c #DFC096",
".+	c #D2A776",
"++	c #CEA46E",
"@+	c #C89D65",
"#+	c #C1955C",
"$+	c #C2955C",
"%+	c #C2965C",
"&+	c #C09155",
"*+	c #BC8A4B",
"=+	c #BA8442",
"-+	c #BE8A4C",
";+	c #A9773C",
">+	c #D5AE7E",
",+	c #CFA772",
"'+	c #C49256",
")+	c #C08D51",
"!+	c #BA8849",
"~+	c #B78342",
"{+	c #B48240",
"]+	c #B68241",
"^+	c #B88544",
"/+	c #BB8949",
"(+	c #BC8748",
"_+	c #BA874A",
":+	c #B98548",
"<+	c #B27B3B",
"[+	c #88521A",
"}+	c #231005",
"                                                ",
"                                                ",
"                    . + @ # $                   ",
"                % & * = - ; > ,                 ",
"              ' ) ! ~ { ] ^ / ( _               ",
"              : ! < $       [ } ^ |             ",
"            1 2 3 4           5 6 7             ",
"            8 9 0             a b c $           ",
"            d e #               a 3 $           ",
"          f g h i j k l l m m n o p q r         ",
"        s t u v w x y z z A z B C D E F G       ",
"        s H I J K L M N O P Q R S T U V W       ",
"        s X Y Z `  ...+.@.#.$.%.&.*.=.-.W       ",
"        s ;.>.,.'.).!.~.{.O ].^./.(._.:.W       ",
"        s <.[.}.|.1.2.3.4.5.6.7./.8.9.0.W       ",
"        s a.b.c.d.e.f.g.h.i.j.k.l.m.n.o.W       ",
"        s X p.q.r.s.t.3.u.v.R w./.x.y.z.W       ",
"        s A.B.C.D.E.F.G.H.I.J.K.L.M.N.O.W       ",
"        s P.Q.` R.S.N 6.T.U.v.V.W.X.Y.Z.W       ",
"        s `. +.+++@+6.#+$+%+%+&+*+=+-+;+W       ",
"        s >+,+'+)+!+~+{+]+^+/+(+_+:+<+[+}+      ",
"          G G W W W W W W W W W W W W }+        ",
"                                                ",
"                                                "};

