<?xml version="1.0" encoding="UTF-8" standalone="no"?>
<!-- Generator: Adobe Illustrator 15.0.2, SVG Export Plug-In . SVG Version: 6.00 Build 0)  -->

<svg
   version="1.1"
   id="svg548"
   sodipodi:version="0.32"
   sodipodi:docname="x-capture-restart-fin.svg"
   inkscape:version="1.2 (dc2aeda, 2022-05-15)"
   inkscape:export-filename="x-capture-restart.png"
   inkscape:export-xdpi="96"
   inkscape:export-ydpi="96"
   x="0px"
   y="0px"
   width="24px"
   height="24px"
   viewBox="0 0 24 24"
   enable-background="new 0 0 24 24"
   xml:space="preserve"
   xmlns:inkscape="http://www.inkscape.org/namespaces/inkscape"
   xmlns:sodipodi="http://sodipodi.sourceforge.net/DTD/sodipodi-0.dtd"
   xmlns:xlink="http://www.w3.org/1999/xlink"
   xmlns="http://www.w3.org/2000/svg"
   xmlns:svg="http://www.w3.org/2000/svg"><defs
   id="defs662"><linearGradient
     inkscape:collect="always"
     xlink:href="#linearGradient5067"
     id="linearGradient5073"
     x1="15"
     y1="21.5"
     x2="12.5"
     y2="11.5"
     gradientUnits="userSpaceOnUse" /><linearGradient
     id="linearGradient5067"><stop
       style="stop-color:#000000;stop-opacity:0.15753424;"
       offset="0"
       id="stop5069" /><stop
       style="stop-color:#000000;stop-opacity:0;"
       offset="1"
       id="stop5071" /></linearGradient><linearGradient
     id="linearGradient5075"><stop
       style="stop-color:#fffdff;stop-opacity:0.15753424;"
       offset="0"
       id="stop5077" /><stop
       style="stop-color:#ffffff;stop-opacity:0;"
       offset="1"
       id="stop5079" /></linearGradient></defs>
<sodipodi:namedview
   inkscape:current-layer="g659"
   inkscape:window-width="1443"
   showguides="true"
   inkscape:guide-bbox="true"
   inkscape:window-maximized="0"
   inkscape:window-height="837"
   inkscape:cy="11.845851"
   inkscape:cx="7.738183"
   inkscape:window-x="2577"
   id="base"
   inkscape:window-y="457"
   showgrid="true"
   inkscape:zoom="24.101265"
   pagecolor="#ffffff"
   bordercolor="#666666"
   borderopacity="1.0"
   inkscape:showpageshadow="2"
   inkscape:pageopacity="0.0"
   inkscape:pagecheckerboard="0"
   inkscape:deskcolor="#d1d1d1">

		<inkscape:grid
   type="xygrid"
   enabled="true"
   visible="true"
   spacingx="0.5"
   spacingy="0.5"
   empspacing="5"
   snapvisiblegridlinesonly="true"
   id="grid3142"
   originx="0"
   originy="0">
		</inkscape:grid>
</sodipodi:namedview>

<g
   id="g659">
	<path
   fill="#ffffff"
   d="m 1.604,22.99 20.23,0.029 C 20.73,20.265 17.098,9.715 22.068,1.007 5.218,1.87 2.045,19.697 1.604,22.99 Z"
   id="path644"
   style="display:inline" />
	<g
   id="g651">
		<g
   id="g648">
			<path
   fill="#999999"
   d="M22.557,23.98L22.557,23.98L1.064,23.948c-0.135-0.001-0.263-0.058-0.354-0.155     c-0.09-0.1-0.135-0.23-0.124-0.365c0.02-0.229,2.2-23.089,22.341-23.405c0.166-0.024,0.341,0.09,0.427,0.245     c0.086,0.153,0.08,0.343-0.016,0.491c-5.911,9.253-0.941,21.189-0.396,22.435c0.07,0.084,0.113,0.19,0.113,0.309     c0,0.266-0.216,0.479-0.479,0.479C22.57,23.98,22.564,23.98,22.557,23.98z M1.604,22.99l20.23,0.029     c-1.104-2.754-4.736-13.304,0.234-22.012C5.218,1.87,2.045,19.697,1.604,22.99z"
   id="path646" />
		</g>

			<path
   id="path2995_5_"
   inkscape:export-filename="x-capture-restart-fin.png"
   inkscape:export-xdpi="90.000000"
   inkscape:export-ydpi="90.000000"
   inkscape:connector-curvature="0"
   sodipodi:nodetypes="cccc"
   fill="#21de08"
   d="m 3.391,21.646 c 0,0 2.311,-17.222 16.753,-19.225 -4.479,9.33 -0.215,19.246 -0.215,19.246 z"
   style="display:inline"
   inkscape:label="fin" />
	<path
   id="path4555"
   inkscape:export-filename="x-capture-start.png"
   inkscape:export-xdpi="90.000000"
   inkscape:export-ydpi="90.000000"
   inkscape:connector-curvature="0"
   sodipodi:nodetypes="cccc"
   d="m 3.391,21.645 c 0,0 2.312,-17.222 16.754,-19.225 -4.48,9.331 -0.216,19.247 -0.216,19.247 z"
   style="display:inline;fill:url(#linearGradient5073);fill-opacity:1"
   inkscape:label="shade" /><path
   style="display:inline;fill:url(#linearGradient5081);fill-opacity:1"
   d="m 3.391,21.645 c 0,0 2.312,-17.222 16.754,-19.225 -4.48,9.331 -0.216,19.247 -0.216,19.247 z"
   sodipodi:nodetypes="cccc"
   inkscape:connector-curvature="0"
   inkscape:export-ydpi="90.000000"
   inkscape:export-xdpi="90.000000"
   inkscape:export-filename="x-capture-start.png"
   id="path4557"
   inkscape:label="highlight" /></g>
	<g
   id="g657">
		<g
   id="g655"
   style="display:inline">
			<path
   fill="#ffffff"
   d="m 16.523,12.479 -0.274,-0.276 -1.649,1.649 0.275,0.275 c 0.479,0.479 0.743,1.118 0.743,1.797 0,0.68 -0.265,1.318 -0.743,1.797 -0.959,0.959 -2.636,0.957 -3.593,0 -0.981,-0.98 -0.986,-2.568 -0.027,-3.561 l 2.362,2.281 0.992,-7.174 -7.344,0.879 2.116,2.138 0.224,0.224 c -1.871,1.902 -1.863,4.973 0.027,6.861 0.918,0.92 2.143,1.425 3.445,1.425 1.304,0 2.526,-0.505 3.444,-1.425 1.902,-1.9 1.902,-4.991 0.002,-6.89 z"
   id="path653" />
		</g>
	</g>
</g>
</svg>
