<?xml version="1.0" encoding="utf-8"?>
<!-- Generator: Adobe Illustrator 15.0.2, SVG Export Plug-In . SVG Version: 6.00 Build 0)  -->
<!DOCTYPE svg PUBLIC "-//W3C//DTD SVG 1.1//EN" "http://www.w3.org/Graphics/SVG/1.1/DTD/svg11.dtd">
<svg version="1.1"
	 id="svg548" sodipodi:version="0.32" sodipodi:docname="capture_restart_24.svg" inkscape:version="0.48.2 r9819" inkscape:export-filename="/tmp/capture_restart_24.png" inkscape:export-xdpi="90" inkscape:export-ydpi="90" xmlns:inkscape="http://www.inkscape.org/namespaces/inkscape" xmlns:sodipodi="http://sodipodi.sourceforge.net/DTD/sodipodi-0.dtd" xmlns:svg="http://www.w3.org/2000/svg" xmlns:rdf="http://www.w3.org/1999/02/22-rdf-syntax-ns#" xmlns:cc="http://creativecommons.org/ns#" xmlns:dc="http://purl.org/dc/elements/1.1/"
	 xmlns="http://www.w3.org/2000/svg" xmlns:xlink="http://www.w3.org/1999/xlink" x="0px" y="0px" width="24px" height="24px"
	 viewBox="0 0 24 24" enable-background="new 0 0 24 24" xml:space="preserve">
<sodipodi:namedview  inkscape:current-layer="svg548" inkscape:window-width="1443" showguides="true" inkscape:guide-bbox="true" inkscape:window-maximized="0" inkscape:window-height="837" inkscape:cy="11.93714" inkscape:cx="10.180408" inkscape:window-x="0" id="base" inkscape:window-y="865" showgrid="true" inkscape:zoom="24.101265">
	
		<inkscape:grid  type="xygrid" enabled="true" visible="true" spacingx="0.5px" spacingy="0.5px" empspacing="5" snapvisiblegridlinesonly="true" id="grid3142">
		</inkscape:grid>
</sodipodi:namedview>
<path fill="none" enable-background="new    " d="M0,0"/>
<g>
	<path fill="#FFFFFF" d="M1.604,22.99l20.23,0.029c-1.104-2.754-4.736-13.304,0.234-22.012C5.218,1.87,2.045,19.697,1.604,22.99z"/>
	<g>
		<g>
			<path fill="#999999" d="M22.557,23.98L22.557,23.98L1.064,23.948c-0.135-0.001-0.263-0.058-0.354-0.155
				c-0.09-0.1-0.135-0.23-0.124-0.365c0.02-0.229,2.2-23.089,22.341-23.405c0.166-0.024,0.341,0.09,0.427,0.245
				c0.086,0.153,0.08,0.343-0.016,0.491c-5.911,9.253-0.941,21.189-0.396,22.435c0.07,0.084,0.113,0.19,0.113,0.309
				c0,0.266-0.216,0.479-0.479,0.479C22.57,23.98,22.564,23.98,22.557,23.98z M1.604,22.99l20.23,0.029
				c-1.104-2.754-4.736-13.304,0.234-22.012C5.218,1.87,2.045,19.697,1.604,22.99z"/>
		</g>
		
			<path id="path2995_5_" inkscape:export-filename="/home/gerald/devel/wsweb/image/wslogo.png" inkscape:export-xdpi="90.000000" inkscape:export-ydpi="90.000000" inkscape:connector-curvature="0" sodipodi:nodetypes="cccc" fill="#21DE08" d="
			M3.391,21.646c0,0,2.311-17.222,16.753-19.225c-4.479,9.33-0.215,19.246-0.215,19.246L3.391,21.646z"/>
	</g>
	<g>
		<g>
			<path fill="#FFFFFF" d="M16.523,12.479l-0.274-0.276L14.6,13.852l0.275,0.275c0.479,0.479,0.743,1.118,0.743,1.797
				c0,0.68-0.265,1.318-0.743,1.797c-0.959,0.959-2.636,0.957-3.593,0c-0.981-0.98-0.986-2.568-0.027-3.561l2.362,2.281l0.992-7.174
				l-7.344,0.879l2.116,2.138l0.224,0.224c-1.871,1.902-1.863,4.973,0.027,6.861c0.918,0.92,2.143,1.425,3.445,1.425
				c1.304,0,2.526-0.505,3.444-1.425C18.423,17.469,18.423,14.378,16.523,12.479z"/>
		</g>
	</g>
</g>
</svg>
