/* XPM */
static char * eicon3d64_xpm[] = {
"64 64 256 2",
"  	c None",
". 	c #020204",
"+ 	c #727A74",
"@ 	c #AEB6AC",
"# 	c #3A3E3C",
"$ 	c #929A94",
"% 	c #DAD6D4",
"& 	c #5A5E5C",
"* 	c #828A84",
"= 	c #26221C",
"- 	c #A2AAA4",
"; 	c #BEC6BC",
"> 	c #4A4E4C",
", 	c #A69A9C",
"' 	c #666E64",
") 	c #928A80",
"! 	c #16120C",
"~ 	c #2E322C",
"{ 	c #C2B6AC",
"] 	c #EAE6E4",
"^ 	c #867E7A",
"/ 	c #766E74",
"( 	c #D6DED4",
"_ 	c #CEC6BF",
": 	c #92928C",
"< 	c #B2AA9D",
"[ 	c #5A4E4C",
"} 	c #9BA29C",
"| 	c #A6A294",
"1 	c #4A3E44",
"2 	c #7D827C",
"3 	c #3A322F",
"4 	c #0E0A04",
"5 	c #1D1A14",
"6 	c #C2BEBC",
"7 	c #6A6268",
"8 	c #8A928C",
"9 	c #D2CECC",
"0 	c #B6BEB4",
"a 	c #2D2E2C",
"b 	c #AEA6A0",
"c 	c #9E9A8C",
"d 	c #929294",
"e 	c #6E766C",
"f 	c #86867C",
"g 	c #B6B2A4",
"h 	c #7E7A6C",
"i 	c #434644",
"j 	c #E2D6D4",
"k 	c #8A8A84",
"l 	c #525654",
"m 	c #A6A694",
"n 	c #0E0A14",
"o 	c #261E20",
"p 	c #CABEB5",
"q 	c #BAB6A4",
"r 	c #767670",
"s 	c #E2DEDC",
"t 	c #2E2226",
"u 	c #6E6E6C",
"v 	c #F2EAE7",
"w 	c #5B564C",
"x 	c #3A3A3C",
"y 	c #423E3C",
"z 	c #ACB2AC",
"A 	c #938A8C",
"B 	c #363A34",
"C 	c #B2AE9C",
"D 	c #6A6A6C",
"E 	c #DACECC",
"F 	c #8A8E85",
"G 	c #9A9A8C",
"H 	c #5E665C",
"I 	c #554E44",
"J 	c #36322C",
"K 	c #8E8284",
"L 	c #D6CAC8",
"M 	c #9A928C",
"N 	c #4A464C",
"O 	c #221A18",
"P 	c #EAE2DD",
"Q 	c #625A54",
"R 	c #7A7A74",
"S 	c #DED6D4",
"T 	c #AAAAA4",
"U 	c #CACECC",
"V 	c #868274",
"W 	c #95968C",
"X 	c #A2A294",
"Y 	c #A8A2A4",
"Z 	c #82827C",
"` 	c #160A0C",
" .	c #9E9E92",
"..	c #9A9294",
"+.	c #CAC2BB",
"@.	c #6E726C",
"#.	c #5A5A54",
"$.	c #0E060C",
"%.	c #B6BAB4",
"&.	c #A69E9C",
"*.	c #1E1614",
"=.	c #C2BAAE",
"-.	c #EEE6E4",
";.	c #767264",
">.	c #D2CAC4",
",.	c #42363C",
"'.	c #0E0E04",
").	c #C6C2C0",
"!.	c #6A665C",
"~.	c #D6D2D1",
"{.	c #322A2C",
"].	c #8F8684",
"^.	c #7E7A84",
"/.	c #E2DAD7",
"(.	c #A7A6A4",
"_.	c #160A14",
":.	c #BABAB4",
"<.	c #7E7671",
"[.	c #E6E2E4",
"}.	c #302624",
"|.	c #424244",
"1.	c #9A8E8C",
"2.	c #666664",
"3.	c #221E20",
"4.	c #B2BAB4",
"5.	c #969E94",
"6.	c #2A262C",
"7.	c #CAC6C4",
"8.	c #16160C",
"9.	c #524A4C",
"0.	c #DEE2DC",
"a.	c #525251",
"b.	c #322E24",
"c.	c #423A44",
"d.	c #9A9E99",
"e.	c #363632",
"f.	c #4A4A3C",
"g.	c #DEDADB",
"h.	c #A2A6A0",
"i.	c #C2CAC4",
"j.	c #6A726C",
"k.	c #323634",
"l.	c #3A362C",
"m.	c #8E968C",
"n.	c #BAC2BC",
"o.	c #7E7E74",
"p.	c #565A54",
"q.	c #120E18",
"r.	c #F4EEEC",
"s.	c #928E90",
"t.	c #626A64",
"u.	c #767E74",
"v.	c #3E423C",
"w.	c #D6DAD4",
"x.	c #5E625C",
"y.	c #868E84",
"z.	c #A6AEA4",
"A.	c #4E524C",
"B.	c #9EA69C",
"C.	c #7E867C",
"D.	c #939694",
"E.	c #464A44",
"F.	c #C6CAC4",
"G.	c #726A69",
"H.	c #928E7C",
"I.	c #4A4247",
"J.	c #DAD2CF",
"K.	c #7A7E7B",
"L.	c #82867F",
"M.	c #9A9698",
"N.	c #EEEAE8",
"O.	c #7E7E7C",
"P.	c #5A524C",
"Q.	c #CAD2CC",
"R.	c #666A64",
"S.	c #1A121C",
"T.	c #B2AAAC",
"U.	c #A29A9C",
"V.	c #868684",
"W.	c #BAB2B4",
"X.	c #261E2C",
"Y.	c #BEB6B4",
"Z.	c #E2DEE4",
"`.	c #726E74",
" +	c #3E3A44",
".+	c #B6AEAC",
"++	c #AEAAAC",
"@+	c #8A8284",
"#+	c #CEC2C4",
"$+	c #5A5A5C",
"%+	c #0E0614",
"&+	c #A69EA4",
"*+	c #C2BABC",
"=+	c #787274",
"-+	c #6A666C",
";+	c #2E2634",
">+	c #362E34",
",+	c #36323C",
"'+	c #221A24",
")+	c #7E767C",
"!+	c #4A4A4C",
"~+	c #B2B6B1",
"{+	c #969A91",
"]+	c #2A2223",
"^+	c #6A6E6C",
"/+	c #1A1214",
"(+	c #323234",
"_+	c #8A7E7C",
":+	c #DADEDC",
"<+	c #D2C6C4",
"[+	c #969289",
"}+	c #B6AAA4",
"|+	c #AAA298",
"1+	c #120A05",
"2+	c #C6BEB4",
"3+	c #8E9288",
"4+	c #D6CECB",
"5+	c #BABEB8",
"6+	c #B2A6A4",
"7+	c #A29A94",
"8+	c #727673",
"9+	c #8A8674",
"0+	c #BAB2A4",
"a+	c #827A74",
"b+	c #8E8A80",
"c+	c #565651",
"d+	c #AAA698",
"e+	c #2A1E24",
"f+	c #BEB6AB",
"g+	c #E6DEDC",
"h+	c #726E64",
"i+	c #3E3A34",
"j+	c #463E40",
"k+	c #B6AEA2",
"l+	c #8E8E85",
"m+	c #626664",
"n+	c #AEAA9C",
"o+	c #8A827C",
"p+	c #A29E94",
"q+	c #CEC2BC",
"r+	c #72726D",
"s+	c #5E5A50",
"t+	c #12060C",
"u+	c #AA9E98",
"v+	c #C6BAB4",
"w+	c #7A726C",
"x+	c #120E0C",
"y+	c #6E6664",
"z+	c #E6DAD7",
"A+	c #46424C",
"B+	c #3E3634",
"C+	c #767A74",
"D+	c #3E3E3C",
"E+	c #868A84",
"F+	c #A6AAA4",
"G+	c #4E4E4C",
"                                                  . . . . . . . . . . . . . .                                                   ",
"                                            . . . m.3+8 y.E+L.C.2 2 K.u.C+e ^+. . .                                             ",
"                                      . . . 5.{+D.8 L.K.+ @.^+^+R.^+^+j.r+8+8+e @.R.. . .                                       ",
"                                  . . B.h.B.{+C.@.x.p.l c+m+D u r+^+2.#.p.& x.R.^+j.^+R.& . .                                   ",
"                              . . - 4.0 5.e & l @.d .+7.4+4+L <+<+q+q+p q | ].u #.x.t.^+' m+p.. .                               ",
"                            . z.0 Q.} R.A.u Y 4+J.J.J.J.J.E 4+9 >.>._ 7.+.p 6 =.0+[+h+& m+' R.x.A..                             ",
"                        . . 4.:+5+^+A.O.).g.g./.g.% S J.% ~.E 4+>.>.<+<+7.q+).2+=.f+q |+R x.m+R.H l . .                         ",
"                      . z i.0.F l r+#+/.s Z././././.S S J.J.~.4+4+L >._ <++.p p 2+=.{ q k+| 8+H 2.R.p.G+.                       ",
"                    . @ % U j.p.C Z.Z.Z.s Z.Z./.Z.s g.g.S S J.E 4+4+>._ <+_ +.p 2+=.=.=.0+k+< : m+R.t.#.E..                     ",
"                  . z 0.4.& R.~.Z.[.[.[.[.[.[.[.Z./././.g.>.*+W..+W.#+>._ _ #++.+.2+v+{ f+q g C | @.m+t.& E..                   ",
"                . z 0.z.p.V.Z.Z.[.0.[.[.[.[.[.g+Z.W.)+I.X.%+%+%+t+$.t+'+1 G.&.p +.2+6 =.f+f+0+C n+d+K.2.m+p.i .                 ",
"              . z.( F+l d [.s [.[.] P P ] P 4+^.;+n %+%+%+%+%+4 n n n 1+$.$.t+]+y+{ v+=.{ f+0+0+k+n+d+L.R.2.p.|..               ",
"            . z U @ c+d s [.[.[.[.] ] ] g.r+*.n %+%+n %+4 %+%+%+t+$.%+$.1+$.$.1+1+9.v+=.{ f+0+g k+< d+| L.R.m+l i .             ",
"            . 0 ; & L.g+[.[.] ] ] ] N.&+X.%+%+%+n n %+n t+n $.t+%+t+$.t+$.t+t+t+$./+=.2+=.f+f+0+g C < m X o.' x.> .             ",
"          . z.i.R.D s s [.[.] ] N.[.-+n n n n %+%+%+n y G...b W..+&+b+7  +q.$.t+t+3 =.=.=.f+f+0+g C < d+m  .8+R.& i .           ",
"        . B.4.2 p.9 s [.[.] [.] g.A+n %+%+%+%+n ,+s.S g+g+/.g.J.J.J.L L <+{ a+j+P.< 2+=.=.=.0+0+0+g C n+m X G @.m+l # .         ",
"        . - 5.l b g.Z.0.[.] -.S  +%+n n n n 6.&+-.-.-.P g+z+/.S J.J.4+>.>._ _ p p 2+2+=.{ =.{ 0+0+k+k+< d+|  .F ^+x.E..         ",
"      . } - ^+r+g.s g+[.[.] [.A+%+n %+%+%+7 [.v N.-.-.P g+g+/.S J.4+4+L <+#++.+.).v+v+v+:.f+q 0+0+g C n+d+m p+G u.R.p.x .       ",
"      . } * a.)./.Z.g+P [.] -+n %+n n q.M.r.r.v v -.-.P g+z+j S J.E 9 >.>._ +.p +.2+v+v+{ { f+0+0+k+k+C n+d+| c W j.H E..       ",
"    . {+$ m+O.S g.s Z.g+[.&+%+%+n %+n Y r.r.r.r.v -.-.P g+/.g.J.J.4+L >._ q+q++.p 2+=.=.=.f+f+0+k+g C < d+d+|  .W 2 ^+l B .     ",
"    . $ L.l 6 S g./.Z.[.J.X.n %+n n M.r.v r.v v v -.P g+g+/.j J.J.4+L _ <+)._+1 P.< =.=.f+f+f+f+g k+k+C n+n+| p+c l+@.x.i .     ",
"    . 3+^+u J.S S s s Z.`.n %+n %+7 v v r.v v v -.P P P s j S J.E 4+>.q+^ t $.4 $.;+f+f+=.f+0+0+k+g C < n+d+m X G W 2 R.> .     ",
"  . m.* p.X % S S /./.>.S.n %+n ;+g+v v v v -.-.-.P g+z+/.j S J.E _ ^ = t+1+t+t+t+t+|+f+f+f+0+0+k+k+C n+n+d+| X  .W E+@.p.B .   ",
"  . F + l >.J.S S g.Z.)+%+%+%+%+U.-.-.-.-.-.-.-.P P g+s /.S J._ a+]+$.t+4 $.$.$.t+8.k+{ f+f+q 0+0+k+< < d+d+d+&.c W : C+x.i .   ",
"  . E+^+`.4+~.% S S g.6.%+n %+>+[.-.-.-.-.-.P P g+g+z+/.S E _+= t+t+t+t+t+t+1+4 e+) =.f+0+0+f+g g k+C C n+d+m X  .{+3+2 R.E..   ",
". * L.x.s.4+J.J.J.% T.%+%+%+n A P P P P P [.g+g+g+z+/.4+_+o $.t+$.4 $.$.$.4 e+w+f+v+f+f+f+f+0+k+k+C C n+n+d+| X  .G : E+^+A.(+. ",
". * u.p.T.L E J.J.% =+n %+%+n 9 g+g+g+g+g+g+g+z+/.E o+= $.1+t+t+t+1+t+1+]+a+=.v+=.=.=.f+0+0+0+k+g < < n+n+d+| p+c M.3+F + p.k.. ",
". L.r l 2+9 4+4+J.J.I.%+%+%+c././.g+g+g+z+g+/.J.].]+t+t+t+$.$.4 $.$.]+a+v+v+v+=.f+f+f+f+f+0+0+g k+k+< n+d+d+m |  .{+: F R & # . ",
". C.@.p._ >.4+4+E J.'+n %+t+G.S S j j /.j J.].]+$.$.t+$.t+1+t+t+]+^ v+2+2+2+=.=.=.f+0+0+0+0+k+C C C n+n+n+|+X X  .G : F 2 x.D+. ",
". 2 j.m+#+>.>.L 4+_ n $.n n A S S S S J.b+t $.$.1+t+4 1+$.$.]+^ p +.+.2+2+=.=.=.f+f+f+0+g g 0+k+C n+< d+d+m | p+ .W : F C.2.v.. ",
". K.D u +.<+>.>.4+W.t+t+%+t+&+J.J.J.E 1 t+1+t+$.4 t+$.1+t _++.+.p p p 2+v+=.{ { f+f+f+0+0+k+k+k+C n+< d+d+m X p+ .G : k * R.|.. ",
". u.' @.+._ 7.>.>.}+$.%+t+%+}+E 4+4+|+t+$.%+4 t+t+$.t ^ +._ +.+.+.2+2+=.=.=.=.f+f+0+0+0+k+g k+C < n+n+n+d+| | p+c W : k E+t.i . ",
". C+D `.p _ _ <+>.++$.$.4 4 b 4+4+>.&.1+t+t+$.$.]+^ +._ +.q++.2+2+v+=.=.=.f+f+0+f+0+0+0+k+C k+C C n+d+d+d+X X  .c W 3+E+k R.|.. ",
". C+' u 2+p #+_ _ .+1+n t+t+&.>.>.L >.c.$.$.]+^ q+_ q++.+.+.p 2+2+2+v+=.f+=.f+f+0+0+g g k+k+< < n+n+d+d+| |  . .G W 3+9+y.t.i . ",
". 8+' 2.2+2+p +.#+v+t+%+$.$.K <+_ _ >._ M 1.+._ q+q++.p 2+2+2+=.=.=.=.=.f+f+q q 0+0+k+g k+C C n+d+n+d+d+| | p+ .{+[+F V.y.m+# . ",
". @.^+& *+2++.+.#+_ O t+t+t+7 _ _ _ q+q+q+7.q++.+.+.p +.p 2+v+2+=.=.f+f+f+f+0+0+0+g g k+C C n+n+n+d+m m | p+ .G W : l+E+E+x.# . ",
". @.j.p.k+=.v+2+p +.y 4 $.t+3 q+q+_ 7.q+q++.p +.).+.2+2+=.2+=.=.f+=.f+f+q f+0+0+k+k+k+C < < < n+n+d+| m X p+ .c W 3+k k * & e.. ",
". R.u & &.Y.2+2+2+p y+t+1+$.x+f++.p p ).2+p +.2+p =.v+=.2+=.{ { =.f+f+0+0+0+0+g 0+k+C k+C C n+d+d+d+m X X  .c {+W 3+E+F 2 l ~ . ",
". H @.H k W.=.v+2+p 7+$.1+t+t+w+).+.p p 2+2+v+=.2+=.2+=.{ =.f+f+q f+q 0+0+0+0+k+g k+C n+n+n+n+d+d+|+| p+X  .G W : l+f : 8+> a . ",
"  . ^+R.h+f+{ :.=.=.=.e+$.t+$.{.v+v+2+2+v+=.2+=.=.=.{ f+=.f+f+f+0+0+0+0+g g C g k+C < C n+d+d+d+m m X X  . .G W : k L.$ ^+i .   ",
"  . t.^+& C f+f+{ =.=.y+$.1+t+$.V =.=.2+v+=.=.=.=.=.=.f+f+q 0+f+0+0+0+k+k+g C C C C n+< n+n+d+|+| | X  .G G G : l+E+E+m.& B .   ",
"  . & R.x.H.k+W.f+{ =.6+! $.$.t+e+0+=.{ =.{ =.{ { f+f+f+f+f+f+0+0+0+0+0+k+k+k+< < n+n+n+n+d+d+m | X p+ . .{+: : F V W 2 a.(+.   ",
"    . R.R.r+k+0+0+0+{ { Q 1+4 1+t+P.=.=.=.f+f+f+f+0+q 0+0+0+0+0+0+g k+g k+C C C < n+d+d+d+m | m p+p+ .G G G 3+l+E+Z } j.i .     ",
"    . x.R.x.p+C g f+f+f+}+O t+$.4 $.w+q f+f+f+f+q f+0+q 0+0+0+g k+k+k+k+< < < n+n+n+n+d+d+|+m X |  .c G W : : F f : $ #.B .     ",
"    . l m+t.R < C k+g 0+0+^ 1+t+4 4 ` ^ q f+q 0+0+f+0+0+g g 0+k+k+C < C C n+n+n+d+d+d+m m | | p+X  .G G W : H.E+Z T + E.a .     ",
"      . x.R.m+ .n+C k+g 0+g I 4 t+t+$.1+w+0+0+0+0+k+k+g k+k+C k+C C C < n+< d+d+d+d+d+|+| |  .X c G G W W 8 E+L.W 5.& # .       ",
"      . A.H R.r d+< C k+g k+< 3 4 1+4 t+$.9.6+g g 0+k+g k+k+C C C < C n+n+n+n+n+d+m m | X X  . .G G W : H.l+L.2 ~+8+f.a .       ",
"        . #.m+m+: m n+C }+k+g d+{.4 1+4 1+1+= <.k+C k+k+C C C < < n+n+n+n+d+d+d+d+| | X p+p+ .G G W W 3+F E+Z m m.$+B .         ",
"        . > & m+' p+m n+n+< C C |+3 1+4 1+4 1+4 }.h+| < < n+n+n+n+d+d+d+n+c !.B f.[+X X  .c  .G W [+: l+E+Z l+z R.|.6..         ",
"          . A.H 2.r+p+X n+n+n+< n+d+9.1+4 1+1+4 4 4 1+J w w+9+) b+9+;.w b.x+4 1+4 b.p+ .c  .W W W : l+k V L.0 8+A.~ .           ",
"            . l H R.2  .X |+n+n+n+n+n+<.5 4 1+4 4 1+1+4 4 4 '.x+4 4 4 '.'.4 4 4 4 ! W  .G G W W 3+F E+L.Z :.* l B .             ",
"            . E.c+H R.L. .X | | d+n+d+n+p+w ! 4 1+'.4 '.4 4 4 4 4 4 4 4 4 '.'.'.'.v. .G W W W l+l+k f Z @ d & # (+.             ",
"              . i c+m+' L.G X X X m | | m d+c s+3.'.4 4 4 4 4 4 4 4 4 4 4 4 4 5 c+[+{+W W 3+: F E+L.2 g $ x.v.a .               ",
"                . i l !.' 2 W c p+p+| | | | | m | V s+l.5 '.4 '.'.'.'.5 k.l o.{+G G W W 3+l+k f Z Z :.m.x.v.a .                 ",
"                  . D+a.m+' R W G  . .X X X p+X | p+X X p+G b+Z L.k W G  .G G W W : : H.F E+f Z l+5+L.& |.6..                   ",
"                    . v.G+x.' e E+: W G G c  . . . . . . . .d. .c G G G W W W W 3+3+F y.f L.2 (.@ C+p.# a .                     ",
"                      . |.E.#.R.@.2 l+: W W M.G G G G G G G G G G W W W W : l+l+b+k f f Z W %.D.R.> e.~ .                       ",
"                        . . v.A.x.' 8+L.F 3+3+: W W W W W W : W : W : : l+F F k E+L.Z W ~+B.e & i ~ . .                         ",
"                            . B i l x.j.C+L.E+F l+l+l+l+l+3+l+l+F l+k E+k f L.2 f m z d.r x.E.k.a .                             ",
"                              . . B i a.& R.8+K.L.E+F F k k f E+f L.L.f E+m. .h.} C.^+& > B a . .                               ",
"                                  . . e.v.> c+x.' @.C+2 L.y.E+F 3+3+m.W 8 L.C+^+& A.i k.a . .                                   ",
"                                      . . . B v.i A.l & x.m+R.' R.R.m+x.#.l E.v.x ~ . . .                                       ",
"                                            . . . (+k.B # v.|.v.i v.# B k.(+a . . .                                             ",
"                                                  . . . . . . . . . . . . . .                                                   "};
