/* XPM */
static char * eicon3d48_xpm[] = {
"48 48 256 2",
"  	c None",
". 	c #020204",
"+ 	c #727A74",
"@ 	c #B2B6B4",
"# 	c #3A3E3C",
"$ 	c #929A94",
"% 	c #5A5E5C",
"& 	c #CED6CC",
"* 	c #828A84",
"= 	c #A2AAA4",
"- 	c #26221C",
"; 	c #CEC6BC",
"> 	c #4A4E4C",
", 	c #666E64",
"' 	c #E6E6E4",
") 	c #A29A8C",
"! 	c #928A84",
"~ 	c #827A6C",
"{ 	c #36322C",
"] 	c #DED6CC",
"^ 	c #B2AA9C",
"/ 	c #C2B6AC",
"( 	c #5A524C",
"_ 	c #4A423C",
": 	c #A2A294",
"< 	c #12120C",
"[ 	c #D6CAC4",
"} 	c #766E6C",
"| 	c #E2DEDC",
"1 	c #6A6264",
"2 	c #828274",
"3 	c #92928C",
"4 	c #8A827C",
"5 	c #0E0A04",
"6 	c #8A928C",
"7 	c #42363C",
"8 	c #B6B2A4",
"9 	c #C2BEBC",
"0 	c #62665C",
"a 	c #2E2A24",
"b 	c #6E766C",
"c 	c #AAA694",
"d 	c #7A827C",
"e 	c #424644",
"f 	c #9AA29C",
"g 	c #525654",
"h 	c #5A5A5C",
"i 	c #D6D2CC",
"j 	c #9A928C",
"k 	c #8A8A84",
"l 	c #AAB2AC",
"m 	c #6E6E64",
"n 	c #363A34",
"o 	c #E6DAD4",
"p 	c #BAAEA4",
"q 	c #4E4A44",
"r 	c #EADEDC",
"s 	c #CABEB4",
"t 	c #B6BEB4",
"u 	c #9A9A8C",
"v 	c #2E2624",
"w 	c #C6CEC4",
"x 	c #F2EAE4",
"y 	c #A29A9C",
"z 	c #0E0A14",
"A 	c #463E3C",
"B 	c #625E54",
"C 	c #AEAA9C",
"D 	c #564E4C",
"E 	c #3A323C",
"F 	c #DEDAD4",
"G 	c #B2AE9C",
"H 	c #82867C",
"I 	c #92968C",
"J 	c #8A867C",
"K 	c #AAA2A4",
"L 	c #7E7A6C",
"M 	c #BAB6A4",
"N 	c #A29E8C",
"O 	c #5E5654",
"P 	c #76766C",
"Q 	c #E6E2DC",
"R 	c #8A8E85",
"S 	c #9A9E94",
"T 	c #0E060C",
"U 	c #2A261C",
"V 	c #D2CAC6",
"W 	c #968E8C",
"X 	c #4E463C",
"Y 	c #221E18",
"Z 	c #D6CECA",
"` 	c #6A6A64",
" .	c #160A0C",
"..	c #626A64",
"+.	c #DED2D4",
"@.	c #6E726C",
"#.	c #CAC2BA",
"$.	c #8E868C",
"%.	c #5E625C",
"&.	c #DAD6D4",
"*.	c #4E524C",
"=.	c #6A726C",
"-.	c #EEE6E4",
";.	c #968A88",
">.	c #323634",
",.	c #C2BAAD",
"'.	c #5A525C",
").	c #A6A694",
"!.	c #E6DEE4",
"~.	c #8E968C",
"{.	c #3E3A30",
"].	c #BEB2AC",
"^.	c #C6C2C4",
"/.	c #322E38",
"(.	c #7E867C",
"_.	c #625A5C",
":.	c #DAD2CF",
"<.	c #524A54",
"[.	c #F2EEEC",
"}.	c #424244",
"|.	c #AAAEAA",
"1.	c #E2DAD7",
"2.	c #B2AEAC",
"3.	c #86867E",
"4.	c #96968D",
"5.	c #8E8682",
"6.	c #AAA6A8",
"7.	c #BEB6B4",
"8.	c #8E8E85",
"9.	c #D2CECC",
"0.	c #7E7274",
"a.	c #160E16",
"b.	c #7A7E79",
"c.	c #2A1E24",
"d.	c #6A665C",
"e.	c #3A3630",
"f.	c #9A968C",
"g.	c #BAC2BC",
"h.	c #A69EA4",
"i.	c #525254",
"j.	c #767E74",
"k.	c #3E423C",
"l.	c #868E84",
"m.	c #A6AEA4",
"n.	c #7A726C",
"o.	c #0E0E04",
"p.	c #464A44",
"q.	c #565A54",
"r.	c #D6DAD4",
"s.	c #CED2CC",
"t.	c #827A80",
"u.	c #7E7674",
"v.	c #726A5C",
"w.	c #EAE2DF",
"x.	c #B2BAB4",
"y.	c #160E0C",
"z.	c #EEEAE4",
"A.	c #2A222C",
"B.	c #A6A2A4",
"C.	c #665E64",
"D.	c #9A9E9C",
"E.	c #0E0614",
"F.	c #423A3C",
"G.	c #36323C",
"H.	c #4A424C",
"I.	c #828284",
"J.	c #2A262C",
"K.	c #4E464C",
"L.	c #6A666C",
"M.	c #969A8C",
"N.	c #5E5E57",
"O.	c #D2D6D4",
"P.	c #2A2224",
"Q.	c #D2C6C4",
"R.	c #4E4E4A",
"S.	c #6A6E6B",
"T.	c #A69A94",
"U.	c #E2D6D4",
"V.	c #B6AAA4",
"W.	c #5E5254",
"X.	c #E6DEDB",
"Y.	c #969294",
"Z.	c #8E8284",
"`.	c #8E9285",
" +	c #BAB2A4",
".+	c #C6BEB4",
"++	c #666664",
"@+	c #322A2C",
"#+	c #727673",
"$+	c #AEA69C",
"%+	c #7E827B",
"&+	c #5E5A64",
"*+	c #8E8A8C",
"=+	c #3A3A3C",
"-+	c #524A48",
";+	c #32262C",
">+	c #665E5C",
",+	c #B6AEA3",
"'+	c #BEB6AB",
")+	c #A69E94",
"!+	c #9E9E92",
"~+	c #12060B",
"{+	c #261E1C",
"]+	c #DACECC",
"^+	c #727268",
"/+	c #CEC2BC",
"(+	c #C6BAB4",
"_+	c #665A54",
":+	c #46423C",
"<+	c #AEA6A4",
"[+	c #9E9694",
"}+	c #767A74",
"|+	c #3E3E3C",
"1+	c #868A84",
"2+	c #A6AAA4",
"3+	c #EAE6E4",
"4+	c #A6A294",
"5+	c #120A04",
"6+	c #464644",
"7+	c #9EA29C",
"8+	c #565654",
"9+	c #AEB2AC",
"0+	c #9E9A8C",
"a+	c #7A766C",
"b+	c #666A64",
"c+	c #363634",
"d+	c #F6EEEC",
"e+	c #CEC6C4",
"f+	c #A29A94",
"g+	c #928A8C",
"h+	c #DED6D4",
"i+	c #B2AAA4",
"j+	c #5A5254",
"k+	c #4A4244",
"l+	c #D6CACC",
"m+	c #82827C",
"n+	c #929294",
"o+	c #626664",
"p+	c #AAA69C",
"q+	c #D6D2D4",
"r+	c #6E6E6C",
"s+	c #E6DADC",
"t+	c #BAAEAC",
"u+	c #CABEBC",
"v+	c #2E262C",
"w+	c #F2EAEC",
"x+	c #463E44",
"y+	c #AEAAA4",
"z+	c #564E54",
"A+	c #DEDADC",
"B+	c #828684",
"C+	c #929694",
"D+	c #8A8684",
"E+	c #A29E94",
"F+	c #5E565C",
"G+	c #E6E2E4",
"                                    . . . . . . . . . . . .                                     ",
"                              . . . C+`.1+(.b.}++ + + + #+=.. . .                               ",
"                          . . 7+f l.+ ..h % ++` ` ++N.% %.b+S.S.o+. .                           ",
"                      . . x.l * % ` *+i+e+Z 9.[ Q.; #.'+4+J S.%., b+%.. .                       ",
"                  . . t w 1+h k ^.A+&.&.&.:.i Z l+V e+/+.+(+'+$+m+0 o+o+q.. .                   ",
"                . x.s.9+N.k q+1.| 1.1.h+h+:.:.Z 9.V Q./+#..+.+'+ +C 2 0 b+% % .                 ",
"              . x.r.1+b+^.| !.X.| | | 1.1.&.h+]+Z 9.V Q.; #.s .+/  +,+0+m b+% *..               ",
"            . x.r.b I.A+| G+G+G+G+G+!.q+K t.C.F+W._.n.[+(+#..+,.,.'+ +G p+}+b+%.> .             ",
"          . @ O.S.n+!.G+G+' G+w.!.h.<.< E.E.E.E.~+E.E.T  .k+;..+,.,.'+ +,+c m+b+% > .           ",
"        . @ s.@.3 X.G+' 3+3+3+6./.E.E.E.E.E.E.T E.T T E.~+E.5 5.(+7.M  +G C ).m+b+q.g .         ",
"        . g.(.I.| G+G+G+3+| F+z z z E.z z A.H.i.j+x+P.5 T ~+~+} (+/ '+]. +^ C : b.0 *..         ",
"      . m.S ++h+G+G+3+z.9./.z E.E.E.G.$.V X.1.U.:.]+l+].u.7 -+ +9 ,.'+M ,+,+C 4+!+#+%.e .       ",
"      . = %.9 | Q G+w.V A.E.z z J.K w+-.w.X.1.h+:.Z V Q./+#.#.(+,.,.'+M 8 ,+G c : I S.q..       ",
"    . f }+3.A+| !.G+A+@+E.z E.'.!.[.x -.w.X.1.] :.Z [ e+; #..+.+(+'+'+]. +G ^ $+4+0+%+o+6+.     ",
"    . ~.% 9.A+| G+G+F+z E.z L.[.w+w+x 3+w.X.U.] :.Z [ e+/+#.s 9 (+'+'+ + +G G C ).E+4.b g .     ",
"  . C++ D+&.1.| !.B.z E.z '.w+w+[.x -.w.r X.1.] ]+9.V #.Z.7 -+p ,./ M  +,+8 C C 4+: M.%+..k..   ",
"  . R % .+&.A+A+| /.z E.A.A+[.x x -.-.w.X.1.h+:.]+V 4 v T T T _+,.'+'+M ,+,+^ C c )+u 8.@.> .   ",
"  . %+b+Z h+h+1.y E.E.z h.z.-.x -.-.w.X.o U.:.Z Z.P.5+T ~+T T B ,.'+M  + +,+^ C 4+: !+4.}+% .   ",
". l.@.8.Z &.&.h+K.E.E./.w.-.w.3+w.w.Q | 1.:.5.U ~+T ~+T T  .D ,+,.]. +8 8 G ^ C c : u 4.H 0 =+. ",
". B+%.<+]+:.h+9.a.z E.$.X.r w.r w.o o +.! v ~+~+T ~+T y.D p+,.,.'+M  +p G G C $+).4+!+4.k S.e . ",
". B+% ^.l+Z :.h.E.E.T e+1.X.X.1.X.] ;.v ~+T T T T y.( ^ .+,.'+'+'+]. +p ,+G C $+).: S 4.R + p.. ",
". j.% e+9.Z Z t.E.5 A.h+1.h+h+] ;.v+T ~+T T T y.j+^ s (+(+,.,.'+ +M 8 8 G ^ C c 4+: 0+I 8.}+*.. ",
". }+++/+V V 9.C.E.z x+:.+.] K @+~+5 E.T ~+ .O p #.#..+.+,.'+'+'+ + +,+,+G C C $+4+: !+4.8.%+g . ",
". #+r+#.e+V l+z+T ~+z+Z i Z A.~+z ~+T  .O ,+/+#.#..+.+,.,./ '+ + +8 ,+^ ^ C c ).4+N u I R H g . ",
". b r+u+; e+V z+T 5+z+[ [ [ - ~+T  .O ,+e+#.s s .+(+,./ ,. +'+ + +8 G G G C p+4+: !+u 3 1+H g . ",
". #+b+.+u+/+e+_+E.T A V V V T.F.F+,+e+/+/+#.#..+(+,.'+,.'+'+ +8 ,+G ,+C C C c ).E+!+u 3 k B+i.. ",
". @.%..+.+u+#.} ~+~+c.; /+e+Q.Q./+#.#.#..+.+,.,.,.,.'+M  + + +8 ,+G ^ C c p+4+4+E+u 4.`.1+(.> . ",
". @.N.,+.+#.#.j T T 5 t+/+#.#.u+#.s s .+.+(+(+,.,.'+'+].M  +,+,+,+^ G $+C c 4+: !+u 4.8.k d 6+. ",
". S.0 0+'+(+s '+a.~+5+a+u+#.#..+.+.+(+(+,.,.,.'+'+ +M  +8  +,+G G C C c p+c 4+N !+M.3 k 8.#+# . ",
". ..b+3.'+,.,.(+A T T @+.+(+(+.+.+,.,.,.,.,.'+'+'+'+ +8  +G G G C C C p+).4+: !+u 4.`.1+`...c+. ",
"  . S.m 8 '+,.(+5.~+~+T 4 .+,.,.,.,.,.,.'+'+'+]. + +p ,+,+,+^ ^ ^ $+C ).4+E+: 0+f.3 8.H `.q..   ",
"  . ++%.4+ +'+'+'+v T ~+{+,+,./ ,.'+'+'+M M  + + +,+8 ,+G G G C c C 4+4+: : 0+u 4.3 1+8.(.e .   ",
"  . % b+m+G  + +M 4 5 5 T _ '+'+'+M  +]. + +8 8  +,+G ,+^ C C C c c c 4+E+!+S M.3 8.H D.o+>..   ",
"    . o+o+4+G  + +]._ ~+5+T D  +'+].M  + + + +,+G G G C C C C c c ).: : !+!+f.3 `.3.k I *..     ",
"    . % b+%+C ,+8  +C - 5+5 5 A $+p 8 ,+,+,+,+,+G G ^ C $+c p+4+B.4+N !+u M.4.3 R H = b+n .     ",
"      . %.++f.c ^ G ,+) Y 5+5+5 Y L ,+,+G G G ^ ^ C C C C p+).).4+E+!+!+u 4.3 k 3.4.R > .       ",
"      . *...@.: $+C ^ ^ [+- 5+5+5+5 a v.) ^ G C $+C c f.0 { :+u : !+u u 4.I 8.3.B+m.% { .       ",
"        . 8+++b.: c C C C 4+_ 5 5 5 5+5 5 - e.:+6+e.Y 5 o.5 5 N.0+S u I 3 8.1+(.2.S.# .         ",
"        . q.h b+2 !+4+c $+c C L U 5 5 5 5 5 5 5 5 5 5 5 o.5 5 ^+u u 4.3 R 1+m+|.b.p.}..         ",
"          . > h b+H !+: 4+).4+p+4+a+=+< 5 5 5 5 5 5 o.5 y.c+^+M.4.3 8.R 3.m+2+%+> c+.           ",
"            . p.h b+b.M.0+: E+4+: 4+4+0+L N.q k.e q % P I M.f.4.3 `.k 3.3.9+d p.>..             ",
"              . p.g b+}+`.4.u !+!+!+!+!+!+N !+N 0+u u M.4.4.~.8.R 3.H I 2+@.6+n .               ",
"                . i.> %.@.H `.3 4.f.u u M.u M.M.4.4.3 3 8.8.R 3.H k |.C+% # }..                 ",
"                  . . k.g o+#+H 8.`.8.`.I 3 3 3 3 8.8.8.k 3.m+I ).S b+p.{ . .                   ",
"                      . . e 8+..@.%+1+k R k J 1+1+1+3.1+3 S D.l.o+*.=+. .                       ",
"                          . . # > q.0 @.}+%+H 1+1+k l.* + o+g e c+. .                           ",
"                              . . . n k.p.*.*.g g *.> e # >.. . .                               ",
"                                    . . . . . . . . . . . .                                     "};
