/* XPM */
static char * eicon3d16_xpm[] = {
"16 16 195 2",
"  	c None",
". 	c #C6CAC6",
"+ 	c #949994",
"@ 	c #7D817C",
"# 	c #787C77",
"$ 	c #858885",
"% 	c #AAACAA",
"& 	c #D5D9D5",
"* 	c #9A9E99",
"= 	c #AEACAA",
"- 	c #CEC8C7",
"; 	c #D2CAC8",
"> 	c #D3CBC6",
", 	c #C1B9B1",
"' 	c #96938A",
") 	c #6F726C",
"! 	c #A0A2A0",
"~ 	c #C6CBC6",
"{ 	c #ABABA9",
"] 	c #E3DFDF",
"^ 	c #E0DBDC",
"/ 	c #9A9497",
"( 	c #746C71",
"_ 	c #6C6366",
": 	c #8E8583",
"< 	c #BCB3AA",
"[ 	c #B5AEA1",
"} 	c #82837A",
"| 	c #848684",
"1 	c #CFD3CF",
"2 	c #A6A7A4",
"3 	c #E9E5E5",
"4 	c #AAA6AA",
"5 	c #231D29",
"6 	c #38313A",
"7 	c #675F64",
"8 	c #645B5E",
"9 	c #352C2E",
"0 	c #7E7570",
"a 	c #BEB6AA",
"b 	c #B2AD9E",
"c 	c #7F8178",
"d 	c #999A99",
"e 	c #8E918C",
"f 	c #A9A4A8",
"g 	c #1D1723",
"h 	c #AAA4A6",
"i 	c #F0E9E6",
"j 	c #E0D8D4",
"k 	c #D7CEC9",
"l 	c #CDC4BD",
"m 	c #C5BCB3",
"n 	c #B6AFA1",
"o 	c #A2A092",
"p 	c #656964",
"q 	c #BFC2BF",
"r 	c #A9A6A4",
"s 	c #DCD6D6",
"t 	c #231D27",
"u 	c #A49EA0",
"v 	c #F0E8E5",
"w 	c #EAE2DE",
"x 	c #DDD4CF",
"y 	c #99908D",
"z 	c #3C3334",
"A 	c #79706A",
"B 	c #BCB5A8",
"C 	c #B5AFA1",
"D 	c #A7A496",
"E 	c #868980",
"F 	c #979897",
"G 	c #8E928E",
"H 	c #C8C1BF",
"I 	c #9B9396",
"J 	c #362E37",
"K 	c #E9E1DE",
"L 	c #E7DEDB",
"M 	c #A69D9B",
"N 	c #3A3134",
"O 	c #180F12",
"P 	c #635A57",
"Q 	c #B5ADA2",
"R 	c #B8B0A3",
"S 	c #B5B0A1",
"T 	c #A6A394",
"U 	c #93948A",
"V 	c #707370",
"W 	c #7B7E7A",
"X 	c #D1C8C4",
"Y 	c #6D6568",
"Z 	c #625A5E",
"` 	c #C6BEBB",
" .	c #3E3539",
"..	c #191014",
"+.	c #655C5B",
"@.	c #BDB4AB",
"#.	c #C2BAAF",
"$.	c #BEB6A9",
"%.	c #B4AD9F",
"&.	c #ADA89A",
"*.	c #A3A092",
"=.	c #939489",
"-.	c #636663",
";.	c #747873",
">.	c #C8BFB7",
",.	c #6D6465",
"'.	c #605758",
").	c #B9B0AC",
"!.	c #716766",
"~.	c #BBB2AB",
"{.	c #C7BEB4",
"].	c #C3BAAF",
"^.	c #B6AFA2",
"/.	c #B1AB9C",
"(.	c #ACA899",
"_.	c #A09E90",
":.	c #909188",
"<.	c #636662",
"[.	c #838783",
"}.	c #BAB3A8",
"|.	c #8B827D",
"1.	c #32292A",
"2.	c #C4BBB2",
"3.	c #C6BDB3",
"4.	c #BFB7AB",
"5.	c #B9B2A4",
"6.	c #B4AE9F",
"7.	c #A9A698",
"8.	c #9C9B8E",
"9.	c #8C8E86",
"0.	c #6F716F",
"a.	c #A4A7A4",
"b.	c #939187",
"c.	c #B4ACA1",
"d.	c #211817",
"e.	c #887F78",
"f.	c #BDB5A9",
"g.	c #BAB2A5",
"h.	c #B7B1A3",
"i.	c #B2AC9E",
"j.	c #AEA99A",
"k.	c #A8A496",
"l.	c #A19F92",
"m.	c #94958A",
"n.	c #868982",
"o.	c #929492",
"p.	c #6C6F69",
"q.	c #B1AB9D",
"r.	c #867F74",
"s.	c #1A120F",
"t.	c #80796F",
"u.	c #B5AEA0",
"v.	c #A9A697",
"w.	c #A19F91",
"x.	c #9A9A8E",
"y.	c #898A82",
"z.	c #6B6E6A",
"A.	c #9C9E9C",
"B.	c #83847C",
"C.	c #7B766A",
"D.	c #1F1A14",
"E.	c #2E2922",
"F.	c #545046",
"G.	c #524F45",
"H.	c #2C2922",
"I.	c #656359",
"J.	c #97978C",
"K.	c #8D8E86",
"L.	c #868983",
"M.	c #8E8F8E",
"N.	c #7D7F7D",
"O.	c #7D8078",
"P.	c #9B9A8E",
"Q.	c #9E9C8E",
"R.	c #716F64",
"S.	c #55534A",
"T.	c #525149",
"U.	c #68685F",
"V.	c #8E8F85",
"W.	c #8B8D85",
"X.	c #858883",
"Y.	c #787A78",
"Z.	c #9A9B9A",
"`.	c #646863",
" +	c #85877F",
".+	c #919389",
"++	c #909187",
"@+	c #8E9088",
"#+	c #8A8D86",
"$+	c #6D716C",
"%+	c #909290",
"&+	c #949694",
"*+	c #707270",
"=+	c #626662",
"-+	c #909190",
"          . + @ # $ %           ",
"      & * = - ; > , ' ) !       ",
"    ~ { ] ^ / ( _ : < [ } |     ",
"  1 2 3 4 5 6 7 8 9 0 a b c d   ",
"  e ^ f g h i j k l m a n o p   ",
"q r s t u v w x y z A B C D E F ",
"G H I J K L M N O P Q R S T U V ",
"W X Y Z `  ...+.@.#.$.%.&.*.=.-.",
";.>.,.'.).!.~.{.].$.^./.(._.:.<.",
"[.}.|.1.m 2.3.4.4.5.6.&.7.8.9.0.",
"a.b.c.d.e.a f.g.h.i.j.k.l.m.n.o.",
"  p.q.r.s.t.n u.S (.v.w.x.y.z.  ",
"  A.B.k.C.D.E.F.G.H.I.J.K.L.M.  ",
"    N.O.P.Q.R.S.T.U.V.W.X.Y.    ",
"      Z.`. +.+++:.@+#+$+%+      ",
"          &+*+=+=+V -+          "};
