/* XPM */
static char * eicon3d16_xpm[] = {
"16 16 157 2",
"  	c None",
". 	c #000000",
"+ 	c #ADABA9",
"@ 	c #CEC8C7",
"# 	c #D7CFCD",
"$ 	c #D0C8C3",
"% 	c #BDB5AD",
"& 	c #98958C",
"* 	c #A9A9A7",
"= 	c #E2DEDE",
"- 	c #DED9DA",
"; 	c #9C9699",
"> 	c #726A6F",
", 	c #6F6669",
"' 	c #8E8583",
") 	c #BFB6AD",
"! 	c #B7B0A3",
"~ 	c #82837A",
"{ 	c #A6A7A4",
"] 	c #E7E3E3",
"^ 	c #A9A5A9",
"/ 	c #231D29",
"( 	c #373039",
"_ 	c #675F64",
": 	c #635A5D",
"< 	c #352C2E",
"[ 	c #807772",
"} 	c #BEB6AA",
"| 	c #B1AC9D",
"1 	c #7F8178",
"2 	c #DFDADB",
"3 	c #A8A3A7",
"4 	c #1B1521",
"5 	c #A8A2A4",
"6 	c #EDE6E3",
"7 	c #E2DAD6",
"8 	c #D7CEC9",
"9 	c #CDC4BD",
"0 	c #C5BCB3",
"a 	c #B5AEA0",
"b 	c #A4A294",
"c 	c #A9A6A4",
"d 	c #DAD4D4",
"e 	c #231D27",
"f 	c #A6A0A2",
"g 	c #F1E9E6",
"h 	c #EAE2DE",
"i 	c #DFD6D1",
"j 	c #9C9390",
"k 	c #3B3233",
"l 	c #786F69",
"m 	c #BCB5A8",
"n 	c #B4AEA0",
"o 	c #A8A597",
"p 	c #868980",
"q 	c #C9C2C0",
"r 	c #999194",
"s 	c #362E37",
"t 	c #E8E0DD",
"u 	c #E7DEDB",
"v 	c #A69D9B",
"w 	c #3B3235",
"x 	c #180F12",
"y 	c #645B58",
"z 	c #B3ABA0",
"A 	c #BAB2A5",
"B 	c #B2AD9E",
"C 	c #A8A596",
"D 	c #93948A",
"E 	c #D1C8C4",
"F 	c #6F676A",
"G 	c #645C60",
"H 	c #C3BBB8",
"I 	c #3D3438",
"J 	c #191014",
"K 	c #685F5E",
"L 	c #BAB1A8",
"M 	c #C2BAAF",
"N 	c #BDB5A8",
"O 	c #B7B0A2",
"P 	c #AFAA9C",
"Q 	c #A6A395",
"R 	c #94958A",
"S 	c #CAC1B9",
"T 	c #6C6364",
"U 	c #615859",
"V 	c #B9B0AC",
"W 	c #716766",
"X 	c #BDB4AD",
"Y 	c #C8BFB5",
"Z 	c #C3BAAF",
"` 	c #BEB6A9",
" .	c #B8B1A4",
"..	c #B3AD9E",
"+.	c #ACA899",
"@.	c #A2A092",
"#.	c #909188",
"$.	c #B7B0A5",
"%.	c #8B827D",
"&.	c #32292A",
"*.	c #C9C0B7",
"=.	c #C7BEB5",
"-.	c #C5BCB2",
";.	c #C1B9AD",
">.	c #BDB5A9",
",.	c #B9B2A4",
"'.	c #B4AE9F",
").	c #AEA99B",
"!.	c #A7A496",
"~.	c #9D9C8F",
"{.	c #8D8F87",
"].	c #949288",
"^.	c #B8B0A5",
"/.	c #211817",
"(.	c #887F78",
"_.	c #C0B8AC",
":.	c #BBB3A6",
"<.	c #B7B1A3",
"[.	c #B3AD9F",
"}.	c #AFAA9B",
"|.	c #A9A597",
"1.	c #A19F92",
"2.	c #95968B",
"3.	c #868982",
"4.	c #B1AB9D",
"5.	c #867F74",
"6.	c #1A120F",
"7.	c #827B71",
"8.	c #ADA99A",
"9.	c #99998D",
"0.	c #8C8D85",
"a.	c #808179",
"b.	c #ABA799",
"c.	c #7F7A6E",
"d.	c #1E1913",
"e.	c #2D2821",
"f.	c #524E44",
"g.	c #504D43",
"h.	c #2C2922",
"i.	c #68665C",
"j.	c #98988D",
"k.	c #868983",
"l.	c #7D8078",
"m.	c #9E9D91",
"n.	c #9E9C8E",
"o.	c #716F64",
"p.	c #545249",
"q.	c #525149",
"r.	c #6A6A61",
"s.	c #8F9086",
"t.	c #8B8D85",
"u.	c #868984",
"v.	c #85877F",
"w.	c #909288",
"x.	c #919288",
"y.	c #8E8F86",
"z.	c #898C85",
"          . . . . . .           ",
"      . . + @ # $ % & . .       ",
"    . * = - ; > , ' ) ! ~ .     ",
"  . { ] ^ / ( _ : < [ } | 1 .   ",
"  . 2 3 4 5 6 7 8 9 0 } a b .   ",
". c d e f g h i j k l m n o p . ",
". q r s t u v w x y z A B C D . ",
". E F G H I J K L M N O P Q R . ",
". S T U V W X Y Z `  ...+.@.#.. ",
". $.%.&.*.=.-.;.>.,.'.).!.~.{.. ",
". ].^./.(._.} :.<.[.}.|.1.2.3.. ",
"  . 4.5.6.7.O a | 8.C @.9.0..   ",
"  . a.b.c.d.e.f.g.h.i.j.0.k..   ",
"    . l.m.n.o.p.q.r.s.t.u..     ",
"      . . v.w.x.y.{.z.. .       ",
"          . . . . . .           "};
