/* XPM */
static const char * eiconcap16_xpm[] = {
"16 16 187 2",
"  	c None",
". 	c #C6CAC6",
"+ 	c #949994",
"@ 	c #7D817C",
"# 	c #787C77",
"$ 	c #858885",
"% 	c #AAACAA",
"& 	c #D5D9D5",
"* 	c #9A9E99",
"= 	c #AEACAA",
"- 	c #CEC8C7",
"; 	c #D2CAC8",
"> 	c #D3CBC6",
", 	c #C1B9B1",
"' 	c #96938A",
") 	c #6F726C",
"! 	c #A0A2A0",
"~ 	c #C6CBC6",
"{ 	c #ABABA9",
"] 	c #E3DFDF",
"^ 	c #E0DBDC",
"/ 	c #9A9497",
"( 	c #746C71",
"_ 	c #6C6366",
": 	c #8E8583",
"< 	c #BCB3AA",
"[ 	c #B5AEA1",
"} 	c #82837A",
"| 	c #848684",
"1 	c #CFD3CF",
"2 	c #A6A7A4",
"3 	c #E9E5E5",
"4 	c #AAA6AA",
"5 	c #231D29",
"6 	c #38313A",
"7 	c #675F64",
"8 	c #645B5E",
"9 	c #352C2E",
"0 	c #7E7570",
"a 	c #BEB6AA",
"b 	c #B2AD9E",
"c 	c #7F8178",
"d 	c #999A99",
"e 	c #8E918C",
"f 	c #A9A4A8",
"g 	c #1D1723",
"h 	c #AAA4A6",
"i 	c #F0E9E6",
"j 	c #E0D8D4",
"k 	c #D7CEC9",
"l 	c #CDC4BD",
"m 	c #C5BCB3",
"n 	c #B6AFA1",
"o 	c #A2A092",
"p 	c #656964",
"q 	c #BFC2BF",
"r 	c #A9A6A4",
"s 	c #DCD6D6",
"t 	c #231D27",
"u 	c #A49EA0",
"v 	c #F0E8E5",
"w 	c #EAE2DE",
"x 	c #DDD4CF",
"y 	c #99908D",
"z 	c #3C3334",
"A 	c #79706A",
"B 	c #BCB5A8",
"C 	c #B5AFA1",
"D 	c #A7A496",
"E 	c #868980",
"F 	c #979897",
"G 	c #8E928E",
"H 	c #C8C1BF",
"I 	c #9B9396",
"J 	c #362E37",
"K 	c #E9E1DE",
"L 	c #E7DEDB",
"M 	c #A69D9B",
"N 	c #3A3134",
"O 	c #180F12",
"P 	c #635A57",
"Q 	c #B5ADA2",
"R 	c #B8B0A3",
"S 	c #B5B0A1",
"T 	c #A6A394",
"U 	c #93948A",
"V 	c #707370",
"W 	c #7B7E7A",
"X 	c #D1C8C4",
"Y 	c #6D6568",
"Z 	c #625A5E",
"` 	c #C6BEBB",
" .	c #3E3539",
"..	c #191014",
"+.	c #655C5B",
"@.	c #BDB4AB",
"#.	c #C2BAAF",
"$.	c #BEB6A9",
"%.	c #B4AD9F",
"&.	c #010101",
"*.	c #636663",
"=.	c #747873",
"-.	c #C8BFB7",
";.	c #6D6465",
">.	c #605758",
",.	c #B9B0AC",
"'.	c #716766",
").	c #BBB2AB",
"!.	c #C7BEB4",
"~.	c #A8A096",
"{.	c #090908",
"].	c #090808",
"^.	c #8D887C",
"/.	c #040404",
"(.	c #DDDCDA",
"_.	c #030303",
":.	c #4F514E",
"<.	c #838783",
"[.	c #BAB3A8",
"}.	c #8B827D",
"|.	c #32292A",
"1.	c #C4BBB2",
"2.	c #C6BDB3",
"3.	c #BFB7AB",
"4.	c #EDEDEC",
"5.	c #B2B2B0",
"6.	c #080807",
"7.	c #484641",
"8.	c #9F9D96",
"9.	c #050505",
"0.	c #A4A7A4",
"a.	c #939187",
"b.	c #B4ACA1",
"c.	c #211817",
"d.	c #887F78",
"e.	c #BDB5A9",
"f.	c #BAB2A5",
"g.	c #9D9C98",
"h.	c #91908A",
"i.	c #908E86",
"j.	c #97958E",
"k.	c #6C6F69",
"l.	c #B1AB9D",
"m.	c #867F74",
"n.	c #1A120F",
"o.	c #80796F",
"p.	c #B5AEA0",
"q.	c #908C80",
"r.	c #595854",
"s.	c #605E57",
"t.	c #898883",
"u.	c #807D74",
"v.	c #9C9E9C",
"w.	c #83847C",
"x.	c #A8A496",
"y.	c #7B766A",
"z.	c #1F1A14",
"A.	c #2E2922",
"B.	c #000000",
"C.	c #43423F",
"D.	c #282724",
"E.	c #363430",
"F.	c #7D7F7D",
"G.	c #7D8078",
"H.	c #9B9A8E",
"I.	c #9E9C8E",
"J.	c #716F64",
"K.	c #EEEEED",
"L.	c #B6B5AF",
"M.	c #21201E",
"N.	c #0A0908",
"O.	c #181816",
"P.	c #E6E6E4",
"Q.	c #9A9B9A",
"R.	c #646863",
"S.	c #85877F",
"T.	c #919389",
"U.	c #161614",
"V.	c #8C8B89",
"W.	c #DFDEDC",
"X.	c #949694",
"Y.	c #707270",
"Z.	c #626662",
"`.	c #4E514E",
" +	c #B0AFA9",
".+	c #D5D4D1",
"++	c #93918B",
"          . + @ # $ %           ",
"      & * = - ; > , ' ) !       ",
"    ~ { ] ^ / ( _ : < [ } |     ",
"  1 2 3 4 5 6 7 8 9 0 a b c d   ",
"  e ^ f g h i j k l m a n o p   ",
"q r s t u v w x y z A B C D E F ",
"G H I J K L M N O P Q R S T U V ",
"W X Y Z `  ...+.@.#.$.%.&.&.&.*.",
"=.-.;.>.,.'.).!.~.{.].^./.(._.:.",
"<.[.}.|.m 1.2.3.{.4.5.6.7.8.7.9.",
"0.a.b.c.d.a e.f.{.g.h.8.8.8.i.j.",
"  k.l.m.n.o.n p.q.6.8.8.r.s.t.u.",
"  v.w.x.y.z.A.B.B.7.8.s.C.D.E.8.",
"    F.G.H.I.J.B.K.L.8.r.M.N.O.P.",
"      Q.R.S.T.&._.7.8.t.E.U.V.W.",
"          X.Y.Z.`.9. +u.L.P..+++"};
