/* XPM */
static char * eicon3d32_xpm[] = {
"32 32 599 2",
"  	c None",
". 	c #ACB0AC",
"+ 	c #9A9F9A",
"@ 	c #8D928D",
"# 	c #888D88",
"$ 	c #8B908B",
"% 	c #979B97",
"& 	c #A7ADA7",
"* 	c #909690",
"= 	c #7B807B",
"- 	c #686D68",
"; 	c #666A65",
"> 	c #6C6E6A",
", 	c #6D706B",
"' 	c #646763",
") 	c #636863",
"! 	c #6C716C",
"~ 	c #6A6E6A",
"{ 	c #6F736F",
"] 	c #B6BDB6",
"^ 	c #9BA29B",
"/ 	c #717571",
"( 	c #898886",
"_ 	c #AEA9A8",
": 	c #CCC5C3",
"< 	c #D7CFCC",
"[ 	c #D7CECB",
"} 	c #CEC5C1",
"| 	c #CEC4BE",
"1 	c #BCB4AC",
"2 	c #A09B92",
"3 	c #818179",
"4 	c #646762",
"5 	c #646964",
"6 	c #646864",
"7 	c #C6CBC6",
"8 	c #BCC2BC",
"9 	c #7C807C",
"0 	c #9D9C9A",
"a 	c #DAD5D5",
"b 	c #DDD7D7",
"c 	c #DFD9D8",
"d 	c #D9D2D2",
"e 	c #D7D0CF",
"f 	c #D4CCCB",
"g 	c #D5CDCA",
"h 	c #D3CAC5",
"i 	c #C9C0BA",
"j 	c #C8BFB7",
"k 	c #C1B9AF",
"l 	c #BAB3A6",
"m 	c #8D8B81",
"n 	c #676A65",
"o 	c #5F635F",
"p 	c #757875",
"q 	c #C5CAC5",
"r 	c #ABB0AB",
"s 	c #80817F",
"t 	c #D9D5D5",
"u 	c #E4E0E0",
"v 	c #E4DFE0",
"w 	c #E2DDDD",
"x 	c #E2DCDC",
"y 	c #E2DBDB",
"z 	c #DDD6D5",
"A 	c #CBC4C3",
"B 	c #C7BFBD",
"C 	c #D4CCC8",
"D 	c #CFC6C1",
"E 	c #CBC2BB",
"F 	c #C5BBB3",
"G 	c #C1B9AE",
"H 	c #BAB2A5",
"I 	c #ABA699",
"J 	c #73756D",
"K 	c #636763",
"L 	c #616461",
"M 	c #C0C6C0",
"N 	c #9EA39E",
"O 	c #979695",
"P 	c #E5E1E2",
"Q 	c #E4E1E1",
"R 	c #EAE5E6",
"S 	c #E5E0E0",
"T 	c #C8C3C5",
"U 	c #767076",
"V 	c #3A343D",
"W 	c #160E19",
"X 	c #0F0711",
"Y 	c #0F070F",
"Z 	c #150D14",
"` 	c #362D31",
" .	c #6A6160",
"..	c #AEA49E",
"+.	c #C4BBB1",
"@.	c #BFB6AB",
"#.	c #B6AFA2",
"$.	c #AFAA9B",
"%.	c #818279",
"&.	c #5E615E",
"*.	c #C1C6C1",
"=.	c #A2A8A2",
"-.	c #939290",
";.	c #E7E3E3",
">.	c #E7E4E4",
",.	c #DAD5D6",
"'.	c #5F5A62",
").	c #0E0815",
"!.	c #0B0410",
"~.	c #0E0712",
"{.	c #0E0711",
"].	c #0F0710",
"^.	c #0F070E",
"/.	c #0E050A",
"(.	c #0F060A",
"_.	c #22191B",
":.	c #C4BBB2",
"<.	c #C4BCB0",
"[.	c #B7AFA3",
"}.	c #B1AB9D",
"|.	c #ACA899",
"1.	c #7F8178",
"2.	c #5E625E",
"3.	c #707270",
"4.	c #A3ABA3",
"5.	c #7D7E7C",
"6.	c #E2DDDE",
"7.	c #EAE6E6",
"8.	c #BEB9BC",
"9.	c #27212D",
"0.	c #0C0612",
"a.	c #0E0814",
"b.	c #39333B",
"c.	c #888085",
"d.	c #B7AFAF",
"e.	c #C6BEBB",
"f.	c #AAA19F",
"g.	c #766D6C",
"h.	c #3B3234",
"i.	c #574E4C",
"j.	c #C0B8AD",
"k.	c #BDB5A9",
"l.	c #B7B0A2",
"m.	c #ACA799",
"n.	c #A2A092",
"o.	c #767972",
"p.	c #555955",
"q.	c #A3A9A3",
"r.	c #D4CFCF",
"s.	c #E6E2E2",
"t.	c #BDB8BB",
"u.	c #1C1723",
"v.	c #29232E",
"w.	c #AAA3A6",
"x.	c #EFE8E6",
"y.	c #EEE6E4",
"z.	c #E5DDDA",
"A.	c #E0D7D4",
"B.	c #DDD4D0",
"C.	c #D5CBC6",
"D.	c #D1C8C1",
"E.	c #CCC2BB",
"F.	c #CAC1B8",
"G.	c #C5BCB2",
"H.	c #C4BCB1",
"I.	c #BCB4A8",
"J.	c #B9B3A5",
"K.	c #B2AC9D",
"L.	c #ABA899",
"M.	c #99998D",
"N.	c #6A6E69",
"O.	c #494C49",
"P.	c #818781",
"Q.	c #9D9B99",
"R.	c #E1DBDC",
"S.	c #E3DEDE",
"T.	c #D8D3D4",
"U.	c #27212C",
"V.	c #110B17",
"W.	c #37313B",
"X.	c #DBD5D4",
"Y.	c #F4EDEB",
"Z.	c #EFE7E5",
"`.	c #E8E0DD",
" +	c #E5DDD9",
".+	c #DFD6D2",
"++	c #D9D0CB",
"@+	c #D3CAC4",
"#+	c #CBC1BA",
"$+	c #C0B7AC",
"%+	c #BCB4A7",
"&+	c #B9B2A4",
"*+	c #B5B0A1",
"=+	c #A9A597",
"-+	c #A2A193",
";+	c #888B82",
">+	c #5A5E5A",
",+	c #979D97",
"'+	c #6D706C",
")+	c #D4CECD",
"!+	c #E1DCDC",
"~+	c #E4DEDE",
"{+	c #625C63",
"]+	c #100A16",
"^+	c #221C26",
"/+	c #DDD6D6",
"(+	c #F3ECEA",
"_+	c #EFE7E4",
":+	c #E9E1DD",
"<+	c #E1D9D5",
"[+	c #DBD2CE",
"}+	c #D8CFC9",
"|+	c #CFC6C0",
"1+	c #918784",
"2+	c #3C3333",
"3+	c #524946",
"4+	c #BBB3A7",
"5+	c #BAB3A5",
"6+	c #ADA99A",
"7+	c #A4A294",
"8+	c #96978C",
"9+	c #6A6F6A",
"0+	c #4D4F4D",
"a+	c #848A84",
"b+	c #888683",
"c+	c #DDD7D6",
"d+	c #C4BEBF",
"e+	c #130D19",
"f+	c #0E0713",
"g+	c #A7A0A2",
"h+	c #F5EEEB",
"i+	c #F0E8E6",
"j+	c #EEE6E3",
"k+	c #EBE2DE",
"l+	c #E6DDD9",
"m+	c #E2DAD5",
"n+	c #DAD1CC",
"o+	c #948B89",
"p+	c #332A2D",
"q+	c #10070A",
"r+	c #100709",
"s+	c #130A0B",
"t+	c #B9B1A6",
"u+	c #BFB7AB",
"v+	c #BBB4A7",
"w+	c #B8B2A4",
"x+	c #AFA99B",
"y+	c #A4A193",
"z+	c #9B9B8F",
"A+	c #7C8079",
"B+	c #4C4F4C",
"C+	c #737873",
"D+	c #AAA5A2",
"E+	c #D9D1D0",
"F+	c #DED7D6",
"G+	c #736C72",
"H+	c #3A333C",
"I+	c #E8E1DF",
"J+	c #EBE3E1",
"K+	c #EBE3E0",
"L+	c #EBE3DF",
"M+	c #E5DCD8",
"N+	c #E1D8D3",
"O+	c #99908F",
"P+	c #332A2E",
"Q+	c #10070B",
"R+	c #12090B",
"S+	c #322928",
"T+	c #8E867E",
"U+	c #BCB5A7",
"V+	c #B4AEA0",
"W+	c #B1AC9D",
"X+	c #B0AC9D",
"Y+	c #A6A495",
"Z+	c #898C84",
"`+	c #585C58",
" @	c #A3A7A3",
".@	c #666A66",
"+@	c #C6BFBB",
"@@	c #D7CFCE",
"#@	c #D9D2D0",
"$@	c #372F37",
"%@	c #140C16",
"&@	c #837B7F",
"*@	c #E7DFDC",
"=@	c #E7DEDB",
"-@	c #E3DAD6",
";@	c #9F9695",
">@	c #342B2F",
",@	c #11080D",
"'@	c #0E0509",
")@	c #352C2D",
"!@	c #8B827C",
"~@	c #C3BAB0",
"{@	c #C1B8AD",
"]@	c #B3AD9E",
"^@	c #B0AB9C",
"/@	c #AAA697",
"(@	c #9D9D91",
"_@	c #8F9188",
":@	c #6E706E",
"<@	c #CFC6C2",
"[@	c #D7CECC",
"}@	c #D6CECC",
"|@	c #150D16",
"1@	c #100811",
"2@	c #AEA6A6",
"3@	c #E0D8D4",
"4@	c #E1D8D4",
"5@	c #9E9595",
"6@	c #362D32",
"7@	c #0E050B",
"8@	c #130A0F",
"9@	c #362D2F",
"0@	c #918883",
"a@	c #C7BEB5",
"b@	c #BEB6AA",
"c@	c #B8B1A4",
"d@	c #B6AFA1",
"e@	c #AEAA9B",
"f@	c #A9A697",
"g@	c #9F9D8F",
"h@	c #9A9A8D",
"i@	c #8E9087",
"j@	c #6B706B",
"k@	c #555755",
"l@	c #818581",
"m@	c #6E706C",
"n@	c #CDC4BE",
"o@	c #D2C9C5",
"p@	c #C4BCB9",
"q@	c #100810",
"r@	c #C3BBB8",
"s@	c #DAD2CD",
"t@	c #7A7172",
"u@	c #0F060C",
"v@	c #352C2E",
"w@	c #938A85",
"x@	c #CBC2BA",
"y@	c #C9C0B6",
"z@	c #C6BDB3",
"A@	c #C3BAAF",
"B@	c #BDB4A9",
"C@	c #B2AC9E",
"D@	c #AEA99A",
"E@	c #8C8D85",
"F@	c #757974",
"G@	c #4A4C4A",
"H@	c #7C817C",
"I@	c #6B6D68",
"J@	c #C4BBB7",
"K@	c #0F070D",
"L@	c #0D050B",
"M@	c #C1B8B4",
"N@	c #D4CBC6",
"O@	c #756C6C",
"P@	c #0F060B",
"Q@	c #342B2D",
"R@	c #938A86",
"S@	c #CDC4BC",
"T@	c #CBC2B9",
"U@	c #C8BFB6",
"V@	c #C1B9AC",
"W@	c #BCB5A8",
"X@	c #B5AFA1",
"Y@	c #B2AD9E",
"Z@	c #A9A698",
"`@	c #A09F91",
" #	c #98988D",
".#	c #8A8C83",
"+#	c #767B75",
"@#	c #656863",
"##	c #C2B9B0",
"$#	c #150C11",
"%#	c #10070C",
"&#	c #A69D9A",
"*#	c #D0C7C0",
"=#	c #B3AAA4",
"-#	c #C9C0B7",
";#	c #C2BAAF",
">#	c #C0B8AC",
",#	c #BDB5A8",
"'#	c #B4AD9F",
")#	c #ADA899",
"!#	c #9F9E91",
"~#	c #95968B",
"{#	c #878981",
"]#	c #747873",
"^#	c #545654",
"/#	c #8E918E",
"(#	c #626762",
"_#	c #B7B0A5",
":#	c #C7BEB6",
"<#	c #C9C0B8",
"[#	c #342B2C",
"}#	c #756C6A",
"|#	c #CCC3BA",
"1#	c #C5BCB1",
"2#	c #C2B9AE",
"3#	c #B6B0A2",
"4#	c #B5AFA0",
"5#	c #AAA798",
"6#	c #A1A092",
"7#	c #9B9B8E",
"8#	c #919288",
"9#	c #898B84",
"0#	c #6A6C6A",
"a#	c #686C68",
"b#	c #9D998F",
"c#	c #C5BCB3",
"d#	c #645B58",
"e#	c #0E0507",
"f#	c #342B2B",
"g#	c #C6BDB4",
"h#	c #C2B9AF",
"i#	c #B7AFA2",
"j#	c #B7B1A3",
"k#	c #ABA798",
"l#	c #A7A495",
"m#	c #A09E90",
"n#	c #9E9D90",
"o#	c #8E8F87",
"p#	c #8D9089",
"q#	c #676C67",
"r#	c #808078",
"s#	c #A9A097",
"t#	c #140B0C",
"u#	c #0F0607",
"v#	c #8C837C",
"w#	c #BBB3A6",
"x#	c #B8B1A3",
"y#	c #B4AE9F",
"z#	c #A7A395",
"A#	c #A7A496",
"B#	c #94948A",
"C#	c #878881",
"D#	c #8A8E88",
"E#	c #444744",
"F#	c #6B6F6B",
"G#	c #676B66",
"H#	c #524944",
"I#	c #100807",
"J#	c #221A18",
"K#	c #B1A89E",
"L#	c #B9B1A4",
"M#	c #B3AD9F",
"N#	c #A8A496",
"O#	c #A7A597",
"P#	c #A4A395",
"Q#	c #9C9B8E",
"R#	c #96968B",
"S#	c #8C8D84",
"T#	c #878982",
"U#	c #7D827C",
"V#	c #454745",
"W#	c #626662",
"X#	c #8D8D83",
"Y#	c #ADA599",
"Z#	c #211A16",
"`#	c #100806",
" $	c #2E2622",
".$	c #A9A195",
"+$	c #B7B0A3",
"@$	c #B5AEA1",
"#$	c #A19F91",
"$$	c #97988C",
"%$	c #909187",
"&$	c #868880",
"*$	c #959992",
"=$	c #5D605D",
"-$	c #656964",
";$	c #A5A294",
">$	c #969084",
",$	c #18110D",
"'$	c #130C08",
")$	c #211A15",
"!$	c #847D72",
"~$	c #B3AC9E",
"{$	c #A8A596",
"]$	c #9D9B8D",
"^$	c #94958B",
"/$	c #8D8F87",
"($	c #8C8D87",
"_$	c #818681",
":$	c #404240",
"<$	c #777A72",
"[$	c #ADA89A",
"}$	c #8D877A",
"|$	c #1F1913",
"1$	c #110A06",
"2$	c #110C07",
"3$	c #2F2A23",
"4$	c #686258",
"5$	c #8D887B",
"6$	c #9E998B",
"7$	c #9B9789",
"8$	c #898579",
"9$	c #5F5B51",
"0$	c #333028",
"a$	c #45433A",
"b$	c #A19F92",
"c$	c #9D9D90",
"d$	c #82837D",
"e$	c #9DA09B",
"f$	c #464946",
"g$	c #727472",
"h$	c #616561",
"i$	c #83857C",
"j$	c #9F9A8C",
"k$	c #4A463D",
"l$	c #120D07",
"m$	c #0C0702",
"n$	c #0E0A05",
"o$	c #110E08",
"p$	c #0E0B05",
"q$	c #0D0B06",
"r$	c #1B1B15",
"s$	c #9B9A8E",
"t$	c #83847E",
"u$	c #9B9E98",
"v$	c #5C605C",
"w$	c #606260",
"x$	c #5C5F5C",
"y$	c #606460",
"z$	c #81847C",
"A$	c #9D9C8F",
"B$	c #A19E90",
"C$	c #928F81",
"D$	c #545046",
"E$	c #2E2B24",
"F$	c #120F09",
"G$	c #0E0C07",
"H$	c #100E09",
"I$	c #272620",
"J$	c #515048",
"K$	c #88887D",
"L$	c #97978C",
"M$	c #8F9086",
"N$	c #8B8C84",
"O$	c #868780",
"P$	c #9FA29D",
"Q$	c #656A65",
"R$	c #5B5E5B",
"S$	c #797C76",
"T$	c #9C9B8F",
"U$	c #A09E91",
"V$	c #9E9C8F",
"W$	c #959487",
"X$	c #939286",
"Y$	c #9A998D",
"Z$	c #97978B",
"`$	c #8D8F86",
" %	c #898B83",
".%	c #8B8C86",
"+%	c #9A9E98",
"@%	c #595D59",
"#%	c #4D4E4D",
"$%	c #6B6D6B",
"%%	c #535753",
"&%	c #6F736E",
"*%	c #848880",
"=%	c #94958A",
"-%	c #95968A",
";%	c #98998E",
">%	c #909188",
",%	c #8C8E85",
"'%	c #888982",
")%	c #989B95",
"!%	c #868A85",
"~%	c #484B48",
"{%	c #5F615F",
"]%	c #4B4E4B",
"^%	c #575B57",
"/%	c #6E736E",
"(%	c #7F837D",
"_%	c #8B8E87",
":%	c #8A8C84",
"<%	c #8F9088",
"[%	c #8A8B83",
"}%	c #888A82",
"|%	c #898A83",
"1%	c #90938C",
"2%	c #939891",
"3%	c #838883",
"4%	c #555855",
"5%	c #3C3E3C",
"6%	c #494B49",
"7%	c #494D49",
"8%	c #707570",
"9%	c #787C77",
"0%	c #7A7E79",
"a%	c #6D726D",
"b%	c #5B5F5B",
"c%	c #454845",
"d%	c #424442",
"e%	c #686968",
"f%	c #4B4D4B",
"g%	c #474947",
"h%	c #535553",
"                          . + @ # $ %                           ",
"                    & * = - ; > , ' ) ! ~ {                     ",
"                ] ^ / ( _ : < [ } | 1 2 3 4 5 6                 ",
"            7 8 9 0 a b c d e f g h i j k l m n o p             ",
"          q r s t u v w x y z A B C D E F G H I J K L           ",
"        M N O P Q R S T U V W X Y Z `  ...+.@.#.$.%.K &.        ",
"      *.=.-.;.>.;.,.'.).!.~.{.].Y ^./.(._.:.<.[.}.|.1.2.3.      ",
"      4.5.6.;.7.8.9.0.a.b.c.d.B e.f.g.h.i.:.j.k.l.m.n.o.p.      ",
"    q./ r.s.7.t.u.a.v.w.x.y.z.A.B.C.D.E.F.G.H.I.J.K.L.M.N.O.    ",
"    P.Q.R.S.T.U.V.W.X.Y.Z.`. +.+++@+E #+F.+.$+%+&+*+=+-+;+>+    ",
"  ,+'+)+!+~+{+]+^+/+(+_+_+:+<+[+}+|+1+2+3+G @.4+5+$.6+7+8+9+0+  ",
"  a+b+d c+d+e+f+g+h+i+j+k+l+m+n+o+p+q+r+s+t+u+v+w+x+6+y+z+A+B+  ",
"  C+D+E+F+G+~.H+I+J+K+L+M+N+O+P+Q+q+R+S+T+@.4+U+V+W+X+Y+z+Z+`+  ",
" @.@+@@@#@$@%@&@*@=@ +-@;@>@,@'@q+)@!@~@{@u+H &+]@^@/@n.(@_@5 :@",
"@ ' <@[@}@|@1@2@3@4@5@6@7@8@Q+9@0@a@~@G.u+b@c@d@^@e@f@g@h@i@j@k@",
"l@m@n@o@p@q@^.r@s@t@u@,@(.v@w@x@y@z@A@B@I.l c@C@}.D@f@n.(@E@F@G@",
"H@I@j D J@K@L@M@N@O@P@Q@R@S@T@U@G.A@I.V@H W@X@Y@D@6+Z@`@ #.#+#G@",
"l@@###E.i $#%#&#|+*#=#S@x@-#-#G.;#>#,#c@&+'#C@$.)#=+7+!#~#{#]#^#",
"/#(#_#:#<#[#q+}#S@#+|#F.T@~@1#2#$+k.l &+3#4#$.$.5#y+6#7#8#9#! 0#",
"  a#b#j.c#d#e#f#U@g#g#G.2#h#G @.,#%+i#j#V+Y@6+k#l#m#n# #o#p#>+  ",
"  q#r#v+;#s#t#u#v#+.G G >#u+u+w#H d@x#y#Y@^@e@z#A#`@7#B#C#D#E#  ",
"  F#G#}.w#>#H#I#J#K#b@k.I.L#l i#d@X@M#V+e@6+N#O#P#Q#R#S#T#U#V#  ",
"    W#X#]@c@Y#Z#`# $.$W@+$@$l.3#4#3#W+$./@=+n.#$n#$$%$&$*$p.    ",
"    =$-$;$K.j#>$,$'$)$!$3#~$y#}.$.$.)#L.{$Y+]$n#M.^$/$($_$:$    ",
"      >+<${$[$)#}$|$1$2$3$4$5$6$7$8$9$0$a$b$c$z+~#o#d$e$f$      ",
"      g$h$i$#$f@6+j$k$l$m$2$n$o$p$p$q$q$r$s$ #^$.#t$u$v$w$      ",
"        x$y$z$A$B$Y+f@C$D$E$F$q$G$H$I$J$K$L$M$N$O$P$Q$G@        ",
"          R$2.S$^$T$A$n#U$U$V$W$X$Y$Z$R#8#`$ %.%+%@%#%          ",
"            $%%%&%*%^$=%L$ #-% #;%^$>%,%{#'%)%!%~%{%            ",
"                ]%^%/%(%_%:%<%[%}%|%9#1%2%3%4%5%                ",
"                    6%7%>+~ 8%9%0%+#a%b%c%d%                    ",
"                          e%^#f%g%h%0#                          "};
