/* XPM */
static const char * eiconcap32_xpm[] = {
"32 32 675 2",
"  	c None",
". 	c #ACB0AC",
"+ 	c #9A9F9A",
"@ 	c #8D928D",
"# 	c #888D88",
"$ 	c #8B908B",
"% 	c #979B97",
"& 	c #A7ADA7",
"* 	c #909690",
"= 	c #7B807B",
"- 	c #686D68",
"; 	c #666A65",
"> 	c #6C6E6A",
", 	c #6D706B",
"' 	c #646763",
") 	c #636863",
"! 	c #6C716C",
"~ 	c #6A6E6A",
"{ 	c #6F736F",
"] 	c #B6BDB6",
"^ 	c #9BA29B",
"/ 	c #717571",
"( 	c #898886",
"_ 	c #AEA9A8",
": 	c #CCC5C3",
"< 	c #D7CFCC",
"[ 	c #D7CECB",
"} 	c #CEC5C1",
"| 	c #CEC4BE",
"1 	c #BCB4AC",
"2 	c #A09B92",
"3 	c #818179",
"4 	c #646762",
"5 	c #646964",
"6 	c #646864",
"7 	c #C6CBC6",
"8 	c #BCC2BC",
"9 	c #7C807C",
"0 	c #9D9C9A",
"a 	c #DAD5D5",
"b 	c #DDD7D7",
"c 	c #DFD9D8",
"d 	c #D9D2D2",
"e 	c #D7D0CF",
"f 	c #D4CCCB",
"g 	c #D5CDCA",
"h 	c #D3CAC5",
"i 	c #C9C0BA",
"j 	c #C8BFB7",
"k 	c #C1B9AF",
"l 	c #BAB3A6",
"m 	c #8D8B81",
"n 	c #676A65",
"o 	c #5F635F",
"p 	c #757875",
"q 	c #C5CAC5",
"r 	c #ABB0AB",
"s 	c #80817F",
"t 	c #D9D5D5",
"u 	c #E4E0E0",
"v 	c #E4DFE0",
"w 	c #E2DDDD",
"x 	c #E2DCDC",
"y 	c #E2DBDB",
"z 	c #DDD6D5",
"A 	c #CBC4C3",
"B 	c #C7BFBD",
"C 	c #D4CCC8",
"D 	c #CFC6C1",
"E 	c #CBC2BB",
"F 	c #C5BBB3",
"G 	c #C1B9AE",
"H 	c #BAB2A5",
"I 	c #ABA699",
"J 	c #73756D",
"K 	c #636763",
"L 	c #616461",
"M 	c #C0C6C0",
"N 	c #9EA39E",
"O 	c #979695",
"P 	c #E5E1E2",
"Q 	c #E4E1E1",
"R 	c #EAE5E6",
"S 	c #E5E0E0",
"T 	c #C8C3C5",
"U 	c #767076",
"V 	c #3A343D",
"W 	c #160E19",
"X 	c #0F0711",
"Y 	c #0F070F",
"Z 	c #150D14",
"` 	c #362D31",
" .	c #6A6160",
"..	c #AEA49E",
"+.	c #C4BBB1",
"@.	c #BFB6AB",
"#.	c #B6AFA2",
"$.	c #AFAA9B",
"%.	c #818279",
"&.	c #5E615E",
"*.	c #C1C6C1",
"=.	c #A2A8A2",
"-.	c #939290",
";.	c #E7E3E3",
">.	c #E7E4E4",
",.	c #DAD5D6",
"'.	c #5F5A62",
").	c #0E0815",
"!.	c #0B0410",
"~.	c #0E0712",
"{.	c #0E0711",
"].	c #0F0710",
"^.	c #0F070E",
"/.	c #0E050A",
"(.	c #0F060A",
"_.	c #22191B",
":.	c #C4BBB2",
"<.	c #C4BCB0",
"[.	c #B7AFA3",
"}.	c #B1AB9D",
"|.	c #ACA899",
"1.	c #7F8178",
"2.	c #5E625E",
"3.	c #707270",
"4.	c #A3ABA3",
"5.	c #7D7E7C",
"6.	c #E2DDDE",
"7.	c #EAE6E6",
"8.	c #BEB9BC",
"9.	c #27212D",
"0.	c #0C0612",
"a.	c #0E0814",
"b.	c #39333B",
"c.	c #888085",
"d.	c #B7AFAF",
"e.	c #C6BEBB",
"f.	c #AAA19F",
"g.	c #766D6C",
"h.	c #3B3234",
"i.	c #574E4C",
"j.	c #C0B8AD",
"k.	c #BDB5A9",
"l.	c #B7B0A2",
"m.	c #ACA799",
"n.	c #A2A092",
"o.	c #767972",
"p.	c #555955",
"q.	c #A3A9A3",
"r.	c #D4CFCF",
"s.	c #E6E2E2",
"t.	c #BDB8BB",
"u.	c #1C1723",
"v.	c #29232E",
"w.	c #AAA3A6",
"x.	c #EFE8E6",
"y.	c #EEE6E4",
"z.	c #E5DDDA",
"A.	c #E0D7D4",
"B.	c #DDD4D0",
"C.	c #D5CBC6",
"D.	c #D1C8C1",
"E.	c #CCC2BB",
"F.	c #CAC1B8",
"G.	c #C5BCB2",
"H.	c #C4BCB1",
"I.	c #BCB4A8",
"J.	c #B9B3A5",
"K.	c #B2AC9D",
"L.	c #ABA899",
"M.	c #99998D",
"N.	c #6A6E69",
"O.	c #494C49",
"P.	c #818781",
"Q.	c #9D9B99",
"R.	c #E1DBDC",
"S.	c #E3DEDE",
"T.	c #D8D3D4",
"U.	c #27212C",
"V.	c #110B17",
"W.	c #37313B",
"X.	c #DBD5D4",
"Y.	c #F4EDEB",
"Z.	c #EFE7E5",
"`.	c #E8E0DD",
" +	c #E5DDD9",
".+	c #DFD6D2",
"++	c #D9D0CB",
"@+	c #D3CAC4",
"#+	c #CBC1BA",
"$+	c #C0B7AC",
"%+	c #BCB4A7",
"&+	c #B9B2A4",
"*+	c #B5B0A1",
"=+	c #A9A597",
"-+	c #A2A193",
";+	c #888B82",
">+	c #5A5E5A",
",+	c #979D97",
"'+	c #6D706C",
")+	c #D4CECD",
"!+	c #E1DCDC",
"~+	c #E4DEDE",
"{+	c #625C63",
"]+	c #100A16",
"^+	c #221C26",
"/+	c #DDD6D6",
"(+	c #F3ECEA",
"_+	c #EFE7E4",
":+	c #E9E1DD",
"<+	c #E1D9D5",
"[+	c #DBD2CE",
"}+	c #D8CFC9",
"|+	c #CFC6C0",
"1+	c #918784",
"2+	c #3C3333",
"3+	c #524946",
"4+	c #BBB3A7",
"5+	c #BAB3A5",
"6+	c #ADA99A",
"7+	c #A4A294",
"8+	c #96978C",
"9+	c #6A6F6A",
"0+	c #4D4F4D",
"a+	c #848A84",
"b+	c #888683",
"c+	c #DDD7D6",
"d+	c #C4BEBF",
"e+	c #130D19",
"f+	c #0E0713",
"g+	c #A7A0A2",
"h+	c #F5EEEB",
"i+	c #F0E8E6",
"j+	c #EEE6E3",
"k+	c #EBE2DE",
"l+	c #E6DDD9",
"m+	c #E2DAD5",
"n+	c #DAD1CC",
"o+	c #948B89",
"p+	c #332A2D",
"q+	c #10070A",
"r+	c #100709",
"s+	c #130A0B",
"t+	c #B9B1A6",
"u+	c #BFB7AB",
"v+	c #BBB4A7",
"w+	c #B8B2A4",
"x+	c #AFA99B",
"y+	c #A4A193",
"z+	c #9B9B8F",
"A+	c #7C8079",
"B+	c #4C4F4C",
"C+	c #737873",
"D+	c #AAA5A2",
"E+	c #D9D1D0",
"F+	c #DED7D6",
"G+	c #736C72",
"H+	c #3A333C",
"I+	c #E8E1DF",
"J+	c #EBE3E1",
"K+	c #EBE3E0",
"L+	c #EBE3DF",
"M+	c #E5DCD8",
"N+	c #E1D8D3",
"O+	c #99908F",
"P+	c #332A2E",
"Q+	c #10070B",
"R+	c #12090B",
"S+	c #322928",
"T+	c #8E867E",
"U+	c #BCB5A7",
"V+	c #B4AEA0",
"W+	c #B1AC9D",
"X+	c #B0AC9D",
"Y+	c #A6A495",
"Z+	c #898C84",
"`+	c #585C58",
" @	c #A3A7A3",
".@	c #666A66",
"+@	c #C6BFBB",
"@@	c #D7CFCE",
"#@	c #D9D2D0",
"$@	c #372F37",
"%@	c #140C16",
"&@	c #837B7F",
"*@	c #E7DFDC",
"=@	c #E7DEDB",
"-@	c #E3DAD6",
";@	c #9F9695",
">@	c #342B2F",
",@	c #11080D",
"'@	c #0E0509",
")@	c #352C2D",
"!@	c #8B827C",
"~@	c #C3BAB0",
"{@	c #C1B8AD",
"]@	c #B3AD9E",
"^@	c #B0AB9C",
"/@	c #AAA697",
"(@	c #9D9D91",
"_@	c #8F9188",
":@	c #6E706E",
"<@	c #CFC6C2",
"[@	c #D7CECC",
"}@	c #D6CECC",
"|@	c #150D16",
"1@	c #100811",
"2@	c #AEA6A6",
"3@	c #E0D8D4",
"4@	c #E1D8D4",
"5@	c #9E9595",
"6@	c #362D32",
"7@	c #0E050B",
"8@	c #130A0F",
"9@	c #362D2F",
"0@	c #918883",
"a@	c #C7BEB5",
"b@	c #BEB6AA",
"c@	c #B8B1A4",
"d@	c #B6AFA1",
"e@	c #AEAA9B",
"f@	c #A9A697",
"g@	c #9F9D8F",
"h@	c #9A9A8D",
"i@	c #8E9087",
"j@	c #6B706B",
"k@	c #555755",
"l@	c #818581",
"m@	c #6E706C",
"n@	c #CDC4BE",
"o@	c #D2C9C5",
"p@	c #C4BCB9",
"q@	c #100810",
"r@	c #C3BBB8",
"s@	c #DAD2CD",
"t@	c #7A7172",
"u@	c #0F060C",
"v@	c #352C2E",
"w@	c #938A85",
"x@	c #CBC2BA",
"y@	c #C9C0B6",
"z@	c #C6BDB3",
"A@	c #C3BAAF",
"B@	c #BDB4A9",
"C@	c #B2AC9E",
"D@	c #908B80",
"E@	c #46443E",
"F@	c #504F48",
"G@	c #515049",
"H@	c #4B4B45",
"I@	c #393936",
"J@	c #5F625E",
"K@	c #4A4C4A",
"L@	c #7C817C",
"M@	c #6B6D68",
"N@	c #C4BBB7",
"O@	c #0F070D",
"P@	c #0D050B",
"Q@	c #C1B8B4",
"R@	c #D4CBC6",
"S@	c #756C6C",
"T@	c #0F060B",
"U@	c #342B2D",
"V@	c #938A86",
"W@	c #CDC4BC",
"X@	c #CBC2B9",
"Y@	c #C8BFB6",
"Z@	c #C1B9AC",
"`@	c #BCB5A8",
" #	c #B5AFA1",
".#	c #B2AD9E",
"+#	c #4D4A44",
"@#	c #000000",
"##	c #343633",
"$#	c #656863",
"%#	c #C2B9B0",
"&#	c #150C11",
"*#	c #10070C",
"=#	c #A69D9A",
"-#	c #D0C7C0",
";#	c #B3AAA4",
">#	c #C9C0B7",
",#	c #C2BAAF",
"'#	c #C0B8AC",
")#	c #908A80",
"!#	c #4D4A45",
"~#	c #54504A",
"{#	c #54514A",
"]#	c #999488",
"^#	c #454645",
"/#	c #AEADAC",
"(#	c #383A37",
"_#	c #545654",
":#	c #8E918E",
"<#	c #626762",
"[#	c #B7B0A5",
"}#	c #C7BEB6",
"|#	c #C9C0B8",
"1#	c #342B2C",
"2#	c #756C6A",
"3#	c #CCC3BA",
"4#	c #C5BCB1",
"5#	c #C2B9AE",
"6#	c #45423D",
"7#	c #504E47",
"8#	c #58574F",
"9#	c #A0A1A1",
"0#	c #FFFFFF",
"a#	c #A1A1A1",
"b#	c #383A38",
"c#	c #6A6C6A",
"d#	c #686C68",
"e#	c #9D998F",
"f#	c #C5BCB3",
"g#	c #645B58",
"h#	c #0E0507",
"i#	c #342B2B",
"j#	c #C6BDB4",
"k#	c #C2B9AF",
"l#	c #46433E",
"m#	c #6F6E6D",
"n#	c #AFAFB0",
"o#	c #8B8B8C",
"p#	c #70706F",
"q#	c #4C4B4A",
"r#	c #6A685E",
"s#	c #292925",
"t#	c #020000",
"u#	c #8F8E89",
"v#	c #908F8A",
"w#	c #040100",
"x#	c #161716",
"y#	c #676C67",
"z#	c #808078",
"A#	c #A9A097",
"B#	c #140B0C",
"C#	c #0F0607",
"D#	c #8C837C",
"E#	c #BBB3A6",
"F#	c #4E4B45",
"G#	c #B0B0B1",
"H#	c #5D5D5E",
"I#	c #33302A",
"J#	c #817F77",
"K#	c #D3D1C7",
"L#	c #827F78",
"M#	c #35332D",
"N#	c #6B6F6B",
"O#	c #676B66",
"P#	c #524944",
"Q#	c #100807",
"R#	c #221A18",
"S#	c #B1A89E",
"T#	c #B9B1A4",
"U#	c #B7AFA2",
"V#	c #524F49",
"W#	c #828280",
"X#	c #F6F7F3",
"Y#	c #D0CFCA",
"Z#	c #84837F",
"`#	c #3A3A35",
" $	c #5D5B55",
".$	c #7A7770",
"+$	c #9F9C95",
"@$	c #C8C5BD",
"#$	c #99978E",
"$$	c #6D6A64",
"%$	c #585550",
"&$	c #3F3F3E",
"*$	c #626662",
"=$	c #8D8D83",
"-$	c #ADA599",
";$	c #211A16",
">$	c #100806",
",$	c #2E2622",
"'$	c #A9A195",
")$	c #B7B0A3",
"!$	c #B5AEA1",
"~$	c #B6B0A2",
"{$	c #55524B",
"]$	c #5E5C5A",
"^$	c #DAD9D3",
"/$	c #BBBAB3",
"($	c #A6A59D",
"_$	c #B2B0A8",
":$	c #C3C1B7",
"<$	c #C6C4BB",
"[$	c #C6C4BC",
"}$	c #C5C3BA",
"|$	c #C4C2BA",
"1$	c #B7B5AB",
"2$	c #AAA89F",
"3$	c #B6B4AA",
"4$	c #C1BFB7",
"5$	c #5D605D",
"6$	c #656964",
"7$	c #A5A294",
"8$	c #B7B1A3",
"9$	c #969084",
"0$	c #18110D",
"a$	c #130C08",
"b$	c #211A15",
"c$	c #847D72",
"d$	c #B3AC9E",
"e$	c #B4AE9F",
"f$	c #979386",
"g$	c #44423F",
"h$	c #4B4A49",
"i$	c #7C7B74",
"j$	c #B2B0AA",
"k$	c #B6B4AB",
"l$	c #BDBBB2",
"m$	c #A19E98",
"n$	c #817F7A",
"o$	c #87857F",
"p$	c #8B897F",
"q$	c #96948E",
"r$	c #A1A099",
"s$	c #A09E97",
"t$	c #A39F95",
"u$	c #777A72",
"v$	c #A8A596",
"w$	c #ADA89A",
"x$	c #ADA899",
"y$	c #8D877A",
"z$	c #1F1913",
"A$	c #110A06",
"B$	c #110C07",
"C$	c #2F2A23",
"D$	c #686258",
"E$	c #8D887B",
"F$	c #9E998B",
"G$	c #9B9789",
"H$	c #898579",
"I$	c #3B3832",
"J$	c #3B3B36",
"K$	c #C4C1B8",
"L$	c #BFBDB5",
"M$	c #817F7B",
"N$	c #444441",
"O$	c #504F4A",
"P$	c #58564D",
"Q$	c #7B7B75",
"R$	c #9F9F9B",
"S$	c #908E88",
"T$	c #878478",
"U$	c #727472",
"V$	c #616561",
"W$	c #83857C",
"X$	c #A19F91",
"Y$	c #9F9A8C",
"Z$	c #4A463D",
"`$	c #120D07",
" %	c #0C0702",
".%	c #0B0703",
"+%	c #070603",
"@%	c #060502",
"#%	c #070502",
"$%	c #030201",
"%%	c #5C5A54",
"&%	c #C6C3BB",
"*%	c #A3A098",
"=%	c #8A877D",
"-%	c #63615C",
";%	c #3C3C3B",
">%	c #3A3936",
",%	c #302E2A",
"'%	c #464340",
")%	c #575552",
"!%	c #7C7972",
"~%	c #A7A399",
"{%	c #5C5F5C",
"]%	c #606460",
"^%	c #81847C",
"/%	c #9D9C8F",
"(%	c #A19E90",
"_%	c #928F81",
":%	c #545046",
"<%	c #2E2B24",
"[%	c #060503",
"}%	c #302D27",
"|%	c #77756D",
"1%	c #C5C2BA",
"2%	c #88867C",
"3%	c #525047",
"4%	c #44423D",
"5%	c #343432",
"6%	c #242121",
"7%	c #090806",
"8%	c #0E0D09",
"9%	c #0C0A06",
"0%	c #64615D",
"a%	c #C3C1B8",
"b%	c #5B5E5B",
"c%	c #797C76",
"d%	c #94958B",
"e%	c #9C9B8F",
"f%	c #9E9D90",
"g%	c #A09E91",
"h%	c #45443E",
"i%	c #4A4B4B",
"j%	c #AAABAB",
"k%	c #9C9B98",
"l%	c #92928A",
"m%	c #A6A49D",
"n%	c #C2C0B7",
"o%	c #86837D",
"p%	c #4F4F4A",
"q%	c #363532",
"r%	c #1C1C19",
"s%	c #0E0B0A",
"t%	c #787774",
"u%	c #6B6D6B",
"v%	c #535753",
"w%	c #6F736E",
"x%	c #848880",
"y%	c #94958A",
"z%	c #97978C",
"A%	c #98988D",
"B%	c #44453F",
"C%	c #BBBBBC",
"D%	c #FAF9F1",
"E%	c #D8D8CF",
"F%	c #C0BEB5",
"G%	c #817E7A",
"H%	c #494945",
"I%	c #222220",
"J%	c #868686",
"K%	c #4B4E4B",
"L%	c #575B57",
"M%	c #6E736E",
"N%	c #7F837D",
"O%	c #8B8E87",
"P%	c #8A8C84",
"Q%	c #3E3F3B",
"R%	c #4A4A4B",
"S%	c #ADADAD",
"T%	c #9E9D99",
"U%	c #919189",
"V%	c #A5A29B",
"W%	c #C0BDB4",
"X%	c #96938F",
"Y%	c #73726F",
"Z%	c #3D3C38",
"`%	c #060506",
" &	c #343634",
".&	c #B2B2B2",
"+&	c #494B49",
"@&	c #494D49",
"#&	c #2A2C2A",
"$&	c #2D2B25",
"%&	c #74726B",
"&&	c #AAA7A0",
"*&	c #9A9994",
"=&	c #53514D",
"-&	c #0A0703",
";&	c #323130",
">&	c #DFDCDB",
",&	c #686968",
"'&	c #424342",
")&	c #202120",
"!&	c #222322",
"~&	c #2B2C2B",
"{&	c #1A1A1A",
"]&	c #605F5A",
"^&	c #D2D0C9",
"/&	c #A9A6A0",
"(&	c #86847D",
"_&	c #7E7D77",
":&	c #767470",
"<&	c #7E7D7B",
"[&	c #818282",
"}&	c #AAABA9",
"|&	c #D1D3D1",
"1&	c #D7D6D3",
"2&	c #E3E3E0",
"                          . + @ # $ %                           ",
"                    & * = - ; > , ' ) ! ~ {                     ",
"                ] ^ / ( _ : < [ } | 1 2 3 4 5 6                 ",
"            7 8 9 0 a b c d e f g h i j k l m n o p             ",
"          q r s t u v w x y z A B C D E F G H I J K L           ",
"        M N O P Q R S T U V W X Y Z `  ...+.@.#.$.%.K &.        ",
"      *.=.-.;.>.;.,.'.).!.~.{.].Y ^./.(._.:.<.[.}.|.1.2.3.      ",
"      4.5.6.;.7.8.9.0.a.b.c.d.B e.f.g.h.i.:.j.k.l.m.n.o.p.      ",
"    q./ r.s.7.t.u.a.v.w.x.y.z.A.B.C.D.E.F.G.H.I.J.K.L.M.N.O.    ",
"    P.Q.R.S.T.U.V.W.X.Y.Z.`. +.+++@+E #+F.+.$+%+&+*+=+-+;+>+    ",
"  ,+'+)+!+~+{+]+^+/+(+_+_+:+<+[+}+|+1+2+3+G @.4+5+$.6+7+8+9+0+  ",
"  a+b+d c+d+e+f+g+h+i+j+k+l+m+n+o+p+q+r+s+t+u+v+w+x+6+y+z+A+B+  ",
"  C+D+E+F+G+~.H+I+J+K+L+M+N+O+P+Q+q+R+S+T+@.4+U+V+W+X+Y+z+Z+`+  ",
" @.@+@@@#@$@%@&@*@=@ +-@;@>@,@'@q+)@!@~@{@u+H &+]@^@/@n.(@_@5 :@",
"@ ' <@[@}@|@1@2@3@4@5@6@7@8@Q+9@0@a@~@G.u+b@c@d@^@e@f@g@h@i@j@k@",
"l@m@n@o@p@q@^.r@s@t@u@,@(.v@w@x@y@z@A@B@I.l c@C@D@E@F@G@H@I@J@K@",
"L@M@j D N@O@P@Q@R@S@T@U@V@W@X@Y@G.A@I.Z@H `@ #.#+#@#@#@#@#@###K@",
"l@$#%#E.i &#*#=#|+-#;#W@x@>#>#G.,#'#)#!#~#{#]#$.{#@#^#/#^#@#(#_#",
":#<#[#}#|#1#q+2#W@#+3#F.X@~@4#5#$+k.6#@#@#@#7#$.8#@#9#0#a#@#b#c#",
"  d#e#j.f#g#h#i#Y@j#j#G.5#k#G @.)#l#m#n#o#p#q#r#s#t#u#0#v#w#x#  ",
"  y#z#v+,#A#B#C#D#+.G G '#u+u+E#F#@#G#0#0#0#H#@#@#I#J#K#L#M#@#@#",
"  N#O#}.E#'#P#Q#R#S#b@k.I.T#l U#V#@#W#0#X#Y#Z#`# $.$+$@$#$$$%$&$",
"    *$=$]@c@-$;$>$,$'$`@)$!$l.~${$@#]$^$/$($_$:$<$[$}$|$1$2$3$4$",
"    5$6$7$K.8$9$0$a$b$c$~$d$e$}.f$7#g$h$i$j$k$l$m$n$o$p$q$r$s$t$",
"      >+u$v$w$x$y$z$A$B$C$D$E$F$G$H$I$@#J$K$l$L$M$N$O$P$Q$R$S$T$",
"      U$V$W$X$f@6+Y$Z$`$ %B$.%+%@%#%$%@#%%&%*%=%-%;%>%,%'%)%!%~%",
"        {%]%^%/%(%Y+f@_%:%<%[%@#@#@#@#}%|%1%2%3%4%5%6%7%8%9%0%a%",
"          b%2.c%d%e%/%f%g%g%h%@#i%j%k%l%m%n%o%p%q%r%s%@#@#@#t%0#",
"            u%v%w%x%d%y%z%A%B%@#C%0#0#D%E%F%G%H%I%@#@#@#@#@#J%0#",
"                K%L%M%N%O%P%Q%@#R%S%T%U%V%W%X%Y%Z%#%@#@#`% &.&0#",
"                    +&@&>+~ #&@#@#@#@#$&%&F%&&*&=&-&@#@#;&O >&0#",
"                          ,&'&)&!&~&{&@#]&^&/&(&_&:&<&[&}&|&1&2&"};
