/* XPM */
static char * eicon3d32_xpm[] = {
"32 32 195 2",
"  	c None",
". 	c #020204",
"+ 	c #727A74",
"@ 	c #BAB6A4",
"# 	c #969A8C",
"$ 	c #46463C",
"% 	c #DAD6D4",
"& 	c #828A84",
"* 	c #A6AAA4",
"= 	c #5E625C",
"- 	c #CEC6BC",
"; 	c #261E2C",
"> 	c #A69E9C",
", 	c #928A7C",
"' 	c #BEC2BC",
") 	c #E6E6E4",
"! 	c #827A7C",
"~ 	c #6A6E6C",
"{ 	c #1A120C",
"] 	c #9AA29C",
"^ 	c #525654",
"/ 	c #B2AA9C",
"( 	c #E2DEDC",
"_ 	c #2A2A24",
": 	c #929284",
"< 	c #0E0A04",
"[ 	c #9E9A8C",
"} 	c #D6CECC",
"| 	c #A6A694",
"1 	c #82827C",
"2 	c #362A2C",
"3 	c #C2B6AC",
"4 	c #8E9284",
"5 	c #766E6C",
"6 	c #8A8A84",
"7 	c #CABEB4",
"8 	c #B6B2A4",
"9 	c #9A928C",
"0 	c #6A625C",
"a 	c #625A64",
"b 	c #160E14",
"c 	c #8E827C",
"d 	c #7E827C",
"e 	c #E2D6D4",
"f 	c #6E766C",
"g 	c #B2AE9C",
"h 	c #92968C",
"i 	c #120E04",
"j 	c #9E9E8C",
"k 	c #36323C",
"l 	c #7A7A74",
"m 	c #4A4E4C",
"n 	c #D6CAC4",
"o 	c #F2EEEC",
"p 	c #EAE2DC",
"q 	c #D6D2CC",
"r 	c #AEA69C",
"s 	c #8A8E84",
"t 	c #BEB6B4",
"u 	c #9A9E94",
"v 	c #AAB2AC",
"w 	c #626A64",
"x 	c #A6A294",
"y 	c #EEE6E4",
"z 	c #726E74",
"A 	c #1A1A14",
"B 	c #5A5E5C",
"C 	c #0E0A14",
"D 	c #C2BAAC",
"E 	c #CAC2B4",
"F 	c #9E9E9C",
"G 	c #0E060C",
"H 	c #DEDAD4",
"I 	c #AEAA9C",
"J 	c #D2CAC4",
"K 	c #928E84",
"L 	c #C6BEB4",
"M 	c #6A726C",
"N 	c #A2A294",
"O 	c #5A564C",
"P 	c #E6E2E4",
"Q 	c #322A2C",
"R 	c #969294",
"S 	c #AAA6A4",
"T 	c #82867C",
"U 	c #8A867C",
"V 	c #B6AEAC",
"W 	c #A29E8C",
"X 	c #3E3234",
"Y 	c #7A7E74",
"Z 	c #DAD2CC",
"` 	c #AAA2A4",
" .	c #C2BABC",
"..	c #CAC2C4",
"+.	c #BEB6A4",
"@.	c #9A9A8C",
"#.	c #524A44",
"$.	c #868A7C",
"%.	c #666254",
"&.	c #D2C6C4",
"*.	c #827E74",
"=.	c #9EA69C",
"-.	c #565A54",
";.	c #B2AAAC",
">.	c #E6DEDC",
",.	c #969284",
"'.	c #120A04",
").	c #AAA694",
"!.	c #362E2C",
"~.	c #767274",
"{.	c #8E8A7C",
"].	c #726A6C",
"^.	c #6A5E5C",
"/.	c #E2DAD4",
"(.	c #B6AE9C",
"_.	c #96968C",
":.	c #3A3234",
"<.	c #564E4C",
"[.	c #8E8E84",
"}.	c #AAA294",
"|.	c #EEEAE4",
"1.	c #221A14",
"2.	c #C6BAB4",
"3.	c #CEC2BC",
"4.	c #12060C",
"5.	c #C6C2BC",
"6.	c #86867C",
"7.	c #8E867C",
"8.	c #7E7E7C",
"9.	c #2E2624",
"0.	c #1A1624",
"a.	c #626664",
"b.	c #9E9694",
"c.	c #52524C",
"d.	c #BEBABC",
"e.	c #322E24",
"f.	c #A6AEA4",
"g.	c #625E64",
"h.	c #867E84",
"i.	c #9E9A9C",
"j.	c #AEAAAC",
"k.	c #727674",
"l.	c #B2A6A4",
"m.	c #968E8C",
"n.	c #767A74",
"o.	c #4A463C",
"p.	c #DED6D4",
"q.	c #EAE6E4",
"r.	c #6E6E6C",
"s.	c #9EA29C",
"t.	c #565654",
"u.	c #2E2A24",
"v.	c #DACECC",
"w.	c #BAB2A4",
"x.	c #666A64",
"y.	c #120A14",
"z.	c #6E726C",
"A.	c #7A7274",
"B.	c #F2EAE4",
"C.	c #969A94",
"D.	c #CEC6C4",
"E.	c #928A84",
"F.	c #B2AAA4",
"G.	c #92928C",
"H.	c #6A6264",
"I.	c #120E0C",
"J.	c #9E9E94",
"K.	c #D6CACC",
"L.	c #EAE2E4",
"M.	c #D6D2D4",
"N.	c #8A8E8C",
"O.	c #9A9E9C",
"P.	c #C2BAB4",
"Q.	c #CAC2BC",
"R.	c #0E0614",
"S.	c #DEDADC",
"T.	c #C6BEBC",
"U.	c #828684",
"V.	c #8A8684",
"W.	c #A29E94",
"X.	c #7A7E7C",
"Y.	c #DAD2D4",
"Z.	c #BEB6AC",
"`.	c #868A84",
" +	c #E6DEE4",
".+	c #120A0C",
"++	c #AAA69C",
"@+	c #362E34",
"#+	c #8E8A84",
"$+	c #E2DADC",
"%+	c #B6AEA4",
"&+	c #969694",
"*+	c #3A323C",
"=+	c #AAA29C",
"-+	c #221A1C",
"                        . . . . . . . .                         ",
"                  . . . Y x.x.~ ~ a.a.~ . . .                   ",
"              . . u z.6.j.D.} J &.3.Z.[ 8.a.w . .               ",
"            . ' X.F % $+$+% Z } } J Q.7 D w.{.x.= .             ",
"          . f.8.M.( P ( $+$+p...T.J D.3.L P.w.++k.= .           ",
"        . s.&+P P q.P 5.~.k y.G G y.!.0 l.D Z.w./ 6.= .         ",
"      . * R P ) q.% g.y.R.R.C C .+R.G 4.-+2.+.@ g I 1 = .       ",
"    . f.8.( P q.t ; R.R.*+1 V 7  .=+A.:.<.D P.w.%+I N n.^ .     ",
"    . f } ( P d.0.C ; S y L.>.e Z n - 3.7 P.D Z.%+g ).@.~ .     ",
"  . & i.S.P M.; R.@+S.B.B.L.( p.v.} D.7 L 2.3 w.w./ ).N T -..   ",
"  . ~ M.S.>.a C ; p.o B.y p ( p.} J E.:.#.D 3 w.8 g ++x # ~ .   ",
"  . 6.Y.S.T.C R.` B.y y p /.e v.E.Q 4..+.+%+Z.@ %+/ I x @.d .   ",
". k.r Y.% z R.k P y L.L.>.e R 2 4.'.G Q 7.D w.w.8 / I x @.`.B . ",
". x.5.} Y.@+R.! $+$+>./.b.e.4.< G Q 7.D D Z.w.w.g I ).N u 4 x.. ",
". a.&.} } I.y.F./.e 9 2 4.G 4.!.7.L 2.3 Z.Z.8 %+g I ).> [ 4 z.. ",
". r.- J T.4.G  .v.5 y..+G !.E.Q.Q.2.P.D Z.w.w.(./ r ).N @.[.n.. ",
". ~ 7 3. .R.4.t n ].4.2 E.3.Q.7 L D Z.@ w.%+%+g I ).x J._.s n.. ",
". a.L Q.Q.b < > D.3.F.- 3.5.7 2.D D Z.w.w.8 g I I ++N j _.6 k.. ",
". a.8 L 7 2 4.5 3.Q.7 T.7 2.L D Z.Z.Z.w.%+g g I ).x W.@.: s ~ . ",
". x.b.Z.L ^.G 2 L L L L D D Z.Z.Z.w.%+8 %+/ I ).| N J.@.[.s B . ",
"  . 1 w.D }.'.< c P.D D D Z.+.w.w.w.(.g g I ++=+x j @.h 6 s .   ",
"  . x.I w.Z.#.4.1.r Z.@ w.+.w.w.8 %+g / I r ).| N J.&+[.6.d .   ",
"  . a.6 g %+r A '.9.=+@ 8 w.w.(.g F.g I I | N W.j @.h 6 C.^ .   ",
"    . x.x g (.m.b '.1.! %+g g F.g I ++| x x W.j _.h #+s U..     ",
"    . B l | r g , 1.'.< Q 0 {.b.[ U ^.e.$ N J.@.G.s U.u $ .     ",
"      . = 1 N ).I [ o.i < < < i < < i i A @._._.[.6.F B .       ",
"        . a.1 [ x x }.K c.u.i < < I._ m 6._.4 s U.s.w .         ",
"          . = Y h j J.W N j u h 4 _._._.: [.V.6 J.B .           ",
"            . ^ ~ & : _._._._._._._.: [.`.`.u & m .             ",
"              . . -.M d 6 [.s s `.6.6 4 h & t.. .               ",
"                  . . . B x.k.Y X.X.f B . . .                   ",
"                        . . . . . . . .                         "};
