/* XPM */
static const char * expert_chat_xpm[] = {
"10 10 46 1",
" 	c None",
".	c #2E2E2E",
"+	c #363636",
"@	c #2D2D2D",
"#	c #1C1C1C",
"$	c #353535",
"%	c #727272",
"&	c #B9B9B9",
"*	c #ACACAC",
"=	c #9C9C9C",
"-	c #484848",
";	c #181818",
">	c #737373",
",	c #CFCFCF",
"'	c #E0E0E0",
")	c #DEDEDE",
"!	c #C9C9C9",
"~	c #ABABAB",
"{	c #9B9B9B",
"]	c #474747",
"^	c #B7B7B7",
"/	c #DCDCDC",
"(	c #ECECEC",
"_	c #EBEBEB",
":	c #D7D7D7",
"<	c #B2B2B2",
"[	c #9D9D9D",
"}	c #969696",
"|	c #1A1A1A",
"1	c #303030",
"2	c #B1B1B1",
"3	c #D0D0D0",
"4	c #E1E1E1",
"5	c #DFDFDF",
"6	c #CBCBCB",
"7	c #999999",
"8	c #252525",
"9	c #282828",
"0	c #A1A1A1",
"a	c #BEBEBE",
"b	c #BCBCBC",
"c	c #AEAEAE",
"d	c #9F9F9F",
"e	c #9A9A9A",
"f	c #979797",
"g	c #9E9E9E",
"   .+@#   ",
" $%&&*=-; ",
" >,')!~{] ",
".^/(_:<[}|",
"123456~=78",
"902abcde78",
"|fg00[e7}|",
" ]777777] ",
" ;]}77}]; ",
"   |88|   "};
