/* XPM */
static char * expert_error_xpm[] = {
"10 10 54 1",
" 	c None",
".	c #3E1717",
"+	c #4D1414",
"@	c #450909",
"#	c #2D0303",
"$	c #432020",
"%	c #963C3C",
"&	c #FC5656",
"*	c #FF5151",
"=	c #FF2F2F",
"-	c #FA0E0E",
";	c #770101",
">	c #280000",
",	c #973D3D",
"'	c #FF8787",
")	c #FFB1B1",
"!	c #FFACAC",
"~	c #FF7979",
"{	c #FF2C2C",
"]	c #FF0606",
"^	c #760000",
"/	c #FC5050",
"(	c #FFA8A8",
"_	c #FFD0D0",
":	c #FFCDCD",
"<	c #FF9B9B",
"[	c #FF3F3F",
"}	c #FF0B0B",
"|	c #FA0101",
"1	c #2B0000",
"2	c #480D0D",
"3	c #FF3B3B",
"4	c #FF8A8A",
"5	c #FFB4B4",
"6	c #FFAFAF",
"7	c #FF7D7D",
"8	c #FF2E2E",
"9	c #FF0707",
"0	c #FF0000",
"a	c #3E0000",
"b	c #410404",
"c	c #FF1515",
"d	c #FF3D3D",
"e	c #FF5D5D",
"f	c #FF5858",
"g	c #FF3434",
"h	c #FF1010",
"i	c #FF0202",
"j	c #FA0303",
"k	c #FF0C0C",
"l	c #FF1313",
"m	c #FF0909",
"n	c #FA0000",
"o	c #FF0101",
"   .+@#   ",
" $%&*=-;> ",
" ,')!~{]^ ",
"./(_:<[}|1",
"234567890a",
"bcdefghi0a",
"1jkclmi0n1",
" ^ooo000^ ",
" >^n00n^> ",
"   1aa1   "};
