/* XPM */
static char * expert_warn_xpm[] = {
"10 10 55 1",
" 	c None",
".	c #41411A",
"+	c #4F4F16",
"@	c #46460B",
"#	c #2D2D03",
"$	c #474725",
"%	c #9B9B45",
"&	c #FCFC64",
"*	c #FFFF5F",
"=	c #FFFF37",
"-	c #FAFA11",
";	c #777702",
">	c #282800",
",	c #9C9C48",
"'	c #FFFF9E",
")	c #FFFFCF",
"!	c #FFFFC9",
"~	c #FFFF8E",
"{	c #FFFF34",
"]	c #FFFF07",
"^	c #767600",
"/	c #FCFC5D",
"(	c #FFFFC5",
"_	c #FFFFF3",
":	c #FFFFEF",
"<	c #FFFFB6",
"[	c #FFFF49",
"}	c #FFFF0D",
"|	c #FAFA01",
"1	c #2B2B00",
"2	c #49490F",
"3	c #FFFF45",
"4	c #FFFFA1",
"5	c #FFFFD3",
"6	c #FFFFCD",
"7	c #FFFF92",
"8	c #FFFF35",
"9	c #FFFF08",
"0	c #FFFF00",
"a	c #3E3E00",
"b	c #424205",
"c	c #FFFF18",
"d	c #FFFF47",
"e	c #FFFF6C",
"f	c #FFFF67",
"g	c #FFFF3D",
"h	c #FFFF12",
"i	c #FFFF02",
"j	c #FAFA04",
"k	c #FFFF0E",
"l	c #FFFF16",
"m	c #FFFF0B",
"n	c #FFFF03",
"o	c #FAFA00",
"p	c #FFFF01",
"   .+@#   ",
" $%&*=-;> ",
" ,')!~{]^ ",
"./(_:<[}|1",
"234567890a",
"bcdefghi0a",
"1jkclmn0o1",
" ^pppp00^ ",
" >^o00o^> ",
"   1aa1   "};
