/* XPM */
static char * expert_note_xpm[] = {
"10 10 52 1",
" 	c None",
".	c #23393E",
"+	c #27464D",
"@	c #1E3D45",
"#	c #10282D",
"$	c #2C3E43",
"%	c #5A8A96",
"&	c #8DE6FC",
"*	c #8BE8FF",
"=	c #74E3FF",
"-	c #5CDBFA",
";	c #286777",
">	c #0D2228",
",	c #5B8B97",
"'	c #AFEFFF",
")	c #CBF5FF",
"!	c #C8F4FF",
"~	c #A6EDFF",
"{	c #72E3FF",
"]	c #59DEFF",
"^	c #276676",
"/	c #89E5FC",
"(	c #C5F3FF",
"_	c #E0F9FF",
":	c #DEF8FF",
"<	c #BCF2FF",
"[	c #7FE5FF",
"}	c #5CDEFF",
"|	c #54D9FA",
"1	c #0E262B",
"2	c #214048",
"3	c #7CE5FF",
"4	c #B1EFFF",
"5	c #CDF5FF",
"6	c #CAF4FF",
"7	c #A8EEFF",
"8	c #5ADEFF",
"9	c #55DDFF",
"0	c #15363E",
"a	c #183941",
"b	c #63E0FF",
"c	c #7EE5FF",
"d	c #93E9FF",
"e	c #90E9FF",
"f	c #78E4FF",
"g	c #60DFFF",
"h	c #56DDFF",
"i	c #55D9FA",
"j	c #5DDFFF",
"k	c #62E0FF",
"l	c #5BDEFF",
"m	c #53D9FA",
"   .+@#   ",
" $%&*=-;> ",
" ,')!~{]^ ",
"./(_:<[}|1",
"234567=890",
"abcdefgh90",
"1ijbklh9m1",
" ^hhh999^ ",
" >^m99m^> ",
"   1001   "};
