/* XPM */
static char * expert_none_xpm[] = {
"10 10 3 1",
" 	c None",
".	c #000000",
"+	c #000200",
"   ...    ",
"  .   +   ",
" .     .  ",
".       + ",
".       . ",
".       . ",
" +      + ",
"  .    .  ",
"   +..+   ",
"          "};
