/* XPM */
static char * expert_chat_xpm[] = {
"10 10 43 1",
" 	c None",
".	c #383838",
"+	c #4D4D4D",
"@	c #808080",
"#	c #979797",
"$	c #7D7D7D",
"%	c #525252",
"&	c #4E4E4E",
"*	c #B3B3B3",
"=	c #CECECE",
"-	c #B4B4B4",
";	c #909090",
">	c #7E7E7E",
",	c #565656",
"'	c #868686",
")	c #D6D6D6",
"!	c #E4E4E4",
"~	c #B8B8B8",
"{	c #8C8C8C",
"]	c #717171",
"^	c #424242",
"/	c #A5A5A5",
"(	c #C7C7C7",
"_	c #C4C4C4",
":	c #7A7A7A",
"<	c #777777",
"[	c #8B8B8B",
"}	c #A6A6A6",
"|	c #9B9B9B",
"1	c #8A8A8A",
"2	c #7C7C7C",
"3	c #989898",
"4	c #595959",
"5	c #888888",
"6	c #929292",
"7	c #3A3A3A",
"8	c #5C5C5C",
"9	c #858585",
"0	c #9A9A9A",
"a	c #4A4A4A",
"b	c #464646",
"c	c #606060",
"d	c #585858",
"    ..    ",
"  +@#$%   ",
" &*=-;>,  ",
" ')!~{$]^ ",
"./(_/':<, ",
".[}|12234 ",
" ,{5>>367 ",
"  8290;a  ",
"   bcd7   ",
"          "};
