/* XPM */
static const char * expert_warn_xpm[] = {
"10 10 55 1",
" 	c None",
".	c #000000",
"+	c #323700",
"@	c #A39E17",
"#	c #EAD10B",
"$	c #B28600",
"%	c #422B00",
"&	c #303900",
"*	c #E7EE4E",
"=	c #F2FE82",
"-	c #FDFC40",
";	c #E2B200",
">	c #B67A00",
",	c #4E2C00",
"'	c #A8A91E",
")	c #EFFE99",
"!	c #F0FDBC",
"~	c #FAFA4B",
"{	c #DA9F00",
"]	c #B36600",
"^	c #944E00",
"/	c #190900",
"(	c #F5EC22",
"_	c #F2FE72",
":	c #F6FE6B",
"<	c #FBE81D",
"[	c #C88000",
"}	c #AA5900",
"|	c #A26400",
"1	c #4E3B00",
"2	c #CFBE08",
"3	c #FEF61E",
"4	c #F5DB0B",
"5	c #D49700",
"6	c #AF5E00",
"7	c #AF6C00",
"8	c #E8EA06",
"9	c #545400",
"0	c #4E4100",
"a	c #D9BA00",
"b	c #CD9F00",
"c	c #B67600",
"d	c #B57900",
"e	c #EAE709",
"f	c #CCD90D",
"g	c #060400",
"h	c #5D4800",
"i	c #AE8D00",
"j	c #C4AC00",
"k	c #E9F107",
"l	c #C9D50C",
"m	c #2D2B00",
"n	c #251E00",
"o	c #626600",
"p	c #4E5200",
"    ..    ",
"  +@#$%   ",
" &*=-;>,  ",
" ')!~{]^/ ",
".(_:<[}|1 ",
".23456789 ",
" 0abcdefg ",
"  hijklm  ",
"   nopg   ",
"          "};
