/* XPM */
static const char * icon_layout_2_xpm[] = {
"48 48 3 1",
" 	c None",
".	c #000000",
"+	c #FFFFFF",
"                                                ",
"                                                ",
"  ............................................  ",
"  ............................................  ",
"  ..++++++++++++++++++++++++++++++++++++++++..  ",
"  ..++++++++++++++++++++++++++++++++++++++++..  ",
"  ..++++++++++++++++++++++++++++++++++++++++..  ",
"  ..++++++++++++++++++++++++++++++++++++++++..  ",
"  ..++++++++++++++++++++++++++++++++++++++++..  ",
"  ..++++++++++++++++++++.+++++++++++++++++++..  ",
"  ..+++++++++++++++++++..+++++++++++++++++++..  ",
"  ..++++++++++++++++++.+.+++++++++++++++++++..  ",
"  ..++++++++++++++++++++.+++++++++++++++++++..  ",
"  ..++++++++++++++++++++.+++++++++++++++++++..  ",
"  ..++++++++++++++++++++.+++++++++++++++++++..  ",
"  ..++++++++++++++++++++.+++++++++++++++++++..  ",
"  ..++++++++++++++++++++.+++++++++++++++++++..  ",
"  ..++++++++++++++++++++++++++++++++++++++++..  ",
"  ..++++++++++++++++++++++++++++++++++++++++..  ",
"  ..++++++++++++++++++++++++++++++++++++++++..  ",
"  ..++++++++++++++++++++++++++++++++++++++++..  ",
"  ..++++++++++++++++++++++++++++++++++++++++..  ",
"  ..++++++++++++++++++++++++++++++++++++++++..  ",
"  ............................................  ",
"  ............................................  ",
"  ..+++++++++++++++++++..+++++++++++++++++++..  ",
"  ..+++++++++++++++++++..+++++++++++++++++++..  ",
"  ..+++++++++++++++++++..+++++++++++++++++++..  ",
"  ..+++++++++++++++++++..+++++++++++++++++++..  ",
"  ..+++++++++++++++++++..+++++++++++++++++++..  ",
"  ..++++++++...++++++++..+++++++++...+++++++..  ",
"  ..+++++++.+++.+++++++..++++++++.+++.++++++..  ",
"  ..+++++++++++.+++++++..++++++++++++.++++++..  ",
"  ..+++++++++++.+++++++..++++++++++..+++++++..  ",
"  ..++++++++++.++++++++..++++++++++++.++++++..  ",
"  ..+++++++++.+++++++++..++++++++++++.++++++..  ",
"  ..++++++++.++++++++++..++++++++.+++.++++++..  ",
"  ..+++++++.....+++++++..+++++++++...+++++++..  ",
"  ..+++++++++++++++++++..+++++++++++++++++++..  ",
"  ..+++++++++++++++++++..+++++++++++++++++++..  ",
"  ..+++++++++++++++++++..+++++++++++++++++++..  ",
"  ..+++++++++++++++++++..+++++++++++++++++++..  ",
"  ..+++++++++++++++++++..+++++++++++++++++++..  ",
"  ..+++++++++++++++++++..+++++++++++++++++++..  ",
"  ............................................  ",
"  ............................................  ",
"                                                ",
"                                                "};
