/* XPM */
static char *icon_ethereal_xpm[] = {
/* width height num_colors chars_per_pixel */
"    66    63       10            1",
/* colors */
". c #000000",
"# c #181c18",
"a c #383838",
"b c #505450",
"c c #707070",
"d c #888c88",
"e c #a8a8a8",
"f c #c0c4c0",
"g c #e0e0e0",
"h c #f8fcf8",
/* pixels */
"hhhhhhhhhhhhhhhhhhhhhhhhhhhhhhhhhhhhhhhhhhhhhhhhhhhhhhhhhhhhhhhhhh",
"hhhhhhhhhhhhhhhhhhhhhhhhhhhhhhhhhhhhhhhhhhhhhhhhhhhhhhhhhhhhhhhhhh",
"hhhhhhhhhhhhhhhhhhhhhhhhhhhhhhhhhhhhhhhhhhhhhhhhhhhhhhhhhhhhhhhhhh",
"hhhhhhhhhhhhhhhhhhhhhhhhhhhhhhhhhhhhhhhhhhhhhhhhhhhhhhhhhhhhhhhhhh",
"hhhhhhhhhhhhhhhhhhhhhhhhhhhhhhhhhhhhhhhhhhhhhhhhhhhhhhhhhhhhhhhhhh",
"hhhhhhhhhhhhhhhhhhhhhhhhhhhhhhhhhfeddbcddfghhhhhhhhhhhhhhhhhhhhhhh",
"hhhhhhhhhhhhhhhhhhhhhhhhhhhhhheb#..........acfhhhhhhhhhhhhhhhhhhhh",
"hhhhhhhhhhhhhhhhhhhhhhhhhhhgc#................adhhhhhhhhhhhhhhhhhh",
"hhhhhhhhhhhhhhhhhhhhhhhhhgb#....................ehhhhhhhhhhhhhhhhh",
"hhhhhhhhhhhhhhhhhhhhhhhhe#......................dhhhhhhhhhhhhhhhhh",
"hhhhhhhhhhhhhhhhhhhhhhgc.........#bcddddca#.....dhhhhhhhhhhhhhhhhh",
"hhhhhhhhhhhhhhhhhhhhhga.......adfhhhhhhhhhgfc##bhhhhhhhhhhhhhhhhhh",
"hhhhhhhhhhhhhhhhhhhhga......adhhhhhhhhhhhhhhhhghhhhhhhhhhhhhhhhhhh",
"hhhhhhhhhhhhhhhhhhhga......cghhhhhhhhhhhhhhhhhhhhhhhhhhhhhhhhhhhhh",
"hhhhhhhhhhhhhhhhhhhb.....#ehhhhhhhhhhhhhhhhhhhhhhhhhhhhhhhhhhhhhhh",
"hhhhhhhhhhhhhhhhhhd......ehhhhhhhhhhhhhhhhhhhhhhhhhhhhhhhhhhhhhhhh",
"hhhhhhhhhhhhhhhhhf#.....ehhhhhhhhhhhhhhhhhhhhhhhhhhhhhhhhhhhhhhhhh",
"hhhhhhhhhhhhhhhhha.....ehhhhhhhhhhhhhhhhhhhheaadhhhhhhhhhhhhhhhhhh",
"hhhhhhhhhhhhhhhhf.....chhhhhhhhhhhhhhhhhhhda....ehhhhhhhhhhhhhhhhh",
"hhhhhhhhhhhhhhhhb....aghhhhhhhhhhhhhhhhhda......dhhhhhhhhhhhhhhhhh",
"hhhhhhhhhhhhhhhf#....ehhhhhhhhhhhhhhhhda........dhhhhhhhhhhhhhhhhh",
"hhhhhhhhhhhhhhhc....bhhhhhhhhhhhhhhhda.........bhhhhhhhhhhhhhhhhhh",
"hhhhhhhhhhhhhhh#....fhhhhhhhhhhhhhda.........bfhhhhhhhhhhhhhhhhhhh",
"hhhhhhhhhhhhhhf....aghhhhhhhhhhhda.........bfhhhhhhhhhhhhhhhhhhhhh",
"hhhhhhhhhhhhhhd....bhhhhhhhhhhda.........bfhhhhhhhhhhhhhhhhhhhhhhh",
"hhhhhhhhhhhhhha....ehhhhhhhhda.........bfhhhhhhhhhhhhhhhhhhhhhhhhh",
"hhhhhhhhhhhhhh#....fhhhhhhda.........bfhhhhhhhhhhhhhhhhhhhhhhhhhhh",
"hhhhhhhhhhhhhg#...#ghhhhfa.........bfhhhhhhhhhhhhhhhhhhhhhhhhhhhhh",
"hhhhhhhhhhhhhg#...#ghhhha........bfhhhhhhhhhhhhhhhhhhhhhhhhhhhhhhh",
"hhhhhhhhhhhhhf....#hhhhg.......bfhhhhhhhhhhhhhhhhhhhhhhhhhhhhhhhhh",
"hhhhhhhhhhhhhg#...#ghhhh#....bfhhhhhhhhhhhhhhhhhhhhhhhhhhhhhhhhhhh",
"hhhhhhhhhhhhhh#...#ghhhhe##bfghhhhhhhhhhhhhhhhhhhhhhhhhhhhhhhhhhhh",
"hhhhhhhhhhhhhg#....ghhhhhhghhhhhhhhhhhhhhhhhhhhhhhhhhhhhhhhhhhhhhh",
"hhhhhhhhhhhhhhb....ehhhhhhhhhhhhhhhhhhhhhhhhhhhhhhhhhhhhhhhhhhhhhh",
"hhhhhhhhhhhhhhd....chhhhhhhhhhhhhhhhhhhhhhhhhhhhhhhhhhhhhhhhhhhhhh",
"hhhhhhhhhhhhhhf....ahhhhhhhhhhhhhhhhhhhhhhhhhhhhhhhhhhhhhhhhhhhhhh",
"hhhhhhhhhhhhhhg#....ghhhhhhhhhhhhhhhhhhhhhhhhhhhhhhhhhhhhhhhhhhhhh",
"hhhhhhhhhhhhhhhc....bhhhhhhhhhhhhhhhhhhhhhhhhhhhhhhhhhhhhhhhhhhhhh",
"hhhhhhhhhhhhhhhf....#fhhhhhhhhhhhhhhhhhhhhhhhhhhhhhhhhhhhhhhhhhhhh",
"hhhhhhhhhhhhhhhha....bhhhhhhhhhhhhhhhhhhhhhhhhhhhhhhhhhhhhhhhhhhhh",
"hhhhhhhhhhhhhhhhe.....dhhhhhhhhhhhhhhhhhhhhhhhhhhhhhhhhhhhhhhhhhhh",
"hhhhhhhhhhhhhhhhh#....#fhhhhhhhhhhhhhhhhhhhhhhhhhhhhhhhhhhhhhhhhhh",
"hhhhhhhhhhhhhhhhhe.....#fhhhhhhhhhhhhhhhhhhhhhhhhhhhhhhhhhhhhhhhhh",
"hhhhhhhhhhhhhhhhhhb.....#fhhhhhhhhhhhhhhhhhhhhhhhhhhhhhhhhhhhhhhhh",
"hhhhhhhhhhhhhhhhhhga.....aghhhhhhhhhhhhhhhhhhhhhhhhhhhhhhhhhhhhhhh",
"hhhhhhhhhhhhhhhhhhhf#.....#ehhhhhhhhhhhhhhhhhhhhhhhhhhhhhhhhhhhhhh",
"hhhhhhhhhhhhhhhhhhhhf#......bghhhhhhhhhhhhhhhhhhhhhhhhhhhhhhhhhhhh",
"hhhhhhhhhhhhhhhhhhhhhf#.......cfghhhhhhhhhhfeaachhhhhhhhhhhhhhhhhh",
"hhhhhhhhhhhhhhhhhhhhhhgb........#abccddcba##....bhhhhhhhhhhhhhhhhh",
"hhhhhhhhhhhhhhhhhhhhhhhhe#......................ahhhhhhhhhhhhhhhhh",
"hhhhhhhhhhhhhhhhhhhhhhhhhgb#....................chhhhhhhhhhhhhhhhh",
"hhhhhhhhhhhhhhhhhhhhhhhhhhhgd#................achhhhhhhhhhhhhhhhhh",
"hhhhhhhhhhhhhhhhhhhhhhhhhhhhhheca#........#bcfhhhhhhhhhhhhhhhhhhhh",
"hhhhhhhhhhhhhhhhhhhhhhhhhhhhhhhhhgffeddfffghhhhhhhhhhhhhhhhhhhhhhh",
"hhhhhhhhhhhhhhhhhhhhhhhhhhhhhhhhhhhhhhhhhhhhhhhhhhhhhhhhhhhhhhhhhh",
"hhhhhhhhhhhhhhhhhhhhhhhhhhhhhhhhhhhhhhhhhhhhhhhhhhhhhhhhhhhhhhhhhh",
"hhhhhhhhhhhhhhhhhhhhhhhhhhhhhhhhhhhhhhhhhhhhhhhhhhhhhhhhhhhhhhhhhh",
"hhhhhhhhhhhhhhhhhhhhhhhhhhhhhhhhhhhhhhhhhhhhhhhhhhhhhhhhhhhhhhhhhh",
"hhhhhhhhhhhhhhhhhhhhhhhhhhhhhhhhhhhhhhhhhhhhhhhhhhhhhhhhhhhhhhhhhh",
"hhhhhhhhhhhhhhhhhhhhhhhhhhhhhhhhhhhhhhhhhhhhhhhhhhhhhhhhhhhhhhhhhh",
"hhhhhhhhhhhhhhhhhhhhhhhhhhhhhhhhhhhhhhhhhhhhhhhhhhhhhhhhhhhhhhhhhh",
"hhhhhhhhhhhhhhhhhhhhhhhhhhhhhhhhhhhhhhhhhhhhhhhhhhhhhhhhhhhhhhhhhh",
"hhhhhhhhhhhhhhhhhhhhhhhhhhhhhhhhhhhhhhhhhhhhhhhhhhhhhhhhhhhhhhhhhh"
};
