/* XPM */
static char * icon_excl_xpm[] = {
"64 64 21 1",
" 	c None",
".	c #FFFFFF",
"+	c #A95454",
"@	c #7F0000",
"#	c #9B3838",
"$	c #A95555",
"%	c #D4A9A9",
"&	c #B77171",
"*	c #8D1C1C",
"=	c #D3A9A9",
"-	c #F0E2E2",
";	c #A85353",
">	c #C68D8D",
",	c #B77070",
"'	c #E2C6C6",
")	c #8D1D1D",
"!	c #C58D8D",
"~	c #D3A8A8",
"{	c #E2C5C5",
"]	c #A85252",
"^	c #C58C8C",
"                                                                ",
"                                                                ",
"                                                                ",
"                                                                ",
"                                                                ",
"                                  ............                  ",
"                             ....................               ",
"                          .........................             ",
"                        .............................           ",
"                       .............+@#$%.............          ",
"                      .............&@@@@@*=............         ",
"                    ..............-@@@@@@@;.............        ",
"                  ................>@@@@@@@,.............        ",
"                 .................*@@@@@@@'..............       ",
"                .................>@@@@@@@#...............       ",
"               ..................*@@@@@@@'...............       ",
"              ..................>@@@@@@@+................       ",
"             ...................*@@@@@@@-................       ",
"            ...................%@@@@@@@&.................       ",
"           ....................#@@@@@@@-.................       ",
"           ...................'@@@@@@@&..................       ",
"          ....................#@@@@@@)....................      ",
"         ....................-@@@@@@@>...................       ",
"         ....................&@@@@@@*....................       ",
"        ....................-@@@@@@@>....................       ",
"        ....................>@@@@@@*.....................       ",
"       .....................*@@@@@@>.....................       ",
"       ....................'@@@@@@*.....................        ",
"       ....................+@@@@@@>.....................        ",
"       ...................-@@@@@@*......................        ",
"      ....................&@@@@@@>.....................         ",
"      ....................*@@@@@*......................         ",
"      ...................%@@@@@@!......................         ",
"     ....................#@@@@@*......................          ",
"     ...................-@@@@@@!......................          ",
"     ...................&@@@@@*......................           ",
"     ...................@@@@@@>......................           ",
"     ..................>@@@@@)......................            ",
"     ..................#@@@@@&......................            ",
"     ..................@@@@@@'.....................             ",
"     ..................*@@@@@%.....................             ",
"     ..................%@@@@@'....................              ",
"     ...................=@@@#.....................              ",
"     ....................-!!.....................               ",
"     .................'~{........................               ",
"     ................!@@@]......................                ",
"      ..............'@@@@@^....................                 ",
"      ..............+@@@@@@...................                  ",
"      ..............@@@@@@@...................                  ",
"      .............%@@@@@@@..................                   ",
"      .............&@@@@@@@.................                    ",
"       ............+@@@@@@#................                     ",
"       ............+@@@@@@>...............                      ",
"        ...........+@@@@@*...............                       ",
"         ..........{@@@@@%..............                        ",
"         ...........'#@*%..............                         ",
"          ...........................                           ",
"           .........................                            ",
"            ......................                              ",
"              .................                                 ",
"                ..........                                      ",
"                                                                ",
"                                                                ",
"                                                                "};
