/* XPM */
static char * stock_dialog_stop_48_xpm[] = {
"48 48 927 2",
"  	c None",
". 	c #524D4D",
"+ 	c #695251",
"@ 	c #7A5955",
"# 	c #7F5A57",
"$ 	c #805A58",
"% 	c #7F5956",
"& 	c #7C5553",
"* 	c #7A534F",
"= 	c #714B48",
"- 	c #5A3E3E",
"; 	c #3C3737",
"> 	c #645352",
", 	c #795855",
"' 	c #8B5B58",
") 	c #98605C",
"! 	c #9C615D",
"~ 	c #9D605D",
"{ 	c #9C5F5C",
"] 	c #995D59",
"^ 	c #985B55",
"/ 	c #90524F",
"( 	c #7E4646",
"_ 	c #694240",
": 	c #553A39",
"< 	c #464B4B",
"[ 	c #5F5655",
"} 	c #8C615D",
"| 	c #B76964",
"1 	c #D66F69",
"2 	c #E3736C",
"3 	c #EB756D",
"4 	c #EE746D",
"5 	c #EE716C",
"6 	c #EC7369",
"7 	c #E97066",
"8 	c #DE655F",
"9 	c #CB5856",
"0 	c #B4554E",
"a 	c #824240",
"b 	c #4F3536",
"c 	c #242F2F",
"d 	c #615553",
"e 	c #805E5B",
"f 	c #AA6965",
"g 	c #CF756D",
"h 	c #DD7971",
"i 	c #E37B73",
"j 	c #E77E74",
"k 	c #E77C74",
"l 	c #E77870",
"m 	c #E7736B",
"n 	c #E56F67",
"o 	c #E26B64",
"p 	c #E26862",
"q 	c #DF645E",
"r 	c #DB5E5A",
"s 	c #D85D57",
"t 	c #D05350",
"u 	c #C14B48",
"v 	c #A2423F",
"w 	c #583431",
"x 	c #3C2C2B",
"y 	c #675555",
"z 	c #94635F",
"A 	c #BA6E68",
"B 	c #D87772",
"C 	c #ED8178",
"D 	c #EF8179",
"E 	c #EC7F77",
"F 	c #E87B73",
"G 	c #E57670",
"H 	c #E4726B",
"I 	c #E26D65",
"J 	c #E06660",
"K 	c #DE605C",
"L 	c #DD5E59",
"M 	c #DD5A55",
"N 	c #DC5652",
"O 	c #DD5551",
"P 	c #DF514E",
"Q 	c #DC4D4A",
"R 	c #CD4843",
"S 	c #9D3C38",
"T 	c #7A3330",
"U 	c #502A29",
"V 	c #6C5958",
"W 	c #946360",
"X 	c #C5726C",
"Y 	c #E97E75",
"Z 	c #EF817A",
"` 	c #EC827A",
" .	c #EA8078",
"..	c #E77A73",
"+.	c #E4726C",
"@.	c #E36D68",
"#.	c #E26A64",
"$.	c #E06560",
"%.	c #DE5E5B",
"&.	c #DC5A56",
"*.	c #DB5652",
"=.	c #DA524E",
"-.	c #D94D49",
";.	c #D84A47",
">.	c #D84744",
",.	c #D94642",
"'.	c #DA4640",
").	c #D5403A",
"!.	c #B53833",
"~.	c #802E2B",
"{.	c #3F2323",
"].	c #A26B67",
"^.	c #DD7972",
"/.	c #EF827A",
"(.	c #EF867E",
"_.	c #EA847C",
":.	c #E77E75",
"<.	c #E6786F",
"[.	c #E4736A",
"}.	c #E26D66",
"|.	c #E16963",
"1.	c #E06661",
"2.	c #DE625E",
"3.	c #DD5D5A",
"4.	c #DB5B56",
"5.	c #DA5652",
"6.	c #D9514D",
"7.	c #D84C46",
"8.	c #D74740",
"9.	c #D6413A",
"0.	c #D53C36",
"a.	c #D53A33",
"b.	c #D73A32",
"c.	c #DF3A33",
"d.	c #C4322D",
"e.	c #8A2825",
"f.	c #322020",
"g.	c #685756",
"h.	c #966662",
"i.	c #DD7973",
"j.	c #EB8279",
"k.	c #EF847D",
"l.	c #EE827C",
"m.	c #EB7D77",
"n.	c #EA7872",
"o.	c #E9766D",
"p.	c #E77269",
"q.	c #E56C67",
"r.	c #E16966",
"s.	c #DF6863",
"t.	c #DE645F",
"u.	c #DD5F5B",
"v.	c #DB5955",
"w.	c #DB5552",
"x.	c #DB504E",
"y.	c #DB4B47",
"z.	c #DA4541",
"A.	c #D9413B",
"B.	c #D83B35",
"C.	c #D7352F",
"D.	c #D52F2A",
"E.	c #D72D27",
"F.	c #D32A25",
"G.	c #BC2622",
"H.	c #7E201F",
"I.	c #381B1B",
"J.	c #615452",
"K.	c #94645F",
"L.	c #C5746D",
"M.	c #EF827B",
"N.	c #EE857D",
"O.	c #E67F77",
"P.	c #D8736B",
"Q.	c #C5645E",
"R.	c #C2625D",
"S.	c #C1615A",
"T.	c #C5605A",
"U.	c #D1625E",
"V.	c #DE6A66",
"W.	c #DF6964",
"X.	c #DE6461",
"Y.	c #DC5F5D",
"Z.	c #DC5C56",
"`.	c #D74E4A",
" +	c #CD4540",
".+	c #C63C37",
"++	c #C33630",
"@+	c #C4312C",
"#+	c #C82D28",
"$+	c #D22924",
"%+	c #D42621",
"&+	c #D5231E",
"*+	c #D0201C",
"=+	c #BB1F1D",
"-+	c #651918",
";+	c #2F1515",
">+	c #805F5B",
",+	c #B96F68",
"'+	c #E77F76",
")+	c #EE867F",
"!+	c #EC847C",
"~+	c #D4736A",
"{+	c #B56159",
"]+	c #9C5A55",
"^+	c #AB716D",
"/+	c #A96F6C",
"(+	c #A4605D",
"_+	c #A8504D",
":+	c #CE635F",
"<+	c #DD6663",
"[+	c #E06462",
"}+	c #DE605E",
"|+	c #DF5E58",
"1+	c #D7534E",
"2+	c #C14641",
"3+	c #A63C37",
"4+	c #A74540",
"5+	c #A94642",
"6+	c #A53A37",
"7+	c #A52A26",
"8+	c #C4211C",
"9+	c #D0211D",
"0+	c #D31E1A",
"a+	c #D31B16",
"b+	c #DA1C18",
"c+	c #911815",
"d+	c #531513",
"e+	c #474C4D",
"f+	c #A96A64",
"g+	c #D67A72",
"h+	c #ED847B",
"i+	c #EA847D",
"j+	c #EC7E78",
"k+	c #BB615B",
"l+	c #905552",
"m+	c #8B7473",
"n+	c #C2BAB9",
"o+	c #C0B9B9",
"p+	c #9E8788",
"q+	c #754040",
"r+	c #AE514F",
"s+	c #D25E5D",
"t+	c #E16362",
"u+	c #E1605E",
"v+	c #DE5B56",
"w+	c #C34944",
"x+	c #973B37",
"y+	c #723D3B",
"z+	c #917271",
"A+	c #9F8686",
"B+	c #8E6B6B",
"C+	c #7A3534",
"D+	c #A61714",
"E+	c #C81C19",
"F+	c #D21C18",
"G+	c #CE1913",
"H+	c #CF1712",
"I+	c #B91712",
"J+	c #771612",
"K+	c #2C1412",
"L+	c #605553",
"M+	c #CF746D",
"N+	c #EA8179",
"O+	c #E9857C",
"P+	c #E7817A",
"Q+	c #EC7B73",
"R+	c #B6615C",
"S+	c #9F7473",
"T+	c #D2CDCD",
"U+	c #EFEEED",
"V+	c #F3F2F2",
"W+	c #DCD6D6",
"X+	c #AD9B9B",
"Y+	c #7C4E4D",
"Z+	c #A44F4B",
"`+	c #D05B56",
" @	c #DF5D58",
".@	c #BC4A45",
"+@	c #8A3834",
"@@	c #926462",
"#@	c #CCBDBC",
"$@	c #E7E1E1",
"%@	c #EDE8E8",
"&@	c #DCD4D4",
"*@	c #B89A99",
"=@	c #8A1B19",
"-@	c #BB1817",
";@	c #D01916",
">@	c #CA1410",
",@	c #C9110D",
"'@	c #CA110C",
")@	c #97100D",
"!@	c #530F0E",
"~@	c #655251",
"{@	c #8E5F5C",
"]@	c #DC7872",
"^@	c #EC817A",
"/@	c #E57D75",
"(@	c #E97771",
"_@	c #B25E5B",
":@	c #A17978",
"<@	c #E2E0DF",
"[@	c #FAF9F9",
"}@	c #FFFFFF",
"|@	c #F7F6F6",
"1@	c #DFDBDA",
"2@	c #A79595",
"3@	c #915D5B",
"4@	c #9F4642",
"5@	c #BA4A45",
"6@	c #8A3936",
"7@	c #8E5E5D",
"8@	c #B9A4A4",
"9@	c #F2F0F0",
"0@	c #FEFDFD",
"a@	c #F3F3F3",
"b@	c #D1C1C0",
"c@	c #883230",
"d@	c #BC2A29",
"e@	c #D02220",
"f@	c #C81410",
"g@	c #C6100C",
"h@	c #C90C09",
"i@	c #B20B0A",
"j@	c #800C0B",
"k@	c #050F0F",
"l@	c #514B4B",
"m@	c #785654",
"n@	c #B76863",
"o@	c #E17B75",
"p@	c #E9807A",
"q@	c #E57D77",
"r@	c #E37770",
"s@	c #E7716E",
"t@	c #B45A58",
"u@	c #9B6B6A",
"v@	c #C5BCBC",
"w@	c #F4F2F2",
"x@	c #FBFBFB",
"y@	c #DEDBDB",
"z@	c #A58E8E",
"A@	c #8A5553",
"B@	c #924441",
"C@	c #895E5C",
"D@	c #B7A2A2",
"E@	c #E4DDDD",
"F@	c #FEFEFE",
"G@	c #E9E8E8",
"H@	c #C2B3B1",
"I@	c #934D4B",
"J@	c #C1413F",
"K@	c #D02C2B",
"L@	c #C61411",
"M@	c #C40D0B",
"N@	c #C30807",
"O@	c #C20707",
"P@	c #A10909",
"Q@	c #180B0B",
"R@	c #68514E",
"S@	c #8A5A56",
"T@	c #D36F67",
"U@	c #E57F75",
"V@	c #E78079",
"W@	c #E37874",
"X@	c #E16F6A",
"Y@	c #E56C6A",
"Z@	c #BD5955",
"`@	c #955350",
" #	c #8C7373",
".#	c #E4DEDE",
"+#	c #FCFCFC",
"@#	c #DDD8D9",
"##	c #A99898",
"$#	c #806261",
"%#	c #C9BEBD",
"&#	c #EFEDEC",
"*#	c #F6F5F5",
"=#	c #C9C2C1",
"-#	c #947B7A",
";#	c #A66463",
">#	c #C95451",
",#	c #D03331",
"'#	c #C51011",
")#	c #C20909",
"!#	c #BF0606",
"~#	c #C50505",
"{#	c #AE0505",
"]#	c #3E0404",
"^#	c #785451",
"/#	c #965E59",
"(#	c #E0756C",
"_#	c #E57C75",
":#	c #E47A75",
"<#	c #E1746F",
"[#	c #DF6C67",
"}#	c #E26B68",
"|#	c #D3625F",
"1#	c #AB514F",
"2#	c #754342",
"3#	c #B1A1A1",
"4#	c #E4E1E1",
"5#	c #F9F9F9",
"6#	c #EAE6E6",
"7#	c #DAD2D2",
"8#	c #F4F2F1",
"9#	c #C5BEBE",
"0#	c #927F7F",
"a#	c #845C5B",
"b#	c #CB7978",
"c#	c #D45655",
"d#	c #CD2E2D",
"e#	c #C20F0F",
"f#	c #C00808",
"g#	c #BD0707",
"h#	c #C10505",
"i#	c #B10404",
"j#	c #680505",
"k#	c #7E5855",
"l#	c #9A5F5C",
"m#	c #E7756E",
"n#	c #E57874",
"o#	c #E27672",
"p#	c #DF6F6B",
"q#	c #DE6561",
"r#	c #DF6764",
"s#	c #DD6662",
"t#	c #CC5E5A",
"u#	c #AA4F4C",
"v#	c #8C5C5A",
"w#	c #AA9695",
"x#	c #D8D4D3",
"y#	c #FCFBFB",
"z#	c #FDFDFD",
"A#	c #F2F1F1",
"B#	c #C7C1C1",
"C#	c #9C8282",
"D#	c #996968",
"E#	c #B86E6E",
"F#	c #DA7372",
"G#	c #D14545",
"H#	c #C72020",
"I#	c #BF0B0B",
"J#	c #BD0606",
"K#	c #BB0505",
"L#	c #BD0404",
"M#	c #B00303",
"N#	c #7A0403",
"O#	c #370605",
"P#	c #7F5957",
"Q#	c #9B605E",
"R#	c #EB756F",
"S#	c #E47673",
"T#	c #E1726F",
"U#	c #DD605D",
"V#	c #DD6260",
"W#	c #DF6661",
"X#	c #D7615C",
"Y#	c #98423F",
"Z#	c #8B5957",
"`#	c #AA9594",
" $	c #E7E2E2",
".$	c #FBFAFA",
"+$	c #EFEDED",
"@$	c #CCC4C4",
"#$	c #947F7F",
"$$	c #996868",
"%$	c #B86A69",
"&$	c #DA6F6F",
"*$	c #D75655",
"=$	c #CA2D2C",
"-$	c #C01212",
";$	c #BC0707",
">$	c #BA0505",
",$	c #B90404",
"'$	c #BA0202",
")$	c #AF0201",
"!$	c #810402",
"~$	c #390605",
"{$	c #7F5857",
"]$	c #9B605D",
"^$	c #EB766E",
"/$	c #E47571",
"($	c #E06E6B",
"_$	c #DD6461",
":$	c #DC5D5A",
"<$	c #DD615E",
"[$	c #E06460",
"}$	c #E36560",
"|$	c #CB5350",
"1$	c #903C3A",
"2$	c #845958",
"3$	c #BFB3B3",
"4$	c #F5F3F2",
"5$	c #DBD5D5",
"6$	c #9C8A8A",
"7$	c #785252",
"8$	c #B76F6E",
"9$	c #D97070",
"0$	c #D65050",
"a$	c #C92A2A",
"b$	c #C11414",
"c$	c #BB0808",
"d$	c #B90505",
"e$	c #B70303",
"f$	c #B90101",
"g$	c #AF0101",
"h$	c #820303",
"i$	c #380606",
"j$	c #7C5550",
"k$	c #995C57",
"l$	c #E86F69",
"m$	c #E36F6D",
"n$	c #DF6965",
"o$	c #DD615C",
"p$	c #DC5B55",
"q$	c #DD5C57",
"r$	c #DF5E59",
"s$	c #DF5C57",
"t$	c #BB4644",
"u$	c #843432",
"v$	c #855C5B",
"w$	c #CEC4C3",
"x$	c #F7F5F5",
"y$	c #E4E0E0",
"z$	c #AEA1A0",
"A$	c #714F4E",
"B$	c #AB5959",
"C$	c #CC4E4E",
"D$	c #CB2B2B",
"E$	c #BC0A0A",
"F$	c #B90606",
"G$	c #B80404",
"H$	c #B60303",
"I$	c #B50202",
"J$	c #B70101",
"K$	c #AE0000",
"L$	c #800202",
"M$	c #380505",
"N$	c #7A4E4D",
"O$	c #965653",
"P$	c #E56964",
"Q$	c #E26B69",
"R$	c #DF6662",
"S$	c #DC5D58",
"T$	c #DB544F",
"U$	c #DC5550",
"V$	c #DE5752",
"W$	c #D8544F",
"X$	c #C34843",
"Y$	c #8B3936",
"Z$	c #90605E",
"`$	c #B7A2A1",
" %	c #EEEBEA",
".%	c #F6F4F4",
"+%	c #9C8A89",
"@%	c #8D4D4D",
"#%	c #9D2727",
"$%	c #BA1515",
"%%	c #BE0B0B",
"&%	c #BA0707",
"*%	c #B70404",
"=%	c #B60202",
"-%	c #B40101",
";%	c #B70000",
">%	c #AC0000",
",%	c #7B0202",
"'%	c #370505",
")%	c #6F4647",
"!%	c #8E4E4D",
"~%	c #DB615D",
"{%	c #E06864",
"]%	c #DE6460",
"^%	c #DB5A56",
"/%	c #DA504B",
"(%	c #DC514C",
"_%	c #D64E49",
":%	c #BF4540",
"<%	c #963A37",
"[%	c #926664",
"}%	c #BAA7A6",
"|%	c #E5DEDE",
"1%	c #EFECEC",
"2%	c #FDFCFC",
"3%	c #F8F7F7",
"4%	c #D2CCCC",
"5%	c #987575",
"6%	c #843232",
"7%	c #960E0E",
"8%	c #B50606",
"9%	c #B50101",
"0%	c #B30000",
"a%	c #B60000",
"b%	c #A80000",
"c%	c #650101",
"d%	c #2F0404",
"e%	c #5B3E3F",
"f%	c #7F4645",
"g%	c #CB5853",
"h%	c #DC6460",
"i%	c #DF635E",
"j%	c #DB5954",
"k%	c #D94E48",
"l%	c #DC4C48",
"m%	c #C7413E",
"n%	c #9D3936",
"o%	c #724342",
"p%	c #CCBEBE",
"q%	c #F1F0EF",
"r%	c #D9D3D3",
"s%	c #C5BBBB",
"t%	c #EEECEC",
"u%	c #CBC4C4",
"v%	c #907070",
"w%	c #701F1F",
"x%	c #A60606",
"y%	c #B20101",
"z%	c #B50000",
"A%	c #B30101",
"B%	c #B10000",
"C%	c #A10000",
"D%	c #3D0101",
"E%	c #403B3C",
"F%	c #6B4242",
"G%	c #B44D4C",
"H%	c #D95E5A",
"I%	c #E05F5B",
"J%	c #DB5651",
"K%	c #DC4440",
"L%	c #BA3835",
"M%	c #9C4846",
"N%	c #A08889",
"O%	c #EAE5E5",
"P%	c #C5BDBC",
"Q%	c #897776",
"R%	c #6E5555",
"S%	c #B7ADAD",
"T%	c #E9E6E6",
"U%	c #F7F7F7",
"V%	c #C6BCBC",
"W%	c #8B5F5F",
"X%	c #991414",
"Y%	c #AD0505",
"Z%	c #B20000",
"`%	c #B00000",
" &	c #9A0101",
".&	c #0F0606",
"+&	c #573A3A",
"@&	c #83413F",
"#&	c #D15653",
"$&	c #E25B57",
"%&	c #DB5451",
"&&	c #D94440",
"*&	c #DC403C",
"=&	c #B73431",
"-&	c #A35452",
";&	c #BFB4B4",
">&	c #F3F1F1",
",&	c #F6F6F6",
"'&	c #9D8584",
")&	c #916463",
"!&	c #A06564",
"~&	c #855E5E",
"{&	c #AC9A9A",
"]&	c #FEFFFF",
"^&	c #DBD8D8",
"/&	c #A88C8C",
"(&	c #9B2C2C",
"_&	c #AE1111",
":&	c #B40505",
"<&	c #AF0000",
"[&	c #A00101",
"}&	c #760202",
"|&	c #050707",
"1&	c #513736",
"2&	c #C24D49",
"3&	c #DF5552",
"4&	c #DD524F",
"5&	c #DB3C39",
"6&	c #B52F2C",
"7&	c #9E4C4B",
"8&	c #B5A7A7",
"9&	c #F1EEEE",
"0&	c #EFEEEE",
"a&	c #CBC6C6",
"b&	c #978484",
"c&	c #996D6D",
"d&	c #B36A6A",
"e&	c #C96A6A",
"f&	c #8A3535",
"g&	c #855050",
"h&	c #AC9595",
"i&	c #E8E5E5",
"j&	c #D7D4D4",
"k&	c #A14646",
"l&	c #B32424",
"m&	c #B50E0E",
"n&	c #860202",
"o&	c #4D0404",
"p&	c #262F30",
"q&	c #A4413F",
"r&	c #D04C49",
"s&	c #DE4E4C",
"t&	c #DA4542",
"u&	c #DA3A36",
"v&	c #B72B28",
"w&	c #963634",
"x&	c #8F6B6B",
"y&	c #D5C5C5",
"z&	c #E6DDDD",
"A&	c #CCC1C1",
"B&	c #968181",
"C&	c #845D5D",
"D&	c #B47070",
"E&	c #D67474",
"F&	c #D45555",
"G&	c #B32929",
"H&	c #811B1B",
"I&	c #844A4A",
"J&	c #B7A3A3",
"K&	c #E0D6D6",
"L&	c #E0D9D9",
"M&	c #BBAEAE",
"N&	c #917171",
"O&	c #AE5D5D",
"P&	c #B93737",
"Q&	c #B61717",
"R&	c #AF0303",
"S&	c #690303",
"T&	c #270606",
"U&	c #5D3333",
"V&	c #A13D3C",
"W&	c #D84643",
"X&	c #DC4A45",
"Y&	c #D73C38",
"Z&	c #C82C29",
"`&	c #A9211E",
" *	c #7D1E1D",
".*	c #793634",
"+*	c #7B4A49",
"@*	c #855858",
"#*	c #996262",
"$*	c #C67A7A",
"%*	c #D77777",
"&*	c #D55C5C",
"**	c #C73232",
"=*	c #C01818",
"-*	c #AC0C0C",
";*	c #8E0E0E",
">*	c #721F1F",
",*	c #784040",
"'*	c #7D5050",
")*	c #835656",
"!*	c #955C5C",
"~*	c #C66C6C",
"{*	c #C03D3D",
"]*	c #B41818",
"^*	c #AD0303",
"/*	c #780101",
"(*	c #3F0505",
"_*	c #050909",
":*	c #3F2C2C",
"<*	c #7C3332",
"[*	c #B63C3A",
"}*	c #E04743",
"|*	c #D73E3C",
"1*	c #CF312D",
"2*	c #C22521",
"3*	c #B11E1C",
"4*	c #AD2625",
"5*	c #B03C3C",
"6*	c #B85151",
"7*	c #C35F5F",
"8*	c #CF6060",
"9*	c #CE4E4E",
"0*	c #C73535",
"a*	c #BE1A1A",
"b*	c #BB0F0F",
"c*	c #B60A0A",
"d*	c #AB0707",
"e*	c #9E0A0A",
"f*	c #A12020",
"g*	c #A73434",
"h*	c #AE4545",
"i*	c #B64F4F",
"j*	c #C44D4D",
"k*	c #B92727",
"l*	c #B20D0D",
"m*	c #AC0202",
"n*	c #A20000",
"o*	c #4E0404",
"p*	c #1D0606",
"q*	c #532C2B",
"r*	c #823231",
"s*	c #C43C3A",
"t*	c #D13E3C",
"u*	c #D23532",
"v*	c #CE2A27",
"w*	c #C8201F",
"x*	c #C61F1F",
"y*	c #C82E2E",
"z*	c #CB3D3D",
"A*	c #CD4444",
"B*	c #C93C3C",
"C*	c #C32B2B",
"D*	c #BD1A1A",
"E*	c #B90E0E",
"F*	c #B70A0A",
"G*	c #B70808",
"H*	c #B60606",
"I*	c #B30505",
"J*	c #B40E0E",
"K*	c #B71C1C",
"L*	c #BB2A2A",
"M*	c #BC3030",
"N*	c #B82828",
"O*	c #B21212",
"P*	c #A80505",
"Q*	c #940101",
"R*	c #670303",
"S*	c #2D0505",
"T*	c #442929",
"U*	c #8C2E2E",
"V*	c #BB3836",
"W*	c #CE3635",
"X*	c #CF2E2E",
"Y*	c #C82223",
"Z*	c #C31919",
"`*	c #C21B1B",
" =	c #C11E1E",
".=	c #C01F1F",
"+=	c #BF1A1A",
"@=	c #BB1313",
"#=	c #B80E0E",
"$=	c #B60B0B",
"%=	c #B60808",
"&=	c #B50707",
"*=	c #B30606",
"==	c #B10303",
"-=	c #B00202",
";=	c #AF0606",
">=	c #AF0A0A",
",=	c #B00D0D",
"'=	c #AE0A0A",
")=	c #AB0404",
"!=	c #930101",
"~=	c #650202",
"{=	c #1D0707",
"]=	c #352525",
"^=	c #802B2A",
"/=	c #B93131",
"(=	c #D53333",
"_=	c #CB2C2C",
":=	c #C21D1D",
"<=	c #BE1616",
"[=	c #BD1111",
"}=	c #B90D0D",
"|=	c #B80B0B",
"1=	c #B40707",
"2=	c #B20606",
"3=	c #B00404",
"4=	c #AD0202",
"5=	c #AD0101",
"6=	c #AC0101",
"7=	c #3E2323",
"8=	c #692624",
"9=	c #932826",
"0=	c #B82B29",
"a=	c #C62627",
"b=	c #C42020",
"c=	c #BE1919",
"d=	c #BA1212",
"e=	c #B10505",
"f=	c #AF0404",
"g=	c #AE0202",
"h=	c #AB0000",
"i=	c #9F0000",
"j=	c #760101",
"k=	c #371E1D",
"l=	c #59211F",
"m=	c #7C2422",
"n=	c #9A2626",
"o=	c #B22424",
"p=	c #C1201F",
"q=	c #C21A1A",
"r=	c #BE1515",
"s=	c #BA1010",
"t=	c #B70C0C",
"u=	c #B50909",
"v=	c #B30707",
"w=	c #9B0101",
"x=	c #830101",
"y=	c #680303",
"z=	c #361C1B",
"A=	c #5C1F1F",
"B=	c #862121",
"C=	c #A42120",
"D=	c #B01F1F",
"E=	c #B21B1B",
"F=	c #B11717",
"G=	c #AF1313",
"H=	c #AD1010",
"I=	c #AB0C0C",
"J=	c #A90909",
"K=	c #A50808",
"L=	c #9D0606",
"M=	c #960505",
"N=	c #730303",
"O=	c #4C0303",
"P=	c #270505",
"Q=	c #0A1616",
"R=	c #211515",
"S=	c #4C1313",
"T=	c #711616",
"U=	c #831717",
"V=	c #891717",
"W=	c #871616",
"X=	c #851313",
"Y=	c #801111",
"Z=	c #6B0D0D",
"`=	c #420909",
" -	c #120A0A",
".-	c #070909",
"+-	c #3F1515",
"@-	c #401616",
"#-	c #3D1313",
"$-	c #3B1010",
"%-	c #340D0D",
"                          . + @ # $ % & * = - ;                                                 ",
"                        > , ' ) ! ~ { ] ^ / ( _ :                                               ",
"                    < [ } | 1 2 3 4 5 6 7 8 9 0 a b c                                           ",
"                d e f g h i j k l m n o p q r s t u v w x                                       ",
"              y z A B C D E F G H I J K L M N O P Q R S T U                                     ",
"            V W X Y Z `  ...+.@.#.$.%.&.*.=.-.;.>.,.'.).!.~.{.                                  ",
"          V ].^./.(._.:.<.[.}.|.1.2.3.4.5.6.7.8.9.0.a.b.c.d.e.f.                                ",
"        g.h.i.j.k.l.m.n.o.p.q.r.s.t.u.v.w.x.y.z.A.B.C.D.E.F.G.H.I.                              ",
"      J.K.L.M.N.O.P.Q.R.S.T.U.V.W.X.Y.Z.N `. +.+++@+#+$+%+&+*+=+-+;+                            ",
"      >+,+'+)+!+~+{+]+^+/+(+_+:+<+[+}+|+1+2+3+4+5+6+7+8+9+0+a+b+c+d+                            ",
"    e+f+g+h+i+j+k+l+m+n+o+p+q+r+s+t+u+v+w+x+y+z+A+B+C+D+E+F+G+H+I+J+K+                          ",
"    L+M+N+O+P+Q+R+S+T+U+V+W+X+Y+Z+`+ @.@+@@@#@$@%@&@*@=@-@;@>@,@'@)@!@                          ",
"  ~@{@]@^@P+/@(@_@:@<@[@}@|@1@2@3@4@5@6@7@8@9@0@}@a@b@c@d@e@f@g@h@i@j@k@                        ",
"l@m@n@o@p@q@r@s@t@u@v@w@}@}@x@y@z@A@B@C@D@E@}@}@F@G@H@I@J@K@L@M@N@O@P@Q@                        ",
"R@S@T@U@V@W@X@Y@Z@`@ #.#+#}@}@}@@###$#%#&#}@}@}@*#=#-#;#>#,#'#)#!#~#{#]#                        ",
"^#/#(#_#:#<#[#}#|#1#2#3#4#}@}@}@5#6#7#8#+#}@}@}@9#0#a#b#c#d#e#f#g#h#i#j#                        ",
"k#l#m#n#o#p#q#r#s#t#u#v#w#x#}@}@}@y#|@F@}@z#A#B#C#D#E#F#G#H#I#J#K#L#M#N#O#                      ",
"P#Q#R#S#T#V.U#V#W#W#X#Y#Z#`# $.$}@}@}@}@}@+$@$#$$$%$&$*$=$-$;$>$,$'$)$!$~$                      ",
"{$]$^$/$($_$:$u.<$[$}$|$1$2$3$4$}@}@}@}@}@5$6$7$8$9$0$a$b$c$,$d$e$f$g$h$i$                      ",
"j$k$l$m$n$o$Z.p$q$r$s$t$u$v$w$x$}@}@}@}@}@y$z$A$B$C$D$b$E$F$G$H$I$J$K$L$M$                      ",
"N$O$P$Q$R$S$T$U$V$W$X$Y$Z$`$ %+#}@}@}@}@}@.%5$+%@%#%$%%%&%*%=%I$-%;%>%,%'%                      ",
")%!%~%{%]%^%/%(%_%:%<%[%}%|%}@}@z#*#1%2%}@}@3%4%5%6%7%8%*%=%9%-%0%a%b%c%d%                      ",
"e%f%g%h%i%j%k%l%m%n%o%p%9@}@}@}@q%r%s%t%x@}@}@}@u%v%w%x%y%z%A%0%B%a%C%D%                        ",
"E%F%G%H%I%J%,.K%L%M%N%O%0@}@}@}@P%Q%R%S%T%}@}@}@U%V%W%X%Y%-%Z%`%`%a% &.&                        ",
"  +&@&#&$&%&&&*&=&-&;&>&}@F@,&u%'&)&!&~&{&W+}@}@]&^&/&(&_&:&<&<&Z%[&}&|&                        ",
"    1&2&3&4&&&5&6&7&8&9&}@0&a&b&c&d&e&f&g&h&i&+#+#j&z@k&l&m&g$<&<&n&o&                          ",
"    p&q&r&s&t&u&v&w&x&y&z&A&B&C&D&E&F&G&H&I&J&K&L&M&N&O&P&Q&R&`%C%S&T&                          ",
"      U&V&W&X&Y&Z&`& *.*+*@*#*$*%*&***=*-*;*>*,*'*)*!*~*{*]*^*Z%/*(*_*                          ",
"      :*<*[*}*|*1*2*3*4*5*6*7*8*9*0*a*b*c*d*e*f*g*h*i*j*k*l*m*n*o*p*                            ",
"        q*r*s*t*u*v*w*x*y*z*A*B*C*D*E*F*G*H*I*J*K*L*M*N*O*P*Q*R*S*                              ",
"          T*U*V*W*X*Y*Z*`* =.=+=@=#=$=%=&=*===-=;=>=,='=)=!=~={=                                ",
"            ]=^=/=(=_=:=<=[=b*}=|=F*c*1=2=3=4=5=6=6=5=g$C%R*{=                                  ",
"              7=8=9=0=a=b=c=d=#=c*&=*=e=f=g=5=m*5=h=i=j=o&S*                                    ",
"                k=l=m=n=o=p=q=r=s=t=u=v=e=i#====w=x=y=(*p*                                      ",
"                    z=A=B=C=D=E=F=G=H=I=J=K=L=M=N=O=P=_*                                        ",
"                        Q=R=S=T=U=V=W=X=Y=Z=`= -.-                                              ",
"                                +-@-+-#-$-%-                                                    ",
"                                                                                                ",
"                                                                                                ",
"                                                                                                ",
"                                                                                                ",
"                                                                                                ",
"                                                                                                ",
"                                                                                                ",
"                                                                                                ",
"                                                                                                ",
"                                                                                                ",
"                                                                                                "};
