/* XPM */
static const char * stock_dialog_error_48_xpm[] = {
"48 48 474 2",
"  	c None",
". 	c #8B5447",
"+ 	c #7D4C41",
"@ 	c #77493F",
"# 	c #74473E",
"$ 	c #73443A",
"% 	c #714238",
"& 	c #704137",
"* 	c #723F35",
"= 	c #753D32",
"- 	c #8D5A4D",
"; 	c #734E45",
"> 	c #724C43",
", 	c #915E52",
"' 	c #AF6B5B",
") 	c #C97765",
"! 	c #DD826F",
"~ 	c #E37E6A",
"{ 	c #DE7A66",
"] 	c #D07361",
"^ 	c #B76353",
"/ 	c #995244",
"( 	c #794035",
"_ 	c #64332A",
": 	c #643026",
"< 	c #8F5D51",
"[ 	c #6E4D45",
"} 	c #865C51",
"| 	c #C07D6C",
"1 	c #E98A75",
"2 	c #E57259",
"3 	c #E05C3F",
"4 	c #DD4D2E",
"5 	c #D94123",
"6 	c #D73B1B",
"7 	c #D5391A",
"8 	c #D4391A",
"9 	c #D43C1F",
"0 	c #D44227",
"a 	c #D54B31",
"b 	c #C74D38",
"c 	c #914031",
"d 	c #672B21",
"e 	c #592219",
"f 	c #6F5048",
"g 	c #7E564C",
"h 	c #C5806F",
"i 	c #EA866E",
"j 	c #E25D3E",
"k 	c #DC411F",
"l 	c #DB3E1C",
"m 	c #D93D1B",
"n 	c #D83B1B",
"o 	c #D73A1A",
"p 	c #D43719",
"q 	c #D23618",
"r 	c #D13518",
"s 	c #D03317",
"t 	c #CE3217",
"u 	c #CD3116",
"v 	c #CB3015",
"w 	c #C3361F",
"x 	c #8A2A1C",
"y 	c #581C12",
"z 	c #9B6559",
"A 	c #6B4D46",
"B 	c #A67367",
"C 	c #E98A74",
"D 	c #E35D3D",
"E 	c #DD411D",
"F 	c #DC3F1C",
"G 	c #D63A1A",
"H 	c #D53919",
"I 	c #CE3216",
"J 	c #CB2F15",
"K 	c #CA2E15",
"L 	c #C92D14",
"M 	c #C72B13",
"N 	c #B22914",
"O 	c #65190D",
"P 	c #98655A",
"Q 	c #6B4E47",
"R 	c #BD8375",
"S 	c #E7765B",
"T 	c #DF441F",
"U 	c #DD401D",
"V 	c #D93C1B",
"W 	c #CF3317",
"X 	c #C82D14",
"Y 	c #C62A13",
"Z 	c #C42912",
"` 	c #B82411",
" .	c #70160A",
"..	c #480E07",
"+.	c #9B685C",
"@.	c #6B4F47",
"#.	c #C48A7C",
"$.	c #E56547",
"%.	c #DF421D",
"&.	c #DA3E1C",
"*.	c #D53819",
"=.	c #D33719",
"-.	c #D13418",
";.	c #CC3116",
">.	c #C32712",
",.	c #C12611",
"'.	c #B6230F",
").	c #731509",
"!.	c #6C504A",
"~.	c #BE8578",
"{.	c #CC3016",
"].	c #C82C14",
"^.	c #C52A13",
"/.	c #C02510",
"(.	c #BE2310",
"_.	c #B2200E",
":.	c #6A1208",
"<.	c #725952",
"[.	c #A87B70",
"}.	c #E66C50",
"|.	c #DE411D",
"1.	c #DA3D1C",
"2.	c #D73B1A",
"3.	c #D6391A",
"4.	c #D03417",
"5.	c #C92E14",
"6.	c #C42812",
"7.	c #C22711",
"8.	c #C02410",
"9.	c #BD220F",
"0.	c #BC210E",
"a.	c #A81C0C",
"b.	c #570E06",
"c.	c #93695F",
"d.	c #806059",
"e.	c #E77F67",
"f.	c #DB3F1C",
"g.	c #D43819",
"h.	c #D23518",
"i.	c #CE3116",
"j.	c #BB200E",
"k.	c #BA1F0E",
"l.	c #B91E0D",
"m.	c #94160A",
"n.	c #430904",
"o.	c #6F5853",
"p.	c #C78677",
"q.	c #DE4320",
"r.	c #C62B13",
"s.	c #C52913",
"t.	c #BF2410",
"u.	c #B81E0D",
"v.	c #B71C0D",
"w.	c #AE190B",
"x.	c #6A0F06",
"y.	c #896A63",
"z.	c #E4684B",
"A.	c #DA3D1B",
"B.	c #D83C1B",
"C.	c #CA2F15",
"D.	c #C12511",
"E.	c #BD210F",
"F.	c #B61B0C",
"G.	c #B41A0B",
"H.	c #961409",
"I.	c #440803",
"J.	c #765F59",
"K.	c #C18173",
"L.	c #DC401D",
"M.	c #D33618",
"N.	c #CF3217",
"O.	c #CC3015",
"P.	c #C52912",
"Q.	c #C32812",
"R.	c #BE230F",
"S.	c #BC210F",
"T.	c #B81D0D",
"U.	c #B71C0C",
"V.	c #B51B0C",
"W.	c #B4190B",
"X.	c #B3180B",
"Y.	c #A71509",
"Z.	c #620C05",
"`.	c #755D58",
" +	c #E26B51",
".+	c #C72C14",
"++	c #C02511",
"@+	c #B91F0E",
"#+	c #B1170A",
"$+	c #B01509",
"%+	c #850F06",
"&+	c #91665C",
"*+	c #94716A",
"=+	c #DB4120",
"-+	c #CB3618",
";+	c #B93015",
">+	c #BF3115",
",+	c #BE3015",
"'+	c #BE2F15",
")+	c #BC2D15",
"!+	c #BB2C14",
"~+	c #BA2B13",
"{+	c #B82A13",
"]+	c #B72912",
"^+	c #B52812",
"/+	c #B42611",
"(+	c #B42510",
"_+	c #B22410",
":+	c #B1220F",
"<+	c #AF210F",
"[+	c #AE200E",
"}+	c #AD1F0D",
"|+	c #AB1E0D",
"1+	c #AA1D0C",
"2+	c #A91B0C",
"3+	c #A81A0B",
"4+	c #A7190A",
"5+	c #A92013",
"6+	c #AF180A",
"7+	c #B2180B",
"8+	c #AE1409",
"9+	c #930F06",
"0+	c #83615A",
"a+	c #AF6E5F",
"b+	c #C13216",
"c+	c #C1C1C1",
"d+	c #E7E7E7",
"e+	c #E6E6E6",
"f+	c #E5E5E5",
"g+	c #E4E4E4",
"h+	c #E3E3E3",
"i+	c #E2E2E2",
"j+	c #E1E1E1",
"k+	c #E0E0E0",
"l+	c #DFDFDF",
"m+	c #DEDEDE",
"n+	c #DDDDDD",
"o+	c #DCDCDC",
"p+	c #DBDBDB",
"q+	c #B12318",
"r+	c #B1160A",
"s+	c #AF1509",
"t+	c #AD1308",
"u+	c #9C0E06",
"v+	c #540703",
"w+	c #7B5E57",
"x+	c #C4634E",
"y+	c #CB3417",
"z+	c #FBFBFB",
"A+	c #FAFAFA",
"B+	c #F9F9F9",
"C+	c #F8F8F8",
"D+	c #F7F7F7",
"E+	c #F6F6F6",
"F+	c #F5F5F5",
"G+	c #F4F4F4",
"H+	c #F3F3F3",
"I+	c #F2F2F2",
"J+	c #F1F1F1",
"K+	c #F0F0F0",
"L+	c #EFEFEF",
"M+	c #C34E45",
"N+	c #AD1208",
"O+	c #AB1108",
"P+	c #A20E05",
"Q+	c #630703",
"R+	c #775A54",
"S+	c #D2533A",
"T+	c #CA3317",
"U+	c #DADADA",
"V+	c #EEEEEE",
"W+	c #EDEDED",
"X+	c #C65A52",
"Y+	c #AC1208",
"Z+	c #AB1107",
"`+	c #AA1007",
" @	c #A20D05",
".@	c #6E0803",
"+@	c #785C56",
"@@	c #D64628",
"#@	c #C83116",
"$@	c #D8D8D8",
"%@	c #ECECEC",
"&@	c #EBEBEB",
"*@	c #C65B54",
"=@	c #A80E06",
"-@	c #9F0C05",
";@	c #720802",
">@	c #765851",
",@	c #CF391C",
"'@	c #C73015",
")@	c #EAEAEA",
"!@	c #C45851",
"~@	c #A90F07",
"{@	c #A50C05",
"]@	c #970B04",
"^@	c #6A0602",
"/@	c #74514A",
"(@	c #C52E15",
"_@	c #D6D6D6",
":@	c #E9E9E9",
"<@	c #C3574F",
"[@	c #A70D06",
"}@	c #A00A04",
"|@	c #8F0702",
"1@	c #5A0401",
"2@	c #764F47",
"3@	c #AA2D15",
"4@	c #C83921",
"5@	c #BA403A",
"6@	c #A60D05",
"7@	c #A50B05",
"8@	c #9A0903",
"9@	c #830602",
"0@	c #480200",
"a@	c #7A4A41",
"b@	c #8F2A18",
"c@	c #CB351D",
"d@	c #D0523F",
"e@	c #D66857",
"f@	c #DB7A6C",
"g@	c #D9786A",
"h@	c #D87769",
"i@	c #D87669",
"j@	c #D67569",
"k@	c #D6766A",
"l@	c #D47165",
"m@	c #D16B5F",
"n@	c #D16A5F",
"o@	c #CF695E",
"p@	c #CF685E",
"q@	c #CE675D",
"r@	c #CD675D",
"s@	c #CC655D",
"t@	c #CB645B",
"u@	c #C85E55",
"v@	c #C75B54",
"w@	c #C55A52",
"x@	c #C3554E",
"y@	c #C1514B",
"z@	c #B73831",
"A@	c #A80F07",
"B@	c #A60C05",
"C@	c #A30A04",
"D@	c #900803",
"E@	c #790401",
"F@	c #360100",
"G@	c #73281B",
"H@	c #B0160A",
"I@	c #AF1409",
"J@	c #A10703",
"K@	c #850502",
"L@	c #6C0300",
"M@	c #60281E",
"N@	c #BE2C13",
"O@	c #A90F06",
"P@	c #A70E06",
"Q@	c #A20804",
"R@	c #940602",
"S@	c #800300",
"T@	c #560100",
"U@	c #643128",
"V@	c #881F0E",
"W@	c #C22611",
"X@	c #A20803",
"Y@	c #A00703",
"Z@	c #870501",
"`@	c #740200",
" #	c #300000",
".#	c #60160A",
"+#	c #BE2A13",
"@#	c #BE220F",
"##	c #B91E0E",
"$#	c #B51A0C",
"%#	c #A40B05",
"&#	c #A30904",
"*#	c #940401",
"=#	c #800200",
"-#	c #610100",
";#	c #571F16",
">#	c #841C0C",
",#	c #B61C0C",
"'#	c #A80F06",
")#	c #A10803",
"!#	c #9E0401",
"~#	c #840301",
"{#	c #760100",
"]#	c #2F0000",
"^#	c #541107",
"/#	c #AF2310",
"(#	c #BF2310",
"_#	c #BA200E",
":#	c #B3190B",
"<#	c #B2180A",
"[#	c #A40A04",
"}#	c #9F0502",
"|#	c #8B0301",
"1#	c #7E0100",
"2#	c #540000",
"3#	c #0E0000",
"4#	c #631308",
"5#	c #B5220F",
"6#	c #A00603",
"7#	c #9E0502",
"8#	c #900300",
"9#	c #7E0000",
"0#	c #630000",
"a#	c #1D0000",
"b#	c #6F1409",
"c#	c #B4200E",
"d#	c #B71D0D",
"e#	c #B2170A",
"f#	c #AE1309",
"g#	c #A91007",
"h#	c #7D0000",
"i#	c #670000",
"j#	c #260000",
"k#	c #470C05",
"l#	c #711308",
"m#	c #AF1D0D",
"n#	c #A20904",
"o#	c #8D0300",
"p#	c #7B0000",
"q#	c #650000",
"r#	c #290000",
"s#	c #691107",
"t#	c #A5190B",
"u#	c #9F0602",
"v#	c #9C0401",
"w#	c #860200",
"x#	c #770000",
"y#	c #5D0000",
"z#	c #250000",
"A#	c #560C05",
"B#	c #921508",
"C#	c #AB170A",
"D#	c #AB1007",
"E#	c #8F0401",
"F#	c #7C0100",
"G#	c #6B0000",
"H#	c #4D0000",
"I#	c #1C0000",
"J#	c #400803",
"K#	c #680D05",
"L#	c #931208",
"M#	c #A61208",
"N#	c #8F0501",
"O#	c #7D0300",
"P#	c #6A0100",
"Q#	c #580000",
"R#	c #2C0000",
"S#	c #3E0602",
"T#	c #5A0903",
"U#	c #7E0D05",
"V#	c #8E0C05",
"W#	c #990C05",
"X#	c #A40B04",
"Y#	c #980903",
"Z#	c #8D0602",
"`#	c #7E0401",
" $	c #6A0300",
".$	c #620200",
"+$	c #4F0000",
"@$	c #2D0000",
"#$	c #150000",
"$$	c #3A0401",
"%$	c #430502",
"&$	c #4E0401",
"*$	c #570402",
"=$	c #5A0502",
"-$	c #560300",
";$	c #4D0200",
">$	c #400200",
",$	c #1F0000",
"                                                                                                ",
"                                                                                                ",
"                                                                                                ",
"                                                                                                ",
"                                                                                                ",
"                                . + @ # $ % & * =                                               ",
"                          - ; > , ' ) ! ~ { ] ^ / ( _ :                                         ",
"                      < [ } | 1 2 3 4 5 6 7 8 9 0 a b c d e                                     ",
"                    f g h i j k l m n o 7 p q r s t u v w x y                                   ",
"                z A B C D E F l m n G H p q r s I u J K L M N O                                 ",
"              P Q R S T U F l V n G H p q r W I u J K X M Y Z `  ...                            ",
"            +.@.#.$.%.U F &.V n G *.=.q -.W I ;.J K X M Y Z >.,.'.).                            ",
"            !.~.$.%.U F &.V n G *.=.q -.W I {.J K ].M ^.Z >.,./.(._.:.                          ",
"          <.[.}.|.U F 1.V 2.3.*.=.q 4.W I {.J 5.].M ^.6.7.,.8.(.9.0.a.b.                        ",
"        c.d.e.|.U f.1.V 2.3.g.=.h.4.W i.{.J 5.].M ^.6.7.,.8.(.9.j.k.l.m.n.                      ",
"        o.p.q.U f.1.V 2.3.g.=.h.4.W u {.J L ].r.s.6.7.,.t.(.9.j.k.u.v.w.x.                      ",
"      c.y.z.U l A.B.o 3.g.=.r 4.W u {.C.L ].r.s.6.7.D.t.(.E.j.k.u.v.F.G.H.I.                    ",
"      J.K.L.l A.B.o 3.g.M.r 4.N.u O.C.L ].r.P.Q.7.D.t.R.S.j.k.T.U.V.W.X.Y.Z.                    ",
"      `. +l A.B.o 7 g.M.r 4.t u O.K L .+Y P.Q.7.++t.R.S.j.@+T.U.V.W.X.#+$+%+                    ",
"    &+*+=+m n o -+;+>+,+'+)+!+~+{+]+^+/+(+_+:+<+[+}+|+1+2+3+4+5+6+7+#+$+8+9+                    ",
"    0+a+m n o H b+c+d+e+f+f+g+g+h+i+i+j+j+k+l+l+m+m+m+n+n+o+p+g+q+r+s+8+t+u+v+                  ",
"    w+x+n G H p y+o+z+A+A+B+B+C+D+D+E+F+F+G+G+H+I+I+J+J+K+L+L+F+M+s+8+N+O+P+Q+                  ",
"    R+S+G *.p q T+U+B+B+C+D+D+E+E+F+G+G+H+H+I+J+J+K+L+L+V+V+W+G+X+8+Y+Z+`+ @.@                  ",
"    +@@@*.=.q -.#@$@C+D+E+E+F+F+G+H+H+I+J+J+K+K+L+V+V+W+W+%@&@H+*@Y+Z+`+=@-@;@                  ",
"    >@,@=.q 4.W '@$@E+F+F+G+H+H+I+I+J+K+K+L+L+V+W+W+%@&@&@)@)@H+!@Z+~@=@{@]@^@                  ",
"    /@b+h.4.W I (@_@G+G+H+I+I+J+J+K+L+L+V+W+W+%@%@&@)@)@:@:@:@H+<@~@=@[@}@|@1@                  ",
"    2@3@4.W u {.4@i+G+G+G+G+G+G+G+F+F+G+H+H+I+I+J+J+J+J+I+I+J+J+5@=@6@7@8@9@0@                  ",
"    a@b@W u {.J c@d@e@f@g@h@i@j@k@l@m@n@o@p@q@r@s@t@u@v@w@x@y@z@A@B@7@C@D@E@F@                  ",
"      G@u O.C.L ].r.s.Q.7.D.t.(.S.j.k.T.v.V.G.X.#+H@I@t+Y+`+~@=@B@7@C@J@K@L@                    ",
"      M@N@K L ].r.P.Q.7.D.t.R.S.j.k.T.U.V.W.X.#+$+8+t+Y+`+O@P@B@7@C@Q@R@S@T@                    ",
"      U@V@L .+Y P.Q.W@++t.R.S.j.@+T.U.V.W.7+#+$+8+t+O+`+O@[@B@7@C@X@Y@Z@`@ #                    ",
"        .#+#Y Z Q.W@++t.@#S.j.##T.U.$#W.7+#+$+8+t+O+`+O@[@B@%#&#X@Y@*#=#-#                      ",
"        ;#>#Z Q.W@++t.9.S.j.##T.,#$#W.7+r+s+8+N+O+`+'#[@B@%#&#)#Y@!#~#{#]#                      ",
"          ^#/#,./.(#9.S._#l.T.,#$#:#<#r+s+8+N+Z+`+=@[@B@[#&#)#Y@}#|#1#2#3#                      ",
"            4#5#(#9.S.k.l.T.F.$#:#<#r+s+8+Y+Z+`+=@[@{@[#&#)#6#7#8#9#0#a#                        ",
"              b#c#S.k.l.d#F.$#:#e#H@s+f#Y+Z+g#=@[@{@[#&#)#6#7#8#h#i#j#                          ",
"              k#l#m#l.d#F.$#:#e#H@s+f#Y+Z+~@=@[@7@[#n#)#6#7#o#p#q#r#                            ",
"                  s#t#F.G.X.e#H@s+t+Y+Z+~@=@6@7@[#n#J@u#v#w#x#y#z#                              ",
"                    A#B#C##+H@I@t+Y+D#~@=@6@7@[#n#J@u#E#F#G#H#I#                                ",
"                      J#K#L#M#t+Y+`+~@=@B@7@C@Q@u#N#O#P#Q#R#                                    ",
"                          S#T#U#V#W# @X#}@Y#Z#`# $.$+$@$#$                                      ",
"                                $$%$&$*$=$-$;$>$ #,$                                            ",
"                                                                                                ",
"                                                                                                ",
"                                                                                                ",
"                                                                                                ",
"                                                                                                ",
"                                                                                                "};
