/* XPM */
static const char * stock_dialog_info_48_xpm[] = {
"48 48 590 2",
"  	c None",
". 	c #9A9AA0",
"+ 	c #BDBDC6",
"@ 	c #D6D6E0",
"# 	c #E1E1EE",
"$ 	c #E4E4F2",
"% 	c #DFDFED",
"& 	c #D0D0DD",
"* 	c #B3B3BF",
"= 	c #86868F",
"- 	c #C1C1C7",
"; 	c #EAEAF5",
"> 	c #EAEAF4",
", 	c #E8E8F3",
"' 	c #E6E6F3",
") 	c #E3E3F1",
"! 	c #E2E2F1",
"~ 	c #DFDFF0",
"{ 	c #DEDEEF",
"] 	c #ADADB9",
"^ 	c #4B4B4F",
"/ 	c #AFAFB5",
"( 	c #EDEDF6",
"_ 	c #F0F0F7",
": 	c #F1F1F8",
"< 	c #EFEFF7",
"[ 	c #EBEBF5",
"} 	c #E0E0F1",
"| 	c #DEDEF0",
"1 	c #DDDDEF",
"2 	c #DCDDEF",
"3 	c #9595A0",
"4 	c #D4D4DA",
"5 	c #F3F3F8",
"6 	c #F6F6FA",
"7 	c #F8F8FB",
"8 	c #F7F7FB",
"9 	c #F5F5FA",
"0 	c #E9E9F4",
"a 	c #E5E5F3",
"b 	c #E1E1F1",
"c 	c #DEDFF0",
"d 	c #DCDCEF",
"e 	c #DBDCEF",
"f 	c #BDBECD",
"g 	c #262629",
"h 	c #DEDEE5",
"i 	c #F4F4F9",
"j 	c #F9F9FC",
"k 	c #FBFBFD",
"l 	c #ECECF5",
"m 	c #E4E4F3",
"n 	c #DFE0F0",
"o 	c #DCDEF0",
"p 	c #DBDCEE",
"q 	c #DBDBEF",
"r 	c #DADBEE",
"s 	c #C7C8D9",
"t 	c #252528",
"u 	c #D5D5DB",
"v 	c #F1F1F9",
"w 	c #FCFCFD",
"x 	c #FDFDFE",
"y 	c #F8F8FC",
"z 	c #F3F3F9",
"A 	c #EEEEF7",
"B 	c #E7E8F4",
"C 	c #E2E3F2",
"D 	c #DFE0F1",
"E 	c #DDDFF0",
"F 	c #DADDEF",
"G 	c #DADCEE",
"H 	c #D9DBEE",
"I 	c #BDBFCF",
"J 	c #000000",
"K 	c #B3B3B8",
"L 	c #F2F2F9",
"M 	c #E8E8F4",
"N 	c #E5E6F3",
"O 	c #E3E3F3",
"P 	c #E0E1F1",
"Q 	c #DDDEF0",
"R 	c #DBDDEF",
"S 	c #D8DBEE",
"T 	c #9496A2",
"U 	c #FAFAFC",
"V 	c #E9E9F5",
"W 	c #E3E4F3",
"X 	c #E1E1F2",
"Y 	c #DBDDF0",
"Z 	c #D9DCEE",
"` 	c #D8DAEE",
" .	c #D7DAEE",
"..	c #3B3C41",
"+.	c #C5C5CA",
"@.	c #FBFBFC",
"#.	c #F9F9FB",
"$.	c #F0F0F8",
"%.	c #ECECF6",
"&.	c #E7E7F4",
"*.	c #E1E2F2",
"=.	c #D8DCEE",
"-.	c #D7DBED",
";.	c #D6DAED",
">.	c #D6DBEE",
",.	c #A8AAB8",
"'.	c #F2F2F8",
").	c #EDEEF7",
"!.	c #EBEBF6",
"~.	c #E6E6F4",
"{.	c #D7DBEC",
"].	c #D6DBEC",
"^.	c #D6DAEC",
"/.	c #D6DAEE",
"(.	c #D6D9EE",
"_.	c #202124",
":.	c #A3A3A7",
"<.	c #FFFFFF",
"[.	c #F3F4F9",
"}.	c #EFEFF8",
"|.	c #EBECF6",
"1.	c #E5E6F4",
"2.	c #E1E3F2",
"3.	c #DDDFEF",
"4.	c #D8DCED",
"5.	c #D7DCEC",
"6.	c #D6DCEC",
"7.	c #D5DBED",
"8.	c #D5DAEE",
"9.	c #73757F",
"0.	c #C7C7CD",
"a.	c #F4F4FA",
"b.	c #ECECF7",
"c.	c #E9EAF5",
"d.	c #E5E5F4",
"e.	c #DEE2F0",
"f.	c #DADEEE",
"g.	c #D7DEEC",
"h.	c #D5DBEC",
"i.	c #D5DCED",
"j.	c #D5DBEE",
"k.	c #A7AAB9",
"l.	c #FAFAFB",
"m.	c #E8E9F5",
"n.	c #E1E4F2",
"o.	c #DBE0EF",
"p.	c #D8DFED",
"q.	c #D5DDEB",
"r.	c #D5DCEC",
"s.	c #C3C6D9",
"t.	c #EAEAF3",
"u.	c #F6F6FB",
"v.	c #F5F5FB",
"w.	c #EFF0F8",
"x.	c #EAEBF6",
"y.	c #E4E6F3",
"z.	c #DDE1EF",
"A.	c #D9E0ED",
"B.	c #D6DFEB",
"C.	c #D4DCEC",
"D.	c #D4DAEE",
"E.	c #D0D3E9",
"F.	c #FEFEFE",
"G.	c #F2F3FA",
"H.	c #F0F1F8",
"I.	c #E5E7F4",
"J.	c #DEE2EF",
"K.	c #D9E1EE",
"L.	c #D6E1EB",
"M.	c #D4DEEB",
"N.	c #D4DDEC",
"O.	c #D4D8EE",
"P.	c #E8E8F1",
"Q.	c #EEEEF6",
"R.	c #F5F5F9",
"S.	c #F7F7FA",
"T.	c #FDFDFD",
"U.	c #E9E7E6",
"V.	c #DFE4F0",
"W.	c #D9E3EC",
"X.	c #D6E2EA",
"Y.	c #D4E0EA",
"Z.	c #D4DEEC",
"`.	c #D4DAED",
" +	c #D0D4E9",
".+	c #D9D9E2",
"++	c #F1F1F7",
"@+	c #EFEDE8",
"#+	c #F2F3F9",
"$+	c #EAEAF0",
"%+	c #E3E7F2",
"&+	c #DEE5EF",
"*+	c #D8E4EB",
"=+	c #D5E4EA",
"-+	c #D4E3EA",
";+	c #D3DFEB",
">+	c #D4DCED",
",+	c #C3C9DA",
"'+	c #BFBFC6",
")+	c #F3F3F5",
"!+	c #EDEBE7",
"~+	c #F5F6FA",
"{+	c #F1F2F9",
"]+	c #E8E6E5",
"^+	c #EAECF5",
"/+	c #E6E7F3",
"(+	c #E0E4EF",
"_+	c #DCE5EC",
":+	c #D7E7EA",
"<+	c #D5E7EA",
"[+	c #D4E5EA",
"}+	c #D3E0EB",
"|+	c #D3DDED",
"1+	c #A8ADBC",
"2+	c #94949A",
"3+	c #EAEBF4",
"4+	c #ECEDF4",
"5+	c #EEEFF6",
"6+	c #F1F2F8",
"7+	c #F2F3F8",
"8+	c #D1D0D1",
"9+	c #EFF0F7",
"0+	c #EEEFF7",
"a+	c #ECEDF6",
"b+	c #E2E0DF",
"c+	c #E5E8F3",
"d+	c #E2E6F1",
"e+	c #DDE4ED",
"f+	c #DAE6EB",
"g+	c #D6E7EA",
"h+	c #D5E9E9",
"i+	c #D3E7EA",
"j+	c #D3DDEC",
"k+	c #747780",
"l+	c #E5E8F0",
"m+	c #E8EBF2",
"n+	c #E9ECF2",
"o+	c #EAEDF4",
"p+	c #EBEDF4",
"q+	c #EDEEF5",
"r+	c #C3C3C4",
"s+	c #EDEFF6",
"t+	c #EDEEF6",
"u+	c #EBEDF5",
"v+	c #E9EBF5",
"w+	c #DADAD7",
"x+	c #E0E4EE",
"y+	c #DCE4EC",
"z+	c #DAE5EB",
"A+	c #D4E9E9",
"B+	c #D3EAE9",
"C+	c #D3E0EC",
"D+	c #D2DCED",
"E+	c #202023",
"F+	c #B8B8C1",
"G+	c #E6E6F2",
"H+	c #E3E7EF",
"I+	c #E3EBEF",
"J+	c #E4EBF0",
"K+	c #E6ECF1",
"L+	c #E6EAF1",
"M+	c #E6EBF2",
"N+	c #E2E4E4",
"O+	c #E7EBF3",
"P+	c #E7EAF3",
"Q+	c #E6EAF3",
"R+	c #E5E9F3",
"S+	c #E4E7F3",
"T+	c #E2E7F0",
"U+	c #A4A7AD",
"V+	c #DCE2EC",
"W+	c #D9E4EA",
"X+	c #D7E6EA",
"Y+	c #D5EAE9",
"Z+	c #D4EBE9",
"`+	c #D3ECE9",
" @	c #D3E3EA",
".@	c #D2DEEC",
"+@	c #A8ADBB",
"@@	c #5A5A5E",
"#@	c #E4E5F1",
"$@	c #E4E6F2",
"%@	c #E1E8EE",
"&@	c #E0EAED",
"*@	c #E1EAEE",
"=@	c #E1E9EE",
"-@	c #E1E9F0",
";@	c #E3EAEF",
">@	c #D3D5CB",
",@	c #E1E8F1",
"'@	c #E1E7F0",
")@	c #E0E6F0",
"!@	c #DEE5F0",
"~@	c #DDE4F0",
"{@	c #DBE2EF",
"]@	c #DEE4ED",
"^@	c #9FA5A5",
"/@	c #D7E2E9",
"(@	c #D6E5E9",
"_@	c #D4E9E8",
":@	c #D4EDE9",
"<@	c #D3EEE9",
"[@	c #D3E7E9",
"}@	c #D3E1EC",
"|@	c #38383E",
"1@	c #A2A4AC",
"2@	c #E3E4F1",
"3@	c #E3E5F1",
"4@	c #DEE8EC",
"5@	c #DEEAEC",
"6@	c #DDE9EC",
"7@	c #DCE8EB",
"8@	c #DEE8EB",
"9@	c #A4ACA9",
"0@	c #DAE5EC",
"a@	c #DAE4EC",
"b@	c #D9E2EC",
"c@	c #D8E1EA",
"d@	c #D8DFEA",
"e@	c #D7DFEA",
"f@	c #CACCC2",
"g@	c #CDD1CA",
"h@	c #D5E2E8",
"i@	c #D4E7E9",
"j@	c #D3E1EB",
"k@	c #D2DDEC",
"l@	c #9296A2",
"m@	c #C8CAD5",
"n@	c #E1E3F0",
"o@	c #DCE3EA",
"p@	c #DBE7EB",
"q@	c #DAE7EA",
"r@	c #DAE8EB",
"s@	c #A0AAA6",
"t@	c #D8E3EA",
"u@	c #D7E1E9",
"v@	c #D6DFE9",
"w@	c #D6DEE8",
"x@	c #DAE2E8",
"y@	c #C9CEC0",
"z@	c #D5E2E9",
"A@	c #D5E6E9",
"B@	c #D4EAE9",
"C@	c #D3E2EA",
"D@	c #D3DFEC",
"E@	c #BAC1D1",
"F@	c #2E2E31",
"G@	c #CFD0DE",
"H@	c #DEE0F0",
"I@	c #DBE2EA",
"J@	c #DAE5EA",
"K@	c #DAE4EA",
"L@	c #C9CFC1",
"M@	c #CDD4CA",
"N@	c #D8E2EA",
"O@	c #D7E3E9",
"P@	c #D6E1E9",
"Q@	c #DCE7E9",
"R@	c #949F9B",
"S@	c #D5E5E9",
"T@	c #D3E8E9",
"U@	c #D2DFEC",
"V@	c #C5CCDC",
"W@	c #1D1D20",
"X@	c #2A2A2E",
"Y@	c #C2C3D0",
"Z@	c #DCDEEE",
"`@	c #DCDDEE",
" #	c #D8DCE9",
".#	c #D8DFE8",
"+#	c #D4DDE4",
"@#	c #9FA7A2",
"##	c #D0D8D3",
"$#	c #CFD6D1",
"%#	c #CFD6CF",
"&#	c #D1D8CF",
"*#	c #DCE8E8",
"=#	c #949E9B",
"-#	c #D4E2E3",
";#	c #D3E3E7",
">#	c #D3E0E7",
",#	c #D2DEE8",
"'#	c #BBC3D2",
")#	c #1D1D1F",
"!#	c #9999A4",
"~#	c #D3D4E5",
"{#	c #BDBABB",
"]#	c #B8B7B5",
"^#	c #C3C0B4",
"/#	c #BEBFB7",
"(#	c #C2C4B8",
"_#	c #C8C9B7",
":#	c #CECEB9",
"<#	c #D0CFB9",
"[#	c #C6C5B3",
"}#	c #CBCAB6",
"|#	c #CCCFCA",
"1#	c #CFD7DB",
"2#	c #D3DEEC",
"3#	c #969BA6",
"4#	c #3D3D42",
"5#	c #CBC1AB",
"6#	c #BAB6B8",
"7#	c #B4B4B6",
"8#	c #B6B4B6",
"9#	c #BDBBBB",
"0#	c #C0BEBB",
"a#	c #C7C3BB",
"b#	c #CEC9BC",
"c#	c #CFCABC",
"d#	c #CDCABB",
"e#	c #CAC8BA",
"f#	c #C8C6B9",
"g#	c #B5B197",
"h#	c #35383C",
"i#	c #ECE3C4",
"j#	c #D3C8A8",
"k#	c #CDC4A7",
"l#	c #CDC8BB",
"m#	c #CDCAC4",
"n#	c #C8C5C2",
"o#	c #C9C6C1",
"p#	c #CCC7B9",
"q#	c #CFC7B2",
"r#	c #CDC3A4",
"s#	c #D5CCAF",
"t#	c #D2C69D",
"u#	c #9C8C53",
"v#	c #F1DF9D",
"w#	c #F2E9C5",
"x#	c #F8F4E7",
"y#	c #F9F7EF",
"z#	c #F7F4EB",
"A#	c #EEE8D2",
"B#	c #EDE6CE",
"C#	c #F0EAD2",
"D#	c #F2ECD4",
"E#	c #E6DCB7",
"F#	c #DBCE9E",
"G#	c #BEAB66",
"H#	c #6F643A",
"I#	c #F3E3AA",
"J#	c #E6D79F",
"K#	c #F3E3A8",
"L#	c #F3E4AD",
"M#	c #F0DE9C",
"N#	c #E9D488",
"O#	c #E0CB7B",
"P#	c #D9C374",
"Q#	c #D0BB6F",
"R#	c #C7B36B",
"S#	c #A9985A",
"T#	c #8D7F4B",
"U#	c #F8F3E1",
"V#	c #F8F0D5",
"W#	c #E6D69F",
"X#	c #D6C896",
"Y#	c #D0C292",
"Z#	c #CEBE86",
"`#	c #C5B474",
" $	c #C2AF6A",
".$	c #BBA864",
"+$	c #BFB07B",
"@$	c #C5BA8F",
"#$	c #CFC08E",
"$$	c #9E8E54",
"%$	c #F0DC96",
"&$	c #F6EBC5",
"*$	c #FBF8EE",
"=$	c #FCFBF5",
"-$	c #FDFBF6",
";$	c #F9F4DE",
">$	c #F3EAC7",
",$	c #F1E6C1",
"'$	c #ECE2BE",
")$	c #EBE2C1",
"!$	c #DFD4AD",
"~$	c #BDAA64",
"{$	c #887C52",
"]$	c #F3E6B6",
"^$	c #E3D296",
"/$	c #F1E1A8",
"($	c #F4E7B9",
"_$	c #F2E4B1",
":$	c #EFDD9C",
"<$	c #E7D288",
"[$	c #DFC97A",
"}$	c #CCB76D",
"|$	c #C4B069",
"1$	c #A29565",
"2$	c #90855B",
"3$	c #F7EFD6",
"4$	c #F4EAC7",
"5$	c #E6D8AA",
"6$	c #D4C697",
"7$	c #D1C59C",
"8$	c #CEC190",
"9$	c #C4B275",
"0$	c #BDAA67",
"a$	c #B6A361",
"b$	c #AE9D5D",
"c$	c #C8BD9A",
"d$	c #D1C599",
"e$	c #998B52",
"f$	c #EBD792",
"g$	c #F1E5BA",
"h$	c #F9F5E6",
"i$	c #FCFAF4",
"j$	c #FBF9EE",
"k$	c #F9F6EA",
"l$	c #F5EED7",
"m$	c #ECE3C0",
"n$	c #EADFBC",
"o$	c #E8E0C3",
"p$	c #D2C492",
"q$	c #B8A462",
"r$	c #837646",
"s$	c #F0E6BE",
"t$	c #DFD099",
"u$	c #EDE0B1",
"v$	c #EEE2B3",
"w$	c #EBDCA7",
"x$	c #E6D597",
"y$	c #DDC982",
"z$	c #D3BF72",
"A$	c #CDB86D",
"B$	c #C9B46A",
"C$	c #BCAA65",
"D$	c #9F8F55",
"E$	c #72673C",
"F$	c #F6F1DE",
"G$	c #F1E9CB",
"H$	c #E6DCB9",
"I$	c #D4C9A3",
"J$	c #CCC19A",
"K$	c #C3B480",
"L$	c #B9A86C",
"M$	c #B2A060",
"N$	c #AC9B5C",
"O$	c #A59558",
"P$	c #BFB38B",
"Q$	c #CCBF92",
"R$	c #92824E",
"S$	c #897F58",
"T$	c #E4D39B",
"U$	c #F1EACE",
"V$	c #F8F6EB",
"W$	c #F8F5E9",
"X$	c #EFE7CC",
"Y$	c #EBE2C2",
"Z$	c #E7DEBC",
"`$	c #E7DEC1",
" %	c #D9D0A9",
".%	c #C4B57F",
"+%	c #A19056",
"@%	c #13110A",
"#%	c #29271E",
"$%	c #D1C185",
"%%	c #E0D198",
"&%	c #E0D2A0",
"*%	c #E0D19D",
"=%	c #DAC98F",
"-%	c #D0BC7A",
";%	c #C7B46C",
">%	c #C3B068",
",%	c #BEAA66",
"'%	c #A79759",
")%	c #3D361F",
"!%	c #050402",
"~%	c #030303",
"{%	c #454237",
"]%	c #9E9572",
"^%	c #AEA47F",
"/%	c #AA9E73",
"(%	c #928553",
"_%	c #847847",
":%	c #6B6242",
"<%	c #35301C",
"[%	c #282415",
"}%	c #020201",
"|%	c #2A2A2A",
"1%	c #838383",
"2%	c #767676",
"3%	c #242424",
"4%	c #191919",
"5%	c #161616",
"6%	c #626262",
"7%	c #707070",
"8%	c #1F1F1F",
"9%	c #050505",
"                                                                                                ",
"                                                                                                ",
"                                    . + @ # $ % & * =                                           ",
"                                - ; ; > ; , ' $ ) ! ~ { ] ^                                     ",
"                            / ( _ : : _ < [ , ' $ ) } | 1 2 3                                   ",
"                          4 < 5 6 7 8 9 _ [ 0 , a $ b c 2 d e f g                               ",
"                        h : i j k k 7 i < l ; 0 ' m ! n o p q r s t                             ",
"                      u v 9 j w x w y z < A l ; B a C D E F G H H I J                           ",
"                    K L z 7 k w w k 8 L : < ( ; M N O P Q R G S H S T                           ",
"                    v z 6 U k k k U 6 z v _ A [ V ' W X c Y Z S ` S  ...                        ",
"                  +.z 9 7 j U @.U #.8 9 z $.A %.; &.a *.c Y =.-.-.;.>.,.                        ",
"                  : z 9 8 j k w k j 8 6 i '.$.).!.V ~.O P o S {.].^./.(._.                      ",
"                :.: z 9 7 U w <.w U #.8 9 [.'.}.A |.V 1.2.3.4.5.6.].7.8.9.                      ",
"                0.: z 9 8 j k w k U j 7 8 9 a.L : }.b.c.d.e.f.g.6.h.i.j.k.                      ",
"                h : z 9 8 7 U @.k l.#.7 8 6 9 [.L : < %.m.n.o.p.q.q.r.8.s.J                     ",
"                t._ v z 9 7 7 l.U U #.#.y 7 8 u.v.z L w.x.y.z.A.B.q.C.D.E.J                     ",
"                ( < : L i 8 7 7 #.#.#.F.F.j <.8 <.z G.H.b.I.J.K.L.M.N.D.O.J                     ",
"                P.A Q.: L R.6 S.T.T.T.7 T.S.T.6 T.T.'.U.!.I.V.W.X.Y.Z.`. +J                     ",
"                .+l A < ++i 9 6 @+S.S.F.8 <.8 <.i #+'.$+x.%+&+*+=+-+;+>+,+J                     ",
"                '+; l ( < : '.R.)+!+~+9 R.i z z {+H.]+^+/+(+_+:+<+[+}+|+1+                      ",
"                2+0 > 3+4+5+_ 6+7+8+5 #+'.: H.9+0+a+b+c+d+e+f+g+h+i+}+j+k+                      ",
"                  /+, l+m+n+o+p+q+r+5+s+t+a+u+^+v+3+w+x+y+z+:+A+B+i+C+D+E+                      ",
"                  F+G+H+I+J+K+L+M+N+O+O+P+Q+R+S+d+T+U+V+W+X+Y+Z+`+ @.@+@J                       ",
"                  @@#@$@%@&@*@=@-@;@>@,@'@)@!@~@{@]@^@/@(@_@:@<@[@}@D+|@                        ",
"                    1@2@3@4@5@6@7@8@9@0@a@b@c@d@e@f@g@h@i@Z+<@`+j@k@l@J                         ",
"                      m@n@o@p@q@r@7@s@t@/@u@v@w@x@y@z@A@B@:@`+C@D@E@J                           ",
"                      F@G@H@H@I@J@K@L@M@N@O@/@P@Q@R@S@i@B@T@}@U@V@W@                            ",
"                        X@Y@Z@`@ #.#+#@###$#%#&#*#=#-#;#>#,#D@'#)#                              ",
"                            !#p ~#{#]#^#/#(#_#:#<#[#}#|#1#2#3#J                                 ",
"                              4#5#6#7#8#9#0#a#b#c#d#e#f#g#h#J                                   ",
"                                i#j#k#l#m#n#o#p#q#r#s#t#u#J                                     ",
"                                v#w#x#y#z#A#B#C#D#E#F#G#H#J                                     ",
"                                I#J#K#L#I#M#N#O#P#Q#R#S#T#J                                     ",
"                                U#V#W#X#Y#Z#`# $.$+$@$#$$$J                                     ",
"                                %$&$*$=$-$;$>$,$'$)$!$~${$J                                     ",
"                                ]$^$/$($_$:$<$[$P#}$|$1$2$J                                     ",
"                                3$4$5$6$7$8$9$0$a$b$c$d$e$J                                     ",
"                                f$g$h$i$j$k$l$m$n$o$p$q$r$J                                     ",
"                                s$t$u$v$w$x$y$z$A$B$C$D$E$J                                     ",
"                                F$G$H$I$J$K$L$M$N$O$P$Q$R$J                                     ",
"                                S$T$U$V$W$X$Y$Z$`$ %.%+%@%                                      ",
"                                #%$%%%&%*%=%-%;%>%,%'%)%!%                                      ",
"                                  ~%{%]%^%/%(%_%:%<%[%}%                                        ",
"                                      J |%1%2%3%4%J                                             ",
"                                        5%6%7%8%9%                                              ",
"                                            J J                                                 ",
"                                                                                                ",
"                                                                                                "};
