/* XPM */
static char *up_arrow[] = {
/* width height num_colors chars_per_pixel */
"    11    12        2            1",
/* colors */
". c None",
"# c #000000",
/* pixels */
"...........",
".....#.....",
"....###....",
"...##.##...",
"..##...##..",
".##..#..##.",
".#..###..#.",
"...##.##...",
"..##...##..",
".##.....##.",
".#.......#.",
"..........."
};
