/* XPM */
static const char * voip_select_xpm[] = {
"20 20 93 2",
"  	c #3F7BC3",
". 	c #407CC5",
"+ 	c #417DC4",
"@ 	c #417DC5",
"# 	c #417CC5",
"$ 	c #417CC4",
"% 	c #437EC6",
"& 	c #427EC6",
"* 	c #437FC6",
"= 	c #437FC5",
"- 	c #427FC6",
"; 	c #4580C7",
"> 	c #4480C7",
", 	c #4580C8",
"' 	c #4480C8",
") 	c #4781C9",
"! 	c #4682C8",
"~ 	c #4782C9",
"{ 	c #4682C9",
"] 	c #4983CA",
"^ 	c #4884CA",
"/ 	c #4983CB",
"( 	c #4984CB",
"_ 	c #4984CA",
": 	c #4883CA",
"< 	c #4B85CB",
"[ 	c #4A85CC",
"} 	c #4B85CC",
"| 	c #4A85CB",
"1 	c #4D87CE",
"2 	c #4D87CD",
"3 	c #4D86CD",
"4 	c #4C87CE",
"5 	c #4C87CD",
"6 	c #4C86CD",
"7 	c #4F88CF",
"8 	c #4E88CF",
"9 	c #4F89CF",
"0 	c #4E89CE",
"a 	c #4E88CE",
"b 	c #4F88CE",
"c 	c #4E89CF",
"d 	c #518AD0",
"e 	c #508AD0",
"f 	c #508AD1",
"g 	c #518AD1",
"h 	c #528CD2",
"i 	c #538CD1",
"j 	c #528BD2",
"k 	c #538CD2",
"l 	c #528CD1",
"m 	c #548ED3",
"n 	c #558DD3",
"o 	c #548DD3",
"p 	c #548DD4",
"q 	c #548ED4",
"r 	c #558ED4",
"s 	c #568FD4",
"t 	c #568FD5",
"u 	c #5690D4",
"v 	c #578FD5",
"w 	c #5891D6",
"x 	c #5891D7",
"y 	c #5890D6",
"z 	c #5A93D7",
"A 	c #5A92D7",
"B 	c #5A92D8",
"C 	c #5A93D8",
"D 	c #5C94D9",
"E 	c #5C95D9",
"F 	c #5B94D9",
"G 	c #5E95DA",
"H 	c #5D96DB",
"I 	c #5E95DB",
"J 	c #5D96DA",
"K 	c #5E96DA",
"L 	c #5D95DA",
"M 	c #5E96DB",
"N 	c #6098DC",
"O 	c #6097DC",
"P 	c #5F97DC",
"Q 	c #5F98DC",
"R 	c #6098DB",
"S 	c #6199DE",
"T 	c #6299DD",
"U 	c #6199DD",
"V 	c #6299DE",
"W 	c #629ADD",
"X 	c #649BDF",
"Y 	c #639ADE",
"Z 	c #649ADF",
"` 	c #639ADF",
" .	c #639BDF",
"                                        ",
". + + @ @ @ + @ @ + + # + @ . + $ @ + $ ",
"% % % & * % * = % % % % % % % % % * - % ",
"; ; ; > ; , ; ' ; > ; ; > , , ; ; ; , ' ",
") ! ~ { { ) ~ ~ ! ~ ~ ~ ~ { ~ ~ ~ ~ ) { ",
"] ^ ] / / ] ( _ ^ ] ^ ] ] ] ] ] / ^ : / ",
"< [ [ [ } < | } } } } | } [ [ } < | } [ ",
"1 2 1 3 3 2 4 4 4 2 1 5 5 6 4 6 5 6 2 2 ",
"7 8 9 8 0 a 7 b a 7 8 c 7 9 8 7 c 9 c 7 ",
"d e d e d e d f g e e f e d e e e d e g ",
"h i j j j j h h h k h h i k l k l l k k ",
"m n o o o o o p m o q m o o o m o m o r ",
"s t t t t t s u v s t s s t s t s t s t ",
"w x w y w w x w y w w w w w w y w w w w ",
"z z z A z z A z B z B B C B A C A z C C ",
"D E D E D D F D F D D E D D E D D D D F ",
"G H I J H K I K L K K M I I M M I M M G ",
"N O O P O P P O N Q N O O Q O P R N Q Q ",
"S T U U V U T V V U W V T V V T V S U V ",
"X Y Z X ` Z X X X X ` Z X Z X `  .` X X "};
