/* XPM */
static const char * voip_bg_xpm[] = {
"20 40 136 2",
"  	c #F6F3F0",
". 	c #F5F2EF",
"+ 	c #F6F2EF",
"@ 	c #F5F3EF",
"# 	c #F6F3EF",
"$ 	c #F5F3F0",
"% 	c #F6F2F0",
"& 	c #F5F2EE",
"* 	c #F5F1EE",
"= 	c #F4F1EE",
"- 	c #F4F2EE",
"; 	c #F5F1EF",
"> 	c #F4F0ED",
", 	c #F4F0EE",
"' 	c #F5F1ED",
") 	c #F4F1ED",
"! 	c #F5F0ED",
"~ 	c #F4F0EC",
"{ 	c #F3F0ED",
"] 	c #F3F1ED",
"^ 	c #F3EFEC",
"/ 	c #F3F0EC",
"( 	c #F3EFED",
"_ 	c #F4EFED",
": 	c #F4EFEC",
"< 	c #F3EFEB",
"[ 	c #F3F0EB",
"} 	c #F2EFEB",
"| 	c #F2EFEC",
"1 	c #F3EEEB",
"2 	c #F2EEEA",
"3 	c #F2EEEB",
"4 	c #F2EFEA",
"5 	c #F1EEEA",
"6 	c #F2EEE9",
"7 	c #F1EDEA",
"8 	c #F2EDEA",
"9 	c #F1EDE9",
"0 	c #F2EDE9",
"a 	c #F1ECE9",
"b 	c #F1ECE8",
"c 	c #F0EDE9",
"d 	c #F1EDE8",
"e 	c #F0ECE8",
"f 	c #F0EDE8",
"g 	c #F0ECE9",
"h 	c #F0ECE7",
"i 	c #F0EBE7",
"j 	c #EFEBE7",
"k 	c #F0EBE8",
"l 	c #F0EBE6",
"m 	c #EFEBE6",
"n 	c #F0EAE7",
"o 	c #F0EAE6",
"p 	c #EEEBE6",
"q 	c #EFEAE6",
"r 	c #EEEAE6",
"s 	c #EEE9E5",
"t 	c #EEEAE5",
"u 	c #EFE9E5",
"v 	c #EFE9E6",
"w 	c #EFEAE5",
"x 	c #EEE9E4",
"y 	c #EDE9E5",
"z 	c #EDE8E5",
"A 	c #EEE8E4",
"B 	c #EDE9E4",
"C 	c #EDE8E4",
"D 	c #EDE8E3",
"E 	c #EDE7E3",
"F 	c #ECE8E3",
"G 	c #ECE7E3",
"H 	c #ECE8E2",
"I 	c #ECE7E2",
"J 	c #EDE7E2",
"K 	c #ECE6E2",
"L 	c #EBE6E2",
"M 	c #EBE7E2",
"N 	c #ECE6E1",
"O 	c #ECE7E1",
"P 	c #EBE6E1",
"Q 	c #EBE7E1",
"R 	c #EBE5E1",
"S 	c #EBE5E0",
"T 	c #EBE6E0",
"U 	c #EAE5E1",
"V 	c #EAE5E0",
"W 	c #EAE4E0",
"X 	c #EAE5DF",
"Y 	c #EBE5DF",
"Z 	c #EAE4DF",
"` 	c #E9E4DF",
" .	c #E9E3DF",
"..	c #E9E3DE",
"+.	c #E9E4DE",
"@.	c #EAE3DE",
"#.	c #EAE3DF",
"$.	c #EAE4DE",
"%.	c #E9E3DD",
"&.	c #E8E3DE",
"*.	c #E8E2DD",
"=.	c #E8E2DE",
"-.	c #E8E3DD",
";.	c #E9E2DD",
">.	c #E8E2DC",
",.	c #E8E1DC",
"'.	c #E8E1DD",
").	c #E7E1DC",
"!.	c #E7E1DB",
"~.	c #E7E2DC",
"{.	c #E7E0DB",
"].	c #E7E0DC",
"^.	c #E8E1DB",
"/.	c #E8E0DB",
"(.	c #E6E0DA",
"_.	c #E7E0DA",
":.	c #E6E0DB",
"<.	c #E7E1DA",
"[.	c #E6DFDA",
"}.	c #E7DFDA",
"|.	c #E6DFD9",
"1.	c #E5DFD9",
"2.	c #E6E0D9",
"3.	c #E5DFDA",
"4.	c #E6DFD8",
"5.	c #E5DED8",
"6.	c #E5DED9",
"7.	c #E5DFD8",
"8.	c #E6DED9",
"9.	c #E4DED8",
"0.	c #E5DDD8",
"a.	c #E4DDD8",
"b.	c #E5DED7",
"c.	c #E5DDD7",
"d.	c #E4DDD7",
"e.	c #E4DED7",
"                                        ",
".   + @ # $ + $ . . . + + + $ # . # %   ",
". . . @ . + . . . . . . & . & . + . + + ",
"& & * = - & & - - ; = - & & ; & * - & ; ",
"= = > = = , = * ' * * ) ) > = ) = = ! = ",
"> ~ > ) > { > ) > ) > ) { ] > > > > ) ) ",
"> ^ / / ( _ : ~ / ( ~ ^ ~ / / / ~ _ / / ",
"< / < < < ^ ^ [ } / ^ < ^ < } ^ | / < ^ ",
"} < < } } < } 1 < | < } } < } 1 } 1 < } ",
"2 2 3 3 4 2 2 4 2 } 4 2 3 3 3 3 } 2 2 2 ",
"2 2 5 6 7 2 2 8 5 2 8 7 8 7 2 2 2 5 8 7 ",
"9 9 9 9 9 9 9 7 7 9 0 7 9 9 0 9 9 7 9 7 ",
"a b a c d e a e f b 9 b b b d a b g a a ",
"b e e e e e e e b e e e h e e e b e e e ",
"h h i i e j h k i h j k i j k k h h k i ",
"l i j j m j i m i j i n i o j j o i j m ",
"p q q q m m r q q r r q r q q m r q m q ",
"q s q t u t t v t w u s r v w w t t t s ",
"s s x t x s s s y x s s s x s s s s s t ",
"y z A A B C y x B C B B x C x B x B x x ",
"C C D D C C C D D D D D C C C C C C D D ",
"D E F G F G D G E F E F E F H G F G D G ",
"I I G I G J K G I G K I K K I I K G I I ",
"L M N M K L O I P L K I P N N K Q K K K ",
"P P P R R P P P P P N P R P R P P N P P ",
"R S T S T U S S S P T S S R R S P R U R ",
"V W V V W V X V X W Y V Y Z V V V V S V ",
"` Z Z Z Z ` Z Z X Z Z ` Z W Z Z W W Z Z ",
" ... .` Z ..+. .@.` ..` +.+.#.+.#.+.$.+.",
"......................%...&.&.%...%.....",
"*.=.&.-.-.;.*.%.%.*.;.&.%.;.;.=.=.-.-.;.",
">.*.>.*.*.,.*.'.*.>.>.,.>.*.>.>.>.'.>.*.",
").,.,.!.>.).,.~.).).).>.,.!.,.~.).).>.~.",
"!.{.!.).).].).{.!.).^.).).{./.).!.!.).{.",
"{.(.{.(._.{.{.{.!.{.{.:.!.{._.(.<.!.{.(.",
"(.(.[.(.(.(.(.[.[.}.[.(.(.[.[.(.[.(.}.(.",
"|.1.(.|.|.|.[.2.3.1.|.|.[.[.1.1.|.|.3.2.",
"4.1.|.5.6.|.7.1.7.6.1.|.6.6.8.1.|.6.7.6.",
"9.5.0.9.5.5.5.5.5.6.5.5.9.5.6.5.9.5.5.9.",
"a.a.9.b.a.c.a.b.d.9.a.0.e.a.9.d.0.9.d.e."};
