/* XPM */
static const char * WiresharkDoc_24_xpm[] = {
/* columns rows colors chars-per-pixel */
"24 24 91 1 ",
"  c #24A1D5",
". c #119CE0",
"X c #1A9FE2",
"o c #25A3E3",
"O c #2CA5E3",
"+ c #31A7E3",
"@ c #35A8E3",
"# c #3AABE2",
"$ c #53AFDC",
"% c #5FB0D4",
"& c #53B1DD",
"* c #6AB7D5",
"= c #62B5DD",
"- c #69B7DD",
"; c #6FB9DC",
": c #76BFD7",
"> c #43AEE3",
", c #44B0E5",
"< c #4CB2E4",
"1 c #54B3E3",
"2 c #58B5E3",
"3 c #5DB8E5",
"4 c #53B6E8",
"5 c #59B9EA",
"6 c #62BAE4",
"7 c #6CBDE5",
"8 c #6EC0E6",
"9 c #76C1E5",
"0 c #7FC5E6",
"q c #A4A4A2",
"w c #ACACA6",
"e c #ADADAB",
"r c #B3B3AD",
"t c #B3B3B0",
"y c #BABAB4",
"u c #BCBCB9",
"i c #C1BFB4",
"p c #C1C1B5",
"a c #C3C3BD",
"s c #86C0CC",
"d c #80C0DE",
"f c #99C7D1",
"g c #98C9D1",
"h c #A3C6CC",
"j c #B3CED3",
"k c #A6D4DB",
"l c #82C8EC",
"z c #8DCDEC",
"x c #90CEEB",
"c c #BDDBE4",
"v c #A9DBF0",
"b c #C3C3C0",
"n c #CACAC4",
"m c #CECECA",
"M c #CED6CE",
"N c #D2D2C1",
"B c #D2D2CC",
"V c #DBDCCC",
"C c #D7D7D4",
"Z c #DDDDD5",
"A c #DCDCD9",
"S c #DFE2D7",
"D c #E5E5D5",
"F c #EAEAD6",
"G c #E4E4DD",
"H c #EBEBDC",
"J c #F1EFDE",
"K c #F2F2DD",
"L c #C2DEE7",
"P c #C8DCE2",
"I c #C7E0E6",
"U c #CBE2E8",
"Y c #C3E5F5",
"T c #CDE8F6",
"R c #D9EEFA",
"E c #E7E7E1",
"W c #ECECE4",
"Q c #EEEEEB",
"! c #F1EFE7",
"~ c #F4F3E4",
"^ c #F9F7E3",
"/ c #FBFBE5",
"( c #F5F5EC",
") c #FEFEEB",
"_ c #E8F5F8",
"` c #F6F6F2",
"' c #F8F7F6",
"] c #FEFEF3",
"[ c #F5FDFF",
"{ c #FDFEFC",
"} c None",
/* pixels */
"}}}PUUUPLLccLccj}}}}}}}}",
"}}}$<>>#O<5OXX. f}}}}}}}",
"}}}=62<<lYR4OOo#g~}}}}}}",
"}}}-632zT{Y>++O,k{)}}}}}",
"}}};767T{{v##@O,sMSV}}}}",
"}}}:l9z_{{Y34<<,$=*:h}}}",
"}}}`{{{{{{{{{[[[[[[[W}}}",
"}}}'{{{{{{']{{{{{{{{W}}}",
"}}}'{{`CWQA(`CEQEQ{{!}}}",
"}}}`{'bqCneQmqBBeA'{Q}}}",
"}}}'](mmmQtQmmn'uC'{W}}}",
"}}}']'nuECeQmuEAeB'{~}}}",
"}}}`]]]Q](G('W]`HG'{~}}}",
"}}}(]]ZuEZn(An(Eum({W}}}",
"}}}(](arBSqHGy~ntrW{W}}}",
"}}}(]~maBGqDHyWmprW]W}}}",
"}}}())Gm/ZaHDb~EnD(]H}}}",
"}}}()])D^)F//D^)HG)]H}}}",
"}}}())aqVBwKBrKBrV)]H}}}",
"}}}))~maaKwF^yF^yN/]H}}}",
"}}}()/nyFBwDZwDZra/)F}}}",
"}}}^))/K)KFKJF/KFH/)F}}}",
"}}})))))/))/)/))))))H}}}",
"}}}ppppppppppppppppa}}}}",
};
