/* XPM */
static char *wsicon48_xpm[] = {
/* width height num_colors chars_per_pixel */
"    48    48      256            2",
/* colors */
"`` c #040204",
"`. c #145e7c",
"`# c #248ab4",
"`a c #147aa4",
"`b c #0c3244",
"`c c #34a2d4",
"`d c #146a8c",
"`e c #144a5c",
"`f c #1c82ac",
"`g c #041a24",
"`h c #2c96c4",
"`i c #24769c",
"`j c #246e8c",
"`k c #14567c",
"`l c #246684",
"`m c #2492c4",
"`n c #0c3e54",
"`o c #14729c",
"`p c #0c262c",
"`q c #14668c",
"`r c #1c7ea4",
"`s c #3caee4",
"`t c #040e14",
"`u c #2c8ab4",
"`v c #1c6a8c",
"`w c #2c9ecc",
"`x c #1c769c",
"`y c #3caadc",
"`z c #14526c",
"`A c #1c566c",
"`B c #14465c",
"`C c #1c5e7c",
"`D c #2482ac",
"`E c #247ea4",
"`F c #143e4c",
"`G c #0c2e3c",
"`H c #040a0c",
"`I c #248ec4",
"`J c #3ca6dc",
"`K c #146e9c",
"`L c #1c4a64",
"`M c #0c222c",
"`N c #349acc",
"`O c #0c2a3c",
"`P c #1c7aac",
"`Q c #1c5a7c",
"`R c #14425c",
"`S c #040604",
"`T c #14628c",
"`U c #248ebc",
"`V c #0c3a4c",
"`W c #34a6d4",
"`X c #146e94",
"`Y c #1c86b4",
"`Z c #0c1a24",
"`0 c #2c9acc",
"`1 c #247294",
"`2 c #0c2a34",
"`3 c #1c6684",
"`4 c #04161c",
"`5 c #2c8ebc",
"`6 c #1c6e94",
"`7 c #349ecc",
"`8 c #1c7aa4",
".` c #1c5a74",
".. c #2c7ea4",
".# c #144254",
".a c #146284",
".b c #248abc",
".c c #147aac",
".d c #146a94",
".e c #144a64",
".f c #1c82b4",
".g c #2c96cc",
".h c #247aa4",
".i c #246e94",
".j c #145a7c",
".k c #2c92c4",
".l c #1c729c",
".m c #0c2634",
".n c #1c7eac",
".o c #3cb2e4",
".p c #04121c",
".q c #2c8abc",
".r c #1c6a94",
".s c #1c76a4",
".t c #3caae4",
".u c #1c526c",
".v c #1c5674",
".w c #1c6284",
".x c #2486b4",
".y c #247eac",
".z c #143e54",
".A c #1c4e64",
".B c #04060c",
".C c #0c3a54",
".D c #34a6dc",
".E c #0c1e24",
".F c #1c668c",
".G c #349ed4",
".H c #000000",
".I c #000000",
".J c #000000",
".K c #000000",
".L c #000000",
".M c #000000",
".N c #000000",
".O c #000000",
".P c #000000",
".Q c #000000",
".R c #000000",
".S c #000000",
".T c #000000",
".U c #000000",
".V c #000000",
".W c #000000",
".X c #000000",
".Y c #000000",
".Z c #000000",
".0 c #000000",
".1 c #000000",
".2 c #000000",
".3 c #000000",
".4 c #000000",
".5 c #000000",
".6 c #000000",
".7 c #000000",
".8 c #000000",
"#` c #000000",
"#. c #000000",
"## c #000000",
"#a c #000000",
"#b c #000000",
"#c c #000000",
"#d c #000000",
"#e c #000000",
"#f c #000000",
"#g c #000000",
"#h c #000000",
"#i c #000000",
"#j c #000000",
"#k c #000000",
"#l c #000000",
"#m c #000000",
"#n c #000000",
"#o c #000000",
"#p c #000000",
"#q c #000000",
"#r c #000000",
"#s c #000000",
"#t c #000000",
"#u c #000000",
"#v c #000000",
"#w c #000000",
"#x c #000000",
"#y c #000000",
"#z c #000000",
"#A c #000000",
"#B c #000000",
"#C c #000000",
"#D c #000000",
"#E c #000000",
"#F c #000000",
"#G c #000000",
"#H c #000000",
"#I c #000000",
"#J c #000000",
"#K c #000000",
"#L c #000000",
"#M c #000000",
"#N c #000000",
"#O c #000000",
"#P c #000000",
"#Q c #000000",
"#R c #000000",
"#S c #000000",
"#T c #000000",
"#U c #000000",
"#V c #000000",
"#W c #000000",
"#X c #000000",
"#Y c #000000",
"#Z c #000000",
"#0 c #000000",
"#1 c #000000",
"#2 c #000000",
"#3 c #000000",
"#4 c #000000",
"#5 c #000000",
"#6 c #000000",
"#7 c #000000",
"#8 c #000000",
"a` c #000000",
"a. c #000000",
"a# c #000000",
"aa c #000000",
"ab c #000000",
"ac c #000000",
"ad c #000000",
"ae c #000000",
"af c #000000",
"ag c #000000",
"ah c #000000",
"ai c #000000",
"aj c #000000",
"ak c #000000",
"al c #000000",
"am c #000000",
"an c #000000",
"ao c #000000",
"ap c #000000",
"aq c #000000",
"ar c #000000",
"as c #000000",
"at c #000000",
"au c #000000",
"av c #000000",
"aw c #000000",
"ax c #000000",
"ay c #000000",
"az c #000000",
"aA c #000000",
"aB c #000000",
"aC c #000000",
"aD c #000000",
"aE c #000000",
"aF c #000000",
"aG c #000000",
"aH c #000000",
"aI c #000000",
"aJ c #000000",
"aK c #000000",
"aL c #000000",
"aM c #000000",
"aN c #000000",
"aO c #000000",
"aP c #000000",
"aQ c #000000",
"aR c #000000",
"aS c #000000",
"aT c #000000",
"aU c #000000",
"aV c #000000",
"aW c #000000",
"aX c #000000",
"aY c #000000",
"aZ c #000000",
"a0 c #000000",
"a1 c #000000",
"a2 c #000000",
"a3 c #000000",
"a4 c #000000",
"a5 c #000000",
"a6 c #000000",
"a7 c #000000",
"a8 c #000000",
/* pixels */
"````````````````````````````````````````````````````````````````````````````````````````````````",
"````````````````````````````````````````````````````````````````````````````````````````````````",
"```````H`n`.`T`q`q`q`q`d`d`d.r.r.r.r.r.r.r.r.r.r.r.r`d`d`d`q`q`q`q`T.a.a.a.a.a.a.a.a`.`n`H``````",
"`````H.a.c.c.n.n.n`f.f.f`Y`Y`Y`Y.x.x.x.x.x.x.x.x`Y`Y`Y`Y.f.f`f.n.n.n.c.c`a`a`a`a`a`a`a`a`T`H````",
"````.C.c.c.n.n`f.f.f`Y`Y`Y.x.x.b.b.b.b.b.b.b.b.b.b.x.x`Y`Y`Y.f.f`f.n.n`P.c`a`a`a`a`a`a`a`a`n````",
"````.j.c.n.n`f.f.f`Y`Y.x.b.b.b.b.b.b`U`U`U`U.b.b.b.b.b.b.x`Y`Y.f.f`f.n.n`P.c`a`a`a`a`a`a`a`.````",
"````.a.n.n`f.f.f`Y.x`#.b.b.b`U`U`U`U`U`U`U`U`U`U`U`U.b.b.b.b.x`Y`Y.f`f.n.n.c.c`a`a`a`a`a`a.a````",
"`````T.n`f.f`Y`Y.x.b.b.b`U`U`U`I`m`m`m`m`m`m`m`m`I`U`U`U.b.b.b.x`Y`Y.f`f.n.n.c`a`a`a`a`a`a.a````",
"`````q`f.f.f`Y.x.b.b`U`U`U`I`m.k.k.k.k.k.k.k.k.k.k`m`I`U`U`U.b.b.x`Y`Y.f`f.n.n.c`a`a`a`a`a.a````",
"`````q.f.f`Y.x.b.b`U`U`I`m.k.k.k`h`h`h`h`h`h`h`h`h.k.k`m`I`U`U.b.b.x`Y.f.f.n.n`P.c`a`a`a`a.a````",
"`````q.f`Y.x.b.b`U`U`I.b.e`B`z.w.h.k.g`0`0`0.g.g`h`h`h.k`m`I`U`U.b.b.x`Y.f.f.n.n.c`a`a`a`a.a````",
"`````d`Y`Y.b.b`U`U`I.k.w``````````.B.m`A`u`0`0`0`0.g`h`h.k.k`I`U`U.b.b.x`Y.f`f.n.n.c`a`a`a.a````",
"`````d`Y.x.b.b`U`I`m.k.b`H```g.m`t`````````b.h`0`0`0`0.g`h.k.k`I`U.b.b.x`Y.f.f.n.n.c`a`a`a.a````",
"`````v`Y.b.b`U`U`m.k`h`h.v```Z`0`7`u`C`O`S````.z`5`0`0`0.g`h.k`m`U`U.b.b.x`Y.f`f.n`P`a`a`a.a````",
"````.r.x.b.b`U`I.k`h`h.g.k`t```i.G`c`c`c`u.#`S```t`j`0`0`0`h`h.k`m`U`U.b.x`Y.f.f.n.n.c`a`a.a````",
"````.r.b.b`U`U`m.k`h.g`0`0`R``.z`c`c`c`W`W`c..`M```S.v`0`0.g`h.k`m`U`U.b.b`Y`Y.f.n.n.c`a`a.a````",
"````.r.b.b`U`I.k`h`h`0`0`7`i```4`c.D.D.D.D.D.D.G`B`````e`0`0.g`h.k`m`U.b.b.x`Y.f`f.n.c`a`a.a````",
"`````6.b.b`U`m.k`h.g`0`0.G`N`H```5.D`y`y`y`y`J.D`c`C````.v`0.g`h.k`m`U`U.b.x`Y.f`f.n`P`a`a.a````",
"`````6.b`U`U`m.k`h`0`0`7.G`c`p```1`y`y`y`y`y`y`J.D`c`Q````.F`0`h.k`m`U`U.b`#`Y.f`f.n.n.c`a.a````",
"`````6.b`U`U.k.k`h`0`0`7.G`c.z``.``y`s`s`s`s`y`y.D`W`c.e```H.x.g`h.k`I`U.b.b`Y.f.f.n.n.c`a.a````",
"`````6.b`U`I.k`h.g`0`0.G.G`c.A```L`y`s`s`s`s.t`y`J.D`c`7.m```2`h`h.k`I`U.b.b`Y.f.f.n.n.c`a.a````",
"`````6.b`U`I.k`h.g`0`0.G`c`c.```.z.t`s.o.o`s`s`y`J.D`c`c`u`H``.w`h.k`I`U.b.b`Y.f.f.n.n.c`a.a````",
"`````6.b`U`I.k`h`h`0`0`7.G`c`C```F`y`s`s`s`s`y`y.D.D`c`c.G.u```4`5.k`I`U.b.b`Y.f.f.n.n.c`a.a````",
"`````6.b`U`U`m.k`h`0`0`7.G`c`C``.z`y`y`s`s`y`y`y.D`W`c.G`7`h.p``.v.k`I`U.b.b`Y.f.f.n.n.c`a.a````",
"`````6.b`U`U`m.k`h.g`0`7.G`c.u```B`y`y`y`y`y`y.D.D`c`c.G`7`0.````4`U`U`U.b.x`Y.f`f.n.n.c`a.a````",
"`````6.b.b`U`m.k`h.g`0`0`7.G`R``.u.D`J`J`J`J.D.D`c`c.G.G`0`0.k`t```3`U`U.b.x`Y.f`f.n`P`a`a.a````",
"````.r.b.b`U`I.k.k`h`0`0`w.G`G```l`W.D.D.D.D`W`c`c`c.G`7`0`0`h`B```G`U.b.b.x`Y.f.n.n.c`a`a.a````",
"````.r.x.b`U`U`m.k`h.g`0`0`0`4```E`c`c`c`c`c`c`c.G.G`7`0`0.g`h.h``.B`D.b.b`Y.f.f.n.n.c`a`a.a````",
"````.r.x.b.b`U`I.k.k`h.g`0.q``.B`h.G`c`c`c`c`c.G.G`7`0`0.g`h.k`m`g``.w.b.x`Y.f`f.n.n.c`a`a.a````",
"`````v`Y.b.b`U`U`m.k`h`h.g.i``.E`N.G.G.G.G.G.G`7`0`0`0.g`h`h.k`m.z```V.b`Y`Y.f.n.n.c`a`a`a.a````",
"`````d`Y.x.b.b`U`U`m.k`h`h`B``.z`0`0`0`w`w`0`0`0`0`0.g`h`h.k`m`U.F```4.x`Y.f.f.n.n.c`a`a`a.a````",
"`````q.f`Y.x.b.b`U`U`m.k.k`g``.F`0`0`0`0`0`0`0`0.g.g`h`h.k`m`I`U`D`H``.s`Y.f.n.n`P`a`a`a`a.a````",
"`````q.f`Y`Y.b.b.b`U`U`m.h```H`#`h.g.g.g.g.g.g`h`h`h.k.k`m`I`U`U.b`g```..f`f.n.n.c`a`a`a`a.a````",
"````.j.l`x.s`8`8`r.y.y`D.#```G.k.k`h`h`h`h`h`h.k.k.k`m`m`U`U.b.b.b`b```n`x.l`o`K`X`X`X`X`X`k````",
"```````S`S`S`S`S`S`S`S`S````.w`m.k.k.k.k.k.k.k.k`m`m`U`U`U.b.b.b.x`B`````S`S`S`S````````````````",
"```````````````````````````M`#`U`I`I`m`m`m`m`I`I`U`U`U.b.b.b.b.x`Y.d`H``````````````````````````",
"````.a.n.n`f.f.f`Y`Y.x.b.b.b.b`U`U`U`U`U`U`U`U`U`U.b.b.b.b.x`Y`Y.f.f`f.n.n.c`a`a`a`a`a`a`a.a````",
"````.a.c.n.n.n.f.f`Y`Y`Y.x.b.b.b.b.b.b.b.b.b.b.b.b.b.b.x.x`Y`Y.f.f`f.n.n.c`a`a`a`a`a`a`a`a.a````",
"````.a`a.c.n.n.n`f.f.f`Y`Y`Y.x.x.b.b.b.b.b.b.b.b.x.x`Y`Y`Y.f.f.f.n.n.n.c`a`a`a`a`a`a`a`a`a.a````",
"````.a`a`a.c.n.n.n`f.f.f.f`Y`Y`Y`Y`Y.x.x.x.x`Y`Y`Y`Y`Y.f.f.f`f.n.n.n.c`a`a`a`a`a`a`a`a`a`a.a````",
"````.a`a`a`a.c.c.n.n.n`f.f.f.f.f.f`Y`Y`Y`Y`Y`Y.f.f.f.f.f`f.n.n.n.c.c`a`a`a`a`a`a`a`a`a`a`a.a````",
"````.a`a`a`a`a`a.c`P.n.n.n.n`f`f.f.f.f.f.f.f.f.f`f`f.n.n.n.n.n.c.c`a`a`a`a`a`a`a`a`a`a`a`a.a````",
"````.j`a`a`a`a`a`a.c.c`P.n.n.n.n.n.n.n.n.n.n.n.n.n.n.n.n`P.c.c`a`a`a`a`a`a`a`a`a`a`a`a`a`a`.````",
"````.C`a`a`a`a`a`a`a`a`a.c.c.c.n.n.n.n.n.n.n.n.n.n`P.c.c`a`a`a`a`a`a`a`a`a`a`a`a`a`a`a`a`a`n````",
"`````H.a`a`a`a`a`a`a`a`a`a`a`a.c.c.c.c.c.c.c.c.c.c`a`a`a`a`a`a`a`a`a`a`a`a`a`a`a`a`a`a`a`T`H````",
"```````H`n.j.a.a.a.a.a.a.a.a.a.a.a.a.a.a.a.a.a.a.a.a.a.a.a.a.a.a.a.a.a.a.a.a.a.a.a.a`.`n`H``````",
"````````````````````````````````````````````````````````````````````````````````````````````````",
"````````````````````````````````````````````````````````````````````````````````````````````````"
};
