/* XPM */
static char *wsicon32_xpm[] = {
/* width height num_colors chars_per_pixel */
"    32    32      256            2",
/* colors */
"`` c #000000",
"`. c #030e13",
"`# c #0a384e",
"`a c #0c415a",
"`b c #0d435b",
"`c c #0e435c",
"`d c #0e445d",
"`e c #0f455e",
"`f c #10465f",
"`g c #104660",
"`h c #104760",
"`i c #0f465f",
"`j c #0d425b",
"`k c #0c4059",
"`l c #0a394e",
"`m c #030e14",
"`n c #020e13",
"`o c #146f99",
"`p c #177ba9",
"`q c #197dac",
"`r c #1a7fae",
"`s c #1c81b0",
"`t c #1d83b2",
"`u c #1e84b4",
"`v c #1f85b5",
"`w c #2086b6",
"`x c #2087b7",
"`y c #2188b7",
"`z c #2188b8",
"`A c #1e84b3",
"`B c #1d82b2",
"`C c #1a7fad",
"`D c #197dab",
"`E c #177aa9",
"`F c #1679a7",
"`G c #0a384d",
"`H c #1b80af",
"`I c #1d82b1",
"`J c #1f86b6",
"`K c #2187b7",
"`L c #2289b9",
"`M c #228aba",
"`N c #238bbb",
"`O c #238bbc",
"`P c #2189b9",
"`Q c #1c82b1",
"`R c #1b7fae",
"`S c #1f85b4",
"`T c #248cbd",
"`U c #258dbe",
"`V c #258ebf",
"`W c #268fbf",
"`X c #268fc0",
"`Y c #248cbc",
"`Z c #238abb",
"`0 c #2087b6",
"`1 c #1b80ae",
"`2 c #177aa8",
"`3 c #2690c0",
"`4 c #2791c2",
"`5 c #2892c3",
"`6 c #2992c4",
"`7 c #2791c1",
"`8 c #1e85b4",
".` c #187cab",
".. c #167aa8",
".# c #238aba",
".a c #248dbd",
".b c #268cbc",
".c c #2890c0",
".d c #2a94c5",
".e c #2b95c7",
".f c #2b96c7",
".g c #2b96c8",
".h c #2a95c6",
".i c #2790c1",
".j c #268ebf",
".k c #1a7ead",
".l c #187baa",
".m c #0f455d",
".n c #2179a2",
".o c #010507",
".p c #05131a",
".q c #0d2d3c",
".r c #19536f",
".s c #2885b0",
".t c #2e99cb",
".u c #2d98ca",
".v c #2c97c9",
".w c #2993c5",
".x c #2891c2",
".y c #10455e",
".z c #1f86b5",
".A c #2990c0",
".B c #051319",
".C c #06131a",
".D c #164a61",
".E c #0e2d3b",
".F c #03080b",
".G c #000101",
".H c #0d2c3a",
".I c #267ca5",
".J c #2e9acc",
".K c #177baa",
".L c #258ebe",
".M c #2c97c8",
".N c #1c5d7c",
".O c #010304",
".P c #2b8ab7",
".Q c #329fd2",
".R c #319acb",
".S c #216889",
".T c #0a1e28",
".U c #16475e",
".V c #2e97c8",
".W c #2d99cb",
".X c #2993c4",
".Y c #258dbd",
".Z c #1679a8",
".0 c #114760",
".1 c #2d94c4",
".2 c #1c5874",
".3 c #35a3d6",
".4 c #35a4d7",
".5 c #36a4d8",
".6 c #34a0d3",
".7 c #1d5b77",
".8 c #020607",
"#` c #0c2836",
"#. c #2b90be",
"## c #114761",
"#a c #2e9acd",
"#b c #319ed0",
"#c c #0f303f",
"#d c #0f2e3d",
"#e c #37a6d9",
"#f c #38a7db",
"#g c #38a8dc",
"#h c #36a5d9",
"#i c #297ea5",
"#j c #040e12",
"#k c #0b232e",
"#l c #2c93c3",
"#m c #2790c0",
"#n c #114861",
"#o c #2f9cce",
"#p c #1a526c",
"#q c #061117",
"#r c #38a7da",
"#s c #3aabdf",
"#t c #3babe0",
"#u c #3aaade",
"#v c #36a5d8",
"#w c #2a82ab",
"#x c #030a0d",
"#y c #0f3344",
"#z c #309ccf",
"#A c #33a0d3",
"#B c #226889",
"#C c #010203",
"#D c #38a4d6",
"#E c #3cade2",
"#F c #3dafe3",
"#G c #3cade1",
"#H c #3aa9dd",
"#I c #37a6da",
"#J c #226e91",
"#K c #000102",
"#L c #1b5e7d",
"#M c #2a94c6",
"#N c #187caa",
"#O c #257397",
"#P c #359ccb",
"#Q c #3daee3",
"#R c #3eb0e5",
"#S c #123c4f",
"#T c #040d11",
"#U c #278ab8",
"#V c #2d99ca",
"#W c #309cce",
"#X c #32a0d2",
"#Y c #257398",
"#Z c #349ac9",
"#0 c #3bace0",
"#1 c #39a9dd",
"#2 c #37a5d9",
"#3 c #34a2d5",
"#4 c #329fd1",
"#5 c #2b8dbb",
"#6 c #02080b",
"#7 c #13465d",
"#8 c #2c98ca",
"a` c #2f9bcd",
"a. c #319ed1",
"a# c #226a8b",
"aa c #359fd1",
"ab c #39a8dc",
"ac c #33a1d4",
"ad c #15475f",
"ae c #030a0e",
"af c #2588b6",
"ag c #309dcf",
"ah c #1b5773",
"ai c #040c10",
"aj c #35a2d4",
"ak c #34a1d4",
"al c #2685b1",
"am c #175775",
"an c #197eac",
"ao c #2c98c9",
"ap c #123b4e",
"aq c #0b222d",
"ar c #0b2836",
"as c #0a2633",
"at c #2d98c9",
"au c #081b24",
"av c #144156",
"aw c #319dd0",
"ax c #16526e",
"ay c #010607",
"az c #2082b0",
"aA c #2787b4",
"aB c #1d6283",
"aC c #1f78a1",
"aD c #176081",
"aE c #2189b8",
"aF c #195b79",
"aG c #2788b5",
"aH c #2c96c8",
"aI c #2389b9",
"aJ c #0f425a",
"aK c #082938",
"aL c #114f6c",
"aM c #12516e",
"aN c #145370",
"aO c #155472",
"aP c #165674",
"aQ c #081d27",
"aR c #0a2734",
"aS c #092431",
"aT c #061c27",
"aU c #0f4d69",
"aV c #0e4b67",
"aW c #0d4a66",
"aX c #072837",
"aY c #000001",
"aZ c #196182",
"a0 c #0f435b",
"a1 c #1d83b3",
"a2 c #0c4058",
"a3 c #1b81b0",
"a4 c #187dab",
"a5 c #146e98",
"a6 c #000000",
"a7 c #000000",
"a8 c #000000",
/* pixels */
"````````````````````````````````````````````````````````````````",
"`````.`#`a`b`c`d`e`f`g`h`h`h`h`h`g`i`e`d`c`j`a`k`k`k`k`k`l`m````",
"```n`o`p`q`r`s`t`u`v`w`x`y`z`y`x`w`v`A`B`s`C`D`E`F`F`F`F`F`o`m``",
"```G`p`q`H`I`u`J`K`L`M`N`N`O`N`N`M`P`x`v`A`Q`R`q`E`F`F`F`F`F`#``",
"```a`q`H`t`S`x`L`N`T`U`V`W`X`W`V`U`Y`Z`P`0`u`I`1`D`2`F`F`F`F`k``",
"```j`H`t`v`z`M`Y`V`3`4`5`5`6`5`5`7`X`U`Y`L`x`8`Q`r.`..`F`F`F`k``",
"```c`Q`S`y.#.a`X.b.c.d.e.f.g.f.h.d`6.i.j`Y`M`x`u`s.k.l`F`F`F`k``",
"``.m`A`x`M.a`X.n.o.o.p.q.r.s.t.u.v.e.w.x`W`Y`L`w`t`H`D`2`F`F`k``",
"``.y.z`L`Y`X`5.A.B.C.D.E.F.G.H.I.J.u.g.d.x`V`N`z`S`Q.k.K`F`F`k``",
"```f`x`N.L`4.d.M.N.O.P.Q.R.S.T.O.U.V.W.g.X.i.Y`M`w`t`H.`.Z`F`k``",
"``.0`P`Y`X`6.f.W.1.F.2.3.4.5.6.7.8#`#..u.h`5.j`N`z`u`s`q`2`F`k``",
"``##`M.Y.i.d.v#a#b#c#d#e#f#g#f#h#i#j#k#l.g.X#m`T`P`v`Q.k`p`F`k``",
"``#n.#.L.x.h.u#o.Q#p#q#r#s#t#u#g#v#w#x#y.v.d.i.Y`L.z`B`r.l`F`k``",
"``#n`N`V`5.e.W#z#A#B#C#D#E#F#G#H#I.3#J#K#L#M`4`U`M`w`t`r#N`F`k``",
"``#n`N.j`5.e.W#z#A#O``#P#Q#R#E#u#I.3.Q#S#T#U.x`U`M`w`t`r#N`F`k``",
"``#n`Z`V`5.e#V#W#X#Y``#Z#0#G#t#1#2#3#4#5#6#7`4`U`M`J`t`r.l`F`k``",
"``##`M`U`4#M#8a`a.a#.Gaa#1#1ab#I.4ac#b.Jadaeaf.a`L.z`I`C`p`F`k``",
"``.0`L`T.i.X.g.Jagahaiaj#2#e#h.4ak#4#o.Wal.Oam`Y`z`8`san`E`F`k``",
"```g`z`N.j`5.hao.Japaqac#3#3#3#A#4#z.J.v.daras`Z`x`A`H`D..`F`k``",
"```f`w`M.a.i.X.eatauav#ba.#4a.aw#o.J.v.h`5axayaz.z`B`r#N`F`F`k``",
"```e`8`z`N.L.i.XaA#CaB.Ja`a`a`.J.u.M.h`5#maC.GaD`A`san`E`F`F`k``",
"```d`t.zaE`O.L.iaF.OaG.M.v.v.vaH.e.d`5`3`UaI`.aJ`I`r#N`F`F`F`k``",
"``aKaLaMaNaOaPamaQaR`5.w.d.d.d.X`5`4`X.a`N`zaSaTaLaUaVaWaWaWaX``",
"````aYaYaYaYaYaY.OaZ`X.i.i.i.i#m`W`U`Y`M`z`va0.GaYaYaYaYaYaY````",
"```k.``C`sa1`v`x`L`Z`O`T.a.Y.a`Y`N`M`P`x`S`t`H.k.l`F`F`F`F`F`k``",
"``a2..#N.k`H`B`u.z`x`z`P`L`L`L`P`z`0`v`A`Q`Han.l.Z`F`F`F`F`F`k``",
"``a2`F...lan`R`s`B`A`8`v.z.z.z`v`ua1`Ia3`r`q`p`F`F`F`F`F`F`F`k``",
"``a2`F`F`F`E.`an`r`H`s`Q`I`I`I`Q`s`H`r`q#N`2`F`F`F`F`F`F`F`F`k``",
"```G`F`F`F`F.Z`E#N`Dan.k.k`C.k.k`qa4.l`2`F`F`F`F`F`F`F`F`F`F`#``",
"```na5`F`F`F`F`F`F..`2`p`p`p`p`E`2.Z`F`F`F`F`F`F`F`F`F`F`F`o`m``",
"`````.`#`k`k`k`k`k`k`k`k`k`k`k`k`k`k`k`k`k`k`k`k`k`k`k`k`l`m````",
"````````````````````````````````````````````````````````````````"
};
