/* XPM */
static char *wsicon32[] = {
/* columns rows colors chars-per-pixel */
"32 32 210 2",
"   c black",
".  c #0B0B0C",
"X  c #0A0D12",
"o  c #0E1114",
"O  c #141415",
"+  c #16181C",
"@  c #191817",
"#  c #2F3031",
"$  c #3C3E40",
"%  c #3C424F",
"&  c #565655",
"*  c #435467",
"=  c #486078",
"-  c #033296",
";  c #04359B",
":  c #06389E",
">  c #0A3698",
",  c #0B3A9C",
"<  c #153B97",
"1  c #123D9A",
"2  c #0135A1",
"3  c #0037A9",
"4  c #063BA3",
"5  c #043DAA",
"6  c #013EB2",
"7  c #19439E",
"8  c #0741AC",
"9  c #0744B3",
"0  c #0245BA",
"q  c #074ABA",
"w  c #084DBE",
"e  c #26499B",
"r  c #284894",
"t  c #2A4C9E",
"y  c #234FA8",
"u  c #2D52A2",
"i  c #2958B2",
"p  c #2C5DB9",
"a  c #3356A5",
"s  c #365AAA",
"d  c #3A5DA9",
"f  c #355EB1",
"g  c #3E62AF",
"h  c #3263BE",
"j  c #3D64B3",
"k  c #004BC3",
"l  c #084FC1",
"z  c #0753C6",
"x  c #0355CB",
"c  c #065ACD",
"v  c #0852C4",
"b  c #0856C9",
"n  c #085ACD",
"m  c #025BD2",
"M  c #005FDA",
"N  c #085ED1",
"B  c #0663D7",
"V  c #0265DB",
"C  c #0962D5",
"Z  c #0966D9",
"A  c #096ADD",
"S  c #1C64CD",
"D  c #136EDC",
"F  c #1471DE",
"G  c #1C75DF",
"H  c #016BE3",
"J  c #096EE1",
"K  c #0B73E4",
"L  c #0A76E8",
"P  c #1276E5",
"I  c #177AE6",
"U  c #147CE9",
"Y  c #1A76E0",
"T  c #1D7DE7",
"R  c #1B7FE9",
"E  c #2E79DA",
"W  c #3367C3",
"Q  c #386DC8",
"!  c #3672CE",
"~  c #217DE4",
"^  c #297EE2",
"/  c #405EA6",
"(  c #4160A6",
")  c #4764A8",
"_  c #4A68AE",
"`  c #476AB4",
"'  c #4B6BB1",
"]  c #4F74BD",
"[  c #536DAB",
"{  c #5171B7",
"}  c #5174BC",
"|  c #657DB6",
" . c #647EB8",
".. c #487BCF",
"X. c #477FD4",
"o. c #5076C1",
"O. c #557CC5",
"+. c #1F80E7",
"@. c #2581E6",
"#. c #2786EA",
"$. c #2D83E4",
"%. c #2B85E8",
"&. c #3386E5",
"*. c #348AE9",
"=. c #3A89E5",
"-. c #388EEA",
";. c #3790EC",
":. c #6C80B1",
">. c #6C83B9",
",. c #758ABC",
"<. c #7C8EB9",
"1. c #4580D6",
"2. c #4787DC",
"3. c #4D80D2",
"4. c #4985DA",
"5. c #4E8CDC",
"6. c #5B82CA",
"7. c #5F88CA",
"8. c #428CE5",
"9. c #4494EA",
"0. c #4A93E7",
"q. c #4C96E9",
"w. c #4C9AEC",
"e. c #439BF9",
"r. c #549DEB",
"t. c #5F99E6",
"y. c #589DEB",
"u. c #57A0EE",
"i. c #5AA1EE",
"p. c #6385C5",
"a. c #6387CC",
"s. c #6B8DCC",
"d. c #638BD1",
"f. c #6D90CB",
"g. c #6797D6",
"h. c #6C93D3",
"j. c #6B97DB",
"k. c #6D99D5",
"l. c #6E9AD9",
"z. c #768FC6",
"x. c #7A8FC0",
"c. c #7D95C6",
"v. c #7A97CD",
"b. c #7F9ACF",
"n. c #7496D4",
"m. c #7398D1",
"M. c #739CDD",
"N. c #789DD4",
"B. c #789CDB",
"V. c #6497E1",
"C. c #639EE8",
"Z. c #6C9EE3",
"A. c #76A5DB",
"S. c #7DA2DF",
"D. c #63A4EC",
"F. c #65A8EE",
"G. c #6EA1E5",
"H. c #6BA5EC",
"J. c #6EABEE",
"K. c #6CACF0",
"L. c #73A3E5",
"P. c #72ACED",
"I. c #7EA5E2",
"U. c #7BAAE7",
"Y. c #70AEF3",
"T. c #7BB0EC",
"R. c #77B3F0",
"E. c #79B1F1",
"W. c #92908B",
"Q. c #8394BB",
"!. c gray74",
"~. c #8296C5",
"^. c #859AC4",
"/. c #839BC9",
"(. c #8C9DC6",
"). c #8A9EC9",
"_. c #8CA4CF",
"`. c #95A2C1",
"'. c #96A5C9",
"]. c #98A7CD",
"[. c #86B4EC",
"{. c #85B9EE",
"}. c #8EB4E5",
"|. c #8DBCED",
" X c #98BFEB",
".X c #9AC2ED",
"XX c #93C1F0",
"oX c #B7C2DB",
"OX c #ACCCEE",
"+X c #A3C9F2",
"@X c #BCD5EE",
"#X c #B0D0F1",
"$X c #C6CDDF",
"%X c #C1D2EA",
"&X c #CDDFF1",
"*X c #D1D7E5",
"=X c #DBE5EF",
"-X c #D4E2F1",
";X c #DDE6F0",
":X c #DFECF8",
">X c #E4E7ED",
",X c #E8EAEE",
"<X c #E1E9F1",
"1X c #EBEEF1",
"2X c #EFF0F1",
"3X c #F1F1F1",
"4X c #FAF6F2",
"5X c #FEF9F3",
"6X c #FDFDFB",
"7X c None",
/* pixels */
"7X7X7X7X7X7X7X7X7X7X7X7X7X7X7X7X7X7X7X7X7X7X7X7X7X7X7X7X7X7X7X7X",
"7X7X7X7X7X7X7X7X7X7X7X7X7X7X7X7X7X7X7X7X7X7X7X7X7X7X7Xw.9.;.w.7X",
"7X7X7X7X7X7X7X7X7X7X7X7X7X7X7X7X7X7X7X7X7X7Xu.#.U L L L L L H 7X",
"7X7X7X7X7X7X7X7X7X7X7X7X7X7X7X7X7X7X7XR.;.+.L K P K K K L H @.7X",
"7X7X7X7X7X7X7X7X7X7X7X7X7X7X7X7X7XJ.w.%.U K K K J J K A J V 7X7X",
"7X7X7X7X7X7X7X7X7X7X7X7X7X7X7XF.u.9.T K J K J A J A A A V $.7X7X",
"7X7X7X7X7X7X7X7X7X7X7X7X7X7Xw.u.-.I K A A A A A A A A Z V 7X7X7X",
"7X7X7X7X7X7X7X7X7X7X7X7X7X9.i.*.K A A A A A A Z Z B B B D 7X7X7X",
"7X7X7X7X7X7X7X7X7X7X7Xr.9.i.@.K A A A A A C C C C C C m 5.7X7X7X",
"7X7X7X7X7X7X7X7X7X7Xw.9.i.T A A A A C C C C C C N C N x 7X7X7X7X",
"7X7X7X7X7X7X7X7X7Xy.-.J.&.A A A Z C C C C C n n c n c c 7X7X7X7X",
"7X7X7X7X7X7X7X7X7X@.J.9.F A Z Z C C C C n n n n c b x S 7X7X7X7X",
"7X7X7X7X7X7X7X7XT D.r.Y A Z C C C C N n n n b b z z v ! 7X7X7X7X",
"7X7X7X7X7X7X7X%.w.D.^ A A C C C N n n n z z b v z z 0 3.7X7X7X7X",
"7X7X7X7X7X7X7X%.D.=.A Z C C N N n n b b z z z z z w 0 7X7X7X7X7X",
"7X7X7X7X7X7XI y.0.G Z C C C n n b b b v z w w w w q 0 7X7X7X7X7X",
"7X7X7X7X7X9.-.y.^ A C C N N n b b v v v z w q q q 9 6 7X7X7X7X7X",
"7X7X7X7X7XI i.=.F Z C C N n n b v v w w w q q 9 9 9 3 7X7X7X7X7X",
"7X7X7X7X9.*.r.E Z C C N n n b z v w w q q 9 9 9 9 8 3 7X7X7X7X7X",
"7X7X7X7XI r.8.D C C C n n b z v v w q q 9 9 8 8 8 5 2 ] 7X7X7X7X",
"7X7X7X7X%.y.E A C C C n b b z l w q q 9 9 8 8 4 5 4 2 j 7X7X7X7X",
"7X7X7X@.w.0.F B C C n n b z l w q q 9 9 8 8 8 4 4 2 ; y 7X7X7X7X",
"7X7X7XY r.&.A C C N n n z z l q q 9 8 8 8 4 4 : 4 ; ; , 7X7X7X7X",
"7X7Xr.*.0.E Z C C n n b z l l q q 9 8 8 4 4 4 : ; - - > 7X7X7X7X",
"7X7X@.9.=.D B C N c c b v l q q 9 9 8 5 4 : ; ; - 1 7 < 7X7X7X7X",
"7X7X+.q.$.Z B m m n n b v w 0 0 9 5 5 4 2 ; : 7 u u u t  .7X7X7X",
"7X7X@.8.G B Z E 2.4.X.X.X...Q W h p i i g j g d u u e ( | 7X7X7X",
"7X9.*.$.G 8.L.U.L.L.I.I.B.n.h.d.6.O.o.] } ` s d s  .>.~.].7X7X7X",
"7X+.*.r.T.[.G.G.G.Z.l.j.j.M.M.n.d.m.v.b.b.z.c.~./.<.,.[ r 7X7X7X",
"7Xe.J.R.P.H.D.t.G.V.V.I.I.S.B.d.7.a.a.s.p.{ { _ _ / ) [ (.'.7X7X",
"7X{.A.A.A.M.k.g.k.h.N.m.7.s.v._.'./.c.~.~.^.(.Q.<.Q.Q.`.Q.:.7X7X",
"7X7X7X7X7X7X7X7X7X7X7X7X7X7X7X7X7X7X7X7X7X7X7X7X7X7X7X7X7X7X7X7X"
};
