/* XPM */
static char * wsiconcap16_xpm[] = {
"16 16 57 1",
" 	c None",
".	c #146B8E",
"+	c #156B8E",
"@	c #146B8F",
"#	c #136B8F",
"$	c #1680AE",
"%	c #157CA7",
"&	c #14769F",
"*	c #147097",
"=	c #136C90",
"-	c #136A8E",
";	c #126588",
">	c #126182",
",	c #115C7D",
"'	c #1681AF",
")	c #157BA6",
"!	c #15759E",
"~	c #136F94",
"{	c #126689",
"]	c #126283",
"^	c #115D7E",
"/	c #105979",
"(	c #157BA7",
"_	c #105776",
":	c #105777",
"<	c #1578A2",
"[	c #126285",
"}	c #13698F",
"|	c #333333",
"1	c #105877",
"2	c #157CA9",
"3	c #105573",
"4	c #10526F",
"5	c #14719A",
"6	c #FFFFFF",
"7	c #167FAD",
"8	c #136C93",
"9	c #105370",
"0	c #115674",
"a	c #1576A0",
"b	c #116184",
"c	c #115B7B",
"d	c #155B79",
"e	c #1A77A0",
"f	c #093345",
"g	c #1A698B",
"h	c #136E96",
"i	c #14729A",
"j	c #0F5371",
"k	c #072B3B",
"l	c #105471",
"m	c #0F516E",
"n	c #082F40",
"o	c #0F4D69",
"p	c #10536F",
"q	c #0F4C68",
"r	c #082B3B",
"                ",
"      ....      ",
"  +@########..  ",
"$%&*=######-;>, ",
"''''$)!~{]^//// ",
"'''''''(////_:/ ",
"'''<[}'(/||||1/ ",
"''2345'(/|66||/ ",
"7'890a'(/|66||| ",
"1bc9de'(/|6666|f",
"99999ghij|6666|k",
"999999lmn|6666|k",
"9999999ok|6666|k",
"  99999ok|||||| ",
"      pqkr      ",
"                "};
