/* XPM */
static const char *wsicon48_xpm[] = {
/* columns rows colors chars-per-pixel */
"48 48 169 2",
"   c #000102",
".  c #010709",
"X  c #02090D",
"o  c #0B0B0B",
"O  c #030E13",
"+  c #051116",
"@  c #06141B",
"#  c #151414",
"$  c #1C1C1C",
"%  c #071A23",
"&  c #081B24",
"*  c #0A1F2A",
"=  c #0A212C",
"-  c #0B2531",
";  c #0C2936",
":  c #0C2C3B",
">  c #252525",
",  c #2C2C2C",
"<  c #343434",
"1  c #3B3B3B",
"2  c #0D3243",
"3  c #0F3A4E",
"4  c #0A3A51",
"5  c #103343",
"6  c #123A4D",
"7  c #103D52",
"8  c #134156",
"9  c #124258",
"0  c #15485F",
"q  c #0E4D6B",
"w  c #0F5575",
"e  c #164A62",
"r  c #164F69",
"t  c #194D66",
"y  c #184F68",
"u  c #16516C",
"i  c #19536E",
"p  c #105A7C",
"a  c #195572",
"s  c #1B5875",
"d  c #1B5D7C",
"f  c #434343",
"g  c #5B6164",
"h  c #6C6C6C",
"j  c #7C7D7D",
"k  c #135E81",
"l  c #156184",
"z  c #13668C",
"x  c #1C6283",
"c  c #1C6688",
"v  c #1B688C",
"b  c #146B93",
"n  c #176F98",
"m  c #186E95",
"M  c #1B739C",
"N  c #1679A7",
"B  c #167BA9",
"V  c #1D76A0",
"C  c #1E7BA7",
"Z  c #197EAC",
"A  c #206788",
"S  c #206A8D",
"D  c #2E6C88",
"F  c #216F93",
"G  c #237297",
"H  c #22759C",
"J  c #2379A2",
"K  c #287CA2",
"L  c #1B80AF",
"P  c #1D83B3",
"I  c #2582AD",
"U  c #2984AE",
"Y  c #2087B6",
"T  c #2488B6",
"R  c #238BBB",
"E  c #2A87B3",
"W  c #2A8AB6",
"Q  c #2B8DBB",
"!  c #2F91BE",
"~  c #348BB3",
"^  c #3A8EB5",
"/  c #3292BE",
"(  c #3C93BC",
")  c #268FC0",
"_  c #288FC0",
"`  c #2790C1",
"'  c #2993C4",
"]  c #2C97C9",
"[  c #2E9ACC",
"{  c #2F9DD0",
"}  c #3396C3",
"|  c #309CCE",
" . c #3896C1",
".. c #3C99C5",
"X. c #319ED1",
"o. c #34A2D5",
"O. c #36A6D9",
"+. c #38A7DB",
"@. c #39A9DD",
"#. c #3CADE1",
"$. c #3EB0E5",
"%. c #518096",
"&. c #4491B5",
"*. c #4196BD",
"=. c #4498BF",
"-. c #4E99BB",
";. c #539BBD",
":. c #609EBB",
">. c #63A2BF",
",. c #439CC5",
"<. c #469FC8",
"1. c #4B9DC4",
"2. c #549FC2",
"3. c #4EA0C6",
"4. c #4AA0C8",
"5. c #50A1C6",
"6. c #55A4C9",
"7. c #5CA3C4",
"8. c #59A7CA",
"9. c #5DA8CB",
"0. c #67A4C1",
"q. c #61A7C8",
"w. c #64AACA",
"e. c #69A6C2",
"r. c #6BA9C5",
"t. c #6BADCC",
"y. c #6FB0CD",
"u. c #74ABC5",
"i. c #73ADC9",
"p. c #7CAFC7",
"a. c #74B1CD",
"s. c #7EB0C7",
"d. c #7CB2CC",
"f. c #848484",
"g. c #8D8E8E",
"h. c #939495",
"j. c #979899",
"k. c #9B9C9C",
"l. c #9E9FA0",
"z. c #8DA3AD",
"x. c #8FADBA",
"c. c #91AFBD",
"v. c #94B1BE",
"b. c #A4A5A5",
"n. c #A7A8A8",
"m. c #ABACAC",
"M. c #83B2C7",
"N. c #83B4CB",
"B. c #87B8CF",
"V. c #89B7CD",
"C. c #8CB9CE",
"Z. c #97B3C0",
"A. c #93BACC",
"S. c #9AB5C2",
"D. c #9FB8C4",
"F. c #99BBCB",
"G. c #94BDD0",
"H. c #99BFD0",
"J. c #A4BBC6",
"K. c #A9BEC7",
"L. c #ACBFC8",
"P. c #9DC0D0",
"I. c #A4C1CE",
"U. c #ACC2CC",
"Y. c #A0C0D0",
"T. c #B3C1C7",
"R. c #B3C1C8",
"E. c #B8C0C4",
"W. c None",
/* pixels */
"W.W.    o o # # $ > > , , , < < < < 1 1 1 f f f f f f f f f f f 1 1 1 < < , > $ $ # # .     W.W.",
"W.  # h f.g.j.k.k.b.b.n.n.n.n.n.n.m.m.m.m.m.m.m.m.m.m.m.m.m.n.b.b.b.l.l.k.j.h.h.g.f.j h f     W.",
"    # h.E.R.E.R.E.R.R.R.R.T.T.T.T.T.U.L.U.L.K.I.U.J.J.F.J.J.D.D.S.S.S.S.Z.Z.c.Z.c.c.c.z.g       ",
"    O %.U.U.U.U.U.I.I.I.I.I.I.I.Y.Y.Y.F.P.H.H.P.P.P.P.G.G.C.C.C.C.V.V.V.N.N.M.M.M.p.p.u.D O     ",
"    3 Z >.F.F.F.A.A.A.A.A.A.C.A.C.C.C.C.B.B.B.B.B.B.B.d.d.d.d.d.d.i.i.i.u.u.r.r.0.0.>.^ N 3     ",
"    w N C ;.M.M.M.M.M.M.d.d.d.d.d.d.d.a.a.a.a.y.y.y.y.t.t.t.t.w.w.q.9.7.7.7.2.;.;.-.~ B N w     ",
"    p N N B &.e.r.e.r.r.r.r.r.w.w.w.w.w.w.w.9.8.8.8.8.6.6.5.5.3.2.1.1.,.*.*.( ( ^ E B N N p .   ",
"  . p B N N N ~ -.2.2.2.2.2.5.5.3.3.3.3.4.4.4.4.4.4.,.,......... ./ Q Q Q W W T P Z Z B B p     ",
"  . p N N N B N I ~ ( ( ( (  . . . . . .} } } } ] ] } ' ' ' Q Q ) R R R R P P P P Z Z Z B p     ",
"    p N N N Z Z P P I T R R Q R _ _ _ _ _ ' ' ' ' ' ' ' ' ' ' ' ` ) ' R R R Y P P P Z B Z p .   ",
"  . p N N B Z Z P P P P Y R R ) ) _ _ ' ' [ ' [ ] ] ] [ [ Q J v a 0 9 d R R Y Y P P P B Z k .   ",
"  . p B N B Z Z P P P R Y R ) ) _ ' ' ' [ ' [ [ [ [ Q m 7 * O         % I R R Y P P P Z P p     ",
"    p B N Z Z P P P Y R R ) ` ) ' ' ] ] [ } | | Q s =       + = : .   7 R ) R Y Y Y P P P p .   ",
"  . p B B Z Z P P P Y R R ) ) ' ' ] ] [ | X.[ A =     & 8 S E ' c   + J ` ) ) R Y Y P P P k     ",
"  . p B Z Z P P Y Y R R ) ) ` ' ] ] [ | X.Q 7 .   * s Q X.X.X.[ 6   9 ' ' ) ) R R Y P P P k     ",
"    p B Z Z P P P R R R ) ` ' ] ] [ [ X.U ;   X t / O.O.o.X.X.E + . M ] ] ` ) R R R P P P k .   ",
"  . p Z B P P P R P R R ) ' ' ] ] [ X.E =   % G O.O.O.O.X.X.O.S   * Q ] ' ' ) ) R Y P P P l .   ",
"  . p Z Z P P Y P R R ` ) ` ] ] [ X.W -   = U +.+.+.+.+.O.O.X.e   8 [ ] ] ' ) ) R R R P P l .   ",
"    k B Z P P P R R R ) ` ] ] ] [ ' 5   & E #.+.+.+.+.+.+.+.o.5   d X.[ ] ' ` ) ` R R P P l     ",
"  . p B Z P P Y P R ) ) ` ' ] [ | i   @ J +.O.+.#.#.#.@.+.+.} * . G X.] ] ` ' ) R R R P P l .   ",
"  . p Z B P P P R R ) ` ' ] ] { H O   A O.+.#.#.#.#.#.@.#.@.} @ . I | [ ] ] ' ) ` R P R P z .   ",
"    k Z B P P P R R R ` _ ' ] _ :   6 X.O.+.#.$.$.$.#.#.+.+.Q + + E | [ ] ' ' ) R R R R P l     ",
"    p Z P P P P P ` ) ` ` ] [ x   + U O.o.+.@.$.#.$.#.#.#.@.Q O + E { [ ] ' ' ) ` R P P P x .   ",
"  . k Z P P P P R P R ` ` ] Q -   y X.O.+.+.+.<.#.#.#.#.+.@.~ O + T { [ ] ' ' ) R R R P P z .   ",
"    k B P P P P R R ) ) ` ' c   @ E X.o.o.O.+.+.#.+.#.+.+.+./ @ X U X.] ] ' ' ) ) R R Y P l     ",
"  . p Z B P P P P R R ` ` ` :   0 | X.o.X.O.+.O.+.+.+.+.O.O.} & . H | ] ] ' _ ) R R P P P l .   ",
"  . p Z Z Z P P R R R ) ' V O X J X.X.X.o.O.O.O.+.+.+.O.o.O.[ ;   x [ ' ' ' ) ) R R R P P l .   ",
"    p B Z Z P P P P R R ` u   : ' [ | | X.o.X.O.O.X.O.X.X.X.X.7   u [ [ ' ' ) R R R P P P l     ",
"  . p B Z Z P P P R R ) Y ;   a ] [ ] | X.X.X.X.X.o.o.o.X.o.X.s   2 [ ' ' ) ) R R R P P P k .   ",
"  . p Z Z Z Z P P R R R V O X H [ ] ] ] [ X.X.X.X.X.X.X.X.X.X.F   & T ' ` ) ) R P P P P P k     ",
"    p B B Z Z P P P P ) d   = W ' ' ] ] [ [ [ | | X.| | ] [ [ U @ . M ' ) ` R R Y P P P P p     ",
"  . p N N Z Z Z P P P Y 9   4 ` _ ' ] ] ] ] [ ] [ [ [ [ ] [ [ ' :   u ` ` R R R Y P P P P p .   ",
"  . p N N B Z Z P P P Y :   u ` ) ` ' ' ] ] ] ] ] ] ] ] ] ' ] ] u   ; Y ) R R P P P P Z Z p .   ",
"    q z z z b b b m m b @   v ) ) ) ) ' ' ` ' ' ] ] ] ' ' ' ' ' M O X x M M M M m M b b b q     ",
"    . . . . X X X . X X   O M R R ) ) ) ) ) ` ' ` ' ' ' ` ` ` ' R :   . X X X X X X X X X .     ",
"    X O O O O O O O O O O 2 P P R R R ) ` ` ) ` ` ` ` ` ` ` ` ` ) l @ + + O O + O O O O O .     ",
"    q n b b b b b m n n M B P Y R R R R R ) ) ) ` ) ) ) R ) ) P R Y C C M M n n n n n b b q .   ",
"  . p B N N N N N Z Z P P P P P P Y Y Y R Y R R ` P ) ` ) P R R Y Y P P P P P P P B N N N p     ",
"  . p N N N N N N N B Z Z Z P P P P Y Y Y Y Y R P R P P P ) P R P Y P P P P B Z N N N N N p .   ",
"    p N N N N N N N B B Z Z Z P P P P P P Y P Y P R P ) P P P P P P P P P B B B N N N N B p     ",
"  . p B N N N N N N N N B Z Z Z Z P P P P P P P P P P P P P P P P P P Z Z Z B N N N N N B p .   ",
"  . p B N N N N N N N N N B N Z Z Z Z Z P Z Z P P L P P Z P Z P Z Z B Z B B N N N N N N B p     ",
"    w B N N N N N N N N N N N B Z Z Z Z Z Z P Z Z L Z P Z Z Z Z Z N Z N N N N N N N N N N w     ",
"    4 N N N N N N N N N N N N N N B N B Z N Z Z Z Z Z Z Z Z Z B Z N N N N N N N N N N N N 3     ",
"    O w N N B N N N N N B N B B N N N B B B B N Z Z B B N B B B N N B N N N N N B N N N p O     ",
"      O 3 w p p p p p p p p p p p p p p p p p p p p p p p p p p p p p p p p p p p p w 3 O       ",
"W.          .   . .   . .   .     . .   . .   . .   .     . .   .   . .   . .   .             W.",
"W.W.                                                                                        W.W."
};
