/* XPM */
static const char * wsiconcap48_xpm[] = {
"48 48 445 2",
"  	c None",
". 	c #000000",
"+ 	c #01080C",
"@ 	c #0B3C53",
"# 	c #115C7E",
"$ 	c #126186",
"% 	c #126287",
"& 	c #126388",
"* 	c #136489",
"= 	c #14658A",
"- 	c #14658B",
"; 	c #15668C",
"> 	c #16678D",
", 	c #16688E",
"' 	c #17688F",
") 	c #17698F",
"! 	c #186990",
"~ 	c #186A90",
"{ 	c #186A91",
"] 	c #136388",
"^ 	c #02080C",
"/ 	c #126288",
"( 	c #1679A7",
"_ 	c #1679A8",
": 	c #177BA9",
"< 	c #187CAB",
"[ 	c #197EAC",
"} 	c #1A7FAE",
"| 	c #1B80AF",
"1 	c #1C81B0",
"2 	c #1D82B1",
"3 	c #1D83B2",
"4 	c #1E84B3",
"5 	c #1E85B4",
"6 	c #1F85B5",
"7 	c #1F86B5",
"8 	c #1F86B6",
"9 	c #2086B6",
"0 	c #167AA8",
"a 	c #197DAB",
"b 	c #1A7EAD",
"c 	c #1B7FAE",
"d 	c #1E84B4",
"e 	c #2087B7",
"f 	c #2188B8",
"g 	c #2188B9",
"h 	c #2189B9",
"i 	c #1D83B3",
"j 	c #187BAA",
"k 	c #1C81B1",
"l 	c #2289B9",
"m 	c #228ABA",
"n 	c #238ABA",
"o 	c #238BBB",
"p 	c #2188B7",
"q 	c #2087B6",
"r 	c #1C82B1",
"s 	c #1A7FAD",
"t 	c #197DAC",
"u 	c #177BAA",
"v 	c #1F85B4",
"w 	c #2189B8",
"x 	c #238BBC",
"y 	c #248CBC",
"z 	c #248DBD",
"A 	c #258DBD",
"B 	c #258DBE",
"C 	c #2187B7",
"D 	c #1E83B3",
"E 	c #258EBE",
"F 	c #268EBF",
"G 	c #268FC0",
"H 	c #2790C0",
"I 	c #1B80B0",
"J 	c #177AA9",
"K 	c #2790C1",
"L 	c #2791C2",
"M 	c #2891C2",
"N 	c #2892C3",
"O 	c #258EBF",
"P 	c #187DAB",
"Q 	c #126187",
"R 	c #187CAA",
"S 	c #268FBF",
"T 	c #2993C4",
"U 	c #2994C5",
"V 	c #2A94C5",
"W 	c #2A94C6",
"X 	c #197EAD",
"Y 	c #238ABB",
"Z 	c #2B95C7",
"` 	c #2B96C7",
" .	c #2B96C8",
"..	c #2C97C8",
"+.	c #2C97C9",
"@.	c #2C96C8",
"#.	c #2685B1",
"$.	c #1E6C91",
"%.	c #185876",
"&.	c #144A63",
"*.	c #124259",
"=.	c #196283",
"-.	c #248CBD",
";.	c #136389",
">.	c #177AA8",
",.	c #2992C4",
"'.	c #2D98CA",
").	c #2D99CB",
"!.	c #2D98C9",
"~.	c #217297",
"{.	c #123F54",
"].	c #06151C",
"^.	c #010304",
"/.	c #030C10",
"(.	c #1D82B2",
"_.	c #13648A",
":.	c #2289BA",
"<.	c #2E99CC",
"[.	c #2E9ACD",
"}.	c #2F9BCD",
"|.	c #2D96C6",
"1.	c #1B5A78",
"2.	c #06161D",
"3.	c #010506",
"4.	c #071921",
"5.	c #0D2B3A",
"6.	c #103C50",
"7.	c #2C98C9",
"8.	c #2E99CB",
"9.	c #2F9ACD",
"0.	c #2F9CCE",
"a.	c #309CCE",
"b.	c #24759B",
"c.	c #081922",
"d.	c #040E13",
"e.	c #144156",
"f.	c #227094",
"g.	c #2C91C0",
"h.	c #217196",
"i.	c #000101",
"j.	c #03090C",
"k.	c #2585B1",
"l.	c #15668B",
"m.	c #2C98CA",
"n.	c #309CCF",
"o.	c #2F97C8",
"p.	c #144055",
"q.	c #010203",
"r.	c #06141A",
"s.	c #1F607F",
"t.	c #3098C8",
"u.	c #329FD2",
"v.	c #319ED0",
"w.	c #309DCF",
"x.	c #103546",
"y.	c #124055",
"z.	c #2992C3",
"A.	c #1B80AE",
"B.	c #2993C5",
"C.	c #2D90BE",
"D.	c #0C2835",
"E.	c #010305",
"F.	c #17475D",
"G.	c #3198C7",
"H.	c #34A2D6",
"I.	c #34A2D5",
"J.	c #33A1D4",
"K.	c #33A0D3",
"L.	c #329FD1",
"M.	c #2D93C2",
"N.	c #02080B",
"O.	c #000102",
"P.	c #247CA5",
"Q.	c #2C8DBB",
"R.	c #081921",
"S.	c #040D11",
"T.	c #27799F",
"U.	c #36A5D8",
"V.	c #36A5D9",
"W.	c #36A4D8",
"X.	c #35A3D6",
"Y.	c #237094",
"Z.	c #2D97C8",
"`.	c #2A95C6",
" +	c #2E9ACC",
".+	c #2E94C4",
"++	c #0A1F29",
"@+	c #081820",
"#+	c #2E8BB7",
"$+	c #37A6DA",
"%+	c #38A7DB",
"&+	c #35A4D7",
"*+	c #174961",
"=+	c #144257",
"-+	c #309BCD",
";+	c #0D2B39",
">+	c #061319",
",+	c #2F90BD",
"'+	c #39A8DC",
")+	c #39A9DD",
"!+	c #3AAADE",
"~+	c #3AA9DD",
"{+	c #39A9DC",
"]+	c #37A5D9",
"^+	c #35A3D7",
"/+	c #0E2D3B",
"(+	c #1E6181",
"_+	c #17688E",
":+	c #2F9BCE",
"<+	c #1A5571",
"[+	c #040B0E",
"}+	c #2C85AF",
"|+	c #3BACE0",
"1+	c #3CACE0",
"2+	c #3AAADF",
"3+	c #38A7DA",
"4+	c #35A2D5",
"5+	c #07161D",
"6+	c #267CA4",
"7+	c #267EA7",
"8+	c #020607",
"9+	c #216788",
"0+	c #3DAEE2",
"a+	c #3DAEE3",
"b+	c #38A8DC",
"c+	c #35A1D3",
"d+	c #030A0D",
"e+	c #2B8BB8",
"f+	c #2A95C7",
"g+	c #0C2836",
"h+	c #123749",
"i+	c #3CACE1",
"j+	c #277092",
"k+	c #24343B",
"l+	c #2E3D45",
"m+	c #2D3D45",
"n+	c #2D3D44",
"o+	c #2C3B42",
"p+	c #252526",
"q+	c #252626",
"r+	c #2B393F",
"s+	c #2B3A42",
"t+	c #2B3A41",
"u+	c #0F2129",
"v+	c #20759C",
"w+	c #1F6889",
"x+	c #020709",
"y+	c #2D8FBC",
"z+	c #38A8DB",
"A+	c #215D7A",
"B+	c #BBBBBB",
"C+	c #FDFDFD",
"D+	c #434343",
"E+	c #273136",
"F+	c #1E749B",
"G+	c #2B95C5",
"H+	c #091E28",
"I+	c #184F68",
"J+	c #34A3D6",
"K+	c #3BABDF",
"L+	c #205D79",
"M+	c #BDBDBD",
"N+	c #FFFFFF",
"O+	c #4F4F4F",
"P+	c #CCCCCC",
"Q+	c #262F34",
"R+	c #1D739A",
"S+	c #1F6B8E",
"T+	c #000001",
"U+	c #030B0E",
"V+	c #32A0D2",
"W+	c #37A6D9",
"X+	c #1F5B78",
"Y+	c #F4F4F4",
"Z+	c #C2C2C2",
"`+	c #222B2F",
" @	c #1B7098",
".@	c #0C2B39",
"+@	c #16485F",
"@@	c #319ED1",
"#@	c #33A1D3",
"$@	c #1E5A76",
"%@	c #454545",
"&@	c #747474",
"*@	c #6E6E6E",
"=@	c #464646",
"-@	c #040D12",
";@	c #1B749E",
">@	c #1B81B0",
",@	c #2791C1",
"'@	c #2481AD",
")@	c #010406",
"!@	c #2783AE",
"~@	c #319DD0",
"{@	c #36A4D7",
"]@	c #1D5975",
"^@	c #FEFEFE",
"/@	c #DDDDDD",
"(@	c #CACACA",
"_@	c #C7C7C7",
":@	c #C5C5C5",
"<@	c #696969",
"[@	c #176285",
"}@	c #16516D",
"|@	c #0B2633",
"1@	c #2D97C9",
"2@	c #1D5873",
"3@	c #FCFCFC",
"4@	c #F9F9F9",
"5@	c #F6F6F6",
"6@	c #F1F1F1",
"7@	c #818181",
"8@	c #166184",
"9@	c #0B2836",
"0@	c #185571",
"a@	c #2D99CA",
"b@	c #1C5672",
"c@	c #FBFBFB",
"d@	c #F3F3F3",
"e@	c #EEEEEE",
"f@	c #7F7F7F",
"g@	c #15678C",
"h@	c #2387B5",
"i@	c #000202",
"j@	c #237CA5",
"k@	c #1B5570",
"l@	c #F8F8F8",
"m@	c #F0F0F0",
"n@	c #EBEBEB",
"o@	c #7E7E7E",
"p@	c #156083",
"q@	c #1A6587",
"r@	c #2890C0",
"s@	c #1A546F",
"t@	c #FAFAFA",
"u@	c #F5F5F5",
"v@	c #F2F2F2",
"w@	c #EDEDED",
"x@	c #E8E8E8",
"y@	c #7C7C7C",
"z@	c #155F82",
"A@	c #104259",
"B@	c #0F394C",
"C@	c #19526D",
"D@	c #F7F7F7",
"E@	c #EAEAEA",
"F@	c #E5E5E5",
"G@	c #7A7A7A",
"H@	c #145F81",
"I@	c #0A2837",
"J@	c #165471",
"K@	c #18516C",
"L@	c #EFEFEF",
"M@	c #E7E7E7",
"N@	c #E2E2E2",
"O@	c #797979",
"P@	c #145E80",
"Q@	c #105779",
"R@	c #146D96",
"S@	c #146E97",
"T@	c #167099",
"U@	c #17719B",
"V@	c #18739D",
"W@	c #1A759F",
"X@	c #1B77A1",
"Y@	c #1C78A3",
"Z@	c #040F15",
"`@	c #1B6C92",
" #	c #17506A",
".#	c #ECECEC",
"+#	c #E9E9E9",
"@#	c #E4E4E4",
"##	c #E1E1E1",
"$#	c #DFDFDF",
"%#	c #777777",
"&#	c #115372",
"*#	c #11597A",
"=#	c #000304",
"-#	c #010405",
";#	c #1F7CA8",
">#	c #164F69",
",#	c #E6E6E6",
"'#	c #DEDEDE",
")#	c #DCDCDC",
"!#	c #757575",
"~#	c #092937",
"{#	c #154D67",
"]#	c #E3E3E3",
"^#	c #DBDBDB",
"/#	c #D9D9D9",
"(#	c #144C66",
"_#	c #E0E0E0",
":#	c #D8D8D8",
"<#	c #D6D6D6",
"[#	c #727272",
"}#	c #115A7B",
"|#	c #134B65",
"1#	c #D5D5D5",
"2#	c #D3D3D3",
"3#	c #707070",
"4#	c #10597B",
"5#	c #124963",
"6#	c #B9B9B9",
"7#	c #DADADA",
"8#	c #D2D2D2",
"9#	c #D0D0D0",
"0#	c #6F6F6F",
"a#	c #114861",
"b#	c #B6B6B6",
"c#	c #D7D7D7",
"d#	c #CFCFCF",
"e#	c #CDCDCD",
"f#	c #6D6D6D",
"g#	c #104760",
"h#	c #B4B4B4",
"i#	c #D4D4D4",
"j#	c #6C6C6C",
"k#	c #0F455F",
"l#	c #B2B2B2",
"m#	c #D1D1D1",
"n#	c #C9C9C9",
"o#	c #6A6A6A",
"p#	c #0E445D",
"q#	c #888888",
"r#	c #B0B0B0",
"s#	c #AEAEAE",
"t#	c #ACACAC",
"u#	c #AAAAAA",
"v#	c #A7A7A7",
"w#	c #A5A5A5",
"x#	c #A3A3A3",
"y#	c #A1A1A1",
"z#	c #9F9F9F",
"A#	c #9D9D9D",
"B#	c #9B9B9B",
"C#	c #999999",
"D#	c #979797",
"E#	c #515151",
"F#	c #0C3F56",
"G#	c #0C3E56",
"H#	c #0C3E55",
"I#	c #0B3D54",
"J#	c #0B3C54",
"K#	c #146D97",
"L#	c #115C7F",
"        . . . . . . . . . . . . . . . . . . . . . . . . . . . . . . . . . . . . . . . .         ",
"    . . . . . . . . . . . . . . . . . . . . . . . . . . . . . . . . . . . . . . . . . . . .     ",
"  . . + @ # $ $ $ $ $ % & * = - ; > , ' ) ! ~ ~ { { { ~ ~ ~ ) ) , > ; - = * ] % $ $ # @ + . .   ",
"  . ^ / ( ( ( ( ( ( _ : < [ } | 1 2 3 4 5 6 7 8 8 9 8 8 7 6 5 4 3 2 1 | } [ < : 0 ( ( ( / ^ .   ",
". . @ ( ( ( ( ( ( 0 : a b c 1 2 3 d 6 8 e e f f g h g f f e e 9 6 d i 2 1 | b a j 0 ( ( ( @ . . ",
". . # ( ( ( ( ( 0 : a b | k 3 4 6 9 e f l m n o o o o o n m l f p q 7 d 3 r | s t j 0 ( ( # . . ",
". . $ ( ( ( ( _ u t s | r i v 9 e w m o x y z A B B B A z y x o m h C 9 v D r | } t j 0 ( $ . . ",
". . $ ( ( ( ( : a s | r 4 6 q f l o y z E F G G H H H G G F E z y o m f e 6 4 2 I s a : ( $ . . ",
". . $ ( ( ( J < b | r 4 6 e f m x z E G K L M N N N N N M L K G O z y m h e 6 4 2 | b P : Q . . ",
". . $ ( ( 0 R [ | r i 6 e h n y B S K M N T U V W W W V U T N M K G B y o h e 6 4 r | X R % . . ",
". . $ ( ( : t } 1 3 v q h Y y E G L N T W Z `  ...+...@. .Z #.$.%.&.*.=.-.o h e 6 3 1 } t ;.. . ",
". . $ ( >.R b | 2 d 9 f m y E G M ,.V Z @.+.'.).).).!.~.{.].^.. . . . /.O -.n f 9 5 (.| b _.. . ",
". . $ ( : t } 1 D 6 C :.y B G M T W ` +.'.<.[.}.|.1.2.. . . 3.4.5.3.. 6.G E y m f 7 4 r c - . . ",
". . $ 0 R b | (.5 q h o A G L T W  .7.8.9.0.a.b.c.. . d.e.f.g.8.h.i.j.k.M G B o l e v 3 | l.. . ",
". . $ J P } 1 i 6 p m y O K N V  .m.<.}.n.o.p.q.. r.s.t.u.v.w.}.x.. y.W z.K F -.m f 7 D 1 ; . . ",
". . % : t A.r 4 9 h o A G M B.Z +.8.}.w.C.D.. E.F.G.H.I.J.K.L.M.N.O.P.` U N G B o l q d 2 > . . ",
". . % R X | 3 v e :.y E K N W @.).}.w.Q.R.. S.T.U.V.U.W.X.I.K.Y.. 4.Z.+.`.T K O y m e 6 3 , . . ",
". . % < s 1 3 6 f m -.S L T Z 7. +a..+++. @+#+$+%+%+%+$+V.&+I.*+. =+ +'.` B.M G z n f 7 D , . . ",
". . & P } 1 4 8 f o z G N V  .'.}.-+;+. >+,+%+'+)+!+~+{+%+]+^+/+. (+}.).@.V N G B o h 9 4 _+. . ",
". . ] a } r 4 9 h o B K N W ..).:+<+. [+}+$+'+!+|+1+|+2+)+3+4+5+. 6+0.8.+.`.z.K E x h 9 d ) . . ",
". . ] t c r d q l x E K z.`.+.8.7+8+i.9+V.%+!+|+0+a+0+|+!+b+c+d+O.e+a. ++.f+T K E y l e d ) . . ",
". . ] t c r d q l x E K T `.+.'.g+. h+4+]+b+!+i+j+k+l+m+n+n+o+p+q+r+o+s+t+t+u+v+O y l e d ) . . ",
". . ] t c r d q l x E K T `.+.w+i.x+y+X.]+z+!+i+A+B+C+C+C+C+C+C+C+C+C+C+C+C+D+E+F+y l e d ) . . ",
". . ] t } r 4 9 h o B K z.`.G+H+. I+K.J+U.%+)+K+L+M+N+N+N+N+N+N+N+N+N+N+N+N+O+P+Q+R+l e d ) . . ",
". . & a } 1 4 9 f o B G N W S+T+U+M.V+I.&+W+b+)+X+M+N+N+N+N+N+N+N+N+N+N+N+N+O+Y+Z+`+ @9 4 ) . . ",
". . / < s 1 D 7 f Y z G M T .@. +@n.@@#@X.W.$+%+$@M+N+N+N+N+N+N+N+N+N+N+N+N+%@&@*@=@-@;@4 _+. . ",
". . % R b >@3 6 C m y O ,@'@)@^.!@:+~@u.J.X.{@V.]@M+N+N+N+N+N+N+N+N+N+N+N+^@/@(@_@:@<@[@3 , . . ",
". . % j [ | 2 d e l x B H }@. |@1@ +a.v.u.J.I.X.2@M+N+N+N+N+N+N+N+N+N+N+^@3@4@5@Y+6@7@8@(.> . . ",
". . $ : t } k 4 8 f n z F 9@. 0@..a@ +a.~@L.K.J.b@M+N+N+N+N+N+N+N+N+N+^@c@4@5@d@6@e@f@8@r g@. . ",
". . $ >.< b 1 3 6 e l x h@x+i@j@Z +.). +0.w.v.@@k@M+N+N+N+N+N+N+N+N+^@c@l@5@d@m@e@n@o@p@1 ; . . ",
". . $ ( j t | r 4 9 f n q@. ].r@V Z ..'. +}.:+a.s@M+N+N+N+N+N+N+N+C+t@l@u@v@m@w@n@x@y@z@| - . . ",
". . $ ( J P s 1 3 v e l A@. B@K N B.`. .+.'.8. +C@M+N+N+N+N+N+N+C+t@D@u@v@m@w@E@x@F@G@H@} = . . ",
". . $ ( _ j t A.r 4 7 C I@. J@S K N T W Z  .+.7.K@M+N+N+N+N+N+3@t@D@Y+v@L@w@E@M@F@N@O@P@[ * . . ",
". . Q@R@R@S@T@U@V@W@X@Y@Z@. `@z F K M N T V `.Z  #M+N+N+N+^@3@4@D@Y+6@L@.#+#M@@###$#%#&#T@*#. . ",
". . =#E.E.E.-#-#-#-#-#-#. )@;#o -.E G K M N z.T >#M+N+N+^@3@4@5@Y+6@e@.#+#,#@###'#)#!#^.-#=#. . ",
". . i.i.i.i.i.i.i.i.i.i.i.~#9 l Y y z E S G K K {#M+N+^@c@4@5@d@6@e@n@+#,#]###'#^#/#&@i.i.i.. . ",
". . $ ( ( ( ( >.R [ c 1 3 d 7 e f m o y -.B E O (#M+^@c@l@5@d@m@e@n@x@,#]#_#'#^#:#<#[#}#( $ . . ",
". . $ ( ( ( ( ( J R [ c 1 (.4 6 9 C f :.n o x y |#B+c@l@u@d@m@w@n@x@F@]#_#/@^#:#1#2#3#4#( $ . . ",
". . $ ( ( ( ( ( ( J R [ } | r 3 d 6 9 e f h l l 5#6#l@u@v@m@w@E@x@F@N@_#/@7#:#1#8#9#0#4#( $ . . ",
". . $ ( ( ( ( ( ( ( >.R t b | 1 2 i d 6 7 9 q e a#b#u@v@L@w@E@M@F@N@$#/@7#c#1#8#d#e#f#4#( $ . . ",
". . $ ( ( ( ( ( ( ( ( >.j a [ } | 1 r 3 D 4 d v g#h#v@L@.#E@M@@#N@$#)#7#c#i#8#d#P+(@j#4#( $ . . ",
". . $ ( ( ( ( ( ( ( ( ( _ : R a X } | | 1 r 2 (.k#l#e@.#+#M@@###$#)#/#c#i#m#d#P+n#_@o#4#( $ . . ",
". . # ( ( ( ( ( ( ( ( ( ( ( 0 : R a t b } } | | p#q#b#h#l#r#s#t#u#v#w#x#y#z#A#B#C#D#E#4#( # . . ",
". . @ ( ( ( ( ( ( ( ( ( ( ( ( ( 0 J : R < a t [ - F#F#G#G#H#H#H#I#I#J#@ @ @ @ @ @ @ I#K#( @ . . ",
"  . ^ / ( ( ( ( ( ( ( ( ( ( ( ( ( ( ( 0 >.: : j j j j j : : >.0 ( ( ( ( ( ( ( ( ( ( ( ( / ^ .   ",
"  . . + I#L#$ $ $ $ $ $ $ $ $ $ $ $ $ $ $ $ Q % % % % % Q $ $ $ $ $ $ $ $ $ $ $ $ $ L#I#+ . .   ",
"    . . . . . . . . . . . . . . . . . . . . . . . . . . . . . . . . . . . . . . . . . . . .     ",
"        . . . . . . . . . . . . . . . . . . . . . . . . . . . . . . . . . . . . . . . .         "};
