/* XPM */
static char *wsicon64_xpm[] = {
/* width height num_colors chars_per_pixel */
"    64    64      256            2",
/* colors */
"`` c #040204",
"`. c #146284",
"`# c #248ab4",
"`a c #0c3244",
"`b c #1476a4",
"`c c #34a2d4",
"`d c #0c4e6c",
"`e c #041a24",
"`f c #2c96c4",
"`g c #1c82ac",
"`h c #1c6a8c",
"`i c #145674",
"`j c #0c2634",
"`k c #348ebc",
"`l c #0c3e54",
"`m c #24769c",
"`n c #2492c4",
"`o c #040e14",
"`p c #246a8c",
"`q c #3caee4",
"`r c #1c4a64",
"`s c #04222c",
"`t c #2c9ecc",
"`u c #14668c",
"`v c #2c8ab4",
"`w c #1c7eac",
"`x c #2c86b4",
"`y c #0c3a4c",
"`z c #1c769c",
"`A c #3caadc",
"`B c #0c5274",
"`C c #0c1a24",
"`D c #2482ac",
"`E c #14729c",
"`F c #1c566c",
"`G c #3496c4",
"`H c #14465c",
"`I c #04161c",
"`J c #040a0c",
"`K c #1c5e7c",
"`L c #248ec4",
"`M c #143244",
"`N c #3ca6dc",
"`O c #144a5c",
"`P c #0c2e3c",
"`Q c #143e54",
"`R c #247ea4",
"`S c #1c5a7c",
"`T c #040604",
"`U c #248ebc",
"`V c #147aa4",
"`W c #34a6d4",
"`X c #041e24",
"`Y c #2c9acc",
"`Z c #1c86b4",
"`0 c #1c6e8c",
"`1 c #0c2a34",
"`2 c #2c92bc",
"`3 c #041214",
"`4 c #247294",
"`5 c #349ecc",
"`6 c #1c6684",
"`7 c #2c8ebc",
"`8 c #1c7aac",
".` c #0c1e24",
".. c #2486b4",
".# c #1c7294",
".a c #1c5a74",
".b c #144e64",
".c c #144254",
".d c #14628c",
".e c #248abc",
".f c #0c364c",
".g c #2c96cc",
".h c #1c82b4",
".i c #145a7c",
".j c #247aa4",
".k c #246e94",
".l c #3cb2e4",
".m c #1c526c",
".n c #0c222c",
".o c #2c8abc",
".p c #143a4c",
".q c #1c7aa4",
".r c #3caae4",
".s c #14526c",
".t c #2482b4",
".u c #1c5674",
".v c #349acc",
".w c #0c161c",
".x c #1c6284",
".y c #143644",
".z c #144a64",
".A c #2c7ea4",
".B c #04060c",
".C c #147aac",
".D c #34a6dc",
".E c #041e2c",
".F c #1c6e94",
".G c #0c2a3c",
".H c #2c92c4",
".I c #04121c",
".J c #349ed4",
".K c #1c668c",
".L c #0c1e2c",
".M c #1c729c",
".N c #14425c",
".O c #000000",
".P c #000000",
".Q c #000000",
".R c #000000",
".S c #000000",
".T c #000000",
".U c #000000",
".V c #000000",
".W c #000000",
".X c #000000",
".Y c #000000",
".Z c #000000",
".0 c #000000",
".1 c #000000",
".2 c #000000",
".3 c #000000",
".4 c #000000",
".5 c #000000",
".6 c #000000",
".7 c #000000",
".8 c #000000",
"#` c #000000",
"#. c #000000",
"## c #000000",
"#a c #000000",
"#b c #000000",
"#c c #000000",
"#d c #000000",
"#e c #000000",
"#f c #000000",
"#g c #000000",
"#h c #000000",
"#i c #000000",
"#j c #000000",
"#k c #000000",
"#l c #000000",
"#m c #000000",
"#n c #000000",
"#o c #000000",
"#p c #000000",
"#q c #000000",
"#r c #000000",
"#s c #000000",
"#t c #000000",
"#u c #000000",
"#v c #000000",
"#w c #000000",
"#x c #000000",
"#y c #000000",
"#z c #000000",
"#A c #000000",
"#B c #000000",
"#C c #000000",
"#D c #000000",
"#E c #000000",
"#F c #000000",
"#G c #000000",
"#H c #000000",
"#I c #000000",
"#J c #000000",
"#K c #000000",
"#L c #000000",
"#M c #000000",
"#N c #000000",
"#O c #000000",
"#P c #000000",
"#Q c #000000",
"#R c #000000",
"#S c #000000",
"#T c #000000",
"#U c #000000",
"#V c #000000",
"#W c #000000",
"#X c #000000",
"#Y c #000000",
"#Z c #000000",
"#0 c #000000",
"#1 c #000000",
"#2 c #000000",
"#3 c #000000",
"#4 c #000000",
"#5 c #000000",
"#6 c #000000",
"#7 c #000000",
"#8 c #000000",
"a` c #000000",
"a. c #000000",
"a# c #000000",
"aa c #000000",
"ab c #000000",
"ac c #000000",
"ad c #000000",
"ae c #000000",
"af c #000000",
"ag c #000000",
"ah c #000000",
"ai c #000000",
"aj c #000000",
"ak c #000000",
"al c #000000",
"am c #000000",
"an c #000000",
"ao c #000000",
"ap c #000000",
"aq c #000000",
"ar c #000000",
"as c #000000",
"at c #000000",
"au c #000000",
"av c #000000",
"aw c #000000",
"ax c #000000",
"ay c #000000",
"az c #000000",
"aA c #000000",
"aB c #000000",
"aC c #000000",
"aD c #000000",
"aE c #000000",
"aF c #000000",
"aG c #000000",
"aH c #000000",
"aI c #000000",
"aJ c #000000",
"aK c #000000",
"aL c #000000",
"aM c #000000",
"aN c #000000",
"aO c #000000",
"aP c #000000",
"aQ c #000000",
"aR c #000000",
"aS c #000000",
"aT c #000000",
"aU c #000000",
"aV c #000000",
"aW c #000000",
"aX c #000000",
"aY c #000000",
"aZ c #000000",
"a0 c #000000",
"a1 c #000000",
"a2 c #000000",
"a3 c #000000",
"a4 c #000000",
"a5 c #000000",
"a6 c #000000",
"a7 c #000000",
"a8 c #000000",
/* pixels */
"````````````````````````````````````````````````````````````````````````````````````````````````````````````````````````````````",
"````````````````````````````````````````````````````````````````````````````````````````````````````````````````````````````````",
"```````````````J`o`o`o`o`o`o`o`o`o`o`o`o`o`o`o`o`o`o`o`o`o`o`o`o`o`o`o`o`o`o`o`o`o`o`o`o`o`o`o`o`o`o`o`o`o`o`o`o`J``````````````",
"`````````T.f`u`E`b`V.q`8`8`w`w`w`w`w`w`g`g`g`g.h.h.h.h.h.h.h`g`g`g`g`g`w`w`w`w`w`8`8.q`V`V`b`b`b`b`b`b`b`b`b`b`b`E`u.f`T````````",
"```````T`d`V.C.C`w`w`w`w`g.h.h.h.h`Z`Z`Z`Z`Z....................`Z`Z`Z`Z.h.h.h.h`g`w`w`w`w`8.C`V`V`V`V`V`V`V`V`V`V`V`V`B`T``````",
"```````a`V.C.C`w`w`w`w`g.h.h.h`Z`Z`Z`Z....`#.e.e.e.e.e.e.e.e.e.e......`Z`Z`Z.h.h.h.h`g`w`w`w`w.C`V`V`V`V`V`V`V`V`V`V`V`V.f``````",
"``````.d.C.C`w`w`w`g.h.h.h`Z`Z`Z.....e.e.e.e.e.e.e.e.e.e.e.e.e.e.e.e.e....`Z`Z`Z.h.h.h`g`w`w`w`w.C`V`V`V`V`V`V`V`V`V`V`V`u``````",
"`````J`E.C`w`w`w`g.h.h.h`Z`Z.....e.e.e.e.e.e.e`U`U`U`U`U`U`U`U.e.e.e.e.e.e`#..`Z`Z`Z.h.h.h`w`w`w`w.C`V`V`V`V`V`V`V`V`V`V`E`J````",
"`````o`b`w`w`w`g.h.h`Z`Z`Z...e.e.e.e.e`U`U`U`U`U`U`U`U`U`U`U`U`U`U`U.e.e.e.e.e....`Z`Z.h.h.h`w`w`w`w.C`V`V`V`V`V`V`V`V`V`b`o````",
"`````o`V`w`w`g.h.h`Z`Z.....e.e.e.e`U`U`U`U`U`L`L`L`n`n`n`n`L`L`U`U`U`U`U`U.e.e.e.e..`Z`Z.h.h.h`w`w`w`8.C`V`V`V`V`V`V`V`V`b`o````",
"`````o.q`w`g.h.h`Z`Z..`#.e.e.e`U`U`U`U`L`n`n`n.H.H.H.H.H.H.H`n`n`n`L`U`U`U`U.e.e.e.e..`Z`Z.h.h.h`w`w`w.C.C`V`V`V`V`V`V`V`b`o````",
"`````o.q`g.h.h`Z`Z...e.e.e.e`U`U`U`L`n`n.H.H.H.H.H.H.H.H.H.H.H.H.H.H`n`L`U`U`U`U.e.e.e..`Z`Z.h.h`g`w`w`w.C`V`V`V`V`V`V`V`b`o````",
"`````o`8.h.h`Z`Z...e.e.e.e`U`U`U`n`n.H.H.H`f`f`f`f`f`f`f`f`f`f`f.H.H.H.H`n`L`U`U`U.e.e.e..`Z`Z.h.h`g`w`w`8.C`V`V`V`V`V`V`b`o````",
"`````o`w.h.h`Z.....e.e.e`U`U`L`n.e...e.H`f`f`f.g.g.g.g.g.g.g.g`f`f`f`f.H.H`n`n`U`U`U.e.e.e..`Z`Z.h.h`g`w`w.C`V`V`V`V`V`V`b`o````",
"`````o`w.h`Z`Z...e.e.e`U`U`L`n.M`o.B`J`o.``a.z`h`7`Y`Y`Y`Y`Y`Y.g.g.g`f`f.H.H.H`n`U`U`U.e.e.e..`Z.h.h`g`w`w`w.C`V`V`V`V`V`b`o````",
"`````o`w`Z`Z...e.e.e`U`U`L`n.H.s`````````````````T`j.u`7`Y`Y`Y`Y`Y.g.g`f`f`f.H.H`n`U`U`U.e.e`#`Z`Z.h.h`g`w`w.C`V`V`V`V`V`b`o````",
"`````o`w`Z`Z...e.e`U`U`L`n.H.H`D`T`````o.B`````````````T.y.j`Y`Y`Y`Y`Y.g.g`f`f.H.H`n`U`U.e.e.e..`Z`Z.h.h`w`w`w.C`V`V`V`V`b`o````",
"`````o`w`Z...e.e`U`U`U`n.H.H`f`f`H````.c.g`x`p.z.``T````````.y`v`t`Y`Y`Y.g.g`f`f.H`n`L`U`U.e.e.e..`Z.h.h`g`w`w.C`V`V`V`V`b`o````",
"`````o`g`Z.e.e.e`U`U`n.H.H`f`f.g`7`o```o`7.J.J.J.J`x.m`I```````J`S.g`Y`Y`Y.g.g`f.H.H`n`L`U`U.e.e..`Z`Z.h`g`w`w`8.C`V`V`V`b`o````",
"`````o`g...e.e`U`U`L`n.H`f`f.g`Y`Y.N`````K.J`c`c`c`c`c.v.x`I```````1.o`Y`Y`Y.g`f`f.H.H`n`U`U.e.e`#`Z`Z.h.h`w`w`w.C`V`V`V`b`o````",
"`````o.h...e.e`U`U`n.H.H`f.g.g`Y`Y`D`````j.J`c`c`c`c`c`c`c`G`H`T`````e`R`Y`Y`Y.g`f`f.H`n`L`U`U.e.e..`Z.h.h`g`w`w.C`V`V`V`b`o````",
"`````o.h.e.e.e`U`U`n.H`f`f.g`Y`Y`Y`Y.L```J.H`c`W.D.D.D.D.D.D`c.A`I`````o.k`Y`Y`Y.g`f.H.H`n`U`U.e.e..`Z`Z.h`g`w`w.C`V`V`V`b`o````",
"`````o.h.e.e`U`U`L`n.H`f.g`Y`Y`Y`5.J.z````.k.D.D.D`N`N`N.D.D.D`W.H`j`````J`m`Y`Y.g`f.H.H`n`U`U.e.e`#`Z`Z.h.h`w`w`8.C`V`V`b`o````",
"`````o.h.e.e`U`U`n.H.H`f.g`Y`Y`t.J.J`m`````r.D`N`A`A`A`A`A`N.D.D`W.v.p`````o`D`Y.g`f`f.H`n`L`U`U.e.e..`Z.h.h`w`w`w.C`V`V`b`o````",
"`````o.h.e.e`U`U`n.H`f`f.g`Y`Y`5.J`c`2`T```P`N`A`A`A`A`A`A`A`A.D.D`c`5`M````.I.o`Y.g`f.H.H`L`U`U.e.e..`Z.h.h`g`w`w.C`V`V`b`o````",
"`````o.t.e.e`U`L`n.H`f`f`Y`Y`Y`5.J`c`5`I``.w`c`A`A`q`q`q.r`A`A`A.D.D`c`G`j`````P.g.g`f.H.H`n`U`U.e.e..`Z.h.h`g`w`w.C`V`V`b`o````",
"`````o...e`U`U`L`n.H`f.g`Y`Y`Y.J.J`c`c`j```J`5`A`q`q`q`q`q.r`A`A`N.D`c`c`7`I````.a.g`f`f.H`n`U`U.e.e..`Z.h.h`g`w`w.C`V`V`b`o````",
"`````o...e`U`U`L`n.H`f.g`Y`Y`t.J.J`c`c.y````.v.r`q`q.l`q`q`q`A`A`N.D`W`c`c`4`T```J`D`f`f.H`n`U`U.e.e..`Z.h.h`g`w`w.C`V`V`b`o````",
"`````o...e`U`U`L`n.H`f.g`Y`Y`t.J.J`c`c.c`````k`q`q`q.l.l`q`q`A`A`N.D`W`c`c.J`O`````a`f`f.H`n`U`U.e.e..`Z`Z.h`g`w`w.C`V`V`b`o````",
"`````o...e`U`U`L`n.H`f.g`Y`Y`t.J.J`c`c`H`````v.r`q`q`q`q`q`q`A`A`N.D`W`c`c.J`f`I````.F`f.H`n`U`U.e.e..`Z.h.h`g`w`w.C`V`V`b`o````",
"`````o...e.e`U`L`n.H`f.g`Y`Y`Y.J.J`c`c`H`````v`A`q`q`q`q`q.r`A`A.D.D`c`c`c.J`5`6````.L.H.H`n`U`U.e.e..`Z.h.h`g`w`w.C`V`V`b`o````",
"`````o.h.e.e`U`U`n.H`f`f`Y`Y`Y`5.J`c`c.N`````v`A`A`q`q`q`A`A`A`N.D.D`c`c.J.J`5`Y.n`````h.H`n`U`U.e.e..`Z.h.h`g`w`w.C`V`V`b`o````",
"`````o.h.e.e`U`U`n.H`f`f.g`Y`Y`5.J`c`c.p`````G`A`A`A`A`A`A`A`A.D.D`c`c`c.J.J`Y`Y.k`````j`L`L`U`U.e.e..`Z.h.h`g`w`w.C`V`V`b`o````",
"`````o.h.e.e`U`U`n.H.H`f.g`Y`Y`Y.J.J`c`P```T.v`N`N`A`A`A`A`N.D.D`W`c`c`c.J`5`Y`Y`f.`````.#`L`U.e.e.e..`Z.h.h`w`w`w.C`V`V`b`o````",
"`````o.h.e.e`U`U`L`n.H`f`f`Y`Y`Y`5.J`5.````3`5.D.D.D`N`N.D.D.D`W`c`c`c.J.J`Y`Y`Y.g`K`````Q`U`U.e.e`#`Z`Z.h.h`w`w`8.C`V`V`b`o````",
"`````o.h.e.e.e`U`U`n.H.H`f.g`Y`Y`Y`5`f`o``.n`c`W.D.D.D.D.D`W`c`c`c`c.J.J`5`Y`Y`Y.g.e`o```o..`U.e.e..`Z`Z.h`g`w`w.C`V`V`V`b`o````",
"`````o`g...e.e`U`U`n.H.H`f`f.g`Y`Y`t`x````.y`c`c`c`c`c`c`c`c`c`c`c.J.J`5`Y`Y`Y.g`f.H.p````.x`U.e.e..`Z.h.h`g`w`w.C`V`V`V`b`o````",
"`````o`g...e.e`U`U`L`n.H.H`f.g`Y`Y`Y`6`````F`c`c`c`c`c`c`c`c`c.J.J.J`5`Y`Y`Y.g`f`f.H`h`````y.e.e..`Z`Z.h.h`w`w`w.C`V`V`V`b`o````",
"`````o`g`Z...e.e`U`U`L.H.H`f`f.g`Y`Y`H`````m.J.J.J.J`c.J.J.J.J.J`5`5`Y`Y`Y.g`f`f.H.H..`o```I...e..`Z.h.h`g`w`w.C.C`V`V`V`b`o````",
"`````o`w`Z...e.e`U`U`U`n.H.H`f`f.g.g`j``.B`7`5`5.J.J.J.J.J.J`5`5`Y`Y`Y`Y.g.g`f.H.H`n`L.G````.M.e`Z`Z.h.h`g`w`w.C`V`V`V`V`b`o````",
"`````o`w`Z`Z...e.e`U`U`U`n.H.H`f`f`7`J```C.g`Y`Y`t`5`5`5`t`Y`Y`Y`Y`Y`Y.g`f`f.H.H.H`n`U.s````.b..`Z.h.h`g`w`w`w.C`V`V`V`V`b`o````",
"`````o`w.h`Z...e.e.e`U`U`L`n.H.H`f`h````.c`Y`Y`Y`Y`Y`Y`Y`Y`Y`Y`Y`Y.g.g`f`f.H.H.H`n`U`U`z`````1`Z`Z.h.h`g`w`w.C`V`V`V`V`V`b`o````",
"`````o`w.h`Z`Z...e.e.e`U`U`L`n.H.H`Q`````0.g.g`Y`Y`Y`Y`Y`Y`Y`Y.g.g`f`f`f.H.H`n`n`U`U`U...I```3.h.h.h`g`w`w`w.C`V`V`V`V`V`b`o````",
"`````o`w.h.h`Z`Z...e.e.e`U`U`L`n`U`3```o`#`f`f.g.g.g.g.g.g.g`f`f`f`f.H.H.H`n`n`U`U`U.e.e`j````.q.h.h`w`w`w.C`V`V`V`V`V`V`b`o````",
"`````o`8.h.h.h`Z.....e.e.e`U`U`U`6`````a.H.H`f`f`f`f`f`f`f`f`f`f.H.H.H`n`n`L`U`U`U.e.e.e`l`````..h`g`w`w`8.C`V`V`V`V`V`V`b`o````",
"```````X.E.E.E.E.E`s.n.n.n.n.n.n`3````.K.H.H.H.H.H.H.H.H.H.H.H.H.H`n`n`L`U`U`U`U.e.e.e..`i````.I.E.E.E.E`X`X`X`X`X`X`X`X`e``````",
"`````````````````````````````````````I.e`n`n`n`n.H.H.H.H.H`n`n`n`n`L`U`U`U`U.e.e.e.e..`Z`u``````````````````````````````````````",
"```````````````````````````````````o.i`U`U`U`U`L`L`L`n`L`L`L`L`U`U`U`U`U.e.e.e.e`#..`Z`Z`w`1````````````````````````````````````",
"`````o`b`w`w`w`g.h.h.h`Z`Z.....e.e.e.e.e`U`U`U`U`U`U`U`U`U`U`U`U`U`U.e.e.e.e.e....`Z`Z.h.h`g`w`w`w`w.C`V`V`V`V`V`V`V`V`V`b`o````",
"`````o`b.C`w`w`w`g.h.h.h`Z`Z`Z...e.e.e.e.e.e.e`U`U`U`U`U`U`U.e.e.e.e.e.e.e....`Z`Z`Z.h.h`g`w`w`w`w.C`V`V`V`V`V`V`V`V`V`V`b`o````",
"`````o`b.C.C`w`w`w`g.h.h.h`Z`Z`Z`Z.....e.e.e.e.e.e.e.e.e.e.e.e.e.e.e.e....`Z`Z`Z.h.h.h`g`w`w`w`w.C`V`V`V`V`V`V`V`V`V`V`V`b`o````",
"`````o`b`V.C.C`w`w`w`w`g.h.h.h`Z`Z`Z`Z.......e.e.e.e.e.e.e.e.e`#......`Z`Z`Z.h.h.h.h`g`w`w`w`8.C`V`V`V`V`V`V`V`V`V`V`V`V`b`o````",
"`````o`b`V`V.C.C`w`w`w`w`g.h.h.h.h`Z`Z`Z`Z`Z`Z`Z............`Z`Z`Z`Z`Z`Z.h.h.h.h`g`w`w`w`w.C.C`V`V`V`V`V`V`V`V`V`V`V`V`V`b`o````",
"`````o`b`V`V`V`V.C`8`w`w`w`w`g.h.h.h.h.h.h`Z`Z`Z`Z`Z`Z`Z`Z`Z`Z`Z`Z.h.h.h.h.h`g`w`w`w`w`w.C.C`V`V`V`V`V`V`V`V`V`V`V`V`V`V`b`o````",
"`````o`b`V`V`V`V`V.C.C`w`w`w`w`w`g`g.h.h.h.h.h.h.h.h.h.h.h.h.h.h.h.h.h`g`g`w`w`w`w`w`8.C.C`V`V`V`V`V`V`V`V`V`V`V`V`V`V`V`b`o````",
"`````o`b`V`V`V`V`V`V`V.C.C`w`w`w`w`w`w`g`g`g.h.h.h.h.h.h.h.h.h.h`g`g`w`w`w`w`w`w`8.C.C`V`V`V`V`V`V`V`V`V`V`V`V`V`V`V`V`V`b`o````",
"`````J`E`V`V`V`V`V`V`V`V.C.C.C`w`w`w`w`w`w`w`w`w`w`w`g`g`w`w`w`w`w`w`w`w`w`w`8.C.C`V`V`V`V`V`V`V`V`V`V`V`V`V`V`V`V`V`V`V`E`J````",
"``````.d`V`V`V`V`V`V`V`V`V`V`V.C.C`8`w`w`w`w`w`w`w`w`w`w`w`w`w`w`w`w`w`8.C.C.C`V`V`V`V`V`V`V`V`V`V`V`V`V`V`V`V`V`V`V`V`V`u``````",
"```````a`V`V`V`V`V`V`V`V`V`V`V`V`V.C.C.C.C`8`8`w`w`w`w`w`w`w`w`8.C.C.C.C`V`V`V`V`V`V`V`V`V`V`V`V`V`V`V`V`V`V`V`V`V`V`V`V.f``````",
"```````T`d`V`V`V`V`V`V`V`V`V`V`V`V`V`V`V`V.C.C.C.C.C.C.C.C.C.C.C`V`V`V`V`V`V`V`V`V`V`V`V`V`V`V`V`V`V`V`V`V`V`V`V`V`V`V`B`T``````",
"`````````T.f`u`E`b`b`b`b`b`b`b`b`b`b`b`b`b`b`b`b`b`b`b`b`b`b`b`b`b`b`b`b`b`b`b`b`b`b`b`b`b`b`b`b`b`b`b`b`b`b`b`b`E`u.f`T````````",
"```````````````J`o`o`o`o`o`o`o`o`o`o`o`o`o`o`o`o`o`o`o`o`o`o`o`o`o`o`o`o`o`o`o`o`o`o`o`o`o`o`o`o`o`o`o`o`o`o`o`o`J``````````````",
"````````````````````````````````````````````````````````````````````````````````````````````````````````````````````````````````",
"````````````````````````````````````````````````````````````````````````````````````````````````````````````````````````````````"
};
