/* XPM */
static const char *wsiconcap32_xpm[] = {
/* columns rows colors chars-per-pixel */
"32 32 138 2",
"   c #000000",
".  c #050D02",
"X  c #071203",
"o  c #081605",
"O  c #0A1B04",
"+  c #131313",
"@  c #0D2307",
"#  c #0D2509",
"$  c #0E2809",
"%  c #112D09",
"&  c #153306",
"*  c #13340B",
"=  c #153C0E",
"-  c #242324",
";  c #343334",
":  c #3A3A3B",
">  c #19430D",
",  c #1E4B0A",
"<  c #194611",
"1  c #1B4A10",
"2  c #1E5112",
"3  c #23560A",
"4  c #245A0D",
"5  c #205711",
"6  c #235C14",
"7  c #28640D",
"8  c #266111",
"9  c #276B17",
"0  c #296A12",
"q  c #286F19",
"w  c #2E7A17",
"e  c #2E7C1B",
"r  c #403F40",
"t  c #434343",
"y  c #484748",
"u  c #4A4A4A",
"i  c #535353",
"p  c #5C5B5C",
"a  c #646364",
"s  c #646C60",
"d  c #6B6A6B",
"f  c #2F831F",
"g  c #348617",
"h  c #32891D",
"j  c #398911",
"k  c #3C9313",
"l  c #3D9816",
"z  c #3D9C1A",
"x  c #2F8521",
"c  c #338E22",
"v  c #359223",
"b  c #379923",
"n  c #399C23",
"m  c #3FA621",
"M  c #3AA328",
"N  c #3EAB27",
"B  c #3EAA28",
"V  c #3FB02A",
"C  c #599A39",
"Z  c #45A615",
"A  c #45A916",
"S  c #46AD19",
"D  c #49A919",
"F  c #46B31D",
"G  c #48B51D",
"H  c #40A721",
"J  c #42AB21",
"K  c #47B620",
"L  c #41B329",
"P  c #47B921",
"I  c #44BC2C",
"U  c #4AB622",
"Y  c #48BC24",
"T  c #4DBE28",
"R  c #53B029",
"E  c #5AB634",
"W  c #5EBB3A",
"Q  c #60B238",
"!  c #62BC3F",
"~  c #66B440",
"^  c #63BE40",
"/  c #73A55A",
"(  c #75BC54",
")  c #78BC58",
"_  c #46C12C",
"`  c #49C126",
"'  c #4AC429",
"]  c #4BCB2D",
"[  c #44C030",
"{  c #4ACD30",
"}  c #4CD332",
"|  c #4DD936",
" . c #4EDD39",
".. c #50C22F",
"X. c #54C534",
"o. c #5BC33B",
"O. c #4EE13C",
"+. c #65C345",
"@. c #69C64C",
"#. c #6EC952",
"$. c #71CA55",
"%. c #74CA5A",
"&. c #7BC35E",
"*. c #79C95E",
"=. c #7DC662",
"-. c #81C264",
";. c #80C866",
":. c #84CB6B",
">. c #8EC473",
",. c #8ACD74",
"<. c #8ECD79",
"1. c #91C577",
"2. c #92C77A",
"3. c #92CC7D",
"4. c #8F928D",
"5. c #95A88C",
"6. c #9AAF90",
"7. c #9EB294",
"8. c #A0B497",
"9. c #A3B79A",
"0. c #A6B99E",
"q. c #ABBDA4",
"w. c #B2BAAE",
"e. c #B5BEB0",
"r. c #96CB80",
"t. c #9CC787",
"y. c #99CB85",
"u. c #9DCC8A",
"i. c #A0CF8E",
"p. c #ABCF9C",
"a. c #A3D093",
"s. c #A7D098",
"d. c #AFC0A9",
"f. c #AFCDA1",
"g. c #B3C1AD",
"h. c #B2CDA5",
"j. c #B6C1B1",
"k. c None",
/* pixels */
"k.k.; : t u i i p p p a a d d d d d d d a a a p p i y : ; - k.k.",
"k.+ 4.w.w.e.j.e.j.j.j.j.g.g.g.g.d.d.d.d.q.q.0.0.9.7.7.6.5.s . k.",
"  O / h.h.h.h.h.f.p.p.p.s.s.s.a.a.i.i.u.i.u.y.y.3.2.2.2.1.C o   ",
"  , D ) t.t.y.y.y.r.r.r.3.<.<.<.,.,.,.:.:.;.;.=.=.&.) ( Q D ,   ",
"  3 Z Z ~ -.-.-.=.=.=.=.*.*.%.%.#.#.#.@.@.+.^ ^ W W E R A A 3   ",
"  3 A Z A R ! ^ ^ W o.o.o.o.X.X.X.X.X.....T T T P P S S A A 3   ",
"  3 A Z A S D U U T Y T ' ' _ ' ] ' ' ] Y K H J P U G S S A 3   ",
"  3 A A D F G U P P ' ' ' ' ] ] { I v 6 * @ X * K P P G S S 4   ",
"  3 A A S F F K Y ` _ ' ' ] { _ x $ . @ < 2 . , I P P G S S 4   ",
"  3 A S S F K Y Y Y _ ] ] { N > . < v _ ] e . n ' Y Y G G G 4   ",
"  3 A S F F Y Y ` ' ' ] { b @ $ v } | } { > = _ ' ` Y P G G 4   ",
"  3 S S F G Y Y ` ` ] } M o = V  . . . .V o q ] ' ` Y P K G 4   ",
"  3 S S G P Y Y ` ' { V $ * [ O. . . . .M X v ] ' ` ` P P G 4   ",
"  3 S S G G Y Y ` ] ' 1 @ V  . .O.O. . .c X N { ' ` ` Y G G 4   ",
"  4 S S G P P Y ' ] h . f |  .O.O.O.O. .x O L ] ] ' ` P P G 4   ",
"  3 S S G K Y Y ` ` * = { } | O.O.O. . .x O L ] ' ' ` Y P P 4   ",
"  3 S S F Y Y ` ' h X c }  .}  .O. . . .c o N { ' ` ` G K F 4   ",
"  3 S S F G G G ` > $ _ } } } |  .| | | b X b { ' ` ` Y K F 8   ",
"  3 S S S G ` ` m o 9 { ] } } } | } ] | V o e ] ' ` Y Y G F 4   ",
"  3 S S S F G ` w X z ] ] ] { } ] } } ] _ $ 2 ' ` ` G G G F 4   ",
"  3 A A S F F G 1 $ K ' ] ] ] { ] } ] ] ] , $ Y ` Y G G S S 4   ",
"  4 A A S F G F % > ` ` ' ' ' ] ] ] ] ' ] e X z ` Y Y G F F 4   ",
"  & 7 7 7 7 0 8 X 8 ` ` _ ` ' ' ' ' ' ' ` m o > 0 0 0 0 7 7 &   ",
"  . X X X X X X O h G G Y ` Y Y _ Y _ ' Y ` 5 X X o X X X X .   ",
"  , k k k k k l z F G G P Y Y Y Y Y Y Y P P K z z z l k k k ,   ",
"  3 A Z Z Z A A S F F F F K P P Y P K K P G K G G S A A A A 3   ",
"  3 A Z Z Z Z A D S S S F F F F K F F F G F S S A A A Z Z A 3   ",
"  3 A Z Z Z Z Z Z A S S S F F S F F F F S S S A A A A Z Z A 3   ",
"  , Z Z Z Z Z Z Z Z Z A A S S S S S S A D A A A Z Z Z Z Z A ,   ",
"  O j A Z A Z Z Z A A A A A A A A S S A A A A A A Z A A A j o   ",
"k.  O , 3 3 3 3 3 3 3 3 3 3 3 3 3 3 3 3 3 3 3 3 3 3 3 3 , O   k.",
"k.k.                                                        k.k."
};
