/* XPM */
static char * wsiconcap32_xpm[] = {
"32 32 312 2",
"  	c None",
". 	c #000000",
"+ 	c #030E14",
"@ 	c #0A384E",
"# 	c #0C4059",
"$ 	c #0C4159",
"% 	c #0C415A",
"& 	c #0D425B",
"* 	c #0E435C",
"= 	c #0E445D",
"- 	c #0F455E",
"; 	c #0F465F",
"> 	c #10465F",
", 	c #104660",
"' 	c #0C425A",
") 	c #146F99",
"! 	c #1679A7",
"~ 	c #177BA9",
"{ 	c #197DAC",
"] 	c #1A7FAE",
"^ 	c #1C81B0",
"/ 	c #1D82B2",
"( 	c #1E84B3",
"_ 	c #1F85B4",
": 	c #1F86B5",
"< 	c #2086B6",
"[ 	c #2087B6",
"} 	c #1F85B5",
"| 	c #177BAA",
"1 	c #197EAC",
"2 	c #1B80AF",
"3 	c #1C82B1",
"4 	c #2087B7",
"5 	c #2188B8",
"6 	c #2289B9",
"7 	c #228ABA",
"8 	c #238ABA",
"9 	c #1D82B1",
"0 	c #187BAA",
"a 	c #1D83B2",
"b 	c #2189B9",
"c 	c #238ABB",
"d 	c #248CBC",
"e 	c #248DBD",
"f 	c #258DBE",
"g 	c #258EBE",
"h 	c #1A7EAD",
"i 	c #268FC0",
"j 	c #2790C1",
"k 	c #2891C2",
"l 	c #167AA8",
"m 	c #187DAB",
"n 	c #1B7FAE",
"o 	c #2791C2",
"p 	c #2992C4",
"q 	c #2994C5",
"r 	c #2A94C6",
"s 	c #2A95C6",
"t 	c #2A94C5",
"u 	c #258BBA",
"v 	c #248AB9",
"w 	c #238BBB",
"x 	c #197DAB",
"y 	c #1E84B4",
"z 	c #2892C3",
"A 	c #2B96C7",
"B 	c #2C97C9",
"C 	c #2D98CA",
"D 	c #22759C",
"E 	c #14465E",
"F 	c #0A2430",
"G 	c #040E12",
"H 	c #010406",
"I 	c #05131A",
"J 	c #2188B7",
"K 	c #1E85B4",
"L 	c #1A7FAD",
"M 	c #1D83B3",
"N 	c #248CBD",
"O 	c #2C97C8",
"P 	c #2D99CB",
"Q 	c #2E9ACC",
"R 	c #2F9BCD",
"S 	c #1F6687",
"T 	c #081A22",
"U 	c #051116",
"V 	c #103546",
"W 	c #15475F",
"X 	c #010203",
"Y 	c #0F3547",
"Z 	c #1E83B3",
"` 	c #0D435C",
" .	c #1C81B1",
"..	c #268EBF",
"+.	c #2E99CB",
"@.	c #2F9CCE",
"#.	c #2B8CB9",
"$.	c #0E2C3B",
"%.	c #000101",
"&.	c #103242",
"*.	c #26789F",
"=.	c #309CCE",
"-.	c #1D6080",
";.	c #2480AB",
">.	c #2891C3",
",.	c #238BBC",
"'.	c #187CAA",
").	c #1F86B6",
"!.	c #2993C4",
"~.	c #2B96C8",
"{.	c #277FA7",
"].	c #061217",
"^.	c #07141B",
"/.	c #26769A",
"(.	c #35A3D6",
"_.	c #34A2D5",
":.	c #33A1D4",
"<.	c #329FD1",
"[.	c #0D2B39",
"}.	c #0C2A37",
"|.	c #2C96C8",
"1.	c #2993C5",
"2.	c #258DBD",
"3.	c #2983AD",
"4.	c #040C10",
"5.	c #0C2530",
"6.	c #3296C5",
"7.	c #37A7DA",
"8.	c #37A6D9",
"9.	c #35A4D7",
"0.	c #329CCD",
"a.	c #020709",
"b.	c #1A5874",
"c.	c #258EBF",
"d.	c #268FBF",
"e.	c #2D92C1",
"f.	c #061319",
"g.	c #0B202B",
"h.	c #349DCD",
"i.	c #39A9DC",
"j.	c #3AAADE",
"k.	c #39A9DD",
"l.	c #37A6DA",
"m.	c #2C86B0",
"n.	c #2579A1",
"o.	c #103648",
"p.	c #040D11",
"q.	c #3092C0",
"r.	c #38A8DC",
"s.	c #3BABDF",
"t.	c #3CADE2",
"u.	c #3DADE2",
"v.	c #267498",
"w.	c #2C8FBD",
"x.	c #2790C0",
"y.	c #0F455F",
"z.	c #227195",
"A.	c #226B8C",
"B.	c #36A5D8",
"C.	c #39A8DC",
"D.	c #3BACE0",
"E.	c #2C5D74",
"F.	c #727D82",
"G.	c #727D81",
"H.	c #727C81",
"I.	c #70777A",
"J.	c #6C6D6D",
"K.	c #717A7F",
"L.	c #717B80",
"M.	c #707A7F",
"N.	c #39454A",
"O.	c #1D698D",
"P.	c #2B95C7",
"Q.	c #09202A",
"R.	c #0C2632",
"S.	c #33A0D3",
"T.	c #36A4D8",
"U.	c #3E677A",
"V.	c #FFFFFF",
"W.	c #898989",
"X.	c #7A7E80",
"Y.	c #1B678A",
"Z.	c #1F6D92",
"`.	c #24759A",
" +	c #32A0D3",
".+	c #3D6678",
"++	c #E9E9E9",
"@+	c #666A6C",
"#+	c #186387",
"$+	c #0E3142",
"%+	c #091D27",
"&+	c #2F9ACC",
"*+	c #319ED1",
"=+	c #35A3D7",
"-+	c #3D6477",
";+	c #C5C5C5",
">+	c #8A8A8A",
",+	c #878787",
"'+	c #34454D",
")+	c #2589B7",
"!+	c #020608",
"~+	c #18536F",
"{+	c #33A1D3",
"]+	c #3C6375",
"^+	c #FDFDFD",
"/+	c #F9F9F9",
"(+	c #F5F5F5",
"_+	c #F1F1F1",
":+	c #5B6B72",
"<+	c #1A6588",
"[+	c #247EA8",
"}+	c #319DD0",
"|+	c #329FD2",
"1+	c #3B6274",
"2+	c #FCFCFC",
"3+	c #F8F8F8",
"4+	c #F4F4F4",
"5+	c #F0F0F0",
"6+	c #ECECEC",
"7+	c #596970",
"8+	c #0F3D52",
"9+	c #05141B",
"0+	c #2F9BCE",
"a+	c #3A6072",
"b+	c #E8E8E8",
"c+	c #57676E",
"d+	c #081F2A",
"e+	c #0D3445",
"f+	c #395F71",
"g+	c #FEFEFE",
"h+	c #FBFBFB",
"i+	c #F7F7F7",
"j+	c #F3F3F3",
"k+	c #EFEFEF",
"l+	c #EBEBEB",
"m+	c #E7E7E7",
"n+	c #E3E3E3",
"o+	c #55656C",
"p+	c #072837",
"q+	c #0D4A66",
"r+	c #0E4B67",
"s+	c #0F4D69",
"t+	c #104E6B",
"u+	c #12506D",
"v+	c #13526F",
"w+	c #134C66",
"x+	c #385E70",
"y+	c #DFDFDF",
"z+	c #525B60",
"A+	c #082837",
"B+	c #000001",
"C+	c #010405",
"D+	c #19688C",
"E+	c #375D6E",
"F+	c #FAFAFA",
"G+	c #F6F6F6",
"H+	c #F2F2F2",
"I+	c #EEEEEE",
"J+	c #EAEAEA",
"K+	c #E6E6E6",
"L+	c #E2E2E2",
"M+	c #DEDEDE",
"N+	c #DADADA",
"O+	c #4D4D4D",
"P+	c #365B6C",
"Q+	c #D6D6D6",
"R+	c #505F66",
"S+	c #35596A",
"T+	c #EDEDED",
"U+	c #E5E5E5",
"V+	c #E1E1E1",
"W+	c #DDDDDD",
"X+	c #D9D9D9",
"Y+	c #D5D5D5",
"Z+	c #D1D1D1",
"`+	c #4E5D64",
" @	c #335768",
".@	c #CDCDCD",
"+@	c #4C5C63",
"@@	c #177AA8",
"#@	c #315566",
"$@	c #E4E4E4",
"%@	c #E0E0E0",
"&@	c #DCDCDC",
"*@	c #D8D8D8",
"=@	c #D4D4D4",
"-@	c #D0D0D0",
";@	c #CCCCCC",
">@	c #C8C8C8",
",@	c #4B5A61",
"'@	c #177AA9",
")@	c #1E4557",
"!@	c #7A7D7F",
"~@	c #787B7D",
"{@	c #76797B",
"]@	c #747779",
"^@	c #727577",
"/@	c #707375",
"(@	c #6E7172",
"_@	c #6C6F70",
":@	c #6A6D6E",
"<@	c #686B6C",
"[@	c #66696A",
"}@	c #283C45",
"|@	c #187AA8",
"1@	c #1779A6",
"2@	c #1778A5",
"3@	c #1677A4",
"4@	c #1676A3",
"5@	c #1576A3",
"6@	c #1576A2",
"7@	c #0A394E",
"    . . . . . . . . . . . . . . . . . . . . . . . . . . . .     ",
"  . + @ # # # $ % & * = - ; > , , , , > ; - = * & ' $ # @ + .   ",
". + ) ! ! ! ! ~ { ] ^ / ( _ : < [ [ < : } ( / ^ ] { ~ ! ! ) + . ",
". @ ! ! ! ! | 1 2 3 ( : 4 5 6 7 8 8 7 6 5 4 : ( 9 2 1 0 ! ! @ . ",
". # ! ! ! ~ 1 2 a _ 4 b c d e f g g g e d c 6 4 } a 2 h 0 ! # . ",
". # ! ! ~ { 2 a } 5 7 d g i j k k k k j i g d 7 5 } a 2 1 ~ # . ",
". # ! l m n / } 5 c e i o p q r s s s t p o u v w 5 } a 2 x % . ",
". # ! | h ^ y 4 8 e i z t A B C C C D E F G H I f c J K 3 L & . ",
". # l x 2 M < 6 N i z r O P Q R S T . U V W X Y i e 7 [ Z 2 ` . ",
". # ~ h  .K 5 w ..k r B +.@.#.$.%.&.*.=.=.-.X ;.>...,.5 _ 3 = . ",
". $ '.] a ).6 e j !.~.+.=.{.].^./.(._.:.<.[.}.|.1.j 2.7 < a = . ",
". % x 2 ( 4 c g k s C R 3.4.5.6.7.7.8.9.0.a.b.C s >.c.w 4 ( - . ",
". % { ^ y 5 ,.d.z A +.e.f.g.h.i.j.j.k.l.m.. n.+.~.!.i d 5 K - . ",
". % 1 ^ K 5 d i !.|.Q o.p.q.r.s.t.u.s.r.v.%.w.Q O !.x.d 5 _ y.. ",
". % 1 ^ _ 5 d i !.O z.%.A.B.C.D.E.F.G.H.I.J.K.L.M.N.O.N b } ; . ",
". % 1 ^ K 5 d i !.P.Q.R.S.T.r.s.U.V.V.V.V.V.V.V.V.W.X.Y.5 _ y.. ",
". % { ^ y 5 ,.d.z Z.. `. +(.8.C..+V.V.V.V.V.V.V.V.W.++@+#+y - . ",
". % x 2 ( 4 c g k $+%+&+*+:.=+8.-+V.V.V.V.V.V.V.V.;+>+,+'+( - . ",
". $ '.] a ).6 e )+!+~++.=.*+{+_.]+V.V.V.V.V.V.V.^+/+(+_+:+a = . ",
". # ~ h ^ K 5 w <+%.[+B +.@.}+|+1+V.V.V.V.V.V.2+3+4+5+6+7+3 = . ",
". # l x 2 a < 6 8+9+k r O P Q 0+a+V.V.V.V.V.2+3+4+5+6+b+c+2 ` . ",
". # ! | h  .y 4 d+e+i z t A B C f+V.V.V.g+h+i+j+k+l+m+n+o+L & . ",
". p+q+r+s+t+u+v+a.w+e i o p q r x+V.V.g+h+i+j+k+l+m+n+y+z+s+A+. ",
". . B+B+B+B+B+B+C+D+7 d g i j k E+V.g+F+G+H+I+J+K+L+M+N+O+B+. . ",
". # ! ! ! ~ 1 2 a _ 4 b c d e f P+^+F+G+_+I+J+K+L+M+N+Q+R+! # . ",
". # ! ! ! ! | 1 2 3 ( : 4 5 6 7 S+/+(+_+T+++U+V+W+X+Y+Z+`+! # . ",
". # ! ! ! ! ! ~ { ] ^ / ( _ : <  @4+5+T+++U+V+W+X+Y+Z+.@+@! # . ",
". # ! ! ! ! ! ! @@'.1 ] 2  .9 a #@5+6+b+$@%@&@*@=@-@;@>@,@! # . ",
". @ ! ! ! ! ! ! ! ! '@'.{ h ] n )@!@~@{@]@^@/@(@_@:@<@[@}@! @ . ",
". + ) ! ! ! ! ! ! ! ! ! l ~ 0 '.|@1@2@2@3@4@5@6@6@6@6@6@3@) + . ",
"  . + 7@# # # # # # # # # # # $ $ $ $ # # # # # # # # # 7@+ .   ",
"    . . . . . . . . . . . . . . . . . . . . . . . . . . . .     "};
