/* XPM */
static const char * wsicon64_xpm[] = {
"64 64 395 2",
"  	c None",
". 	c #000000",
"+ 	c #010304",
"@ 	c #020B0E",
"# 	c #020C11",
"$ 	c #020D11",
"% 	c #020D12",
"& 	c #030D12",
"* 	c #010406",
"= 	c #0A364A",
"- 	c #126489",
"; 	c #15739E",
"> 	c #1576A3",
", 	c #1676A3",
"' 	c #1677A4",
") 	c #1778A5",
"! 	c #1779A6",
"~ 	c #187AA7",
"{ 	c #197BA8",
"] 	c #197BA9",
"^ 	c #1A7CAA",
"/ 	c #1B7DAB",
"( 	c #1B7EAB",
"_ 	c #1B7EAC",
": 	c #1C7FAD",
"< 	c #1C80AE",
"[ 	c #1D80AE",
"} 	c #1D81AF",
"| 	c #1C7EAC",
"1 	c #1879A6",
"2 	c #0F5170",
"3 	c #1679A6",
"4 	c #1679A7",
"5 	c #167AA8",
"6 	c #177BA9",
"7 	c #187CAA",
"8 	c #197DAB",
"9 	c #197EAC",
"0 	c #1A7FAD",
"a 	c #1B80AE",
"b 	c #1B80AF",
"c 	c #1C81B0",
"d 	c #1C82B1",
"e 	c #1D83B2",
"f 	c #1D83B3",
"g 	c #1E84B3",
"h 	c #1E84B4",
"i 	c #1F85B4",
"j 	c #1F85B5",
"k 	c #1F86B5",
"l 	c #1D82B1",
"m 	c #1A7FAE",
"n 	c #197EAD",
"o 	c #187CAB",
"p 	c #197DAC",
"q 	c #1A7EAD",
"r 	c #1B7FAE",
"s 	c #1F86B6",
"t 	c #2086B6",
"u 	c #2087B7",
"v 	c #2187B7",
"w 	c #2188B7",
"x 	c #2087B6",
"y 	c #177BAA",
"z 	c #177AA8",
"A 	c #12648A",
"B 	c #2188B8",
"C 	c #2189B9",
"D 	c #2289B9",
"E 	c #228ABA",
"F 	c #1E85B4",
"G 	c #187DAB",
"H 	c #187BAA",
"I 	c #020B0F",
"J 	c #197CAB",
"K 	c #238ABA",
"L 	c #238BBB",
"M 	c #238BBC",
"N 	c #238ABB",
"O 	c #1E83B3",
"P 	c #1D82B2",
"Q 	c #248CBC",
"R 	c #248CBD",
"S 	c #248DBD",
"T 	c #258DBD",
"U 	c #2189B8",
"V 	c #1C81B1",
"W 	c #258DBE",
"X 	c #258EBE",
"Y 	c #258EBF",
"Z 	c #268EBF",
"` 	c #268FBF",
" .	c #1B80B0",
"..	c #268FC0",
"+.	c #2790C0",
"@.	c #2790C1",
"#.	c #2790C2",
"$.	c #2791C2",
"%.	c #177AA9",
"&.	c #2690C0",
"*.	c #2891C2",
"=.	c #2892C3",
"-.	c #2892C4",
";.	c #2992C4",
">.	c #2993C4",
",.	c #2993C5",
"'.	c #2A94C5",
").	c #2791C1",
"!.	c #2994C5",
"~.	c #2A95C6",
"{.	c #2B95C7",
"].	c #2B96C7",
"^.	c #2A94C6",
"/.	c #258BBA",
"(.	c #2384B2",
"_.	c #2282AE",
":.	c #2C96C8",
"<.	c #2C97C9",
"[.	c #2C98C9",
"}.	c #2D98CA",
"|.	c #2B94C5",
"1.	c #22779E",
"2.	c #195875",
"3.	c #103A4D",
"4.	c #0A2531",
"5.	c #051218",
"6.	c #030A0D",
"7.	c #02080A",
"8.	c #02070A",
"9.	c #0E374A",
"0.	c #2188B9",
"a.	c #2B96C8",
"b.	c #2C97C8",
"c.	c #2D99CA",
"d.	c #2D99CB",
"e.	c #2E99CB",
"f.	c #2E99CC",
"g.	c #2D97C8",
"h.	c #216F93",
"i.	c #11394C",
"j.	c #040F14",
"k.	c #000202",
"l.	c #1879A7",
"m.	c #2E9ACC",
"n.	c #2F9BCD",
"o.	c #2C91C0",
"p.	c #19546F",
"q.	c #061319",
"r.	c #010506",
"s.	c #040E13",
"t.	c #010405",
"u.	c #124359",
"v.	c #1B81B0",
"w.	c #187AA8",
"x.	c #2F9BCE",
"y.	c #309CCF",
"z.	c #2F99CB",
"A.	c #1D5F7E",
"B.	c #040E12",
"C.	c #000102",
"D.	c #103546",
"E.	c #1B5B79",
"F.	c #2479A0",
"G.	c #2A8EBD",
"H.	c #257EA7",
"I.	c #020608",
"J.	c #040D12",
"K.	c #2587B4",
"L.	c #238CBC",
"M.	c #2F9ACD",
"N.	c #309DCF",
"O.	c #2881AB",
"P.	c #0D2936",
"Q.	c #020709",
"R.	c #103444",
"S.	c #226F92",
"T.	c #2E97C7",
"U.	c #2F9CCE",
"V.	c #15465D",
"W.	c #17516C",
"X.	c #309CCE",
"Y.	c #1C5A77",
"Z.	c #02080B",
"`.	c #133D50",
" +	c #2B86B1",
".+	c #33A0D2",
"++	c #32A0D2",
"@+	c #329FD2",
"#+	c #319ED1",
"$+	c #309DD0",
"%+	c #2C91C1",
"&+	c #2788B5",
"*+	c #2B95C6",
"=+	c #319DD0",
"-+	c #3099CA",
";+	c #15455A",
">+	c #010203",
",+	c #0A1E27",
"'+	c #27789E",
")+	c #34A1D4",
"!+	c #34A2D5",
"~+	c #33A1D4",
"{+	c #33A0D3",
"]+	c #319FD1",
"^+	c #216D90",
"/+	c #113A4D",
"(+	c #1A7DAA",
"_+	c #2E9ACD",
":+	c #2E94C4",
"<+	c #0F3140",
"[+	c #000101",
"}+	c #1A4F68",
"|+	c #339DCE",
"1+	c #36A4D7",
"2+	c #35A3D7",
"3+	c #35A3D6",
"4+	c #329FD1",
"5+	c #144156",
"6+	c #216E92",
"7+	c #0F303F",
"8+	c #236A8B",
"9+	c #37A6D9",
"0+	c #36A5D9",
"a+	c #36A4D8",
"b+	c #35A4D7",
"c+	c #34A2D6",
"d+	c #319CCD",
"e+	c #081A22",
"f+	c #040C10",
"g+	c #2B8EBD",
"h+	c #123B4F",
"i+	c #050F13",
"j+	c #297DA4",
"k+	c #38A7DA",
"l+	c #38A7DB",
"m+	c #38A8DB",
"n+	c #37A6DA",
"o+	c #36A5D8",
"p+	c #2E91BE",
"q+	c #0D2B39",
"r+	c #174C64",
"s+	c #2A7FA7",
"t+	c #39A8DC",
"u+	c #39A9DD",
"v+	c #3AA9DD",
"w+	c #26769C",
"x+	c #164961",
"y+	c #2891C3",
"z+	c #1677A5",
"A+	c #2A95C7",
"B+	c #247499",
"C+	c #010202",
"D+	c #257295",
"E+	c #39A9DC",
"F+	c #3AAADE",
"G+	c #3BABDF",
"H+	c #1D5B78",
"I+	c #1F6585",
"J+	c #2C8FBD",
"K+	c #06131A",
"L+	c #1E5E7C",
"M+	c #37A7DA",
"N+	c #3CACE1",
"O+	c #3CADE1",
"P+	c #3BABE0",
"Q+	c #184961",
"R+	c #267CA3",
"S+	c #2992C3",
"T+	c #2F9ACC",
"U+	c #113749",
"V+	c #35A1D4",
"W+	c #3AABDF",
"X+	c #3DAEE2",
"Y+	c #3DAFE3",
"Z+	c #133C4E",
"`+	c #2A87B2",
" @	c #2C98CA",
".@	c #237398",
"+@	c #051117",
"@@	c #2F92C0",
"#@	c #3FB0E5",
"$@	c #3CADE2",
"%@	c #38A8DC",
"&@	c #0F303E",
"*@	c #03080B",
"=@	c #2C8EBB",
"-@	c #2C95C6",
";@	c #0A222D",
">@	c #206585",
",@	c #3EB0E5",
"'@	c #0F2D3B",
")@	c #030A0E",
"!@	c #2D90BE",
"~@	c #1C6180",
"{@	c #0A212C",
"]@	c #329ED1",
"^@	c #37A5D9",
"/@	c #0E2C39",
"(@	c #030B0E",
"_@	c #2B93C3",
":@	c #091D27",
"<@	c #25789E",
"[@	c #32A0D3",
"}@	c #0F2E3D",
"|@	c #03090C",
"1@	c #2C8EBC",
"2@	c #1E688B",
"3@	c #0D2A38",
"4@	c #12384A",
"5@	c #2A89B5",
"6@	c #2A93C4",
"7@	c #0B2734",
"8@	c #227094",
"9@	c #154357",
"0@	c #237CA5",
"a@	c #091F29",
"b@	c #2E97C8",
"c@	c #319ED0",
"d@	c #1A526C",
"e@	c #226E92",
"f@	c #14475F",
"g@	c #195672",
"h@	c #206586",
"i@	c #1B5A77",
"j@	c #268DBC",
"k@	c #06181F",
"l@	c #2786B2",
"m@	c #277DA4",
"n@	c #123E52",
"o@	c #2079A2",
"p@	c #0C2B3A",
"q@	c #2D93C2",
"r@	c #09202A",
"s@	c #15516C",
"t@	c #185471",
"u@	c #33A1D3",
"v@	c #2F9ACB",
"w@	c #0A202A",
"x@	c #030B0F",
"y@	c #298BB9",
"z@	c #0B2938",
"A@	c #227AA3",
"B@	c #123D51",
"C@	c #22769D",
"D@	c #1A7EAC",
"E@	c #2285B3",
"F@	c #06171E",
"G@	c #278EBE",
"H@	c #1B5D7B",
"I@	c #164F69",
"J@	c #1A678B",
"K@	c #0F3A4E",
"L@	c #2682AD",
"M@	c #0A2431",
"N@	c #2891C1",
"O@	c #134B66",
"P@	c #185B7B",
"Q@	c #2A92C3",
"R@	c #081E27",
"S@	c #2383AF",
"T@	c #0C3243",
"U@	c #1E729A",
"V@	c #2D98C9",
"W@	c #13455D",
"X@	c #185A78",
"Y@	c #061922",
"Z@	c #2182AF",
"`@	c #1F7298",
" #	c #092431",
".#	c #000304",
"+#	c #051B26",
"@#	c #051C27",
"##	c #051D28",
"$#	c #061D28",
"%#	c #061E28",
"&#	c #061E29",
"*#	c #071E29",
"=#	c #071F2A",
"-#	c #061A23",
";#	c #071D26",
">#	c #08202B",
",#	c #08212C",
"'#	c #08202C",
")#	c #07202B",
"!#	c #051C26",
"~#	c #0A2B3B",
"{#	c #144F6A",
"]#	c #030E13",
"^#	c #186487",
"/#	c #2183B0",
"(#	c #08222E",
"_#	c #1679A8",
":#	c #187BA9",
"<#	c #0A364B",
"[#	c #010305",
"          . . . . . . . . . . . . . . . . . . . . . . . . . . . . . . . . . . . . . . . . . . . . . . . . . . . . . .           ",
"      . . . . . . . . . . . . . . . . . . . . . . . . . . . . . . . . . . . . . . . . . . . . . . . . . . . . . . . . . .       ",
"    . . . . + @ # # # # # # # # # $ $ % % & & & & & & & & & & & & & & & & & & & & & & & & & & % % $ $ # # # # # @ + . . . .     ",
"  . . . * = - ; > > > > > > > , ' ) ! ~ { ] ^ / ( _ : : < [ [ } } } } } } [ [ [ : : | _ / ^ ] { ~ 1 ) ' , > > > ; - = * . . .   ",
"  . . * 2 3 4 4 4 4 4 4 4 4 5 6 7 8 9 0 a b c d e f g h i j j k k k k k k j j i h g f e l c b b m n 8 7 6 5 4 4 4 4 3 2 * . .   ",
". . . = 3 4 4 4 4 4 4 4 4 5 6 o p q r b c d e g h i j s t u u v w w w w v u u x t k j h g e d c b r q p o y z 4 4 4 4 3 = . . . ",
". . + A 4 4 4 4 4 4 4 4 5 6 o 9 0 b c d e g h j s x u B B C D D D E E D D D C B B u x s j F g e d c b m 9 G H z 4 4 4 4 A + . . ",
". . I ; 4 4 4 4 4 4 4 5 6 J 9 m b c l f h j s x w B D D E K L L L M M L L L N E D D B B u s j h O P c b m 9 8 H z 4 4 4 ; I . . ",
". . # > 4 4 4 4 4 4 5 H J n m b c e g F k x w B D E L M Q Q R S S T T T S S R Q M L E D U B u s i g e d b m n 8 H z 4 4 > # . . ",
". . # > 4 4 4 4 4 5 6 o 9 m b V e g j t u B D E L Q R S W X Y Z ` ` ` ` ` Y Y W W R Q L E D B u t j h e d  .m 9 G y 5 4 > # . . ",
". . # > 4 4 4 4 4 6 o 9 m b V e g j t w C E L Q R W X ` ..+.@.@.@.#.$.@.@.@.+...` Y W R Q L E C B x j h e d b m 9 o 6 5 > # . . ",
". . # > 4 4 4 4 %.7 p 0 b c e g j t B D E L R W Y ..&.@.$.*.=.=.=.=.-.=.=.=.*.$.@.@...Y W R M K D B x j h e d b m p 7 6 > # . . ",
". . # > 4 4 4 5 H 8 q b c P g j x B D K M S X ` &.@.*.=.;.>.,.'.'.'.'.'.'.,.>.>.=.*.).+.` X S Q N D B x j h e c b q p 7 ' # . . ",
". . # > 4 4 4 6 o 9 m c l g i t B D N Q S Y ..@.*.=.>.!.'.~.{.].].].].].].{.~.^.!.>.=.*./.(._.T Q L D B x j g P c r n o ) # . . ",
". . # > 4 4 z H p 0 b d e F t v D K Q S Y ..@.=.;.!.^.{.].:.<.<.[.}.}.[.<.<.|.1.2.3.4.5.6.7.8.9.W Q L D B t i O d b m p ! $ . . ",
". . # > 4 4 6 o q a c e h k u 0.E M S Y ..$.=.>.'.~.a.b.<.}.c.d.e.f.f.g.h.i.j.k.. . . . . . . j.Z W Q K C u s h e c b q l.$ . . ",
". . # > 4 5 H p m b l g j x B E L S X ..$.=.>.^.{.b.[.}.e.m.m.n.n.o.p.q.. . . . . k.r.s.t.. . u.&.Y S M E B u j g l v.m w.% . . ",
". . # > 4 6 o n a c e h s u D L R X ..@.=.>.^.].<.}.d.m.n.x.y.z.A.B.. . . C.s.D.E.F.G.H.I.. J.K.$...X R L D B t F e c b { % . . ",
". . # > 5 y p 0 b d g j u B E L.W ` @.=.>.^.].<.}.e.M.x.y.N.O.P.. . . Q.R.S.T.y.U.n.f.V.. . W.>.=.@.` W Q K C u j g l b ] & . . ",
". . # > z 7 p m c e h s w D L R Y ..*.;.'.{.b.}.f.n.X.N.X.Y.Z.. . t.`. +.+++@+#+$+X.%+5.. 6.&+^.>.*.@.Z S L D B s h e c ^ & . . ",
". . # > 6 o q b d e i t B E M W ` @.=.,.*+:.}.e.n.X.=+-+;+>+. . ,+'+)+!+!+~+{+++]+=+^+. . /+:.{.!.=.$...W Q E B x j O d (+& . . ",
". . # , 6 8 0 b l g j u C N R X &.*.>.^.a.<.d._+X.=+:+<+[+. >+}+|+1+1+1+2+3+!+~+{+4+5+. . 6+[.a.^.>.*.@.Y R L D u k g l / & . . ",
". . # ' 7 p m c P h s w D L S Z @.=.!.{.b.}.m.x.N.-+7+. . 8.8+1+9+9+9+9+0+a+b+c+)+d+e+. f+g+}.<.{.!.=.@.` W M E B t h e ( & . . ",
". . # ' 7 9 r c e F t B E Q W ..$.;.'.].<.d.n.y.X.h+. . i+j+9+k+l+m+m+l+k+n+o+b+c+p+>+. q+n.e.[.a.^.>.*...X Q E B x i f _ & . . ",
". . # ' o q b V f j u B K Q X ..*.>.~.a.}.m.x.N.r+. . 6.s+n+l+t+u+v+v+u+t+l+n+o+b+w+. . x+U.m.}.b.~.>.y+@.Y R L C u j g | & . . ",
". . # z+J q b d g j u C L R Y @.=.,.A+b.}.m.X.B+C+. I.D+9+l+E+F+G+G+G+G+F+u+l+n+a+H+. . I+y.n.d.<.{.!.=.@.Z S L D u k g : & . . ",
". . # ) 8 q b d g j u D L S Z @.=.!.{.<.d.n.J+K+. C.L+o+M+t+F+G+N+O+O+N+P+F+t+l+0+Q+. . R+N.n.e.<.].'.S+@.` S L D w k g : & . . ",
". . # ) 8 0 b l g k u D L S ` @.=.'.].<.e.T+U+. . R.V+9+l+u+W+N+X+Y+Y+X+N+G+u+m+9+Z+. >+`+N.n.e. @a.'.;.$...T M E B k h : & . . ",
". . # ) 8 0 b l g k u D L T ` @.=.'.].<.e..@+ . +@@@b+9+m+v+G+O+Y+#@#@Y+$@P+F+%@n+&@. *@=@$+x.m.}.a.^.>.$...W M E B t h : & . . ",
". . # ) 8 0 b l g k u D L T ` @.=.'.].<.-@;@. . >@!+b+9+m+v+G+O+Y+,@#@Y+$@P+F+%@9+'@. )@!@$+x.m.}.a.^.>.$...W M E B t h : & . . ",
". . # ) 8 0 b l g k u D L T ` @.=.'.].<.~@[+. {@]@!+b+^@l+u+W+N+X+Y+Y+X+N+G+u+m+^@/@. (@!@$+n.e. @a.'.S+$...T M E B k h : & . . ",
". . # ) 8 q b d g j u D L S Z @.=.!.{._@:@. [+<@[@!+2+o+M+t+F+G+N+O+O+N+P+F+E+l+o+}@. |@1@N.n.e.<.].'.S+@.` S L D w k g : & . . ",
". . # z+J q b d g j u C L R Y @.=.,.{.2@[+. 3@X.@+~+3+a+9+l+u+F+W+G+G+W+F+u+l+n+a+4@. r.5@y.n.d.<.{.!.=.@.Z S L D u k g : & . . ",
". . # ' o q b V f j x U K Q X ..*.>.6@7@. [+8@N.4+{+!+2+o+n+l+t+u+v+v+u+t+l+n+o+2+9@. [+O.U.m.}.:.~.>.*.@.Y R L D u j g | & . . ",
". . # ' 7 9 r c e F t B E Q W ..$.;.0@t.. a@b@y.c@@+~+!+2+o+9+M+l+m+m+l+k+n+o+b+c+d@. . e@n.e. @a.^.>.$...X Q E B x i e _ & . . ",
". . # ' 7 p m c e h s B D L S Z @.=.f@. . g@m.x.N.#+[@~+!+2+a+0+9+9+9+9+0+a+b+c+~+h@. . i@m.c.<.{.!.=.@.` W M E B t h e ( & . . ",
". . # , 6 8 0 b l g j u C L R X +.j@k@. Z.l@d.M.X.=+4+[@~+!+3+2+b+b+b+b+2+3+!+~+[@m@. . n@e.[.a.^.>.*.@.Y R L D u k g l / & . . ",
". . # > 6 o q b d f i t B E Q W ` o@C.. p@].}.e.n.X.=+#+@+{+~+!+!+c+c+!+!+~+{+++4+q@*@. r@b.b.{.!.=.)...W Q E U u j O d (+& . . ",
". . # > z 7 9 m c e h s v D L R Y s@. . t@{.<.}.e.n.X.N.#+4+@+{+{+u@u@{+{+++@+#+$+v@w@. x@y@].^.>.*.@.Y S L D B t h e c ^ & . . ",
". . # > 5 y 8 0 b d g j x B E Q S z@. + A@^.].<.}.e.M.x.y.=+c@#+4+4+4+4+#+c@=+y.U.n.B@. . C@^.>.=.@...W Q K C u j g l b ] & . . ",
". . # > 4 6 o D@a c e h s v D L E@Z.. F@G@>.~.].<.}.d.m.n.x.X.y.N.$+$+N.N.X.U.n.m.d.H@. . I@,.=.$...X R L D B t F e c b { % . . ",
". . # > 4 z H p m b l g j x B E J@. . K@$.=.>.^.{.b.<.}.e.m.m.n.n.x.x.n.n.M.m.e.}.[.L@t.. M@N@$.&.Y S M E B u j g l v.m w.% . . ",
". . # > 4 4 6 o q a c e h k u C O@. . P@..$.=.>.'.~.].b.<.}.d.e.e.e.e.e.e.d.}.[.<.a.Q@R@. I.S@@.Z T Q K D u s h e c b q l.$ . . ",
". . # > 4 4 z H p 0 b d e F s v T@. >+U@Y ..@.=.>.,.^.{.].:.<.<.[.V@V@[.<.<.:.a.{.^.!.W@. . X@Z S Q N D B t i O d b m p ! $ . . ",
". . # > 4 4 4 6 o 9 m c l g i t Y@. x@Z@S Y ..@.*.=.>.,.^.~.{.{.].].].].].{.~.^.!.>.=.`@>+.  #Q Q N D B x j g P c r q G ) # . . ",
". . .#+#@#@#@#@###$#%#&#*#=#=#=#+ . -#K M S X ` +.@.*.=.;.>.,.!.'.^.^.'.!.,.>.>.=.*.@.j@;#. >+>#,#'#>#)#=#=#=#*#&#%#$###!#.#. . ",
". . . . . . . . . . . . . . . . . . ~#D E L R W Y ..+.@.$.*.=.=.=.=.=.=.=.=.*.$.@.+...Y {#. . . . . . . . . . . . . . . . . . . ",
". . . [+[+[+[+[+[+[+[+[+[+[+[+[+[+]#^#w C E L Q R W Y ` ..+.@.@.@.).).@.@.@.@...` Y W S /#(#C.[+[+[+[+[+[+[+[+[+[+[+[+[+[+. . . ",
". . # > 4 4 4 4 4 5 6 o 9 m b d e g j t u B D E L Q R S W X Z Z ` ....` ` Z Y W T R Q L E D B u t j h e d b m n 8 H z 4 > # . . ",
". . # > 4 4 4 4 4 4 5 6 G 9 m b c e g F k x v B D E L L Q R R S T W W T S R R Q L L E D B B u k i g e d b m n 8 H z 4 4 > # . . ",
". . # > 4 4 4 4 4 4 4 z 6 G 9 m b c l f h j s x v B D D E N L L L L L L L L N E E D B B u t j h O P c b m n 8 7 z 4 4 4 > # . . ",
". . # > 4 4 4 4 4 4 4 4 z 6 o 9 0 b c d e g h j s x u B B C D D D D D D D D C B B u x s j h g e d c b m 9 8 H z 4 4 4 4 > # . . ",
". . # > 4 4 4 4 4 4 4 4 4 5 6 7 p q m b c l e g h j j s t u u u u u u u u u u t s k j h g e l c b r q p o H z 4 4 4 4 4 > # . . ",
". . # > 4 4 4 4 4 4 4 4 4 4 5 6 7 8 9 0 a b c l e f g h F j j k k s s s k j j F h g O e l c v.b m q p 7 6 z 4 4 4 4 4 4 > # . . ",
". . # > 4 4 4 4 4 4 4 4 4 4 4 4 %.H o p q m a b c d l e e f g g g g g g g g O e e l d c b b m q p o H %.5 4 4 4 4 4 4 4 > # . . ",
". . # > 4 4 4 4 4 4 4 4 4 4 4 4 4 5 6 7 G p q 0 m b b c c d d l l l l l l d d c c b b r m q 9 G 7 6 z 4 4 4 4 4 4 4 4 4 > # . . ",
". . I ; 4 4 4 4 4 4 4 4 4 4 4 4 4 4 4 z 6 H o 8 9 q 0 m r b b b b v.v.b b b b a m 0 q 9 p o 7 6 z 4 4 4 4 4 4 4 4 4 4 4 ; I . . ",
". . + A 4 4 4 4 4 4 4 4 4 4 4 4 4 4 4 4 4 z 6 H 7 o p p 9 q q 0 0 m m 0 0 q q 9 p p G 7 H 6 z _#4 4 4 4 4 4 4 4 4 4 4 4 A + . . ",
". . . = 3 4 4 4 4 4 4 4 4 4 4 4 4 4 4 4 4 4 4 5 z 6 H 7 7 o 8 8 8 8 8 8 8 8 o 7 7 H 6 z 5 4 4 4 4 4 4 4 4 4 4 4 4 4 4 3 = . . . ",
"  . . * 2 3 4 4 4 4 4 4 4 4 4 4 4 4 4 4 4 4 4 4 4 4 5 z z 6 6 6 :#:#:#:#6 6 6 %.z 5 4 4 4 4 4 4 4 4 4 4 4 4 4 4 4 4 3 2 * . .   ",
"  . . . * <#A ; > > > > > > > > > > > > > > > > > > > > > > > , , , , , , , > > > > > > > > > > > > > > > > > > ; A <#* . . .   ",
"    . . . . [#I # # # # # # # # # # # # # # # # # # # # # # # # # # # # # # # # # # # # # # # # # # # # # # # # I [#. . . .     ",
"      . . . . . . . . . . . . . . . . . . . . . . . . . . . . . . . . . . . . . . . . . . . . . . . . . . . . . . . . . .       ",
"          . . . . . . . . . . . . . . . . . . . . . . . . . . . . . . . . . . . . . . . . . . . . . . . . . . . . . .           "};
