/* XPM */
static const char *wsiconcap48_xpm[] = {
/* columns rows colors chars-per-pixel */
"48 48 179 2",
"   c #010200",
".  c #040C02",
"X  c #0B0B0B",
"o  c #071303",
"O  c #081605",
"+  c #0A1B06",
"@  c #141415",
"#  c #1C1C1C",
"$  c #0D2306",
"%  c #0D2408",
"&  c #0F2B0A",
"*  c #102B0A",
"=  c #13350C",
"-  c #163A0C",
";  c #252525",
":  c #2C2C2C",
">  c #343434",
",  c #3B3B3B",
"<  c #17410F",
"1  c #19420D",
"2  c #1D4E0F",
"3  c #194510",
"4  c #1C4D12",
"5  c #1F5512",
"6  c #21500A",
"7  c #205614",
"8  c #225A12",
"9  c #2A670C",
"0  c #2C6B0D",
"q  c #246215",
"w  c #246619",
"e  c #276916",
"r  c #266818",
"t  c #296C15",
"y  c #286D19",
"u  c #2A7017",
"i  c #2B7319",
"p  c #2F7C17",
"a  c #2C7B1D",
"s  c #30750E",
"d  c #337B0F",
"f  c #337D10",
"g  c #307E18",
"h  c #434343",
"j  c #5E645B",
"k  c #6C6C6C",
"l  c #7D7D7C",
"z  c #2D801F",
"x  c #348213",
"c  c #31831A",
"v  c #378D17",
"b  c #33881C",
"n  c #398D13",
"m  c #3C9314",
"M  c #3B9618",
"N  c #3D9917",
"B  c #3D9C1B",
"V  c #338B20",
"C  c #359523",
"Z  c #379923",
"A  c #389720",
"S  c #3A9C21",
"D  c #3CA122",
"F  c #39A228",
"G  c #3EAA27",
"H  c #3EAE2A",
"J  c #4B872E",
"K  c #45A615",
"L  c #44A61A",
"P  c #45A916",
"I  c #45AD19",
"U  c #49A71A",
"Y  c #48A818",
"T  c #46B31D",
"R  c #48B31E",
"E  c #41AF25",
"W  c #4DAF22",
"Q  c #47B720",
"!  c #41B42A",
"~  c #47B821",
"^  c #44BB2C",
"/  c #4BB523",
"(  c #48BC23",
")  c #4BBF28",
"_  c #51B329",
"`  c #52BA2D",
"'  c #55BE32",
"]  c #5BB333",
"[  c #5EB638",
"{  c #5CBD39",
"}  c #63B23B",
"|  c #61BA3C",
" . c #679650",
".. c #64BE42",
"X. c #68B443",
"o. c #70BB4E",
"O. c #74BD54",
"+. c #7EBA60",
"@. c #47C22C",
"#. c #49C126",
"$. c #4AC529",
"%. c #4BCB2D",
"&. c #45C330",
"*. c #47C932",
"=. c #4BCF30",
"-. c #4CD02F",
";. c #4CD333",
":. c #4DD936",
">. c #4EDD39",
",. c #54C333",
"<. c #58C137",
"1. c #5BC33B",
"2. c #4EE13C",
"3. c #5EC640",
"4. c #63C544",
"5. c #67C749",
"6. c #64C847",
"7. c #65C848",
"8. c #6AC54C",
"9. c #6EC550",
"0. c #6FC853",
"q. c #73C153",
"w. c #77C258",
"e. c #71C956",
"r. c #75CA5B",
"t. c #79C55D",
"y. c #79CB5F",
"u. c #7CC761",
"i. c #7DC963",
"p. c #81BF62",
"a. c #82C466",
"s. c #85C46A",
"d. c #80C966",
"f. c #84CC6C",
"g. c #88C46E",
"h. c #87CD70",
"j. c #8CC672",
"k. c #8BCB74",
"l. c #8ECC78",
"z. c #95C77C",
"x. c #92CB7C",
"c. c #848484",
"v. c #8D8E8D",
"b. c #949593",
"n. c #979997",
"m. c #9B9C9B",
"M. c #97AC8D",
"N. c #9FA09E",
"B. c #9DBA8F",
"V. c #9FBC90",
"C. c #A2BE94",
"Z. c #A4A5A4",
"A. c #A7A8A7",
"S. c #A8A9A7",
"D. c #ABACAB",
"F. c #96CB81",
"G. c #99C782",
"H. c #99CC85",
"J. c #9DCE8A",
"K. c #A0CE8E",
"L. c #A6C19A",
"P. c #A4CC93",
"I. c #A9C39F",
"U. c #A8CB97",
"Y. c #ABCC9B",
"T. c #A5D095",
"R. c #AAD09C",
"E. c #ADC5A3",
"W. c #AECFA1",
"Q. c #B0C7A7",
"!. c #B2C7A9",
"~. c #B2CEA5",
"^. c #B5CBAB",
"/. c #B8CEAD",
"(. c #B7C8B0",
"). c #B9C7B3",
"_. c #BCC4B8",
"`. c #BAC8B4",
"'. c None",
/* pixels */
"'.'.    X X @ @ # ; ; : : : > > > > , , h h h h h h h h h h h h , , > > > : ; # # @ @ .     '.'.",
"'.  @ k c.v.n.m.m.Z.Z.Z.A.S.S.S.S.D.D.D.D.D.D.D.D.D.D.S.D.S.S.Z.Z.Z.Z.N.m.n.n.v.v.c.l k h     '.",
"    @ b._.`._.`.`.`.).).).).(.^.(.^.).!.(.~.!.~.^.Q.Q.E.E.E.E.E.I.L.L.L.L.C.C.C.C.C.V.M.j       ",
"    o  ././././.~./.!.~.~.~.~.~.W.W.W.Y.R.R.R.T.R.T.T.T.J.T.J.J.J.J.H.J.H.G.G.z.z.z.z.j.J o     ",
"    6 Y O.I.Y.Y.U.U.P.P.P.P.P.K.J.J.J.J.J.J.J.H.H.J.H.H.F.F.F.l.x.j.j.j.j.g.g.g.p.s.p.} K 6     ",
"    s K U O.G.G.G.G.z.F.z.x.x.x.x.x.l.l.k.h.h.h.h.h.i.i.i.i.i.i.u.u.u.t.t.w.q.q.O.o.] K P s     ",
"    d K K K X.g.s.s.s.d.d.d.d.d.i.i.i.i.i.i.y.y.r.r.e.e.0.0.e.0.8.8.8.4...| | | ] _ P K Y d     ",
"    d K K K K ] O.O.O.q.q.O.9.9.9.8.8.8.5.7.6.6.6.6.3.3.3.3.1.,.<.' ` ` ` ` _ / W P P L P d .   ",
"    f Y K K K P / [ { { { { { { <.<.<.<.,.,.,.,.=.*.,.$.$.) ) ) ) ( ( ~ ~ R T I T P T P P d     ",
"    d P K K P P P I / _ / ( ( ) ) ) ) $.$.#.$.$.$.$.$.$.$.$.$.$.#.) ) ( ( ~ ~ T T T I P P x     ",
"    d P K P P I I I Q Q T ( ( ( ( #.$.$.$.$.$.%.%.%.%.%.%./ E c u q 8 z ~ ~ ~ R T T T P I x     ",
"  . d P P P I P I Q I Q ~ ( ( #.$.$.$.$.$.%.%.%.%.=.^ b 7 * X         $ Q / ~ ~ T T I I P x     ",
"    d P P P P T Q Q Q ~ ( ( #.#.$.$.$.$.*.*.=.-.^ i * .     O * -     5 ( ( ( ~ T T T T I x     ",
"    d P P I T P I Q Q ~ ( ( #.$.$.$.,.*.=.=.,.b *     + 7 V E @.b   O D $.#.( ~ ~ T T T I x .   ",
"    f Y P P T T Q Q Q ( ( ) #.$.$.$.%.-.=.^ 5 .   % a ^ =.;.;.%.4   5 $.) #.( ( ~ ~ I T T x     ",
"    f Y P T T T Q Q ~ ( ) ) @.$.%.%.-.-.H =   o w ^ ;.;.;.;.;.! +   B %.#.) #.( ( ~ T T R x     ",
"    d I I I T T T #.T ( #.$.$.$.%.%.-.H &   % C :.:.:.:.;.;.;.V   & ^ $.$.$.#.#.T T T T T x     ",
"    f P I I T T T T #.( #.$.$.%.%.-.^ =   & H :.>.>.:.>.:.:.:.5   5 %.%.$.$.#.#.#.T #.T T x .   ",
"    f I I I T T T #.( #.#.$.$.%.%.@.1   & H >.:.>.>.>.>.:.:.:.-   z %.%.%.$.#.#.#.#.T T T x     ",
"    f I I T T T #.T ( #.#.$.$.%.-.y   O F >.:.>.>.2.>.>.>.>.*.&   Z -.%.$.$.#.#.( T #.T R v     ",
"  . x P I I T T T #.T $.$.$.%.-.Z o   z :.:.>.2.2.2.2.>.>.>.&.+ o G =.%.%.$.#.#.( T T T T v     ",
"    x I I T T T T #.#.#.@.$.$.@.-   4 =.:.:.:.2.2.2.2.2.>.>.H O + H %.%.$.$.#.#.#.#.( T T x     ",
"    d P I I T T T #.#.#.#.$.%.z   O H :.:.:.2.2.2.2.2.2.>.2.^ O + H =.%.%.$.#.#.( #.T ( T x     ",
"    x I I T T T #.T T #.#.$.( =   r ;.:.:.:.:.2.2.2.2.2.>.2.H O + H %.%.%.$.#.#.( T T T T v .   ",
"    d P I I T T T ( #.#.) $.c   $ H ;.;.;.:.:.:.2.2.>.>.>.:.H + o G =.%.$.@.#.#.( ( ( T R x     ",
"    x I P T T T T ( ( #.#.) <   8 =.-.;.;.:.:.:.>.>.>.:.:.:.*.%   S =.%.$.$.#.( ( ( ~ T R x .   ",
"    x I P T T T T ( ( #.#.S o o F =.=.=.;.:.:.:.>.:.:.:.:.:.*.=   b -.%.$.$.#.#.( T R T T x     ",
"    d P P P T T T ( T ( #.t   = #.%.=.=.=.;.;.:.:.;.:.;.;.;.;.5   e %.$.$.#.) #.( ( T T T x     ",
"    d P P P T T T T ( ( Q =   u %.%.%.=.=.=.;.;.;.;.;.;.*.=.;.i   1 $.$.) #.#.( T T T T T x     ",
"    d P P T P T T ( ( ( S o o S %.$.%.%.=.=.=.=.;.=.=.;.=.=.-.C   % ^ $.) #.( ( ( T T T T x .   ",
"    d P P P I T T T T ( p   & ~ $.$.$.%.%.%.=.%.=.-.-.%.=.%.%.H O . B $.#.#.( ~ T T T T I x     ",
"    d P P P I I T T T T 8   2 #.$.$.$.$.$.%.%.%.%.%.%.%.%.%.$.#.-   y #.#.T ( ~ T T T T I x     ",
"    x P K K Y I I R R T -   t $.#.#.#.@.$.$.%.$.%.%.%.$.$.$.$.%.t   - ( #.( T T T T T I T x     ",
"    0 n n n n n m N N v +   v ( ( #.#.#.$.$.$.$.$.$.$.$.$.$.$.$.B o . c B B B M B M m m n 9     ",
"    . . . . . . . . . .   o B ~ ( ( ) ) #.#.#.#.$.#.$.$.#.#.#.$.~ -     . . o . . . .   .       ",
"    . o o o o o o o o o o 1 T R ( Q ( ( #.#.#.#.#.#.#.#.#.#.#.T #.c $ O O o o O O o o o o .     ",
"    0 m m m m m m N M B B P T Q ~ ~ ~ ( ( ( ( ( #.T T #.#.T ( ~ T T L B B B N N N N m m m 0 .   ",
"    x Y K K K K P P I I I T Q I T Q ~ ~ ~ ( ~ ( T #.( ~ T #.Q Q T ( T T T T I I P P P K P d     ",
"    d P K K K K K P P P I I I I Q T Q Q Q Q ~ ~ #.~ ~ Q #.Q Q Q T T T T T I I I P K K K Y d     ",
"    d P K K K K K K P I I I I I I T I T T T T Q Q Q Q Q Q Q Q T T T T T I I I P P K K K P d     ",
"  . d K K K K K K K K K K P P I I I I I I Q Q Q I Q T Q T T I T I I I I P P K K K K K K K d .   ",
"    d P K K K K K K K K K K P P I I T I I I I I T T I I I T I T I I I P P P K K K K K K K d     ",
"    s K K K K K K K K K K K K P P P I P T I I I I I I I I I T P I P P K P K K K K K K K K s     ",
"    6 K K K K K K K K K K K K K K P P P P P P I I I P I P P P P P P K K K K K K K K K K P 6     ",
"    o d K P P K P P P P K K K P P P P P P P P P P P P I P P P P P K K K K P K P P K P K d o     ",
"      . 6 s d d d d d d f f d d d d d d d d d f f f d f d d d d f f f f d d d d d d s 6 o       ",
"'.                .                     .                                 .                   '.",
"'.'.                                                                                        '.'."
};
