/* XPM */
static char *wsicon16_xpm[] = {
/* width height num_colors chars_per_pixel */
"    16    16      256            2",
/* colors */
"`` c #000000",
"`. c #03131a",
"`# c #06212d",
"`a c #07222e",
"`b c #08232f",
"`c c #082330",
"`d c #07222f",
"`e c #07212d",
"`f c #06202c",
"`g c #03131b",
"`h c #1778a6",
"`i c #1b80ae",
"`j c #1e83b3",
"`k c #2087b6",
"`l c #2189b9",
"`m c #2289ba",
"`n c #2289b9",
"`o c #2187b7",
"`p c #1f85b4",
"`q c #1c81b0",
"`r c #197dab",
"`s c #1679a7",
"`t c #1676a3",
"`u c #1b80af",
"`v c #1f85b5",
"`w c #228aba",
"`x c #258dbe",
"`y c #2690c0",
"`z c #2791c2",
"`A c #2790c1",
"`B c #258ebf",
"`C c #238bbb",
"`D c #2087b7",
"`E c #1c82b1",
"`F c #1e84b4",
"`G c #2489b8",
"`H c #144962",
"`I c #1a5a78",
"`J c #2681ab",
"`K c #2c97c9",
"`L c #2a95c6",
"`M c #248cbc",
"`N c #177ba9",
"`O c #2188b8",
"`P c #268ebf",
"`Q c #2993c4",
"`R c #0a222d",
"`S c #206889",
"`T c #154358",
"`U c #0f3242",
"`V c #2884af",
"`W c #2b96c8",
"`X c #2791c1",
"`Y c #238abb",
"`Z c #1e84b3",
"`0 c #197dac",
"`1 c #2891c3",
"`2 c #2d98ca",
"`3 c #1c5a77",
"`4 c #267498",
"`5 c #37a6d9",
"`6 c #3092bf",
"`7 c #0f2e3d",
"`8 c #24779e",
".` c #2a94c5",
".. c #2086b6",
".# c #167aa8",
".a c #092430",
".b c #248cbd",
".c c #2993c5",
".d c #2e9acc",
".e c #287ea6",
".f c #1e5772",
".g c #3cace1",
".h c #3aaade",
".i c #339ccd",
".j c #0d2b38",
".k c #2787b4",
".l c #268fc0",
".m c #177aa8",
".n c #2f9acd",
".o c #2c89b5",
".p c #1a4d65",
".q c #3daee2",
".r c #3babdf",
".s c #36a4d7",
".t c #2882ab",
".u c #10394c",
".v c #2892c3",
".w c #2d99cb",
".x c #287fa7",
".y c #1b536d",
".z c #38a7db",
".A c #33a1d4",
".B c #2f9bcd",
".C c #103648",
".D c #217ea9",
".E c #2b95c7",
".F c #1d6282",
".G c #21688a",
".H c #33a0d3",
".I c #329fd2",
".J c #309cce",
".K c #1d688b",
".L c #134d69",
".M c #1e85b4",
".N c #1a7ead",
".O c #103a4d",
".P c #2887b3",
".Q c #2e99cb",
".R c #2388b6",
".S c #0a2c3b",
".T c #1c81b1",
".U c #187baa",
".V c #020a0e",
".W c #092836",
".X c #0a2a38",
".Y c #0b2b3a",
".Z c #0b2a38",
".0 c #2891c2",
".1 c #2790c0",
".2 c #082735",
".3 c #072533",
".4 c #187cab",
".5 c #1d82b2",
".6 c #1a7fad",
".7 c #1d83b2",
".8 c #1d82b1",
"#` c #1576a3",
"#. c #1679a8",
"## c #000000",
"#a c #000000",
"#b c #000000",
"#c c #000000",
"#d c #000000",
"#e c #000000",
"#f c #000000",
"#g c #000000",
"#h c #000000",
"#i c #000000",
"#j c #000000",
"#k c #000000",
"#l c #000000",
"#m c #000000",
"#n c #000000",
"#o c #000000",
"#p c #000000",
"#q c #000000",
"#r c #000000",
"#s c #000000",
"#t c #000000",
"#u c #000000",
"#v c #000000",
"#w c #000000",
"#x c #000000",
"#y c #000000",
"#z c #000000",
"#A c #000000",
"#B c #000000",
"#C c #000000",
"#D c #000000",
"#E c #000000",
"#F c #000000",
"#G c #000000",
"#H c #000000",
"#I c #000000",
"#J c #000000",
"#K c #000000",
"#L c #000000",
"#M c #000000",
"#N c #000000",
"#O c #000000",
"#P c #000000",
"#Q c #000000",
"#R c #000000",
"#S c #000000",
"#T c #000000",
"#U c #000000",
"#V c #000000",
"#W c #000000",
"#X c #000000",
"#Y c #000000",
"#Z c #000000",
"#0 c #000000",
"#1 c #000000",
"#2 c #000000",
"#3 c #000000",
"#4 c #000000",
"#5 c #000000",
"#6 c #000000",
"#7 c #000000",
"#8 c #000000",
"a` c #000000",
"a. c #000000",
"a# c #000000",
"aa c #000000",
"ab c #000000",
"ac c #000000",
"ad c #000000",
"ae c #000000",
"af c #000000",
"ag c #000000",
"ah c #000000",
"ai c #000000",
"aj c #000000",
"ak c #000000",
"al c #000000",
"am c #000000",
"an c #000000",
"ao c #000000",
"ap c #000000",
"aq c #000000",
"ar c #000000",
"as c #000000",
"at c #000000",
"au c #000000",
"av c #000000",
"aw c #000000",
"ax c #000000",
"ay c #000000",
"az c #000000",
"aA c #000000",
"aB c #000000",
"aC c #000000",
"aD c #000000",
"aE c #000000",
"aF c #000000",
"aG c #000000",
"aH c #000000",
"aI c #000000",
"aJ c #000000",
"aK c #000000",
"aL c #000000",
"aM c #000000",
"aN c #000000",
"aO c #000000",
"aP c #000000",
"aQ c #000000",
"aR c #000000",
"aS c #000000",
"aT c #000000",
"aU c #000000",
"aV c #000000",
"aW c #000000",
"aX c #000000",
"aY c #000000",
"aZ c #000000",
"a0 c #000000",
"a1 c #000000",
"a2 c #000000",
"a3 c #000000",
"a4 c #000000",
"a5 c #000000",
"a6 c #000000",
"a7 c #000000",
"a8 c #000000",
/* pixels */
"```.`#`a`b`c`c`c`b`d`e`f`f`f`g``",
"`.`h`i`j`k`l`m`n`o`p`q`r`s`s`t`g",
"`#`u`v`w`x`y`z`A`B`C`D`E`r`s`s`f",
"`a`F`w`G`H`I`J`K`L`z`M`k`q`N`s`f",
"`b`O`P`Q`R`S`T`U`V`W`X`Y`Z`0`s`f",
"`c`C`1`2`3`4`5`6`7`8.``x..`i.#`f",
".a.b.c.d.e.f.g.h.i.j.k.l`O`q.m`f",
".a.b.c.n.o.p.q.r.s.t.u.l`O`q.m`f",
"`c`C.v.w.x.y.z`5.A.B.C.D`D`u.m`f",
"`b`l.l.E.F.G.H.I.J`K.K.L.M.N`s`f",
"`a`v`C`A.O.P.Q.w`W.v.R.S.T.U`s`f",
".V.W.X.Y.Z.0.v.v.1.b`O`e.2.3.3.V",
"`f.4`q`p`O`w`C`C`n...5.N.m`s`s`f",
"`f`s`N.6`q.7`Z`Z.8`u.4.#`s`s`s`f",
"`.#``s#.`N.4`r.4.U.m`s`s`s`s`t`g",
"```.`f`f`f`f`f`f`f`f`f`f`f`f`g``"
};
