/* XPM */
static const char *wsicon64_xpm[] = {
/* columns rows colors chars-per-pixel */
"64 64 179 2",
"   c #000000",
".  c #010709",
"X  c #02090C",
"o  c #0C0C0C",
"O  c #030E13",
"+  c #041016",
"@  c #03141B",
"#  c #141414",
"$  c #1C1C1C",
"%  c #061922",
"&  c #061E29",
"*  c #081A23",
"=  c #091E28",
"-  c #06212D",
";  c #09222E",
":  c #072330",
">  c #092532",
",  c #0B2836",
"<  c #0D2D3B",
"1  c #232323",
"2  c #2C2C2C",
"3  c #353535",
"4  c #0E3141",
"5  c #093449",
"6  c #103343",
"7  c #123A4C",
"8  c #123E52",
"9  c #144055",
"0  c #14445B",
"q  c #0D4B68",
"w  c #144A62",
"e  c #154D68",
"r  c #184B63",
"t  c #19526D",
"y  c #165674",
"u  c #1A5672",
"i  c #1B5976",
"p  c #1B5D7B",
"a  c #225972",
"s  c #404040",
"d  c #4B4C4C",
"f  c #565656",
"g  c #5C5C5C",
"h  c #656464",
"j  c #6C6C6C",
"k  c #747474",
"l  c #7D7D7C",
"z  c #115D81",
"x  c #116085",
"c  c #1D6181",
"v  c #1F6789",
"b  c #1F6A8C",
"n  c #136D96",
"m  c #146E98",
"M  c #1D6C91",
"N  c #16719B",
"B  c #19739D",
"V  c #1576A3",
"C  c #1679A7",
"Z  c #167AA8",
"A  c #1976A1",
"S  c #1D79A4",
"D  c #197DAC",
"F  c #216B8D",
"G  c #227095",
"H  c #23759B",
"J  c #25789E",
"K  c #237BA5",
"L  c #257FA8",
"P  c #287EA6",
"I  c #457084",
"U  c #1B80AF",
"Y  c #1D83B3",
"T  c #2683AE",
"R  c #2A84AE",
"E  c #2087B6",
"W  c #2488B7",
"Q  c #238BBB",
"!  c #2986B1",
"~  c #2B89B5",
"^  c #298EBC",
"/  c #2D90BF",
"(  c #338AB3",
")  c #328FBA",
"_  c #3A8CB2",
"`  c #3693BE",
"'  c #3A90B7",
"]  c #3A92BB",
"[  c #268FC0",
"{  c #2790C1",
"}  c #2A93C5",
"|  c #2C97C8",
" . c #2E9ACC",
".. c #2F9DD0",
"X. c #3395C2",
"o. c #3498C6",
"O. c #309CCF",
"+. c #3C96C1",
"@. c #3C9AC6",
"#. c #319ED1",
"$. c #34A2D5",
"%. c #36A5D9",
"&. c #37A8DC",
"*. c #38A7DB",
"=. c #39A9DD",
"-. c #3CADE1",
";. c #3EB0E4",
":. c #4592B5",
">. c #4295BB",
",. c #4598BF",
"<. c #4B97BA",
"1. c #4D9ABE",
"2. c #529BBD",
"3. c #5A9EBE",
"4. c #5EA0BF",
"5. c #609EBB",
"6. c #449CC5",
"7. c #4A9CC2",
"8. c #549EC1",
"9. c #4CA1C9",
"0. c #54A2C6",
"q. c #54A4C9",
"w. c #5CA3C4",
"e. c #5BA7CA",
"r. c #5DA8CB",
"t. c #64A5C3",
"y. c #61A7C8",
"u. c #67A8C5",
"i. c #64AACB",
"p. c #6CA7C2",
"a. c #6DAAC6",
"s. c #6BACCB",
"d. c #72ABC5",
"f. c #71AECB",
"g. c #78AFC8",
"h. c #74B1CD",
"j. c #7FB0C7",
"k. c #7BB2CB",
"l. c #848383",
"z. c #8C8C8B",
"x. c #939393",
"c. c #979C9E",
"v. c #9C9C9C",
"b. c #869AA3",
"n. c #989EA1",
"m. c #8AABBB",
"M. c #9DA2A5",
"N. c #A09F9F",
"B. c #A0A09F",
"V. c #A1A1A0",
"C. c #A1A6A8",
"Z. c #A5AAAC",
"A. c #A8ADAF",
"S. c #AAAFB1",
"D. c #AEB2B4",
"F. c #B2B5B6",
"G. c #B4B7B8",
"H. c #81B1C7",
"J. c #84B5CD",
"K. c #87B8CF",
"L. c #8EB2C4",
"P. c #8BB7CB",
"I. c #8CB9CE",
"U. c #8EBBD0",
"Y. c #92B5C6",
"T. c #90B7CA",
"R. c #96B8C7",
"E. c #93BBCE",
"W. c #9BBCCB",
"Q. c #96BDD0",
"!. c #9ABFD0",
"~. c #A1BECC",
"^. c #B5BDC0",
"/. c #9DC0D0",
"(. c #A5C1CE",
"). c #ABC2CD",
"_. c #A1C1D0",
"`. c #B3C4CC",
"'. c None",
/* pixels */
"'.'.'.                  o o o o o # o o # # # # $ # $ $ 1 1 1 1 1 1 1 1 1 1 1 1 1 1 $ $ $ # # # # o o o .                 '.'.'.",
"'.'.  . 2 s d g j j k l l l.l.z.z.z.x.x.x.x.x.c.c.v.v.v.V.V.v.V.V.V.V.V.V.V.B.B.N.v.v.x.v.x.x.x.z.z.l.l k k j h f d 3 #     '.'.",
"'.    1 M.F.F.G.G.G.G.G.G.G.G.G.^.G.G.^.G.G.G.G.G.^.G.G.G.G.G.^.F.G.D.D.S.A.S.S.A.Z.Z.Z.C.C.C.C.M.M.M.n.n.n.n.n.v.x.x.g       '.",
"      o z.G.`.`.`.`.`.`.`.`.`.`.`.`.^.`.~.`.`.`.`.~.^.~.~.(.~.(.~.~.~.~.~.~.~.~.W.~.W.W.W.W.R.R.R.R.R.R.Y.Y.L.L.L.m.b.d         ",
"      . I ).`.`.).).).).).).).~.~.~.~.~.~.~.~.~.~.~.!.!.~.!.!.!./.Q.Q.Q.!.Q.Q.E.Q.U.I.I.I.I.P.P.P.P.P.H.H.H.H.H.j.j.d.a X       ",
"      5 S 3.~.~.~.~.~.~.~.W.W.W.W.!.~.!.!.Q.Q.Q.Q.Q.U.U.Q.Q.U.U.U.U.U.U.P.J.K.J.J.J.J.k.J.k.k.g.g.g.d.g.g.d.d.d.p.t._ C 5       ",
"    . z C D 5.T.P.E.P.T.P.P.P.P.P.P.P.I.K.K.K.K.J.K.J.J.K.K.k.k.h.k.k.k.k.k.h.h.g.g.f.f.s.s.s.a.u.u.i.t.t.t.8.3.3._ C C z .     ",
"    + n C C S 2.H.H.H.H.H.j.j.j.k.g.k.k.k.h.k.h.h.h.h.h.h.s.h.s.h.h.s.s.s.s.i.i.i.i.y.y.e.t.w.w.w.8.8.8.2.2.2.<.( S C C n +     ",
"    @ m C C C D :.p.d.p.d.p.d.a.f.a.s.s.s.u.i.i.s.i.i.i.i.i.r.i.r.r.r.r.r.e.q.q.q.8.8.9.7.7.7.7.7.,.>.>.>.' ] ~ S Z C Z n @     ",
"    @ m C C C C S _ 3.4.w.w.w.w.8.8.8.y.e.8.e.8.q.q.q.q.q.9.q.q.9.9.9.9.7.7.9.6.6.6.6.@.6.+.+.] ) ) ) ~ ~ ! E D D C Z Z n @     ",
"    @ m C C C C C C ! >.1.1.1.1.7.7.7.7.7.7.7.7.6.6.@.6.6.@.@.@.@.6.#.#.+.o.o.X.X.X.} } ^ ^ ^ Q W W E T E U Y D D D Z Z m @     ",
"    @ m C C C C C Z D Y ~ ] ] ] ] ] ] ] X.X.X.X.X.o.X.X.o. .X.X.| } } X.} } } { [ } [ [ Q Q Q Q W W E E E Y D Y D D D Z m @     ",
"    @ m C C C C C D D D Y E ! W Q Q ^ Q Q ^ ^ [ { { { } } } } } } } } } } } } { [ } { { { ^ Q Q Q W Y Y Y Y Y D D D D D m @     ",
"    @ m C C C Z D D Y D Y Y Y E E E Q Q Q ^ { { { } } } } } } | | | } | | | | | } } { ~ L K K W Q Q Q Q Q Y Y Y Y D D D m @     ",
"    @ m C C C C D D D Y Y Y E E E Q Q Q ^ { { { } } } } | | | | |  . .X. .} ~ G u 8 , = @ + O 8 W Q Q Y Y Y Y Y D Y D D N @     ",
"    @ n C C D D D D Y Y Y Y E E [ Q Q ^ { { } } } } X.| | |  .o. . . .^ F 7 * .               * Y [ Q [ Q Q Y Y Y D D D N @     ",
"    @ n C C D D D Y Y Y Y Y Q Q Q Q Q [ [ } } } | | |  . . .O.O.O.~ t = .         . + * X     0 [ [ Q Q Y Y Q Y Y Y D D V @     ",
"    @ m C C D D D Y Y Y Y Y Y Q Q [ [ [ } } } | | | o. . .O.O.^ a *         * 7 i G ! M X   @ S { [ [ Q [ Q Y Y Y Y Y D N @     ",
"    @ m C D D D Y Y Y Y Y Y [ Q Q [ [ } } } } |  . . . .O.O.H ,       O 7 F ^ o.O. . .0     e } { { [ Q Q Y Q Y Y Y Y Y A @     ",
"    @ m C Z D D Y Y Y Y Q Q Q Q [ [ [ } } | | |  . .O. .| u o     X 8 P O.$.$.O.O.O.~ %   + L | } { { Q [ [ Y [ Q Y Y Y A @     ",
"    @ m D C D D Y Y Y Y Q Y Q Q [ [ { } } | |  .O.O.O.` 9       < J $.$.$.$.$.O.$.$.v     8 | } } { { [ [ Y Y Y Y Y Y D A @     ",
"    @ m D D D D Y Y Y Y Y Q Q Q [ { } } | |  . .O.O.^ 6     X t o.%.$.%.$.$.$.$.$. .0     v  .| | } { [ [ [ [ Q Q W Y Y A @     ",
"    @ m D D D Y Y Y Y Y [ Q Q [ [ { } } | |  . .O.} 7     @ F %.%.%.%.%.%.$.$.$.$.} ;   @ !  .| } { { { [ Q Y Y Y Y Y Y A @     ",
"    @ m D D D Y Y Y Q Y Q Q [ [ { } } | |  . ...o.9     @ J *.%.%.=.*.*.*.%.$.$.%.R O   < |  .| | } } { [ [ [ Q Y Q Y Y A @     ",
"    @ m D D D Y Y Y Y Y Y [ [ [ { { | | |  . . .e     @ J *.*.*.=.=.=.=.=.%.%.%.%.G     r $. . .| | | [ } Y [ [ Q Y Y Y D %     ",
"    @ N D D D Y Y Y Y [ Q Q [ [ { } | |  . .$.b X   O F %.%.=.=.=.=.-.=.=.=.%.%.%.i     c  . .| | | { } [ [ [ Y Q Q Y Y S @     ",
"    @ m D D D Y Y Y Y [ [ Q [ [ { | } |  . .! *     a %.*.=.=.=.-.-.-.-.-.=.=.%.%.r     H  . . .| { { { [ [ [ Q Y Q Y Y S @     ",
"    @ N D D Y D Y Y Q Y Y [ [ [ { { | |  .| 7     7 O.*.*.=.=.-.-.-.-.-.-.=.=.%.%.9   o P $. . .| | | } [ [ [ Y Q Y Y Y A @     ",
"    @ N D D Y Y Y Y [ Y [ [ [ [ { | | | ..n X   * ~ %.%.%.=.-.-.;.;.;.-.-.-.=.=.$.6   + W .... .| | { { [ [ Q [ [ Y Y W A @     ",
"    @ m D D D Y Y Y Y Y Y [ [ [ { } }  .^ ,     p %.$.%.*.=.=.-.-.;.;.;.=.=.=.%.$.6   + ~ .. .| | | | } [ [ [ Y Y Q Y Y A @     ",
"    @ N D D D D Y Y Y [ [ [ [ [ { } |  .p     < o.$.%.%.*.=.=.=.-.;.-.-.-.=.=.%.$.<   + ~ ....| | | } { [ [ [ Q Q Y Y Y A %     ",
"    @ m D D Y Y Y Q [ Y Y [ [ [ { | | Q :   X G $.$.$.%.%.=.=.=.=.-.-.-.=.=.=.%.%.6   + ! ....| | | } { [ [ Q Q Q Q Y Y A @     ",
"    @ N D D D Y Y Y Y [ Q [ Q [ { } | v .   < | $.O.$.%.%.%.=.=.=.-.=.=.=.=.%.%.$.7   X R O. . .| | } { [ [ Y [ Y Y Y Y U %     ",
"    @ m D D D D Y Y Y Y Y Y [ [ { } ^ <     F $. .$.$.$.%.%.%.%.=.=.=.=.=.*.%.%.%.9   X J O. .| | } } { [ [ [ Y Y [ Y Y S @     ",
"    @ N D D D Y Y Y Y Q [ Q [ [ { | H X   > } O.O.$.$.$.%.%.%.%.%.%.*.%.%.%.%.$.%.t     v O. .| | | { { [ Q [ Y [ Y Y Y A @     ",
"    @ m D D D Y Y Y Q Y Y Q Q Q [ { 0     t  .O. .O.O.$.$.$.%.%.%.%.%.%.%.%.$.$.$.F     u  . .| } } { { [ [ Q [ Y Y Y Y A @     ",
"    @ m Z D D D Y Y Y Y [ Y [ [ [ E -   + T  . . . .$.$.$.$.$.$.$.$.%.%.$.$.$.O.$.G     9 | | | } } { [ [ Y Q Y Y Y Y Y A @     ",
"    @ m Z D D Y Y Y Y Y Y [ [ [ [ M X   < } | |  .$. . .$.$. .$.$.$.$.$.$.$.O.$.$.~ @   > { | } } { [ [ [ [ [ Y W Y Y Y A @     ",
"    @ m Z Z D D Y Y Y Q [ Y [ [ Q w     u | |  . . . .$.$.......$.O.$.O.$.O.$.O.O.} ,   @ T | } } { [ [ Q [ Y Q Y Y Y Y A @     ",
"    @ m Z Z D D Y Y Y Y Y Y Y Y W ,   X B | | | | |  . .........$.O.$.O.O.O.O.O.O.O.8     M | } { [ [ Q Q Y Q Y Y Y D Y N @     ",
"    @ m C C D D D Y Y Y Y W Q [ S O   ; W } } | | | | ..| ......O.O.O.O. .$. . . . .p     e | } { [ [ [ Y W E E Y Y Y D A @     ",
"    @ m C C Z D D D Y Y Y Y Y Q c     8 { } { } { | |  . .|  . .O. .O. . . . .|  .| K O   , Q { [ { Y Q [ W E Y Y Y D Y N @     ",
"    @ m C C C D D Y D Y Y Y Q Q w     y { { { } | | { | | | |  . . .|  .| | | | | | W ;   O K { [ [ [ Q Y Y E Y Y Y D D N @     ",
"    @ m C C C D D D D Y Y Y Y Q 5   . M { { { { { { | | | | | | | | | | | | | | } | } 0     t [ [ Y Y [ Y Q Y E Y D D D N @     ",
"    @ n C C V V C S Z D D Y Y S &   @ S [ [ [ [ [ { | | } | | | | } | | } | | { { } } M .   , E Q Y Y W Y Y D D D D S C m @     ",
"    . & - & - & - - - - ; - > - .   ; E Q Q Q [ [ [ [ [ [ } [ } } } } } } { } { { { { E ;   . ; > > > > > : : : - - - - & .     ",
"                                    4 W Y [ Q [ [ [ [ [ [ [ [ { } { } { { { { { { { { [ e                                       ",
"      O O O O O O O O O O O O O O % x Y Q Y [ Y Q Q [ [ [ [ [ [ { { { { { { { [ { Q Q [ S < + O + O + O O O O O O O O O O       ",
"    @ z n n n n n n n n n m N N N S Y Y Y Q Q Q Q Q [ Q { [ [ [ [ [ [ [ [ [ [ [ [ Y [ Q [ Y S S A A B B N N m m n n n n z +     ",
"    @ m C C V C C V C C D D U Y Y Y Y Y Y Y Y Q Y [ [ Y Y [ Q [ Y [ [ { Y Q Q [ [ [ Y Q Y Y W Y Y Y Y Y Y D D D D S Z Z n @     ",
"    @ m C C C C C C C C C D D S Y Y Y Y Y Y Y Y Y Q Y Q Y [ Y Q [ Y [ Y [ Y [ Y Y Y Y Q W Y Y Y Y Y Y D D D D D C C Z C m @     ",
"    @ m C C C C C C C C C C D U D D D Y Y Y Y Q Y Y Q Y [ Y Q Q Y [ Y [ Y [ Y [ Y [ Q Y Y Y Y Y D Y D D D D C Z C C Z Z m @     ",
"    @ n C C C C C C C C C C D Z D D D D D Y Y Y Y Y Y Y Y Q Y Q Y Y Q Y Y Y Q Y Y Y Y Y Y Y D D Y D D D Z Z C C C C C C m @     ",
"    @ m C C C C C C C C C C C Z C D D D D Y D Y Y Y Y Y Y Y Y Y Y Q Q Y Y Y Y Y Y Y Y Y Y Y D Y D D D C Z C C C C C C C m @     ",
"    @ m C C C C C C C C C C C C Z C D D D D D D Y Y Y Y Y Y Y Y Y Y Y Y Y Y Y Y Y Y Y Y D D D D D D Z Z C C C C C C C C m @     ",
"    @ m C C C C C C C C C C C C Z Z C D D D D D D Y D D Y Y D Y Y Y Y Y Y Y D Y D D Y D D D D D S Z Z Z C C C C C C C C m @     ",
"    O n C C C C C C C C C C C C C C C C C D D D D D D D Y D D D D Y Y D D Y D Y D U D D D D C C C C C C C C C C C C C C n @     ",
"    . z C C C C C C C C C C C C C C C C C C C D C D D D D D D D D D D D D D D Z D D D C Z C Z Z C C C C C C C C C C C C z .     ",
"      5 C C C C C C C C C C C C C C C C C C C C C D C D D D D D D D D D D D Z D D C C C C C C Z C C C C C C C C C C C C 5       ",
"      X q C C C C C C C C C C C C C C C C C C C Z Z D C Z C Z C Z Z Z D Z Z Z Z Z Z C C C C C D C C C C C C C C C C C q .       ",
"        . 5 z n m n n n m m n m n n m n m n n n m n n n n n m n m n m m m n m m n n m n m n n n m m m n n n m n n z 5 .         ",
"'.          . + @ @ @ @ @ @ @ @ @ @ @ @ @ @ @ @ @ @ @ @ @ @ @ @ @ @ @ @ @ @ @ @ @ @ @ @ @ @ @ @ @ @ @ @ @ @ @ @ O .           '.",
"'.'.                                                                                                                        '.'.",
"'.'.'.                                                                                                                    '.'.'."
};
