/* XPM */
static const char * wsicon64_xpm[] = {
"64 64 429 2",
"  	c None",
". 	c #1A6B8C",
"+ 	c #166A8D",
"@ 	c #166B8D",
"# 	c #176A8C",
"$ 	c #196B8C",
"% 	c #146B8E",
"& 	c #146B8F",
"* 	c #136B8F",
"= 	c #136B8E",
"- 	c #126B8F",
"; 	c #156B8C",
"> 	c #176B8A",
", 	c #186A8B",
"' 	c #156B8E",
") 	c #126C90",
"! 	c #136B90",
"~ 	c #146A90",
"{ 	c #126C8F",
"] 	c #146B90",
"^ 	c #166B8C",
"/ 	c #156A8E",
"( 	c #136B91",
"_ 	c #176C8D",
": 	c #156B8D",
"< 	c #196A8C",
"[ 	c #19698B",
"} 	c #186A8C",
"| 	c #126C8E",
"1 	c #176B8C",
"2 	c #196A8B",
"3 	c #146C8F",
"4 	c #146A8F",
"5 	c #166A8E",
"6 	c #186A89",
"7 	c #146B8C",
"8 	c #166B8E",
"9 	c #1780AC",
"0 	c #167CA9",
"a 	c #1675A1",
"b 	c #137099",
"c 	c #136C90",
"d 	c #136689",
"e 	c #116284",
"f 	c #115C7D",
"g 	c #135976",
"h 	c #1880AE",
"i 	c #1681AF",
"j 	c #1680AF",
"k 	c #177FAB",
"l 	c #147BA6",
"m 	c #14749F",
"n 	c #146F96",
"o 	c #14678D",
"p 	c #126384",
"q 	c #105E7E",
"r 	c #105A79",
"s 	c #105979",
"t 	c #155876",
"u 	c #1781AF",
"v 	c #157FAB",
"w 	c #1578A3",
"x 	c #13749B",
"y 	c #136E93",
"z 	c #136C8F",
"A 	c #14698C",
"B 	c #126486",
"C 	c #116080",
"D 	c #125A7C",
"E 	c #1681AE",
"F 	c #1681B0",
"G 	c #1680AE",
"H 	c #167DAA",
"I 	c #1577A1",
"J 	c #147199",
"K 	c #146C91",
"L 	c #136A8E",
"M 	c #126689",
"N 	c #126082",
"O 	c #115C7C",
"P 	c #115978",
"Q 	c #105978",
"R 	c #1780AD",
"S 	c #157CA7",
"T 	c #1476A0",
"U 	c #147197",
"V 	c #156A8F",
"W 	c #126789",
"X 	c #126285",
"Y 	c #105D7F",
"Z 	c #105A7A",
"` 	c #115979",
" .	c #167FAD",
"..	c #147AA6",
"+.	c #15749D",
"@.	c #146E95",
"#.	c #13688B",
"$.	c #125E80",
"%.	c #105A7B",
"&.	c #1581B0",
"*.	c #1581AF",
"=.	c #1678A3",
"-.	c #15729B",
";.	c #126D93",
">.	c #13698D",
",.	c #116587",
"'.	c #105B7C",
").	c #10597A",
"!.	c #167DA8",
"~.	c #1477A0",
"{.	c #126589",
"].	c #126182",
"^.	c #105D7B",
"/.	c #167EAB",
"(.	c #0F5A79",
"_.	c #0F5979",
":.	c #0F5773",
"<.	c #0E506C",
"[.	c #115879",
"}.	c #115877",
"|.	c #105272",
"1.	c #0D4E69",
"2.	c #0E4864",
"3.	c #1780AF",
"4.	c #1581AE",
"5.	c #0F5978",
"6.	c #0E5775",
"7.	c #0F506D",
"8.	c #0C445B",
"9.	c #0F3E55",
"0.	c #167CA7",
"a.	c #136A93",
"b.	c #126284",
"c.	c #125B7D",
"d.	c #125F80",
"e.	c #135B7C",
"f.	c #115A7A",
"g.	c #115B7A",
"h.	c #0E516D",
"i.	c #0B3D52",
"j.	c #072D3C",
"k.	c #0E455D",
"l.	c #157FAC",
"m.	c #13658A",
"n.	c #0E5675",
"o.	c #125C7C",
"p.	c #0D4058",
"q.	c #114662",
"r.	c #115D7C",
"s.	c #115F81",
"t.	c #0F516D",
"u.	c #093A4E",
"v.	c #072C3A",
"w.	c #072533",
"x.	c #115372",
"y.	c #167AA6",
"z.	c #0F5877",
"A.	c #105674",
"B.	c #0F5673",
"C.	c #105472",
"D.	c #105372",
"E.	c #0E4D6A",
"F.	c #093346",
"G.	c #156F95",
"H.	c #105C7C",
"I.	c #166586",
"J.	c #105672",
"K.	c #093A4D",
"L.	c #072C3B",
"M.	c #082A3C",
"N.	c #0A2939",
"O.	c #177BA7",
"P.	c #0F5775",
"Q.	c #0F5471",
"R.	c #105370",
"S.	c #0F5472",
"T.	c #0C4A65",
"U.	c #0D394F",
"V.	c #1780AE",
"W.	c #0F5B7B",
"X.	c #1B6C8F",
"Y.	c #165F80",
"Z.	c #0A3E53",
"`.	c #072B3D",
" +	c #072B3B",
".+	c #082B3B",
"++	c #0C3040",
"@+	c #115B7C",
"#+	c #0C4860",
"$+	c #124C68",
"%+	c #1B6A8B",
"&+	c #267898",
"*+	c #0E4862",
"=+	c #072D3D",
"-+	c #0B3548",
";+	c #136C93",
">+	c #0E526F",
",+	c #0D465E",
"'+	c #135C7C",
")+	c #135E7F",
"!+	c #3B8FB2",
"~+	c #1A5E7B",
"{+	c #093345",
"]+	c #082B3A",
"^+	c #0D394D",
"/+	c #1681AD",
"(+	c #0F5572",
"_+	c #0F5370",
":+	c #115574",
"<+	c #0D465D",
"[+	c #14668B",
"}+	c #2B7D9E",
"|+	c #4391B0",
"1+	c #0C4159",
"2+	c #072B3C",
"3+	c #072B3A",
"4+	c #0D3C50",
"5+	c #13739A",
"6+	c #0F516E",
"7+	c #105977",
"8+	c #0D4760",
"9+	c #14698E",
"0+	c #135C7F",
"a+	c #5CAFC9",
"b+	c #236683",
"c+	c #073141",
"d+	c #0B3649",
"e+	c #126083",
"f+	c #0E4A64",
"g+	c #237291",
"h+	c #61B2CA",
"i+	c #10465E",
"j+	c #0B3245",
"k+	c #1681AC",
"l+	c #135D7D",
"m+	c #0F4F69",
"n+	c #146B91",
"o+	c #489AB7",
"p+	c #3B859F",
"q+	c #0A3549",
"r+	c #062B3B",
"s+	c #0B2B3B",
"t+	c #177CA9",
"u+	c #0D4F6C",
"v+	c #165F7F",
"w+	c #125672",
"x+	c #13678C",
"y+	c #125D7D",
"z+	c #58ABC7",
"A+	c #1C5D77",
"B+	c #072D3F",
"C+	c #082432",
"D+	c #135775",
"E+	c #125979",
"F+	c #145777",
"G+	c #135F81",
"H+	c #126B90",
"I+	c #14739B",
"J+	c #176080",
"K+	c #19617F",
"L+	c #116081",
"M+	c #166485",
"N+	c #4B9BBD",
"O+	c #0E475E",
"P+	c #082634",
"Q+	c #0F4863",
"R+	c #115878",
"S+	c #105474",
"T+	c #0D4F6D",
"U+	c #0D4A63",
"V+	c #0D445A",
"W+	c #135F80",
"X+	c #0F6183",
"Y+	c #126386",
"Z+	c #136E94",
"`+	c #157CA6",
" @	c #10516F",
".@	c #145E7E",
"+@	c #267091",
"@@	c #125879",
"#@	c #1D6A8B",
"$@	c #347FA0",
"%@	c #0A3A4E",
"&@	c #082A39",
"*@	c #0C3344",
"=@	c #0F5A7A",
"-@	c #0F5774",
";@	c #0E4B66",
">@	c #0B475F",
",@	c #0D445D",
"'@	c #0C4157",
")@	c #093D53",
"!@	c #0F5777",
"~@	c #105B7A",
"{@	c #115E80",
"]@	c #126084",
"^@	c #116084",
"/@	c #0E5979",
"(@	c #0F5272",
"_@	c #3482A3",
":@	c #115473",
"<@	c #105A78",
"[@	c #1D6C8D",
"}@	c #1F6886",
"|@	c #072331",
"1@	c #0D3E56",
"2@	c #0B4860",
"3@	c #0C455C",
"4@	c #0C4259",
"5@	c #0B3E53",
"6@	c #0B394D",
"7@	c #093347",
"8@	c #092F41",
"9@	c #072C3E",
"0@	c #11536E",
"a@	c #0F5371",
"b@	c #0F5573",
"c@	c #115876",
"d@	c #115F7F",
"e@	c #0E5371",
"f@	c #0E5573",
"g@	c #3987A8",
"h@	c #1F6785",
"i@	c #1575A0",
"j@	c #1B6788",
"k@	c #165974",
"l@	c #082F42",
"m@	c #07293A",
"n@	c #052A3A",
"o@	c #0B3D51",
"p@	c #083548",
"q@	c #083042",
"r@	c #082B3C",
"s@	c #105371",
"t@	c #2A7599",
"u@	c #4290B1",
"v@	c #12648A",
"w@	c #257394",
"x@	c #13536F",
"y@	c #082D40",
"z@	c #072A3C",
"A@	c #115270",
"B@	c #175F7E",
"C@	c #5FB1D1",
"D@	c #186484",
"E@	c #1678A4",
"F@	c #1680B0",
"G@	c #135E80",
"H@	c #4A9ABA",
"I@	c #14506C",
"J@	c #072C3C",
"K@	c #257597",
"L@	c #186A8E",
"M@	c #105879",
"N@	c #115D7D",
"O@	c #146689",
"P@	c #13739B",
"Q@	c #177FAC",
"R@	c #115778",
"S@	c #0E4E69",
"T@	c #0C4861",
"U@	c #0E4C67",
"V@	c #115472",
"W@	c #09394D",
"X@	c #0F5575",
"Y@	c #105C7D",
"Z@	c #115F82",
"`@	c #116185",
" #	c #106084",
".#	c #136A8F",
"+#	c #1576A0",
"@#	c #167EAA",
"##	c #105473",
"$#	c #0E4F6A",
"%#	c #0D4963",
"&#	c #0C455E",
"*#	c #0D4259",
"=#	c #0B4055",
"-#	c #0B3B4F",
";#	c #093649",
">#	c #082B3E",
",#	c #0F5372",
"'#	c #0F5676",
")#	c #116083",
"!#	c #106184",
"~#	c #125F82",
"{#	c #105B7B",
"]#	c #105876",
"^#	c #0C465E",
"/#	c #0B455E",
"(#	c #0C4058",
"_#	c #0C3C51",
":#	c #0A374A",
"<#	c #093145",
"[#	c #072F40",
"}#	c #105271",
"|#	c #115775",
"1#	c #115A79",
"2#	c #115F80",
"3#	c #0B3D53",
"4#	c #0A394D",
"5#	c #082F40",
"6#	c #082C3C",
"7#	c #062B3A",
"8#	c #0F526F",
"9#	c #10506D",
"0#	c #10506E",
"a#	c #12526F",
"b#	c #15526E",
"c#	c #082A3A",
"d#	c #0A2A39",
"e#	c #12526E",
"f#	c #105270",
"g#	c #115370",
"h#	c #072A3A",
"i#	c #11536D",
"j#	c #092A39",
"k#	c #12526D",
"l#	c #10536F",
"m#	c #115271",
"n#	c #082A3B",
"o#	c #12526C",
"p#	c #11526F",
"q#	c #092A3C",
"r#	c #12536C",
"s#	c #092B39",
"t#	c #0B2A3C",
"u#	c #114F6C",
"v#	c #082B39",
"                                                                                                                                ",
"                                                                                                                                ",
"                                                                                                                                ",
"                                                          . + @ #                                                               ",
"                                                  $ % & * = * * * - * ; >                                                       ",
"                                          , ; ' ) * ! * * * * * * * * ~ { ] & ^ ^                                               ",
"                                    / / ( ! * * * * * * * * * * * * * * * * * * ~ * ^ %                                         ",
"                            _ : * * % * * * * * * * * * * * * * * * * * * * * * * ! * & - * ' <                                 ",
"                    [ } ! { ! * * * * * * * * * * * * * * * * * * * * * * * * * * * * * * * * % | * 1 2                         ",
"            1 3 ' 4 4 * * * * * * * * * * * * * * * * * * * * * * * * * * * * * * * * * * * * * * * * * * 5 @ 6                 ",
"      7 % ! * & * * * * * * * * * * * * * * * * * * * * * * * * * * * * * * * * * * * * * * * * * * * * * - & * ! % 8           ",
"  9 0 a b c & & * * * * * * * * * * * * * * * * * * * * * * * * * * * * * * * * * * * * * * * * * * * * * * { * 4 d e f g       ",
"  h i i j k l m n * * * * * * * * * * * * * * * * * * * * * * * * * * * * * * * * * * * * * * * * * * * * o p q r s s s t       ",
"  h i i i i i i u v w x y & z * * * * * * * * * * * * * * * * * * * * * * * * * * * * * * * * ! ! A B C D s s s s s s s t       ",
"  h i i i i i i i E F i G H I J K % * & & * * * * * * * * * * * * * * * * * * * * * { * * L M N O s P P Q s s s s s s s t       ",
"  h i i i i i i i i i i i i i i R S T U ( ! * * * * * * * * * * * * * * * * * * & V W X Y Z ` s s s s s s s s s s s s s t       ",
"  h i i i i i i i i i i i i i i i i i i  ...+.@.( = * * * * * * * * * * { % #.p $.%.s s s s s s s s s s s s s s s s s s t       ",
"  h i i i i i i i i i i i i i i i i i i i &.*.G v =.-.;.* % ! * * z >.,.C '.s ).` s s s s s s s s s s s s s s s s s s s t       ",
"  h i i i i i i i i i i i i i i i i i i i i i i i i i G !.~.U {.].^.` ` s s s s s s s s s s s s s s s s s s s s s s s s t       ",
"  h i i i i i i i i i i i i i i i i i i i i i i i i i i i i /.(.s s s s s s s s s s s s s s s s s s s s s s s s s s s s t       ",
"  h i i i i i i i i i i i i i i i i i i i i i i i i i i i i /._.s s s s s s s s s s s s s s s s s s s s s s s s s s s s t       ",
"  h i i i i i i i i i i i i i i i i i i i i i i i i i i i i /._.s s s s s s s s s s s s s s s s s r :.<.[.s s s s s s s t       ",
"  h i i i i i i i i i i i i i i i i i i i i i i i i i i i i /._.s s s s s s s s s s s s s s s s }.|.1.2.s s s s s s s s t       ",
"  h i i i i i i i i i i i i i F 3.i 4.i i F i i i i i i i i /._.s s s s s s s s s s s s s s s 5.6.7.8.9.s s s s s s s s t       ",
"  h i i i i i i i i i i i i i i 0.a.b.c.d.e.G i i i i i i i /._.s s s s s s s s s s s s s s f.g.h.i.j.k.s s s s s s s s t       ",
"  h i i i i i i i i i i i E l.m.n.Z o.).p.q.i i i i i i i i /._.s s s s s s s s s s s s s r.s.t.u.v.w.x.s s s s s s s s t       ",
"  h i i i i i i i i i i i y.z.A.B.C.D.E.F.G.i i i i i i i i /._.s s s s s s s s s s s s H.I.J.K.L.M.N.Q s s s s s s s s t       ",
"  h i i i i i i i i i i O.P.Q.R.R.R.S.T.U.V.i i i i i i i i /._.s s s s s s s s s s s W.X.Y.Z.`. +.+++s s s s s s s s s t       ",
"  h i i i i i i i i u R @+R.R.R.R.R.C.#+$+F i i i i i i i i /._.s s s s s s s s s s Q %+&+*+=+ + +.+-+Q s s s s s s s s t       ",
"  h i i i i i i i i i ;+>+R.R.R.R.R.C.,+'+i i i i i i i i i /._.s s s s s s s s s s )+!+~+{+]+ + + +^+Q s s s s s s s s t       ",
"  h i i i i i i i i /+(+_+R.R.R.R.R.:+<+[+4.i i i i i i i i /._.s s s s s s s s s s }+|+1+2+ + + +3+4+s s s s s s s s s t       ",
"  h i i i i i i i i 5+6+R.R.R.R.R.R.7+8+9+i i i i i i i i i /._.s s s s s s s s s 0+a+b+c+ + + + + +d+P s s s s s s s s t       ",
"  h i i i i i i i i e+R.R.R.R.R.R.R.g.f+4 i i i i i i i i i /._.s s s s s s s s r g+h+i+.+ + + + +3+j+s s s s s s s s s t       ",
"  h i i i i i i i k+D.R.R.R.R.R.R.R.l+m+n+i i i i i i i i i /._.s s s s s s s s r o+p+q+ + + + + +r+s+s s s s s s s s s t       ",
"  E j i i i i i i t+u+R.R.R.R.R.R.R.v+w+x+V.i i i i i i i i /._.s s s s s s s s y+z+A+B+ + + + + +.+C+D+` s s s s s ` E+F+      ",
"  G+H+w i E i i i I+t.R.R.R.R.R.R.R.J+K+L+F i i i i i i i i /._.s s s s s s s s M+N+O+ + + + + + +.+P+Q+s s s s s R+S+T+U+V+    ",
"W+X+s.E+s Y+Z+`+i ;+ @R.R.R.R.R.R.R..@+@@@&.i i i i i i i i /._.s s s s s s s P #@$@%@3+ + + + + +2+&@*@=@s -@7.;@>@,@8.'@)@d+  ",
"S.!@~@{@]@^@q /@Z (@R.R.R.R.R.R.R.R.P _@:@G i i i i i i i i /._.s s s s s s s <@[@}@F.3+ + + + + + + +|@1@2@3@8.4@5@6@7@8@9@ +  ",
"0@R.R.a@b@c@@+d@Z e@R.R.R.R.R.R.R.R.f@g@h@i@i i i i i i i i /._.s s s s s s s r j@k@l@ + + + + + + + +m@n@o@%@p@q@=+2+ +M.r@ +  ",
"0@R.R.R.R.R.s@s@Q.R.R.R.R.R.R.R.R.R.R.t@u@v@/+i i i i i i i /._.s s s s s s s Z w@x@y@z@ + + + + + + + + +=+2+ + + + + + + + +  ",
"0@R.R.R.R.R.R.R.R.R.R.R.R.R.R.R.R.R.A@B@C@D@E@3.F@E i i i i /._.s s s s E+r <@G@H@I@J@ + + + + + + + + + + + + + + + + + + + +  ",
"0@R.R.R.R.R.R.R.R.R.R.R.R.R.R.R.R.R.R.C.K@L@M@N@O@P@Q@4.3.i /.s s Q Q R@_+S@T@U@V@W@ + + + + + + + + + + + + + + + + + + + + +  ",
"0@R.R.R.R.R.R.R.R.R.R.R.R.R.R.R.R.R.R.s@X@Y@Z@`@ #O z.d..#+#@#_.##$#%#&#3@*#=#-#;#># + + + + + + + + + + + + + + + + + + + + +  ",
"0@R.R.R.R.R.R.R.R.R.R.R.R.R.R.R.R.R.R.R.R.R.,#'#).Y )#!#~#{#]#^#/#8.(#_#:#<#[#J@ + + + + + + + + + + + + + + + + + + + + + + +  ",
"0@R.R.R.R.R.R.R.R.R.R.R.R.R.R.R.R.R.R.R.R.R.R.R.}#a@(+|#1#d@2#3#4#{+5#6#7# +z@ + + + + + + + + + + + + + + + + + + + + + + + +  ",
"0@R.R.R.R.R.R.R.R.R.R.R.R.R.R.R.R.R.R.R.R.R.R.R.R.R.R.R.R.s@8#j. + + + + + + + + + + + + + + + + + + + + + + + + + + + + + + +  ",
"0@R.R.R.R.R.R.R.R.R.R.R.R.R.R.R.R.R.R.R.R.R.R.R.R.R.R.R.R.R.9# + + + + + + + + + + + + + + + + + + + + + + + + + + + + + + + +  ",
"0@R.R.R.R.R.R.R.R.R.R.R.R.R.R.R.R.R.R.R.R.R.R.R.R.R.R.R.R.R.0# + + + + + + + + + + + + + + + + + + + + + + + + + + + + + + + +  ",
"0@R.R.R.R.R.R.R.R.R.R.R.R.R.R.R.R.R.R.R.R.R.R.R.R.R.R.R.R.R.0# + + + + + + + + + + + + + + + + + + + + + + + + + + + + + + + +  ",
"0@R.R.R.R.R.R.R.R.R.R.R.R.R.R.R.R.R.R.R.R.R.R.R.R.R.R.R.R.R.0# + + + + + + + + + + + + + + + + + + + + + + + + + + + + + + + +  ",
"a#s@R.R.R.R.R.R.R.R.R.R.R.R.R.R.R.R.R.R.R.R.R.R.R.R.R.R.R.R.0# + + + + + + + + + + + + + + + + + + + + + + + + + + + + + + + +  ",
"b#}#R.R.R.R.R.R.R.R.R.R.R.R.R.R.R.R.R.R.R.R.R.R.R.R.R.R.R.R.0# + + + + + + + + + + + + + + + + + + + + + + + + + + + + + +c#d#  ",
"      e#f#f#R.R.R.R.R.R.R.R.R.R.R.R.R.R.R.R.R.R.R.R.R.R.R.R.0# + + + + + + + + + + + + + + + + + + + + + + + + +.+3+]+          ",
"              a#g#a@a@_+R.R.R.R.R.R.R.R.R.R.R.R.R.R.R.R.R.R.0# + + + + + + + + + + + + + + + + + + + +r@r+.+h#                  ",
"                    i#g#R.R.R.R.R.R.R.R.R.R.R.R.R.R.R.R.R.R.0# + + + + + + + + + + + + + + + + + +]+j#                          ",
"                            k#l#m#m#R.R.R.R.R.R.R.R.R.R.R.R.0# + + + + + + + + + + + + +2+n#]+j#                                ",
"                                    e#g#s@a@|.s@R.R.R.R.R.R.0# + + + + + + + +3+ +3+n#.+                                        ",
"                                          o#p#a#R.R.R.R.R.R.0# + + + + + + +.+q#                                                ",
"                                                  r#p#R._+R.0# + +.+n#s#t#                                                      ",
"                                                          k#u#r@v#                                                              ",
"                                                                                                                                ",
"                                                                                                                                ",
"                                                                                                                                ",
"                                                                                                                                "};
