/* XPM */
static const char *wsicon16_xpm[] = {
/* columns rows colors chars-per-pixel */
"16 16 200 2",
"   c #000305",
".  c #031219",
"X  c #0E1112",
"o  c #051B26",
"O  c #061D28",
"+  c #081F2A",
"@  c #1D1F20",
"#  c #06222F",
"$  c #072736",
"%  c #072737",
"&  c #062837",
"*  c #072837",
"=  c #072838",
"-  c #072938",
";  c #082838",
":  c #082A39",
">  c #092A3A",
",  c #092B3A",
"<  c #092B3B",
"1  c #0B3446",
"2  c #093448",
"3  c #0A364A",
"4  c #0B374C",
"5  c #0D3548",
"6  c #0F374A",
"7  c #0D3A4F",
"8  c #0F3A4E",
"9  c #0E3B50",
"0  c #0F3E54",
"q  c #134055",
"w  c #144156",
"e  c #12455D",
"r  c #16455B",
"t  c #17475D",
"y  c #154D67",
"u  c #174D66",
"i  c #184B62",
"p  c #184C64",
"a  c #194E66",
"s  c #15516D",
"d  c #18506A",
"f  c #19516C",
"g  c #175470",
"h  c #1A5671",
"j  c #1D5E7D",
"k  c #535F64",
"l  c #6F7476",
"z  c #12648B",
"x  c #12658B",
"c  c #12678F",
"v  c #13688F",
"b  c #1E6383",
"n  c #1D6486",
"m  c #1C678A",
"M  c #1E6A8D",
"N  c #1E6A8E",
"B  c #156B92",
"V  c #156B93",
"C  c #186E97",
"Z  c #1F6E92",
"A  c #1575A2",
"S  c #1576A3",
"D  c #1675A1",
"F  c #1677A3",
"G  c #1577A4",
"H  c #1677A4",
"J  c #1778A5",
"K  c #1778A6",
"L  c #167AA8",
"P  c #167AA9",
"I  c #167BA9",
"U  c #1877A3",
"Y  c #1879A7",
"T  c #187AA7",
"R  c #1A79A4",
"E  c #1C79A5",
"W  c #1D7BA7",
"Q  c #187AA8",
"!  c #197BA8",
"~  c #197BA9",
"^  c #1A7BA8",
"/  c #197CA9",
"(  c #187DAC",
")  c #197EAD",
"_  c #1B7FAD",
"`  c #1C7FAD",
"'  c #226F93",
"]  c #227398",
"[  c #21749A",
"{  c #257DA6",
"}  c #257EA7",
"|  c #6F7D84",
" . c #1A80AF",
".. c #1D80AE",
"X. c #1D81AF",
"o. c #1B80B0",
"O. c #1C82B1",
"+. c #1C82B2",
"@. c #1D83B3",
"#. c #1E82B0",
"$. c #1E82B1",
"%. c #1F83B1",
"&. c #1E84B3",
"*. c #1F84B3",
"=. c #1E84B4",
"-. c #1E85B5",
";. c #1F85B5",
":. c #1F86B6",
">. c #2382AF",
",. c #2884AF",
"<. c #2083B1",
"1. c #2186B5",
"2. c #2586B3",
"3. c #2787B3",
"4. c #2188B8",
"5. c #2189B9",
"6. c #228ABA",
"7. c #238ABA",
"8. c #238BBB",
"9. c #238BBC",
"0. c #248ABA",
"q. c #248BBB",
"w. c #268BBB",
"e. c #278CBB",
"r. c #248CBD",
"t. c #248DBD",
"y. c #248DBE",
"u. c #258DBE",
"i. c #258EBF",
"p. c #2B86B0",
"a. c #2E8BB7",
"s. c #298DBC",
"d. c #318EBA",
"f. c #3C8EB5",
"g. c #248EC0",
"h. c #268FC0",
"j. c #2890C0",
"k. c #2892C3",
"l. c #2893C4",
"z. c #2893C5",
"x. c #2993C4",
"c. c #2B93C4",
"v. c #2995C7",
"b. c #2A94C6",
"n. c #2A96C8",
"m. c #2B96C8",
"M. c #2D97C9",
"N. c #2D98CA",
"B. c #2D99CB",
"V. c #2E98CA",
"C. c #2E9ACC",
"Z. c #2E9BCE",
"A. c #3795C1",
"S. c #349CCC",
"D. c #3D9BC7",
"F. c #309DD0",
"G. c #329FD2",
"H. c #32A1D5",
"J. c #33A1D4",
"K. c #35A6DA",
"L. c #36A5D8",
"P. c #36A5D9",
"I. c #38A7DB",
"U. c #39A7DA",
"Y. c #38A8DC",
"T. c #3AABE0",
"R. c #3BADE2",
"E. c #3CADE2",
"W. c #4083A3",
"Q. c #5C92AB",
"!. c #529DBF",
"~. c #79868C",
"^. c #429EC9",
"/. c #469FC9",
"(. c #519FC3",
"). c #4CA0C7",
"_. c #4FA0C5",
"`. c #49A0C8",
"'. c #69A6C3",
"]. c #70ABC6",
"[. c #76AFC9",
"{. c #7BB2CC",
"}. c #83898C",
"|. c #808D93",
" X c #888E92",
".X c #869298",
"XX c #8A9295",
"oX c #8A959B",
"OX c #8C9498",
"+X c #8D969A",
"@X c #8D979C",
"#X c #8E989C",
"$X c #80B5CE",
"%X c #85B7CF",
"&X c #89B9CF",
"*X c #8CBACF",
"=X c #90BACE",
"-X c #93BBCD",
";X c #97BBCB",
":X c #96BBCC",
/* pixels */
"@ l }. XXXOX@X#X#XoX.X|.~.| k X ",
"+ Q.;X:X:X*X*X&X%X$X{.[.].'.f.O ",
"& U f.!.!._.).`./.^.D.A.a.p.D # ",
"& S ) 1.r.j.c.M.s.Z g s 1.=.W ; ",
"& U O.1.g.v.B.' w f y 6 0.1. ., ",
"= ! =.9.l.B.b t a.K.j b v.9.O., ",
"= ! 1.g.v.] r S.R.Y.a } M.r.O., ",
"= ! :.g.s.q p.T.R.Y.i p.v.r.<., ",
"= ! 1.g.m d J.K.Y.K.a } c.g.O.< ",
"= L =.1.e [ F.J.J.J.h M c.1.O., ",
"$ S ) W 7 3.v.B.B.Z.M y r.<.T , ",
". 1 4 1 0 0.g.z.l.l.>.5 7 7 3 . ",
"# z v V U 1.1.6.9.9.1.W C B z # ",
"= S L L ) ..=.=.=.=.=. .) L S ; ",
"o v S S S S H T L U U H S S v o ",
"  o & & & & = = = = $ & & & o   "
};
