/* XPM */
static char * wsiconcap16_xpm[] = {
"16 16 156 2",
"  	c None",
". 	c #03131B",
"+ 	c #06202C",
"@ 	c #06212D",
"# 	c #07222E",
"$ 	c #07222F",
"% 	c #08232F",
"& 	c #082330",
"* 	c #1676A3",
"= 	c #1679A7",
"- 	c #187BAA",
"; 	c #1B7FAE",
"> 	c #1D83B2",
", 	c #1F86B6",
"' 	c #2188B8",
") 	c #2189B8",
"! 	c #2086B6",
"~ 	c #1D83B3",
"{ 	c #1B80AE",
"] 	c #1677A4",
"^ 	c #177BA9",
"/ 	c #1B80AF",
"( 	c #1F85B5",
"_ 	c #2289B9",
": 	c #248DBD",
"< 	c #268FC0",
"[ 	c #2790C0",
"} 	c #2289BA",
"| 	c #167AA8",
"1 	c #1A7FAE",
"2 	c #1F85B4",
"3 	c #238ABA",
"4 	c #2993C4",
"5 	c #2B96C7",
"6 	c #2C97C8",
"7 	c #2379A1",
"8 	c #175571",
"9 	c #144A64",
"0 	c #238ABB",
"a 	c #187CAA",
"b 	c #1D82B2",
"c 	c #2189B9",
"d 	c #268FBF",
"e 	c #2A94C6",
"f 	c #2E99CB",
"g 	c #257BA3",
"h 	c #0E2D3B",
"i 	c #174960",
"j 	c #1C5E7D",
"k 	c #0D2E3E",
"l 	c #07212E",
"m 	c #197EAD",
"n 	c #248CBC",
"o 	c #2892C3",
"p 	c #2D99CA",
"q 	c #216A8C",
"r 	c #12384A",
"s 	c #3299C9",
"t 	c #35A3D6",
"u 	c #1D5B78",
"v 	c #206C8F",
"w 	c #2992C4",
"x 	c #06202D",
"y 	c #258DBE",
"z 	c #267FA8",
"A 	c #113545",
"B 	c #38A6D9",
"C 	c #3BACE0",
"D 	c #39A9DC",
"E 	c #143F52",
"F 	c #2B8FBD",
"G 	c #2A95C6",
"H 	c #258EBE",
"I 	c #08222F",
"J 	c #0E2E3D",
"K 	c #3095C4",
"L 	c #3AAADE",
"M 	c #77909C",
"N 	c #B8BEC0",
"O 	c #B7B8B9",
"P 	c #B8BDBF",
"Q 	c #8C9294",
"R 	c #367795",
"S 	c #2087B7",
"T 	c #1A7FAD",
"U 	c #1F86B5",
"V 	c #1F7096",
"W 	c #174B63",
"X 	c #33A0D3",
"Y 	c #37A6D9",
"Z 	c #9EB2BB",
"` 	c #FFFFFF",
" .	c #D3D3D3",
"..	c #989999",
"+.	c #226C8E",
"@.	c #197DAB",
"#.	c #1E84B3",
"$.	c #103D51",
"%.	c #2580AB",
"&.	c #309CCE",
"*.	c #32A0D3",
"=.	c #9DB1BA",
"-.	c #FEFEFE",
";.	c #F9F9F9",
">.	c #F1F1F1",
",.	c #3C7691",
"'.	c #1C81B0",
").	c #0A2937",
"!.	c #2B96C8",
"~.	c #9CB0B9",
"{.	c #F7F7F7",
"].	c #EFEFEF",
"^.	c #E8E8E8",
"/.	c #39738D",
"(.	c #020A0E",
"_.	c #072533",
":.	c #082735",
"<.	c #092837",
"[.	c #0C2F40",
"}.	c #248CBD",
"|.	c #2790C1",
"1.	c #2992C3",
"2.	c #9CAEB7",
"3.	c #FDFDFD",
"4.	c #F6F6F6",
"5.	c #EEEEEE",
"6.	c #E6E6E6",
"7.	c #DEDEDE",
"8.	c #2C3D46",
"9.	c #197EAC",
"0.	c #238BBC",
"a.	c #99ABB4",
"b.	c #F5F5F5",
"c.	c #EDEDED",
"d.	c #E5E5E5",
"e.	c #DDDDDD",
"f.	c #D5D5D5",
"g.	c #336B86",
"h.	c #187DAB",
"i.	c #1E84B4",
"j.	c #93A5AD",
"k.	c #ECECEC",
"l.	c #E4E4E4",
"m.	c #DCDCDC",
"n.	c #D4D4D4",
"o.	c #CCCCCC",
"p.	c #316A84",
"q.	c #177AA8",
"r.	c #197DAC",
"s.	c #326D89",
"t.	c #487990",
"u.	c #45778D",
"v.	c #43748B",
"w.	c #417289",
"x.	c #3F7086",
"y.	c #1A668A",
"  . + + @ # $ % & % $ # @ + .   ",
". * = - ; > , ' ) ' ! ~ { - ] . ",
"+ = ^ / ( _ : < [ < : } ( / - + ",
"+ | 1 2 3 < 4 5 6 7 8 9 0 ( 1 @ ",
"+ a b c d e f g h i j k < _ > l ",
"+ m 2 n o p q r s t u v w n ( $ ",
"x 1 ! y e z A B C D E F G H ! I ",
"x ; ! H e J K L M N O P Q R S % ",
"x T U : V W X Y Z ` ` `  ...+.$ ",
"+ @.#.3 $.%.&.*.=.` ` -.;.>.,.# ",
"+ ^ '.S ).o !.f ~.` -.{.].^./.@ ",
"(._.:.<.[.}.|.1.2.3.4.5.6.7.8.(.",
"+ = | 9.b ! _ 0.a.b.c.d.e.f.g.+ ",
"+ = = | h./ > i.j.k.l.m.n.o.p.+ ",
". * = = = q.a r.s.t.u.v.w.x.y.. ",
"  . + + + + + + + + + + + + .   "};
