/* XPM */
static char * wsiconcap32_xpm[] = {
"32 32 137 2",
"  	c None",
". 	c #156B8D",
"+ 	c #156B8E",
"@ 	c #156B8F",
"# 	c #146B8E",
"$ 	c #136B8F",
"% 	c #146B8F",
"& 	c #156A8D",
"* 	c #146A8D",
"= 	c #167EAC",
"- 	c #1579A4",
"; 	c #14739C",
"> 	c #146E93",
", 	c #136A8E",
"' 	c #126689",
") 	c #116283",
"! 	c #115D7E",
"~ 	c #125978",
"{ 	c #1681AF",
"] 	c #157EAB",
"^ 	c #1578A2",
"/ 	c #14739A",
"( 	c #146D92",
"_ 	c #12678A",
": 	c #126285",
"< 	c #115E7E",
"[ 	c #105A79",
"} 	c #105979",
"| 	c #125877",
"1 	c #1681AE",
"2 	c #167DAA",
"3 	c #1478A2",
"4 	c #147299",
"5 	c #136C91",
"6 	c #13678B",
"7 	c #136385",
"8 	c #115E7F",
"9 	c #105A7A",
"0 	c #167CA9",
"a 	c #1477A0",
"b 	c #146F94",
"c 	c #126486",
"d 	c #115F80",
"e 	c #105B7B",
"f 	c #14769F",
"g 	c #105878",
"h 	c #0E516D",
"i 	c #0F5270",
"j 	c #14749E",
"k 	c #136A8F",
"l 	c #136286",
"m 	c #167DA9",
"n 	c #0E526F",
"o 	c #093548",
"p 	c #105471",
"q 	c #167EAB",
"r 	c #105674",
"s 	c #105573",
"t 	c #0E465E",
"u 	c #115D7D",
"v 	c #115876",
"w 	c #083244",
"x 	c #0A2D3F",
"y 	c #1680AE",
"z 	c #105370",
"A 	c #0F516D",
"B 	c #125B7C",
"C 	c #115A7A",
"D 	c #206E8F",
"E 	c #0A374A",
"F 	c #072B3B",
"G 	c #0B3446",
"H 	c #136F96",
"I 	c #0F5370",
"J 	c #10526E",
"K 	c #13688C",
"L 	c #2A7999",
"M 	c #1A556E",
"N 	c #0B374A",
"O 	c #105673",
"P 	c #136B91",
"Q 	c #4391AC",
"R 	c #093244",
"S 	c #0A3345",
"T 	c #155D7B",
"U 	c #333333",
"V 	c #115979",
"W 	c #125675",
"X 	c #115C7C",
"Y 	c #115D7F",
"Z 	c #12658A",
"` 	c #136E94",
" .	c #14729A",
"..	c #0F526E",
"+.	c #1C6685",
"@.	c #14688C",
"#.	c #FFFFFF",
"$.	c #0E4D69",
"%.	c #0D465F",
"&.	c #0B3F55",
"*.	c #0A364A",
"=.	c #10536F",
"-.	c #0F5471",
";.	c #105776",
">.	c #115A7B",
",.	c #0F5574",
"'.	c #186080",
").	c #267496",
"!.	c #083245",
"~.	c #082D3E",
"{.	c #082B3C",
"].	c #11536F",
"^.	c #115472",
"/.	c #3583A5",
"(.	c #136E96",
"_.	c #167BA8",
":.	c #115978",
"<.	c #115776",
"[.	c #105B7D",
"}.	c #105C7E",
"|.	c #116184",
"1.	c #13698F",
"2.	c #12688D",
"3.	c #0E506D",
"4.	c #0D4A63",
"5.	c #0C4259",
"6.	c #105371",
"7.	c #105978",
"8.	c #0F526F",
"9.	c #093549",
"0.	c #082F41",
"a.	c #072C3C",
"b.	c #0E4761",
"c.	c #115270",
"d.	c #082B3A",
"e.	c #115370",
"f.	c #082A3B",
"                                                                ",
"                                                                ",
"                            . + . .                             ",
"                    @ # $ $ $ $ $ $ $ $ + .                     ",
"            + % $ $ $ $ $ $ $ $ $ $ $ $ $ $ $ % & .             ",
"    + # $ $ $ $ $ $ $ $ $ $ $ $ $ $ $ $ $ $ $ $ $ $ $ % *       ",
"  = - ; > $ $ $ $ $ $ $ $ $ $ $ $ $ $ $ $ $ $ $ $ $ , ' ) ! ~   ",
"  { { { { ] ^ / ( $ $ $ $ $ $ $ $ $ $ $ $ $ $ _ : < [ } } } |   ",
"  { { { { { { { 1 2 3 4 5 $ $ $ $ $ $ 6 7 8 9 } } } } } } } |   ",
"  { { { { { { { { { { { 1 0 a b c d e } } } } } } } } } } } |   ",
"  { { { { { { { { { { { { { { f } } } } } } } } } } } } } } |   ",
"  { { { { { { { { { { { { { { f } } } } } } } } g h i } } } |   ",
"  { { { { { { { j k l m { { { f } } } } } } } 9 n o p } } } |   ",
"  { { { { { q d r s t { { { { f } } } } } } u v w x } } } } |   ",
"  { { { { y ! z z A B { { { { f } } } } } C D E F G } } } } |   ",
"  { { { { H I z z J K { { { { f } } } } } L M F F N } } } } |   ",
"  { { { { 8 z z z O P { { { { f } } } } 9 Q R F F S } } } } |   ",
"  y { { y I z z z T P { { { { f } } } U U U U U U U V } } } W   ",
"X Y Z `  ...z z z +.@.{ { { { f } } } U #.#.#.#.#.U U I $.%.&.*.",
"=.-.;.>.,.z z z z '.).{ { { { f } } } U #.#.#.#.#.U #.U !.~.{.F ",
"].z z z z z z z z ^./.(._.{ { f } } :.U #.#.#.#.#.U U U U F F F ",
"].z z z z z z z z z <.[.}.|.1.2.3.4.5.U #.#.#.#.#.#.#.#.U F F F ",
"].z z z z z z z z z z z 6.s 7.8.9.0.a.U #.#.#.#.#.#.#.#.U F F F ",
"].z z z z z z z z z z z z z z b.F F F U #.#.#.#.#.#.#.#.U F F F ",
"].z z z z z z z z z z z z z z b.F F F U #.#.#.#.#.#.#.#.U F F F ",
"c.z z z z z z z z z z z z z z b.F F F U #.#.#.#.#.#.#.#.U F F d.",
"    c.e.z z z z z z z z z z z b.F F F U #.#.#.#.#.#.#.#.U       ",
"            c.=.z z z z z z z b.F F F U #.#.#.#.#.#.#.#.U       ",
"                    ].c.z z z b.F F F U #.#.#.#.#.#.#.#.U       ",
"                            =.b.F f.  U #.#.#.#.#.#.#.#.U       ",
"                                      U U U U U U U U U U       ",
"                                                                "};
