/* XPM */
static char * wsicon16_xpm[] = {
"16 16 128 2",
"  	c None",
". 	c #03131B",
"+ 	c #06202C",
"@ 	c #06212D",
"# 	c #07222E",
"$ 	c #07222F",
"% 	c #08232F",
"& 	c #082330",
"* 	c #1676A3",
"= 	c #1679A7",
"- 	c #187BAA",
"; 	c #1B7FAE",
"> 	c #1D83B2",
", 	c #1F86B6",
"' 	c #2188B8",
") 	c #2189B8",
"! 	c #2086B6",
"~ 	c #1D83B3",
"{ 	c #1B80AE",
"] 	c #1677A4",
"^ 	c #177BA9",
"/ 	c #1B80AF",
"( 	c #1F85B5",
"_ 	c #2289B9",
": 	c #248DBD",
"< 	c #268FC0",
"[ 	c #2790C0",
"} 	c #2289BA",
"| 	c #167AA8",
"1 	c #1A7FAE",
"2 	c #1F85B4",
"3 	c #238ABA",
"4 	c #2993C4",
"5 	c #2B96C7",
"6 	c #2C97C8",
"7 	c #2379A1",
"8 	c #175571",
"9 	c #144A64",
"0 	c #238ABB",
"a 	c #187CAA",
"b 	c #1D82B2",
"c 	c #2189B9",
"d 	c #268FBF",
"e 	c #2A94C6",
"f 	c #2E99CB",
"g 	c #257BA3",
"h 	c #0E2D3B",
"i 	c #174960",
"j 	c #1C5E7D",
"k 	c #0D2E3E",
"l 	c #07212E",
"m 	c #197EAD",
"n 	c #248CBC",
"o 	c #2892C3",
"p 	c #2D99CA",
"q 	c #216A8C",
"r 	c #12384A",
"s 	c #3299C9",
"t 	c #35A3D6",
"u 	c #1D5B78",
"v 	c #206C8F",
"w 	c #2992C4",
"x 	c #06202D",
"y 	c #258DBE",
"z 	c #267FA8",
"A 	c #113545",
"B 	c #38A6D9",
"C 	c #3BACE0",
"D 	c #39A9DC",
"E 	c #143F52",
"F 	c #2B8FBD",
"G 	c #2A95C6",
"H 	c #258EBE",
"I 	c #08222F",
"J 	c #0E2E3D",
"K 	c #3095C4",
"L 	c #3AAADE",
"M 	c #3DAEE3",
"N 	c #123748",
"O 	c #2E98C9",
"P 	c #258EBF",
"Q 	c #2087B7",
"R 	c #1A7FAD",
"S 	c #1F86B5",
"T 	c #1F7096",
"U 	c #174B63",
"V 	c #33A0D3",
"W 	c #37A6D9",
"X 	c #39A8DC",
"Y 	c #37A6DA",
"Z 	c #133C4F",
"` 	c #2B90BF",
" .	c #2A94C5",
"..	c #197DAB",
"+.	c #1E84B3",
"@.	c #103D51",
"#.	c #2580AB",
"$.	c #309CCE",
"%.	c #32A0D3",
"&.	c #34A1D4",
"*.	c #19526C",
"=.	c #22749A",
"-.	c #2791C2",
";.	c #238BBB",
">.	c #1C81B0",
",.	c #0A2937",
"'.	c #2B96C8",
").	c #2E9ACC",
"!.	c #217298",
"~.	c #154B65",
"{.	c #020A0E",
"].	c #072533",
"^.	c #082735",
"/.	c #092837",
"(.	c #0C2F40",
"_.	c #248CBD",
":.	c #2790C1",
"<.	c #2992C3",
"[.	c #268EBE",
"}.	c #081E29",
"|.	c #0A2A39",
"1.	c #092937",
"2.	c #197EAC",
"3.	c #238BBC",
"4.	c #187DAB",
"5.	c #1E84B4",
"6.	c #177AA8",
"7.	c #197DAC",
"  . + + @ # $ % & % $ # @ + .   ",
". * = - ; > , ' ) ' ! ~ { - ] . ",
"+ = ^ / ( _ : < [ < : } ( / - + ",
"+ | 1 2 3 < 4 5 6 7 8 9 0 ( 1 @ ",
"+ a b c d e f g h i j k < _ > l ",
"+ m 2 n o p q r s t u v w n ( $ ",
"x 1 ! y e z A B C D E F G H ! I ",
"x ; ! H e J K L M L N O G P Q % ",
"x R S : T U V W X Y Z `  .: , $ ",
"+ ..+.3 @.#.$.%.&.V *.=.-.;.+.# ",
"+ ^ >.Q ,.o '.f ).f !.~.: Q >.@ ",
"{.].^./.(._.:.<.4 w [.}.|.1.^.{.",
"+ = | 2.b ! _ 3.n 3.} ! b m | + ",
"+ = = | 4./ > 5.2 5.> / ..| = + ",
". * = = = 6.a 7.2.7.a 6.= = * . ",
"  . + + + + + + + + + + + + .   "};
