/* XPM */
static const char * wsicon16_xpm[] = {
"16 16 67 1",
" 	c None",
".	c #146B8E",
"+	c #156B8E",
"@	c #146B8F",
"#	c #136B8F",
"$	c #1680AE",
"%	c #157CA7",
"&	c #14769F",
"*	c #147097",
"=	c #136C90",
"-	c #136A8E",
";	c #126588",
">	c #126182",
",	c #115C7D",
"'	c #1681AF",
")	c #157BA6",
"!	c #15759E",
"~	c #136F94",
"{	c #126689",
"]	c #126283",
"^	c #115D7E",
"/	c #105979",
"(	c #157BA7",
"_	c #105776",
":	c #105777",
"<	c #1578A2",
"[	c #126285",
"}	c #13698F",
"|	c #115A79",
"1	c #0A3A4E",
"2	c #105877",
"3	c #157CA9",
"4	c #105573",
"5	c #10526F",
"6	c #14719A",
"7	c #176181",
"8	c #134961",
"9	c #093042",
"0	c #167FAD",
"a	c #136C93",
"b	c #105370",
"c	c #115674",
"d	c #1576A0",
"e	c #27718E",
"f	c #082D3D",
"g	c #116184",
"h	c #115B7B",
"i	c #155B79",
"j	c #1A77A0",
"k	c #165570",
"l	c #072B3B",
"m	c #0B3F56",
"n	c #0B3D53",
"o	c #093345",
"p	c #1A698B",
"q	c #136E96",
"r	c #14729A",
"s	c #0F5371",
"t	c #0D4B65",
"u	c #0F4056",
"v	c #105471",
"w	c #0F516E",
"x	c #082F40",
"y	c #0F4D69",
"z	c #10536F",
"A	c #0F4C68",
"B	c #082B3B",
"                ",
"      ....      ",
"  +@########..  ",
"$%&*=######-;>, ",
"''''$)!~{]^//// ",
"'''''''(////_:/ ",
"'''<[}'(///|12/ ",
"''3456'(//789// ",
"0'abcd'(//eff// ",
"2ghbij'(//kllmno",
"bbbbbpqrstulllll",
"bbbbbbvwxlllllll",
"bbbbbbbyllllllll",
"  bbbbbyllllll  ",
"      zAlB      ",
"                "};
