/* XPM */
static char * wsicon48_xpm[] = {
"48 48 336 2",
"  	c None",
". 	c #000000",
"+ 	c #01080C",
"@ 	c #0B3C53",
"# 	c #115C7E",
"$ 	c #126186",
"% 	c #126287",
"& 	c #126388",
"* 	c #136489",
"= 	c #14658A",
"- 	c #14658B",
"; 	c #15668C",
"> 	c #16678D",
", 	c #16688E",
"' 	c #17688F",
") 	c #17698F",
"! 	c #186990",
"~ 	c #186A90",
"{ 	c #186A91",
"] 	c #136388",
"^ 	c #02080C",
"/ 	c #126288",
"( 	c #1679A7",
"_ 	c #1679A8",
": 	c #177BA9",
"< 	c #187CAB",
"[ 	c #197EAC",
"} 	c #1A7FAE",
"| 	c #1B80AF",
"1 	c #1C81B0",
"2 	c #1D82B1",
"3 	c #1D83B2",
"4 	c #1E84B3",
"5 	c #1E85B4",
"6 	c #1F85B5",
"7 	c #1F86B5",
"8 	c #1F86B6",
"9 	c #2086B6",
"0 	c #167AA8",
"a 	c #197DAB",
"b 	c #1A7EAD",
"c 	c #1B7FAE",
"d 	c #1E84B4",
"e 	c #2087B7",
"f 	c #2188B8",
"g 	c #2188B9",
"h 	c #2189B9",
"i 	c #1D83B3",
"j 	c #187BAA",
"k 	c #1C81B1",
"l 	c #2289B9",
"m 	c #228ABA",
"n 	c #238ABA",
"o 	c #238BBB",
"p 	c #2188B7",
"q 	c #2087B6",
"r 	c #1C82B1",
"s 	c #1A7FAD",
"t 	c #197DAC",
"u 	c #177BAA",
"v 	c #1F85B4",
"w 	c #2189B8",
"x 	c #238BBC",
"y 	c #248CBC",
"z 	c #248DBD",
"A 	c #258DBD",
"B 	c #258DBE",
"C 	c #2187B7",
"D 	c #1E83B3",
"E 	c #258EBE",
"F 	c #268EBF",
"G 	c #268FC0",
"H 	c #2790C0",
"I 	c #1B80B0",
"J 	c #177AA9",
"K 	c #2790C1",
"L 	c #2791C2",
"M 	c #2891C2",
"N 	c #2892C3",
"O 	c #258EBF",
"P 	c #187DAB",
"Q 	c #126187",
"R 	c #187CAA",
"S 	c #268FBF",
"T 	c #2993C4",
"U 	c #2994C5",
"V 	c #2A94C5",
"W 	c #2A94C6",
"X 	c #197EAD",
"Y 	c #238ABB",
"Z 	c #2B95C7",
"` 	c #2B96C7",
" .	c #2B96C8",
"..	c #2C97C8",
"+.	c #2C97C9",
"@.	c #2C96C8",
"#.	c #2685B1",
"$.	c #1E6C91",
"%.	c #185876",
"&.	c #144A63",
"*.	c #124259",
"=.	c #196283",
"-.	c #248CBD",
";.	c #136389",
">.	c #177AA8",
",.	c #2992C4",
"'.	c #2D98CA",
").	c #2D99CB",
"!.	c #2D98C9",
"~.	c #217297",
"{.	c #123F54",
"].	c #06151C",
"^.	c #010304",
"/.	c #030C10",
"(.	c #1D82B2",
"_.	c #13648A",
":.	c #2289BA",
"<.	c #2E99CC",
"[.	c #2E9ACD",
"}.	c #2F9BCD",
"|.	c #2D96C6",
"1.	c #1B5A78",
"2.	c #06161D",
"3.	c #010506",
"4.	c #071921",
"5.	c #0D2B3A",
"6.	c #103C50",
"7.	c #2C98C9",
"8.	c #2E99CB",
"9.	c #2F9ACD",
"0.	c #2F9CCE",
"a.	c #309CCE",
"b.	c #24759B",
"c.	c #081922",
"d.	c #040E13",
"e.	c #144156",
"f.	c #227094",
"g.	c #2C91C0",
"h.	c #217196",
"i.	c #000101",
"j.	c #03090C",
"k.	c #2585B1",
"l.	c #15668B",
"m.	c #2C98CA",
"n.	c #309CCF",
"o.	c #2F97C8",
"p.	c #144055",
"q.	c #010203",
"r.	c #06141A",
"s.	c #1F607F",
"t.	c #3098C8",
"u.	c #329FD2",
"v.	c #319ED0",
"w.	c #309DCF",
"x.	c #103546",
"y.	c #124055",
"z.	c #2992C3",
"A.	c #1B80AE",
"B.	c #2993C5",
"C.	c #2D90BE",
"D.	c #0C2835",
"E.	c #010305",
"F.	c #17475D",
"G.	c #3198C7",
"H.	c #34A2D6",
"I.	c #34A2D5",
"J.	c #33A1D4",
"K.	c #33A0D3",
"L.	c #329FD1",
"M.	c #2D93C2",
"N.	c #02080B",
"O.	c #000102",
"P.	c #247CA5",
"Q.	c #2C8DBB",
"R.	c #081921",
"S.	c #040D11",
"T.	c #27799F",
"U.	c #36A5D8",
"V.	c #36A5D9",
"W.	c #36A4D8",
"X.	c #35A3D6",
"Y.	c #237094",
"Z.	c #2D97C8",
"`.	c #2A95C6",
" +	c #2E9ACC",
".+	c #2E94C4",
"++	c #0A1F29",
"@+	c #081820",
"#+	c #2E8BB7",
"$+	c #37A6DA",
"%+	c #38A7DB",
"&+	c #35A4D7",
"*+	c #174961",
"=+	c #144257",
"-+	c #309BCD",
";+	c #0D2B39",
">+	c #061319",
",+	c #2F90BD",
"'+	c #39A8DC",
")+	c #39A9DD",
"!+	c #3AAADE",
"~+	c #3AA9DD",
"{+	c #39A9DC",
"]+	c #37A5D9",
"^+	c #35A3D7",
"/+	c #0E2D3B",
"(+	c #1E6181",
"_+	c #17688E",
":+	c #2F9BCE",
"<+	c #1A5571",
"[+	c #040B0E",
"}+	c #2C85AF",
"|+	c #3BACE0",
"1+	c #3CACE0",
"2+	c #3AAADF",
"3+	c #38A7DA",
"4+	c #35A2D5",
"5+	c #07161D",
"6+	c #267CA4",
"7+	c #267EA7",
"8+	c #020607",
"9+	c #216788",
"0+	c #3DAEE2",
"a+	c #3DAEE3",
"b+	c #38A8DC",
"c+	c #35A1D3",
"d+	c #030A0D",
"e+	c #2B8BB8",
"f+	c #2A95C7",
"g+	c #0C2836",
"h+	c #123749",
"i+	c #3CACE1",
"j+	c #3EAFE4",
"k+	c #3FB0E5",
"l+	c #3CADE1",
"m+	c #3AABDF",
"n+	c #359FD0",
"o+	c #020709",
"p+	c #2E92C1",
"q+	c #1F6889",
"r+	c #2D8FBC",
"s+	c #38A8DB",
"t+	c #3EB0E4",
"u+	c #3DAFE3",
"v+	c #349ECF",
"w+	c #02080A",
"x+	c #2E93C2",
"y+	c #2B95C5",
"z+	c #091E28",
"A+	c #184F68",
"B+	c #34A3D6",
"C+	c #3BABDF",
"D+	c #3DADE2",
"E+	c #02070A",
"F+	c #248BBC",
"G+	c #1F6B8E",
"H+	c #000001",
"I+	c #030B0E",
"J+	c #32A0D2",
"K+	c #37A6D9",
"L+	c #349FD1",
"M+	c #0C2B39",
"N+	c #16485F",
"O+	c #319ED1",
"P+	c #33A1D3",
"Q+	c #34A0D2",
"R+	c #061217",
"S+	c #2881AB",
"T+	c #1B81B0",
"U+	c #2791C1",
"V+	c #2481AD",
"W+	c #010406",
"X+	c #2783AE",
"Y+	c #319DD0",
"Z+	c #36A4D7",
"`+	c #0B222D",
" @	c #216D90",
".@	c #16516D",
"+@	c #0B2633",
"@@	c #2D97C9",
"#@	c #12394C",
"$@	c #18516B",
"%@	c #0B2836",
"&@	c #185571",
"*@	c #2D99CA",
"=@	c #34A1D4",
"-@	c #1B5875",
";@	c #0E3141",
">@	c #15678C",
",@	c #2387B5",
"'@	c #000202",
")@	c #237CA5",
"!@	c #24779E",
"~@	c #06141B",
"{@	c #2A93C4",
"]@	c #1A6587",
"^@	c #2890C0",
"/@	c #2A8FBE",
"(@	c #237EA8",
"_@	c #104259",
":@	c #0F394C",
"<@	c #0C2937",
"[@	c #17536F",
"}@	c #0A2837",
"|@	c #165471",
"1@	c #17546F",
"2@	c #0A2633",
"3@	c #105779",
"4@	c #146D96",
"5@	c #146E97",
"6@	c #167099",
"7@	c #17719B",
"8@	c #18739D",
"9@	c #1A759F",
"0@	c #1B77A1",
"a@	c #1C78A3",
"b@	c #040F15",
"c@	c #1B6C92",
"d@	c #227EA8",
"e@	c #010303",
"f@	c #1D7198",
"g@	c #207DA9",
"h@	c #1F7CA7",
"i@	c #1E7AA5",
"j@	c #19739D",
"k@	c #17729B",
"l@	c #11597A",
"m@	c #000304",
"n@	c #010405",
"o@	c #1F7CA8",
"p@	c #0A2735",
"q@	c #092937",
"r@	c #2690C0",
"s@	c #1A688C",
"t@	c #0B3D54",
"u@	c #115C7F",
"        . . . . . . . . . . . . . . . . . . . . . . . . . . . . . . . . . . . . . . . .         ",
"    . . . . . . . . . . . . . . . . . . . . . . . . . . . . . . . . . . . . . . . . . . . .     ",
"  . . + @ # $ $ $ $ $ % & * = - ; > , ' ) ! ~ ~ { { { ~ ~ ~ ) ) , > ; - = * ] % $ $ # @ + . .   ",
"  . ^ / ( ( ( ( ( ( _ : < [ } | 1 2 3 4 5 6 7 8 8 9 8 8 7 6 5 4 3 2 1 | } [ < : 0 ( ( ( / ^ .   ",
". . @ ( ( ( ( ( ( 0 : a b c 1 2 3 d 6 8 e e f f g h g f f e e 9 6 d i 2 1 | b a j 0 ( ( ( @ . . ",
". . # ( ( ( ( ( 0 : a b | k 3 4 6 9 e f l m n o o o o o n m l f p q 7 d 3 r | s t j 0 ( ( # . . ",
". . $ ( ( ( ( _ u t s | r i v 9 e w m o x y z A B B B A z y x o m h C 9 v D r | } t j 0 ( $ . . ",
". . $ ( ( ( ( : a s | r 4 6 q f l o y z E F G G H H H G G F E z y o m f e 6 4 2 I s a : ( $ . . ",
". . $ ( ( ( J < b | r 4 6 e f m x z E G K L M N N N N N M L K G O z y m h e 6 4 2 | b P : Q . . ",
". . $ ( ( 0 R [ | r i 6 e h n y B S K M N T U V W W W V U T N M K G B y o h e 6 4 r | X R % . . ",
". . $ ( ( : t } 1 3 v q h Y y E G L N T W Z `  ...+...@. .Z #.$.%.&.*.=.-.o h e 6 3 1 } t ;.. . ",
". . $ ( >.R b | 2 d 9 f m y E G M ,.V Z @.+.'.).).).!.~.{.].^.. . . . /.O -.n f 9 5 (.| b _.. . ",
". . $ ( : t } 1 D 6 C :.y B G M T W ` +.'.<.[.}.|.1.2.. . . 3.4.5.3.. 6.G E y m f 7 4 r c - . . ",
". . $ 0 R b | (.5 q h o A G L T W  .7.8.9.0.a.b.c.. . d.e.f.g.8.h.i.j.k.M G B o l e v 3 | l.. . ",
". . $ J P } 1 i 6 p m y O K N V  .m.<.}.n.o.p.q.. r.s.t.u.v.w.}.x.. y.W z.K F -.m f 7 D 1 ; . . ",
". . % : t A.r 4 9 h o A G M B.Z +.8.}.w.C.D.. E.F.G.H.I.J.K.L.M.N.O.P.` U N G B o l q d 2 > . . ",
". . % R X | 3 v e :.y E K N W @.).}.w.Q.R.. S.T.U.V.U.W.X.I.K.Y.. 4.Z.+.`.T K O y m e 6 3 , . . ",
". . % < s 1 3 6 f m -.S L T Z 7. +a..+++. @+#+$+%+%+%+$+V.&+I.*+. =+ +'.` B.M G z n f 7 D , . . ",
". . & P } 1 4 8 f o z G N V  .'.}.-+;+. >+,+%+'+)+!+~+{+%+]+^+/+. (+}.).@.V N G B o h 9 4 _+. . ",
". . ] a } r 4 9 h o B K N W ..).:+<+. [+}+$+'+!+|+1+|+2+)+3+4+5+. 6+0.8.+.`.z.K E x h 9 d ) . . ",
". . ] t c r d q l x E K z.`.+.8.7+8+i.9+V.%+!+|+0+a+0+|+!+b+c+d+O.e+a. ++.f+T K E y l e d ) . . ",
". . ] t c r d q l x E K T `.+.'.g+. h+4+]+b+!+i+j+k+j+l+m+'+n+i.o+p+n. ++.f+T K O y l e d ) . . ",
". . ] t c r d q l x E K T `.+.q+i.o+r+X.]+s+!+i+a+t+u+i+!+b+v+. w+x+n. ++.f+T K O y l e d ) . . ",
". . ] t } r 4 9 h o B K z.`.y+z+. A+K.B+U.%+)+C+l+D+l+C+~+%+v+i.E+p+a. ++.`.,.K E F+l e d ) . . ",
". . & a } 1 4 9 f o B G N W G+H+I+M.J+I.&+K+b+)+2+C+m+~+b+$+L+w+^.Q.:+)...W N K B o h 9 4 ) . . ",
". . / < s 1 D 7 f Y z G M T M+. N+n.O+P+X.W.$+%+'+)+'+%+$+U.Q+R+. S+9.'. .V N G A o f 8 4 _+. . ",
". . % R b T+3 6 C m y O U+V+W+^.X+:+Y+u.J.X.Z+V.$+$+$+]+W.X.J.`+.  @8.+.Z T L F -.m f 6 3 , . . ",
". . % j [ | 2 d e l x B H .@. +@@@ +a.v.u.J.I.X.&+&+&+X.I.J.J+#@. $@'. .V N K E x l e v (.> . . ",
". . $ : t } k 4 8 f n z F %@. &@..*@ +a.Y+L.K.J.=@=@=@J.K.u.v.-@. ;@+.`.T L G z o f 9 4 r >@. . ",
". . $ >.< b 1 3 6 e l x ,@o+'@)@Z +.). +0.w.v.O+u.u.u.L.v.w.0.!@. ~@{@U N K E y m C 6 3 1 ; . . ",
". . $ ( j t | r 4 9 f n ]@. ].^@V Z ..'. +}.:+a.w.w.w.n.0.}. +/@w+O.(@N K F -.Y f 9 d 2 | - . . ",
". . $ ( J P s 1 3 v e l _@. :@K N B.`. .+.'.8. + +[. + +8.*@7. .<@. [@K S A o l e 6 3 1 } = . . ",
". . $ ( _ j t A.r 4 7 C }@. |@S K N T W Z  .+.7.'.'.'.7.+.@.Z W 1@. 2@F A x m f 7 4 r | [ * . . ",
". . 3@4@4@5@6@7@8@9@0@a@b@. c@z F K M N T V `.Z Z ` Z Z `.V B.N d@W+e@f@g@h@i@a@0@9@j@k@6@l@. . ",
". . m@E.E.E.n@n@n@n@n@n@. W+o@o -.E G K M N z.T T T T T ,.N M K S p@. ^.n@n@n@n@n@n@n@n@n@m@. . ",
". . i.i.i.i.i.i.i.i.i.i.i.q@9 l Y y z E S G K K L M L U+K r@G O z s@E+i.i.i.i.i.i.i.i.i.i.i.. . ",
". . $ ( ( ( ( >.R [ c 1 3 d 7 e f m o y -.B E O O F F O E B z y o m w e 8 d 3 1 A.X < J ( $ . . ",
". . $ ( ( ( ( ( J R [ c 1 (.4 6 9 C f :.n o x y y -.y y x o n m h C 9 6 4 3 1 c X < : ( ( $ . . ",
". . $ ( ( ( ( ( ( J R [ } | r 3 d 6 9 e f h l l m m m :.l h f e 9 6 d i r 1 } [ < : ( ( ( $ . . ",
". . $ ( ( ( ( ( ( ( >.R t b | 1 2 i d 6 7 9 q e e e e e q 9 7 6 d i 2 1 | s t R J ( ( ( ( $ . . ",
". . $ ( ( ( ( ( ( ( ( >.j a [ } | 1 r 3 D 4 d v v v v v d 4 D 3 2 1 | } X a j >.( ( ( ( ( $ . . ",
". . $ ( ( ( ( ( ( ( ( ( _ : R a X } | | 1 r 2 (.3 3 3 (.2 r 1 T+| } b t R : 0 ( ( ( ( ( ( $ . . ",
". . # ( ( ( ( ( ( ( ( ( ( ( 0 : R a t b } } | | | | | | | } } b [ a R : 0 ( ( ( ( ( ( ( ( # . . ",
". . @ ( ( ( ( ( ( ( ( ( ( ( ( ( 0 J : R < a t [ X X X [ t t P R j : 0 ( ( ( ( ( ( ( ( ( ( @ . . ",
"  . ^ / ( ( ( ( ( ( ( ( ( ( ( ( ( ( ( 0 >.: : j j j j j : : >.0 ( ( ( ( ( ( ( ( ( ( ( ( / ^ .   ",
"  . . + t@u@$ $ $ $ $ $ $ $ $ $ $ $ $ $ $ $ Q % % % % % Q $ $ $ $ $ $ $ $ $ $ $ $ $ u@t@+ . .   ",
"    . . . . . . . . . . . . . . . . . . . . . . . . . . . . . . . . . . . . . . . . . . . .     ",
"        . . . . . . . . . . . . . . . . . . . . . . . . . . . . . . . . . . . . . . . .         "};
