/* XPM */
static char * wsicon32_xpm[] = {
"32 32 236 2",
"  	c None",
". 	c #000000",
"+ 	c #030E14",
"@ 	c #0A384E",
"# 	c #0C4059",
"$ 	c #0C4159",
"% 	c #0C415A",
"& 	c #0D425B",
"* 	c #0E435C",
"= 	c #0E445D",
"- 	c #0F455E",
"; 	c #0F465F",
"> 	c #10465F",
", 	c #104660",
"' 	c #0C425A",
") 	c #146F99",
"! 	c #1679A7",
"~ 	c #177BA9",
"{ 	c #197DAC",
"] 	c #1A7FAE",
"^ 	c #1C81B0",
"/ 	c #1D82B2",
"( 	c #1E84B3",
"_ 	c #1F85B4",
": 	c #1F86B5",
"< 	c #2086B6",
"[ 	c #2087B6",
"} 	c #1F85B5",
"| 	c #177BAA",
"1 	c #197EAC",
"2 	c #1B80AF",
"3 	c #1C82B1",
"4 	c #2087B7",
"5 	c #2188B8",
"6 	c #2289B9",
"7 	c #228ABA",
"8 	c #238ABA",
"9 	c #1D82B1",
"0 	c #187BAA",
"a 	c #1D83B2",
"b 	c #2189B9",
"c 	c #238ABB",
"d 	c #248CBC",
"e 	c #248DBD",
"f 	c #258DBE",
"g 	c #258EBE",
"h 	c #1A7EAD",
"i 	c #268FC0",
"j 	c #2790C1",
"k 	c #2891C2",
"l 	c #167AA8",
"m 	c #187DAB",
"n 	c #1B7FAE",
"o 	c #2791C2",
"p 	c #2992C4",
"q 	c #2994C5",
"r 	c #2A94C6",
"s 	c #2A95C6",
"t 	c #2A94C5",
"u 	c #258BBA",
"v 	c #248AB9",
"w 	c #238BBB",
"x 	c #197DAB",
"y 	c #1E84B4",
"z 	c #2892C3",
"A 	c #2B96C7",
"B 	c #2C97C9",
"C 	c #2D98CA",
"D 	c #22759C",
"E 	c #14465E",
"F 	c #0A2430",
"G 	c #040E12",
"H 	c #010406",
"I 	c #05131A",
"J 	c #2188B7",
"K 	c #1E85B4",
"L 	c #1A7FAD",
"M 	c #1D83B3",
"N 	c #248CBD",
"O 	c #2C97C8",
"P 	c #2D99CB",
"Q 	c #2E9ACC",
"R 	c #2F9BCD",
"S 	c #1F6687",
"T 	c #081A22",
"U 	c #051116",
"V 	c #103546",
"W 	c #15475F",
"X 	c #010203",
"Y 	c #0F3547",
"Z 	c #1E83B3",
"` 	c #0D435C",
" .	c #1C81B1",
"..	c #268EBF",
"+.	c #2E99CB",
"@.	c #2F9CCE",
"#.	c #2B8CB9",
"$.	c #0E2C3B",
"%.	c #000101",
"&.	c #103242",
"*.	c #26789F",
"=.	c #309CCE",
"-.	c #1D6080",
";.	c #2480AB",
">.	c #2891C3",
",.	c #238BBC",
"'.	c #187CAA",
").	c #1F86B6",
"!.	c #2993C4",
"~.	c #2B96C8",
"{.	c #277FA7",
"].	c #061217",
"^.	c #07141B",
"/.	c #26769A",
"(.	c #35A3D6",
"_.	c #34A2D5",
":.	c #33A1D4",
"<.	c #329FD1",
"[.	c #0D2B39",
"}.	c #0C2A37",
"|.	c #2C96C8",
"1.	c #2993C5",
"2.	c #258DBD",
"3.	c #2983AD",
"4.	c #040C10",
"5.	c #0C2530",
"6.	c #3296C5",
"7.	c #37A7DA",
"8.	c #37A6D9",
"9.	c #35A4D7",
"0.	c #329CCD",
"a.	c #020709",
"b.	c #1A5874",
"c.	c #258EBF",
"d.	c #268FBF",
"e.	c #2D92C1",
"f.	c #061319",
"g.	c #0B202B",
"h.	c #349DCD",
"i.	c #39A9DC",
"j.	c #3AAADE",
"k.	c #39A9DD",
"l.	c #37A6DA",
"m.	c #2C86B0",
"n.	c #2579A1",
"o.	c #103648",
"p.	c #040D11",
"q.	c #3092C0",
"r.	c #38A8DC",
"s.	c #3BABDF",
"t.	c #3CADE2",
"u.	c #3DADE2",
"v.	c #267498",
"w.	c #2C8FBD",
"x.	c #2790C0",
"y.	c #0F455F",
"z.	c #227195",
"A.	c #226B8C",
"B.	c #36A5D8",
"C.	c #39A8DC",
"D.	c #3BACE0",
"E.	c #3EAFE4",
"F.	c #3CACE1",
"G.	c #236A8B",
"H.	c #010506",
"I.	c #2F96C6",
"J.	c #2B95C7",
"K.	c #09202A",
"L.	c #0C2632",
"M.	c #33A0D3",
"N.	c #36A4D8",
"O.	c #23698A",
"P.	c #020507",
"Q.	c #1F6D92",
"R.	c #24759A",
"S.	c #32A0D3",
"T.	c #257194",
"U.	c #000102",
"V.	c #2C90BF",
"W.	c #0E3142",
"X.	c #091D27",
"Y.	c #2F9ACC",
"Z.	c #319ED1",
"`.	c #35A3D7",
" +	c #38A7DA",
".+	c #287FA7",
"++	c #277FA8",
"@+	c #2589B7",
"#+	c #020608",
"$+	c #18536F",
"%+	c #33A1D3",
"&+	c #2E93C2",
"*+	c #1D6384",
"=+	c #1A6588",
"-+	c #247EA8",
";+	c #319DD0",
">+	c #329FD2",
",+	c #32A0D2",
"'+	c #319ED0",
")+	c #07171F",
"!+	c #134359",
"~+	c #0F3D52",
"{+	c #05141B",
"]+	c #2F9BCE",
"^+	c #2E9ACD",
"/+	c #10384B",
"(+	c #081D26",
"_+	c #081F2A",
":+	c #0D3445",
"<+	c #1C6283",
"[+	c #227FAA",
"}+	c #072837",
"|+	c #0D4A66",
"1+	c #0E4B67",
"2+	c #0F4D69",
"3+	c #104E6B",
"4+	c #12506D",
"5+	c #13526F",
"6+	c #134C66",
"7+	c #2588B6",
"8+	c #02080A",
"9+	c #0D3446",
"0+	c #155573",
"a+	c #145471",
"b+	c #114E6B",
"c+	c #082837",
"d+	c #000001",
"e+	c #010405",
"f+	c #19688C",
"g+	c #197EAD",
"h+	c #177AA8",
"i+	c #1B81B0",
"j+	c #187CAB",
"k+	c #177AA9",
"l+	c #1B80AE",
"m+	c #0A394E",
"    . . . . . . . . . . . . . . . . . . . . . . . . . . . .     ",
"  . + @ # # # $ % & * = - ; > , , , , > ; - = * & ' $ # @ + .   ",
". + ) ! ! ! ! ~ { ] ^ / ( _ : < [ [ < : } ( / ^ ] { ~ ! ! ) + . ",
". @ ! ! ! ! | 1 2 3 ( : 4 5 6 7 8 8 7 6 5 4 : ( 9 2 1 0 ! ! @ . ",
". # ! ! ! ~ 1 2 a _ 4 b c d e f g g g e d c 6 4 } a 2 h 0 ! # . ",
". # ! ! ~ { 2 a } 5 7 d g i j k k k k j i g d 7 5 } a 2 1 ~ # . ",
". # ! l m n / } 5 c e i o p q r s s s t p o u v w 5 } a 2 x % . ",
". # ! | h ^ y 4 8 e i z t A B C C C D E F G H I f c J K 3 L & . ",
". # l x 2 M < 6 N i z r O P Q R S T . U V W X Y i e 7 [ Z 2 ` . ",
". # ~ h  .K 5 w ..k r B +.@.#.$.%.&.*.=.=.-.X ;.>...,.5 _ 3 = . ",
". $ '.] a ).6 e j !.~.+.=.{.].^./.(._.:.<.[.}.|.1.j 2.7 < a = . ",
". % x 2 ( 4 c g k s C R 3.4.5.6.7.7.8.9.0.a.b.C s >.c.w 4 ( - . ",
". % { ^ y 5 ,.d.z A +.e.f.g.h.i.j.j.k.l.m.. n.+.~.!.i d 5 K - . ",
". % 1 ^ K 5 d i !.|.Q o.p.q.r.s.t.u.s.r.v.%.w.Q O !.x.d 5 _ y.. ",
". % 1 ^ _ 5 d i !.O z.%.A.B.C.D.E.E.F.k.G.H.I.R B 1.j N b } ; . ",
". % 1 ^ K 5 d i !.J.K.L.M.N.r.s.t.u.s.C.O.P.I.Q O !.x.d 5 _ y.. ",
". % { ^ y 5 ,.d.z Q.. R.S.(.8.C.j.j.k.l.T.U.V.+.~.!.i d 5 y - . ",
". % x 2 ( 4 c g k W.X.Y.Z.:.`.8.7. +8.9..+. ++C s z c.w 4 ( - . ",
". $ '.] a ).6 e @+#+$++.=.Z.%+_.(.(._.:.&+X *+|.1.j 2.7 < a = . ",
". # ~ h ^ K 5 w =+%.-+B +.@.;+>+,+,+>+'+R )+!+r >.d.,.5 _ 3 = . ",
". # l x 2 a < 6 ~+{+k r O P Q ]+=.=.]+^+P /+(+z i e 7 [ Z 2 ` . ",
". # ! | h  .y 4 _+:+i z t A B C C C C B A <+U.[+f c J K 3 L & . ",
". }+|+1+2+3+4+5+a.6+e i o p q r s s s t p 7+8+9+0+a+5+4+b+2+c+. ",
". . d+d+d+d+d+d+e+f+7 d g i j k k k k j i g ~+%.d+d+d+d+d+d+. . ",
". # ! ! ! ~ 1 2 a _ 4 b c d e f g g f e d w 6 4 } a 2 g+0 ! # . ",
". # ! ! ! ! | 1 2 3 ( : 4 5 6 7 8 8 7 6 5 4 : ( 9 2 1 0 ! ! # . ",
". # ! ! ! ! ! ~ { ] ^ / ( _ : < [ [ < : } ( a ^ ] { ~ ! ! ! # . ",
". # ! ! ! ! ! ! h+'.1 ] 2  .9 a a a a / 3 i+] 1 j+h+! ! ! ! # . ",
". @ ! ! ! ! ! ! ! ! k+'.{ h ] n l+l+n ] h { '.~ ! ! ! ! ! ! @ . ",
". + ) ! ! ! ! ! ! ! ! ! l ~ 0 '.'.'.'.0 ~ h+! ! ! ! ! ! ! ) + . ",
"  . + m+# # # # # # # # # # # $ $ $ $ # # # # # # # # # m++ .   ",
"    . . . . . . . . . . . . . . . . . . . . . . . . . . . .     "};
