/* XPM */
static const char * wsicon48_xpm[] = {
"48 48 269 2",
"  	c None",
". 	c #176A8C",
"+ 	c #176B8D",
"@ 	c #156B8D",
"# 	c #166A8C",
"$ 	c #166B8C",
"% 	c #146C8D",
"& 	c #146B8F",
"* 	c #136B8F",
"= 	c #166A8D",
"- 	c #146B90",
"; 	c #176B8E",
"> 	c #126B8F",
", 	c #136B8E",
"' 	c #156B8E",
") 	c #176A8D",
"! 	c #136B90",
"~ 	c #146B8E",
"{ 	c #156A8E",
"] 	c #167FAC",
"^ 	c #1678A5",
"/ 	c #14739B",
"( 	c #136D92",
"_ 	c #136A8E",
": 	c #136589",
"< 	c #116183",
"[ 	c #105C7D",
"} 	c #1781AF",
"| 	c #1681AF",
"1 	c #1681AE",
"2 	c #157DAA",
"3 	c #1577A1",
"4 	c #147197",
"5 	c #126C90",
"6 	c #12678A",
"7 	c #126285",
"8 	c #115D7E",
"9 	c #0F5A79",
"0 	c #105978",
"a 	c #105979",
"b 	c #1680AE",
"c 	c #157BA6",
"d 	c #14759E",
"e 	c #146F95",
"f 	c #13698C",
"g 	c #126486",
"h 	c #115F80",
"i 	c #115A79",
"j 	c #115978",
"k 	c #167FAB",
"l 	c #1579A4",
"m 	c #14749C",
"n 	c #136D94",
"o 	c #14698D",
"p 	c #126588",
"q 	c #116182",
"r 	c #10597A",
"s 	c #147299",
"t 	c #146C90",
"u 	c #136789",
"v 	c #126284",
"w 	c #11597A",
"x 	c #1780AE",
"y 	c #157BA7",
"z 	c #14769E",
"A 	c #147095",
"B 	c #12688C",
"C 	c #115F7F",
"D 	c #105B7A",
"E 	c #105D7D",
"F 	c #105D7E",
"G 	c #105A79",
"H 	c #105878",
"I 	c #115776",
"J 	c #0E516D",
"K 	c #0D4C68",
"L 	c #1780AF",
"M 	c #1581AE",
"N 	c #0F5978",
"O 	c #0F5472",
"P 	c #0C465D",
"Q 	c #0E445C",
"R 	c #167CA9",
"S 	c #12688D",
"T 	c #115C7E",
"U 	c #105777",
"V 	c #0F4A65",
"W 	c #156C94",
"X 	c #105C7C",
"Y 	c #105776",
"Z 	c #0A4156",
"` 	c #072C3A",
" .	c #0F4B65",
"..	c #13719A",
"+.	c #105675",
"@.	c #105775",
"#.	c #0E506E",
"$.	c #0B394D",
"%.	c #177FAD",
"&.	c #115E7E",
"*.	c #135E7D",
"=.	c #0A3F55",
"-.	c #072C3C",
";.	c #082636",
">.	c #115877",
",.	c #157199",
"'.	c #0E5471",
").	c #105370",
"!.	c #105371",
"~.	c #0C4B66",
"{.	c #11516E",
"].	c #115D7D",
"^.	c #1B6B8E",
"/.	c #0D465E",
"(.	c #072C3E",
"_.	c #072B3B",
":.	c #0B2C3C",
"<.	c #167BA7",
"[.	c #105372",
"}.	c #0D4860",
"|.	c #146488",
"1.	c #115979",
"2.	c #26789A",
"3.	c #175B78",
"4.	c #082F3F",
"5.	c #0A3143",
"6.	c #0F5370",
"7.	c #115472",
"8.	c #0D475F",
"9.	c #147199",
"0.	c #176585",
"a.	c #3D8CAC",
"b.	c #0B3A4F",
"c.	c #0B3547",
"d.	c #0E5370",
"e.	c #0E4861",
"f.	c #15759F",
"g.	c #4394B1",
"h.	c #236580",
"i.	c #072D3C",
"j.	c #146F97",
"k.	c #115270",
"l.	c #115876",
"m.	c #0E4D66",
"n.	c #1576A0",
"o.	c #125E7E",
"p.	c #59A9C2",
"q.	c #0D3E55",
"r.	c #092D3D",
"s.	c #116487",
"t.	c #125977",
"u.	c #125470",
"v.	c #15749E",
"w.	c #227090",
"x.	c #428CA6",
"y.	c #083042",
"z.	c #082635",
"A.	c #125876",
"B.	c #13688C",
"C.	c #13739D",
"D.	c #115C7C",
"E.	c #1A6180",
"F.	c #146D94",
"G.	c #3282A4",
"H.	c #1F5F7A",
"I.	c #072B3C",
"J.	c #082837",
"K.	c #0F4A64",
"L.	c #105473",
"M.	c #0E4F6C",
"N.	c #0D485F",
"O.	c #106081",
"P.	c #135E7F",
"Q.	c #105A7B",
"R.	c #116C91",
"S.	c #1477A1",
"T.	c #105574",
"U.	c #105674",
"V.	c #267293",
"W.	c #13658A",
"X.	c #2C7B9C",
"Y.	c #10465D",
"Z.	c #072B3A",
"`.	c #0C3548",
" +	c #0F5774",
".+	c #0D4C66",
"++	c #0C465E",
"@+	c #0D435A",
"#+	c #0C4055",
"$+	c #0A3A4E",
"%+	c #093245",
"&+	c #10536F",
"*+	c #0F5471",
"=+	c #0F5675",
"-+	c #105A7A",
";+	c #115E7F",
">+	c #0F5574",
",+	c #0F526F",
"'+	c #327FA0",
")+	c #156182",
"!+	c #1F6C8C",
"~+	c #0B3B50",
"{+	c #062534",
"]+	c #09374B",
"^+	c #0B4156",
"/+	c #0A3B4F",
"(+	c #093547",
"_+	c #082F41",
":+	c #082C3E",
"<+	c #082A3D",
"[+	c #11536F",
"}+	c #105472",
"|+	c #2A7598",
"1+	c #2D7796",
"2+	c #157CA9",
"3+	c #246F8E",
"4+	c #0B364B",
"5+	c #072A3C",
"6+	c #072D3D",
"7+	c #165C7B",
"8+	c #4698B8",
"9+	c #116488",
"0+	c #1676A1",
"a+	c #1780AD",
"b+	c #125979",
"c+	c #0F5773",
"d+	c #145D7E",
"e+	c #2D7593",
"f+	c #135F81",
"g+	c #116083",
"h+	c #115D7F",
"i+	c #146E94",
"j+	c #167AA6",
"k+	c #0F526E",
"l+	c #0E4C68",
"m+	c #0C4760",
"n+	c #0B435A",
"o+	c #0C4259",
"p+	c #0A3B50",
"q+	c #0F5777",
"r+	c #105B7D",
"s+	c #115F82",
"t+	c #105F82",
"u+	c #115B7D",
"v+	c #105E7F",
"w+	c #0E4B65",
"x+	c #0B445D",
"y+	c #0C3D52",
"z+	c #0A364A",
"A+	c #083144",
"B+	c #072D3E",
"C+	c #0F5371",
"D+	c #105573",
"E+	c #082E3E",
"F+	c #082E3F",
"G+	c #13526F",
"H+	c #092A3A",
"I+	c #125270",
"J+	c #082B3B",
"K+	c #11526F",
"L+	c #082B3A",
"M+	c #12526F",
"N+	c #105271",
"O+	c #072A3A",
"P+	c #082A3A",
"Q+	c #13526D",
"R+	c #11526E",
"S+	c #082A3C",
"T+	c #092E40",
"                                                                                                ",
"                                                                                                ",
"                                                                                                ",
"                                          . + @ #                                               ",
"                                  $ % & * * * * * * & @ @                                       ",
"                            = - * * * * * * * * * * * * * * & $ @                               ",
"                    ; @ > , * * * * * * * * * * * * * * * * * * * > ' )                         ",
"            # ) * * * ! * * * * * * * * * * * * * * * * * * * * * * * * * * ' .                 ",
"      ' & ! & & * * * * * * * * * * * * * * * * * * * * * * * * * * * * * * * * ! ~ { @         ",
"  ] ^ / ( * * * * * * * * * * * * * * * * * * * * * * * * * * * * * * * * * * * * _ : < [       ",
"  } | | 1 2 3 4 5 * * * * * * * * * * * * * * * * * * * * * * * * * * ! ! * 6 7 8 9 0 a a       ",
"  } | | | | | | b c d e * * * * * * * * * * * * * * * * * * * * * * f g h i j a a a a a a       ",
"  } | | | | | | | | | 1 k l m n * * * * * * * * * * * * * * o p q [ r a a a a a a a a a a       ",
"  } | | | | | | | | | | | | | | 2 3 s t * * * * * * * u v 8 w a a a a a a a a a a a a a a       ",
"  } | | | | | | | | | | | | | | | | | x y z A B g C D a a a a a a a a a a a a a a a a a a       ",
"  } | | | | | | | | | | | | | | | | | | | | 1 E a a a a a a a a a a a a a a a a a a a a a       ",
"  } | | | | | | | | | | | | | | | | | | | | | F a a a a a a a a a a a a a G H a a a a a a       ",
"  } | | | | | | | | | | | | | | | | | | | | | F a a a a a a a a a a a a I J K a a a a a a       ",
"  } | | | | | | | | | | L M x L | | | | | | | F a a a a a a a a a a a N O P Q a a a a a a       ",
"  } | | | | | | | | 1 R S T U V W | | | | | | F a a a a a a a a a a X Y Z `  .a a a a a a       ",
"  } | | | | | | | | ..+.@.+.#.$.%.| | | | | | F a a a a a a a a a &.*.=.-.;.>.a a a a a a       ",
"  } | | | | | | | ,.'.).).!.~.{.| | | | | | | F a a a a a a a a ].^./.(._.:.a a a a a a a       ",
"  } | | | | | | <.O ).).).[.}.|.| | | | | | | F a a a a a a a 1.2.3.4._._.5.j a a a a a a       ",
"  } | | | | | | v 6.).).).7.8.9.| | | | | | | F a a a a a a a 0.a.b._._._.c.a a a a a a a       ",
"  } | | | | | k d.).).).).+.e.f.| | | | | | | F a a a a a a 1.g.h.i._._._.5.0 a a a a a a       ",
"  } | | | | | j.).).).).k.l.m.n.| | | | | | | F a a a a a a o.p.q._._._._.r.a a a a a a a       ",
"  | | | | | | s.).).).).).t.u.v.| | | | | | | F a a a a a a w.x.y._._._._.z.A.a a a a a 1.      ",
"  B.C.%.| 1 | D.).).).).).A.E.F.| | | | | | | F a a a a a a G.H.I._._._._.J.K.a a a j L.M.N.    ",
"].O.P.Q.v R.S.T.).).).).).U.V.W.| | | | | | | F a a a a a 0 X.Y.Z._._._._._.`. +J .+++@+#+$+%+  ",
"&+*+=+-+;+O.>+,+).).).).).*+'+)+| | | | | | | F a a a a a G !+~+_._._._._._.{+]+^+/+(+_+:+<+_.  ",
"[+).).).).}+}+).).).).).).&+|+1+2+| | | | | | F a a a a a D.3+4+5+_._._._._._.6+6+_._._._._._.  ",
"[+).).).).).).).).).).).).k.7+8+9+0+a+| | | | F a a a b+c+d+e+y._._._._._._._._._._._._._._._.  ",
"[+).).).).).).).).).).).).).!.f+g+h+[ g i+j+| E >.k+l+m+n+o+p+_._._._._._._._._._._._._._._._.  ",
"[+).).).).).).).).).).).).).).).}+q+r+s+t+u+v+w+x+o+y+z+A+B+_._._._._._._._._._._._._._._._._.  ",
"[+).).).).).).).).).).).).).).).).).!.C+D+H 8 ~+%+E+_.Z.I._._._._._._._._._._._._._._._._._._.  ",
"[+).).).).).).).).).).).).).).).).).).).).).6.E+_._._._._._._._._._._._._._._._._._._._._._._.  ",
"[+).).).).).).).).).).).).).).).).).).).).).!.F+_._._._._._._._._._._._._._._._._._._._._._._.  ",
"[+).).).).).).).).).).).).).).).).).).).).).!.F+_._._._._._._._._._._._._._._._._._._._._._._.  ",
"[+).).).).).).).).).).).).).).).).).).).).).!.F+_._._._._._._._._._._._._._._._._._._._._._._.  ",
"G+!.).).).).).).).).).).).).).).).).).).).).!.F+_._._._._._._._._._._._._._._._._._._._._._.H+  ",
"      k.I+).).).).).).).).).).).).).).).).).!.F+_._._._._._._._._._._._._._._._._.J+_.          ",
"            K+K+6.).).).).).).).).).).).).).!.F+_._._._._._._._._._._._._.J+J+L+                ",
"                    M+&+N+).).).).).).).).).!.F+_._._._._._._._._.J+O+H+                        ",
"                            M+).C+!.).).).).!.F+_._._._._._.Z.P+                                ",
"                                  Q+R+&+).).!.F+_.J+Z.S+L+                                      ",
"                                          K+M+T+J+                                              ",
"                                                                                                ",
"                                                                                                "};
